<svg xmlns="http://www.w3.org/2000/svg" viewBox="0 0 7500 5000"><defs><style>.cls-1{fill:#fefefe;}.cls-2{fill:#eaf3fa;}.cls-3{fill:#fa9746;}.cls-4{fill:#ed7d2b;}.cls-5{fill:#2f3653;}.cls-6{fill:#82b479;}.cls-7{fill:#79aceb;}.cls-8{fill:#79acea;}.cls-9{fill:#e0ebfd;}.cls-10{fill:#2b468b;}.cls-11{fill:#c7dcfb;}.cls-12{fill:#2d3a64;}.cls-13{fill:#233863;}.cls-14{fill:#ffb27f;}.cls-15{fill:#c6dbfa;}.cls-16{fill:#a8d2a0;}.cls-17{fill:#dde3dc;}.cls-18{fill:#e0dfd2;}.cls-19{fill:#d7e9ff;}.cls-20{fill:#5388d8;}.cls-21{fill:#fff;}.cls-22{fill:#fffefd;}.cls-23{fill:#eaf3f9;}.cls-24{fill:#dfe8f9;}.cls-25{fill:#699eee;}.cls-26{fill:#e9f0f5;}.cls-27{fill:#ddd9ca;}.cls-28{fill:#c7c8aa;}.cls-29{fill:#fcfdfe;}.cls-30{fill:#ffb27e;}.cls-31{fill:#243964;}.cls-32{fill:#eaeef2;}.cls-33{fill:#8bba81;}.cls-34{fill:#99c690;}.cls-35{fill:#aecdfb;}.cls-36{fill:#c65547;}.cls-37{fill:#c65d52;}.cls-38{fill:#afcdfb;}.cls-39{fill:#afcdfa;}.cls-40{fill:#feb17e;}.cls-41{fill:#fdb17f;}.cls-42{fill:#feb27f;}.cls-43{fill:#c96153;}.cls-44{fill:#b3c7ef;}.cls-45{fill:#ed9960;}</style></defs><title>Asset 1</title><g id="Layer_2" data-name="Layer 2"><g id="Layer_1-2" data-name="Layer 1"><ellipse class="cls-1" cx="3750" cy="2500" rx="5303.3" ry="3535.53"/><path class="cls-2" d="M3560,1748.11c1.49-2.19,2.6-4.81,4.53-6.49,19.64-17.14,35.54-37.83,52.44-57.38,19.47-22.53,39-45.07,58-68.1,30.81-37.39,59.27-76.53,89.08-114.66,11.83-15.14,22.18-31.44,32.93-47.4,25.21-37.46,51.28-74.39,75.06-112.74,21.39-34.49,45.34-67.06,69.52-99.48,11.05-14.83,24.33-28.17,36.08-42.44,17.88-21.71,38.35-40.62,57.73-60.7,20.32-21,43.29-39.14,65.46-58.15,34.89-29.92,72.84-55.49,111.23-80.45,25.05-16.3,50.48-32.08,77.58-45,13.23-6.29,26.42-12.73,39.31-19.7,35.2-19,72.64-32.84,109.67-47.66,58.09-23.25,118.35-39.53,179-54.06,31.47-7.53,63.13-14.69,95.51-18.22,23-2.51,45.56-9.14,68.52-10.54,19.87-1.21,39.33-6.61,59.43-5.13,8.57.63,17.19.53,25.65-2.58,4.2-1.54,9.19-1.21,13.83-1.22,67.31-.06,134.64-.54,201.94.27,19.79.23,39.48,4.89,59.47,4.07,10.8,4.58,22.3,2.68,33.48,3.81,15.76,1.59,31.42,4.25,47.07,6.78,10.45,1.68,21,2.52,31.47,4.18,47.09,7.48,93.67,17.17,140.26,27.25,39.64,8.57,78.28,20.32,117.15,31.43,21.07,6,42.14,12.19,62.74,19.59,33.75,12.13,67.21,25,100.61,38.12,25.38,9.93,50,21.73,74.88,32.75,24.39,10.79,48.19,22.63,71.92,34.65,34.39,17.44,67.61,37,100.5,57.1,15.3,9.35,30.91,18.22,45.85,28.12,19.92,13.18,39.52,26.88,58.89,40.85q29.84,21.53,58.93,44c11,8.5,20.71,18.87,32.24,26.53,20.7,13.74,34.55,35.09,55.56,48.34,3.86,2.43,6.76,6.39,10.06,9.69,17,17,34.21,33.66,50.83,51,17.95,18.69,36.44,37,52.69,57.13,27.92,34.52,55.09,69.66,81,105.79,15.9,22.17,29.64,45.65,45,68.09,6.77,9.86,11.58,20.88,17.81,31.14,18.34,30.15,34.38,61.65,49,93.74a1296.7,1296.7,0,0,1,62,163.93c14.3,47.6,26.23,95.81,34.25,144.94,3.52,21.52,9.42,42.85,10.74,64.48,1.18,19.22,6.55,38,5.05,57.43-.26,3.3-.68,6.93.35,9.94,5.31,15.58,3.45,31.65,3.52,47.53.2,44.66.07,89.31,0,134,0,8,.72,16-2.74,23.62a8.13,8.13,0,0,0-.82,3.88c1.78,20.07-4.65,39.52-4.41,59.47.19,15.32-3.72,30.2-5.05,45.4-1.78,20.32-7.68,40.24-10.65,60.51-5.88,40.07-16.26,79.11-25.47,118.45-7.69,32.87-16.35,65.62-21.78,98.88-3.72,22.76-10.27,45.35-9.13,68.82-5.65,18.86-1.63,38.55-4.6,57.4-2.61,16.59-4.14,33-3.06,49.55,1.41,21.82,2.54,43.74,4.7,65.43,3.12,31.5,9.19,62.79,15.42,93.88,4,20.11,9.92,39.93,16.16,59.5a774.4,774.4,0,0,0,42.72,107.34c22,44.73,45.45,88.57,71.3,131.23,18.94,31.25,39.14,61.69,58.07,92.92,22.38,36.91,46.79,72.56,66.86,110.94,9.23,17.65,19.09,35,27.91,52.93,22.68,46,41.43,93.5,52.44,143.78,4,18.1,7.91,36.21,11.52,54.38.9,4.51.54,9.29.63,13.94.13,8-.26,15.9,2.71,23.66,1.38,3.58,1.2,7.87,1.22,11.83.12,19.33.9,38.71-.19,58-1,17.78-3.61,35.51-6.47,53.11-1.7,10.45-2.73,21-4.13,31.45-3,22.53-9.42,44.11-15,65.89-10,39.3-23.5,77.53-39,115-9.65,23.34-20,46.35-30.34,69.4-6.26,14-13.82,27.15-20.72,40.71-6.34,6.72-14.73,5.3-22.54,5.32-81.27.13-162.53,0-243.8.14a102.21,102.21,0,0,1-33.33-5.43c-20.6-7-42-6.33-63.26-6.71-8-.14-17.54-.16-20.47-9.12-3.1-9.46,6-14,12.1-18.57,18.77-13.82,37.86-27.21,57.61-39.61,12.51-7.85,24.3-16.55,32.15-29.39,10.79-17.67,4.23-31.05-16.4-34.17-14.47-2.19-25.81,3.38-35.92,13.33-21,20.66-31.72,47.37-43.74,73.32-4.2,9.06-7.1,18.7-11.73,27.57-3.27,6.25-7.75,11.31-15.82,8.64-8.3-2.74-10.93-9.08-9.81-17.34.81-6,2.75-11.67,4.71-17.33,14.24-41.05,31.5-80.6,56.54-116.44,8.38-12,17.06-23.92,22.3-37.77,4.11-10.86,8.13-22.53-3.87-30.7-11.69-8-24.73-10-37.43-1.39-11.35,7.71-18.71,18.73-24.74,30.81-19.67,39.4-26.44,82.21-32.83,125.05-1.87,12.49-4,25-4.59,37.67-.6,13-7.23,20.39-20.49,18.19-21.38-3.55-37.87,2.28-49.55,21.19-4.75,7.68-13.4,8-21.51,8q-121.89.31-243.79,0c-6.63,0-13.46.06-18.51-5.49,6.08-28.48,13.59-56.2,34.21-78.56,26.76-29,26.75-37.46,3.56-68.82-6.2-8.39-15.47-15.14-16.15-26.94,3.82-28.93-2.43-57.16-6.58-85.41-16.48-112.15-34.92-223.92-67.3-332.89-14.52-48.87-34.38-94.71-63.56-137.15-32.33-47-49.92-101.4-68.64-154.93-24.68-70.58-33.88-143.68-36.71-217.9-.85-22.5-8.13-44.6-4.19-67.43,5.9-10.13,7.49-20.67,6.22-32.52-7.41-68.85-6.73-138-5.61-207.05.11-6.48-.86-15.07,6.41-17.36,7.49-2.36,10.73,6,15,10.81,32.33,36.06,44.35,77.76,34.79,125.45a25.37,25.37,0,0,0-.5,6c1.86,51.79-4,103.47-2.45,155.21.46,10.75-5.54,18.8-11.46,26.91-9,12.33-14.1,25.54-9.11,41.25,5.69-1.52,8.09-10.93,15.05-7,6.58,3.69,3.7,10.62,3,16.37-1.24,10.37-4.66,20.44-5.7,34.69,24.11-23,46.57-42.51,50.91-74.72.71-5.27,1.88-10.51,5.05-15,5.37-7.07,8.3-15.16,10.27-23.68,14.29-61.65,28-123.42,40.09-185.57,4-20.84,2.81-40.91-1.28-61.33-8.78-43.77-18.67-87.29-28.7-130.78-2.09-9.07-5.09-18-4.87-27.45.09-11.88,8.61-16.76,17.56-21.75,21.06-11.77,22.53-20.49,6.07-38.18-17.58-18.89-36.81-36.19-54.35-55.17-5.54-9.09-10.26-18.37-6.9-29.52,9.08-9.55,16.11-.26,22.61,3.47,28.09,16.13,58.24,25.91,89.74,32.69,20.63,4.44,39.7.87,58.29-7.59,38.06-17.32,66.82-45.65,91.72-78.38a671.77,671.77,0,0,0,59.6-93.31c-36.19,3.11-68.35-.63-100.23-7.24-32.19-6.67-62.86-17.51-91.67-33.45a62.58,62.58,0,0,1-8.58-5.1c-7.82-6.14-18-11.93-16.35-23.28,1.84-12.95,14.21-14.11,24.51-16.75,14.37-3.69,29-3.73,43.68-3.7,42.65.08,85.31-.45,127.95.14,67.05.91,94.43-25.6,111.12-96,8.84-37.26,3.77-74.39-5-110.78-10.94-45.27-46.08-67.11-86.36-81.15-38.66-13.47-79.39-16.74-120.13-17.28-22.15-.3-39.82,6.76-54.57,26.31-43.71,57.94-88.91,114.83-140.41,166.31a209.88,209.88,0,0,1-32.24,26.76c-7.93,5.25-16.87,10.41-25.84,4s-7.05-16.82-4.86-25.84c3.48-14.29,9.54-27.74,16.49-40.66,22.75-42.26,46.43-84,73.17-123.86,3.91-5.85,8.26-11.74,10.35-21-68.34-2.51-129.36,21.91-191.72,39.64a35.4,35.4,0,0,1-19.65-1.26c-53.25-19.58-107.47-14-161.37-4.63-57.65,10-65.3,57.65-27.64,90.18,3.17,7.12-1.65,11.18-6.22,14.86-19.43,15.66-39.54,30.47-57.71,47.68-4.11,3.88-9.29,8.19-15.44,2.34-7.22-9.55-7-21.27-8.77-32.19-6.29-39.77-16.95-78.85-19.15-119.26,3.16-9.67,12.07-11.53,20.05-14.53,38.56-14.52,76.52-30.28,111.53-52.42,11.87-7.51,23-15.72,32.42-26.17,13.77-15.34,13-28.12-4-40.08-27.93-19.68-60.47-30.08-91.46-43.57a113.1,113.1,0,0,0-13.08-4.79c-10.8-3.17-17.18-9.67-16.78-21.55a26.29,26.29,0,0,1,2.08-9.17c5.75-12.14,16.3-9.91,26-8,31.73,6.34,63.79,4.23,95.69,3.62,53.62-1,94-27.27,123.42-70.49,41.63-61.24,62.11-130.79,75.55-202.7,3.16-16.87,6.88-33.78,7.47-50.74-5.66-4.36-9.48-.19-13.38,1.55-80.17,35.82-163.89,44.78-250.17,32.29-14.73-2.13-33.28-4.45-36.65-22.35-3.48-18.48,13.9-26.18,27-33.18,45.37-24.28,94.11-40.7,142.23-58.46,28.12-10.38,56-21.55,84.56-30.6,54.67-17.35,77.09-58.17,78.52-110.72,2.27-83-25.69-156.26-85.84-214.25-36-34.69-83.46-39.81-131-36.19-58.93,4.49-115.22,20.48-169.45,44.15-15.22,6.64-24.35,16-29.26,32.33-25.65,85.57-54.7,170-89,252.52-9.48,22.79-21,44.6-32.58,66.38-5,9.42-11,18.34-19,25.57-15.89,14.33-29.95,10.29-35.14-10.36-6.85-27.24-.73-54.51,2.52-81.29,7.86-64.84,21.33-128.8,35.57-192.56,1.21-5.43,6-12.31,0-16.59-5.39-3.81-11.32,1.42-16.72,3.58-48.08,19.26-90.42,48.54-132.07,78.38-53.63,38.42-104.66,80.31-154.19,123.94-25.26,22.24-24.6,22.66-14.29,54.69,25.32,78.66,50.56,157.36,64,239.23,2.83,17.25,2.92,34.58,1.38,51.82-1.65,18.46-8.44,24.14-28.26,26.43-6.93-.83-12.23-4.32-16.23-9.93-31.24-51.9-41.87-110.33-53.25-168.53-7.4-37.8-11.21-76.19-18.36-116.54-19.3,9.44-32.83,23.37-45.63,38.19-38.63,44.71-67.86,95.31-93.24,148.37a157.72,157.72,0,0,0-12.1,37.9c-9.6,48.63-.46,93.74,23.79,136.53,4.19,7.37,15.4,15.88,1.82,25.27-28.27,5-56.77,2.19-85.12,2.16-31,0-62.14,2.65-93.05-1.83-11.15-4.21-9.71-14.82-11.52-23.53-10.72-51.54-48.33-87-100.58-94.51-44.39-6.38-93.23,19.46-116.55,61.6a101.45,101.45,0,0,0-11.33,33.86c-1.46,9.29-3.28,18.61-13.8,22.52a1589.44,1589.44,0,0,1-182.23.06c-11.16-4.23-9.58-14.88-11.55-23.58-10.66-47-37.88-78.71-85.17-91-46.59-12.07-85.16,3.16-117.25,37.31-14.64,15.58-21.6,34.94-25.44,55.57-1.74,9.41-3.6,18.57-14.54,21.83a1724.17,1724.17,0,0,1-181.74-.07c-8.59-2.67-9.16-10.1-10.45-17.36-8.65-48.45-35.18-81.65-82.88-96.68C3569.77,1756.34,3562.76,1755.53,3560,1748.11Z"/><path class="cls-2" d="M943.94,4264.15c-7.41-14.29-19.23-25.3-28.47-38.25-10.39-14.56-22.73-27.71-33.13-42.26-28.58-40-56.11-80.72-81.57-122.74-16.51-27.26-30.86-55.84-46.22-83.8-6.4-11.65-13.6-22.91-19.23-34.91-22.57-48.12-45-96.3-64-146C656.3,3757,643,3717.33,631,3677.26a1132.74,1132.74,0,0,1-27.18-110c-3.51-18.18-7.59-36.26-10.82-54.48-2.19-12.37-2.68-25-5.12-37.35-4-20.19-2.21-41-7.2-61.06-1.41-5.68-.5-11.94-.67-17.93-.35-12.58,1.16-25.23-3.23-37.59-1.49-4.19-.7-9.23-.71-13.89-.06-22.66-.11-45.32,0-68,.06-11.27-.93-22.55,3.1-33.6,1.53-4.18.71-9.23.82-13.89.3-13.25-1.28-26.65,3.56-39.52.67-1.79.4-4,.41-6,.18-33.34,7.89-65.65,13.5-98.23,2.7-15.63,7.26-30.94,9.86-46.59,3.38-20.36,10-39.85,15.18-59.69,6.25-23.73,13.72-47.21,21.92-70.35,9.74-27.53,19.36-55.15,31.71-81.71,8.95-19.27,16-39.45,25.85-58.25,6.71-12.87,12.31-26.29,20.18-38.7,10.65-16.81,19.12-35,28.9-52.37q11.24-20,23.43-39.36c12-19.13,23.91-38.34,36.69-56.94,18-26.23,36.31-52.32,55.44-77.76,19.91-26.47,40.73-52.28,61.62-78,10.44-12.87,23.35-23.93,32.59-37.54,12.46-18.34,31.39-30.75,42.86-49.77,2.34-3.88,6.35-6.78,9.65-10.08,27.79-27.81,54.92-56.34,83.66-83.13,16.43-15.32,32.94-30.74,51-44.38,11.06-8.35,21-18.28,31.53-27.39,17.14-14.8,35.28-28.1,53.71-41.06,24.44-17.19,49.06-34.13,74-50.5,21.11-13.82,42.58-27.11,65.15-38.55,13-6.6,25.47-14.37,38.48-21,35.52-18.21,72.55-32.91,109.63-47.64,44.61-17.73,90.6-30.51,137.14-41.23,27-6.23,54.17-12.69,82.11-14,14.47-5.71,30.2-2.75,45.12-6.82,9.34-2.55,19.85-.78,29.83-1a241.69,241.69,0,0,0,33.62-2.77,175.7,175.7,0,0,1,55.73,0,216.07,216.07,0,0,0,29.61,2.76c15.24.29,30.67-1.58,45.48,3.79,22.09-.87,43.34,4.86,65,7.79,45.46,6.17,89.74,17.21,133.74,29.62,17.25,4.86,34.5,9.87,51.38,15.82,31.94,11.27,63.8,22.71,94.77,36.66,26.65,12,53.94,22.67,79.8,36.39,22.29,11.82,44.1,24.57,66.18,36.81,5.82,3.23,11.85,6.09,17.78,9.11,6.28,6.1,4.39,13.54,3,20.63q-30.63,159.69-61.41,319.35a54.63,54.63,0,0,1-5,15.09c-2.95,4.66-5.51,9.87-12.28,9.68-13.5-25.1-13.85-53.66-20.79-80.49-15.84-61.17-29.67-122.93-58.93-179.65-7.62-14.76-15.42-29.68-28.56-40.48-8.88-7.3-18.89-13.61-31-8.08-11.86,5.41-11.38,16.81-11.56,27.55-.47,27.35,9.5,52.2,19.08,77,31.08,80.37,75,154.14,118.42,228.14,4.71,8,10,15.71,12.74,24.78-.54,30.29-6.42,59.61-16.17,88.21-12.11,8.66-16.73-3-21.8-9.22-36.58-44.87-71.55-91.09-110.22-134.22-63.09-70.37-126.6-140.38-203.13-196.94-25.31-18.71-52.2-34.47-82.34-44.14-17.58-5.65-35.4-6.35-53-.65-20.36,6.59-27.24,19.68-21,40.27,8.34,27.73,27.43,48.63,46.91,68.58,58.37,59.75,125.53,109,193,157.7,71.78,51.87,146,100.18,220.88,147.37,10.93,6.88,21.44,14.05,20.7,29.25-8.4,59.18-22.07,117.36-32.86,176.08a21.23,21.23,0,0,1-6.64,12c-10.68,3.87-15.68-4.89-21.8-10.3-40.51-35.81-81.71-70.68-130.74-94.63-8.12-4-18.15-12.65-25.51-7.26-7.82,5.71-.93,17.39.39,26.28,11.07,74.46,22.16,148.9,21.38,224.49-.2,19.47-2.69,38.62-8.65,57.09-4.23,13.15-11.35,25.54-27.14,25.5-14.69,0-21.66-11.9-26.63-23.89A207.89,207.89,0,0,1,2112.2,2969c-5.66-76.25-14.24-152.4-6.26-229.14,6.2-59.58,3.58-62.39-51.06-85.71-90.77-38.76-182-76.28-278.06-100.25A553.94,553.94,0,0,0,1712,2542c-6.34-.8-14.52-3.23-18.84,2.72-4.87,6.71,2.49,12.22,5.54,17.65,41.46,73.82,82.18,148,114,226.66,4.77,11.79,8.82,23.8,10.93,36.32,1.89,11.19,4.32,23.46-6.88,31.17s-22,1.32-31.26-5.35c-26.08-18.87-48-42.34-68.69-66.68-65.34-76.75-122.21-159.84-179.21-242.77-8.44-12.28-17.74-21-33.08-22.8-65.21-7.71-130-8.22-194.67,6.11-91.78,20.32-146.27,74.09-158.74,168.92-6.13,46.63-9.25,92.78,3.74,138.75,6.21,22,15.2,42.7,28.1,61.57,21.28,31.12,49.46,47,88.56,49,79.72,4.09,159.63,6.31,239,15.94,17.88,2.17,35.65,5.51,52.56,11.85,21.76,8.16,24.55,23.18,7.41,39.2-10.83,10.13-23.79,17.06-37.54,22.48-83.79,33-169.84,49.91-260.15,36.4-2.61-.39-5.3-.73-8.74,1.49,2.73,16.29,12.27,30.13,19.81,44.56,34.08,65.25,72.52,127.48,127.16,178.1,26.76,24.8,56.09,44.74,92.45,53.16,18.64,4.32,36.7,3.81,55.44,1.06,59.74-8.79,114.46-30.19,164.86-63.12,17.3-11.3,35.19-21.66,53-32.17,65.31-38.57,134.71-35.88,205.33-19.91a45.24,45.24,0,0,1,14.52,6.58c17.22,11.22,17.57,27.07.18,38-16.09,10.12-34.43,13.91-53.06,16.49-48.81,6.76-97.83,11.72-146.6,19.19-79.89,12.24-136.06,60.76-187.56,117.12-15,16.44-11.6,30.74,7.07,43.41,6.15,4.18,13.11,6.51,20.07,8.81,51.71,17.09,105.08,22.37,159.24,25.51,75.84,4.4,150.29-2.13,223.53-21.18,50-13,98.16-30.61,133-72.38,6.12-7.34,9.1-18.46,20.87-20.09,27.15,14.46,41.1,39.8,54.18,65.89.34,18.15-4.51,35.6-8,53.12-19.83,100.47-38.79,201.12-58.54,301.6-1.76,9-1.92,18.72-9,25.9-36.43-2.93-55.33-27-52-62.19,3.74-39.54.25-78.51-20.14-114.08-20.66-36-52-53.74-93.43-54.85-35.66-.95-70.5,3.29-104.44,14.06-8.53,2.71-21.63,3.42-22.86,12.9-1.08,8.31,11.55,11.38,18.6,15.75,34,21.11,67.37,43.08,95.48,72,9.34,9.62,21.87,20.8,11.81,34.2-10.54,14-25.89,5.78-37.92-1.21-37-21.54-69.55-49.3-101.16-77.89-35.4-32-34.8-32.33-78.26-11-44.28,21.76-88.28,43.92-128.17,73.34-10.1,7.45-19.79,15.12-28.48,26.72,22.47,6.64,43.39,10.26,64,14.72a647.61,647.61,0,0,1,82.52,23.75c5.66,2,11.3,4.18,16,8,11.89,9.58,10.91,19.56-2.67,26.09-8.62,4.15-18,4.39-27.36,4.65a1134.69,1134.69,0,0,1-189.21-10.29c-11.66-1.64-20.67,1.1-29,9.15a357,357,0,0,0-51.82,63.25c-43.45,67.17-25.84,112.85,23.91,159.32,20.88,19.49,44.4,36.1,75.7,36.39,19.94.18,36.12-5.67,50.36-19.69,23.74-23.4,43.88-50.1,68.35-72.82,11.26-10.45,22.88-20.38,35-29.74,7.48-5.77,15.84-11.41,25.51-5.63,10.37,6.2,7.12,16.2,4.81,25.2-11.49,44.82-33.15,84-65.41,117.33-15.51,16-15.28,17,6.49,22.42,40.27,10.08,80.94,15.63,122.55,10.54,30.6-3.73,55.18-15.89,72.53-43.28,21.06-33.26,28.74-70.07,33.46-107.83,5.11-40.84,25.57-72.41,56.35-97.83,9.11-7.52,21.07-20,33.06-8.69,10.64,10,3.1,23.57-3.26,34.9-12.08,21.54-26.92,41.3-40.62,61.75-24,35.75-30.1,74.78-26.8,116.36,2,24.6,13.69,31,34.37,16.68,49.46-34.17,88.66-78.26,120.68-129,4.48-7.1,7.09-16.18,16.77-18.8,6.45,2.11,7,7.73,7.88,13.15,1,11.43-2,22.39-4.28,33.39-10.06,49.34-19,98.89-28.73,148.29-6.54,33.29-.23,61.83,28.72,82.79,4,2.88,9.57,5.66,6.8,12.55-7.58,5.88-16.54,4.29-25,4.29-219.23.1-438.46-.2-657.69.52-21.26.07-36.25-11.35-53.43-19.37-5-2.34-4.86-7.52-4.47-12.28.49-6,2.4-11.8,2.39-17.81,0-6.61.65-14-7.81-16.38-7.08-2-13.13.86-18,6-7.38,7.68-8.95,17.57-10.1,27.6-1.13,9.8-3.76,19.53-15.6,19.77-11.39.23-12.89-10.46-14.8-18.49-8.76-37-18.44-73.66-33.21-108.83a266.48,266.48,0,0,0-32.63-57.13c-10.29-13.72-23.49-23.56-39.92-28.67-7.87-2.45-16.17-3.36-22.45,3.31-5.73,6.09-4.08,13.66-1.78,20.8a153.11,153.11,0,0,0,14.29,30.75c27.53,46.72,62.18,88.11,96.58,129.71,3,3.6,6.31,6.93,8.78,10.88,3.48,5.53,8.77,11.8,1.08,17.34-6.16,4.43-12.8,2.25-18-3-11.25-11.33-22-23.24-34.2-33.52-15.57-13.11-33-21.14-57.14-16,14.52,12.79,29.65,18,44,24.49,12.14,5.5,24.5,10.52,36.1,17.11,3.32,1.88,7.73,3.91,6.68,8.64-.76,3.47-4.81,5.36-8,4.9-29.18-4.25-56.08,10.07-84.83,9.92-76-.4-151.93-.05-227.89-.24C961.48,4269.34,951.68,4271.6,943.94,4264.15Z"/><path class="cls-3" d="M5368.6,2091.86c2.75,17.59,5.28,35.22,8.31,52.77,5.05,29.3,10.36,58.55,15.72,87.8.95,5.18,2.68,10.22,4.06,15.32,13,22.22,13.77,47.17,15.66,71.79a12,12,0,0,1-6.52,11.43c-9.45,4.4-19.57,3.56-29.51,3.56q-1368.4.09-2736.8,0c-9.3,0-18.69.48-27.71-2.55-11.37-5.28-12.64-16.37-14.54-26.67-22.19-120-44.32-240-65.64-360.18-.94-5.32.23-10.6-.51-15.82a32.36,32.36,0,0,1-.95-5.32c-.2-2.66.38.81-.08-1.82-.33.3,0,.69-.13,1.17.06,2.53.49,4.9,0,7.31a5.56,5.56,0,0,1-4.1,2.83c-3.21-.33-4-3-5.25-5.3.71-13.94,4.72-27.28,7.86-40.74,2.7-11.59,11-17.63,22.53-19.55,9.94-1.78,19.9-3.43,29.85-5.32,61.84-.76,123.66-2.79,185.42,1,9.1,2.84,9.48,9.92,8.5,17.7-3.55,28.37-15.26,52.21-38.45,69.78-13.31,10.08-26.84,16.65-44.32,9.43-11.48-4.75-21.17.29-26.54,11.3-4,8.15-1.28,16.09,5.49,21.56,9.79,7.94,20.25,6.68,28.86-1.81,9.24-9.1,20.73-14.28,31.38-21,29.95-19,51.12-44.45,55.71-81.07,1-7.92,1.14-16.17,8.87-21.26l191-.27c9.95-1.69,19.91-3.36,29.86-5.24,60.34-1,120.67-2.33,180.94.58,10.57,2.61,13.17,10.27,11.86,19.86-4.72,34.56-21.54,61-52.73,77.62-9,4.78-17.94,3.39-27,0-11.6-4.27-21.26-1.12-27.48,9.5-5,8.56-3.29,17.25,4.36,23.33,10,7.92,20.06,5.48,28.92-2.51,8-7.21,17-12.68,26.4-17.85,34.9-19.24,56.61-47.76,61.2-88.13.75-6.61,1-13.53,8.38-16.91l191-.26c10.05-1.66,20.07-3.43,30.12-5.28,60.71-.75,121.42-2.86,182.06,1,12.36,4.91,11.24,15.78,9.56,25.36-5.49,31.2-22,55.09-49.83,70.84a29,29,0,0,1-25,2.15c-4.39-1.53-8.81-3.28-13.55-2.87-9.57.8-16.12,6-19.37,14.86-2.83,7.69-.71,14.57,5.81,19.53,6.91,5.25,16.2,7.73,22.17,1.84,16.43-16.19,39.4-22.15,56-37.61,21-19.64,34.64-43.42,38.51-72.36.82-6.14-1.32-13.78,6.88-17.06q83.61-.09,167.2-.19c8,0,15.92-.26,23.87-.4,9.59-2.33,19.65-1.7,29.17-4.69,61.62-1.64,123.22-3.08,184.77.65,12.29,5.07,11.06,15.95,9.37,25.53-5.54,31.35-23,54.78-50.32,70.85-7.24,4.26-15.08,4.89-23.14,2.34-3.81-1.2-7.51-2.78-11.49-3.35-10.78-1.55-18.13,3.62-22.55,12.75-3.94,8.13-1.8,16,4.88,21.7,8.16,7,18.51,7.44,25.51.2,11.53-11.93,26.63-17.37,39.93-26,29.12-18.9,45-46.28,51.31-79.94,1.26-6.78-1-15.15,7.25-19.39q83.53-.12,167.08-.25c8,0,15.91-.24,23.86-.36,9.53-3,19.79-1.41,29.3-4.71,61.67-1.7,123.32-3.07,184.91.61,11.47,4.32,10.95,14.35,9.75,23.44-4.54,34.56-26,57.2-54.56,74.21-8.16,4.86-16.72,2.16-25-.88-12.76-4.67-22.4-.29-28.16,11.43-4.37,8.91-1.67,17.46,6.4,22.8,10.45,6.93,20.49,3.95,28.69-4.65,6.1-6.41,13.37-10.62,21.15-14.56,36.91-18.71,59.07-48.36,65.59-89.47,1-6.28-.45-13.68,6.73-17.68q82.43-.07,164.86-.2c7.26,0,14.52-.53,21.79-.81a9.79,9.79,0,0,1,5.86-2.18,69.71,69.71,0,0,0,28.61-2.11c61.54-1.56,123-3.1,184.51.72,12.27,5.25,10.52,15.81,8.69,25.52-5.3,28.18-20.78,49.93-44.17,66.11-10.26,7.11-21.38,10.6-33.81,5.4a27.84,27.84,0,0,0-9.69-2.12c-8.78-.3-15.64,3.09-19.36,11.21s-2.26,15.73,3.39,22.3c5.95,6.9,15.62,9.44,21.59,4.39,22.21-18.8,51.43-27.71,70.19-51.29a128.3,128.3,0,0,0,26.87-61.23c1.21-7.71.62-16.38,10.07-20,33.57-4.85,67.29-1.62,100.92-2.12,27.06-.4,54.17-1.07,81.21.62,9.74,1.62,19.42,4.66,29.46,1.71a69.24,69.24,0,0,1,13.3-1.59c18.58.1,37.17.17,55.72-.38,33.35-1,59.34,11.39,77.16,40,6.07,15.41,13.72,30.55,8.9,48-8.29,13.49-20.18,16.11-34.41,11-7.1-2.54-14.07-4-21.12,0-10.12,5.8-13.1,20.19-6.12,29.51,7.21,9.62,20.78,10.28,31.63,1s20.37-21.44,37.38-13.7c9.88,32.84,13.86,66.84,19.86,100.43A20.86,20.86,0,0,1,5368.6,2091.86Z"/><path class="cls-4" d="M2520.61,1928.19l3.73,4.51c12.26,18.65,2.3,38.07,0,56.26q-18.72,147.59-38,295.12-62.71,480.52-125.46,961-44.46,341.84-89.43,683.61c-8.21,62.07-16.54,124.13-24.44,186.24-7.74,60.89,10.21,109.14,67.75,138.07,5.81,2.92,12.3,5.66,13.95,13.23-3.92,6.77-10.79,7.61-17.33,7.6-56.93,0-113.88,2.4-170.8-1.24-5.14-1.35-9.55-3.75-12.15-8.66a70.32,70.32,0,0,0-6.48-4.46c-24.18-13.14-44.65-42.28-37-83.33,8.07-43,17-85.86,25-128.88,3.65-19.52,9.1-38.75,10.31-58.7,4.26-6.7-.72-13.63.48-20.41,1.54-5.86,2-11.89,2.53-17.9,3.5-17.28,6.48-34.66,10.58-51.82.78-9.5,4.56-18.48,4.78-28.08,2.31-10.52,1.27-22.14,9.93-30.59,6.48-14.77,7.52-30.85,10.59-46.37q28.23-142.79,55.45-285.77c3.26-16.93,5.78-34,8.65-51-5.12-16.78,2.71-32.26,5-48.26,1.77-12.32,4.87-24.43,6.39-36.81q11-53.84,21.3-107.82c25.07-132.9,51.44-265.54,76.68-398.39,2-10.26,2-21.5,10.82-29.36,4.93-23.95,10-47.87,14.76-71.85q10.65-53.49,20.95-107.05c.88-4.55,1.29-9.18,1.91-13.77.83-17.59-4-36.28,10-51.3,5.49-27.39,11-54.77,16.41-82.19.63-3.22.38-6.62.54-9.94-3-13.56,1.18-26.4,3.88-39.4,2.6-5.46,6.28-10.42,7.6-16.48,5.4-26.69,11-53.34,16.18-80.07q25.52-131,50.78-262.15c.87-4.52.86-9.21,1.26-13.82,6.73-18.19,8.07-37.54,12.05-56.33C2507.13,1997.25,2513.73,1962.69,2520.61,1928.19Z"/><path class="cls-5" d="M2136.14,4266.78q89.54.14,179.06.27c4.62,0,9.32.38,13.59-2.06a10.3,10.3,0,0,1,7.27-2.67c220.6.71,441.21-1.44,661.81-.88,784.48,2,1569,.4,2353.44.8,69.53-1.26,139.07-1,208.6-.2,105.09-.55,210.17,1,315.25.18,31.3-.68,62.6-1.67,93.88.56,7.51,3.42,15.47,3.36,23.49,3.32,24-.11,47.95-.6,71.9.06,120.37,3.3,240.61-8.78,360.89-4.41,254.16,9.23,508.37,1.61,762.54,4.32,4,0,8-.33,11.86,1.08,5.54,1.18,7.84,4.74,7,10.17-.72,4.61-4,6.84-10.38,7.11-5.33.22-10.66.11-16,.11H474.65c-4.66,0-9.33.14-14,0-11.13-.44-11.74-1.27-12.14-15.13,2.42-4.61,6.82-2.92,10.56-3.3,245.06,0,490.12,1,735.17-.72,63-.46,126.27-6,189.32-3.54,247.52,9.48,495.1,1.45,742.63,4.25A47.31,47.31,0,0,1,2136.14,4266.78Z"/><path class="cls-6" d="M7199.72,4267.15c-6.62.39-13.24,1.11-19.87,1.11q-341.7,0-683.4-.1c-71.26,0-142.53-.84-213.79-.81-96.57,0-193.14.56-289.71.83-8,0-16-.34-24-.52-2.93-6.41.66-7.53,5.92-7.29a8.2,8.2,0,0,0,6.5,4c4.66.25,9.32.34,14,.34q120,0,239.89,0c4,0,8,0,12-.18,3.58-.18,6.5-1.78,7.44-5.46,2.73-10.58,10.07-17.19,19.35-21.6,9.84-4.67,20.28-6.45,31.07-3a24.42,24.42,0,0,0,3.91.8c12.08,1.74,13.62.42,14.68-12,3.92-45.84,10.94-91.11,24.64-135.16a193.36,193.36,0,0,1,16.47-38.5,97.28,97.28,0,0,1,11.38-16.32c15.36-17.33,28.28-20.46,50.05-12.85,13.95,4.88,19.87,15.37,16.31,29.71a100.72,100.72,0,0,1-12.82,29.15c-5.65,9-11.33,18.08-17.54,26.72-28,39-43.59,83.63-59.41,128.2-2.44,6.88,3.16,12.89,10.85,11.91a6.94,6.94,0,0,0,4.6-3,85.88,85.88,0,0,0,4.57-11,479,479,0,0,1,27.94-61.84c8-14.71,17.66-28.18,30.24-39.46,15.31-13.72,32.33-14.44,50.2-6.58,14.38,6.32,18.06,16.69,11.73,30.89-6.46,14.53-17.61,24.87-30.48,33.57-15.44,10.45-31,20.66-46.44,31.17-9.9,6.75-19.59,13.82-29.33,20.79-2.13,1.52-5.19,3.15-4.52,6,.88,3.69,4.79,4.22,8,4.47a182.42,182.42,0,0,0,20,.83c22.86-.71,45.18,1.2,66.49,10.57,4.09,1.8,9.09,2.16,13.67,2.16q135.93,0,271.85-.34a13.48,13.48,0,0,0,2-.28c7.95.3,15.89.85,23.84.85q195.2.07,390.4.15C7185.46,4265,7193,4262.92,7199.72,4267.15Z"/><path class="cls-6" d="M2136.14,4266.78c-7.28.47-14.56,1.36-21.84,1.36q-338.67.12-677.33,0c-67.26,0-134.51-.87-201.77-.82q-377.61.3-755.23.92c-8,0-15.91-.71-23.86-1.09-1.17-1-1.45-1.71-.84-2.21a2.44,2.44,0,0,1,1.58-.56c6,.16,12,.47,17.95.48q224.61,0,449.23,0c6.63,0,13.27-.46,19.91-.71,7.32.19,14.64.55,22,.55,75.29,0,150.59-.08,225.88.12,14.11,0,27.77-1.24,41.31-5.59,15.25-4.9,30.81-8.52,47-3.42,2.35.74,5.14.1,7.88.1-.65-4.86-4.6-4.79-7.19-6-20-9.15-40.12-17.92-60.07-27.11-7.25-3.34-14.18-7.38-21.11-11.35-2.84-1.63-5.9-3.83-5.58-7.58.44-5,5.14-5.93,8.77-6.66a61.45,61.45,0,0,1,29.63,1c13,3.78,24.81,9.63,34.89,18.73,10.9,9.84,21.44,20,29.75,32.23,2.67,3.93,5.55,7.63,11,7.42,2.58-.1,5.7,0,6.56-2.92.46-1.53-.46-4-1.59-5.37-14.82-18-30-35.68-44.67-53.78-24.77-30.54-48.3-62-68.09-96.05a165.66,165.66,0,0,1-13.9-30.92c-7.72-23.12,2.74-35.34,26.79-31,14.06,2.54,26.08,9.77,36.49,19.55,14.28,13.42,24.55,29.78,33.6,46.89,14.07,26.59,24.16,54.81,32.42,83.65,4.76,16.61,8.45,33.53,12.65,50.29,1,3.87,2.07,7.71,3.11,11.57.95,3.51,2.75,6,6.87,5.53,5.8-.7,9.11-3.51,9.42-8.32.3-4.65.27-9.32.29-14,0-7.58,2.71-14.34,6.36-20.78,5.75-10.16,14.65-15.1,26.18-15.53,10.09-.38,15.06,3.72,15.9,13.65.68,8,.52,16-2.45,23.65-1.44,3.7-2.6,7.5-3.69,10.69,1.65,5.07,5.48,4.05,8.46,4.19,7.38.36,12.51,4.54,16.62,9.88,4.59,5.95,10.4,7.74,17.49,7.32,4-.24,8,0,12,0q328.83,0,657.66,0c8.65,0,17.3-.48,26-.73C2131.4,4263.84,2134.09,4264.44,2136.14,4266.78Z"/><path class="cls-7" d="M2795.77,1868.12c-1,5.89-2.25,11.76-3,17.69-5.25,42.27-28.09,72.23-64.74,92.43-9.18,5.06-18.8,8.41-25.29,18.23-6.18,9.35-20.8,10.7-30.86,5.7-9.14-4.54-15.9-16.93-14.43-26.45a28.08,28.08,0,0,1,24.2-23.18,24,24,0,0,1,16.91,4.75c6.44,4.65,12.23,3.35,18.55,0,25.52-13.39,42.52-33.89,50-61.63,2.35-8.77,5.34-18,3-27.48-5.37-6.4-6.22-14.46-8.42-22.1-12.17-42.32-48.86-69.73-91.83-68.91-40.46.77-78.33,32.7-87.92,74.17-1.33,5.76-1.14,12.07-6.31,16.33-8.17,4.06-16.38,5.15-24.63.21a123.05,123.05,0,0,1,21.77-67.21c32-47,100.16-71.16,160.69-35.66,33.17,19.46,54.3,48.21,59.08,87.48C2793.19,1857.77,2794.68,1862.92,2795.77,1868.12Z"/><path class="cls-8" d="M3011.38,1867.73c-8.19,4.12-16.4,5-24.65.13.32-24.66,8.17-46.76,21.84-67.2,37.46-56,123.43-74.39,183.1-19,22.35,20.76,35,46.4,37,77.07.21,3.18,1.75,6.26,2.67,9.38-.86,4.56-2.07,9.08-2.53,13.67-4.42,44.8-27.72,76.67-67,97.32-8.83,4.64-17.26,8.64-23.61,17.27-6.91,9.38-20.48,10.76-30.83,5.68-9.22-4.52-15.82-16.69-14.31-26.39,1.73-11.14,11.08-20.76,22.3-22.89,7.75-1.47,14.42,1.38,20.64,5.51,4.36,2.9,8.69,2.67,13.23.71,37.85-16.35,60.81-60.55,55.37-91-3.13-4.43-4.52-9.43-5.7-14.7-10.31-46-47.24-76.58-91.76-76.19-43.48.38-79.14,30.73-89.66,76.41C3016.36,1858.71,3016.32,1864.26,3011.38,1867.73Z"/><path class="cls-7" d="M3447.15,1867.62c-8.21,4.4-16.46,5-24.77.25,2-11,1.71-22.28,5.1-33.35,16.09-52.54,64.51-85.92,116.6-86.3l15.94-.11c4.43,1.34,8.82,2.81,13.29,4,47.6,12.59,76,44.28,89.19,90.56,2.34,8.18,2.19,17.08,3.2,25.64-.84,20.09-4.18,39.48-13.84,57.56-12.62,23.64-30.52,41.73-54.58,53.43-9,4.35-16.75,9-23.48,17.14-12.05,14.62-34.92,10-42.82-7.17-4.8-10.43-2.22-19.72,4.87-27.63s16.25-11.31,27-7.86a10.13,10.13,0,0,1,3.63,1.6c10.36,9.25,19.85,4.17,28.93-2,30.09-20.44,47.23-47.82,44.86-85.38-4.41-3.78-4.74-9.19-5.92-14.36-12.31-53.66-54.1-82.22-108.83-74.41-35.4,7.86-58.53,29.3-70.19,63.43C3451.46,1850.6,3455.83,1861.27,3447.15,1867.62Z"/><path class="cls-2" d="M456.85,4264.4a5.86,5.86,0,0,0-.75,2.77l-7.58,2.2C449.52,4264.74,452.88,4264,456.85,4264.4Z"/><path class="cls-9" d="M5164,1867.78q-78.63.17-157.26.34c-11.27,0-22.55.15-33.83.23-4-2.06-5-6-5.6-9.89-3.79-24.72-13.34-46.8-29.29-66.17-3.68-4.47-7.86-9.14-6.89-15.82,20.09-2,23.81-6.17,24.93-25.7,2-34.92-4.84-68.73-12.76-102.3-10.36-43.9-22.7-87.28-36.27-130.31-8-25.34-14.76-51.05-25.46-75.47-3-6.87-1.56-13.09,4-18.16,11.25-10.32,20.92-22.12,33.8-30.94,11.4-7.81,21.08-18.18,31.63-27.27q33.21-28.6,68.1-55c30.15-22.83,60.13-45.93,92.59-65.53,16.49-10,32.32-21.14,49.4-29.91s35.26-15.47,53.16-22.58c6.4-2.54,10.45,1.63,8.61,8.41-12.32,45.42-19.31,92-30.07,137.74.52,21.45-6.78,41.77-9.49,62.8a466.54,466.54,0,0,0-3.36,47.56c0,1.33.21,2.85-.33,4-7,14.45-1.67,28.72.64,43,1.78,11,12.07,14.85,20.81,7.66A74.28,74.28,0,0,0,5214.7,1490a232.64,232.64,0,0,0,14.2-24c22.25-41.77,40-85.41,55.88-130,12.27-34.42,25.8-68.4,36.83-103.25,9.22-29.11,18-58.36,26.69-87.63,2.24-7.57,6.37-12.88,13.56-16.11,27.89-12.56,56-24.4,85.46-33,19.74-5.76,39.8-10,60-14a107.19,107.19,0,0,1,15.72-2.13c5.28-.25,10.7-.37,15.79-1.63,17.14-4.23,34.63-3.46,51.62-1.43a245.47,245.47,0,0,1,55.86,13.71c14.13,5.2,26,13,37.06,22.67,33.05,28.89,52.67,66.37,68,106.49,5.67,14.85,11.29,29.9,14.82,45.34,9.82,43,8.64,85.53-8.19,127-7.06,17.43-20.22,29.77-34.17,40.92-7.52,6-17.87,8.54-27,12.46-7.94,3.4-15.88,6.87-24,9.75-24.44,8.62-49.23,16.3-73.4,25.6-33.47,12.89-67.3,24.84-100.18,39.29-16.45,7.24-33.26,13.59-47.86,24.31a68.2,68.2,0,0,0-11.81,10.61c-5.74,6.78-4.26,13.84,3.38,18.21,9.31,5.32,19.25,10.11,29.9,10.36,15.33.35,29.92,5.85,45.5,4.62,14.57-1.16,29.35.41,44-.44,15.84-.92,31.88-2,47.27-5.45,9.12-2.07,18.35-2.37,27.45-4.36,31.35-6.85,61.49-16.69,90-31.43,3.48-1.8,6.85-4.28,11.51-3.13,2.85,6.22,2,12.93,1,19.32-8.79,56.45-21.1,112-41.57,165.56-12.42,32.46-27.3,63.94-48.64,91.27-17.6,22.54-38.95,41.89-66.41,53.07-18.11,7.38-37.08,10.21-56.23,11.11-21.28,1-42.65,0-64,.3-14.08.16-27.62-3.51-41.19-6.06-7.41-1.38-9.18,3.37-13.22,6-6.9-6.25-4.86-14.77-5.59-22.51-8.07-86.4-100.74-135.07-175.07-91.25-27.41,16.16-45.6,40.39-53.69,71.74C5171.55,1850.89,5171,1860.62,5164,1867.78Z"/><path class="cls-10" d="M5831.3,2584.92a82.39,82.39,0,0,0,8.75,27.11c18.12,35.57,28.25,73.36,31.25,113.11,4.95,22,10.05,44,14.81,66.12,7.14,33.15,13.82,66.4,21.13,99.51,4.53,20.55,3.6,40.86-.34,61.32-12.7,66-27.67,131.42-42.85,196.84-1.54,6.63-3.76,11.32-11.31,11.35-20.36,1.31-39.05-1.5-51.05-20.75-5.29-6.77-5.55-14.58-5.2-22.73q2.13-49.9,3.88-99.82c.8-22.63,1.3-45.27,1.93-67.91.09-3.32.25-6.65.25-10,.05-37.55.07-37.57-21.45-68.16-7.48-10.63-14.49-21.64-22.62-31.91-4.93,4.19-3.36,8.43-3.43,12.09a1955.32,1955.32,0,0,0,7.45,211.55c.19,2,.15,4,.51,6,2.14,11.57-1.3,20.92-10.87,27.91a37.44,37.44,0,0,1-16.67,13.7c-81.6,36.12-166,56.16-255.87,44.36-11.87-1.56-24-.11-35.78-2.43-18.38-4.78-38.31,1.22-56.06-8-11.44-7.68-13.25-20.06-13.26-31.87-.06-67.88-2.88-135.75,1.8-203.64,2.65-38.4,4.08-77-1.06-115.47,10.52-27.19,7.81-56.2,10.32-84.34,3.66-41.1,7.26-82.11,14.85-122.67,5.7-28.48,14.83-55.7,30.16-80.59,2.1-3.13,4.26-6.22,6.07-9.55a54.26,54.26,0,0,1,2.77-4.94c18.77-26.84,40.68-50.64,66.95-70.41,7.2-5.41,14.18-9.86,23.62-7.57,25.55,4.7,48.76-2.83,71.34-13.59,19.82-9.43,39.28-19.79,61.25-23.66,13.58,0,23.16,9.17,34.12,15.11,70.45,38.17,110,99.75,132.47,174.45C5831.13,2572,5830.12,2578.49,5831.3,2584.92Z"/><path class="cls-11" d="M5831.3,2584.92c-4.29-3.87-4-9.66-5.92-14.5-7.39-18.45-14.19-37.14-21.46-55.64-15-38-39.49-68.72-71.88-93.44-21.15-16.15-43.26-30.68-67.34-42.11a89.54,89.54,0,0,1-23.17-108.87c40.31-40.77,45.5-92.55,45.74-145.87,0-11.32-13.27-19-8.69-31.6,34.71-11.39,69.48-22.58,105.13-30.73,31.74-7.26,63.6-13.58,96.36-9.26,1.78,3.65.3,6.68-1.47,9.49-14.52,23-29.34,45.9-43.61,69.09-8,13-15.14,26.56-22.71,39.85-4.61,8.08-9.8,15.86-13.85,24.21-7,14.35-13.16,29.07-19.87,43.55a27.17,27.17,0,0,0-2.52,13.59c.35,5-2,11.16,4.35,14.16,5.48,2.58,10.74.22,15-2.8,9.22-6.46,18.54-13,26.8-20.59,12.74-11.73,25.1-23.95,36.74-36.76,12-13.22,22.91-27.49,34.51-41.13,8.17-9.6,16.11-19.45,24.42-28.86,15.42-17.46,29.24-36.06,43.24-54.58,8.41-11.11,17.51-21.71,26.16-32.64,2.15-2.71,4.31-5,8-5.27,15.86-1.12,31.34-5.5,47.5-4.25,37,2.85,74.26,5.46,109.63,17.22,22.66,7.53,44.56,18.77,61.7,35.81,14.63,14.54,26.06,32.26,29.39,53.35,1.85,11.73,5.92,23.15,4.78,35.44-.79,8.6,4,16.56,3.89,25.5-.23,30.22-4.61,59.72-16.65,87.39-9.66,22.18-23.58,41.67-46.38,52.81-3,1.46-6.11,3.73-9.18,3.74-14,.05-27.28,5.08-41.46,4.93-50-.55-100,.12-150-.36-12.89-.13-24.86,3.9-37.35,5.4-4.25.51-8.37,3.87-12.06,6.59a5.14,5.14,0,0,0-1,7.22c5.21,6.94,11,13.23,18.86,17.47,31.2,16.89,63.85,29.55,98.94,35.74,23.51,4.16,46.92,8.81,71,7.8,8-.33,16,.56,23.6-2.86,2.55-1.15,5.6-.87,7.22,1.44s.35,5.14-1,7.48c-4.89,8.68-10.06,17.21-14.76,26-12.9,24.09-29.17,46-45.07,68.05-6.92,9.59-15,18.61-22.95,27.48-22.48,25.12-49.21,45.07-80.7,57.13-15.09,5.78-31,8.46-48.51,4.84a400.28,400.28,0,0,1-74.05-22.79c-11.54-4.84-21.95-12.39-32.77-18.86C5835.23,2582.27,5833.18,2582.28,5831.3,2584.92Z"/><path class="cls-3" d="M5444,3147.54c11.29.45,22.67.15,33.86,1.48,81.26,9.69,158.9-4.38,234.05-35.11,13.51-5.53,26.81-11.57,40.21-17.37,2.62,23.11,5.61,46.19,7.75,69.35,2.64,28.46,4.51,57,6.82,85.49,2.54,31.33,10.79,61.52,19.33,91.56,14.2,50,31.56,98.82,54,145.74a346.54,346.54,0,0,0,34.76,58.13c19.31,25.83,31.06,55.64,41.72,85.84,18.42,52.14,31.72,105.71,42.84,159.76,10.17,49.46,19.11,99.19,27.49,149,6.4,38,11.13,76.29,16.49,114.46.73,5.26.46,10.68,1.33,15.91,1.29,7.82-1.07,14.4-5.58,20.52-17.28,22.1-43.38,28.91-67.58,39.06-10.41,0-14.73-7.73-19.19-15.2-55.18-92.44-108.45-186-161.61-279.6-27.92-49.16-51.78-100.39-77.46-150.7-4.52-8.85-8.7-17.8-11.45-28.73,0-1.3-4.43.36-1.76.37.67,0,.8.41,1,1.05,1.63,5.6,2.7,10.75-6.23,9.2-23.13-89.38-71.24-168.34-105.79-253-32.94-80.7-68.1-160.51-101.74-241C5443.88,3165.62,5437.75,3157.19,5444,3147.54Z"/><path class="cls-9" d="M4728.23,1867.74l-4.39-.46c-6.23-11-12.93-21.71-18.6-33-9.27-18.44-16.63-37.28-17.95-58.57-.69-11.06-4.19-22.19-3.19-33.49,2.26-25.76,5.94-50.93,17.82-74.79,19.58-39.38,40.32-78,66.36-113.47,17.63-24,35.13-48.38,60.59-65.31,4.38-2.92,7.78-7.27,12-10.52s10.59-1,10.61,4c.09,20.69,5.59,40.64,7.91,61,4.16,36.26,11.71,71.72,19.11,107.35,3.92,18.88,9.17,37.32,14.1,55.85,3.05,11.45,8.44,22.32,13.29,33.23,4.32,9.73,9.33,19.15,14,28.71-8,5.06-13.82-1.3-20.12-4.07-69.29-30.37-145.42,8-162.49,82C4735.53,1853.93,4735,1862.14,4728.23,1867.74Z"/><path class="cls-12" d="M5678.58,2092.89c1.36,2.27,2.85,4.47,4,6.82,3.27,6.41,7.75,12.59,9.25,19.4,1.83,8.25,1.61,17.09,1.37,25.64-.91,31.61-8.26,61.83-20.17,91.06-6.24,15.33-17.88,26.21-29.47,37.21-20.7-5-20.23-21.93-20.66-37.74-.36-13-.41-23.4-18.46-14.4-9,4.49-14.34-3.61-18.81-10.52-27.77-43-32.91-44.83-82.43-29.25a136,136,0,0,1-13.44,3.78c-5.92.29-12.12,4.26-17.64-1.19-19-5.25-24.88-20.77-28.05-37.51s1.49-31.59,14.9-43c12-10.24,26.34-15.78,41.41-18.5a438.35,438.35,0,0,1,129.06-3.72c12.5,1.45,24.92,4.75,35.81,11.49C5670.07,2095.4,5674.15,2093.31,5678.58,2092.89Z"/><path class="cls-11" d="M5472.16,2183.7l15-2.58c5.93,5.47,2.7,12.36,2.78,18.68.37,29-2.38,58,2.39,87,2.72,16.49,9.43,30.1,23.91,39.19,6.38,8,4.59,17.61,5.33,26.73,1.15,14.12,3.35,27.78,15.56,37.29,8.72,13.17,7.64,22.85-9.6,26.69-6.07-.12-11.33,1.06-16.35,5.35-23.67,20.25-46.32,41.41-64.61,66.85-1.89,2.63-4.26,4.93-6.41,7.38-6.5-3.65-8.28-10.13-9.62-16.65-9.23-44.86-16.86-90-24.8-135.12-1-5.87-1.85-11.89,1.94-17.31,1.16-7.93-.4-15.57-1.82-23.35-3.4-18.63-6.18-37.37-9.2-56.06,2.1-1.61,4.46-3,6.27-4.86,18.89-19.75,40.67-36,62.81-51.79A17.42,17.42,0,0,0,5472.16,2183.7Z"/><path class="cls-9" d="M5368.6,2091.86c-5.41-16.41-6.76-33.63-10-50.48-4.1-21.4-7.73-42.9-11.56-64.35-1.71-5.74,2.35-8.75,6-11.26,23.52-16,37.47-38.57,45.91-65.15,1.36-4.27,2.5-9.26,8.69-9.19.13,8.69,2.09,15.16,12.69,16.9,8.34,1.38,16.41,5.05,24.3,8.42,21.94,9.38,43.91,18.75,65.48,28.94,8.31,3.92,15.84,9.69,23.28,15.22a27.14,27.14,0,0,1,3.43,40.16,188.65,188.65,0,0,1-41.59,33.64c-38.35,23-79.12,40.24-121.32,54.51A45.12,45.12,0,0,0,5368.6,2091.86Z"/><path class="cls-13" d="M5931.18,4128.66c9.49-4.61,19.16-8.88,28.42-13.89,13.33-7.21,26.37-15,39.53-22.48,4.69,5.53,9.3,11.14,14.09,16.58a135,135,0,0,1,17.5,24c7.44,13.54,7.23,26.56-2.58,38.89-3.7,4.66-7.59,9.17-11.49,13.66s-8.08,8.77-11.83,13.39c-6.73,8.29-11.82,17.3-13.72,28.16-2.19,12.52-6.75,24.21-16.18,33.39-3.84.93-5.19,3.88-5.94,7.3l-94.5-.52c-3.46-5.25-3-10.59-.42-16a23.3,23.3,0,0,1,12.28-9.65c31.12-10.41,38.15-35.51,40.26-64.2C5927.79,4161.07,5922.39,4144.17,5931.18,4128.66Z"/><path class="cls-8" d="M4728.23,1867.74c2.09-11,3.16-22.32,6.44-33,13.41-43.39,43.08-70.38,86.41-82.43,32.26-9,62.81-4.08,91.46,13.17,2.21,1.33,4.9,1.84,7.37,2.74a15.9,15.9,0,0,0,11.24,8.2c1.66,2.06,3.19,4.24,5,6.15,22.79,24.07,35.33,52.52,36.75,85.73-1,12.57-1.77,25.13-5.72,37.28-10.81,33.27-31.67,58-62.86,73.7-8.87,4.47-17,8.72-23.46,17.2-8.3,10.91-26,11-35.8,2.39a26.69,26.69,0,0,1-4-36c6.94-9.28,20.24-14.54,30-8.21,14.43,9.36,25.28,3.39,36-4.67,27.07-20.4,42.42-47,40.58-81.86-6.13-7.64-6.08-17.45-9-26.2-12.93-38.45-49.26-65-89.17-64.72s-75.44,27.6-87.1,66.85c-2.45,8.24-3.47,17.05-9.69,23.74C4744.5,1872.79,4736.36,1872,4728.23,1867.74Z"/><path class="cls-8" d="M4101.47,1868.36c-1.75,10.45-1.3,21.08-4.13,31.54-9.79,36.14-31.15,62.69-64.46,79.43-8.91,4.48-16.66,9.18-23.45,17.2-12.91,15.25-36.76,9.62-43.54-9.11-3.51-9.68-1.41-18.36,5.51-25.81,7.37-7.94,16.21-11.36,27-7.89a10,10,0,0,1,3.64,1.58c10.32,9.21,19.85,4.42,29-1.85,29.93-20.52,47.43-47.72,45-85.36-4.69-4.56-4.67-10.77-6-16.58-9.06-40.61-46.08-72.58-85.88-74.25-43.66-1.84-81.35,25.72-93.9,68.92-2.22,7.64-2.87,15.81-9.12,21.71-8.16,4.73-16.28,4.26-24.37-.18.95-4.53,2.15-9,2.8-13.61,7.2-50.37,35.75-83,83.17-99.66,69.83-24.47,151.76,24.57,157.59,106C4100.53,1863.12,4101.08,1865.73,4101.47,1868.36Z"/><path class="cls-8" d="M4537.19,1868.29c-1,18.68-3.82,36.84-12.16,54q-18.58,38.23-56.38,57c-8.93,4.44-16.79,9-23.45,17.22-10.92,13.44-31.94,10.75-40.94-3.61-6.09-9.72-5.54-21,1.45-29.73,8-10,20-15.1,29.81-8.3,14.77,10.27,25.33,3.16,35.93-4.88,26.95-20.45,43.08-46.62,40.43-81.87-3.95-4.11-4.39-9.49-5.53-14.7-9.25-42-46.4-74.64-86.49-76.16-44.77-1.69-81.64,25.82-94.46,70.57-2,7-3.41,14.31-8.48,20-8.19,4.88-16.36,4.16-24.51-.1,1-5.2,2.31-10.37,3.1-15.61,7.58-50.64,37.52-82.53,84.82-98.24,72.06-23.94,150.74,29,155.87,106.49C4536.38,1863,4536.85,1865.66,4537.19,1868.29Z"/><path class="cls-7" d="M5407.69,1891.43c-1,1.65-2.73,3.21-3,5-2.76,21-14.36,37.7-26.58,53.95-3.87,5.14-9.17,9.27-14.13,13.48-5.46,4.63-11.29,8.82-17,13.2-3.73,1.42-7.44,2.85-11.16,4.26-6.87,2.6-13,5.46-17,12.67-5,9.07-14.13,11.34-24.1,10.63-10.43-.75-17.56-6.46-21.28-15.63-4-10-2.46-19.85,4.92-27.89,6.73-7.34,15.39-10.19,25.35-7.92a8.5,8.5,0,0,1,3.68,1.45c10.76,9.49,20.75,5.3,30.64-1.57,1.09-.75,2.26-1.4,3.39-2.09,7.27-16.24,24.09-26,29.55-43.42.72-1.61,1.55-3.18,2.37-4.73a45.72,45.72,0,0,0,3.23-10,50.1,50.1,0,0,1,1.3-5.41c3.55-47.32-15.1-83.31-52.17-100.65-50.92-23.81-110,1.71-127.71,55.14-2.91,8.75-3.39,18.42-9.59,26-8.16,5-16.32,4.07-24.46,0a117.45,117.45,0,0,1,9.59-42.48c17.1-39.77,46.36-65.09,89.47-74.21,42.82-9,79.21,4.17,109.36,33.13,23.67,22.73,36.14,52.08,35.59,85.86-.07,4.64.11,9.29.18,13.94Z"/><path class="cls-14" d="M5801.69,3139.53c12.65,8.79,26.33,15.07,41.66,17.59,3.21.53,6.26,2.08,9.38,3.16-.12,1.32-.27,2.64-.37,4-1.44,18.93-6.78,36-19.6,50.93-11.7,13.61-23.23,27.26-37.07,38.74-1,.87-3.74.31-5.4-.3-.78-.28-1.46-2.4-1.25-3.5,1.85-9.74,4-19.42,5.91-29.14,1.17-5.85,2.33-11.71,3.17-17.6.24-1.71-.07-4.36-1.18-5.2-1.84-1.39-3.47.51-4.69,2.13-3.1,4.12-3.54,10.12-8.84,12.74-10.1-16.88-9.57-34.14,1.87-51C5790.5,3154.37,5796.21,3147,5801.69,3139.53Z"/><path class="cls-15" d="M5871.3,2725.14c-5.47-10.09-6.13-21.58-9.33-32.34-7-23.59-13.61-47.32-20.26-71a88.19,88.19,0,0,1-1.66-9.75c8.9,4.91,14.78,13.16,21.91,20,11,10.56,21.69,21.45,32.38,32.32a64.74,64.74,0,0,1,8.93,10.6c8.17,13.08,5.27,24-8.18,31.5-5.78,3.22-11.75,6.13-17.72,9C5873.22,2717.46,5872.29,2721.27,5871.3,2725.14Z"/><path class="cls-16" d="M2343.54,2836c-3,17-5.78,34-9,50.87q-15.14,79.2-30.56,158.34-17.31,88.92-34.81,177.79-4,20.39-7.91,40.79c-12.9-.7-20.95,14.9-35,10.41-3.91-1.82-6-5.27-7.55-9-33.84-78.52-93.3-135.19-159.19-186.26-75.57-58.58-157.53-106.89-242.25-150.89C1697.08,2865.68,1573.05,2812,1447,2762.76c-27.07-11.67-54.89-21.45-82-32.94-11.48-3.79-22.63-8.5-34.18-12.07-2.5-1.36-4.53-3.75-7.59-3.72.12,0-1.25.29-1.25.29s1.44-.29,1.5-.28a13.44,13.44,0,0,1,5.69,2.73c11,4.61,22.09,8.54,33.26,12.43,26.11,10.75,52.58,20.56,78.71,31.22,84.85,35.35,167.7,75,249.22,117.3,123.14,64,242.67,133.88,347.91,225.23,53.42,46.36,102.77,97,132.36,163.16,16.76,37.46,25,75.82,12,116.36-1.61,5-2.08,10.56-6.94,13.94a9.77,9.77,0,0,0-8,5c-16,26.28-38.6,45.3-65.6,59.71-35.61,19-73.91,30.15-113,38.37a735.11,735.11,0,0,1-76.73,11.73c-25.77,2.62-51.84,4.8-77.65,3.81-31.13-1.21-62.33-2.24-93.42-6-25.78-3.15-51.37-6.75-76.5-13-14.16-3.55-28-8.5-41.87-13.12a36.53,36.53,0,0,1-10.6-5.51c-25.37-19.59-24.24-30.48-7.47-51.37,12.43-15.49,27.72-28.79,42.45-42.29,10.76-9.86,23-18.07,34-27.7,23.09-20.24,50.25-32.15,79.45-40a578,578,0,0,1,88-16.55c23.09-2.54,46-6,69.25-7.88,15.81-1.29,31.5-4.66,47.13-7.7a89.2,89.2,0,0,0,29.71-11.35c14.47-8.87,14.44-20.35.09-28.9-10.51-6.26-22.27-8.7-33.94-11.24a196.71,196.71,0,0,0-47.56-4.55c-9.32.26-18.68.43-28-.05-40.16-2-76,11.28-109.76,31.22-28.08,16.58-55.56,34.19-83.82,50.44-32.56,18.73-67.85,30.62-104.46,38.57-13,2.81-26.06,5.3-39.21,6.91a125.82,125.82,0,0,1-37.71-1.16c-39.54-7.1-71.73-27.41-100.65-53.87-45.69-41.82-80.54-91.92-110.91-145.51-13.15-23.21-25.25-46.91-37-70.84-3.22-6.57-6.53-13.11-7.51-20.29,2.53-4,5.77-2.35,8.85-1.71a301.92,301.92,0,0,0,53.25,6.8c66,2,129.68-10,191.72-31.79,18.21-6.38,36.27-13.24,52.2-24.62,6-4.3,11.68-8.82,15.48-15.31,3.52-6,2.52-12-3.35-15.59-3.92-2.4-8.41-3.9-12.72-5.6-14.35-5.64-29.66-7.45-44.63-10.19-15.64-2.86-31.73-3.07-47.53-5.13-34.32-4.48-69.05-2.63-103.4-7.17-14.44-1.91-29.36.09-43.93-1.22-27.1-2.43-54.39-2.53-81.33-7.21a60.77,60.77,0,0,1-28.81-12.87c-16-13.19-30.14-28.15-40.07-46.73-13.62-25.47-22.22-52.31-26.92-81a270.72,270.72,0,0,1-2.57-65.66c3-37.72,8.75-75.09,22.64-110.86,10.78-27.75,29.08-49.15,52.12-66.83,23.52-18,50.26-29.7,79-37,22.57-5.72,45.33-9.51,68.49-12.48,30-3.85,59.85-3.25,89.71-2.37,22.47.67,44.84,4.84,67.28,7.22,5.91.63,9.43,3.71,12.6,8.48q14.92,22.44,30.51,44.44c31.48,44.56,62.14,89.74,94.93,133.32,34,45.18,68.73,89.94,110.39,128.67,7.35,6.83,14.9,13.32,23.43,18.56a56,56,0,0,0,12.54,6c8.33,2.56,14.9-1.89,15.6-10.4a68.53,68.53,0,0,0-1.93-21.74c-6-25.44-16.19-49.39-27.2-72.79-18.16-38.58-37.44-76.65-57.24-114.41-13.89-26.52-29.64-52.06-44-78.31-3.32-6.05-11.17-12.68-6.49-19.45,3.57-5.16,12.51-2.31,19-2.08,28,1,55.27,7.15,82.35,13.89,62.11,15.48,122.2,37.15,181.41,61.15,45.62,18.5,90.54,38.73,135.87,58,7.88,3.34,11,8.39,10.52,17-1.46,24.55-1.18,49.14-2.74,73.75-2,32.4-2.93,65.12,1.46,97.72,2.21,16.41.31,33.32,1.36,49.93,2.38,37.78,5.24,75.53,15.59,112.26,2.57,9.13,5.95,17.82,11.69,25.17,9,11.57,19.71,12.11,29.73-.5,6-7.5,8-16.81,10.14-25.83,2-8.38,3.76-17,3.89-25.58.42-27.92,2.87-55.92-1.95-83.73a60.13,60.13,0,0,1-.94-9.92c-.17-24.68-4.73-48.88-7.37-73.3-3.87-35.69-9.68-71-16-106.3-1-5.59,2.95-8.63,8.67-6.41,19.27,7.44,38.37,15.34,55.9,26.42,29.29,18.51,57.75,38.1,83,62.06C2317.08,2813.76,2330.52,2824.66,2343.54,2836Z"/><path class="cls-6" d="M2138.63,3899.26q-5.34,26.14-10.7,52.29c-2.85,4.32-2.49,9.75-4.91,14.22-1.34,4-2.41,8.24-6.52,10.57-25.68,47.33-59.15,88.46-99,124.55a267.61,267.61,0,0,1-38.31,28.73c-6.27,3.91-12.9,6.88-20.57,6.87-6.67,0-11.7-2.46-14.13-8.89-2.6-6.89-4.39-13.94-4.34-21.42.12-15.32-.47-30.67.17-46,.7-16.85,6.14-32.63,13.5-47.7,10.86-22.22,24.9-42.49,38.8-62.85,6.38-9.34,12.5-18.87,18.45-28.5a35.36,35.36,0,0,0,5.71-20.87c-.35-6.29-5-9.38-11.09-6.92-10,4-18.47,10.59-26.25,17.92-27,25.51-44.84,55.49-48,93.61a277.65,277.65,0,0,1-11.9,58.58c-6.15,19.89-15.87,38-27.46,55.24a75.37,75.37,0,0,1-35.3,28.29,146.57,146.57,0,0,1-40.58,9.72c-48.61,4.92-95.3-4.66-141.71-17.09-6.8-1.83-7.69-5-2.57-9.6,14.43-12.95,27.85-26.77,38.88-42.79,19.8-28.75,35.81-59.22,42.91-93.79.81-3.93,1.76-7.71.49-11.76s-5.26-6.64-9.19-5.72c-6,1.42-11,4.82-15.51,8.74-10.57,9.15-21.47,18-31.29,27.92-20.63,20.82-40.64,42.23-60.93,63.39-3.22,3.37-6.81,6.42-9.76,10-21.37,26-48.82,27.11-78.14,18.56-25.66-7.49-46.18-23.56-64.3-42.49a246.59,246.59,0,0,1-26.07-32.76c-19.5-28.94-19.58-59.94-7.45-91.61,6-15.62,14.43-30,24-43.67,15.33-22,33.34-41.5,52.87-59.75,5.32-5,11.06-6.89,18.16-6,15.82,2.09,31.63,4.26,47.5,5.9,52.39,5.42,104.88,8.25,157.57,5.77a64.05,64.05,0,0,0,23.09-5.81c5-2.2,5.64-7.73,1.9-11.52-5.32-5.37-12.06-8.19-18.94-10.77a499.24,499.24,0,0,0-64.94-19.59c-25.94-5.86-52-11.13-78-16.63-4.49-.95-9.17-1.39-12.37-5.24.11-3.79,2.73-6,5-8.35a224.58,224.58,0,0,1,25.34-22.57,542.89,542.89,0,0,1,69.1-43.86c32.37-17.13,65.47-32.89,98-49.76,8.59-4.46,14-2.77,20.91,3.57,31,28.33,62.39,56.14,96.18,81.11,12.33,9.11,24.91,17.84,38.59,24.87,6.6,3.39,13.43,5.83,21,5.28,5.07-.37,8.38-4.21,8.22-9.3-.19-6.4-3.1-11.47-7.22-16a266.7,266.7,0,0,0-33.42-31.46c-28.38-22.22-58.7-41.53-89.34-60.37a50.66,50.66,0,0,1-8.11-5.7,3,3,0,0,1,.55-5c8.28-4.23,16.38-9.07,25.08-12.18,40.67-14.57,83-20.47,125.76-16.83,36.5,3.1,65.2,22,84.4,53.77a148.86,148.86,0,0,1,21.7,67.85c.91,13.93,4.38,27.69,2.89,41.78-1,9.26-1.48,18.61-3.06,27.77-1.84,10.69,1.93,17.68,11.19,23.1,11.46,6.72,22.35,14.41,33.5,21.67.63,11-3.21,21.33-5.11,31.95C2136.16,3879.9,2137.85,3889.66,2138.63,3899.26Z"/><path class="cls-16" d="M2391.14,2592q-5,25.66-10,51.32c0-7.74-5.13-11.68-10.9-15.36q-31.11-19.84-62.11-39.86c-28.45-18.46-57.21-36.47-85.11-55.72-44.85-30.95-89.83-61.82-133.4-94.51-33.44-25.1-66.6-50.69-97.65-78.93-15.75-14.33-31.47-28.63-46.44-43.76-12.66-12.79-23.56-27.05-33.83-41.78-6.13-8.79-10.2-18.57-13.66-28.72-5.61-16.48-.94-36.15,22.35-44.37,17.51-6.18,35.17-6.16,52.94-1.57,23.45,6.06,44.82,16.92,65.05,29.83a600.48,600.48,0,0,1,98.2,78c29.43,28.94,58.73,58,87.31,87.82,16.54,17.24,31.24,36.23,47.34,53.91,22.39,24.6,43.13,50.54,63.84,76.53q21.1,26.49,42,53.11C2381.27,2583.21,2385.25,2588.56,2391.14,2592Z"/><path class="cls-6" d="M2175.66,3396.41a61.77,61.77,0,0,1,3.34-19.52c8.27-25.53,6-51.19-1-76.5-6.77-24.51-18.12-47-31.57-68.59a411.39,411.39,0,0,0-66.3-81.84c-5.32-5-10.48-10.24-15.55-15.53-27.68-28.87-59.19-53.32-91-77.32-31.24-23.61-63.36-46.07-96.65-66.77-24.24-15.07-48.72-29.78-73.2-44.47-76.54-45.9-156.71-84.91-236.78-124-34.59-16.91-70.29-31.54-105.44-47.31-7.28-3.27-14.36-7-21.53-10.52-.37-7.48,3.57-6.37,8.11-4.07,25.46,7.6,50,17.84,74.6,27.65,19.12,7.62,38,15.89,57,23.82,12.86,5.36,25.9,10.32,38.61,16,20,8.95,39.64,18.8,59.77,27.49,55,23.75,108,51.78,161.21,79.1,39,20,76.89,42,114.11,65.26q56.64,35.39,109.43,76.13c13.67,10.51,27.28,21,39.84,32.94,13.46,12.79,28.67,23.68,41.14,37.6,32.48,36.24,62.67,74,80.24,120.2,1,2.63,2.31,4.69,4.78,6,7.93,30,8.37,60.83,9.82,91.52.16,3.23-.83,6.47,1.17,9.45-1.2,18.56-6.8,36.33-9.88,54.56-1.64,9.75-4.36,19.33-6.59,29-5.58-4.05-7.82-10.49-11.36-16A248.71,248.71,0,0,0,2175.66,3396.41Z"/><path class="cls-16" d="M2416.18,2460.49a150.43,150.43,0,0,1-8.09,39.41c-10.94-12.64-18.21-27.69-26.52-41.94-29.45-50.51-58.72-101.19-83.35-154.29-15.36-33.1-29.93-66.57-39-102.19-3.54-13.84-4.1-27.59-3.42-41.49.94-19.06,17.32-29.47,35.36-22.24a60.1,60.1,0,0,1,26.4,20.42c14,18.89,24.81,39.49,33.42,61.08,19.94,50,34.29,101.8,45.47,154.46,4.54,21.38,9.48,42.69,14.1,64.06,1,4.53,1.37,9.18,2,13.78C2415.24,2453.93,2413.79,2458,2416.18,2460.49Z"/><path class="cls-17" d="M2116.5,3976.34l4.2-11.8c3.65-1.06,5.3,0,4.18,4-.94,6.82.17,14.11-4.53,20.08C2119.38,3984.42,2121,3979.43,2116.5,3976.34Z"/><path class="cls-18" d="M2416.18,2460.49c-3.4-2.09-4.17-5.24-3.63-8.93l7-7.54C2420.76,2450,2418.84,2455.32,2416.18,2460.49Z"/><path class="cls-19" d="M5407.71,2327.17q6.16,33.06,12.31,66.13c1.44,7.79,2.74,15.6,4.17,23.39,4.05,22.06,8.07,44.13,12.27,66.17.87,4.53,2.47,8.93,3.73,13.39l.07-.15c-2.85,1.69-1.68,5.74-4.4,7.52-11.11,22.32-21.72,44.83-27.55,69.28-.87,3.67-3.48,6.93-5.29,10.38-.81,4.74-2.67,9.41-6.22,12.27-28,22.54-50.61,51.27-81.35,70.62-6.38,4-13.92,8.44-20.57,4.55-19.73-11.54-43.28-18.19-55.29-40.4-13.08-59.25-14.89-60.69-75.75-60.87-7.24,0-14.48.05-21.71-.45-29.57-10.21-52.84-30.54-77.68-48.42-6.27-11.74-10.34-23.83-5.85-37.25,19.37-13.32,42.72-11,64.12-16.35,3.9-.45,7.87-.54,11.67-1.74a54.51,54.51,0,0,1,5.48-1.44c20.84-6,26.6-15.49,21.66-35.78-4.06-16.71-11.83-20.65-33.06-16.7-2.56.47-5.09,1.2-7.7,1.67-102.28,18-204.1,38.33-306.28,56.55-13.15,1.77-22,11.56-32.68,17.81-11.51,7.4-22.46,15.69-35.28,22.44-1.82.11,1.31,4.4.46,1.87-.24-.69.1-1,.95-1.12,13.3-2.32,25.46,4,38.36,4.94,11.88,1.82,23.09,7.14,35.41,6.57,48.39-8.94,96.84-17.47,145.12-26.92,7.13-1.4,14.38-2.76,21.76-2,16,8.29,18.6,28.21,32.9,38,.64,8.71,4,16.07,9.8,22.78,6.37,7.42,12.38,15.34,11.75,26.1-2.5,16.3,2.72,31.69,5.57,47.32,5.49,30.12,10.9,60.24,17.17,90.21,7.66,36.68,16.92,44.34,53.87,44.82,28.6.38,57.23-1.14,85.8.9,9.47,1.65,17,6.92,24.14,13,9.62,8.19,20.43,14.57,31.31,20.9,22.36,13,45,16.77,70.17,6.94,14.37-5.61,28.5-14.16,45.13-12.3,9.22.44,9.73.68,9.58,5.78-1.14,37.79-2.11,75.58-3.54,113.36-2.56,67-1.94,133.95-.94,200.93.1,6.62,1.33,13.21,1.53,19.83s4.49,9.07,9.59,11.14c8.35,10.56,8.58,23.24,9.56,35.8,6.23,80.42,11.77,160.9,19.74,241.18.59,29.92,4.56,59.59,6.75,89.39,1,13.87,4.05,27.77-2.38,41.17-7.45,5.48-10.72-1.62-14.16-5.45-9.63-10.71-21.56-15-35.57-15-38.59-.06-77.19-.53-115.77.16-27.78.5-36,10.85-30.94,37.81,7.1,37.93,15.07,75.69,22.18,113.62,5.88,31.38,17.18,40.53,49.13,40.57,41.9.06,83.83,1.26,125.72-.8,5.31-.26,10.71-1,15.07,3.25,7.17,15.61,6.3,32.75,7.26,49,4.11,69.75,9.57,139.42,13.87,209.15,4,64.29,5.21,129.12,19.79,192.39,2.69,17.65-8.44,28.48-20.18,38.18-14.89,12.3-31.9,22.21-50.81,25.74-23.74,4.43-44.52,14.4-64.55,27q-1143.85,0-2287.64,0c-60.21,0-104.5-33.74-120.35-93.12-8.93-33.49-13.28-68-19.54-102.08q-112.18-610.63-223.48-1221.41c-30.16-164.55-60.59-329-90-493.74-1.71-9.54-6-19.59,2.16-28.52q180,0,359.93,0H5395.71C5399.71,2327.12,5403.71,2327.15,5407.71,2327.17Z"/><path class="cls-20" d="M2608.24,2327.07c-1.32,10.89,2.67,21.1,4.53,31.49,11.12,62.17,22.95,124.21,34.41,186.32q18.09,98.07,36,196.18t35.93,196.18q20.08,109.86,40.11,219.74,17.92,98.08,35.91,196.18,20.07,109.86,40.09,219.74,17.94,98.1,35.94,196.19,20.08,109.86,40.06,219.76,14.92,82.43,29.46,164.93c5.75,32.52,19.28,60.69,44.75,82.55,20.88,17.92,43.84,30.08,72.38,28.46,6.64-.38,13.32-.06,20-.06H5321.1c10,0,20-.2,30-.31,1.34.5,1.84,1.12,1.52,1.84s-.72,1.18-1.12,1.18c-8,.2-16,.58-24,.58q-1132.87,0-2265.74,0-353.94,0-707.9-.5c-7.17,0-14.71,1.86-21.47-2.43,7.38-9.18,18-7.31,27.6-7.4,47.67-.46,95.35-.12,143,.32,57.89-.31,115.8-1,166.43.22-23.26-8.06-44.12-29.94-60.55-55.86-15.95-25.18-23.14-53.26-23.42-83.54-1-111.83-6-223.57-8.56-335.38-2.06-90.47-5.13-180.95-7.78-271.42-2.83-96.48-5.34-193-8.16-289.43q-3.84-131.71-7.85-263.44c-2.88-94.47-5.24-189-8.1-283.43-2.8-92.47-5.19-184.95-7.92-277.42-2.75-93.14-4.72-186.32-8.43-279.4-2.3-57.94-1-115.73-1.66-173.57-1.05-5-2-9.9.6-14.71.17-2.1.34-4.21.5-6.31q1.59-3,3.74-.38c5.27,10.32,5.43,21.88,7.51,32.88,10.61,56.14,20.64,112.38,30.84,168.6,10.08,55.56,19.91,111.17,30.37,166.66C2602.8,2303.78,2603.44,2315.91,2608.24,2327.07Z"/><path class="cls-7" d="M2503.78,4263.62q-74.79.15-149.56.36c-7.28,0-14.56.72-21.82,1.11l-1.81-.13-1.81,0c-6.13-2.56-12.45-4.75-18.36-7.76-47.1-24-72.11-62.09-71.2-115.31.35-20.55,3.65-41.08,6.21-61.55,4.7-37.63,9.83-75.21,14.84-112.8,4.75-35.61,9.67-71.2,14.32-106.83s9-71.3,13.63-106.94,9.48-71.23,14.15-106.86c4.59-35,9-70,13.62-104.91,4.76-36.29,9.64-72.56,14.4-108.84q6.75-51.46,13.38-102.94c4.91-37.6,9.92-75.2,14.79-112.81,4.61-35.63,9-71.29,13.65-106.93s9.43-71.24,14.1-106.86c4.59-35,9.08-70,13.67-104.91,4.75-36.29,9.6-72.56,14.34-108.85,4.58-35,9-69.95,13.62-104.92q7.23-55.42,14.56-110.83c4.49-34.31,8.88-68.63,13.38-102.94,4.85-36.94,9.86-73.86,14.65-110.81,4.63-35.64,9-71.3,13.62-106.94s9.45-71.23,14.13-106.86q6.87-52.44,13.65-104.91,5.16-39.59,10.44-79.16c1.33-9.91,2.67-19.79,2-29.82,1.12-.65,2.22-1.33,3.29-2.06q.32,6.77.62,13.54c4.89,40.51-.46,81-1.18,121.42-1,55.15-5,110.26-8.74,165.34-4.14,60.38-7.24,120.85-10.73,181.28-3.14,54.46-6.71,108.9-9.5,163.39-3,59.79-7,119.53-10.66,179.29-3.21,52.47-5.72,105-9.18,157.42-4,59.74-7.08,119.54-10.65,179.3-3.17,53.13-6.58,106.25-9.36,159.41-3.23,61.78-7.28,123.52-10.94,185.28-3.14,53.13-5.72,106.3-9.17,159.41-3.8,58.42-6.9,116.88-10.47,175.31-3.24,53.13-6.74,106.25-9.35,159.41-3,60.48-6.28,120.94-10.84,181.3-3.95,52.42,25.23,107.17,74.11,134.22C2489.79,4250.49,2501.48,4251.39,2503.78,4263.62Z"/><path class="cls-2" d="M4316.92,1867.85c2.31-35.37,17.26-63.49,48.11-81.92,37.39-22.33,82.47-18.11,115.72,12.21,13,11.82,22.83,25.49,28.06,42.56a73.8,73.8,0,0,1,3.07,27.4Z"/><path class="cls-9" d="M4752.67,1867.85c1.46-18.83,6-36.63,17.09-52.35,22.26-31.46,52.91-47.22,90.92-42.7,40.11,4.77,68.57,27.22,82.6,66.06,3.41,9.43,6,19.08,4.37,29.32Z"/><path class="cls-21" d="M2575.64,1867.7c-4-46.56,45-101.51,105.3-95.25,41.86,4.34,76.41,30.11,87.14,78.15,1.26,5.67,3.94,11.47,2,17.62q-86.34-.06-172.66-.11C2590.18,1868.1,2582.91,1867.84,2575.64,1867.7Z"/><path class="cls-21" d="M3011.38,1867.73c-2.62-50.63,46.2-99.53,103.18-95.52,45.38,3.19,84.89,38,90,84.21.42,3.83,2.56,7.73.14,11.63Z"/><path class="cls-2" d="M3881.15,1867.89c1.49-21.07,8-40.27,20.94-57.16,23.67-31,56-43.65,93.22-37.27,38.83,6.65,65.61,30.56,78.15,69,2.77,8.49,3,17,2.56,25.62Z"/><path class="cls-2" d="M3447.15,1867.62c.24-5.81.45-11.61.73-17.42.18-3.93.84-7.71,3.95-10.56,6.15,2,9.86-1.85,13.55-5.64,19.15-19.67,39.33-38.33,57.94-58.53,5.73-4.77,12.64-3.23,19.13-3.37,43.07-.88,81.88,27.68,94.61,68.45a78.36,78.36,0,0,1,3.21,27.44Z"/><path class="cls-9" d="M5188.47,1867.82c1.1-55.89,49.28-97.16,99.71-95.71,56.54,1.62,95.59,48,95.85,95.52.05,8.43,2.28,17.39-3.7,25-6.45-19.75-23.16-23.79-40.67-29.5-47.34-15.43-93.25-6-139.45,4.13Z"/><path class="cls-22" d="M4729.67,2216.13c18.62,0,37.25,0,55.87,0a69.69,69.69,0,0,1,11.93.56c8.49,1.51,14.1,7.93,14.95,16.37,1,9.92-3.15,17.13-12.36,20.25a37,37,0,0,1-11.7,1.82q-58.86.2-117.73,0a37.32,37.32,0,0,1-11.67-1.93,18.57,18.57,0,0,1-12.51-20.31c1-7.82,7.44-14.93,15.41-16.26,3.89-.66,8-.48,11.93-.49Q4701.74,2216.09,4729.67,2216.13Z"/><path class="cls-22" d="M4024.16,2216.13q26.94,0,53.88,0a79.14,79.14,0,0,1,11.94.43c8.63,1.37,15.73,9.3,16.45,17.78.61,7.22-5,15.42-12.45,18.71-4.42,1.94-9,2.16-13.67,2.16-38.58,0-77.16.05-115.73-.06a40.45,40.45,0,0,1-11.76-1.58c-8.85-2.76-13.77-10.64-13.13-20,.56-8.24,6-14.83,14.72-16.62,4.49-.93,9.24-.81,13.88-.83C3986.92,2216.08,4005.54,2216.13,4024.16,2216.13Z"/><path class="cls-22" d="M3668.76,2216.13c18.62,0,37.24-.06,55.86,0,4.63,0,9.41-.05,13.87,1,8.46,2,13.65,9,13.89,17.31.24,8.75-4.13,15.39-12.08,18.83-4.44,1.93-9.05,1.91-13.7,1.92q-56.86,0-113.73,0c-5.34,0-10.59-.13-15.59-2.53-7.53-3.61-12.51-11.77-11.43-19.2,1.16-8,7.42-15.26,15.12-16.75,3.87-.76,7.94-.6,11.92-.61C3631.51,2216.1,3650.13,2216.13,3668.76,2216.13Z"/><path class="cls-22" d="M3315.44,2216.13q27,0,53.9,0a103.57,103.57,0,0,1,12,.26c10.28,1.22,17.53,8.58,18.21,18,.59,8.35-5.22,16.39-14.46,19.15a41.66,41.66,0,0,1-11.77,1.57c-38.6.11-77.19.05-115.78.07a30.67,30.67,0,0,1-13.58-2.66c-8-3.83-12.47-11.26-11.44-19.17s7.09-15,15.16-16.52c4.52-.85,9.26-.7,13.91-.72C3279.51,2216.09,3297.48,2216.13,3315.44,2216.13Z"/><path class="cls-22" d="M2963.08,2216.13H3013c4,0,8-.15,12,.08,11.91.7,20,7.48,20.86,17.34,1,11-6.65,19.74-19,21.42a73.58,73.58,0,0,1-10,.26q-54.86,0-109.71,0a58,58,0,0,1-11.88-.81c-10.13-2.15-16.07-10-15.7-20.1s7-17,17.77-17.93c5.94-.54,12-.23,17.94-.23Q2939.14,2216.11,2963.08,2216.13Z"/><path class="cls-22" d="M5084,2255.24c-18.63,0-37.25.07-55.87,0-4.63,0-9.39-.07-13.83-1.16-9.12-2.25-14.53-9.84-14.46-19.07s6-16.28,15.4-18.14a62.25,62.25,0,0,1,11.92-.66q55.86-.07,111.74,0c4,0,8.05-.19,11.93.52,8.46,1.55,15.48,10,15.84,18.34.34,7.6-5.14,15.09-13.08,18.32-5.11,2.08-10.41,1.9-15.72,1.9Q5110.91,2255.28,5084,2255.24Z"/><path class="cls-22" d="M4378.16,2216.13q24.94,0,49.89,0c4,0,8-.21,12,.15,11.65,1,19.28,8.4,19.65,18.65.33,9.18-6.35,17.26-16.75,19.41-4.5.93-9.25.86-13.89.87q-52.87.09-105.75,0c-6,0-12,.38-17.7-2-8.2-3.44-13.38-10.45-13.06-18.22.32-8.19,7.39-16.63,15.87-18.26,3.87-.74,7.94-.56,11.92-.57C4339.59,2216.1,4358.87,2216.13,4378.16,2216.13Z"/><path class="cls-23" d="M5200.21,1867.28c15.31-8.3,32.12-12,49-15,9.05-1.6,17.81-4.52,27.34-4.6,11.47-.09,22.37,2.17,33.38,4.33,20.75,4.07,41.6,7.6,61.54,15.18,5.95,2.27,8.71,5.28,8.55,11.49-.11,4.64.2,9.3.33,14a8,8,0,0,1-.39,3.37c-2.46,2.21-1.77,5.82-3.7,8.26l.1,0c-15.19,8.81-30.44,8.29-45.73.25a7.59,7.59,0,0,1-1.52-1.27c-18.07-26.74-43.63-36.82-75.25-35.3C5236,1868.78,5218.09,1867.57,5200.21,1867.28Z"/><path class="cls-24" d="M5330.61,1904.5l45.73-.25c-4.68,20.76-18.9,34.39-34.86,46.7C5340.28,1934.89,5336,1919.56,5330.61,1904.5Z"/><path class="cls-25" d="M2531.87,1923.94a33.6,33.6,0,0,0-3.74.38c-.65-4.42-.86-8.79,1.51-13C2532.64,1915.22,2532.12,1919.61,2531.87,1923.94Z"/><path class="cls-26" d="M2239.81,3373.09c-5.75-5.75-4.44-13.66-5.61-20.54-4.52-26.58-9-53.26-5.39-80.43,9.86-.85,16.17-8.48,24.23-12.75,5.51-2.92,6.85.44,8.21,4.43Q2250.52,3318.43,2239.81,3373.09Z"/><path class="cls-27" d="M2138.63,3899.26c-4-5.55-2.57-12.4-4.4-18.53-2.19-7.32-1.62-7.49,9.31-9C2144.86,3881.45,2139.68,3890,2138.63,3899.26Z"/><path class="cls-28" d="M2124.88,3968.51l-4.19-4c1.39-4.89,2.95-9.69,7.24-13C2128.09,3957.42,2129.1,3963.43,2124.88,3968.51Z"/><path class="cls-19" d="M5876.76,4252.24l-2.28,14.9q-152.67-.17-305.35-.3c-2.64,0-5.29.43-7.93.66-3.6-2.39-5.56-6.13-5-10,3-21.33-.91-43.18,4.78-64.29,12.43-16.55,15.64-36.67,20.51-55.88,28.86-113.83,51.25-228.83,61.33-346,1.26-14.53,5.07-28.85,3.33-43.63.93-17.42,1.53-34.9,8.76-51.24,14,.64,11.29,12.94,12.85,20.54,10.35,50.26,18.88,100.89,28.07,151.38,14.32,78.69,29,157.33,43.24,236,8.11,44.69,1.61,86.15-28.69,122.16-12.31,14.62-26.88,25.62-41.26,32,44.32-.64,91.69-.09,139.06-.28C5831.19,4258.1,5854.4,4260.07,5876.76,4252.24Z"/><path class="cls-13" d="M5563.65,4192.71c.67,23.08,2.32,46.19-3.31,69-.44,1.76.54,3.87.86,5.81q-82.89.24-165.79.45c-14.64,0-29.28-.33-43.92-.52a4.36,4.36,0,0,0-.4-3c5.51-14.71,17.41-21.18,31.8-23.67a223.45,223.45,0,0,0,34.55-8.8,143.93,143.93,0,0,0,33.77-16.52c13.5-9.06,24.36-20.31,29.89-36C5508.55,4184.32,5537,4182.73,5563.65,4192.71Z"/><path class="cls-29" d="M3523.32,1775.47c.75,1,2.29,2.28,2.08,3.06a11.53,11.53,0,0,1-2.87,4.86q-31.65,31.77-63.5,63.36c-1.28,1.26-3.27,1.8-4.86,2.65-2.89-3-1.8-6.58-2.34-9.76C3463.24,1804.42,3486.59,1782.48,3523.32,1775.47Z"/><path class="cls-4" d="M5656.82,3696.22l-5.25,51.92a9,9,0,0,0-1.51,3.61c-1.62,8.11,4.19,21.48-3.58,23.48-10.88,2.81-14.93-11.06-20-19q-99.61-155.46-199.63-310.66c-5.2-8.07-6.78-17.15-10.65-25.5-2.45-11-3.18-22.26-4.05-33.51-3.42-44.27-7.2-88.51-10.83-132.76q-2.28-27.73-4.47-55.49t-4.39-55.49c17.29.65,34.74-.46,51.61,4.75,1.83,14.06,8.6,26.5,13.85,39.28,16.38,39.88,34,79.26,50.82,118.94,8.3,19.52,15.82,39.37,24.07,58.91,6.45,15.28,13.57,30.29,20.25,45.48,13.61,31,27.07,62,40.72,92.95q10,22.77,20.56,45.33,18.6,39.71,37.6,79.21a40.75,40.75,0,0,1,4.19,19.22c-.19,7.29.29,14.6.47,21.91C5663,3677.86,5663.06,3687,5656.82,3696.22Z"/><path class="cls-13" d="M5040.22,2575.88c-4.6-10.43-12.41-18.71-18.95-27.8-3.83-5.31-2.26-9.89-.92-15,11.86-17.77,24.63-21.55,47.07-13.92q26.67,17.28,53.36,34.51c6.1,3.92,12.4,7.55,18.61,11.31,37.54,18.2,72.95,39.7,104.22,67.58,15,13.33,32.94,22.28,49.55,33.2,5.07,3.33,10.24,2.65,15-.57,7.68-5.23,15.69-10.17,22.6-16.31,19.38-17.23,38.25-35,57.38-52.56,4.87-4.47,9.94-8.72,14.92-13.08,4.53,7.63.46,15.24-.34,22.74-1.87,17.7-5.43,35.28-6.35,53-.65,12.64-5.33,24.56-4.52,37.42.79,12.52.46,25.06-3,37.53-1.91,6.82-.63,14.53-.74,21.84-.07,4.66-.74,9.44.09,13.94,2,10.82-3,17.35-11.93,22-19.92,10.56-41.5,16.69-62.95,23-9,2.65-18.21,1.53-27.32-1-14.81-4.15-28.21-11.17-40.72-19.81s-24.44-17.88-36.64-26.87c-6.5-2-11.77-5.78-16.7-10.43-53.29-50.29-100.6-105.78-144-164.72A50.48,50.48,0,0,1,5040.22,2575.88Z"/><path class="cls-30" d="M5516,2329c-11.17-.66-17.82-7-22.34-16.81a101.48,101.48,0,0,1-8.91-38.29c-1.09-25.69-.41-51.47-.11-77.21.06-5.19,1.68-10.37,2.57-15.56,13.26-4.19,26.3-9.35,39.82-12.38,29.9-6.71,42.4-.34,56.43,26.81,3.63,7,6.09,14.73,11.47,20.81,3,3.33,6.82,3.7,10.45.85s6.87-6.26,10.79-8.58c5-3,10.68.19,12.13,6a40.73,40.73,0,0,1,.56,17.77c-3.22,16.6,1.94,30,14.76,40.66-1.49,5.08-1.64,11.25-4.73,15-8.07,9.84-5.29,19.75-2.45,30,5,18.06,13.11,34.72,22.7,50.74,2,3.38,3.72,7,5.58,10.46-21.44,5.31-40.95,15.36-60.58,25-13.83,6.79-28.11,12-43.33,14.06-11.07,1.49-22.37,3.25-33.23-1.62.41-.52.72-1.26,1.26-1.53,10.49-5.28,11.51-13.34,6.9-23.1-6.64-10.35-9.3-21.45-6.34-33.58,27.79,3.24,46-13.95,68.61-32.47-23.9,10.41-45.24,5-65.72,8.4A24.83,24.83,0,0,1,5516,2329Z"/><path class="cls-31" d="M5751.91,2904.06c-11.76-8.92-19.48-16.23-25.65-24.63-21.44-29.2-37.44-61.11-44.69-96.88-2.36-11.63-3.88-23.46-5.29-35.25-.87-7.38,2.36-13.92,6.19-21.94,9.17,10.12,15.39,21,21.72,31.52q19.47,32.48,41.88,62.95c3.74,5.1,6,9.92,5.93,16.3C5751.76,2857.39,5751.91,2878.66,5751.91,2904.06Z"/><path class="cls-11" d="M5435.86,2503.62c.08-3.32,1-6.13,4.4-7.52A8.4,8.4,0,0,1,5435.86,2503.62Z"/><path class="cls-2" d="M5656.82,3696.22q-.14-13.72-.26-27.45c1.61-4.92,3.23-9.84,4.94-15.05,5.47,4.88,7.23,11.45,10.07,17.28,27.35,56.13,54.68,112.29,85.42,166.67q48.53,85.88,98.1,171.15c21,36.22,42.46,72.13,63.77,108.14,3,5,5,11.22,12.32,11.69.08,16.51.11,33,.25,49.52a97.79,97.79,0,0,1-6.71,36.75c-5.59,14.34-15,24.9-30.37,28.69-6.62,1.64-12.09,5-17.59,8.63-1.43,1.34-3.56,2.43-4.14,4.07-1.76,5-4.73,7.82-10.23,7.52-1.33-.07-2.66,0-4,0H5650.7c4.54-5.27,10-5.58,14-8.22,4.41-2.94,8.63-6.4,13.44-8.46,8.9-3.81,15.36-10.43,21.79-17.15,17.87-18.66,30.3-40.71,34.95-65.92a152.55,152.55,0,0,0-.19-53.61c-6.14-35.12-13.67-70-19.32-105.22-4-24.76-10-49.17-14.66-73.83-4.52-24-8.24-48.16-12.63-72.2-6.29-34.42-13.83-68.65-19-103.23-2.72-18.33-8-36.18-9.45-54.69C5659.49,3699.57,5657.79,3697.92,5656.82,3696.22Z"/><path class="cls-32" d="M5532.54,2356.1a31.05,31.05,0,0,0,1.19,15.12c2.37,6.78,2.46,13.77,2,20.82-9-1-13.72-6.49-15.6-14.91-2.25-10.08-5.17-20-4.2-30.62.53-5.8.07-11.68.06-17.52,5.76-1.51,10.86-.09,15.46,3.51C5538.67,2340.05,5538.46,2347.94,5532.54,2356.1Z"/><path class="cls-24" d="M5376.24,1904.27c-.22-3.41.46-6.41,3.7-8.26C5380.08,1899.38,5379.45,1902.4,5376.24,1904.27Z"/><path class="cls-33" d="M1448.12,2759.92c-3.3.18-6.37.81-8.11,4.07q-20-8-40-16t-40-16.08c-1-3.61-.23-5.51,4-4.06C1392.79,2736.67,1421.19,2746.36,1448.12,2759.92Z"/><path class="cls-34" d="M1364,2727.89l-4,4.06c-10.79-5.11-23.33-6.72-32.09-15.94l0,0A81.38,81.38,0,0,1,1364,2727.89Z"/><path class="cls-34" d="M1316,2712c4.4.13,9.13-.75,12,4l0,0c-4.4-.13-9.11.68-12-4Z"/><path class="cls-34" d="M1316,2712a34.35,34.35,0,0,1-3.67-.43c-.55-.12-1.47-.72-1.44-1,.2-1.6,1.32-2.17,2.68-1.25a14.11,14.11,0,0,1,2.4,2.73Z"/><path class="cls-3" d="M5416.16,3420q26,40.08,51.93,80.15,39,60.24,77.91,120.5,35,54.46,69.8,109.13c9.24,14.48,18.34,29,27.3,43.26,6.19-1.15,4.39-5.18,4.79-8,.8-5.74-1.65-12.17,3.68-16.92-.08,8,.51,16-.35,23.88-5.67,52.18-10.89,104.43-19.59,156.22a2437.29,2437.29,0,0,1-55.43,251c-2,7.1-4.73,12.35-12.55,13.47-7.22.09-14.44.12-21.66.29-18.68.45-36.6-2.66-53.48-11a60,60,0,0,0-7.41-2.56,28.59,28.59,0,0,1-10-20.63c-2-29.11-4.93-58.16-7.73-87.21-4-41.64-6.67-83.33-8.47-125.13-1.66-38.44-4.72-76.83-7.63-115.21-2.7-35.71-6-71.37-9.06-107.05a39.66,39.66,0,0,1-7.66-22.17c-1.39-44.25-7.7-88.15-9.13-132.39-.19-5.84-1.75-11.95,2.71-17.07.35-15.89-1.39-31.66-2.31-47.49C5420.23,3476.71,5415.3,3448.56,5416.16,3420Z"/><path class="cls-35" d="M4097.36,2767.93c-20,0-40,0-60,0a70,70,0,0,1-17.73-1.92c-13.54-3.51-22.44-11.88-26.53-24.63a225,225,0,0,1-8.73-36.69c-4.65-32.81-12.7-64.94-18.62-97.49a94.32,94.32,0,0,1-1.74-15.77c-.19-16.63,8.23-25.68,24.92-27.24,2-.19,4-.09,6-.09q62.94,0,125.9,0c13.9,0,26.13,3.58,35.75,14.4a31,31,0,0,1,7.86,15.63c4.81,25.36,10.37,50.57,15.47,75.88q5.69,28.2,10.86,56.51a80.51,80.51,0,0,1,1.19,13.87c.14,16.9-7.95,25.88-24.7,27.45-4,.37-8,.12-12,.13Z"/><path class="cls-35" d="M4281.79,3727.93c-20,0-40-.42-60,.17-10.48.31-19.52-2.59-28.53-7.39-9.61-5.11-14.93-13-17-23.31-6.59-32.44-13.63-64.81-19.26-97.42-2.59-15-5.12-30-8.29-44.92-3-14.18,3.91-23.75,17.95-28.61,5.87-2,11.68-2.37,17.67-2.37,40,0,80,.14,120-.07,16.38-.09,29.86,5.37,40,18.42a37,37,0,0,1,7.46,16.14q10.14,54.67,20.37,109.34c1.59,8.46,2.16,17.33,5.18,25.25,3.34,8.75,1.23,15.67-3.5,22.44s-11.92,10.67-20.07,12c-4.56.72-9.3.36-14,.37Q4310.77,3728,4281.79,3727.93Z"/><path class="cls-35" d="M3590.21,3832.06q31,0,62,0c5.31,0,10.47.23,15.73,2,16.35,5.4,24.6,17.33,27.91,33.34,5.23,25.29,11.14,50.48,15,76,3.19,21,7.65,41.67,11.81,62.45,2.11,10.53-3.55,17.95-11.12,23.93-6.49,5.13-14.3,6.35-22.6,6.28-32-.25-64-.1-96-.1h-26c-5.33,0-10.46-1-15.71-2-17.38-3.27-26.67-14.45-30.59-30.4-3.64-14.77-5.82-29.9-8.72-44.85-3.27-16.9-6.56-33.81-10-50.68-3-14.93-6.52-29.77-9.29-44.74-2.65-14.33,3.87-23.85,17.88-28.73,5.86-2,11.67-2.43,17.66-2.42Q3559.22,3832.08,3590.21,3832.06Z"/><path class="cls-35" d="M4304.43,3832.06c20.64,0,41.27-.1,61.9,0,24.44.15,40.11,12.66,45.05,36.49,3.35,16.18,5.74,32.57,8.9,48.8,4.79,24.65,10,49.22,14.71,73.9,1.1,5.82,1.08,11.91,1,17.88-.1,15.79-8,24.64-23.48,26.54-3.94.48-8,.21-12,.22q-58.9,0-117.81,0c-5.94,0-11.93.62-17.76-1.6-15.84-6.05-27.06-15.12-29.87-33.66-4-26.12-10-51.92-15.1-77.85q-5-25.3-10-50.6c-.39-2-1.28-3.8-1.57-5.76-3-19.8,7.3-34.6,28.08-34.39C4259.17,3832.24,4281.8,3832.07,4304.43,3832.06Z"/><path class="cls-7" d="M4814.35,2767.67c-22,0-44,.1-66,0-12.41-.09-23.28-3.83-32.38-13-7-7.08-9.8-15.79-11.56-24.92-5.77-30-11.15-60-16.76-90-1.71-9.13-3.26-18.32-5.69-27.27-2-7.22-1.91-14.48-2.46-21.76-1.26-16.52,9.73-23.3,22.07-26a37.72,37.72,0,0,1,8-.37q65,0,129.92.06a38.14,38.14,0,0,1,11.76,1.65c15.49,5.18,26.38,14.24,29.32,31.77,4.61,27.47,10.37,54.75,15.74,82.09,3.2,16.28,6.61,32.51,9.89,48.77a71.75,71.75,0,0,1,1.65,9.81c1,17.26-8.19,28.08-25.56,29-13.29.68-26.64.18-40,.2Q4828.35,2767.7,4814.35,2767.67Z"/><path class="cls-7" d="M4998.66,3727.68h-58a119.77,119.77,0,0,1-12-.13c-18.26-1.86-31.61-10.54-36.5-28.89-3.41-12.79-5.53-25.94-8.08-39-4.59-23.46-9-46.94-13.59-70.4-2-10.42-4.45-20.77-6.1-31.25-3.69-23.36,11-34,28.62-33.84,43.32.4,86.64.1,130,.14,23.1,0,40.3,13.07,44.82,39.45,5.49,32,12,63.92,17.93,95.9,2.41,13,5.29,26.1,6.27,39.27,1.35,18-7.43,27.21-25.38,28.6-4,.31-8,.1-12,.11Z"/><path class="cls-3" d="M3529.5,3524.72c22,0,43.94-.11,65.91,0,16.72.11,29.61,7.13,37.11,22.4,2,4.07,2.88,8.79,3.77,13.31q13.11,66.53,26,133.08c3.86,20.06-5.51,32.12-26,33.6-6.62.48-13.31.14-20,.15H3514.46c-4.66,0-9.34.18-14-.09-22.27-1.3-35.73-12.82-40.17-34.62-3.73-18.24-7.21-36.52-10.67-54.8-4.94-26.13-9.88-52.25-14.61-78.42-4.06-22.48,5.35-34.09,28.55-34.55C3485.55,3524.38,3507.53,3524.72,3529.5,3524.72Z"/><path class="cls-35" d="M3886,3524.08c21.3,0,42.61-.07,63.91,0,13.08.07,24.9,3.37,33.9,13.77,6.83,7.89,9.6,17.66,11.52,27.29,7.37,37,13.93,74.09,20.86,111.14,1.58,8.45,4.33,16.61,4,25.46-.62,14.69-7.73,23.44-22.29,25.8a62.32,62.32,0,0,1-10,.34q-61.92,0-123.83,0c-13.78,0-26.33-2.81-35.89-13.82-6.84-7.88-9.6-17.66-11.53-27.28-7.37-37-13.93-74.09-20.86-111.15-1.58-8.44-4.32-16.6-3.95-25.46.63-14.68,7.72-23.46,22.28-25.78,3.91-.62,8-.35,12-.36Q3856.05,3524,3886,3524.08Z"/><path class="cls-7" d="M4833.37,2872.25c21.33,0,42.67.34,64-.14,11.35-.25,20.91,3.8,29.74,10,7.43,5.18,11.12,13,12.84,21.82,8.94,46.27,18,92.51,27,138.77,3,15.34-2,24.14-16.17,30.12a39.12,39.12,0,0,1-15.58,2.85q-63-.08-126,0c-14,0-26.08-4.26-35.4-15.29a41.83,41.83,0,0,1-9.53-19.46c-7.78-40.41-15.67-80.8-23.4-121.22-1-5.21-1.09-10.59-1.85-15.86-2.42-16.8,5.82-28.54,22.4-31.12,4.57-.71,9.31-.37,14-.38Q4804.38,2872.22,4833.37,2872.25Z"/><path class="cls-7" d="M5018.23,3832.25c21.32,0,42.64.2,64-.09a50.35,50.35,0,0,1,23.14,5.21c9.37,4.62,15.54,12.69,18.27,22.71,3.14,11.51,5.68,23.21,8,34.94,6.34,32.56,12,65.26,18.73,97.73,5.57,26.71-.82,43.18-34.24,42.93-40-.31-79.95-.15-119.93,0-13.83,0-26.37-2.75-36.14-13.52-4.11-4.52-7.21-9.19-8.43-15.46-4.9-25.4-10.34-50.7-15.41-76.08-3.77-18.86-7.33-37.77-10.83-56.68a88.48,88.48,0,0,1-1.5-13.86c-.39-16.88,7.72-26.18,24.47-27.62,7.28-.62,14.65-.17,22-.18Q4994.25,3832.23,5018.23,3832.25Z"/><path class="cls-35" d="M3945.49,3832.06c20.62,0,41.25,0,61.87,0,5.3,0,10.51.14,15.79,1.52,15.73,4.1,25.32,13.79,28.82,29.59,2.58,11.62,5.35,23.21,7.64,34.88q9.94,50.58,19.47,101.23a41,41,0,0,1,.56,13.86c-1.59,9.65-5.65,17.35-16.63,19.93-5.85,1.37-11.49,2.87-17.56,2.86-41.25-.08-82.5,0-123.75-.07-13.91,0-25.65-4.74-35.37-15.25-5.83-6.31-8.08-13.93-9.61-21.51-6-29.79-11.22-59.76-16.79-89.64-1.81-9.75-3.34-19.61-6-29.14-1.82-6.59-2-13.11-2-19.73,0-19,8.31-27.71,27.67-28.46,10.63-.42,21.29-.09,31.93-.09Z"/><path class="cls-35" d="M3230.53,3832.06c21.3,0,42.6-.1,63.89.05,13.1.09,24.75,3.79,33.86,14,4.08,4.58,6.95,9.17,8.15,15.47,4.81,25.34,10.4,50.52,15.47,75.8,3.78,18.8,7,37.7,10.87,56.47,1.5,7.3,1.3,14.54,1.12,21.83-.19,7.49-4.54,12.62-11,15.29a63.66,63.66,0,0,1-25.18,5.09c-39.27-.32-78.54,0-117.81-.17-33.05-.11-45.25-16.68-49.22-41.63-6.47-40.52-15.46-80.51-23.42-120.72a74.61,74.61,0,0,1-1.21-13.85c-.15-16.84,8-26,24.62-27.47,5.95-.52,12-.14,18-.15Z"/><path class="cls-7" d="M5191,2872.25c21.33,0,42.65-.07,64,0,11.64.06,22.36,2.87,31,11.41,5.29,5.24,9.25,10.8,10.7,18.59,4.63,24.78,10.14,49.41,15.06,74.14,3.76,18.87,6.95,37.86,10.83,56.7a91.51,91.51,0,0,1,1.62,19.84c-.13,9.88-5.17,16.13-14.43,19.26a59.65,59.65,0,0,1-19.54,3.44c-41.32-.14-82.64.14-123.95-.15-23.9-.16-37.16-10.28-43.26-33.41-4.23-16-7.28-32.36-10.45-48.64-5.08-26-9.88-52.16-14.68-78.26a99.26,99.26,0,0,1-1.92-15.79c-.33-15.84,7.57-25,23.11-26.91a97.58,97.58,0,0,1,12-.25Q5161,2872.23,5191,2872.25Z"/><path class="cls-35" d="M4476.77,2872.06c21.29,0,42.58-.16,63.87.05,20.86.2,35.38,10.82,40.82,31.09,4.27,15.93,7.13,32.25,10.34,48.46,5.26,26.57,10.43,53.17,15.3,79.81,1.06,5.83,1,11.92.95,17.89-.13,15.69-8.09,24.49-23.68,26.36a87.14,87.14,0,0,1-10,.19c-39.26,0-78.51-.2-117.76.14-10.31.09-19.64-2.72-29-6.3s-15.33-10.54-18.3-19.85a123.54,123.54,0,0,1-5.08-21.23c-4.3-32.82-12.52-64.89-18.57-97.37-1.58-8.45-4-16.76-5.27-25.24-3.07-19.87,7.8-34.37,28.43-34.07C4431.52,2872.32,4454.15,2872.07,4476.77,2872.06Z"/><path class="cls-35" d="M4117.5,2872.06c20.63,0,41.26.06,61.89,0a68.41,68.41,0,0,1,19.56,2.87c10.48,3,17.45,9.59,21.75,19,3,6.58,6.05,13.63,6.76,20.71,2.52,25.11,9.9,49.27,13.56,74.16,2.59,17.62,7.06,35,10.41,52.47a33.54,33.54,0,0,1,.26,11.9c-1.7,9.63-5.6,17.38-16.61,19.95-5.84,1.37-11.48,2.9-17.55,2.89-41.26-.08-82.51,0-123.77-.06-13.91,0-25.7-4.68-35.35-15.25-6.25-6.84-8.78-15.13-9.91-23.45-3.68-26.91-9.84-53.29-15.36-79.82-3.23-15.53-5.83-31.18-8.66-46.79a51.49,51.49,0,0,1-.48-6c-1.3-22.46,7.24-31.95,29.63-32.51,10.64-.27,21.29-.05,31.93-.05Z"/><path class="cls-35" d="M3402.1,2872.06H3466c13.94,0,25.74,4.5,35.44,15.06,6.25,6.81,8.44,15,10.17,23.36,3.23,15.52,5.47,31.24,8.43,46.81,4.44,23.39,8.77,46.8,13.95,70A95.73,95.73,0,0,1,3536,3049q-.17,23.79-23.35,26.65a97.42,97.42,0,0,1-12,.23q-58.87,0-117.75,0c-5.95,0-12,.68-17.77-1.53-15.78-6-26.78-15-30.08-33.5-6-33.8-14.5-67.17-19.4-101.23-1.32-9.14-3.72-18.13-5.56-27.2-.78-3.88-1.89-7.78-2-11.69-.61-17.18,8.8-27.79,26.12-28.5,15.28-.62,30.6-.16,45.9-.17Z"/><path class="cls-35" d="M3047.16,2872.06c21.28,0,42.57.21,63.84-.07,12.12-.16,21.72,5.57,30.84,12.27,5.49,4,8.39,10.38,9.73,17,4.33,21.36,8.31,42.8,12.48,64.2q4.92,25.29,10,50.56c1.7,8.42,3.86,16.75,5.36,25.2a34.76,34.76,0,0,1,.28,11.9c-1.71,9.61-5.61,17.37-16.6,19.95-5.84,1.37-11.47,2.9-17.54,2.89-41.23-.08-82.46,0-123.69-.06-13.91,0-25.66-4.65-35.4-15.14-5.83-6.28-8.18-13.86-9.71-21.45-6-29.78-11.21-59.73-16.78-89.6-1.81-9.74-3.24-19.62-5.94-29.12-2.06-7.26-2.09-14.44-2.05-21.71q.14-23.72,23.4-26.58a99.28,99.28,0,0,1,12-.22Q3017.24,2872,3047.16,2872.06Z"/><path class="cls-35" d="M3208.94,3727.93c-20.61,0-41.24-.45-61.84.17-11.4.34-20.67-4.33-29.77-9.79-7.21-4.32-11.21-11.48-12.86-19.47-4.42-21.34-8.35-42.79-12.52-64.19-3.28-16.86-6.55-33.72-9.95-50.56-1.69-8.42-3.86-16.75-5.37-25.2a34.77,34.77,0,0,1-.31-11.9c1.68-9.61,5.54-17.31,16.49-20.06,6.52-1.63,12.84-2.9,19.54-2.89q59.85.12,119.71,0c14.6,0,27.14,4,37.43,15.11,5.8,6.29,8.24,13.83,9.77,21.42,6,29.78,11.22,59.73,16.79,89.6,1.81,9.75,3.21,19.63,5.91,29.13,2.07,7.25,2.12,14.43,2.08,21.71-.09,15.88-7.82,24.72-23.29,26.67a95.28,95.28,0,0,1-12,.24Q3238.87,3728,3208.94,3727.93Z"/><path class="cls-35" d="M4602.91,3524.08c20.62,0,41.25.44,61.86-.17,11.4-.34,20.72,4.2,29.79,9.75,7.82,4.77,11.58,12.6,13.34,21.37,2.73,13.6,5.27,27.23,8,40.84q7.32,37,14.73,73.89c1.93,9.72,2.83,19.59,4.84,29.34,2.56,12.33-4.41,21.42-16.27,25.83a54.31,54.31,0,0,1-19.53,3c-39.92-.07-79.83-.18-119.75,0-16.31.08-29.82-5.17-40-18.22-3.75-4.8-6.7-10-7.5-16.07-4.55-34.12-13.21-67.44-19.16-101.26-2.39-13.55-6.22-27.1-5.47-41.28.87-16.64,8.58-25.53,25.31-27,4-.34,8-.11,12-.11Z"/><path class="cls-35" d="M4662.39,3832.07c22,0,44-.13,66,0,16.84.13,37.26,12.94,39.78,34.9.75,6.55,2.61,13,3.86,19.47,7.29,37.7,14.39,75.44,21.9,113.1,3.64,18.27-6.22,33.3-24.51,36a54.41,54.41,0,0,1-8,.26q-61,0-122,0a53.06,53.06,0,0,1-17.61-2.68c-16.65-5.65-26.47-16.85-29.82-34-4.68-24.05-9.57-48.05-14.28-72.09-4.33-22.08-8.82-44.13-12.64-66.3-1.62-9.45,3.87-16.61,10.84-22.21,6.45-5.18,14.14-6.75,22.48-6.64C4619.74,3832.25,4641.07,3832.06,4662.39,3832.07Z"/><path class="cls-35" d="M3761.18,2872.06c21.28,0,42.57.41,63.84-.17,10.66-.3,19.63,3.56,28,8.93,8.88,5.7,12.23,15.6,14.59,25.24,3.31,13.45,5.49,27.18,8.19,40.78q7.55,37.9,15.16,75.79c1.7,8.42,1.83,17,3.8,25.49,2.05,8.89-4.05,16.44-11.33,21.77-6.64,4.87-14.33,6.18-22.62,6.13-35.91-.25-71.82,0-107.72-.2-10.53-.06-20.92.3-31.58-2.41-17.3-4.39-25.74-15.69-29.11-31.62-7-33-13.42-66-19.82-99.12-2.38-12.31-2.9-25.1-6.36-37.07-3.66-12.69,2-20.59,10.54-27.55,5.76-4.7,12.95-6.17,20.6-6.08C3718.62,2872.23,3739.91,2872.06,3761.18,2872.06Z"/><path class="cls-35" d="M3109.37,3200c22,0,43.92-.14,65.88,0,23.88.18,36.66,11.3,40.84,34.77,2.67,15,5.57,29.9,8.54,44.82,6.08,30.46,12.33,60.88,18.39,91.33,2.23,11.19-3.14,21.25-13.35,26.23a29.93,29.93,0,0,1-13.49,2.9c-46.58,0-93.17.19-139.75-.12-17.27-.12-32.82-12.52-35.66-29.12-1.34-7.85-3.29-15.53-4.76-23.33q-11-58.45-22.56-116.81c-3.41-17.3,6.43-30.39,24.05-30.62C3061.45,3199.73,3085.41,3200,3109.37,3200Z"/><path class="cls-35" d="M4219.92,3400c-22,0-44,.1-66,0-24.63-.14-36.88-10.24-41.63-34-3.9-19.48-8-38.92-11.63-58.44-4.89-26-10-52-14-78.21-3.07-20.14,7.19-27.26,21.29-29.2a75.57,75.57,0,0,1,10-.18c42.65,0,85.31-.08,128,0,24.63.06,36.94,9.5,42.17,33.51,5.77,26.51,10.57,53.23,15.87,79.85,3.49,17.52,6.95,35.07,10.78,52.52,1.65,7.49,1.3,14.38-2.31,21.26-4.4,8.42-10.56,13.11-20.54,13-24-.28-48-.09-72-.09Z"/><path class="cls-7" d="M4898,3199.78c22,0,43.95-.19,65.92.06s35,10.45,39.3,32.06c7.43,37.06,14.06,74.28,21.05,111.42,1.72,9.13,3.89,18.18,5.22,27.36,2.72,18.72-7.43,27.87-21.55,29.3-3.3.33-6.65.16-10,.16-42.62,0-85.23.1-127.85,0-24.71-.07-37.14-9.63-42.24-33.41-5.71-26.58-10.58-53.33-15.81-80q-5-25.38-9.92-50.77c-.75-3.9-1.85-7.85-1.77-11.75.32-14,9.76-23.8,23.72-24.26,13.3-.44,26.63-.13,39.95-.14Q4881,3199.77,4898,3199.78Z"/><path class="cls-7" d="M5291,3400.15c-21.29,0-42.63-.89-63.86.22-25.35,1.33-38.14-13.4-42.76-35.63-5.8-27.89-10.77-55.95-16.14-83.92-2.24-11.71-5-23.35-6.74-35.13a160.09,160.09,0,0,1-1.76-25.79c.14-10.46,4.63-16.11,14.6-18.7,5.05-1.3,10.51-1.35,15.79-1.37q63.87-.15,127.74,0c25.4.08,37.27,9.48,42.67,35.18,7.07,33.71,13.19,67.61,19.85,101.41,2,10.4,4.71,20.68,6.67,31.1,1.35,7.2,2.2,14.6-2.4,21.2-5.27,7.56-12.11,11.67-21.81,11.53-24-.34-47.9-.11-71.85-.11Z"/><path class="cls-35" d="M3503.39,3400c-22.63,0-45.27.15-67.9,0-18.4-.16-29.92-8.3-35.38-26-3.49-11.34-5.66-23.11-8-34.78q-9.64-48.64-18.78-97.38a88.25,88.25,0,0,1-1.26-19.82c.59-13.8,7.41-20.68,20.85-21.94,2.65-.25,5.33-.12,8-.12,44.6,0,89.2-.07,133.8,0,18.2,0,33.21,11.55,37.35,29,4.87,20.59,8.84,41.36,12.24,62.27,3.72,22.84,8.67,45.48,13.6,68.1a70,70,0,0,1,2.06,15.71c-.15,15.35-9,24.66-24.71,24.86C3551.32,3400.26,3527.35,3400,3503.39,3400Z"/><path class="cls-35" d="M3825.08,3200c21.3,0,42.66.9,63.9-.23,25.63-1.38,37.28,12.33,42.67,35.61,4.91,21.24,8.18,42.85,12.2,64.3,3.16,16.91,5.59,34,9.81,50.66,2.54,10,2,19.76,2.41,29.67.47,11.66-4.49,15.35-14.39,18.59-4.89,1.61-10.49,1.42-15.76,1.43q-63.93.15-127.84,0c-24.66-.06-36.94-9.46-42.21-33.41-7.53-34.23-15.29-68.42-20.22-103.18-1.48-10.45-4.82-20.62-6.78-31-1.77-9.36-1.95-18.45,6.31-25.73,4.73-4.18,9.52-7,16-6.73,4,.2,8,0,12,0Z"/><path class="cls-35" d="M4539.64,3200c22.63,0,45.25-.13,67.88,0,19.73.15,29.85,8.37,37,26.87,3.91,10.19,3.93,20.84,5.84,31.16,5.9,31.85,14.33,63.23,18.19,95.49.93,7.81,4,15.33,3.56,23.48-.76,13-9.59,22.36-22.65,22.92-10,.43-20,.13-30,.13-36.6,0-73.2.07-109.8,0-18.92-.06-31.23-8.69-37.69-26.23-1.59-4.34-3.2-8.84-3.71-13.39-2.91-25.69-9.6-50.65-14.18-76-3.05-16.91-6.6-33.73-9.73-50.62a48.64,48.64,0,0,1-.38-10c.34-14.19,9.25-23.51,23.78-23.73C4491.72,3199.7,4515.68,3200,4539.64,3200Z"/><path class="cls-7" d="M5424.17,3552.57c1,5.85,2.52,11.67,3,17.56,1.92,24.37,3.38,48.78,5.29,73.15s4.19,48.7,6.21,73a58,58,0,0,1-.4,7.87,68.49,68.49,0,0,1-23.51,3.56c-40.64-.18-81.29,0-121.93-.15-5.27,0-10.74-.25-15.76-1.65-16.39-4.57-25.49-16.1-28.87-32.41-2.7-13-5.19-26-7.74-39q-9.37-47.87-18.73-95.73c-3.14-16,4.94-29.42,20.59-33.38a49.54,49.54,0,0,1,11.88-1q64-.1,127.93.05a43.74,43.74,0,0,1,13.67,2c9.62,3.26,18.34,7.92,22.81,18C5419.89,3547.4,5422.28,3549.87,5424.17,3552.57Z"/><path class="cls-35" d="M4379.81,2560.7c2.92,3.05,6.71,3.37,10.61,3.36l28.8,0c3.24,8.47-6.51,8.11-8.49,12.85,11.17-8.15,22.37-16.77,37.19-18,66.24-1.68,74,4.5,87.21,70.24,2.49,12.36,5.73,24.59,7.09,37.16,0,6.64-4,10.9-8.85,14.65-48.24,37.09-100.68,65.77-160.32,79.92-6.21,1.48-12.92,4.11-19-1.1-7.05-9.93-10.7-21.35-12.95-33-6.9-35.73-14.3-71.37-20.11-107.31C4333.3,2592.57,4352.53,2572.61,4379.81,2560.7Z"/><path class="cls-36" d="M5128.72,2471.23l-68.5,13.28c-14.49,5.16-18.16-9.31-28.19-15.94-2.65,9.52,4.14,22.91-9.34,26.64-9.92,2.75-20.22,6.46-30.72,1.57q-81,14.94-162.11,29.85a91.88,91.88,0,0,1-9.85.77c-13.24-18.86-17.41-39.42-11.55-61.85,45.12-8.55,90.25-17,135.35-25.69,13-2.51,26.41-3.5,38.7-9.3a24.64,24.64,0,0,1,9.63-2.36c32.86-.84,64.33-10.22,96.5-15.23,11.8-1.84,23.29-6.09,35.49-5.14,12.81,18.36,15.55,38.73,12,60.34l.07-.07C5134,2469.86,5131.06,2469.84,5128.72,2471.23Z"/><path class="cls-7" d="M5040.22,2575.88c2.65,2.9,5.57,5.61,7.92,8.74,40.82,54.27,83.38,107,132,154.61q14.22,13.91,28.39,27.85c-35.16.19-70.33.82-105.48.41-21.09-.25-34.84-11.87-39.26-32.54-5.82-27.14-10.69-54.47-16-81.7-3.33-16.86-6.69-33.71-10.27-50.51C5035.52,2593.42,5034.65,2584.36,5040.22,2575.88Z"/><path class="cls-37" d="M4356.19,2758.5c22.67-2.55,44-9.83,65-18.34a472.71,472.71,0,0,0,116.66-68.59,15.13,15.13,0,0,0,2.34-3.17c10.89-19.24,31.1-30.07,43.26-48.48,9.22-14,18.06-27.87,23-43.84,7.43-24.19-3.25-39.88-29.27-42.39-31-3-60.79,3.66-89.6,14.58-14.89,5.64-29.53,11.87-45.11,15.41-11.65,3.24-21,10.58-30.63,17.33-3.72,2.59-6.93,6.23-11.78,6.73a4,4,0,0,1-3.23-1.44,3.81,3.81,0,0,1,0-3.55,51.41,51.41,0,0,1,6.93-6.83c5.08-4.09,10.35-8,15.54-11.9,21.39-10.56,42.34-22,65.07-29.72,29.13-9.86,58.67-16.77,89.72-15,8,.45,15.81,1.5,23.34,4.48,19.12,7.56,28.89,23.85,25.77,44.24-2.54,16.65-9.18,31.79-18.43,45.82a258.06,258.06,0,0,1-49,54.68c-5.53,4.7-10.72,9.81-16.06,14.73-10,16-26.55,24.14-41.75,33.26-40.53,24.29-81.83,47.23-130.53,50.77-16,.95-31.86,2.7-47.9,1.44-12.24-1-23.59-4.28-33.57-11.51-13.1-9.5-20.61-22.33-22.24-38.51-1.72-17.09,2.15-33.08,9.59-48.35,9.11-18.68,21-35.52,34.24-51.45,4.25-5.11,8.38-10.3,12.56-15.46,10.43-16,23.34-29.42,39.74-39.35,13.77-11.22,27.46-22.53,41.32-33.61,6.68-5.34,12.83-6.62,13.28-3.32.81,5.92-4.47,7.4-7.76,10.27-8.89,7.8-17.83,15.53-26.76,23.29a331.57,331.57,0,0,0-56,54.83c-6.1,17.17-20.89,28.73-28.82,44.78-3.5,7.07-8.31,13.48-11.21,20.92-17.38,44.67,1.33,72.62,49.26,73.59C4340.92,2755,4349,2753.92,4356.19,2758.5Z"/><path class="cls-38" d="M3244.14,2572q84.89,0,169.77,0a119.68,119.68,0,0,1,17.88.89c4.16.63,6.89,3.83,7.44,8.29a9.64,9.64,0,0,1-7.72,10.13,76.59,76.59,0,0,1-11.93.68q-177.75,0-355.52,0a55,55,0,0,1-13.73-1.58c-3.29-.86-5.29-3.92-5.57-7.54-.36-4.52,1.9-7.7,5.86-9.43,5.7-2.48,11.82-1.38,17.76-1.39Q3156.26,2572,3244.14,2572Z"/><path class="cls-39" d="M3253.05,2619.88q87,0,174,0a100,100,0,0,1,17.83,1.24c5.88,1.07,7.29,8,3.18,12.54-3.29,3.62-7.07,6-12.08,6.1-4.66.06-9.33.12-14,.12q-170,0-339.93,0c-5.32,0-10.68.06-16-.47-5.1-.52-8.39-3.55-9.46-8.8s1.65-9.86,6.54-10.24c6-.47,12-.49,18-.5Q3167.07,2619.85,3253.05,2619.88Z"/><path class="cls-3" d="M2968.44,2648.68c-8.67,0-17.35.29-26-.08-11.42-.48-16.16-3.65-18.61-14.31q-6.51-28.2-11.39-56.75c-1.61-9.32,2.55-14.05,12-14.23q29-.57,58,0c9.56.2,14.77,4.65,16.76,14.08,4.12,19.53,7.81,39.16,11.31,58.81,1.17,6.58-3.12,11.75-10.1,12.06-10.64.48-21.31.13-32,.13Z"/><path class="cls-35" d="M4367.31,2767.25c12.63-3.84,25.39-7.29,37.86-11.59,44.29-15.28,84.88-37.59,122.73-65.07,3.72-2.7,7.78-4.93,11.69-7.37,3.22,16.9,5.67,34,10,50.62,2.1,8,1,14.25-3,20.67-4.54,7.19-11.57,10.91-19.49,12.9-3.15.8-6.62.5-9.94.5q-70.94,0-141.87-.07C4372.62,2767.83,4370,2767.45,4367.31,2767.25Z"/><path class="cls-8" d="M5243.61,2632.6c-3.5-1.73-7.22-3.13-10.48-5.24q-44.82-29.06-89.5-58.36a31.85,31.85,0,0,1-4.24-4c19.2-.22,38.4-.8,57.59-.56,19.8.24,37.07,11.38,41.26,33.08C5240.48,2609.09,5245.17,2620.42,5243.61,2632.6Z"/><path class="cls-40" d="M4992,2496.78c9.66-1.76,19.33-3.48,29-5.31,5.43-1,7.56-4.25,6.4-10.09-1.28-6.37-4.63-12.41-3-19.21.45-1.91,1.1-3.94,3.53-4.05,1.22,0,2.89,0,3.62.78,3.19,3.25,6.22,6.68,9.11,10.2,5.42,6.6,10.42,13.69,19.66,15.41,2.18,11.61,2.2,23.67,7.2,34.7a35.74,35.74,0,0,1-5.8.44c-15.69-1.37-29.33,3.4-41.27,13.46C5004.25,2526.19,4998,2511.59,4992,2496.78Z"/><path class="cls-41" d="M5136.1,2468.17l-12-60.34c6.51-3.91,13.73-4.12,21-4,9.74.14,15.86,5.15,19,14.22a73.74,73.74,0,0,1,4.25,25.09c-.14,13.53-7.24,22.25-20.48,24.58C5144,2468.38,5140,2468,5136.1,2468.17Z"/><path class="cls-42" d="M4808.46,2465.55c3,20.77,6.09,41.54,11.55,61.85-12.5-.28-24.21-4.28-36.05-7.66-6.71-11.2-10.37-22.74-3.93-35.39A105.75,105.75,0,0,1,4808.46,2465.55Z"/><path class="cls-43" d="M4780,2484.35c1.74,11.75,5.29,23.29,3.93,35.39-13.75-.93-26.82-4.93-40.23-8.24C4749.16,2502.53,4757.62,2496.26,4780,2484.35Z"/><path class="cls-44" d="M4359.73,2564.06a413.46,413.46,0,0,1-39.74,39.35c0-2.61,0-5.21.09-7.82.56-17.66,10.66-29.12,27.93-31.34C4351.86,2563.76,4355.82,2564.1,4359.73,2564.06Z"/><path class="cls-41" d="M5128.72,2471.23c1.8-2.67,4.49-3.21,7.45-3.13C5134.58,2471.26,5132,2472,5128.72,2471.23Z"/><path class="cls-25" d="M2503.78,4263.62c-13-7.8-27.63-12.45-40.35-21.19-10.64-7.3-20.26-15.62-27.82-25.53-16.6-21.77-29.42-45.14-32.45-73.67-1.57-14.7-2.63-28.4.17-43.13,2.45-12.87.57-26.56.7-39.89.08-9.29-.26-18.47,2.84-27.65,1.84-5.45.89-11.86,1.11-17.84.63-16.55-1.14-33.1,3.37-49.6,2.21-8.08.42-17.23.68-25.88.44-15.23-.44-30.34,3.11-45.62,2.65-11.41.71-23.88.88-35.87.11-8-.24-15.84,2.41-23.71,1.64-4.88,1.41-10.49,1.5-15.78.2-12,.05-24,.1-36,0-4-.75-8.33.5-11.92,4.76-13.64,3.17-27.65,3.47-41.57.24-11.27-.77-22.55,3.19-33.6,1.5-4.18.61-9.23.8-13.89.84-20.52-1.33-41,3.38-61.59,2.62-11.41.57-23.89.64-35.89,0-7.31.07-14.5,2.4-21.71,1.59-4.91,1.42-10.49,1.51-15.78.21-12,.06-24,.11-36,0-4-.76-8.33.49-11.93,4.76-13.63,3.18-27.64,3.48-41.56.24-11.26-.69-22.52,3.15-33.61,1.66-4.81.65-10.56.84-15.88.72-19.86-1.44-39.75,3.45-59.58,2.33-9.44.44-19.9.58-29.9s-.32-19.77,2.9-29.64c2-6.09.8-13.2,1.08-19.85.77-18.53-2.08-37.23,3.55-55.56,1.51-4.89.29-10.59.46-15.92.5-15.89-.42-31.66,3.16-47.62,2.71-12.07.68-25.2.86-37.86.15-10.61-.82-21.22,3.06-31.62,1.55-4.15.72-9.22.89-13.87.66-17.88-1.67-35.85,3.55-53.57,1.81-6.16.27-13.26.49-19.92.57-17.21-1.8-34.56,3.52-51.56,1.52-4.88.29-10.59.47-15.92.52-15.89-.44-31.66,3.15-47.62,2.72-12.07.68-25.2.87-37.86.15-10.6-.83-21.22,3-31.62,1.55-4.16.73-9.22.9-13.87.67-17.88-1.69-35.85,3.54-53.58,1.82-6.14.28-13.25.5-19.91.57-17.21-1.71-34.53,3.48-51.57,1.68-5.51.34-11.92.51-17.91.43-15.23-.24-30.32,3.14-45.62,2.68-12.09.68-25.2.88-37.86.16-10.6-.85-21.22,3-31.62,1.56-4.16.73-9.22.91-13.87.68-17.88-1.7-35.85,3.54-53.58,1.82-6.14.28-13.25.5-19.91.57-17.21-1.71-34.53,3.47-51.57,1.68-5.51.34-11.92.52-17.91.45-15.23-.27-30.32,3.13-45.62,2.7-12.09.68-25.21.89-37.86.17-10.6-.75-21.18,3-31.63,1.72-4.78.76-10.54.95-15.86.64-17.21-1.47-34.49,3.5-51.59,2-6.77.33-14.57.54-21.9.48-16.55-1.54-33.19,3.46-49.57,1.68-5.51.34-11.92.53-17.91.47-15.23-.75-30.38,3.21-45.62,2.44-9.39.58-19.87.8-29.87.31-13.9-1.08-27.84,3.28-41.59,1.74-5.48.58-11.9.66-17.9.13-9.32.19-18.65.28-28,5.38,4.72,3.6,11.09,3.63,16.88.17,38.64.12,77.29.21,115.93,0,8.62-.19,17.14,2.53,25.69,1.76,5.52,1.27,11.84,1.29,17.81.14,31.31.09,62.62.17,93.94,0,8-.06,15.81,2.37,23.71,1.71,5.56,1.42,11.83,1.45,17.78.16,28,0,56,.18,83.95.06,12.59-.91,25.2,3.16,37.6,1.6,4.85.68,10.57.7,15.89.07,29.32,0,58.63.15,87.95.07,11.92-.88,23.86,3.07,35.61,1.62,4.84.76,10.56.77,15.88q.12,51,.15,101.94c0,8,0,15.81,2.47,23.69,1.71,5.56,1.33,11.84,1.36,17.81.14,32,.11,64,.16,95.94,0,7.31.19,14.48,2.32,21.71,1.64,5.6,1.48,11.83,1.51,17.78.16,29.32,0,58.63.2,87.95.07,12.58-1,25.2,3.11,37.6,1.61,4.84.71,10.57.73,15.89.08,24-.08,48,.15,72,.16,15.23-1.52,30.56,3.36,45.56,1.39,4.25.48,9.26.49,13.92.06,28,0,56,.15,83.95.09,13.91-1.14,27.87,3.25,41.58,1.56,4.87.59,10.58.6,15.9.07,28,0,56,.16,83.95.08,13.25-1.15,26.54,3.15,39.6,1.6,4.85.67,10.57.69,15.89.07,29.32,0,58.63.15,87.95.06,11.92-.85,23.85,3.08,35.61,1.61,4.84.75,10.56.76,15.88.09,31.31.08,62.63.14,93.94,0,8,.07,15.81,2.49,23.7,1.71,5.55,1.32,11.84,1.34,17.8.14,34,.1,68,.19,101.94,0,8-.11,15.81,2.31,23.71,1.71,5.57,1.46,11.83,1.5,17.78.16,26.65,0,53.3.19,79.95.08,12.59-1,25.2,3.12,37.61,1.61,4.84.7,10.56.72,15.88.08,27.32-.09,54.64.18,81.95.16,15.89-1.68,31.91,3.36,47.57,1.37,4.25.46,9.26.47,13.92.05,22.65,0,45.31.1,68,.16,29.7,10.45,56.88,27.68,79.73,16.66,22.09,36.85,42.26,65.24,50.51,1,.29,1.68,1.78,2.41,2.59C2673.16,4264.79,2600.53,4265.7,2503.78,4263.62Z"/><path class="cls-45" d="M5532.54,2356.1q-.55-11.8-1.1-23.6a11.1,11.1,0,0,1,8.61-4.28c4.66-.11,9.32-.32,14-.11,15.44.69,30.5-.67,44.83-7.09,1.58-.71,3.76-.1,5.55-.1,1.45,4.45-1.7,6.37-3.88,8.5-15.78,15.47-33.1,28.63-54.39,35.67-6.7,2.22-6.71,2.08-11.11-5.93A22.44,22.44,0,0,0,5532.54,2356.1Z"/><path class="cls-19" d="M4442.43,2563.68c25.59-16.41,54.17-24.88,83.41-31.71,15.71-3.67,31.57-4.58,47.62-4.09a60.86,60.86,0,0,1,23.23,5.28c13.06,5.86,19.81,18.3,17.77,32.57-2.4,16.83-9.23,32-18.88,45.78-15.37,21.9-32.9,41.85-55.39,56.89-6.56-5.91-5.49-14.69-7.44-22.05-4-15.23-6-31-8.86-46.54a43.75,43.75,0,0,0-41.7-35.69C4468.94,2563.8,4455.68,2563.81,4442.43,2563.68Z"/><path class="cls-19" d="M4356.19,2758.5c-12.52,2.83-25.21,2.46-37.8,1.25-14.38-1.39-27-6.79-36.38-18.47-9.9-12.37-11.84-26.65-9-41.58a93,93,0,0,1,7.3-22.74c11-22.93,24.47-44.2,43.56-61.44,5.14,11,5.65,23.09,8.08,34.71,5.54,26.56,11.13,53.13,15.53,79.9C4349.09,2740.18,4356.69,2748,4356.19,2758.5Z"/></g></g></svg>