<svg xmlns="http://www.w3.org/2000/svg" viewBox="0 0 2000 2000"><defs><style>.cls-1{fill:#fafafa;}.cls-2{fill:#37474f;}.cls-3{fill:#e5e5e5;}.cls-4{fill:#27ddbe;}.cls-5{fill:#263238;}.cls-6{fill:#dfdfdf;}.cls-7{fill:#23c6ab;}.cls-8{fill:#e7e8e8;}.cls-9{fill:#455a64;}.cls-10{fill:#465a64;}.cls-11{fill:#f9f9f9;}.cls-12{fill:#f8f8f8;}.cls-13{fill:#fefefe;}.cls-14{fill:#aeb5b7;}.cls-15{fill:#f8f9f9;}</style></defs><title>Asset 12</title><g id="Layer_2" data-name="Layer 2"><g id="Layer_1-2" data-name="Layer 1"><path class="cls-1" d="M.09,999.5Q.09,502,0,4.59C0,.84.84,0,4.59,0Q1000,.15,1995.41,0c3.75,0,4.59.84,4.59,4.59q-.15,995.42,0,1990.82c0,3.75-.84,4.59-4.59,4.59q-995.42-.15-1990.82,0c-3.75,0-4.59-.84-4.59-4.59Q.15,1497.46.09,999.5Z" transform="translate(0 0)"/><path class="cls-2" d="M1185.05,686.48c-.08,1.83-.22,3.66-.22,5.49q0,335.44,0,670.89c0,3.18-.37,5.37-3.61,7.24q-104,59.79-207.9,119.86c-2.61,1.5-5.19,3-8.35,2.83-2.51-2.71-3.39-6-3.59-9.62-.14-2.66-.09-5.33-.09-8q0-421.32,0-842.64c0-4.67-.17-9.37.87-13.93,1.14-5-.67-8.36-5.12-10.61a24.17,24.17,0,0,1-5-3.22c-2-1.71-1.33-3.43.09-5.06,3.29-3.76,7.12-6.67,12.23-7.46,19.46-11.14,39-22.23,58.38-33.43q72.13-41.61,144.2-83.35c2.3-1.34,3.94-1,6.36-.08,9.38,3.47,13.08,9.52,11.71,19.66-.93,6.85,0,13.95,0,20.94,1.75,1.73,1.47,4,1.47,6.11,0,18.65,0,37.31,0,56a16.72,16.72,0,0,1-4.19,11.4c-6.25,7.36-12.68,14.57-18.92,21.94-1.36,1.59-3.23,2.93-3.34,5.74,5.82.69,11.63.22,17.41.32,8.06.14,9,.95,9,8.85,0,17.65,0,35.31,0,53C1186.53,681.79,1186.58,684.3,1185.05,686.48Z" transform="translate(0 0)"/><path class="cls-3" d="M964.36,592.26c-4.36,3.63-10.64,4.91-13.13,10.81.21,5-.61,9.9-.6,14.89q.12,118.31,0,236.61a57.37,57.37,0,0,1-.33,9.45c-.56,3.24-3.3,4.41-5.72,5.8-29.57,17-59,34.18-88.61,51.13-7.5,4.3-15,8.61-22.38,13.13-27.8,15.69-55.35,31.84-83,47.76-6.2,3.56-12.32,7.27-18.67,10.55-2.12,1.1-4.69,2.71-6.12-1.09a27.61,27.61,0,0,1-.48-7q0-64.17,0-128.34c0-2,.27-4,.14-6a81.76,81.76,0,0,1-.13-9q0-90.72,0-181.44c0-4,0-8,.2-12-.35-6.86.21-13.73-.34-20.58.24-5.09.31-10.18.27-15.27,0-2.33.11-4.61,1.53-6.6,0-31.66.47-63.33-.19-95-.24-11.85,4.65-18.81,14.41-24.3,27.77-15.62,55.31-31.67,82.95-47.52,18-10.31,36-20.54,54-30.89,21-12.1,41.94-24.32,62.93-36.44q39.46-22.78,79-45.47c17.7-10.2,35.59-20.1,53.08-30.65,24.74-14.93,50.08-28.83,75-43.41,18.61-10.89,37.16-21.91,55.83-32.71,15.51-9,31.17-17.72,46.75-26.59q14.7-8.37,29.37-16.8c7.25-4.15,16-2,19.48,4.58.77,1.46,1.22,2.56-.73,3-10.43,2.12-18.3,9.17-27.2,14.16-20.88,11.67-41.48,23.82-62.2,35.77q-33.89,19.54-67.78,39.07-31.51,18.17-63,36.32c-15.39,8.89-30.72,17.89-46.1,26.78q-27.82,16.1-55.68,32.11c-3.89,2.24-7.7,4.62-11.62,6.8A4.1,4.1,0,0,0,963,378c0,8.84.08,17.67,0,26.5,0,3.68,1.48,4,4.24,2.41q34-19.83,68-39.64c19.4-11.24,38.9-22.32,58.32-33.52,17.56-10.12,35.06-20.34,52.62-30.45s35.5-20.24,53.19-30.46c17.11-9.88,34.13-19.92,51.22-29.86,5.88-3.43,11.87-6.68,17.74-10.13,3.43-2,4.75-1.21,4.68,2.77-.13,7.5,0,15,0,22.5,0,45.32-.09,90.65.13,136,0,5.57-2.25,8.34-6.75,10.87-18.68,10.5-37.19,21.29-55.76,32L1148,473.05l-62.6,36.07q-30.42,17.57-60.84,35.13c-18.87,10.85-37.79,21.59-56.62,32.5C962.44,579.93,961.18,586.05,964.36,592.26Z" transform="translate(0 0)"/><path class="cls-4" d="M727.1,992.91c3.37-.15,5.78-2.41,8.48-4q46.76-26.9,93.45-53.89c1.29-.75,2.66-1.34,4-2,1.52,1.38,1.51,3.26,1.61,5.09.12,2.33.06,4.66.06,7q0,229.73,0,459.45a105.87,105.87,0,0,0,.61,13c.69,2-.73,2.75-2.17,3.45q-69.21,39.87-138.42,79.76-106.61,61.52-213.18,123.08c-5.34,3.08-5.37,3-5.37-3q0-115.95-.05-231.92c0-2.05.9-4.34-.94-6.16.08-1.33.91-1.16,1.79-.88,1.82,1.7,1.54,4,1.54,6.09q.06,110,0,219.94c0,2.3-.62,4.53-.53,6.38.69-6.72,2.68-13.61,4.28-20.57,9-39.13,18.11-78.23,27.09-117.36q18.18-79.15,36.49-158.28,11.61-50.4,23.29-100.79c11.16-48.55,22.78-97,33.47-145.65,1.26-5.75,3.79-9.77,9.1-12.81,28.47-16.31,56.78-32.91,85.32-49.1,7.53-4.27,14.82-9,22.44-13.11C722,995.25,724.31,993.62,727.1,992.91Z" transform="translate(0 0)"/><path class="cls-2" d="M476.08,1382l-.91.79-188.86,109v-14.84a4.63,4.63,0,0,0,.65-1.49c0-9.13.92-18.2,1.7-27.28,1.12-14.56,2.63-29.09,3.74-43.64,1.3-17.08,3.06-34.11,4.35-51.19,1.18-15.58,2.81-31.15,4.18-46.72,1.21-13.59,2.5-27.17,3.68-40.76,1.5-17.4,2.85-34.81,4.61-52.19,1.31-12.9,2.28-25.85,3.38-38.78,1.49-17.41,3.1-34.8,4.57-52.2,1.15-13.43,2.47-26.84,3.47-40.28,1.29-17.25,3-34.47,4.49-51.71,1.43-16.74,3.21-33.45,4.57-50.21,1.42-17.57,3-35.14,4.55-52.7,1.51-16.9,3.27-33.79,4.31-50.73.31-5.16,2.2-8.67,6.75-11.29q63.22-36.42,126.42-72.87,70.51-40.75,141.09-81.43c29.41-17,58.91-33.87,88.23-51,6.47-3.78,13.06-7.35,19.52-11.16,1.91-1.12,3.8-2.88,6.41-2,.07,1.33.22,2.65.22,4q0,97.69,0,195.38c0,1.16-.14,2.32-.22,3.48a9.6,9.6,0,0,1-4,3.66C703.86,864.89,684.72,876,665.47,887c-6.5,3.69-7.83,3.24-10.39-4-4.44-12.57-8.64-25.21-13.06-37.78-2.15-6.13-2.44-6.33-7.86-3.22-50.68,29.12-101.22,58.51-151.93,87.58-3.27,1.87-4.92,4.27-4.69,8,.11,1.82,0,3.66,0,5.49q0,214.87,0,429.75C477.51,1375.9,478.39,1379.21,476.08,1382Z" transform="translate(0 0)"/><path class="cls-4" d="M1185.05,686.48c-.07-20.63-.28-41.26-.08-61.89,0-4.6-1.2-6-5.8-5.79-7.56.38-15.15.11-23.52.11,3.48-5.74,7.74-9.67,11.39-14.06,4.78-5.76,9.67-11.43,14.74-16.92a11.58,11.58,0,0,0,3.13-8.54c-.05-21.13.06-42.26.12-63.39q60.33-34.77,120.67-69.53,91.46-52.77,182.89-105.61c1-.58,2.06-1.11,3-1.73,2.1-1.33,3.39-1.3,3.18,1.7-.08,1.16,0,2.33,0,3.5,0,52.64-.06,105.28.11,157.93,0,4.23-1.27,6.46-4.91,8.55q-150.33,86.59-300.54,173.39C1188,685,1186.52,685.72,1185.05,686.48Z" transform="translate(0 0)"/><path class="cls-5" d="M287,1477l-.37,0h-.36c-.09-1.65-.24-3.31-.24-5q0-335.37-.09-670.73c0-3.65,1.1-5.53,4.24-7.33q77.8-44.73,155.45-89.77c3.66-2.13,5.12-2.4,6.63,2.32,4.58,14.39,9.9,28.54,14.62,42.89,1.31,4,2.28,4.68,6.19,2.41q124.68-72.24,249.52-144.21c1.44-.82,2.91-1.59,4.36-2.38.07,6.09.11,12.19.24,18.28a4.47,4.47,0,0,1-1.31,3.54c-.42,1.86-2,2.56-3.43,3.38Q623.9,687,525.54,744c-60.15,34.77-120.42,69.33-180.42,104.34-5.47,3.19-11,6.23-16.55,9.31-3.38,1.89-4.88,4.51-5.1,8.45-1.2,21.42-2.6,42.84-3.67,64.26-.72,14.45-1.7,28.9-2.41,43.36-1,19.93-2.26,39.85-3.58,59.76-.94,14.27-1.75,28.56-2.32,42.86-.58,14.46-1.81,28.88-2.68,43.33-.42,7-.92,14-1.18,20.92-.89,23.11-2.83,46.16-3.92,69.25-.64,13.46-1.52,26.91-2.32,40.36-.85,14.27-1.41,28.56-2.56,42.83-.58,7.28-1,14.61-1.25,21.92-.48,15.81-1.94,31.54-2.82,47.32q-.6,11-1.17,21.93c-.8,15.76-2,31.49-3.34,47.21-.41,5-.06,10-.95,14.92C288.69,1456.58,288,1466.78,287,1477Z" transform="translate(0 0)"/><path class="cls-6" d="M1524,704c.2-2.45-1.19-6,.67-7.11,2.31-1.38,4.64,1.58,6.89,2.88q22.64,13.11,45.3,26.17c9.21,5.31,18.55,10.41,27.61,16,3.16,1.94,5.55,1.22,8.23-.33q44.43-25.68,88.85-51.38,49.13-28.5,98.24-57c2.21-1.27,4.75-3.86,7.15-2.52s.91,4.59.93,7c.1,13.67,0,27.33.06,41,0,5.73,1.09,6.44,6.1,3.81,3.52-1.85,6.86-4,10.26-6.09,2.91-1.76,3.42-.63,3.73,2.36.49,4.72-1.67,7.33-5.46,9.5-27.8,15.94-55.42,32.2-83.38,47.84-13,7.28-25.4,15.62-38.59,22.56-2.69,1.41-3.53,3.4-3.74,6.41-.74,10.5-1.85,21-2.81,31.47-.26,2.87-.52,5.78,2.68,7.38,2.55,1.27,5.76,4,5.27-2.2-.08-1,0-2.47,1.28-2.19,1.86.4,4,.9,4.57,3.27a16.77,16.77,0,0,1,.12,3.48q0,50.75,0,101.48c0,1.62,1.11,4.51-1.17,4.62a4.58,4.58,0,0,1-4.71-4.27c0-2.34-1.14-3.51-3.07-4.61-11.72-6.62-23.45-13.22-35-20.16-3.79-2.28-6.87-2.26-10.55,0q-10.46,6.27-21.21,12.07c-3.58,1.93-5.55,4.25-5.33,8.61.33,6.49.06,13,.11,19.5,0,1.6-.51,3.38,1.07,4.65a1.65,1.65,0,0,1-1.41,1.78c-7.42,1-14.41,3.93-21.86,4.74-4.1-4-3.84-9.53-5.18-14.49-.43-1.57-.11-3.32-.11-5V755.71c0-1.83,0-3.66.07-5.5.24-5.67-.23-4.46-5.36-6.43-5.41-2.07-10.35-5.16-16.38-5.57-1-.07-1.85-1.8-1.07-2.89,1.75-2.44.3-3.19-1.69-3.61-2.9-.62-4.83-2.81-7.07-4.45-3,4-4.6,4.46-7.84.92-3.45-3.77-8.37-6-10.74-10.94-1-2.09-3.48-2.78-6.1-2.47-8.21.94-8.76.68-11-6.92C1530.92,703.08,1527.44,703.79,1524,704Z" transform="translate(0 0)"/><path class="cls-6" d="M1524,704c1.85-1.21,3.38-3.38,6.09-1.82a6.93,6.93,0,0,1,4,6.34c.12,4.92,3.33,6.8,8.23,5.19,4.43-1.45,7,1.24,9.52,4.8a34.44,34.44,0,0,0,12.64,10.68c2.62,1.27-.46-2.93,1.64-4.82,4.63,3.71,10.42,6.11,15.72,9.2-1.18,2.49-4.82-.58-4.32,2.63.41,2.61,3.17,2.08,5,1.42,3.66-1.33,6,.27,8.25,2.85,1.69,2,1.69,1.76,4.26.85,1.94-.69,3.36,1,5,1.74a2.59,2.59,0,0,1,1.61,3.65c-1,2.42-.58,4.93-.59,7.4q0,82.14,0,164.29c0,5.58,2.83,10.36,4,15.59.15,2.36-2,2.41-3.32,3-28,13.22-47.78,34.71-62.2,61.65-1.07,2-1.22,5-4.46,5.3a7.1,7.1,0,0,0-4.63-3.56c-6-1.39-6.47-5.36-6.47-10.53Q1524.05,847,1524,704Z" transform="translate(0 0)"/><path class="cls-5" d="M948.65,866.08c.06-2.16.18-4.32.18-6.48q0-122.79,0-245.58c0-3.82-.21-7.69,2.39-10.95,2.79,1.44,5.51,3,8.38,4.31,6.26,2.79,5,8,4.06,12.88a35.15,35.15,0,0,0-.65,6.91q0,426.87-.13,853.76c0,4.23,1.94,7.83,2.12,11.86-5.22.79-9.36-1.25-12.91-4.88-3-1.78-4.08-4.67-4.51-7.92a58.16,58.16,0,0,1-.25-7.47q0-56.08,0-112.18c0-1.82,0-3.65.17-5.47a48,48,0,0,1-.2-5.49q0-236.25,0-472.51C947.31,873.22,946.94,869.52,948.65,866.08Z" transform="translate(0 0)"/><path class="cls-7" d="M1535,1004c7.16-13.13,14.8-25.94,24.79-37.19,12.66-14.25,27.94-24.88,45.19-32.8,7.46-2.91,15.32-4.29,23.1-5.93,5.81.08,11.6,0,17.32,1.46,17.29,4.52,24.71,18.38,18.68,35.21-4.33,12.08-12.73,20.85-23,28-4.61,3.24-9.36,6.29-14,9.42-1.17,1.91-3,3-4.83,4.19-18,11.39-35.46,23.59-51.28,38a20.56,20.56,0,0,0-3.92,5.13c-12.65,11.61-25.19,23.32-35,37.55-1.32,1.91-2.49,3.91-3.81,5.8-1,1.4-1.62,3.42-4,3.1-.06-9.16-.78-18.38,0-27.47s5.23-17.13,9.35-25.07c21-40.51,51.85-71.33,91.87-93.07a64.85,64.85,0,0,1,13.86-5.58c1.35-.38,3.29-.73,2.64-2.85s-2.28-1.43-3.76-1a76.66,76.66,0,0,0-18.76,8c-41.81,24.2-73.91,57.37-93.72,101.83-.32.72-.69,1.42-1.2,2.44-1.75-14.78-.67-28.66,7-41.48A78.73,78.73,0,0,0,1535,1004Z" transform="translate(0 0)"/><path class="cls-6" d="M948.68,1354.65q.08,50.22.16,100.45c0,6.16.18,12.33-.05,18.49a25.23,25.23,0,0,0,3.31,14.32c-8.24-2.43-14.93-7.82-22.29-11.88-16.55-9.1-32.79-18.77-49.14-28.23q-20.64-11.94-41.25-23.93c-2-1.17-3.92-2.5-6.29-2.87l2-2c.41-1.89,2.08-2.46,3.5-3.26,27.76-15.67,55.36-31.59,83-47.51,7.33-4.22,14.66-8.46,22-12.61C945.17,1354.77,946.71,1353.53,948.68,1354.65Z" transform="translate(0 0)"/><path class="cls-8" d="M1565.64,1049.57c1.69-4.86,6-7.38,9.57-10.51,15.92-14.14,33.47-26,51.78-36.84.15,6.41,1.31,7.07,6.93,3.8,15.92-9.28,31.78-18.67,47.75-27.85q48.78-28,97.7-55.82c5.79-3.29,9.25-6.86,8.76-14.39-.78-12.11-.13-24.31-.26-36.47,0-3.15.77-5.38,3.71-6.91,4.11-2.15,8.12-4.53,12.08-7,3.77-2.31,4.32-.65,4.3,2.9-.09,21.32-.16,42.64.07,64,0,3.68-1.6,5.48-4.31,7-8.47,4.92-16.92,9.87-25.42,14.75-18.72,10.75-37.49,21.41-56.18,32.21q-42.86,24.78-85.62,49.71c-1.14.66-2.51,1.08-2.56,2.74-1.15.68-2.26.22-3.35-.17-14-5-27.2-2.38-39.93,4.15a139.93,139.93,0,0,0-20.12,12.93C1569.1,1048.94,1567.74,1050.31,1565.64,1049.57Z" transform="translate(0 0)"/><path class="cls-4" d="M1565.64,1049.57c9.51-6.62,18.65-13.88,29.48-18.29,12.82-5.22,25.82-7.17,38.82-.34,13.39,10.34,10.27,24.34,1.67,33.94-6.77,7.58-15.4,12.62-24.21,17.36-16.39,8.82-33.35,16.61-49,26.79s-30.24,21.2-37.94,39.85c-1.77-15.43-.43-29.09,8.45-41.8,20.84-29.84,48.65-49.58,83.38-59.89,1-.29,1.94-.46,2.89-.74,1.25-.37,2.08-1.09,1.7-2.54-.34-1.28-1.51-1.36-2.41-1.16a88.09,88.09,0,0,0-10.6,2.73c-35,12.73-63.66,33.49-82.41,66.46-.23.4-.56.75-1.34,1.79V1096c4-5.48,7.68-11.13,11.89-16.4a163.62,163.62,0,0,1,22.89-24C1561.2,1053.6,1562.39,1050.42,1565.64,1049.57Z" transform="translate(0 0)"/><path class="cls-9" d="M1486.69,874.76c-.61,3.58-2.85,5.73-5.93,7.5-20.49,11.74-40.89,23.61-61.34,35.42l-189.63,109.46c-.73.42-1.43.87-2.18,1.23-2,.93-4.17,3.47-6.11.85-1.72-2.33.08-4.86,1.77-6.69a18.93,18.93,0,0,1,4.47-3.12L1480,873.78C1484.55,871.15,1486.67,871.48,1486.69,874.76Z" transform="translate(0 0)"/><path class="cls-9" d="M1486.7,610.7c-.58,3.83-2.93,5.9-6,7.65q-32.65,18.75-65.23,37.66-93.74,54.11-187.48,108.2a19.41,19.41,0,0,1-3,1.7c-2.94,1-4.57-.47-3.81-3.54.82-3.36,3.4-5.08,6.23-6.71q47.34-27.25,94.6-54.61l157.66-91a20,20,0,0,1,3.52-1.84C1485.5,607.42,1486.57,608.6,1486.7,610.7Z" transform="translate(0 0)"/><path class="cls-9" d="M1486.67,823.9c-.64,3.9-3.48,5.83-6.6,7.62q-46.92,27-93.79,54.15-78.65,45.41-157.34,90.75c-2.18,1.25-5.13,4.85-7.26,1.56-2.27-3.51.81-6.58,4-8.43,16.37-9.56,32.81-19,49.23-28.51q102.42-59.14,204.86-118.27c1.81-1,3.57-2.8,5.92-1.5A2.41,2.41,0,0,1,1486.67,823.9Z" transform="translate(0 0)"/><path class="cls-9" d="M1486.75,687.13c-.71,4-3,6.16-6.08,7.92q-55.8,32.12-111.53,64.37-70.23,40.56-140.51,81.05c-2.15,1.23-5,4.81-7.14,1.17-1.87-3.26.87-6.31,4-8.1q21.36-12.42,42.79-24.73,105.68-61,211.36-122a16.48,16.48,0,0,1,4-2C1485.7,684.3,1486.57,685.64,1486.75,687.13Z" transform="translate(0 0)"/><path class="cls-9" d="M1484,846.12c2.31.51,3,1.86,2.55,3.75-.7,3.15-2.79,5.08-5.54,6.66Q1419.42,892,1357.88,927.6L1229.16,1002a23.21,23.21,0,0,1-2.18,1.21c-1.71.74-3.45,2.9-5.3.76s-.33-4.14.75-6,3.17-2.88,5-4l216.44-125q18.13-10.47,36.29-21C1481.49,847.32,1482.85,846.71,1484,846.12Z" transform="translate(0 0)"/><path class="cls-9" d="M1486.73,797.87c-.51,4-3.17,6.14-6.32,8q-37.83,21.76-75.64,43.6-87.91,50.76-175.87,101.49c-2.14,1.23-5,4.93-7.21,1.65-2.36-3.53.77-6.62,3.89-8.47,12.18-7.18,24.45-14.19,36.69-21.26l217.3-125.5c1-.59,2-1.17,3-1.72C1485.26,794.23,1486.23,795.72,1486.73,797.87Z" transform="translate(0 0)"/><path class="cls-9" d="M1224,792c-2.75-.06-3.26-1.68-2.87-3.73.69-3.64,3.49-5.44,6.44-7.14q47.55-27.42,95-54.89L1479,635.93a2.65,2.65,0,0,1,.42-.26c2.24-.66,4.58-4.49,6.71-.86,1.77,3-.56,5.89-3.12,7.55-5,3.25-10.29,6.11-15.47,9.11Q1347.9,720.59,1228.23,789.7C1226.8,790.52,1225.3,791.25,1224,792Z" transform="translate(0 0)"/><path class="cls-9" d="M1486.73,661.39c-.6,4.59-3.41,6.56-6.53,8.35q-32.65,18.76-65.27,37.6Q1322.08,761,1229.25,814.62a2.39,2.39,0,0,1-.44.24c-2.42.81-5.11,4.69-7.25,1.26s.81-6.36,3.8-8.13c12-7.1,24.14-14.06,36.24-21q108.86-62.85,217.72-125.67a21.08,21.08,0,0,1,4-2.09C1485.69,658.42,1486.5,660,1486.73,661.39Z" transform="translate(0 0)"/><path class="cls-9" d="M1265.15,878a18.17,18.17,0,0,1,9.47-13.42q39.81-22.81,79.5-45.81c6.91-4,13.79-8,20.73-12,2-1.13,4.16-2.46,6.5-.76s2.19,4.27,1.74,6.79a15.12,15.12,0,0,1-7.4,10.78q-50.88,29.55-101.91,58.86C1268.73,885.33,1265.07,883.42,1265.15,878Z" transform="translate(0 0)"/><path class="cls-9" d="M1383.38,623.9a15.54,15.54,0,0,1-8,12.61Q1324.73,665.9,1274,695.1c-2.26,1.3-4.76,2.3-7,.51s-2-4.61-1.29-7.36a15.66,15.66,0,0,1,7.12-9.88q51.09-29.67,102.3-59.09C1379.91,616.53,1383.28,618.4,1383.38,623.9Z" transform="translate(0 0)"/><path class="cls-4" d="M1221,716.54c0-3,0-6,0-9a13.09,13.09,0,0,1,6.59-11.58c5.26-3.17,10.58-6.27,16-9.19,4.75-2.56,7.14-1.06,7.23,4.42.09,6,.11,12,0,18a13.32,13.32,0,0,1-6.6,11.62c-5.24,3.2-10.59,6.25-16,9.18-4.73,2.57-7.08,1.06-7.21-4.45C1220.92,722.53,1221,719.54,1221,716.54Z" transform="translate(0 0)"/><path class="cls-4" d="M1339,1164.15c0-2.83,0-5.66,0-8.48a13,13,0,0,1,6.38-11.68q8.06-5,16.4-9.49c4.43-2.39,6.91-.86,7,4.28.14,6.16.18,12.32,0,18.47a13,13,0,0,1-6.4,11.21c-5.41,3.27-10.85,6.48-16.41,9.48-4.49,2.42-6.83.89-7-4.3C1338.9,1170.48,1339,1167.31,1339,1164.15Z" transform="translate(0 0)"/><path class="cls-4" d="M1339,1024.24c0-2.83,0-5.65,0-8.48a13.09,13.09,0,0,1,6.43-11.65q7.85-4.82,15.95-9.21c4.78-2.62,7.31-1.17,7.43,4.23.13,6,.18,12,0,18a13.6,13.6,0,0,1-6.92,11.94c-5.16,3-10.31,6.07-15.54,9-4.74,2.61-7.21,1.14-7.34-4.26C1338.91,1030.55,1339,1027.39,1339,1024.24Z" transform="translate(0 0)"/><path class="cls-4" d="M1274.83,1062.6c0,2.82,0,5.65,0,8.47a13.41,13.41,0,0,1-6.71,12c-5.2,3.26-10.53,6.32-15.93,9.25-4.43,2.41-7,.89-7.17-4.14-.15-6.15-.12-12.3,0-18.45a13.39,13.39,0,0,1,6.69-11.57c5.22-3.22,10.6-6.21,16-9.15,4.5-2.44,7-1,7.12,4.07C1274.92,1056.28,1274.83,1059.44,1274.83,1062.6Z" transform="translate(0 0)"/><path class="cls-4" d="M1274.83,1202.68c0,2.83,0,5.65,0,8.47a13.22,13.22,0,0,1-6.47,11.64q-7.83,4.83-15.92,9.23c-4.68,2.57-7.28,1-7.41-4.33-.14-6-.12-12,0-17.93a13.28,13.28,0,0,1,6.57-11.61c5.23-3.21,10.53-6.31,15.92-9.25,4.76-2.6,7.2-1.09,7.32,4.32C1274.89,1196.37,1274.83,1199.53,1274.83,1202.68Z" transform="translate(0 0)"/><path class="cls-4" d="M1221,903.28v-8a13.29,13.29,0,0,1,6.64-12q7.85-4.8,15.92-9.22c4.47-2.45,7.15-1,7.27,4,.15,6.3.21,12.62-.06,18.91a13,13,0,0,1-6.58,11.09c-5.12,3.06-10.26,6.11-15.49,9s-7.61,1.34-7.7-4.76C1220.94,909.25,1221,906.26,1221,903.28Z" transform="translate(0 0)"/><path class="cls-4" d="M1462.49,953.67c3.38,13.65-3.86,21-15.25,26.08-2.72,1.21-5.17,3-7.84,4.33-3.92,1.94-6.33.75-6.47-3.49-.22-7-.23-14,.09-20.94a11.55,11.55,0,0,1,5.75-9.45c5.53-3.39,11.12-6.67,16.81-9.78,4.51-2.46,7-.85,6.92,4.27C1462.47,947.69,1462.49,950.68,1462.49,953.67Z" transform="translate(0 0)"/><path class="cls-4" d="M1462.49,1094.34c0,2.66,0,5.32,0,8a12.84,12.84,0,0,1-6.17,11.8c-5.48,3.44-11.13,6.64-16.83,9.73-4,2.2-6.48.83-6.62-3.77q-.29-10,.07-20a12.51,12.51,0,0,1,6.49-10.61c5.27-3.17,10.62-6.21,16-9.18,4.61-2.55,6.76-1.3,7.11,4.05.1,1.65-.09,3.32-.12,5s0,3.32,0,5Z" transform="translate(0 0)"/><path class="cls-10" d="M1299,1086.57c-.51,3.84-2.8,6-5.85,7.74q-26.37,15.14-52.68,30.39l-14.25,8.22c-1.45.83-3,1.9-4.51.33-1.3-1.39-.69-3,0-4.66a9.52,9.52,0,0,1,4.43-4.54q33.45-19.32,66.91-38.64C1295.27,1084.12,1297.89,1082.23,1299,1086.57Z" transform="translate(0 0)"/><path class="cls-10" d="M1317.67,1219.64c-2.23,0-2.76-1.28-2.68-3,.15-3.34,2.12-5.41,4.87-7q33.47-19.29,66.91-38.61c1.64-1,3.57-2.74,5.34-.66s.47,4.22-.86,5.91a14.85,14.85,0,0,1-4.17,3.46q-33.21,19.23-66.49,38.36C1319.59,1218.71,1318.53,1219.2,1317.67,1219.64Z" transform="translate(0 0)"/><path class="cls-10" d="M1299,1103.67a9.14,9.14,0,0,1-4.35,6.36q-34.3,19.83-68.63,39.64c-1.19.68-2.6,1.85-4.07.39s-1-3-.31-4.61c1-2.48,3-3.93,5.18-5.19q33-19.07,66.07-38.1c1.52-.87,3-2.26,5-1.15C1298.89,1101.58,1298.92,1102.63,1299,1103.67Z" transform="translate(0 0)"/><path class="cls-10" d="M1299,1243.52a9,9,0,0,1-4.7,6.52q-33.87,19.59-67.77,39.12c-1.57.9-3.37,2.16-4.92.29-1.36-1.64-.38-3.49.44-5.14a9.84,9.84,0,0,1,4.33-4q33.48-19.29,67-38.56C1297,1239.61,1299,1240.22,1299,1243.52Z" transform="translate(0 0)"/><path class="cls-10" d="M1486.76,994.66c-.54,4-3.07,6.21-6.25,8q-27.46,15.72-54.85,31.58c-3.88,2.24-7.75,4.52-11.64,6.75-1.44.83-3.08,1.89-4.52.36-1.27-1.35-.74-3.16-.08-4.71a9,9,0,0,1,4-4.25q33.88-19.56,67.76-39.13C1483.54,992,1485.89,990.79,1486.76,994.66Z" transform="translate(0 0)"/><path class="cls-10" d="M1392.76,1066.22a9,9,0,0,1-4.66,6.51q-33.87,19.56-67.78,39.07c-1.39.8-3,2.08-4.55.62s-.86-3.35-.07-5.09a10,10,0,0,1,4.56-4.43q33.45-19.31,66.9-38.62C1390.93,1062.11,1392.84,1062.76,1392.76,1066.22Z" transform="translate(0 0)"/><path class="cls-10" d="M1299,1226.15a9.93,9.93,0,0,1-5.45,7.7q-29.61,17-59.14,34.14c-2.87,1.66-5.76,3.31-8.66,4.92-1.28.7-2.64,1.76-4,.23-1.18-1.3-.85-2.77-.29-4.21a9.86,9.86,0,0,1,4.59-5q33.46-19.28,66.91-38.63C1295.19,1224,1297.77,1222.31,1299,1226.15Z" transform="translate(0 0)"/><path class="cls-10" d="M1392.84,1049a9.05,9.05,0,0,1-4.52,6.91q-34.11,19.68-68.22,39.34c-1.43.82-3.08,1.93-4.51.34-1.23-1.36-.73-3.11,0-4.68a10,10,0,0,1,4.46-4.52q33.48-19.26,66.92-38.59C1389.25,1046.48,1391.74,1044.56,1392.84,1049Z" transform="translate(0 0)"/><path class="cls-10" d="M1392.84,1188.72c-.53,3.94-2.84,6.06-5.89,7.81q-30.46,17.49-60.83,35.13c-2.16,1.24-4.33,2.45-6.48,3.72-1.22.72-2.56,1.15-3.75.3-1.46-1-1.06-2.71-.64-4.12a8.82,8.82,0,0,1,4.43-5.16l67.75-39.1C1389.87,1185.9,1392.07,1185.08,1392.84,1188.72Z" transform="translate(0 0)"/><path class="cls-9" d="M1298.92,1260.19a8.76,8.76,0,0,1-4.24,6.21q-34.35,19.81-68.66,39.67c-1.33.77-2.81,1.6-4.14.42s-1-3-.34-4.62a10,10,0,0,1,4.75-4.9q33.27-19.15,66.53-38.35C1297.09,1256.17,1299,1256.64,1298.92,1260.19Z" transform="translate(0 0)"/><path class="cls-10" d="M1411.9,1181.89c-2.42.21-3.07-1-3.05-2.71,0-3.17,1.82-5.32,4.37-6.79q34.08-19.74,68.21-39.37c1.4-.8,2.94-2,4.5-.39,1.4,1.45.69,3.12,0,4.67a9.65,9.65,0,0,1-4.43,4.56q-33.67,19.41-67.34,38.86C1413.35,1181.22,1412.45,1181.62,1411.9,1181.89Z" transform="translate(0 0)"/><path class="cls-10" d="M1486.78,1011.19c-.52,2.95-1.6,5.34-4.1,6.78q-34.47,20-69,39.87c-1.26.72-2.69,1.69-4.1.3-1.25-1.23-.89-2.81-.42-4.21a8.7,8.7,0,0,1,4.14-4.78q33.89-19.53,67.74-39.1C1483.32,1008.74,1485.65,1007.58,1486.78,1011.19Z" transform="translate(0 0)"/><path class="cls-10" d="M1486.78,1117.83c-.61,3-1.81,5.46-4.47,7l-68.22,39.3c-1.45.83-3.13,1.93-4.54.48s-.7-3.4.08-5.11c.94-2.1,2.72-3.28,4.61-4.38q33.26-19.14,66.49-38.3C1483.05,1115.48,1485.48,1113.58,1486.78,1117.83Z" transform="translate(0 0)"/><path class="cls-10" d="M1483.7,975.55c2.58.11,3.4,1.42,2.82,3.65a9.47,9.47,0,0,1-4.74,6.11q-33.54,19.26-67,38.65c-1.68,1-3.7,2.61-5.35.57s-.4-4.2.91-5.95a11.24,11.24,0,0,1,3.38-2.85q33.45-19.41,67-38.74C1481.67,976.42,1482.75,976,1483.7,975.55Z" transform="translate(0 0)"/><path class="cls-10" d="M1389.59,1202.92c2.55-.2,3.42,1.06,3.14,3a8.39,8.39,0,0,1-4.36,6.33q-34.32,19.82-68.64,39.62c-1.25.72-2.62,1.82-4,.35-1.21-1.25-.86-2.83-.4-4.23a8.69,8.69,0,0,1,4.12-4.84q34.1-19.7,68.21-39.35A20.45,20.45,0,0,1,1389.59,1202.92Z" transform="translate(0 0)"/><path class="cls-10" d="M1317.88,1079.76c-2.58,0-3.07-1.42-2.88-3.28.32-3.1,2.26-5.08,4.81-6.55q33.86-19.54,67.7-39.07c1.52-.88,3.08-1.71,4.53-.31s.67,3.09,0,4.64a9.61,9.61,0,0,1-4.44,4.53q-33.43,19.26-66.85,38.57C1319.76,1078.86,1318.71,1079.34,1317.88,1079.76Z" transform="translate(0 0)"/><path class="cls-10" d="M1408.9,1194.82a8.49,8.49,0,0,1,4.24-5.76q34.11-19.65,68.19-39.35c1.48-.85,3-1.76,4.56-.41s.63,3.1,0,4.61a9.24,9.24,0,0,1-4.39,4.57q-33.45,19.27-66.88,38.59c-1.5.86-3,2.41-5,1C1408.52,1197.29,1408.86,1196,1408.9,1194.82Z" transform="translate(0 0)"/><path class="cls-10" d="M1299,1120.28a9.2,9.2,0,0,1-4.41,6.42q-34.29,19.82-68.6,39.59c-1.38.79-2.87,1.38-4.16.26-1.51-1.33-.85-3-.18-4.6a8.26,8.26,0,0,1,3.52-4.07q34.3-19.82,68.6-39.63C1296.25,1116.81,1298.57,1116.26,1299,1120.28Z" transform="translate(0 0)"/><path class="cls-6" d="M1020.88,763.28c-15.2-4.89-22.28-16.75-25.76-31.12-4.67-19.32-2.06-38.4,3.92-57,10.93-34,29.57-62.77,58.4-84.36,10.89-8.16,22.85-14.36,36.66-15.79,22.07-2.27,38,8.89,43.94,30.4,4.34,15.65,3.46,31.28,0,46.91a156.83,156.83,0,0,1-24,55.94c-1.7-1.33-1.39-3.27-1.46-5.06a49.45,49.45,0,0,0-2.17-12.26c-3.29-11-12.39-16.49-23.58-13.89-12.11,2.81-22.47,9.56-31.94,17-20.4,16.09-31.26,37.57-32.62,63.66C1022.24,759.66,1022.7,761.78,1020.88,763.28Z" transform="translate(0 0)"/><path class="cls-6" d="M993,843.82c1.32-10.32,6.92-19.42,17.33-25.43L1111.44,760q13.83-8,27.65-15.95c4.05-2.34,8.4-3.94,12.63-1s4.27,7.64,3.4,12.23c-2,10.6-7.81,18.46-17.17,23.86q-59.65,34.35-119.26,68.8c-3.88,2.24-7.67,4.73-11.73,6.59C999,858.26,993,854.15,993,843.82Z" transform="translate(0 0)"/><path class="cls-11" d="M1020.88,763.28c-.65-20.25,6-38.06,17.57-54.44,7.57-10.77,17.63-18.35,29-24.51,6.1-3.32,11.91-7.14,18.95-8.64,12.08-2.59,22.5,3.46,25.65,15.33a63.54,63.54,0,0,1,2.09,17.23c-17.08,26.16-37.83,47.87-69.35,56.07C1036.85,766.38,1028.71,766.48,1020.88,763.28Z" transform="translate(0 0)"/><path class="cls-4" d="M1136.82,1345.11l-81.53,47.21q-26.11,15.11-52.28,30.15c-2.68,1.54-5.64,3.94-8.54.88-2.68-2.82-1.46-6.22-.14-9.37,1.85-4.37,5.34-7,9.33-9.33q61.81-35.6,123.57-71.29c2.72-1.57,5.54-3,8.31-4.46,4.54-.39,6.7,1.57,6.61,6C1142.06,1339.2,1139.73,1342.3,1136.82,1345.11Z" transform="translate(0 0)"/><path class="cls-6" d="M1155.53,884.68c-.5,5.45-3,10.09-7.92,12.93q-50.91,29.55-101.94,58.88c-2.05,1.18-4.32,2.25-6.5.47s-2.28-4.22-1.6-6.83a17.51,17.51,0,0,1,8.43-11.24q50.34-29,100.67-58.07C1151.83,877.84,1155.39,879.41,1155.53,884.68Z" transform="translate(0 0)"/><path class="cls-6" d="M1037.17,1088.25c.83-5.87,4-10.39,9.42-13.52q44.76-25.74,89.43-51.61c3.59-2.08,7.2-4.14,10.8-6.22,2.26-1.31,4.76-2.29,7-.49s1.94,4.39,1.31,6.94a16,16,0,0,1-7.68,10.58q-50.75,29.33-101.5,58.61C1040.87,1095.45,1037.21,1093.66,1037.17,1088.25Z" transform="translate(0 0)"/><path class="cls-6" d="M1155.53,952.92c-.68,6.25-4.13,10.74-9.71,13.94q-34.18,19.6-68.29,39.35l-31.11,17.93c-2.33,1.34-4.76,2.95-7.33.81s-2.08-5-1.23-7.8a17.19,17.19,0,0,1,8.26-10.2q50.09-29,100.21-57.85C1151.76,946,1155.49,947.52,1155.53,952.92Z" transform="translate(0 0)"/><path class="cls-4" d="M1106.87,1294.3q-39.3,22.77-78.59,45.54-13.17,7.64-26.38,15.21c-2.17,1.24-4.5,2.72-6.92.75-2.61-2.11-2.23-5-1.4-7.8a16.43,16.43,0,0,1,7.74-10q51.66-29.88,103.34-59.69a6.51,6.51,0,0,1,1.42-.43c4.05-1.38,5.52,1.07,6.11,4.36C1113.13,1287.39,1110.79,1291.23,1106.87,1294.3Z" transform="translate(0 0)"/><path class="cls-6" d="M1155.39,1090c-.56,5.39-3.71,9.76-9,12.79l-90.21,52.08c-3.45,2-6.9,4-10.36,6-2.26,1.28-4.78,2.2-7,.32s-1.94-4.38-1.21-7a17.4,17.4,0,0,1,8.18-10.82q50.31-29,100.6-58C1152,1082.24,1155.37,1083.8,1155.39,1090Z" transform="translate(0 0)"/><path class="cls-6" d="M1133.21,823.12a15.3,15.3,0,0,1-7.74,11.74q-50.87,29.52-101.83,58.85c-2.07,1.19-4.31,2.17-6.53.53s-2.27-4.3-1.66-6.82a17.67,17.67,0,0,1,8.84-11.51q49.86-28.77,99.7-57.57c2.33-1.35,4.82-2.64,7.48-1C1133.47,818.53,1133.22,820.71,1133.21,823.12Z" transform="translate(0 0)"/><path class="cls-11" d="M1055.77,1238.85q27.29-15.93,54.57-31.85,17.65-10.27,35.37-20.42c2.59-1.49,5.43-3.5,8.2-1,2.55,2.32,1.71,5.62.75,8.45a15.69,15.69,0,0,1-7,8.8q-45.51,26.24-91.06,52.41c-.77-1.58.11-2.86.75-4.21C1060.53,1244.36,1060.47,1244,1055.77,1238.85Z" transform="translate(0 0)"/><path class="cls-6" d="M1081.84,1334.9c-.62,4.7-2.6,9.33-7.19,12q-36.76,21.49-73.7,42.69c-1.88,1.08-4,1.87-6.07.21s-2.2-4-1.67-6.39a16.92,16.92,0,0,1,8.14-11.44q35.79-20.7,71.65-41.28C1078.14,1327.76,1081.71,1329.38,1081.84,1334.9Z" transform="translate(0 0)"/><path class="cls-6" d="M993,1316.68a15.69,15.69,0,0,1,7.71-12.29c24.27-14.2,48.66-28.2,73-42.24,1.91-1.1,4-1.91,6.07-.29s2.37,4,1.81,6.34c-1.06,4.53-3.21,8.53-7.3,10.91q-36.45,21.21-73,42.19C996.46,1324.07,993.06,1322.15,993,1316.68Z" transform="translate(0 0)"/><path class="cls-6" d="M1081.82,1199.1a17.11,17.11,0,0,1-8.71,12.79q-35.19,20.37-70.44,40.64c-2.51,1.45-5.26,3.07-7.86,1-2.95-2.4-2-5.76-.81-8.78a16.87,16.87,0,0,1,7.56-9q35.67-20.54,71.31-41.13C1078.22,1191.55,1081.94,1193.34,1081.82,1199.1Z" transform="translate(0 0)"/><path class="cls-4" d="M1055.77,1238.85c5,.53,5.65,3.84,4.94,7.93-.55,3.21-2.9,5.57-4.11,8.48l-54.35,31.58c-2.42,1.4-5.18,2.43-7.5.65-2.57-2-2-5-1.08-7.85,1.13-3.63,3.06-6.91,6.26-8.77C1018.48,1260.08,1037.14,1249.5,1055.77,1238.85Z" transform="translate(0 0)"/><path class="cls-4" d="M993,1182.1c0-3-.12-6,0-9,.24-4.76,2.2-8.73,6.33-11.25q8.31-5.05,16.85-9.72c3.85-2.11,6.45-.61,6.59,3.92.21,6.48.29,13,0,19.46a13,13,0,0,1-6.69,11c-5.31,3.11-10.59,6.26-16,9.23-4.43,2.45-6.91.94-7.09-4.21C992.91,1188.42,993,1185.26,993,1182.1Z" transform="translate(0 0)"/><path class="cls-4" d="M1022.86,961.48c0,3,.11,6,0,9a13.22,13.22,0,0,1-6.32,11.28c-5.38,3.32-10.85,6.51-16.42,9.49-4.53,2.41-7,.87-7.07-4.32-.12-6-.07-12,0-18a13.2,13.2,0,0,1,6.53-11.67c5.23-3.23,10.59-6.28,16-9.24,4.63-2.53,7.18-.93,7.32,4.45C1022.93,955.49,1022.86,958.49,1022.86,961.48Z" transform="translate(0 0)"/><path class="cls-4" d="M993,1045.35c0-2.66,0-5.31,0-8a13.07,13.07,0,0,1,6.24-11.78c5.46-3.46,11.11-6.64,16.81-9.69,4-2.17,6.56-.82,6.73,3.7.25,6.8.31,13.62,0,20.41-.24,4.35-2.81,7.81-6.53,10.09q-7.86,4.79-16,9.2c-4.68,2.54-7.08,1-7.23-4.5C992.93,1051.66,993,1048.51,993,1045.35Z" transform="translate(0 0)"/><path class="cls-4" d="M1022.86,1097.23c0,3,.07,6,0,9-.14,5-2.08,9.13-6.33,11.77q-8.26,5.13-16.83,9.74c-4,2.14-6.48.71-6.62-3.83-.21-6.65-.31-13.32,0-20a12.8,12.8,0,0,1,6.56-10.61c5.3-3.12,10.61-6.23,16-9.17,4.46-2.44,7-1,7.17,4.1C1023,1091.24,1022.87,1094.24,1022.86,1097.23Z" transform="translate(0 0)"/><path class="cls-11" d="M1106.87,1294.3c1.6-3.32,4.22-6.18,4.27-10.19.06-3.59-1-6.09-5.06-6.23,13.86-8.11,27.65-16.34,41.62-24.26,4.81-2.74,8.24-.17,7.62,5.35a15.43,15.43,0,0,1-7.9,12C1134,1278.87,1120.4,1286.56,1106.87,1294.3Z" transform="translate(0 0)"/><path class="cls-12" d="M1136.82,1345.11c.82-3,3.17-5.32,3.72-8.5.73-4.22-.16-7.19-5-7.71q5.94-3.57,11.9-7.14c2-1.17,4.14-1.57,6.12-.31,2.13,1.35,2,3.66,1.72,5.85a15.78,15.78,0,0,1-7.66,11.66C1144.09,1341.12,1140.43,1343.06,1136.82,1345.11Z" transform="translate(0 0)"/><path class="cls-7" d="M476.08,1382q0-35.73.07-71.46,0-186.43-.09-372.85c0-4.52,1.29-7.06,5.31-9.37Q558.28,884.2,635,839.76c5.72-3.3,5.67-3.36,7.83,2.93,4.75,13.84,9.62,27.63,14.22,41.52,1.27,3.86,2.33,4.85,6.36,2.46,20-11.89,40.3-23.4,60.5-35,1-.57,2.07-1,3.11-1.56.07,14.15.19,28.3.19,42.45q0,50.19-.07,100.39c-1.88,4-6.26,4.61-9.5,6.53-21.84,12.94-43.89,25.5-65.89,38.16-13.82,8-27.63,15.94-41.53,23.75a10.2,10.2,0,0,0-5.29,7.31q-13.32,58.63-26.84,117.22c-7.73,33.73-15.27,67.51-23.24,101.19-8.21,34.64-16.11,69.36-24.08,104s-16.17,69-23.87,103.6c-5.4,24.26-11.38,48.38-17.05,72.57-3.63,15.48-7.15,31-10.75,46.47a8.1,8.1,0,0,1-2,4v-5.65q0-112,0-224C477,1386.09,477.8,1383.8,476.08,1382Z" transform="translate(0 0)"/><path class="cls-7" d="M948.68,1354.65c-12.45,6-24,13.5-36,20.27-25.89,14.62-51.71,29.39-77.55,44.1a2.38,2.38,0,0,1-1.62-2.25c-.06-2.15-.43-4.29-.43-6.44q0-238.63,0-477.28,25.83-15.06,51.69-30.11,31.93-18.5,63.93-36.86c.07,1.82.22,3.65.22,5.47q0,239.31,0,478.62C948.87,1351.67,948.74,1353.16,948.68,1354.65Z" transform="translate(0 0)"/><path class="cls-13" d="M288.93,1445.83c1.4-25.75,2.75-51.5,4.21-77.25q3.14-55,6.39-110.11,4-69.26,8-138.51,3.29-57.06,6.55-114.11,3.82-65.79,7.74-131.56a4.24,4.24,0,0,0,.06-1c-2-11,4.16-16,13.09-21.15q193.26-111,386.12-222.63c1.57-.91,3.22-1.69,4.83-2.53,2.3,4.47.63,9.25,1.06,13.87.2,2.11,0,4.25,0,6.38Q623.3,707.07,519.62,766.9q-87.06,50.24-174.14,100.41c-3.42,2-5,4.18-5.29,8.08q-6.53,76.86-13.29,153.71-6.48,74.12-13,148.22-7.23,81.56-14.57,163.11-4.76,53.71-9.34,107.44C288.06,1448,288.64,1446.83,288.93,1445.83Z" transform="translate(0 0)"/><path class="cls-1" d="M892.53,601.2c-1.15-5.46-.15-9.91-1.28-14.34-4.34-17.08-18.21-23.74-34-16-9.54,4.71-18.87,9.74-27.24,16.43-10.95,8.74-18.1,20.19-23.86,32.64a78.87,78.87,0,0,0-7.06,32.28c-.06,3.9-1.84,3.88-4.21,2.55-7.37-4.16-13.29-9.79-17-17.58-9.73-20.54-8-41.64-2.51-62.67,7-26.92,20.23-50.63,38.87-71.35C827.68,488.33,842.8,476,862.2,469.9c14.57-4.61,28.49-3.76,40.84,6.21,7.87,6.34,11.68,15.18,13.9,24.7,3.93,16.86,2.35,33.56-1.91,50.16A166.72,166.72,0,0,1,892.53,601.2Z" transform="translate(0 0)"/><path class="cls-1" d="M1140,350.06c-.51,7.27-7.31,13.06-15.51,17.75-16.57,9.49-33.2,18.89-49.76,28.41q-35.4,20.37-70.73,40.85c-2.84,1.64-5.78,3.06-8.74.49s-3.36-5.52-2.57-9.4c1.62-8,5.65-13.84,12.78-17.91,29.15-16.62,58.31-33.21,87.24-50.19,11.73-6.89,23.39-13.91,35.32-20.45C1136.34,335.05,1140,337.47,1140,350.06Z" transform="translate(0 0)"/><path class="cls-1" d="M993,498.52c.06-3.56,1.38-5.59,3.95-7.06,9.94-5.69,19.8-11.52,29.72-17.24q27.83-16.05,55.68-32,25.65-14.74,51.32-29.47c20-11.53,39.89-23.14,59.86-34.67q21.78-12.58,43.63-25c1.86-1,4.25-3.27,5.95-.11,1.34,2.47,0,5-2.08,6.49a121.09,121.09,0,0,1-11.32,7.21c-15.72,9-31.55,17.74-47.24,26.74-16.84,9.65-33.55,19.5-50.35,29.22q-38.33,22.19-76.7,44.31-27.59,16-55.12,32a24.24,24.24,0,0,1-3.59,1.74C994.12,501.58,992.84,500.65,993,498.52Z" transform="translate(0 0)"/><path class="cls-1" d="M992.79,523.33c0-3.18,1.92-4.93,4.32-6.32q42-24.28,84.05-48.57c22.41-13,44.74-26.05,67.17-39,19.13-11,38.37-21.88,57.52-32.86q15.35-8.79,30.55-17.81c2.19-1.29,4.42-3.21,6.52-.48s-.31,4.73-2.09,6.34c-6.23,5.63-14.06,8.76-21.18,13-20.13,11.91-40.49,23.44-60.76,35.11-19.43,11.18-38.89,22.29-58.29,33.52-14.79,8.56-29.46,17.36-44.28,25.88-16.24,9.35-32.61,18.49-48.91,27.75-3.6,2-7.11,4.28-10.74,6.27C993.43,527.94,992.54,526.27,992.79,523.33Z" transform="translate(0 0)"/><path class="cls-1" d="M1243.84,328.87a11.39,11.39,0,0,1-5.71,7.06c-15.5,9-31.08,17.92-46.62,26.89q-27,15.57-53.94,31.17c-17,9.78-34,19.47-51,29.28-14.63,8.46-29.18,17.07-43.81,25.55s-29.35,16.93-44.07,25.32c-1.72,1-3.79,3-5.65.33-1.63-2.34-.11-4.46,1.33-6.22,3.61-4.41,9.16-5.93,13.84-8.71C1028,447.75,1048,436.23,1068,424.69c18.53-10.71,37.13-21.3,55.69-32q27-15.51,54-31.06,29.74-17.15,59.48-34.32C1240.72,325.27,1243.73,325.9,1243.84,328.87Z" transform="translate(0 0)"/><path class="cls-14" d="M288.93,1445.83l1,2c-.56,9.74-1.12,19.48-2.92,29.1C287.3,1466.57,287.41,1456.15,288.93,1445.83Z" transform="translate(0 0)"/><path class="cls-11" d="M1362,453.91c-.87,7.18-4.08,14-11.2,18.17q-62.13,36.07-124.42,71.89c-2.89,1.66-6,3.48-9.23.86-3.07-2.48-3.43-6-2.72-9.57a24.67,24.67,0,0,1,12.22-17.38q61.58-35.53,123.17-71.07C1356.94,442.68,1362,445.37,1362,453.91Z" transform="translate(0 0)"/><path class="cls-15" d="M1465.05,461.2c-.36,3.85-2.61,5.89-5.48,7.54q-29.41,17-58.81,33.94l-171.2,98.84c-3.46,2-6.93,4-10.4,5.94-1.36.78-2.84,1.35-4.15.15s-.77-2.68-.25-4.17c1-2.76,3.14-4.17,5.48-5.52l205-118.26q17.29-10,34.57-20C1462.14,458.31,1464.5,457.35,1465.05,461.2Z" transform="translate(0 0)"/><path class="cls-15" d="M1465,435.91c-.24,3.81-2.81,5.76-5.8,7.49q-41.92,24.18-83.83,48.43l-153.86,88.79c-1,.58-2,1.13-3,1.71s-2.14,1-3.23.11a3.14,3.14,0,0,1-.84-3.64c.93-3.08,3.17-4.89,5.87-6.44q47.79-27.51,95.52-55.11l141.77-81.84a22.39,22.39,0,0,1,3.94-2.12C1463.67,432.56,1465.07,433.33,1465,435.91Z" transform="translate(0 0)"/><path class="cls-15" d="M1217,634.12c-2.87-.65-3.1-2.34-2.58-4.31.89-3.38,3.6-5,6.38-6.65q41.31-23.82,82.62-47.66Q1380.16,531.19,1457,487c2.22-1.27,5.25-5.24,7.51-1.48,2.09,3.48-1.1,6.55-4.29,8.4-13.81,8-27.67,16-41.5,24L1221.9,631.45C1220.19,632.44,1218.43,633.33,1217,634.12Z" transform="translate(0 0)"/><path class="cls-11" d="M1042.84,662.47c1.76-17.85,9.4-32.33,25.35-41.41,12-6.85,23-.4,22.71,13.33-.36,18.59-8.9,33.05-24.33,43.16-4.91,3.22-10.83,4.69-16.5,1.44C1043.77,675.38,1042.53,669.28,1042.84,662.47Z" transform="translate(0 0)"/><path class="cls-3" d="M869,529.44c-1.67,18.53-9.51,33.75-26.55,41.94-11,5.27-20.43,1.42-21.34-13.56-.73-11.93,4.22-22.2,11.18-31.67a39.85,39.85,0,0,1,16.33-13.38c11.11-4.85,20.1,1,20.38,13.18C869.05,527.11,869,528.28,869,529.44Z" transform="translate(0 0)"/></g></g></svg>