<svg xmlns="http://www.w3.org/2000/svg" viewBox="0 0 2000 2000"><defs><style>.cls-1{fill:#ebebeb;}.cls-2{fill:#fcfdfd;}.cls-3{fill:#f9f9f9;}.cls-4{fill:#2b454e;}.cls-5{fill:#375a64;}.cls-6{fill:#bfbfbf;}.cls-7{fill:#fea9a7;}.cls-8{fill:#1a2e35;}.cls-9{fill:#00a78e;}.cls-10{fill:#00debe;}.cls-11{fill:#63ebdc;}.cls-12{fill:#a2f4eb;}.cls-13{fill:#00bda2;}.cls-14{fill:#78ecde;}.cls-15{fill:#979797;}.cls-16{fill:#989898;}.cls-17{fill:#4beede;}.cls-18{fill:#959595;}.cls-19{fill:#a3f4eb;}.cls-20{fill:#949494;}.cls-21{fill:#969696;}.cls-22{fill:#999;}.cls-23{fill:#01debf;}.cls-24{fill:#00bda3;}.cls-25{fill:#789390;}.cls-26{fill:#698683;}.cls-27{fill:#20343b;}.cls-28{fill:#fefefe;}.cls-29{fill:#01bea3;}.cls-30{fill:#3d5b65;}.cls-31{fill:#fda9a7;}.cls-32{fill:#00705e;}.cls-33{fill:#1d2f36;}.cls-34{fill:#1e3037;}</style></defs><title>Asset 15</title><g id="Layer_2" data-name="Layer 2"><g id="Layer_1-2" data-name="Layer 1"><path class="cls-1" d="M1999.88,1274q0,360.71.09,721.42c0,3.75-.84,4.59-4.59,4.59Q1000,1999.85,4.6,2000c-3.75,0-4.6-.84-4.6-4.59Q.15,1267.24.1,539.07c1.54-.7,2.52.37,3.52,1.18a54.72,54.72,0,0,1,4,3.82q134,134,268,268.07c2.21,2.21,4.87,4.12,5.77,7.39.69,3.47.43,7,.43,10.47q0,309.3,0,618.6c0,7.49,1,14.59,4.69,21.18a13.85,13.85,0,0,0,1.81,3c13.87,14.28,29.24,25.65,50.41,25.33,5.62-.09,10.7-2.15,15.54-4.94q74.43-43,148.88-85.91c3.87-2.23,7.48-5,12-6a4.32,4.32,0,0,1,3.17,1c5.86,9.65,10.7,19.88,17.13,29.24A217.42,217.42,0,0,0,603.8,1496c12,7.17,25.07,11.21,38.89,11.2a71.43,71.43,0,0,0,38.88-11c2.95-1.87,5.68-4.09,9-5.39,8.56-3.4,16-8.83,23.92-13.38q93.72-53.89,187.32-108c2-1.18,4.08-3.28,6.77-1.21,1.5,2.63,1,5.53,1,8.32,0,59.12-.76,118.25.26,177.36.88,51.39,18.71,96.88,52.59,136,18.85,21.75,42,37.64,66.68,51.8,69.22,39.64,138.2,79.68,207.33,119.47,1.85,1.06,3.56,2.53,5.9,2.39,11.55-5.61,22.39-12.48,33.48-18.88q76.17-43.89,152.31-87.84l131.08-75.67c17.16-9.9,34.24-20,51.46-29.75,6.25-3.55,6.69-4.79,4.88-11.67-1.54-2.83-4.41-4-7-5.47q-63.35-36.72-126.79-73.28c-29.41-17-59-33.79-88.28-51a200.33,200.33,0,0,1-74.79-76.71,204,204,0,0,1-24.91-78,200.79,200.79,0,0,1-1.46-21.41q.08-121.21,0-242.43c0-28.93-6.72-56.46-18.84-82.67-15.54-33.59-38.8-60.74-68.89-82.13a135.1,135.1,0,0,0-15.25-9.54c-22.51-11.91-45.27-12.09-67.31.54q-74.14,42.51-148,85.43-41.31,23.92-82.71,47.67c-7.5,4.28-9.84,3-9.84-5.6q-.06-80,0-160c0-19.65.53-39.31-1.57-58.9-.4-3.71,1.06-6.2,5.08-6.52,2.37-.19,4.45-1.35,6.72-1.89C904,816.2,916.53,816,929,815.48q56.4-2.52,112.87-1,69.86,1.85,139.39,9.49c88.13,9.74,174.81,26.58,259.8,51.88q20.58,6.14,41,12.88c2.35.78,4.84,1.36,6.57,3.38,1.48,2.61,1.18,5.49,1.19,8.31q0,33,0,66c-.07,30.48,1.72,60.88,3.73,91.28,1.27,19.26,2.28,38.54,3.44,57.81,1.19,19.92,2.29,39.86,3.51,59.79.88,14.44,1.65,28.91,2.42,43.36.8,14.95,1.38,29.92,2.63,44.85a39.6,39.6,0,0,1,.14,7c-.56,5.94.59,12-.61,17.85-4.6,22.41-14.94,41.69-32.14,57-3.59,3.19-7.07,6.52-10.83,9.52a73,73,0,0,0-14.66,16.9c-4.87,7.93-3.12,12.49,5.55,15.8,23,8.8,54.32-2,67.84-24,7-11.42,14.28-22.41,24.29-31.47,4-3.64,5.56-8.42,4.56-14.07-1.68-9.36-3.55-18.61-8-27.15a103.82,103.82,0,0,1-.2-19.55c.19-6.54,2-12.82,3.24-19.17,7.82-39.9,15.41-79.84,21-120.13,1.51-10.9,2.82-21.83,3.39-32.8.77-14.65-2.55-28.89-6.59-42.8a74,74,0,0,1-2-31c4.84-37.5,9.54-75,13.76-112.6.63-5.62,1.72-11.19,2.13-16.85.11-1.5.31-3.59,1.84-3.77,2-.23,2.48,2,2.77,3.55,1.23,6.56,1.65,13.22,2.41,19.83,5.54,48.33,10.49,96.73,17.21,144.91,4.77,34.16,10.94,68.1,16.56,102.13,7.78,47.18,16.14,94.26,24.19,141.4,2.93,25.83-6.34,47.82-21.45,68-5.84,7.79-13.77,13.36-21,19.73-6.11,5.67-11.88,11.66-16,19-4,7-2.45,11.5,5.17,14.48,16.56,6.47,32.28,3.37,47.58-4.42a54.32,54.32,0,0,0,23.78-23.45,82.13,82.13,0,0,1,18.9-24.21c6.72-5.77,8.28-12.86,6.57-21.13-1.64-8-3.31-15.94-7.27-23.2a160.09,160.09,0,0,1-.18-24.58c.74-13.29,2-26.55,3-39.81,1.43-18.58,2.53-37.18,3.91-55.76,2-27.61,2-55.23,1.76-82.86-.18-24.14-4.44-47.69-11.55-70.74-.2-.63-.38-1.28-.64-1.89a65.48,65.48,0,0,1-4-38.1c2.25-12.43,3-25.12,4.27-37.7.17-1.66.25-3.34,1.24-4.77,1.77-1.56,2.36,0,2.75,1.23,1,2.93,3.2,4.56,5.69,6a804.27,804.27,0,0,1,90.21,60.83c14.83,11.57,29,24,42.86,36.67a510.54,510.54,0,0,1,65.39,72.6c26.41,35.52,47.52,73.92,61.26,116.12a318.13,318.13,0,0,1,11.11,43.53c.28,1.6.24,3.33,1.4,4.78,2.07-.19,2.94-2,4.17-3.22,11.35-11.26,22.6-22.61,34-33.86C1995.72,1275.67,1997,1273.33,1999.88,1274Z"/><path class="cls-2" d="M1999.88,1274l-38,37.57c-1.07,1.06-2,2.21-3.2,3.16s-1.75,3-3.44,2.26c-1.19-.48-1.14-2.24-1.37-3.57-1.52-8.83-3.47-17.56-5.71-26.24a370.91,370.91,0,0,0-34.25-85.41,475.9,475.9,0,0,0-44.63-66.57,317.22,317.22,0,0,0-23.25-26.63c-6-6-11.47-12.51-17.55-18.41-15.49-15-31.74-29.21-48.5-42.85-29.2-23.76-60.55-44.34-92.56-64-1.85-1.13-3.77-2.14-5.72-3.08-3.52-1.71-5.33-4.35-4.83-8.36-2.15-2.17-1.85-5-1.57-7.54,2-19,3.19-38.13,4.52-57.21.65-9.28.91-18.6,1.75-27.88,1.46-5.14,1-10.36.6-15.58-.14-15-.18-30,0-45,.46-4.45.76-8.91-.43-13.32-1.78-14.18-2.35-28.5-5.14-42.58a230.06,230.06,0,0,0-6.09-22.63c-2.17-6.17-5-12.09-7.23-18.23-.85-2.29-1.92-4.56-1.16-7.12,2.33-4,6.51-6.1,9.84-9s6.56-6.12,9.81-9.22c7.09-6.79,8.53-15.24,8.14-24.62-.43-10.1-2-20.17-1.09-30.33,1.46-5.34,0-10.6-.58-15.84-3.11-26.91-6.1-53.84-10.83-80.53-4.14-23.43-18.88-34.45-42.45-31.74-4.88.57-9.61-.43-14.38-1-3.06-.37-4-2.51-4-5.34,0-5.81-.21-11.63.13-17.44a4.76,4.76,0,0,1,.54-1.52c5-4.69,11.27-7.59,16.39-12.18,15.07-13.52,24.52-30,27.65-50.11,2.35-15,.92-29.88-1.91-44.66-1.25-6.56-1.48-6.55,5-7.79a11.11,11.11,0,0,0,7.21-4.07c1.48-2,1.23-3.4-1.56-3.66a29.73,29.73,0,0,1-3-.28c-4.2-.83-5.06-2.26-3.27-6.21,1.52-3.37,2.18-6.65.37-10.06-1.64-3.1-3-3.16-4.83-.18-1.2,2-2,4.2-3.3,6.17-3,4.62-5,4.81-8.19.36a81.22,81.22,0,0,0-19.46-19.9c-16-11.28-33.86-15.35-53.37-14.29-12.85.71-25.15,2.67-36.54,8.83q-35.34,19.09-41.83,58.77c-.22,1.31-.29,2.65-.57,4a45.31,45.31,0,0,0,.34,17.71c.66,15.36,1.66,30.69,2.36,46a24.27,24.27,0,0,0,.53,10.52,41.78,41.78,0,0,1,.4,8.87,24.44,24.44,0,0,0,.64,10.35,45.3,45.3,0,0,1,.45,7.89c.13,5.77.36,5.81,6.3,6.13,8.93.48,17.76-1.12,26.67-1a24.19,24.19,0,0,0,10.4-.59c7-.36,14.07-1.1,21.13-.52,3.49,3.09,2.53,7.09,1.51,10.61s-4.59,2.55-7.32,2.75c-5.83.41-11.56-.95-17.38-1.06-18.31-.36-32.24,6.85-42.45,22.23-12.7,19.14-23.39,39.41-34.71,59.34a14.3,14.3,0,0,0-1.46,4.73c-4.54,10.94-11,20.85-16.72,31.16-2.28,4.12-3.28,9.23-7.91,11.82-3.78.79-7.13-1.17-10.71-1.7-4.48-.65-8.33-.14-10.62,4.31-1.62,3.16-4.18,2.6-6.89,2-3-.66-6.21-1.82-8.75,1.25-1.86,1.8-4,1.09-6.1.64-5.84-1.26-11.51-3.16-17.32-4.55-1.56-.37-3.11-1.1-5.15-.52a55.07,55.07,0,0,0,2.49,9.63c2.9,9.52,5.56,19.11,8.26,28.68.53,1.87,1.41,3.8.13,5.75a5.72,5.72,0,0,1-3.31.94c-2.93.25-4.26,2.14-3.94,4.75,1.6,13.21.75,26.63,3.24,39.76a33.9,33.9,0,0,0,12.17,20.65c3,2.44,6.19,4.52,10.15,5.05,1.66.22,3.31.58,4.35,2.12,3,8.1,4.88,16.55,7.36,24.81,1.19,4,3.39,6,7.33,7.09,21.23,6.06,42.43,12.25,63.65,18.39,2.21.64,4.58,1,6.2,2.93a4.17,4.17,0,0,1,.57,2.44,39,39,0,0,0-.25,11.06,56.89,56.89,0,0,1-.38,10.68c-1.35,4.7-.89,9.47-.58,14.24,0,5.55.39,11.1-.36,16.64-1.76,6.91-.58,13.94-.85,20.91a4.65,4.65,0,0,1-1.54,4.24c-6.68-1.95-13.43-3.71-20-5.91-26.8-8.91-54-16.67-81.33-23.57-35.34-8.91-71-16.59-106.94-22.73q-34-5.8-68.18-10.56c-16-2.25-32.27-3.24-48.35-5.29-17.91-2.29-36-2.79-53.9-4.79-5.59-.62-11.28-.78-16.87-.91-13.79-.33-27.6-.8-41.34-1.46-30.63-1.47-61.23-.52-91.84-.62-17.58-.06-35.18,1-52.73,2.07-5.12.33-10.24.69-15.38.79-.83.76-1.9.48-2.85.62-6.47,1-8.53-.43-9.76-6.74-1.27-6.53-2.69-13-4.4-19.46-4.92-18.48-13.08-35.52-22.66-52-1.25-2.15-2.65-4.25-2.74-6.88-.11-3.34-.06-6.67-.06-10q0-303.84,0-607.69c0-2.82.24-5.67-.63-8.42-2.3-14.21-9.23-25.13-22.38-31.73-4-2-7.84-4.41-11.75-6.65q-20-11.4-39.86.06Q692.7,117,611.58,163.89q-87.65,50.63-175.31,101.22C391,291.29,345.61,317.33,300.4,343.65c-12.36,7.2-18.74,17.93-18.74,32.45q.06,216.2,0,432.39c0,3.22,1,6.72-1.62,9.54-1.6-1.44-3.28-2.8-4.8-4.32Q140,678.58,4.89,543.42C3.36,541.9,1.7,540.51.1,539.07Q.1,272.13,0,5.19C0,1.15.61,0,5,0q995,.2,1990,0c3.88,0,5,.53,5,4.76Q1999.8,639.4,1999.88,1274Z"/><path class="cls-3" d="M850,736.08c8.9,15.17,17.27,30.6,22.63,47.44,3.17,9.91,6.06,19.92,7.36,30.3.42,3.34,2.19,5.07,5.52,5.19,1.83.06,3.65,0,5.48,0a8.12,8.12,0,0,1-5.52,1.94c-4-.07-4.68,1.86-4.29,5.4a201.78,201.78,0,0,1,1.72,21.78q.21,98.24.08,196.47c0,1.33,0,2.66,0,4,0,3.49,1.54,4.08,4.4,2.44q18.57-10.71,37.16-21.4,31.06-18,62.12-36c20.15-11.64,40.36-23.18,60.51-34.8q31.52-18.2,63-36.48c9.19-5.34,18.16-11.13,28.73-13.56,20.11-4.64,38.65-1.32,56.3,9.57a214.77,214.77,0,0,1,47.47,40,202.66,202.66,0,0,1,34.48,54.55,210.28,210.28,0,0,1,15.52,57.47,122.32,122.32,0,0,1,1.34,15.85c-.1,82.82-.28,165.64,0,248.46a198.8,198.8,0,0,0,17.75,81.12,204.71,204.71,0,0,0,44.09,63.46c13.6,13.3,29.06,24.17,45.65,33.51,18.1,10.19,36,20.79,54,31.17q31.1,18,62.21,35.85,30.23,17.43,60.45,34.9c11.79,6.82,23.56,13.68,35.38,20.46,1.8,1,3.62,1.85,3.34,4.38-.63,2.23-2.75,2.78-4.42,3.75-42.31,24.66-84.8,49-127.2,73.5l-131.11,75.73c-35.63,20.57-71.31,41-106.89,61.71a19.69,19.69,0,0,1-5.46,2.43c-2.15.28-3.85-.81-5.58-1.81q-99.43-57.53-198.93-114.91c-17.74-10.25-35.54-20.31-51.1-33.89a204.56,204.56,0,0,1-44.08-53.83,208.71,208.71,0,0,1-25-72.3,159.44,159.44,0,0,1-1.62-28.88q0-122.52,0-245a23.11,23.11,0,0,0-.5-6.43c-1.89-15.53-3.83-31.06-8.46-46.11-9.61-31.25-25.37-58.88-48.12-82.49a206.76,206.76,0,0,0-42.79-34.21c-19.74-11.81-40.29-13.78-61.78-5.39-1.83.72-3.64,1.75-5.75,1-2.46-1.7-2.59-4.51-3.25-7-1.51-5.78-2.82-11.62-5.77-16.9-4.08-7.3-9.84-9-17-4.7s-11.83,10.53-15.64,17.65a36.92,36.92,0,0,1-1.76,3.57c-3.22,2.72-4.87,6.36-6,10.3-14.3,12.87-18.5,30.61-23.25,48.12-3.22,11.85-7.86,23-17.57,31.2-2.64,2.24-5.13,4.8-8.94,5-3.06-.78-3.79-3.45-4.66-5.92-2.1-5.91-4-11.89-6.05-17.81-2.94-8.38-7.94-14.35-17.32-15.47-1.9-1.65-2.16-4.06-2.88-6.25-1.19-3.64-2.45-7.24-3.88-10.8-2.38-5.89-7.25-7.83-12.89-8.78-4.06-3.87-6.34-3.46-8.81,1.6-.65,1.33-1,2.8-1.69,4.11a11.57,11.57,0,0,1-2.16,2.75c-16.93,15.35-23.1,35.55-25.86,57.31-1.85,14.58-.65,29.23-1,43.84-.08,3.15.16,6.32-.41,9.45a19.82,19.82,0,0,0-.2,10.8c1,5.88,0,11.86,1,17.78.6,3.64,1.84,4,4.81,2.22,9.4-5.53,18.81-11,28.35-16.33A25.29,25.29,0,0,0,599,1286q49.24-28.41,98.47-56.86c2.18-1.25,4-3,6.15-4.24,2.67-1.52,5.59-3.43,8.42-.06a38.18,38.18,0,0,1,.19,15.06c-.9,2.38-3,3.44-5.05,4.59-51.45,29.17-102.61,58.84-154,88.1a18.12,18.12,0,0,0-4.1,2.87c11.52-6.21,22.79-12.85,34.15-19.34q60.09-34.33,120.18-68.72c2.43-1.39,5.07-5.26,8.65-1.46a37.83,37.83,0,0,1,.15,15c-1.35,3-4.37,4-6.9,5.46q-74.13,42.9-148.32,85.7c-1.5.86-3.44,1.28-4.13,3.35,2.14.57,3.52-.87,5-1.74Q629.4,1312.3,701,1271c1.88-1.08,3.76-2.17,5.71-3.09s3.82-1.51,5.25.82c1.21,4.37.95,8.77.25,13.17-.65,2.09-2.37,3.11-4.11,4.12q-71.55,41.32-143.1,82.63c-2.11,1.22-4.52,2.08-6.19,4.58,2.07.4,3.31-.79,4.63-1.55q69.84-40.28,139.69-80.55c2.36-1.36,4.82-4,7.68-2.22,2.63,1.6,1.45,4.86,1.56,7.43a24.7,24.7,0,0,1-.31,7,6,6,0,0,1-.62,1.34c-6.8,5.71-14.88,9.38-22.46,13.79-39.42,22.92-79,45.54-118.42,68.42a8.87,8.87,0,0,0-3.37,2.76c2.07.35,3.41-.62,4.75-1.39,44-25.34,87.85-50.83,131.88-76,2.35-1.35,4.81-5,8.18-1.32a33.77,33.77,0,0,1,.16,14c-1.14,2.68-3.68,3.71-6,5q-61.4,35.52-122.83,71c-2.26,1.31-4.68,2.46-6.31,4.72,5.35-1.29,9.76-4.5,14.37-7.17,37-21.48,74.15-42.76,111.16-64.24a29.16,29.16,0,0,1,4.9-2.46c1.84-.64,3.63-1,4.64,1.34a92.82,92.82,0,0,1,.1,23.61c-.77,2.3-2.88,3.09-4.73,4.18-31.18,18.25-62.57,36.13-93.81,54.27a49,49,0,0,0-5.84,3.84c-5.05,4-7.37,9.13-5.89,15.4,1.51,6.45,6.56,9.59,12.59,10.64a32,32,0,0,0,22.19-3.73c21.72-12.66,43.56-25.11,65.29-37.76,2.66-1.55,5.18-3.81,8.7-3a3.9,3.9,0,0,1,1.72,3.44c-.06,16.44,2.1,33.09-3.43,49.07-9.24,26.73-28.72,41.6-55.87,47.26a10.17,10.17,0,0,1-3.48.11c-4.17-.13-8.34,0-12.5,0-12.14.06-22.72-4.75-32.76-10.88-34.29-20.94-60.26-49.57-78.38-85.39-2.41-4.76-4.18-9.81-6.48-14.62a192.53,192.53,0,0,1-14.17-61.69,24.33,24.33,0,0,1,.15-5q.15-129.77,0-259.5a17.37,17.37,0,0,0-.4-4.44c-1.42-10.71-2-21.52-4.15-32.16C489.2,969.29,458.35,924.89,409.26,893c-7.23-4.7-7.24-5.89.18-10.17q128.74-74.29,257.44-148.64Q719,704.05,771.18,674c2.94-1.69,5.65-4.31,9.54-3.78,6,2.87,11.32,7,16.91,10.58,4.81,3.57,9.53,7.25,14,11.23,4,2.64,6.75,6.69,10.8,9.25a17.72,17.72,0,0,1,4.23,3.58c4.4,7.31,11,12.93,15.7,20,2,3,4.5,5.77,6.34,9A4.82,4.82,0,0,0,850,736.08Z"/><path class="cls-4" d="M848.05,734.91a216.48,216.48,0,0,0-21.3-26.7c-1-1-.48-2.17-.91-3.18-1.78-2.86-1.56-6.06-1.56-9.22V243a66.52,66.52,0,0,0-.2-8c-.88-7.39-6.56-10.86-13.24-7.7-9.64,4.57-18.68,10.28-27.91,15.61Q674.75,305.39,566.5,367.81,471.92,422.41,377.33,477c-13.21,7.62-19.57,18.84-19.57,34.07q0,417.61,0,835.24c0,3.68.12,7.35,1.59,10.8,2,4.66,5.53,6.32,10.47,5a29.68,29.68,0,0,0,7.25-3.3q55.13-32,110.37-63.75c3-1.71,5.72-4.16,9.54-3.84,2.73,1.14,2.61,3.64,2.69,5.93.18,5,.17,10,.05,15-.7,28.58,5.28,55.86,15.9,82.25,1,2.41,2.62,4.83.39,7.43q-56.62,32.61-113.23,65.24c-16,9.22-31.93,18.51-47.95,27.68-13.25,7.6-26.55,7.45-39.78-.13-5.19-3-10.41-5.91-15.55-9-12.76-7.61-19.38-18.82-19.38-33.74q0-313.7.09-627.4c0-2.16-.14-4.32-.21-6.48s.16-4.33.16-6.49q0-220.71.16-441.42c0-7.81,4.61-14.43,9.64-20.36,5.93-7,14.47-10.24,22-14.78,18.39-11.08,37.23-21.39,55.84-32.11q32.28-18.58,64.48-37.35,36.84-21.37,73.67-42.74c17.07-9.85,34.27-19.48,51.34-29.33,22.25-12.84,44.42-25.84,66.67-38.69,16.26-9.39,32.63-18.58,48.88-28C693,115.13,713,103.31,733.15,91.68c14.58-8.43,29-17.23,44-24.84,12-6.11,24.6-5.35,36.5,1.5,5,2.87,9.8,6.1,14.93,8.68,12.51,6.26,18.06,17.11,20.61,30.1.61,1.79.31,3.64.31,5.45q0,308.46-.07,616.9C849.41,731.22,851.13,733.79,848.05,734.91Z"/><path class="cls-5" d="M1489.79,836l.21-10.86c1.12-3.65-.14-7.46.73-11.13l.22-1.86c2.3-1.46,4.51-.29,6.68.3,12.81,3.43,25.41,7.6,38.25,10.9,1.55.39,3.09,1.29,5.26.46-1.31-7.94-3.69-15.67-5.47-23.53-1-4.33-2.84-8.53-2.25-13.14.76-1.71,2.32-2.3,3.93-2.74,18.43-5,34.76-14.61,51.31-23.71,3-1.67,6-3.62,9.52-4.09,22.74-2.15,44.82-6.76,65.42-17.12,2.5-1.26,5.34-4.24,8.31-.46,7.5,21.36,9.48,43.64,11.15,66,1,4.34-.37,8.82.78,13.15q0,22.83,0,45.67c-1.13,5,.18,10.13-.7,15.15-.8,14.37-1.44,28.74-2.44,43.09-1.16,16.6-3.21,33.14-3.85,49.78q-1.92,16.56-3.84,33.13c-.76,6.61-1,13.32-2.33,19.82s-.21,12.52,2,18.54c13.93,38.36,16.8,78.09,15.55,118.51-1.12,36.45-3.59,72.81-6.37,109.15-.84,11-2.12,21.86-3.19,32.79a6.69,6.69,0,0,1-3.18,3c-10.44,4.45-21,5.13-31.79,1.27a6.81,6.81,0,0,1-3.76-3c-4.63-26.37-9.35-52.71-13.86-79.09-5.94-34.74-11.71-69.51-17.55-104.27-6.51-38.71-12.49-77.5-16.72-116.54-3.86-35.56-8-71.1-12-106.65-.18-1.62-.66-3.2-1.25-5.92-2.86,23.32-5.6,45.48-8.3,67.64-3.15,25.93-6.23,51.87-9.44,77.79a20.24,20.24,0,0,0,.74,7.82c4.9,18.48,10.6,36.86,9.18,56.34-1.39,19.1-4.21,38-7.26,56.92-6,37.42-13.32,74.62-20.66,111.8-2.15,3.15-5.61,3.36-8.84,3.6a232.45,232.45,0,0,1-23.76.15A7.85,7.85,0,0,1,1504,1272c-2.06-36.22-4-72.44-6.19-108.64-2.85-48-6.12-96-8.64-144-2.06-39.25-1.54-78.57-1.08-117.86,0-3.16-.12-6.32-.18-9.48l.11-3.82c1.11-7-.18-14.12.7-21.15l.3-16.84C1490.18,845.54,1488.75,840.72,1489.79,836Z"/><path class="cls-6" d="M908,1368c-8.14,3.42-15.4,8.45-23,12.79-25.28,14.36-50.4,29-75.57,43.55q-33.43,19.32-66.86,38.68-23.73,13.73-47.46,27.44c-1.27.74-2.56,1.64-4.18,1.4,0-3.89,3.13-5.73,5.43-7.95a70.52,70.52,0,0,0,20.09-36.71,100.27,100.27,0,0,0,2-21.34c0-77.46.49-154.91-.19-232.36-.4-45.84,50-78.49,92.69-53.68,47.66,27.72,78.26,68.79,92.85,121.9,5.12,18.63,6.37,37.72,6.91,56.87.4,14,.14,28,0,42C910.61,1363.25,911.27,1366.39,908,1368Z"/><path class="cls-5" d="M516,1401.84c.46-3.24-1.63-5.66-2.69-8.41a225.86,225.86,0,0,1-14.49-59.12c-1.22-12.3-.29-24.55-.83-36.8-.08-1.92.67-4-1.15-5.62-.91-1.84-.07-3.78-.36-5.66a58.26,58.26,0,0,1-.15-7c0-70.92.32-141.84-.12-212.76-.29-47.66-15.86-90.11-46.66-126.68a162.82,162.82,0,0,0-19.15-19.63c-3.09-2.63-5.59-2.79-8.91-.82-8.59,5.1-17.36,9.89-25.95,15-2.42,1.43-4.76,3.13-7.76,3.14-2.51-.89-2.17-3.16-2.18-5-.12-16.66,0-33.31-.09-50,0-5.19,3.51-7.13,7.14-9.26,21-12.27,42.08-24.36,63.14-36.51q51.92-30,103.79-60,69-39.76,138-79.63c37-21.25,73.74-42.77,110.78-63.85,2.09-1.19,4.56-3.69,6.76.1a18.65,18.65,0,0,1,.69,6.43c0,15.15.11,30.3-.06,45.45,0,3.47,0,7.29-4.9,7.92L797,681.93c-2.67-4.28-1.17-9-1.47-13.58s-.44-4.66-4.48-2.49c-3.33,1.79-6.3,4.28-10.06,5.23-6.38,1-11.23,5.3-16.56,8.35-38.16,21.8-76.15,43.92-114.19,65.93q-56,32.39-111.94,64.76-44.47,25.68-89,51.26c-15,8.63-29.89,17.34-45,26.12.79,2,2.81,2.49,4.38,3.47,44.59,28.14,74.54,67.32,89.53,118,4.65,15.74,6.75,31.83,8.15,48.09a25.92,25.92,0,0,1,.22,6q0,127.58,0,255.16c0,2-.46,4,.44,5.9.17,21.25,5.26,41.48,12.56,61.27.56,1.52,1,3.09,1.48,4.63-.91,2.42-1.55,4.64-.39,7.4.94,2.23,1.12,5.24-2.76,5.67Z"/><path class="cls-5" d="M517.89,1403c1.9-1.7,3.12-3.9,1.38-6.06-2.72-3.4-1.25-5.29,1.77-7,8.07,18.61,18,36.15,30.87,51.86,18.06,22,39.19,40.23,65,52.64a41.07,41.07,0,0,0,19,4.54,44.63,44.63,0,0,0,14.22,0c12.44-.58,23.07-6.22,33.09-12.77,11.12-7.26,18.28-18,23.32-30.19a57.76,57.76,0,0,0,4.36-19.33c.56-11.47.21-23,.18-34.47,0-.52-.65-1-1-1.55.22-12.85.11-25.7.14-38.56a14.84,14.84,0,0,1,.83-4.34q0-12.91,0-25.82c-1.71-2-1.64-4,0-6l0-15.91c-1.82-2-1.16-4,0-6.09h0c.7-5.48,1.58-11-.65-16.32-.72-1.75-.16-3.2.69-4.66l0-15c-1.72-2-1.64-4-.06-6.07l0-16.89a3.06,3.06,0,0,1,0-4.11l0-17.06a5.61,5.61,0,0,1-1.52-4.11c-.36-13.32-.53-26.7,1.72-39.85a63.84,63.84,0,0,1,21.32-38A69.25,69.25,0,0,1,743,1133.7c1.5-1,3.06-2,5-1.5,9.16-3.79,18.48-6.78,28.53-7.24,16-.73,30.16,4.35,43.43,12.8,32.56,20.73,57.66,48.19,75,82.7,10.28,20.47,16.53,42.17,19.87,64.76.63,4.23.9,8.52,1.34,12.79a23.8,23.8,0,0,1,.25,6q0,121.6,0,243.21c0,2-.44,4,.43,5.91-.51,33.6,8.44,64.85,24.12,94.23,18.69,35,45.73,62,80.15,81.74,48.94,28.13,97.71,56.56,146.57,84.85q35.45,20.52,71,40.95c.91.52,1.87,1.54,3.19,1,2.55,2.77,1.61,5.94,1,9.07-1.81,1.83-3-.08-4.27-.8q-61.35-35.34-122.64-70.75c-35-20.18-70.38-39.65-104.82-60.7-53.78-32.86-86.53-81-99.23-142.66-3-14.39-3.91-29-3.89-43.67q.12-86.17,0-172.36c0-2-.1-4-.15-6,.83-1.54.71-3.23.71-4.89,0-17,.24-34-.06-51-.38-21.73-3.4-43.08-10.64-63.69-16.51-47-46-83.28-89.31-108-38.3-21.83-87.69,5.83-88.59,49.87-.73,36.14-.19,72.32-.2,108.48,0,39.66-.75,79.34.25,119,.73,29.29-6.25,54.61-29.26,74.08-12,8.72-25.05,14.81-40.06,16.27-19,1.86-36.06-3.32-52-13.39a214.53,214.53,0,0,1-80-89.36A23.15,23.15,0,0,1,517.89,1403Z"/><path class="cls-4" d="M1242.94,1864.92c-2-2.85-.53-6.07-1-9.07q25-14.46,50-28.92c18.19-10.56,36.31-21.26,54.54-31.77,16.45-9.49,33-18.74,49.5-28.24,15.86-9.15,31.58-18.55,47.43-27.73,16.26-9.41,32.61-18.63,48.88-28,18.32-10.58,36.57-21.27,54.9-31.85q23.77-13.72,47.66-27.32c7.32-4.18,14.7-8.28,22.05-12.41,2.54,6.13,1.8,8.7-3.34,11.66l-367.94,212.39C1244.76,1864.14,1243.84,1864.5,1242.94,1864.92Z"/><path class="cls-7" d="M1639.91,1305.05c13.11,5.82,26,4.9,38.73-1.23q.15,13.1.29,26.19c2,3.08,1,6-.35,9-3.49,7.46-8.45,14-13.44,20.39-8,10.23-14.77,21.47-24.41,30.29s-20.64,14.6-34.23,13.78c-.5,0-1,0-1.49-.07-8.49-.7-11-5.31-7-12.7,4.35-3.82,9-7.3,13-11.51,17.65-18.88,29.91-40.17,28.83-67.14C1639.79,1309.71,1639.9,1307.38,1639.91,1305.05Z"/><path class="cls-7" d="M1504,1272c13,1.74,25.93,2.37,38.77-1.11q.12,10.59.26,21.18c1.56,2.71,1.27,5.4-.06,8.1a37.78,37.78,0,0,1-2.26,4.44c-10.9,16.5-21.92,33-36,47-9.24,9.26-20.45,14.71-34,13.84-.67,0,.17,0-.5,0-8.79-.37-11.22-3.51-9.14-11.77,7.2-6.85,15.72-12.42,21.59-20.53C1495.89,1315,1506,1295.53,1504,1272Z"/><path class="cls-8" d="M1461.1,1353.69c.25.2.71.4.71.58-.42,8.3,1,9.74,9.63,9.91,16.39.33,28.65-7.86,38.42-19.84a438.49,438.49,0,0,0,29-39.25c2.56-4,4.41-8.16,4.17-13,1.88.86,2.39,2.68,3,4.39a130.46,130.46,0,0,1,5.21,21.75c.94,6.2-.73,11.4-5.26,15.31-10,8.62-16.89,19.44-23.72,30.54-12.78,20.77-39.73,31.82-63.58,26.82a40,40,0,0,1-6.66-2.05c-9.47-3.84-11.23-9.17-5.91-17.89C1450.09,1364.34,1455.62,1359,1461.1,1353.69Z"/><path class="cls-8" d="M1598.06,1390.69c.6.6.2,1.17,0,1.79-2,5.83-.17,8.79,6,9.47a39.52,39.52,0,0,0,21.75-3.72,55.27,55.27,0,0,0,20.08-16c9.24-11.93,18.07-24.17,27-36.33,3.48-4.73,6.07-9.85,6.06-15.94,1.59.6,2.13,2.09,2.6,3.45a124.32,124.32,0,0,1,5.5,22.21,17.75,17.75,0,0,1-6.58,17.32c-9.32,7.67-15.36,17.68-21.54,27.79-13.94,22.81-43,34.37-67.24,27.27-14-4.1-16.25-10.66-7.56-22.44C1588.17,1400.09,1593.11,1395.39,1598.06,1390.69Z"/><path class="cls-1" d="M1617.91,489c0,6,.13,12,0,18-.08,3,1,4,4,4.15,5.94.37,11.83.17,17.76.13,23.24-.16,35.5,11.75,39.36,33.32,3.62,20.21,5.81,40.6,8.7,60.9,1.52,10.64,2.11,21.41,3.37,32.1a6.6,6.6,0,0,1-1.25,4.56,10.38,10.38,0,0,1-4.43,3.14c-13.77,5.71-28,8.55-42.92,6.46-6.57-.92-6.61-.73-5.62,5.67,2.7,17.56,4.53,13.18-9.43,24.94a574.82,574.82,0,0,1-69.77,50.07c-8.05,4.93-16.21,7.79-25.53,4.22-3.76-1.44-8-.28-11.66-2.34-2.46-2.78-2.76-6.38-3.5-9.75-3.13-14.33-7.31-28.41-10.21-42.79-.94-4.66-3.16-7.31-7.89-8.31-4.23-.9-8.41-2.09-12.6-3.2-1.92-.52-3.93-.86-5.38-2.42-1.7-2.7,0-4.79,1.36-6.84,5.09-8,10-16.17,15-24.21,3.87-6.18,3.32-7.58-3.66-9.84-15.19-4.92-25.8-14.68-31.51-29.66-1-4.37,2.19-7.2,4-10.42,10.44-18.71,20.33-37.74,32.58-55.39,7.13-10.26,15.61-18.57,28.47-21,8.2-1.55,16.42-2.28,24.71-.66a18.52,18.52,0,0,0,3,.23c11.15.31,11.15.31,11.08-10.9l.78-.17c3.21,5.21,2.41,10.52-.22,15.5s-5.52,9.86-8,15a41.66,41.66,0,0,0-2.85,7.44c-2.55,9.6,1.09,14.72,11,15.52,16.36,1.32,28.49-6.09,38.13-18.54,7.35-9.48,12.25-19.75,10.66-32.24a36.93,36.93,0,0,1,.06-8.47C1615.64,491.53,1615.23,489.3,1617.91,489Z"/><path class="cls-5" d="M1494.73,392.1a78.4,78.4,0,0,1,20-45.24c15.41-17.29,34.54-25.68,57.58-27,13-.73,25.66.05,37.85,4.43a75.81,75.81,0,0,1,39,30.72c2.89,4.48,4,2.58,5.66-.36,1.42-2.56,2.63-5.25,4-7.82,2.18-3.94,3.54-3.91,6-.1,3.65,5.71,2.4,10.92-1.67,15.83,2.5,2.21,5.4,1.53,8.08,1.43,4.33-.15,4.42,1.68,2.72,4.82-2.18,4-5.78,5.71-10.08,6.2a44.37,44.37,0,0,1-4.63,0c4.12,12.82,4.78,25.88,4.57,38.86-.34,20.93-7.36,39.55-21.49,55.34a79.14,79.14,0,0,1-24.36,18.92c-1.33-1.05-1.49-2.57-1.52-4.07-.14-7.33-.29-14.66,0-22,.2-4.41,1.54-5.13,5.78-3.85,9.34,2.81,17.75-.31,22.57-8.93a30.22,30.22,0,0,0,2.49-25.11c-3.19-9.57-13.41-13.46-23-9-1.8.84-3.36,2.21-5.41,2.51-5.81-.7-11.54,1.76-17.36.43-9.38-5.83-13.56-15.21-16.86-25.1a99.85,99.85,0,0,1-3.52-16.33c-2.94,2.44-5.14,4.89-7.74,6.83-10.54,7.89-22.74,10.69-35.48,12-6,.63-12,1-17.71,2.86s-9,5.53-8.85,11.75c-.3,2-2,2.9-3.25,4.19-6,6.43-6,14.73,0,21.25,1.31,1.43,3.15,2.47,3.62,4.58,1.38,9.37,2.74,18.74,6,27.71a46.49,46.49,0,0,0,3.63,8.19c5.88,9.72,13.64,15.66,25.85,13.52,4.08-.71,8.23-1.14,12.32-1.83,6.93-1.16,8.74.59,7.9,7.65a4.94,4.94,0,0,1-1.5,3.57l0,.14c-7.28,1.37-14.67.4-22,1.05-3.32,1-6.83-.35-10.14.78-10.15.36-20.32.53-30.46,1.16-4,.24-4.68-1.26-4.45-4.74.25-3.77-.07-7.57-.14-11.36-.85-3.34.36-6.82-.73-10.14l-.27-8.86c-.85-3.33.36-6.82-.73-10.13-1.18-9.79-.39-19.68-1.9-29.48-.87-5.68-.3-11.58-.38-17.38A117.17,117.17,0,0,1,1494.73,392.1Z"/><path class="cls-9" d="M1480.7,666.92c7.32,2,14.59,4.27,22,6,3,.68,3.93,2,4.59,4.76,4.48,18.79,9.17,37.53,13.8,56.28a11.49,11.49,0,0,1,1.85,2.94c2.29,6.28.71,8.73-6,8.81-14.46.17-28.89.32-43.24-2.23-9.9-1.75-14.63,3.33-12.48,13.23,3,13.87,10.67,23.74,24.84,27.79,12.2,3.5,24.59,3.35,37.08,2.39,3.52-.26,7.13-2,10.6.29,3.73,13,6.77,26.07,9.84,40l-52.6-15c-24.29-7.05-48.58-14.14-72.91-21.1-1.89-.54-3.35-1-4-3-2.78-9.7-6.25-19.2-8.14-29.14,1.91-2.32,4.74-2.17,7.3-2.61,6.41-1.1,12-3.5,16.36-8.62,6.69-7.89,4.69-17.15-5-20.83-7.9-3-16.08-5.16-23.69-9-6.78-3.46-11.55-8.08-12.92-15.88-1-5.67-3.86-10.92-4.23-16.78q-5-17.83-10-35.66c-1-3.55-2-7.09-3.23-11.23,9.79,2.51,18.83,4.78,27.83,7.2,1.22.33,2.15.85,2.93-.51,4.72.95,9.29,2.5,14,3.68a8.6,8.6,0,0,1,4.24,2.54c1.14,1.22,2.39,2.53,1.69,4.37-.63,1.65-2.33,1.6-3.78,2-2.08.52-5.57-1-5.86,2.14s3.32,3.17,5.6,3.81c14.27,4,28.65,7.53,43,11.25,1.43.37,3.54,1.76,4.36-.35.67-1.75-1.39-2.79-2.69-3.77a33,33,0,0,0-7.13-3.55c-2.11-.88-4.88-1.69-4-4.75.82-2.74,3.55-2.84,5.89-2.55,5.29.67,10.28,2.72,15.51,3.71C1475.19,664.1,1478.36,664.48,1480.7,666.92Z"/><path class="cls-7" d="M1533.71,787.14a135.53,135.53,0,0,1-30.17,1.81,87.77,87.77,0,0,1-17.62-2.72c-16.1-4.24-24.15-16.27-26.79-31.66-1.62-9.45,4.41-14.66,14-12.84,16.41,3.1,32.95,2.51,49.56,2.24,0-3.7-2-6.69-1.63-10.05,4.34,0,8.72,0,12.78,1.62,7.61,3,14.42.88,20.85-3,25.09-15.34,48.71-32.7,71.8-50.94,9.19-7.26,12.31-13.84,8.74-24.78-2.24-6.86-1.38-7.72,5.7-6.61,17.26,2.7,33.18-1.72,48.89-8,.65,10.69,1.58,21.37,1.88,32.07.24,8.59-1.87,16.47-8.33,22.9A239.66,239.66,0,0,1,1662.86,715a12.68,12.68,0,0,1-4.84,5.54c-17.66,12.83-36.22,24.25-55,35.25a26.62,26.62,0,0,1-5.11,2c-6.51,2.49-12.25,6.45-18.3,9.81C1564.94,775.65,1550,782.89,1533.71,787.14Z"/><path class="cls-7" d="M1565.92,499c1.19-10.81,1.2-10.75-9.16-9.08a133.8,133.8,0,0,1-13.79,1.7c-8.48.48-15.23-3.15-19.93-10-8.54-12.51-11.84-26.66-12.15-41.63,1.62-.86,3.24-.37,4.86,0,13.15,2.83,22-5,21.09-18.54a5.53,5.53,0,0,1,2.21-5.23c5.84-4.34,15.36-.37,16.31,6.82,1.18,8.89,6.3,14.18,14.1,14.57,10.61.52,16.81-3.89,19-13.52,1-4.4,2.83-5.52,8-5.5,4.24,0,5.92,2.14,6.17,6.12.31,5,2,9.42,6.48,12.32,1.25.82,2.64,1.74,4.16,1s1-2.31,1.08-3.59c.15-2.84-.56-5.62-.73-8.44-.25-4.16.86-7.6,5.36-9,9.09-9,24.68-6.24,29.33,5.46,4.13,10.43,2.87,20.66-3.43,29.87s-13.72,10.62-26.92,6.05v29.84c0,.28,0,.57,0,.85-2,4.3-1.23,8.94-.75,13.24,1.55,13.59-4.5,24.33-12.39,34.2-9.55,11.93-21.82,18.6-37.71,17.66-11.35-.67-16-6.46-13-17.45,2.18-7.93,6.37-15,10.63-21.93C1567.79,509.67,1567.4,504.42,1565.92,499Z"/><path class="cls-7" d="M1383.79,685.16c4,6.25,4.69,13.63,6.87,20.49a13.91,13.91,0,0,0,6,8,85.73,85.73,0,0,0,20.7,9.29c1.57.5,3.22.73,4.75,1.3,5.75,2.13,12,4,12.71,11.44.75,8.3-3.45,14.15-10.36,18.33-5.72,3.46-12.21,3.85-18.55,4.87a29.53,29.53,0,0,1-16.19-7.44c-9.06-8.19-11.93-18.89-12.65-30.29-.61-9.73-.78-19.48-2-29.16C1374.3,685.92,1377,683.91,1383.79,685.16Z"/><path class="cls-7" d="M1480.7,666.92l-8.87-2a27.2,27.2,0,0,0-15.26-8.76c-2-.43-3.92-1.2-5-3a31.73,31.73,0,0,0-11.43-11.58,2.06,2.06,0,0,1-1.23-2.46q9.87-17.62,19.72-35.27c1.19-2.14,2.3-4.32,3.45-6.49,3.21,2.58,4.15,6.66,6.5,9.83,7.07,9.53,16,16.18,27.63,19.13,5.85,1.48,6.69,3.93,3.53,9.17Q1490.27,651.21,1480.7,666.92Z"/><path class="cls-4" d="M1438.92,639.07c5.38,3.5,10.76,6.93,13.48,13.21,1.06,2.44,3.84,2.12,5.94,2.89,5.41,2,12,2.37,13.49,9.76-5.14-1.3-10.27-2.68-15.45-3.83-1.69-.38-4.12-.93-4.75,1.35-.74,2.66,2.06,2.56,3.58,3.13a38.28,38.28,0,0,1,9.67,5.11,5,5,0,0,1,1.79,6.24c-.89,1.89-3.07.27-4.45-.08-16.25-4.13-32.43-8.55-48.69-12.61-3.3-.82-4.59-2.66-4.45-5.54.16-3.6,3.25-2.39,5.36-2.75s5.54,1.16,5.73-.94c.26-2.87-2.8-4.44-5.82-5.06s-5.81-1.39-8.68-2.21c-1.7-.49-3.62-.75-4.36-2.78-.18-1.57-.28-3.09,2-2.89,2.11.18,4.22-.25,6.36.46,2.77.93,5.66,3.72,7.17-2.4.93-3.77,6.18-4.43,10.29-3.73C1431.12,637.08,1435,638.17,1438.92,639.07Z"/><path class="cls-1" d="M1597.86,757.72c11.08-6.91,22.18-13.78,33.23-20.72a370.5,370.5,0,0,0,31.77-22c1.79,8.49,6,16.08,9.05,24.08-2.08-2.11-3.58-.07-5.22.75A166.53,166.53,0,0,1,1597.86,757.72Z"/><path class="cls-1" d="M848.05,734.91c2-1.5,1-3.66,1-5.47q.09-309.92.05-619.83c0-.83,0-1.66.08-2.49,1.28,1.41.86,3.15.86,4.77q0,312.11,0,624.19A1.94,1.94,0,0,1,848.05,734.91Z"/><path class="cls-1" d="M1488.72,867.05c.12,7.06.3,14.13-.7,21.15C1488.09,881.15,1487,874.05,1488.72,867.05Z"/><path class="cls-1" d="M1494.73,392.1q0,9,0,18A39,39,0,0,1,1494.73,392.1Z"/><path class="cls-1" d="M1683.13,879c-.11-5.06-.32-10.14.7-15.15C1683.76,868.92,1684.82,874,1683.13,879Z"/><path class="cls-1" d="M1489.79,836c0,4.74.27,9.49-.77,14.17C1489.09,845.48,1488,840.68,1489.79,836Z"/><path class="cls-1" d="M1683.84,818.19c-1-4.34-.8-8.75-.78-13.15C1684.86,809.33,1683.75,813.8,1683.84,818.19Z"/><path class="cls-1" d="M1490.73,814.05c.15,3.74.28,7.47-.73,11.13C1490.08,821.46,1489.08,817.67,1490.73,814.05Z"/><path class="cls-1" d="M1497,456.93a30,30,0,0,1,.73,10.13C1496.15,463.78,1497,460.32,1497,456.93Z"/><path class="cls-1" d="M1498,475.92a30.36,30.36,0,0,1,.73,10.14C1497.15,482.78,1498,479.32,1498,475.92Z"/><path class="cls-1" d="M1533.78,501c3.33-1,6.73-.88,10.14-.78C1540.65,501.92,1537.18,501,1533.78,501Z"/><path class="cls-10" d="M810.9,693.14c1.3-1.56,3.31-2.35,3.28-5.12-.23-18.66-.21-37.32-.27-56-4.35-1.32-8.18-3.7-11.94-6.1-3.57-2.28-6.62-2.06-10.18,0q-41.43,24.21-83,48.06-77.07,44.4-154.09,88.9-89.76,51.9-179.58,103.71a8.25,8.25,0,0,0-4.59,8.06q.18,23.49,0,47c0,3.81,1.4,6.09,4.72,8,4.05,2.26,8.45,4,11.86,7.34,11.86-6.72,23.78-13.34,35.54-20.24,2.9-1.7,4.68-1.75,7.33.6,36.42,32.29,58.23,72.55,65.83,120.52a182.63,182.63,0,0,1,2.16,28.33q0,108.43,0,216.85c0,1.33-.13,2.66-.2,4-1.4,2.47-3.86,3.61-6.15,4.94q-57.3,33.22-114.7,66.24c-12.26,7.09-18.33,3.56-18.55-10.7,0-1.33,0-2.66,0-4q0-415.12-.05-830.25c0-8.37,1.26-16.22,5.72-23.43a33,33,0,0,1,11.88-11.16q46.65-27.15,93.47-54,109.08-63,218.16-125.95c39-22.5,78-44.89,116.87-67.49a48.15,48.15,0,0,1,6.68-3.39c6.1-2.37,10.94.3,12.31,6.79a31.83,31.83,0,0,1,.38,6.47q0,226.44,0,452.87c0,2.75.63,5.74-1.75,8-3.28-.05-4.19-3.25-6.34-4.81C814,695.92,812.47,694.48,810.9,693.14Z"/><path class="cls-11" d="M734.06,1142c-11.82,11.24-19.72,24.69-21.88,41-1.56,11.72-1,23.58-1,35.39,0,1.83-.13,3.65-.19,5.47-7,.17-11.25,5.7-16.71,8.73-23.27,12.93-46.19,26.51-69.24,39.86-7.3,4.23-14.57,8.51-21.86,12.75-1.27.73-2.42,1.8-4.06,1.64-1.81-.44-2.08,1.28-3,2.14l-34.28,20.21c-2.41-8.23-1.53-16.3-2.05-24.24a47.56,47.56,0,0,1,0-10.93c.13-14.48-.17-29,.47-43.44.93-21.08,5.44-41.3,18-58.81,3.34-4.64,7.9-8.4,11.9-12.57,4,1.74,6.76.19,8.84-3.28a3.8,3.8,0,0,1,2.13-1.92c7.42-1,11.67,2.85,14.47,9.21,2.39,5.41,3.7,11.16,5.54,16.74,2.58,1.62,2.74,4.41,3.28,7,1.65,7.78,3,15.63,6,23.07a21.17,21.17,0,0,0,4.42,7.14c2.52,2.58,5.42,3.83,9,2.69,1.77-.57,3.58-.4,5.36-.67,14.14-8,20.76-21.06,24.83-36,2.73-10,5.08-20.15,9.35-29.62A48.71,48.71,0,0,1,697.9,1135c6.44,0,7-.38,8.82-6.76a3.64,3.64,0,0,1,1.42-2.49c1.39.09,2.17,1.36,4,1C722.72,1124.81,731.66,1131.2,734.06,1142Z"/><path class="cls-10" d="M1009.16,1650.94c-11.2,0-17.68-4.38-19.84-12.83-2.06-8.08,2.94-17.08,11.89-22.23,21.2-12.2,42.26-24.63,63.46-36.84,20.49-11.79,41.13-23.33,61.61-35.16s40.8-23.94,61.29-35.77c16.2-9.35,32.6-18.36,48.81-27.7,15.93-9.18,31.82-18.42,47.53-28,12.51-7.6,28.93-3.27,33.27,9.2,2.46,7.09.12,15.27-6.27,19.09-16.6,9.92-33.39,19.54-50.14,29.25q-33.63,19.5-67.32,38.94-37.31,21.55-74.63,43-33.84,19.55-67.67,39.12c-9.53,5.51-19,11.16-28.56,16.54C1018.24,1650.08,1013.5,1651.48,1009.16,1650.94Z"/><path class="cls-10" d="M758.45,708.11c2.92.14,5.79-.07,8.78.76,6.18,1.73,11.24,4.69,12.66,11.16,1.7,7.75-2.72,13.19-8.85,16.82-20,11.86-40.31,23.39-60.49,35Q673.91,793,637.23,814.17q-31.58,18.21-63.18,36.37-33.46,19.32-66.85,38.76c-9.37,5.48-18.88,8.78-29.79,4.78-6.18-2.27-13-8.85-12.55-15.41.35-5.54,3.78-8.81,7.43-11.07,13-8.08,26.5-15.41,39.76-23.1,16.07-9.31,32.06-18.76,48.16-28,12.13-7,24.41-13.74,36.56-20.69,13.58-7.77,27.11-15.64,40.65-23.49Q658.57,760,679.7,747.75c16.19-9.43,32.35-18.92,48.56-28.33,5.07-2.94,10.18-5.83,15.39-8.53A24.68,24.68,0,0,1,758.45,708.11Z"/><path class="cls-10" d="M1147.87,939c3.7.2,6.27,0,8.92.88,3.85,1.23,7.31,3,8,7,.82,4.61-1.66,8.45-5.42,10.92-5.47,3.6-11.22,6.78-16.89,10.05q-57.33,33.09-114.69,66.14-56.5,32.57-113,65.08c-10.5,6-20.59,12.88-31.68,17.83a35.17,35.17,0,0,1-26.5,1.12c-4-1.37-7.1-4.22-7.34-8.19-.2-3.55,2.3-6.76,5.58-8.75,3.47-2.1,7-4.08,10.53-6.13,21.13-12.29,42.22-24.65,63.4-36.84,18.52-10.66,37.2-21,55.7-31.69,16.09-9.28,32-18.92,48.07-28.21s32.62-18.43,48.87-27.75c14.84-8.5,29.48-17.34,44.39-25.71A47.23,47.23,0,0,1,1147.87,939Z"/><path class="cls-2" d="M822,701.94q0-194.19,0-388.38,0-37.24,0-74.48c0-11.14-4.09-13.63-13.68-8.12q-45.86,26.37-91.64,52.85-76.12,43.95-152.23,87.93-92.48,53.38-185,106.62c-10,5.73-16.8,13.14-18.75,24.6a32,32,0,0,0-.38,5.45q0,419.88,0,839.75c0,4.12-.58,8.76,3.37,11.36,4.38,2.88,8.14-.39,11.8-2.5q58.5-33.74,117-67.48c1.68-1,3.21-2.35,5.29-2.52.29,1.72.34,3.41-.87,4.87-14.41,8.21-28.84,16.38-43.2,24.66q-38.24,22-76.42,44.16c-1.15.67-2.3,1.34-3.49,1.94-9.11,4.58-16.49.44-17.21-9.66-.11-1.66,0-3.33,0-5q0-419.67,0-839.33c0-14.5,6.2-25.17,18.67-32.37Q552.86,373.72,730.56,271.13q38.22-22.06,76.47-44.07c11.05-6.35,19-2,19,10.57q0,232.46,0,464.91c0,.83-.1,1.66-.16,2.49C824.43,704.15,822.64,703.74,822,701.94Z"/><path class="cls-12" d="M1250,1055.77c-.13,2.69-1.72,4.89-4.6,6.54q-63.27,36.32-126.47,72.75-61.47,35.43-122.89,71c-8.34,4.81-16.58,9.79-25,14.45-5,2.75-6.62,1.92-8.45-3.35-.59-1.73-1-3.54-1.71-5.2-1.75-4-.22-6.86,3.16-8.83q29.26-17,58.6-33.87,30.58-17.68,61.15-35.41,30.81-17.77,61.68-35.48,30.4-17.52,60.77-35.09c11.21-6.47,22.37-13,33.61-19.42,3.92-2.23,7-.78,8.19,3.68C1248.68,1050,1250,1052.43,1250,1055.77Z"/><path class="cls-10" d="M711.06,1357.8c1.54,4.34.56,8.83.66,13.25.18,8.27,0,16.54.06,24.82,0,1.83.17,3.67-1.69,4.83q-36.68,21.13-73.35,42.27a31.59,31.59,0,0,1-24.23,3.1c-6.31-1.6-11.12-5.19-12.3-11.93-1.3-7.39,1.62-13.3,8-17.16,9.59-5.84,19.36-11.4,29.07-17.06,12.24-7.14,24.35-14.52,36.78-21.32S698.22,1363.84,711.06,1357.8Z"/><path class="cls-13" d="M1220.07,1686c16.73,1.72,39.12,13.61,43.07,29.48,2.31,9.26,0,17.32-5.75,24.41-12.71,15.55-30.41,22.12-49.27,25.87a114,114,0,0,1-46.78,0c-15.11-3.3-29.11-8.55-39-21.89-6.9-9.3-4.68-24.57,2.05-32.76,11.39-13.86,26.7-20.43,43.56-24.39,4.07.67,7.33,5.49,7.56,11.17-1.32,2.31-3.81,2.49-6,3.22-8.62,2.91-16.6,6.77-22.85,13.7-8.36,9.26-7.68,19.89,2,27.84a46.9,46.9,0,0,0,26.1,10.34c14,1.28,28,1,41.36-4.24a59.83,59.83,0,0,0,16-9c12.9-10.41,12-25-1.91-33.87-5.4-3.45-11.58-5-17.33-7.57C1211.87,1694,1214.91,1688.83,1220.07,1686Z"/><path class="cls-13" d="M1166.94,1141.2c.45,5.23-2,8.43-6.22,10.88Q1103.65,1185,1046.65,1218q-35.31,20.41-70.61,40.84c-4.56,2.63-6.31,1.59-6.74-3.81-.23-2.9-1.13-5.82-.91-8.67.4-5.24,4.91-7.15,8.79-9.38,18.42-10.55,36.91-21,55.28-31.61,16-9.24,31.84-18.76,47.83-28s32.37-18.45,48.52-27.75c9.84-5.66,19.62-11.45,29.37-17.26,4.35-2.6,6.69-1.63,8,3.19A19,19,0,0,1,1166.94,1141.2Z"/><path class="cls-13" d="M1417,1609.82c14.55,14.92,8.39,33.68-5.32,44.47-21.75,17.11-47.22,21.75-74.07,20.53-16.38-.74-31.8-4.93-45.36-14.79-15.45-11.24-17.88-30-4.5-44.39a65.76,65.76,0,0,1,30-18.47c5.56,2.06,9.58,6.79,9.53,11.25-1.23,1.74-3.25,2.23-5,3.13-5.23,2.64-10.2,5.65-14.16,10-9,10-7.55,22,3.53,29.54a50.28,50.28,0,0,0,21.73,8.34c18.15,2.49,35.87,1.37,52.38-7.63a37.56,37.56,0,0,0,12.91-10.8c4.35-6.06,5.19-12.46,1.57-19.22-.85-1.59-2-3.12-1.88-5.08.13-.65.3-1.43.86-1.71C1404.8,1612.25,1410.15,1608.42,1417,1609.82Z"/><path class="cls-2" d="M1146.92,1338c.36-20.35,6.61-39,16.2-56.82a118.22,118.22,0,0,1,19.53-26.9c13.16-13.41,28.26-23.65,48.42-22.69,9.53.45,20.64,10.27,24.94,22,6.74,18.4,4.51,36.6-1,54.69-6.89,22.52-18.47,42.26-36,58.16-9.46,8.55-19.85,15.74-32.93,17.47-17.73,2.33-32.25-8.07-36.93-26.16A59.76,59.76,0,0,1,1146.92,1338Z"/><path class="cls-2" d="M949.91,1454.1c-.11-18.2,4.49-33.14,10.84-47.75A124.64,124.64,0,0,1,989.58,1365c8.89-8.4,18.75-15.28,31-18.13,17-3.94,31.8,3.6,38.16,19.85,5.11,13.08,5.26,26.5,2.8,40.14a133.65,133.65,0,0,1-25.72,58.26c-10.42,13.62-22.78,25.06-39.54,30.64-20.91,6.94-38.92-3.06-44.28-24.47C950.43,1464.93,949.5,1458.55,949.91,1454.1Z"/><path class="cls-10" d="M953.71,1187a3.47,3.47,0,0,1-3.54-1.39,94.4,94.4,0,0,1-5.22-8.29c-1.65-3.2-1.84-5.87,2.28-8.09,10.17-5.48,20.07-11.46,30-17.29,14.06-8.21,28-16.55,42.13-24.69,13.68-7.91,27.47-15.64,41.19-23.48,3-1.72,6.41-3.2,9.18-.69a17.38,17.38,0,0,1,6,11.38c.17,2.29-1.61,4.1-3.8,5.36q-30.51,17.51-60.95,35.13-24.48,14.12-49,28.22C959.44,1184.74,956.87,1186.55,953.71,1187Z"/><path class="cls-14" d="M777.36,1115.67c4.32-18.87,8.39-36.56,19.15-51.77,3.77-5.33,9-9.47,11.44-16,1.2-3.21,4.85-4.7,8-1.1.88,1,1.56.56,2.56.47,12.37-1.17,16.73-.94,23.68,14.16,1.9,4.1,2.29,8.57,3.45,12.86.56,2-.7,2.63-2,3.39-8.76,5.06-17.47,10.19-26.29,15.14-1.73,1-3.5,2.72-5.94,1.4-.43-.23-1.63,0-1.77.34-3.14,7.38-11.11,8.22-16.7,12.23C788.42,1110.06,783.25,1112.38,777.36,1115.67Z"/><path class="cls-15" d="M1227.67,1802.75a2.13,2.13,0,0,1-2.44-2,3.86,3.86,0,0,1,1.82-4.32c3.61-2.27,7.3-4.42,11-6.56q38.82-22.45,77.67-44.88c18.66-10.73,37.47-21.2,56.11-32,28.72-16.61,57.3-33.45,86-50,20.91-12.08,42-23.94,62.93-35.92,2.85-1.63,5.56-3.5,8.39-5.16,2.13-1.26,4.65-2,6.19.42,1.81,2.85-.79,4.09-2.83,5.27q-42.55,24.6-85.14,49.19-86.46,49.89-172.94,99.74c-14.37,8.28-28.79,16.46-43.17,24.73C1230.12,1802,1229.12,1802.88,1227.67,1802.75Z"/><path class="cls-10" d="M576.51,891.31c2.52.65,5,.92,6.59,3.64,14.09,23.39,23.85,48.36,27.95,75.43.93,6.16,1.89,12.31,2.66,18.49a8.57,8.57,0,0,1-1.93,6.9c-3.35,3.81-8,5.77-12.35,7.94-2.1,1-4.15.22-4.44-2.87a251.83,251.83,0,0,0-5-33.94,209,209,0,0,0-25.34-60.84c-3-5-2.06-7.64,3.2-10.35,2.46-1.27,4.44-3.4,7.26-4C575.56,891.62,576,891.45,576.51,891.31Z"/><path class="cls-15" d="M1211.74,1792.9a2.82,2.82,0,0,1-3.17-1.69c-1-1.75.12-2.5,1.09-3.31,5.08-4.28,11.23-6.8,16.89-10.12q41-24.08,82.27-47.77c22.63-13.06,45.35-26,68-39,22.9-13.22,45.72-26.59,68.64-39.79,18.66-10.74,37.42-21.3,56.12-32,4-2.28,7.85-4.82,11.89-7,1.64-.88,3.92-2.17,5.18.46,1.08,2.25,0,4-2.2,5.26q-18.35,10.44-36.63,21-41.05,23.71-82.08,47.46-37.18,21.45-74.42,42.82t-74.34,43q-17,9.83-34,19.6C1214,1792.41,1213,1793.12,1211.74,1792.9Z"/><path class="cls-15" d="M1551.91,1633.49c.1,2.13-1.6,2.66-3,3.49q-28.35,16.41-56.71,32.85-37.61,21.74-75.24,43.43-37.2,21.45-74.42,42.83-37,21.32-73.9,42.69c-6.73,3.89-13.4,7.87-20.15,11.72-2.08,1.18-4.63,3-6.49.11-2.26-3.53,1.42-4.58,3.38-5.72,34.1-19.71,68.29-39.26,102.42-58.93q95.36-55,190.65-110c2.85-1.65,5.54-3.57,8.41-5.18S1552.07,1630.58,1551.91,1633.49Z"/><path class="cls-10" d="M550.55,928a6.12,6.12,0,0,1,5.82,4c7.85,16.6,14,33.77,17.61,51.8,1.68,8.53,2.66,17.2,3.87,25.82a8.8,8.8,0,0,1-3.64,8.67,94,94,0,0,1-10.16,6c-3.54,1.94-4.7.16-5-3.26-1.27-12.53-2.69-25-5.9-37.28a190.76,190.76,0,0,0-14.55-38.6c-3.86-7.58-2.72-10,4.71-13.59C545.72,930.36,547.53,927.69,550.55,928Z"/><path class="cls-16" d="M990.71,1313.75c6.26-3.5,12.32-6.81,18.3-10.28,1.69-1,2.16-2.75,2.15-4.74,0-1.29-.81-3.5,1.54-3.48,2,0,1,2.06,1.36,3.18.14.43.33.85.64,1.62,6.24-3.61,12.27-7.21,18.42-10.6,1.6-.89,1.8-1.93,2-3.54s-1.54-4.42,1.74-4.81,1.36,3.08,3,4.5c6-3.51,12-7.17,18.2-10.58,2.8-1.56,1.65-4,2-6.16.16-1-.49-2.59,1.4-2.58,1.3,0,1.57,1,1.58,2.11,0,3.67,2.08,2.61,3.93,1.6,4.76-2.61,9.44-5.36,14.21-7.94,2.65-1.43,3.08-3.68,2.88-6.33-.11-1.38,0-3,1.49-3.37,1.73-.48,2.27,1,2.35,2.43.18,3.28,2,1.81,3.33,1.11,5.36-2.9,10.63-6,16-8.86,1.59-.87,1.66-2.21,1.89-3.75.26-1.74-1.33-4.69,1.48-5s.51,3.21,2.46,4.48c6.44-2.55,12.35-6.76,18.65-10.22,2.33-1.27,1.06-3.94,1.36-6,.13-.92-.22-2.15,1.14-2.4,1.77-.33,1.85,1,1.84,2.18,0,2.22.87,3.31,3,2.07,5.13-3,10.1-6.18,15.29-9a4.53,4.53,0,0,0,2.73-4.74c-.08-1.92-.48-4.58,2.43-4.51s.73,3.17,2.54,4.86c6.11-3.57,12.42-7.3,18.78-11,2.16-1.25,1.06-3.25,1.31-4.93.22-1.42-.27-3.53,1.71-3.56s.91,2.06,1.21,3.21c.16.61.24,1.26.45,2.47,6.59-3.63,12.9-7.07,19.18-10.56,1.61-.9,1.21-2.55,1.37-4,.23-2-1.07-5.12,2.06-5.25,2.85-.11,1.41,3.16,2.33,5.06,6.94-2.53,12.76-7.21,19.34-10.41,2.48-1.21,1-3.9,1.37-5.92.18-1.09-.3-2.6,1.23-2.91,1.87-.39,1.59,1.23,1.64,2.3.15,3,1.62,2.7,3.61,1.57,5.29-3,10.58-6,15.93-8.93,2.71-1.47,1-3.86,1.45-5.78.3-1.32-.57-3.28,1.85-3.33s2,1.79,2,3.22c0,3.66,0,7.33,0,11,0,1.65.28,3.77-1.92,4-2.57.24-1.74-2.1-2-3.55-.08-.48-.22-1-.49-2.07-6.59,3.83-13,7.48-19.32,11.29-2.15,1.29-.78,3.65-1.15,5.49-.22,1,.54,2.68-1,2.94s-1.85-1.17-1.81-2.38c.14-4.15-2-2.78-4-1.65-4.74,2.71-9.38,5.59-14.21,8.13-2.91,1.53-3.2,3.84-3,6.63.1,1.47.17,3.31-1.83,3.49-1.64.15-2-1.29-2.18-2.74-.21-2.35-1.56-2.19-3.13-1.3q-8,4.53-15.94,9.09c-2.11,1.21-1.81,3.3-1.94,5.3-.08,1.32.91,3.62-1.19,3.72-2.64.11-1.23-2.49-1.69-3.86-.16-.47-.27-.95-.56-2-6.55,3.78-13,7.39-19.3,11.17-2.36,1.41-.8,3.94-1.2,5.93-.21,1.06.37,2.56-1.24,2.87a2.17,2.17,0,0,1-2.7-2.21c-.26-3.44-1.75-2.78-3.89-1.45-3.37,2.09-6.9,3.91-10.33,5.92-3.79,2.22-8.3,4-6.9,9.87a1.42,1.42,0,0,1-1.13,1.88c-1.35.21-1.81-.62-1.78-1.75.14-4.38-2.24-3.1-4.38-1.88-3.74,2.12-7.33,4.53-11.13,6.54-3.38,1.79-6.45,3.48-5.56,8.15.28,1.46.17,3.58-1.64,3.62-2.38,0-.93-2.26-1.3-3.48a18.6,18.6,0,0,1-.3-3.18c-6.68,3.87-13,7.46-19.19,11.14-2.33,1.38-1.53,3.82-1.64,5.91-.08,1.49.19,3.44-1.62,3.74-2,.32-2.31-1.48-2.26-3.06.08-2.61-1-2.8-3-1.68-5.46,3.11-11,6.14-16.4,9.31-2.59,1.51-1.24,4.2-1.59,6.38-.19,1.19.62,3-1.35,3.21s-1.61-1.71-1.63-2.9c0-3.88-1.71-3-4-1.65-4,2.39-8.07,4.55-12.12,6.81-3,1.66-5.65,3.38-4.95,7.58.23,1.4.93,3.87-1.43,4.12-2.62.29-2.43-2.09-2.54-3.92a18.57,18.57,0,0,0-.48-2.15c-6.58,3.82-13,7.43-19.28,11.25-2.31,1.4-.79,4-1.19,6-.21,1,.5,2.61-1.18,2.85s-1.73-1.28-1.66-2.39c.25-4.26-1.78-3.3-4.12-1.92-4.71,2.75-9.35,5.66-14.2,8.13-3.1,1.58-2.85,4-2.86,6.71,0,1.74.55,4.15-2.06,4.3-2,.12-1.89-1.9-1.94-3.39-.1-2.65-1.49-2.62-3.31-1.57-4,2.31-8,4.7-12,6.94-.86.47-1.9,1.78-3,.4-1.31-1.62.22-2.58,1.19-3.19,4.33-2.69,8.78-5.18,13.16-7.79,2.07-1.23,4.47-2.16,4.07-5.41-.22-1.73-.49-4.17,2.05-4.35C991.15,1309,989.3,1312.08,990.71,1313.75Z"/><path class="cls-17" d="M1060.17,1243.92a13.23,13.23,0,0,1-6.69,8.22q-38.64,22.27-77.24,44.64c-4,2.32-6,1.32-6-3.2,0-3.28-.45-6.55.41-9.86,1.26-4.84,5.49-6.46,9.05-8.54q36.12-21.06,72.48-41.69c2.36-1.33,5.75-5,8,.57A34.29,34.29,0,0,1,1060.17,1243.92Z"/><path class="cls-18" d="M542.52,1095.68a2.87,2.87,0,0,1-2.88-1.8c-.53-1.37.89-2.11,1.71-2.62,4.88-3,9.85-6,14.82-8.86,18.44-10.74,36.86-21.52,55.36-32.16,18.66-10.73,37.46-21.21,56.1-32,22.34-12.91,44.52-26.07,66.84-39,16.21-9.37,32.58-18.44,48.8-27.79,16-9.2,31.79-18.56,47.68-27.86,4.25-2.49,8.48-5,12.76-7.47,1.72-1,3.74-1.26,4.82.65,1.22,2.14-1,2.8-2.33,3.59q-38.49,22.27-77,44.51-46.89,27.08-93.77,54.15-41.32,23.85-82.65,47.65-23.67,13.65-47.31,27.34C544.47,1094.63,543.45,1095.17,542.52,1095.68Z"/><path class="cls-18" d="M848.87,936.63c-.3,1.5-1.54,2.06-2.7,2.72q-43,24.79-86.07,49.61-46.89,27-93.74,54.15-41.29,23.82-82.61,47.61c-11.18,6.46-22.31,13-33.49,19.44-1.86,1.08-3.83,2-5.7,3s-3.81,1.6-4.8-.37c-.88-1.75,1.11-2.67,2.53-3.51,9.78-5.71,19.52-11.49,29.31-17.18q24.93-14.49,49.9-28.88c18.53-10.63,37.15-21.09,55.68-31.72,15.82-9.07,31.56-18.28,47.33-27.42q20.88-12.11,41.76-24.21,24.5-14.24,49-28.5,13.86-8,27.81-15.9c1.36-.77,2.86-1.92,4.63-.92A2.13,2.13,0,0,1,848.87,936.63Z"/><path class="cls-18" d="M848.81,899c-.24,1.74-1.73,2-2.82,2.65Q825,913.84,803.88,926,757.24,953,710.59,980q-40.64,23.47-81.29,46.92-40,23.1-79.95,46.24a56.54,56.54,0,0,1-5.24,2.85c-1.33.59-2.83,2.26-4.18-.19s.86-3.09,2-3.85c3-2,6.17-3.72,9.29-5.52q24.93-14.43,49.88-28.85c16.38-9.4,32.86-18.63,49.23-28.07,13.64-7.87,27.12-16,40.76-23.89,12.23-7.07,24.61-13.89,36.87-20.93,13.53-7.77,27-15.64,40.49-23.49q20.65-12,41.28-24.07,15.33-8.93,30.71-17.75a23,23,0,0,1,5.49-2.23A2.24,2.24,0,0,1,848.81,899Z"/><path class="cls-18" d="M543.06,1133c-1.57,0-2.65,0-2.88-1.33a3.24,3.24,0,0,1,1.87-3.67q7.34-4.08,14.59-8.27c21-12.19,42-24.48,63.08-36.6,18.67-10.74,37.49-21.21,56.13-32,22.33-12.9,44.49-26.08,66.82-39,18.63-10.76,37.42-21.27,56.1-32,14.82-8.48,29.58-17.07,44.37-25.62.44-.24.91-.41,1.34-.67,1.38-.86,2.84-1.44,3.93.23,1.24,1.88-.6,2.83-1.69,3.5-5.5,3.37-11.1,6.58-16.69,9.81q-60.63,35.05-121.28,70.08-50.57,29.17-101.16,58.31-29.88,17.25-59.73,34.58C546.15,1131.39,544.38,1132.27,543.06,1133Z"/><path class="cls-16" d="M1196.92,963.1c-.05,2.11-2,2.57-3.28,3.33-14,8.17-28.1,16.23-42.16,24.34q-43.41,25-86.83,50.07l-81.24,46.91-86.85,50.15c-1.87,1.08-3.77,2.1-5.67,3.11-1.21.64-2.52,1.21-3.48-.33s-.07-2.67,1.07-3.41c2.88-1.88,5.85-3.62,8.83-5.33q43.59-25.07,87.2-50.11,36.33-20.88,72.63-41.79,35.44-20.44,70.84-40.95c20-11.63,40-23.38,60-35a37,37,0,0,1,6.31-2.87C1195.71,960.69,1197,961.18,1196.92,963.1Z"/><path class="cls-16" d="M1209.91,976.26c-.07,2.24-1.73,2.6-3,3.32q-18.46,10.73-37,21.43-33.73,19.5-67.5,39-37.42,21.58-74.86,43.14-37,21.35-74,42.72-23.86,13.8-47.7,27.62a14.43,14.43,0,0,1-3.64,1.48,2.42,2.42,0,0,1-3-1.3c-.61-1.44.55-2,1.59-2.62,7.94-4.64,15.86-9.32,23.82-13.94q24.72-14.37,49.48-28.67c16.09-9.27,32.25-18.4,48.34-27.68,18.5-10.68,36.93-21.49,55.43-32.17,16.09-9.28,32.27-18.42,48.37-27.71s32.35-18.88,48.58-28.23c10.11-5.84,20.31-11.52,30.5-17.23C1207.24,974.4,1209.24,973.24,1209.91,976.26Z"/><path class="cls-10" d="M685,945.05c0,8.57-8.78,18-15.42,17.69-2.78-.11-3.45-2.75-3.52-5-.6-20-5.31-39.17-12.62-57.73-2.71-6.91-2.31-8.41,3.75-12.67a23.9,23.9,0,0,1,3.31-2.09c7.82-3.79,9.11-3.27,12.13,5A212.77,212.77,0,0,1,685,945.05Z"/><path class="cls-19" d="M1417,1609.82c-6.27,2-12.86,3.19-18.34,7.19-1.67.29-2.83-.7-4-1.6-10-7.66-21.6-10.4-34-10.86a88.47,88.47,0,0,0-28.5,3.25c-1.71.5-3.5,1.18-5.28.12-1.66-4.79-6.39-7-9.21-10.75,8.88-3.89,18.36-5.11,27.86-6.15a42.13,42.13,0,0,0,7.33-1c4.27,1.19,8.7-.2,13,.8,16.94.81,32.8,4.94,46.78,15A19.45,19.45,0,0,1,1417,1609.82Z"/><path class="cls-10" d="M649,966.11c0,8.59-6.3,15.88-14.1,16.89-2.32.3-3.71.12-4.07-3.14-1.73-15.74-3.52-31.5-8.73-46.61-.66-2,.9-3.63,1.94-4.89,3-3.69,7.47-5.58,11.77-7.2,3.08-1.17,4.9,1.42,5.67,4.15A196.67,196.67,0,0,1,647.93,955C648.41,958.86,649.82,962.73,649,966.11Z"/><path class="cls-1" d="M734.06,1142c-1.44-2.19-2.82-4.43-4.34-6.56-4.24-6-9.59-9.49-17.27-7.55-1.83.47-3.48.82-4.14-1.59-1.64.09-3.32.24-4.32-1.52,3.67-11,10.36-19.56,21.34-24,5.77-2.31,10.3-.47,13.72,4.67,5.37,8.1,6.58,17.61,9,26.71A118,118,0,0,0,734.06,1142Z"/><path class="cls-18" d="M847.92,841.21c.1,2.14-1.66,2.69-3,3.5q-20.37,11.87-40.77,23.68-40.17,23.24-80.35,46.42c-.72.42-1.41.89-2.15,1.26-1.83.93-3.86,1.94-5.12-.59-1.06-2.14,0-4,1.89-5.11,6.34-3.8,12.75-7.47,19.15-11.18q24.91-14.43,49.85-28.84Q814,855,840.72,839.72C844.52,837.55,847.68,838.33,847.92,841.21Z"/><path class="cls-18" d="M833.06,787.6c-.16,2.84-1.84,3.64-3.44,4.56q-32.49,18.74-65,37.51Q737.58,845.33,710.51,861l-3,1.76c-2.29,1.37-4.61,1.61-6-1s1.07-3.81,2.84-4.83c24.78-14.26,49.62-28.41,74.38-42.7,15.93-9.2,31.74-18.59,47.63-27.87,1.54-.9,3.16-2,5.12-1A2.45,2.45,0,0,1,833.06,787.6Z"/><path class="cls-20" d="M720.89,937c-1.71-.13-2.61-.84-2.78-2.14-.22-1.81-.41-3.63,1.64-4.79,6.87-3.87,13.7-7.82,20.54-11.75Q761.46,906.2,782.6,894c12.4-7.11,24.83-14.17,37.21-21.32,7.39-4.27,14.72-8.67,22.09-13,.56-.33,1.16-.6,1.72-.94,2.22-1.34,4.22-1.09,5.57,1.16s-.75,3.43-2.13,4.29c-4.48,2.82-9.12,5.39-13.71,8L723.66,935.6C722.67,936.17,721.62,936.64,720.89,937Z"/><path class="cls-18" d="M815,755.32c.31,1.77-.92,2.56-2.28,3.34q-35.9,20.67-71.78,41.38-24.5,14.13-49,28.33c-1.15.66-2.37,1.19-3.51,1.86-2.06,1.21-3.39.46-4.48-1.44s-.19-2.95,1.42-3.91c5.36-3.17,10.64-6.49,16-9.61Q722.54,803.06,743.7,791c12.38-7.1,24.79-14.15,37.16-21.26,9.54-5.48,19.08-11,28.52-16.6,1.43-.85,2.64-1.35,4.12-.77C814.73,752.83,815.08,754,815,755.32Z"/><path class="cls-18" d="M825,771.81c-.07,1.46-1.51,2.33-3,3.17l-70.91,41q-24.27,14-48.55,28c-1.44.83-2.93,1.56-4.34,2.43-2.14,1.33-3.57.05-4.65-1.44-1.36-1.86-.09-3,1.53-3.89,9.78-5.7,19.51-11.49,29.28-17.18q27.87-16.24,55.77-32.41,19.4-11.24,38.83-22.39C822,767.37,825,768.57,825,771.81Z"/><path class="cls-18" d="M839.93,805.92c-.56,1.67-1.88,2.51-3.37,3.37-16,9.25-32,18.59-48,27.88q-35,20.26-70,40.49c-1.87,1.07-3.83,2-5.69,3.06-1.61.93-3.06,1.25-4.08-.73s-.92-3.71,1.34-5c8.39-4.82,16.74-9.73,25.11-14.59,11.91-6.92,23.81-13.87,35.76-20.72,12.24-7,24.56-13.91,36.8-20.94,7.41-4.25,14.73-8.64,22.08-13,2.13-1.26,4.24-2.59,6.81-2.74C838.66,802.91,839.77,803.84,839.93,805.92Z"/><path class="cls-20" d="M844.75,822.77c-.47,2-1.89,2.76-3.36,3.62-13.46,7.8-26.85,15.72-40.32,23.51q-40.41,23.34-80.86,46.6c-1.15.66-2.15,1.54-3.59,1.55-1.62,0-3.06-.23-3.49-2.07a3.19,3.19,0,0,1,1.54-3.84q19.2-11.07,38.39-22.15,28.14-16.29,56.25-32.61,13.65-7.89,27.4-15.63a16.45,16.45,0,0,1,4.63-1.67C843.51,819.63,844.06,821.42,844.75,822.77Z"/><path class="cls-15" d="M1210.87,1583.81c-2-.35-3.57-1.29-3.58-2.71a4.88,4.88,0,0,1,2.85-4.26c9-5,18-10.27,26.93-15.45q34.73-20.1,69.43-40.22,13.21-7.65,26.48-15.2c2-1.15,4.28-1.86,5.6.67s-.46,4-2.49,5.17q-19.77,11.39-39.52,22.79-41,23.64-82,47.27C1213.25,1582.6,1211.92,1583.26,1210.87,1583.81Z"/><path class="cls-15" d="M1153.22,1446.74c-2.19,0-3.66-1-3.89-2.36-.3-1.8.81-3.39,2.56-4.38,7.16-4,14.32-8,21.43-12.15,18.61-10.77,37.16-21.64,55.79-32.37,12.24-7,24.6-13.89,36.87-20.89,2.85-1.63,5.51-3.59,8.34-5.24,2-1.15,4.48-2.62,6.15.05s-.32,4.25-2.53,5.52q-26,15-52,30-34.59,19.93-69.22,39.81Z"/><path class="cls-15" d="M1064.16,1707.74a3.82,3.82,0,0,1-3.7-2.16c-.71-1.54.34-2.83,1.65-3.61,5.92-3.53,11.85-7,17.82-10.48,14.08-8.1,28.21-16.11,42.28-24.24S1150,1651,1163.89,1643c7.25-4.2,14.71-8,21.82-12.47,2.46-1.54,4.59-1.85,5.88.32,1.5,2.51-.57,3.94-2.84,5.25-18.64,10.68-37.19,21.52-55.78,32.29q-31.1,18-62.22,36C1068.47,1705.67,1066.06,1706.77,1064.16,1707.74Z"/><path class="cls-15" d="M1090,1518c1.69.46,3.29.6,3.81,2.33a3.28,3.28,0,0,1-1.7,3.83c-3.5,2.19-7.07,4.29-10.65,6.35q-54.2,31.21-108.41,62.39c-1.86,1.07-3.79,2-5.57,3.21-2,1.36-3.62.51-4.72-1.07-1.41-2,.06-3.3,1.68-4.26,7.76-4.62,15.51-9.26,23.32-13.79q28.13-16.33,56.3-32.56c14.81-8.53,29.66-17,44.49-25.48C1089.13,1518.67,1089.64,1518.29,1090,1518Z"/><path class="cls-16" d="M1226.76,1594.75a3.47,3.47,0,0,1-3.31-2.34c-.74-2.21.74-3.43,2.36-4.39q9.35-5.51,18.74-10.92,28.38-16.42,56.77-32.81,23.27-13.43,46.58-26.75c1.38-.79,2.85-1.93,4.63-1.1a3.69,3.69,0,0,1,2.28,2.49c.31,1.55-.64,2.34-1.92,3.08-7.88,4.56-15.67,9.26-23.55,13.81q-33.94,19.61-67.93,39.14-16.37,9.42-32.74,18.78C1228,1594.14,1227.24,1594.5,1226.76,1594.75Z"/><path class="cls-15" d="M1242.15,1604.77a2.18,2.18,0,0,1-2.12-2.2c-.16-1.84-.19-3.48,1.89-4.65,8.89-5,17.7-10.05,26.51-15.15q27.9-16.18,55.78-32.4,20-11.61,40.12-23.08c2-1.12,4.49-2.74,6.12,0s-.63,4.39-3,5.73q-57.43,33-114.81,66C1249.25,1601.07,1246,1603.37,1242.15,1604.77Z"/><path class="cls-15" d="M1175.93,1622.43c-.44,1.9-1.73,2.77-3.23,3.63-14.93,8.59-29.8,17.26-44.71,25.88l-67.47,39c-3.45,2-6.83,4.08-10.34,5.94-1.83,1-4.15,2.43-5.6-.33-1.24-2.34.08-3.76,2.36-5,12-6.83,23.84-13.9,35.77-20.83q34.95-20.31,69.94-40.53,8.53-4.93,17.32-9.45C1172.28,1619.45,1174.81,1619.06,1175.93,1622.43Z"/><path class="cls-15" d="M1088.1,1504.08c.39,1.71-1.76,2.33-3.2,3.16-12,7-24.1,13.83-36.13,20.78q-37.35,21.56-74.67,43.18c-3.72,2.15-7.53,4.14-11.17,6.42-2.08,1.29-4,2.22-5.49-.38s.4-4,2.38-5.2c5.94-3.5,11.92-6.94,17.88-10.4q31.5-18.29,63-36.57,19.38-11.22,38.86-22.28a27.24,27.24,0,0,1,4.92-2.32C1086.84,1499.72,1087.84,1501.07,1088.1,1504.08Z"/><path class="cls-15" d="M1157,1464.91c-1.62.16-2.59-.16-3.39-1.63-1-1.74.09-2.44,1.06-3.29,5-4.38,11.19-6.83,16.84-10.14,23.34-13.72,46.81-27.25,70.26-40.79,12.23-7.07,24.55-14,36.78-21,2.28-1.31,4.56-1.93,6,.5s-.46,3.76-2.54,5q-56.13,32.22-112.18,64.56c-3.16,1.81-6.21,3.81-9.38,5.59C1159.35,1464.25,1158.28,1465.27,1157,1464.91Z"/><path class="cls-15" d="M1290.91,1407.91c0,1.81-1.27,2.52-2.61,3.29q-34.2,19.62-68.37,39.29-27.06,15.57-54.1,31.18c-2.08,1.21-4.15,2.58-5.95-.09-2.07-3.08,1-4.34,2.66-5.31,15-8.86,30.06-17.5,45.12-26.21q28.33-16.38,56.68-32.76c6.68-3.85,13.36-7.71,20.12-11.43C1288,1403.93,1291,1405,1290.91,1407.91Z"/><path class="cls-15" d="M1156.61,1609c1.45-.1,2.72.29,3.19,1.78.57,1.79-.72,2.91-2,3.67-4.93,3-9.92,5.95-14.93,8.84q-44.67,25.76-89.37,51.46l-18.47,10.66c-2.22,1.28-4.72,2.74-6.36-.4-1.52-2.89,1.16-3.88,3.13-5q39-22.44,78.07-44.92c13.63-7.88,27.13-16,40.74-23.9C1152.46,1610.1,1154.27,1608.69,1156.61,1609Z"/><path class="cls-15" d="M1083.87,1483.93c.19,2.83-1,3.49-2.41,4.29q-32.46,18.69-64.87,37.49c-18.31,10.59-36.6,21.25-55,31.73-2.44,1.39-5.81,5-8.08,1s2.55-5.12,5-6.53q38.47-22.52,77.11-44.74,20.91-12.07,42-23.93C1080,1481.82,1082.86,1480.59,1083.87,1483.93Z"/><path class="cls-15" d="M540.11,1229.85c-.38-.25-.74-.68-1.14-.72-1.49-.15-3,2.76-4.17.66-1.28-2.34,1.24-3.19,3-4.15a14.64,14.64,0,0,0,2.23-2,33.44,33.44,0,0,0,0-13.48c-1.91-1.08-4.18,3.4-5.33.21-.92-2.57,2.47-3.28,4.32-4.46a8.4,8.4,0,0,0,1.06-.93,36.18,36.18,0,0,0-.07-13.72,2.15,2.15,0,0,0-2.24.52c-.93.79-2,1.42-2.93.09-1.13-1.67.38-2.21,1.43-3,1.31-.92,2.56-1.92,3.84-2.88a37.66,37.66,0,0,0-.1-13.76,18.14,18.14,0,0,0-2.26.75c-1.06.51-2.15,1.18-3-.16-1-1.66.46-2.23,1.54-2.91s2.45-1.52,3.68-2.29c1.34-6.16,0-12.43.73-18.61,3.5-1.94,3.14.87,3.19,2.75.12,4,0,8,0,12.17,1.55,0,2.94-.1,4.31,0,1.86.18,1.92,1.8.74,2.25-7.23,2.79-4.6,8.91-5,14-.07.82,0,1.65,0,2.5,1.44,1,2.52-.22,3.7-.35a1.64,1.64,0,0,1,1.92,1.2,1.86,1.86,0,0,1-.65,1.65c-7.57,2.82-4.3,9.32-4.94,14.45a16.74,16.74,0,0,0,.16,2.75c1.3-.44,2.34-.87,3.44-1.13a1.69,1.69,0,0,1,2,1.13,1.23,1.23,0,0,1-.58,1.7c-7.83,2.93-4.24,9.67-5,14.94a8.08,8.08,0,0,0,.13,1.91c1.32.7,1.75-.73,2.65-.91a2.17,2.17,0,0,1,2.6.91c.78,1.3-.25,1.88-1.08,2.28-7.15,3.36-3.61,9.76-4.21,14.94-.21,1.79,1,1.57,2.34,1,1.12-.5,2.49-.49,2.92.91s-.93,2-1.83,2.62c-1.25.91-3.43.89-3.46,3a86.7,86.7,0,0,0,.19,12c.26,2.12,2.13.2,3.26.24.81,0,1.83-.17,2,.88a1.92,1.92,0,0,1-.69,1.68c-7.19,2.75-4.41,8.93-4.85,14a14.16,14.16,0,0,0,.25,2.82c1,.56,1.73,0,2.51-.2,1-.29,2.28-.54,2.72.42.6,1.33-.59,2-1.7,2.52-3.2,1.61-4.93,3.9-4.78,7.86.27,7,.37,7.47,6.83,8.58-.3.62-.45,1.52-.86,1.67-6.59,2.3-5.19,7.67-4.5,12.42a55.5,55.5,0,0,1,.57,8.42c0,.86-.22,1.71-1.3,1.75s-1.28-.67-1.64-1.5c-1.51-3.51-.82-7.2-1-10.81-.16-2.8.13-6.08-4.25-3.1-.87.59-1.6.06-2.11-.65a1.37,1.37,0,0,1,.52-2.12c8.1-3.9,3.73-11.09,5-16.67-2.3-1-4.51,2.68-5.66,0-1.22-2.83,2.25-3,3.88-4.11.54-.38,1.06-.8,1.58-1.2,1.19-4.31.41-8.7.42-13,0-.79-.67-1-1.41-.7-1.56-.48-3.49,2.7-4.6-.09-.92-2.3,1.71-2.73,3.09-3.7.79-.56,1.66-1,2.5-1.5,1.2-4.26.38-8.6.45-12.91,0-.79-.61-1-1.35-.73-1.59.27-3.52,2.35-4.67-.06-1-2.08,1.86-2.21,2.77-3.42.62-.85,1.84-1.26,2.8-1.86A34.39,34.39,0,0,0,540.11,1229.85Z"/><path class="cls-18" d="M543.33,1048.9c-2.22.23-3.63,0-3.79-1.3a3,3,0,0,1,1.77-2.7c8.42-4.8,16.73-9.79,25.12-14.64q21.11-12.21,42.27-24.32c12.39-7.11,24.84-14.13,37.2-21.27,13.65-7.89,27.24-15.88,40.85-23.82,4.54-2.65,9.09-5.27,13.62-7.92,1.5-.87,3.27-1.8,4.33.08s-.33,3.2-2.15,4.25q-42.62,24.47-85.17,49.07-33.52,19.36-67,38.78C547.79,1046.59,545.14,1047.92,543.33,1048.9Z"/><path class="cls-18" d="M711,1261.92,711,1268c-6.31,1.31-11.27,5.4-16.65,8.48-31.91,18.2-63.65,36.7-95.44,55.11-13.75,8-27.44,16-41.26,23.86-2.16,1.22-5.28,4.68-7.21,1.47-2.1-3.5,2.46-4.19,4.67-5.48q27.42-16,54.93-31.89c12.24-7,24.61-13.87,36.86-20.92,13.66-7.87,27.16-16,40.89-23.77C695.5,1270.51,702.77,1265.37,711,1261.92Z"/><path class="cls-18" d="M711,1283c.35,5.43,1.32,10.82.88,16.29-.12,1.59.54,3.35-.92,4.69,0-3.67-.19-7.34,0-11s-.67-4.46-4-2.44c-9.38,5.6-18.88,11-28.35,16.44q-45,25.93-90,51.86c-8.75,5-17.43,10.21-26.2,15.2-1.83,1-4.17,3.6-5.94.49-1.63-2.86,1.6-3.44,3.29-4.43,18.3-10.69,36.59-21.4,55-32,16.24-9.35,32.62-18.45,48.86-27.81,13.66-7.88,27.18-16,40.79-24C706.49,1285.08,708.77,1284.07,711,1283Z"/><path class="cls-18" d="M711,1303.93l0,6.09c-11,6.23-22.15,12.39-33.15,18.72q-40.87,23.51-81.65,47.14-11.38,6.58-22.77,13.15a39,39,0,0,1-5.26,2.79,2.81,2.81,0,0,1-3.58-1c-1.14-1.85.64-2.24,1.67-2.85q14.61-8.65,29.25-17.22c14.6-8.51,29.19-17,43.84-25.46,16.23-9.32,32.56-18.46,48.79-27.79C695.81,1313.12,703.35,1308.47,711,1303.93Z"/><path class="cls-21" d="M515.83,926.58c-.24,3.45-5.37,3-4.54,6.21.62,2.44,2.63,4.52,4,6.79,1.57,2.65,2.65,6.25,6.76,2.6a1.85,1.85,0,0,1,2.87.92c.37,1.22-.46,1.86-1.46,2.19-4,1.35-3.18,3.69-1.49,6.41a46.26,46.26,0,0,1,2.63,5.33c1,2.18,2.08,3.77,4.9,2.32,1.06-.55,2.74-1,3.35.71.53,1.48-.93,2.06-1.94,2.45-3.09,1.17-2.77,3-1.48,5.43a35.43,35.43,0,0,1,2,5.06c.93,2.63,1.67,5.3,5.47,3.19a1.94,1.94,0,0,1,2.94.89c.42,1.22-.4,1.83-1.39,2.22-3.69,1.47-3.62,4.1-2.4,7.24a34.21,34.21,0,0,1,1.88,6.16c.4,2.19,1.08,3,3.27,1.79,1.13-.61,2.76-1.09,3.55.33,1,1.69-.78,2.3-1.87,2.86-2.93,1.49-3.3,3.68-2.37,6.61a37.16,37.16,0,0,1,1.48,7.25c.22,2,.67,2.68,2.72,1.69.93-.45,2.46-.75,3.06.62s-.69,2.17-1.71,2.59c-3.22,1.33-3.07,3.41-2.41,6.44a88,88,0,0,1,1.34,13.31c.08,1.29.86,3.45-1.34,3.64-2.57.22-2.67-1.93-2.65-3.84a72.36,72.36,0,0,0-.6-11.37c-.54-3.74-1.41-4.45-4.53-2.26-.87.61-2,2.25-3.29.47s.29-2.28,1.37-3.4c1.58-1.63,5.17-1.43,5-4.18a50.33,50.33,0,0,0-2.17-12.11c-.74-2.36-2.38.16-3.63.31s-2.73,2.37-3.82.68c-1.36-2.08.57-3.27,2.31-4,3.21-1.36,4.18-3.36,2.63-6.69a23,23,0,0,1-1.23-5.29c-.69-3.46-2-5.08-5.54-2.45-1.06.8-2.83,1.93-3.94.15-1.22-2,.72-2.58,2-3.06,4.28-1.57,5-4.2,2.8-8a26.52,26.52,0,0,1-.88-2.82c-1.46-3.3-2.87-6.77-7.47-3.44-.93.68-2.25,1.1-2.86-.47-.44-1.13.27-1.78,1.34-2.23,5.13-2.16,4.11-5.26,1.93-9.29-2.27-4.18-3.78-8.42-9.45-4.1a1.59,1.59,0,0,1-2.53-.55c-.89-1.44.21-2.4,1.25-2.69,6.5-1.84,3.62-5.54,1.86-9-.52-1-1.49-1.82-1.89-2.86-1.23-3.13-3.06-4.18-6.05-2.14-1.33.91-3.23,1.58-4.08.38-1.14-1.62,1-2.85,2.06-3.26,3.41-1.38,3.06-2.8,1-5.29-2.17-2.66-3.84-5.74-6.34-8.16-1-1-2.07-2.17-.76-3.37s2.53-.07,3.37,1a96.45,96.45,0,0,1,6.33,8.28c1.78,2.8,3.62,4,6.71,2A3.23,3.23,0,0,1,515.83,926.58Z"/><path class="cls-18" d="M711,1325.93c0,2,0,4,0,6-7.25,2.14-13.23,6.74-19.66,10.42q-56,32.14-111.88,64.58c-1.46.85-3.54,2.38-4.66.73-1.57-2.33.53-3.69,2.57-4.88,20.46-11.87,40.81-23.91,61.3-35.72,18.64-10.76,37.45-21.22,56.09-32C700.16,1332,705.31,1328.53,711,1325.93Z"/><path class="cls-15" d="M711,1240.92l0,4.11c-12.2,5.9-23.6,13.21-35.35,19.89Q635.26,1287.86,595,1311q-22,12.57-43.84,25.24a17.23,17.23,0,0,1-2.59,1.48c-.92.31-2,1.75-2.92,0-.75-1.35.2-2.34,1.13-2.94,3.58-2.32,7.19-4.6,10.9-6.7,15.17-8.59,30.44-17,45.56-25.67,19.07-10.94,38-22.12,57.06-33.06,12.83-7.37,25.79-14.5,38.68-21.74Z"/><path class="cls-1" d="M649.24,1219.15c-9,4.91-14.8,3-19.15-6.31s-5.58-19.29-7.92-29.06c-.3-1.28-.66-2.55-1-3.82,7.58-.57,12.44,3.06,15.78,9.66,3.93,7.76,5.91,16.18,8.91,24.25C646.63,1215.9,647.07,1218.06,649.24,1219.15Z"/><path class="cls-19" d="M1174.94,1697.92c-1.79-4.05-3-8.48-7-11.13a85.75,85.75,0,0,1,17.28-2.84c2-.08,4,.09,5.74-1,4.59,1.3,9.34-.22,13.94.83,5.14.19,10.26.46,15.16,2.25-2,4.11-6.65,6.72-7,11.84-1.66,1.2-3.49.72-5.28.5a97.29,97.29,0,0,0-26.24.22C1179.34,1698.93,1177,1699.76,1174.94,1697.92Z"/><path class="cls-22" d="M954.14,1311c-3.39,2.23-3.12-.4-3.14-2.42,0-7,.17-14,0-21-.71-23.52-3.08-46.75-10.9-69.2-6-17.34-15.13-32.85-26.44-47.16-1.09-1.38-2.59-3-1.08-4.26,1.76-1.46,2.9.92,3.79,2a163.69,163.69,0,0,1,32.61,68.32,238.28,238.28,0,0,1,5.26,41.75C954.64,1289.67,954.74,1300.31,954.14,1311Z"/><path class="cls-15" d="M1194.37,1681.51a4.14,4.14,0,0,1-2.83-2.41c-.5-1.17,0-2.31-.13-3.26-2.14-12.69,7.84-15.9,15.9-20.59q18.93-11,37.92-21.9c2-1.16,4.52-2.67,6.18-.07,1.79,2.81-.47,4.41-2.82,5.76-14.75,8.48-29.29,17.36-44.29,25.38-5.27,2.81-7.27,6-6.36,11.57C1198.39,1678.74,1197.55,1680.94,1194.37,1681.51Z"/><path class="cls-15" d="M1353.76,1577c-.42-4.71,1.69-7.19,6-9.55,16-8.79,31.55-18.27,47.31-27.44,2.23-1.29,5-2.28,6.52.59s-1.24,4-3.26,5.16c-15,8.68-30,17.53-45.19,25.92-3.91,2.16-5.81,4.49-5.26,8.91a10.33,10.33,0,0,1-.6,4.39c-1,2.88-2.66,4.21-5.52,1.94A35.44,35.44,0,0,1,1353.76,1577Z"/><path class="cls-23" d="M1096,1314.14c0,7.57-7.46,16-14.79,16.83-2.17.24-3.41-.23-3.26-2.85.2-3.47-.08-7,.09-10.45a7.92,7.92,0,0,1,4.54-6.94c2.58-1.34,5-3,7.6-4.33,3.9-1.92,5.66-.71,5.81,3.76C1096,1311.49,1096,1312.82,1096,1314.14Z"/><path class="cls-24" d="M1078,1398.58c0-7.91,6.09-15.8,13.67-17.26,1.59-.31,4,.06,4.19,2.39a58.18,58.18,0,0,1-.21,11.88c-.52,3.45-11.39,11.14-15,11.38-1.84.13-2.78-.39-2.65-2.43S1078,1400.57,1078,1398.58Z"/><path class="cls-17" d="M1078.05,1436.21c-.07-8.09,6.34-15.59,14.18-16.67,2.29-.32,3.28,1,3.7,3,2.16,10.07-4.12,19.58-14.41,22-2.23.53-3.21-.53-3.42-2.39A51.66,51.66,0,0,1,1078.05,1436.21Z"/><path class="cls-19" d="M1078,1360.71a16.27,16.27,0,0,1,13.21-16.58c2.56-.56,4.41.07,4.76,3.35,1.21,11.34-3.11,17.86-14.12,21-2.3.66-3.59,0-3.81-2.35C1077.9,1364.36,1078,1362.53,1078,1360.71Z"/><path class="cls-1" d="M507,1324.07c-1.08-3.21-.79-6.56-.79-9.84q-.09-127.35,0-254.7c0-.83.08-1.66.13-2.49,1.11,1.27.77,2.83.77,4.3q0,130.37,0,260.74C507.11,1322.75,507,1323.41,507,1324.07Z"/><path class="cls-1" d="M916.94,1553.09c-1.12-2.21-.56-4.58-.56-6.87q-.06-118.36,0-236.74c0-3.83-.07-7.65-.11-11.47,1.22,1.43.8,3.18.8,4.79q0,124.15,0,248.29C917.06,1551.76,917,1552.42,916.94,1553.09Z"/><path class="cls-16" d="M1104.81,1311a3.15,3.15,0,0,1-3.06-2.56c-.71-2.14.49-3.41,2.13-4.36q10.65-6.09,21.34-12.11a15,15,0,0,0,2.19-1.11c2.28-1.9,4.83-3.2,6.63,0s-1.36,4.05-3.43,5.26c-7.56,4.38-15.09,8.8-22.64,13.19C1106.85,1310,1105.67,1310.5,1104.81,1311Z"/><path class="cls-16" d="M1104.7,1348.9a3.57,3.57,0,0,1-3.4-2.46c-1-2.23.83-3.4,2.38-4.3,5.39-3.12,10.86-6.1,16.28-9.17,3-1.69,5.94-3.47,8.91-5.22,1.83-1.07,3.67-1,4.71.87.77,1.42.93,3.29-.92,4.37q-13.48,7.83-27,15.61A4.32,4.32,0,0,1,1104.7,1348.9Z"/><path class="cls-16" d="M1132.83,1406c.33,2.86-1,3.87-2.51,4.7q-12.27,7-24.58,13.94c-1.74,1-3.26,2-4.83-.73-1.38-2.38-.17-3.56,1.33-4.45q12.69-7.54,25.56-14.78C1130.19,1403.3,1132.29,1403.55,1132.83,1406Z"/><path class="cls-15" d="M1133.85,1369a4.42,4.42,0,0,1-2.39,2.77c-8.43,4.91-16.9,9.74-25.33,14.64-1.7,1-3.27,1.73-4.5-.51-1.14-2.07-.88-3.66,1.39-4.94,8.13-4.62,16.12-9.49,24.31-14C1131,1364.9,1134.13,1366,1133.85,1369Z"/><path class="cls-4" d="M781,671.09c3.61-4.61,9.15-6.26,14-8.92,2.55-1.41,2,1.18,2,2.41.06,5.79,0,11.57,0,17.35Z"/><path class="cls-25" d="M601.17,1154a11.73,11.73,0,0,1-4.06,6.49c-2.82,2.33-5.21,2.35-6.91-1.29a10.5,10.5,0,0,1,3.83-7.6C597.48,1148.64,600,1149.46,601.17,1154Z"/><path class="cls-26" d="M704,1124.79c1.57.14,3.33-.26,4.32,1.52,0,4.17-.7,7.94-4.95,10-2.27,1.13-4.12,1.13-5.46-1.32C698.62,1130.83,699.3,1126.62,704,1124.79Z"/><path class="cls-1" d="M954.14,1311q0-16,.05-31.93c1.8,8,.44,16.13.74,24.2C955,1305.77,955.81,1308.53,954.14,1311Z"/><path class="cls-1" d="M540.71,1149.1c-.25,6.2,1,12.47-.73,18.61C540.4,1161.51,539.14,1155.25,540.71,1149.1Z"/><path class="cls-1" d="M539.08,1248c.55-.56,1.53-.62,1.53,0,0,4.53,1.08,9.14-.63,13.59C539.49,1257.13,541,1252.46,539.08,1248Z"/><path class="cls-1" d="M539,1267c.78-.8,1.68-.67,1.66.38-.06,4.46,1,9-.67,13.37C539.5,1276.13,541.07,1271.41,539,1267Z"/><path class="cls-1" d="M650.13,1499a26.61,26.61,0,0,1-14.22,0Z"/><path class="cls-1" d="M540,1210.2a23.52,23.52,0,0,1,0,13.48Q540,1216.93,540,1210.2Z"/><path class="cls-1" d="M540,1191.3a24.9,24.9,0,0,1,.07,13.72Q540,1198.17,540,1191.3Z"/><path class="cls-1" d="M540,1172.32c1.5,4.58,1.14,9.17.1,13.76Q540,1179.2,540,1172.32Z"/><path class="cls-1" d="M1204.91,1683.79c-4.65-.28-9.39,1.08-13.94-.83C1195.61,1683.35,1200.35,1682,1204.91,1683.79Z"/><path class="cls-1" d="M540.11,1229.85a22.5,22.5,0,0,1-.13,12.83Q540,1236.26,540.11,1229.85Z"/><path class="cls-1" d="M1365.89,1590.8c-4.33-.25-8.76,1.07-13-.8C1357.22,1590.36,1361.65,1589,1365.89,1590.8Z"/><path class="cls-2" d="M596.14,1289c-.06-1.58-1-3.68.67-4.51,1.44-.71,2.12,1,2.3,2.37A3.2,3.2,0,0,1,596.14,1289Z"/><path class="cls-1" d="M559.8,1274c0,3.65,0,7.29,0,10.93A16.46,16.46,0,0,1,559.8,1274Z"/><path class="cls-1" d="M1353.76,1577c0,3.31,0,6.61,0,9.92A12.88,12.88,0,0,1,1353.76,1577Z"/><path class="cls-1" d="M1060.17,1243.92q0-4.93,0-9.87A13.12,13.12,0,0,1,1060.17,1243.92Z"/><path d="M647,285.86c-.73,6.82-5.09,12.23-11.86,16.11-20.18,11.56-40.31,23.22-60.47,34.82q-13.83,7.95-27.69,15.83c-2.37,1.35-4.81,2.4-7.42.45-2.86-2.13-3-5.11-2.28-8.13a20.23,20.23,0,0,1,9.42-13.59q45-26.28,90.18-52.13C642.81,275.82,647.07,278.29,647,285.86Z"/><path d="M604,267.72c-1,8-4.29,15.81-12.79,20.23-5.7,3-10.7-.12-11.16-6.61-.53-7.35,6.2-18.63,12.95-21.7C599.21,256.82,604,259.92,604,267.72Z"/><path class="cls-4" d="M387.07,937c-6.47-1.42-11.36-5.91-17-8.87-1.39-.72-.86-2.41-.86-3.68,0-17.49.08-35-.11-52.48,0-3.12,1.44-4.41,3.71-5.71Q446.09,824,519.38,781.69q134.46-77.64,268.8-155.46c6.38-3.71,11.44-5,17.28,0,2.6,2.21,6.39,2.79,8.45,5.84-11.1,6.31-22.23,12.57-33.29,18.94q-34.12,19.62-68.18,39.34-31.07,17.94-62.13,35.88-31.3,18-62.63,36-30,17.29-59.95,34.67-34.07,19.7-68.16,39.38-30,17.33-59.93,34.7c-.14.08-.25.24-.4.29-11.37,3.42-13.06,11.58-12.4,22.26C387.73,908,387.07,922.48,387.07,937Z"/><path class="cls-4" d="M405,899.16c2.32.77,5.22,1.93,5.2,4,0,2.86-3.64,3.55-5.82,4.13-1.93.51-1.24-2.18-1.2-3.41C403.18,902.21,402,899.79,405,899.16Z"/><path class="cls-7" d="M1510.83,410.26c-2.06-3.94.42-9.49,5.6-12.05a37.55,37.55,0,0,1,12.46-3.15c7.24-.84,14.51-1.4,21.67-2.93,11.2-2.38,20.85-7.4,28.62-15.92.83-.91,1.31-2.36,3.36-2.47,1.38,16.34,6,31.43,18.21,43.18-6.43,3.7-10.87,2.8-14.57-2.95-6-9.33-20.11-10.19-27.49-1.37-2.75,3.29-5,4.63-9.27,2.63a12.11,12.11,0,0,0-9.69.15c-2.15.87-4.31,1-6.09-.69-5.78-5.54-12.52-6.28-19.9-4.21A3.74,3.74,0,0,1,1510.83,410.26Z"/><path class="cls-27" d="M1510.83,410.26c9-4.2,16.6-3.28,23.41,3.17,1.44,1.37,2.26,1.68,4.16.81a14.35,14.35,0,0,1,13.84.61c1.86,1.1,2.53.63,3.69-1.09,8.42-12.45,25.47-11.73,32.7,1.4,1.07,1.94,2,2.72,4.17,2.39,2.62-.39,5.3-.43,8-.62,4.26.74,8.38-.79,12.58-.82,1.88,0,3.94-.65,5.61.86-3.75,3.07-4.6,6.95-3.6,11.58a39,39,0,0,1,.46,6.94c.15,5.74-.74,6.33-6.17,3.86-5.78-2.63-7.9-7.51-8.47-13.56-.19-2,1.76-6.12-3.08-5.51-3.33.42-7.89-2-8.38,5-.65,9.13-9.34,14.49-20.34,13.91a16.2,16.2,0,0,1-15.47-15.82c-.07-3.37-1.38-5.33-4.31-6.46a11.48,11.48,0,0,0-10.52.6,2.39,2.39,0,0,0-.93,3.07c4.43,13.87-10.9,26.32-26.29,19.76-.31-.13-.63-.21-.95-.31C1499.46,432.51,1498.71,418,1510.83,410.26Z"/><path class="cls-28" d="M456.84,696.56c0-16.82.13-33.64-.08-50.46-.07-5.48,1.28-9.29,6.63-12,8.13-4,15.92-8.81,23.72-13.5,17.91-10.78,31.48-4.46,34.48,16.38,2.67,18.58,2.68,37.45-2.33,55.87-5.67,20.86-16.74,37.55-36.78,47.42-6.81,3.36-13.18,7.59-19.75,11.42-5.23,3-5.88,2.72-5.89-3.22Q456.81,722.54,456.84,696.56Z"/><path class="cls-28" d="M578.46,666.94c-8.76,5-17,9.91-25.43,14.47-2.57,1.4-3.34,3.5-3.86,5.9-.82,3.7-1.52,7.44-2.1,11.19a9.76,9.76,0,0,1-5.51,7.69c-3.38,1.74-6.56,3.86-9.87,5.74-1.23.7-2.51,2.16-4,1s-.79-2.86-.57-4.21c.94-5.71,2.1-11.38,3.23-17,6.57-33,13.21-66,19.68-99,1.25-6.39,3.64-11.49,10.08-14.22,3.63-1.54,6.87-4,10.31-6,5.51-3.13,7-2.49,8.53,3.53,3.29,12.75,6.62,25.49,9.88,38.24,4.2,16.43,8.22,32.9,12.6,49.28,1.39,5.18.41,8.58-4.63,10.87a94,94,0,0,0-9.48,5.44c-2.94,1.79-4.67,1.63-5.64-2.22C580.79,674.15,580.48,670.44,578.46,666.94Z"/><path class="cls-28" d="M709.57,591.27q-12.92,7.4-25.84,14.78a5.19,5.19,0,0,0-2.94,4.22c-.34,2.77-1.44,5.46-1.7,8.23-.61,6.42-2.92,11.37-9.47,13.74-2.45.89-4.54,2.71-6.86,4-1.22.66-2.38,2.4-3.92,1.25s-1-3.15-.69-4.69c1.57-8.44,3.29-16.86,5-25.28q9.43-46.85,18.86-93.69c.86-4.29,2.73-7.61,6.8-9.71,4.55-2.35,8.9-5.08,13.36-7.61,4.7-2.67,6.45-1.95,7.79,3.22q8.52,33,17,66.05c1.88,7.34,3.68,14.7,5.63,22,1.27,4.71.73,8.4-4.32,10.64a85.72,85.72,0,0,0-8.58,5c-4.95,2.9-5.87,2.52-7.39-3.11-.73-2.68-1.39-5.39-2.11-8.07A4,4,0,0,0,709.57,591.27Z"/><path class="cls-28" d="M620,570.79c-6.39,3.69-12,6.85-17.51,10.12-3.28,2-4.52.86-4.5-2.67,0-5.66,0-11.32,0-17a7.79,7.79,0,0,1,4.34-7.22c18.25-10.39,36.42-20.94,54.63-31.4,4.3-2.47,5-2.07,5,3,.05,5.33,0,10.66,0,16a7.77,7.77,0,0,1-4.55,7.56c-4.4,2.3-8.49,5.22-13,7.34-3.49,1.65-4.63,3.74-4.6,7.63.2,26.14,0,52.28.18,78.42,0,4.95-1.53,8.21-6,10.32-3.14,1.47-6,3.47-9.1,5.09-3.94,2.08-4.94,1.5-5-3,0-17.32,0-34.64,0-51.95Z"/><path class="cls-3" d="M1174.94,1697.92c11.56-2.27,23.16-3,34.84-1,1.12.2,2.21.61,3.31.92a43.35,43.35,0,0,1,22.59,10.42c10.74,9.61,9.33,23.77-3.15,33.1-15.63,11.68-33.55,14.84-52.53,13.66-12.83-.81-24.94-3.87-34.49-13.16-8.35-8.12-8.35-18.84-.54-27.49,7.38-8.17,16.87-12.51,27.17-15.49C1173.09,1698.64,1174,1698.26,1174.94,1697.92Z"/><path class="cls-3" d="M1326.92,1607.92c19.78-6.9,39.56-7.28,59.23.31a34.44,34.44,0,0,1,12.51,8.78c8.84,10.93,6.53,23.32-6.16,32.34-15.31,10.88-32.67,13.77-51,12.75-11.44-.64-22.17-3.47-31.6-10.32-11.44-8.31-12.53-21.41-2.7-31.61C1312.77,1614.41,1319.66,1610.89,1326.92,1607.92Z"/><path class="cls-17" d="M1251.08,1255.34c5.8,16.35,4.33,31.31.43,46.17a129,129,0,0,1-29,54.14c-9.3,10.37-20.23,18.67-33.93,22.34-9.86,2.65-18.94,1-26.66-6.4-2.84-2.72-2.53-5-.4-7.66,10.43-13.09,21-26.07,31.25-39.29,11.7-15.09,24.36-29.34,36.75-43.83,5.45-6.37,11.44-12.31,16.32-19.18C1247.32,1259.63,1249,1257.82,1251.08,1255.34Z"/><path class="cls-10" d="M1156.86,1363.36c-3.56-5.37-4.28-11-4.81-16.51-2.34-24.53,5.45-46.46,17.61-67.25,2.56-4.38,5-8.81,9.09-12.78,4.49,8.22,8.87,16.21,13.22,24.22,2.51,4.62,4.79,9.36,7.51,13.84a4,4,0,0,1-.36,5.2C1185.16,1327.71,1171.17,1345.32,1156.86,1363.36Z"/><path class="cls-12" d="M1220.07,1237.07c3.12-.21,4.26.41,3.26,3.39-5.18,15.38-10.2,30.81-15.27,46.23-1.24,3.77-2.42,7.56-3.71,11.31-.3.91-.55,2.15-1.67,2.31s-1.49-1.07-1.94-1.91c-6-11.08-12-22.17-18-33.22-.75-1.37-.79-2.46.24-3.61,9.91-11,21-20.31,35.71-24.25A11.42,11.42,0,0,1,1220.07,1237.07Z"/><path class="cls-24" d="M1209.23,1296.1c6.35-19.17,12.6-37.86,18.69-56.6.88-2.69,2.49-2.88,4.56-2.24,6.61,2,12.12,5.62,15.74,11.72.93,1.57,1.1,3-.27,4.51-7,7.93-13.92,15.92-20.88,23.88-4.55,5.22-9.07,10.48-13.69,15.64C1212.36,1294.15,1211.42,1295.59,1209.23,1296.1Z"/><path class="cls-17" d="M1049.23,1430.81c-4.56,10.52-9.16,20.19-15.76,28.67-8,10.22-16.6,19.89-28,26.45-8.63,5-17.9,8.78-27.92,6.56-12.63-2.79-18.42-12.72-21.22-24.31-2.51-10.34-2.15-10.58,7.42-15.09,13.09-6.17,26.34-12,39.44-18.2,2.39-1.13,4.88-1.08,7.24-1.29C1023.07,1432.49,1035.77,1431.74,1049.23,1430.81Z"/><path class="cls-10" d="M1018.88,1354.2c-2.13,11.53-4,22-6,32.48-2.58,13.49-5.34,26.94-7.79,40.46-.43,2.38-1.49,3.16-3.5,4.07-14,6.37-27.9,13-41.86,19.41-1.59.73-3.44,2.22-5.1,1-1.82-1.31.37-3,.41-4.51.46-17,6.18-32.46,14.08-47.09,10.62-19.67,24.33-36.6,45.39-46.16C1016.54,1353,1018.48,1351.6,1018.88,1354.2Z"/><path class="cls-12" d="M1058.1,1392.55c1.24,5-2.36,7.91-7.39,10.66-11.64,6.36-23,13.26-34.45,19.93a27.83,27.83,0,0,1-2.59,1.48c-1,.45-2.1,1.61-3.16.67-.91-.8-.56-2.19-.34-3.33,2.11-11,4.27-22.08,6.38-33.12,2.17-11.37,4.42-22.72,6.37-34.12.46-2.73,1.51-3.61,4.12-3.78,12.76-.83,23.24,6.66,27.86,20.28C1057.09,1377.69,1057.85,1384.44,1058.1,1392.55Z"/><path class="cls-29" d="M1016.43,1427.75l40.1-23.26c-.34,6.69-2.51,12.17-3.88,17.81-.6,2.48-2,4.33-5.13,4.49-10.28.55-20.55,1.3-30.83,2Z"/><path class="cls-30" d="M1573.3,394.85a6.05,6.05,0,0,1,5.54,2.73c.94,1.42,1.7,3.14.71,4.66-1.17,1.81-2.67,0-4-.2a9.5,9.5,0,0,1-3.76-1.21c-1.38-.85-4.44-.1-4-2.6S1570.81,394.93,1573.3,394.85Z"/><path class="cls-31" d="M1571.44,436.06c-8.73,0-14.73-5.74-14.67-14s6.46-13.88,15.53-13.86c8.6,0,14.75,5.92,14.67,14.09S1580.61,436.07,1571.44,436.06Z"/><path class="cls-31" d="M1508.77,422.58c0-7.94,2.14-10.71,9-11.46,9.42-1,15.91,3.1,17.71,11.29,1.41,6.39-2.87,13.63-9.35,15.6a21.79,21.79,0,0,1-5.38.9c-7.63.35-10.38-2-11.3-9.4C1509.16,427.21,1509,424.89,1508.77,422.58Z"/><path class="cls-10" d="M476.85,684.33c0-9.14.06-18.29,0-27.44,0-2.41.52-4,2.85-5.16,3.56-1.74,6.85-4,10.42-5.75,5.93-2.84,11-.55,11.78,5.81,1.61,14.05,2.2,28.22-1,42.09-2,8.71-8.19,14.55-16.28,18.3-2.46,1.14-4.7,4.15-7.2,3.14-1-.41-.51-4.9-.52-7.53C476.82,700,476.85,692.15,476.85,684.33Z"/><path class="cls-23" d="M564.94,611c2.61,10.19,5.19,20.39,7.84,30.57a2.7,2.7,0,0,1-1.25,3.39c-4.94,2.84-9.93,5.61-15.71,8.88,2.9-15,5.62-29,8.34-43Z"/><path class="cls-23" d="M686.91,578.16c2.88-14.74,5.58-28.64,8.29-42.54l.84-.21c1.66,6.33,3.57,12.59,4.87,19,1,4.62,4.67,9.76,2.42,13.62-2,3.5-7.5,5-11.46,7.37C690.46,576.22,689,577,686.91,578.16Z"/><path class="cls-32" d="M1188.72,1744c-7.57-.31-14.42-1.33-20.64-4.87-10.45-5.94-11.27-15.86-2-23.35,12.13-9.76,36-11.23,49-3,8.9,5.59,9.9,14.39,2.13,21.53C1209.09,1741.79,1198.78,1743.39,1188.72,1744Z"/><path class="cls-32" d="M1350.35,1651c-8.1-.26-15.12-1.38-21.45-5.07-9.83-5.73-10.89-14.92-2.31-22.36,9.1-7.89,20.22-9.5,31.77-9,6.71.29,13.14,1.84,18.8,5.72,7.95,5.43,8.83,13.46,2.07,20.19C1371,1648.68,1360.4,1650.31,1350.35,1651Z"/><path class="cls-33" d="M1561.54,422.51c.15-3.2,1.67-5.4,5.12-5.37s5.21,2.16,5.21,5.43-1.81,5.39-5.2,5.46S1561.7,425.89,1561.54,422.51Z"/><path class="cls-34" d="M1516.65,424.75c.26-3.39,2-5.52,5.35-5.35,3.12.17,5.17,2.07,5,5.56s-1.92,5.2-5.31,5.19C1518.13,430.14,1516.84,427.88,1516.65,424.75Z"/></g></g></svg>