<svg xmlns="http://www.w3.org/2000/svg" viewBox="0 0 435.25 362.27"><defs><style>.cls-1{fill:#fafafa;}.cls-2,.cls-7{fill:#e0e0e0;}.cls-3{fill:#f0f0f0;}.cls-4{fill:#e6e6e6;}.cls-5{fill:#ebebeb;}.cls-6{fill:#f5f5f5;}.cls-16,.cls-17,.cls-7{opacity:0.5;}.cls-17,.cls-8{fill:#263238;}.cls-9{fill:#37474f;}.cls-10,.cls-16{fill:#455a64;}.cls-11{fill:#27debf;}.cls-12,.cls-19{opacity:0.2;}.cls-13,.cls-22{opacity:0.4;}.cls-14,.cls-20,.cls-22{fill:#fff;}.cls-15,.cls-20{opacity:0.1;}.cls-18{opacity:0.3;}.cls-21,.cls-23{opacity:0.15;}</style></defs><title>archive use</title><g id="Layer_2" data-name="Layer 2"><g id="Arrow"><ellipse id="Floor" class="cls-1" cx="216.68" cy="263.21" rx="189.51" ry="99.06"/><path id="Shadow" class="cls-2" d="M219,286.08c-4.45,0-9-.19-13.4-.57-35.09-2.94-66.43-17.11-81.79-37l-.61-.79,14.2-11,.61.79c14.14,18.28,46.72,30.56,81.08,30.56h0c3.22,0,6.45-.11,9.6-.33,21.37-1.5,39.85-7.92,50.92-17.68l-10-10.86,35.45-2-3.13,37.06-10.13-11C277.61,276,255.7,283.89,229.92,285.7,226.32,286,222.63,286.08,219,286.08Z"/><g id="Boxes"><polygon class="cls-3" points="177.17 192.96 177.17 178.62 195.8 167.87 195.8 182.21 177.17 192.96"/><polygon class="cls-4" points="177.17 178.62 153.88 165.18 153.88 179.52 177.17 192.96 177.17 178.62"/><polygon class="cls-1" points="177.17 178.62 196.35 167.54 172.51 153.78 153.33 164.86 177.17 178.62"/><polygon class="cls-3" points="177.17 178.62 177.17 182.21 196.35 171.13 196.35 167.54 177.17 178.62"/><polygon class="cls-4" points="177.17 182.21 195.8 171.45 195.8 172.24 177.17 183 177.17 182.21"/><polygon class="cls-4" points="153.33 164.86 177.17 178.62 177.17 182.21 153.33 168.45 153.33 164.86"/><polygon class="cls-2" points="177.17 182.21 153.88 168.76 153.88 169.55 177.17 183 177.17 182.21"/><path class="cls-5" d="M183.3,180.8l6.37-3.67c.27-.16.49,0,.49.29v3.76a1.1,1.1,0,0,1-.49.86l-6.37,3.67c-.27.16-.49,0-.49-.28v-3.77A1.12,1.12,0,0,1,183.3,180.8Z"/><path class="cls-1" d="M183.71,181.23l5.55-3.2c.18-.11.33,0,.33.19V181a.73.73,0,0,1-.33.57l-5.55,3.2c-.18.11-.33,0-.33-.19V181.8A.74.74,0,0,1,183.71,181.23Z"/><polygon class="cls-3" points="177.17 176.82 177.17 162.48 195.8 151.73 195.8 166.07 177.17 176.82"/><polygon class="cls-4" points="177.17 162.48 153.88 149.04 153.88 163.38 177.17 176.82 177.17 162.48"/><polygon class="cls-6" points="177.17 162.48 196.35 151.4 172.51 137.64 153.33 148.72 177.17 162.48"/><polygon class="cls-3" points="177.17 162.48 177.17 166.07 196.35 154.99 196.35 151.4 177.17 162.48"/><polygon class="cls-4" points="177.17 166.07 195.8 155.31 195.8 156.1 177.17 166.85 177.17 166.07"/><polygon class="cls-4" points="153.33 148.72 177.17 162.48 177.17 166.07 153.33 152.3 153.33 148.72"/><polygon class="cls-2" points="177.17 166.07 153.88 152.62 153.88 153.41 177.17 166.85 177.17 166.07"/><path class="cls-5" d="M183.3,164.66l6.37-3.67c.27-.16.49,0,.49.28V165a1.12,1.12,0,0,1-.49.86l-6.37,3.67c-.27.16-.49,0-.49-.29v-3.76A1.1,1.1,0,0,1,183.3,164.66Z"/><path class="cls-1" d="M183.71,165.09l5.55-3.21c.18-.1.33,0,.33.2v2.82a.74.74,0,0,1-.33.57l-5.55,3.2c-.18.11-.33,0-.33-.19v-2.82A.73.73,0,0,1,183.71,165.09Z"/><polygon class="cls-2" points="194.79 166.65 177.17 176.82 154.89 163.95 154.34 164.27 177.17 177.41 195.34 166.96 194.79 166.65"/><polygon class="cls-7" points="194.79 166.65 177.17 176.82 154.89 163.95 154.34 164.27 177.17 177.41 195.34 166.96 194.79 166.65"/></g><g id="Boxes-2" data-name="Boxes"><polygon class="cls-3" points="258.09 192.96 258.09 178.62 239.46 167.87 239.46 182.21 258.09 192.96"/><polygon class="cls-4" points="258.09 178.62 281.37 165.18 281.37 179.52 258.09 192.96 258.09 178.62"/><polygon class="cls-1" points="258.09 178.62 238.91 167.54 262.74 153.78 281.92 164.86 258.09 178.62"/><polygon class="cls-3" points="258.09 178.62 258.09 182.21 238.91 171.13 238.91 167.54 258.09 178.62"/><polygon class="cls-4" points="258.09 182.21 239.46 171.45 239.46 172.24 258.09 183 258.09 182.21"/><polygon class="cls-4" points="281.92 164.86 258.09 178.62 258.09 182.21 281.92 168.45 281.92 164.86"/><polygon class="cls-2" points="258.09 182.21 281.37 168.76 281.37 169.55 258.09 183 258.09 182.21"/><path class="cls-5" d="M252,180.8l-6.36-3.67c-.27-.16-.5,0-.5.29v3.76a1.11,1.11,0,0,0,.5.86l6.36,3.67c.28.16.5,0,.5-.28v-3.77A1.1,1.1,0,0,0,252,180.8Z"/><path class="cls-1" d="M251.55,181.23,246,178c-.19-.11-.33,0-.33.19V181a.7.7,0,0,0,.33.57l5.55,3.2c.18.11.33,0,.33-.19V181.8A.74.74,0,0,0,251.55,181.23Z"/><polygon class="cls-3" points="258.09 176.82 258.09 162.48 239.46 151.73 239.46 166.07 258.09 176.82"/><polygon class="cls-4" points="258.09 162.48 281.37 149.04 281.37 163.38 258.09 176.82 258.09 162.48"/><polygon class="cls-6" points="258.09 162.48 238.91 151.4 262.74 137.64 281.92 148.72 258.09 162.48"/><polygon class="cls-3" points="258.09 162.48 258.09 166.07 238.91 154.99 238.91 151.4 258.09 162.48"/><polygon class="cls-4" points="258.09 166.07 239.46 155.31 239.46 156.1 258.09 166.85 258.09 166.07"/><polygon class="cls-4" points="281.92 148.72 258.09 162.48 258.09 166.07 281.92 152.3 281.92 148.72"/><polygon class="cls-2" points="258.09 166.07 281.37 152.62 281.37 153.41 258.09 166.85 258.09 166.07"/><path class="cls-5" d="M252,164.66,245.59,161c-.27-.16-.5,0-.5.28V165a1.13,1.13,0,0,0,.5.86l6.36,3.67c.28.16.5,0,.5-.29v-3.76A1.08,1.08,0,0,0,252,164.66Z"/><path class="cls-1" d="M251.55,165.09,246,161.88c-.19-.1-.33,0-.33.2v2.82a.71.71,0,0,0,.33.57l5.55,3.2c.18.11.33,0,.33-.19v-2.82A.73.73,0,0,0,251.55,165.09Z"/><polygon class="cls-2" points="240.46 166.65 258.09 176.82 280.37 163.95 280.91 164.27 258.09 177.41 239.91 166.96 240.46 166.65"/><polygon class="cls-7" points="240.46 166.65 258.09 176.82 280.37 163.95 280.91 164.27 258.09 177.41 239.91 166.96 240.46 166.65"/></g><g id="Cabinet"><polygon class="cls-8" points="31.81 251.05 54.07 238.19 54.07 190.44 31.81 203.3 31.81 251.05"/><polygon class="cls-9" points="31.81 203.3 0 184.94 0 232.68 31.81 251.05 31.81 203.3"/><polygon class="cls-10" points="0 184.94 31.81 203.3 54.07 190.44 22.27 172.08 0 184.94"/><polygon class="cls-8" points="29.21 227.51 3.77 212.82 3.77 230.51 3.18 230.85 28.63 245.54 29.21 245.2 29.21 227.51"/><polygon class="cls-10" points="28.63 227.85 3.18 213.16 3.18 230.85 28.63 245.54 28.63 227.85"/><path class="cls-8" d="M18.65,225.09l-4.32-2.5c-.57-.32-1-.17-1,.33a2,2,0,0,0,1,1.51l4.32,2.5c.57.32,1,.17,1-.33A2,2,0,0,0,18.65,225.09Z"/><polygon class="cls-8" points="29.21 206.17 3.77 191.47 3.77 209.16 3.18 209.5 28.63 224.19 29.21 223.85 29.21 206.17"/><polygon class="cls-10" points="28.63 206.5 3.18 191.81 3.18 209.5 28.63 224.19 28.63 206.5"/><path class="cls-8" d="M18.65,203.74l-4.32-2.5c-.57-.32-1-.17-1,.33a2,2,0,0,0,1,1.51l4.32,2.5c.57.32,1,.17,1-.33A2.06,2.06,0,0,0,18.65,203.74Z"/></g><g id="Cabinet-2" data-name="Cabinet"><polygon class="cls-11" points="403.45 251.05 381.18 238.19 381.18 190.44 403.45 203.3 403.45 251.05"/><g class="cls-12"><polygon points="403.45 251.05 381.18 238.19 381.18 190.44 403.45 203.3 403.45 251.05"/></g><polygon class="cls-11" points="403.45 203.3 435.25 184.94 435.25 232.68 403.45 251.05 403.45 203.3"/><polygon class="cls-11" points="435.25 184.94 403.45 203.3 381.18 190.44 412.99 172.08 435.25 184.94"/><g class="cls-13"><polygon class="cls-14" points="435.25 184.94 403.45 203.3 381.18 190.44 412.99 172.08 435.25 184.94"/></g><polygon class="cls-11" points="406.04 227.51 431.49 212.82 431.49 230.51 432.07 230.85 406.63 245.54 406.04 245.2 406.04 227.51"/><g class="cls-15"><polygon points="406.04 227.51 431.49 212.82 431.49 230.51 432.07 230.85 406.63 245.54 406.04 245.2 406.04 227.51"/></g><polygon class="cls-11" points="406.63 227.85 432.07 213.16 432.07 230.85 406.63 245.54 406.63 227.85"/><g class="cls-13"><polygon class="cls-14" points="406.63 227.85 432.07 213.16 432.07 230.85 406.63 245.54 406.63 227.85"/></g><path class="cls-11" d="M416.6,225.09l4.33-2.5c.56-.32,1-.17,1,.33a2.06,2.06,0,0,1-1,1.51l-4.33,2.5c-.56.32-1,.17-1-.33A2,2,0,0,1,416.6,225.09Z"/><g class="cls-15"><path d="M416.6,225.09l4.33-2.5c.56-.32,1-.17,1,.33a2.06,2.06,0,0,1-1,1.51l-4.33,2.5c-.56.32-1,.17-1-.33A2,2,0,0,1,416.6,225.09Z"/></g><polygon class="cls-11" points="406.04 206.17 431.49 191.47 431.49 209.16 432.07 209.5 406.63 224.19 406.04 223.85 406.04 206.17"/><g class="cls-15"><polygon points="406.04 206.17 431.49 191.47 431.49 209.16 432.07 209.5 406.63 224.19 406.04 223.85 406.04 206.17"/></g><polygon class="cls-11" points="406.63 206.5 432.07 191.81 432.07 209.5 406.63 224.19 406.63 206.5"/><g class="cls-13"><polygon class="cls-14" points="406.63 206.5 432.07 191.81 432.07 209.5 406.63 224.19 406.63 206.5"/></g><path class="cls-11" d="M416.6,203.74l4.33-2.5c.56-.32,1-.17,1,.33a2,2,0,0,1-1,1.51l-4.33,2.5c-.56.32-1,.17-1-.33A2.06,2.06,0,0,1,416.6,203.74Z"/><g class="cls-15"><path d="M416.6,203.74l4.33-2.5c.56-.32,1-.17,1,.33a2,2,0,0,1-1,1.51l-4.33,2.5c-.56.32-1,.17-1-.33A2.06,2.06,0,0,1,416.6,203.74Z"/></g></g><g id="Folder_Black" data-name="Folder Black"><path class="cls-11" d="M272.21,189.4l104.1,60.1,6.32,3.65.3.16a4.18,4.18,0,0,0,.53.21,3.69,3.69,0,0,0,.65.18,3.64,3.64,0,0,0,.44.07.15.15,0,0,0,.09,0,3.6,3.6,0,0,0,.56,0,3.33,3.33,0,0,0,1.67-.37,6.21,6.21,0,0,0,2.37-3.77l17.54-91.13a3,3,0,0,0,.05-.6,4.19,4.19,0,0,0,0-.5v0a4,4,0,0,0-.18-.74,4.93,4.93,0,0,0-.31-.71,3.7,3.7,0,0,0-.25-.43,3.83,3.83,0,0,0-.36-.44,2.44,2.44,0,0,0-.37-.35,2.29,2.29,0,0,0-.41-.28L294.5,90.73a2.11,2.11,0,0,0-.3-.16,2.88,2.88,0,0,0-.31-.13l-.14,0a1.46,1.46,0,0,0-.4,0,5.08,5.08,0,0,0-2,.93l-2.45,1.43h0a1.56,1.56,0,0,0-.5.35,2.19,2.19,0,0,0-.45.76c0,.13-.07.26-.1.37l-17.54,91.14A4.14,4.14,0,0,0,272.21,189.4Z"/><path class="cls-11" d="M272.21,189.4l104.1,60.1,6.32,3.65.3.16a4.18,4.18,0,0,0,.53.21,3.69,3.69,0,0,0,.65.18,3.64,3.64,0,0,0,.44.07.15.15,0,0,0,.09,0,3.6,3.6,0,0,0,.56,0,3.33,3.33,0,0,0,1.67-.37,6.21,6.21,0,0,0,2.37-3.77l17.54-91.13a3,3,0,0,0,.05-.6,4.19,4.19,0,0,0,0-.5v0a4,4,0,0,0-.18-.74,4.93,4.93,0,0,0-.31-.71,3.7,3.7,0,0,0-.25-.43,3.83,3.83,0,0,0-.36-.44,2.44,2.44,0,0,0-.37-.35,2.29,2.29,0,0,0-.41-.28L294.5,90.73a2.11,2.11,0,0,0-.3-.16,2.88,2.88,0,0,0-.31-.13l-.14,0a1.46,1.46,0,0,0-.4,0,5.08,5.08,0,0,0-2,.93l-2.45,1.43h0a1.56,1.56,0,0,0-.5.35,2.19,2.19,0,0,0-.45.76c0,.13-.07.26-.1.37l-17.54,91.14A4.14,4.14,0,0,0,272.21,189.4Z"/><path class="cls-8" d="M382.93,253.31a4.67,4.67,0,0,0,3.94.14,6.21,6.21,0,0,0,2.37-3.77l17.54-91.13a4,4,0,0,0-.47-2.57l-3.71,2.14a4,4,0,0,1,.47,2.57l-17.55,91.14A1.8,1.8,0,0,1,382.93,253.31Z"/><path class="cls-9" d="M291.39,91.27l-2.45,1.43h0a1.93,1.93,0,0,1,1.84.17l110.43,63.75a3.85,3.85,0,0,1,1.39,1.49l3.71-2.14a3.7,3.7,0,0,0-.25-.43,3.83,3.83,0,0,0-.36-.44,3.13,3.13,0,0,0-.78-.63L294.5,90.73a4.27,4.27,0,0,0-.61-.29l-.14,0a1.46,1.46,0,0,0-.4,0A5.08,5.08,0,0,0,291.39,91.27Z"/><path class="cls-16" d="M291.39,91.27l-2.45,1.43h0a1.93,1.93,0,0,1,1.84.17l110.43,63.75a3.85,3.85,0,0,1,1.39,1.49l3.71-2.14a3.7,3.7,0,0,0-.25-.43,3.83,3.83,0,0,0-.36-.44,3.13,3.13,0,0,0-.78-.63L294.5,90.73a4.27,4.27,0,0,0-.61-.29l-.14,0a1.46,1.46,0,0,0-.4,0A5.08,5.08,0,0,0,291.39,91.27Z"/><path class="cls-11" d="M385.52,251.83l17.54-91.14a4.09,4.09,0,0,0-1.85-4.06L290.78,92.87a1.83,1.83,0,0,0-2.89,1.33l-17.54,91.13a4.13,4.13,0,0,0,1.86,4.07l110.42,63.75A1.82,1.82,0,0,0,385.52,251.83Z"/><path class="cls-9" d="M385.52,251.83l17.54-91.14a4.09,4.09,0,0,0-1.85-4.06L290.78,92.87a1.83,1.83,0,0,0-2.89,1.33l-17.54,91.13a4.13,4.13,0,0,0,1.86,4.07l110.42,63.75A1.82,1.82,0,0,0,385.52,251.83Z"/><path class="cls-17" d="M385.52,251.83l17.54-91.14a4.09,4.09,0,0,0-1.85-4.06L290.78,92.87a1.83,1.83,0,0,0-2.89,1.33l-17.54,91.13a4.13,4.13,0,0,0,1.86,4.07l110.42,63.75A1.82,1.82,0,0,0,385.52,251.83Z"/><path class="cls-11" d="M301.82,185.72,376.71,229l4.55,2.62.21.11a2.5,2.5,0,0,0,.38.15,2.79,2.79,0,0,0,.47.14l.32.05h.06a2.83,2.83,0,0,0,.41,0,2.3,2.3,0,0,0,1.19-.26,4.47,4.47,0,0,0,1.71-2.71l12.62-65.57a2.86,2.86,0,0,0,0-.43,2.19,2.19,0,0,0,0-.36h0a2.4,2.4,0,0,0-.12-.53,2.94,2.94,0,0,0-.23-.51,3.14,3.14,0,0,0-.18-.31,2.78,2.78,0,0,0-.26-.32,2,2,0,0,0-.26-.25,2,2,0,0,0-.3-.2l-79.44-45.87-.21-.11-.22-.1-.11,0a.7.7,0,0,0-.29,0,3.56,3.56,0,0,0-1.4.66l-1.77,1h0a1.07,1.07,0,0,0-.35.25,1.43,1.43,0,0,0-.32.55,1.38,1.38,0,0,0-.08.27l-12.62,65.56A3,3,0,0,0,301.82,185.72Z"/><path class="cls-11" d="M301.82,185.72,376.71,229l4.55,2.62.21.11a2.5,2.5,0,0,0,.38.15,2.79,2.79,0,0,0,.47.14l.32.05h.06a2.83,2.83,0,0,0,.41,0,2.3,2.3,0,0,0,1.19-.26,4.47,4.47,0,0,0,1.71-2.71l12.62-65.57a2.86,2.86,0,0,0,0-.43,2.19,2.19,0,0,0,0-.36h0a2.4,2.4,0,0,0-.12-.53,2.94,2.94,0,0,0-.23-.51,3.14,3.14,0,0,0-.18-.31,2.78,2.78,0,0,0-.26-.32,2,2,0,0,0-.26-.25,2,2,0,0,0-.3-.2l-79.44-45.87-.21-.11-.22-.1-.11,0a.7.7,0,0,0-.29,0,3.56,3.56,0,0,0-1.4.66l-1.77,1h0a1.07,1.07,0,0,0-.35.25,1.43,1.43,0,0,0-.32.55,1.38,1.38,0,0,0-.08.27l-12.62,65.56A3,3,0,0,0,301.82,185.72Z"/><path class="cls-2" d="M381.47,231.69a3.36,3.36,0,0,0,2.83.11,4.47,4.47,0,0,0,1.71-2.71l12.62-65.57a2.88,2.88,0,0,0-.34-1.84l-2.67,1.54a2.88,2.88,0,0,1,.34,1.84l-12.62,65.57A1.3,1.3,0,0,1,381.47,231.69Z"/><path class="cls-1" d="M315.62,115.12l-1.77,1h0a1.4,1.4,0,0,1,1.33.12l79.44,45.86a2.68,2.68,0,0,1,1,1.08l2.67-1.54a3.14,3.14,0,0,0-.18-.31,2.78,2.78,0,0,0-.26-.32,2,2,0,0,0-.56-.45l-79.44-45.87a4.3,4.3,0,0,0-.43-.21l-.11,0a.7.7,0,0,0-.29,0A3.56,3.56,0,0,0,315.62,115.12Z"/><path class="cls-6" d="M383.34,230.63,396,165.07a3,3,0,0,0-1.34-2.93l-79.44-45.86a1.31,1.31,0,0,0-2.08,1l-12.62,65.56a3,3,0,0,0,1.34,2.93l79.44,45.86A1.31,1.31,0,0,0,383.34,230.63Z"/><g id="Document"><path class="cls-5" d="M324.58,166.44a2.31,2.31,0,0,0,1-1.83V45.37a2.39,2.39,0,0,0-1.08-1.87L249.64.27a2.33,2.33,0,0,0-2.09,0,2.33,2.33,0,0,0-1,1.83V121.3a2.39,2.39,0,0,0,1.08,1.87l74.88,43.23A2.3,2.3,0,0,0,324.58,166.44Z"/><path class="cls-1" d="M246.54,1.87c.09-.54.53-.74,1.07-.42l74.88,43.22a2.05,2.05,0,0,1,.76.81l2-1.17a2.2,2.2,0,0,0-.76-.81L249.64.27a2.33,2.33,0,0,0-2.09,0A2.41,2.41,0,0,0,246.54,1.87Z"/><path class="cls-2" d="M322.64,166.47a2,2,0,0,0,2.95-1.86V45.38a2.16,2.16,0,0,0-.31-1.07l-2,1.17a2.17,2.17,0,0,1,.32,1.07V165.78C323.57,166.41,323.16,166.7,322.64,166.47Z"/><path class="cls-6" d="M322.49,166.4l-74.88-43.23a2.39,2.39,0,0,1-1.08-1.87V2.06c0-.68.49-1,1.08-.62l74.88,43.23a2.38,2.38,0,0,1,1.08,1.87V165.78C323.57,166.47,323.09,166.75,322.49,166.4Z"/><g class="cls-18"><path class="cls-10" d="M318.1,99c0,.91-.82,1.18-1.84.6L253.84,63.54A3.67,3.67,0,0,1,252,60.82c0-.92.82-1.18,1.84-.6l62.43,36.05A3.67,3.67,0,0,1,318.1,99Z"/><path class="cls-10" d="M318.1,108.94c0,.92-.82,1.19-1.84.6l-62.42-36A3.69,3.69,0,0,1,252,70.78c0-.92.82-1.19,1.84-.6l62.43,36A3.7,3.7,0,0,1,318.1,108.94Z"/><path class="cls-10" d="M318.1,118.9c0,.91-.82,1.18-1.84.6l-62.42-36A3.65,3.65,0,0,1,252,80.73c0-.91.82-1.18,1.84-.6l62.43,36.05A3.67,3.67,0,0,1,318.1,118.9Z"/><path class="cls-10" d="M318.1,128.85c0,.92-.82,1.19-1.84.6l-62.42-36A3.69,3.69,0,0,1,252,90.69c0-.92.82-1.19,1.84-.6l62.43,36A3.7,3.7,0,0,1,318.1,128.85Z"/><path class="cls-10" d="M318.1,69.12c0,.92-.82,1.18-1.84.6l-62.42-36A3.65,3.65,0,0,1,252,31c0-.91.82-1.18,1.84-.6L316.27,66.4A3.67,3.67,0,0,1,318.1,69.12Z"/><path class="cls-10" d="M318.1,79.08c0,.91-.82,1.18-1.84.59l-62.42-36A3.69,3.69,0,0,1,252,40.91c0-.92.82-1.19,1.84-.6l62.43,36A3.7,3.7,0,0,1,318.1,79.08Z"/><path class="cls-10" d="M318.1,59.18c0,.91-.82,1.18-1.84.6l-62.42-36A3.67,3.67,0,0,1,252,21c0-.92.82-1.18,1.84-.6l62.43,36.05A3.67,3.67,0,0,1,318.1,59.18Z"/><path class="cls-10" d="M318.1,89c0,.92-.82,1.19-1.84.6l-62.42-36A3.65,3.65,0,0,1,252,50.86c0-.91.82-1.18,1.84-.59l62.43,36A3.68,3.68,0,0,1,318.1,89Z"/><path class="cls-10" d="M318.1,138.81c0,.92-.82,1.18-1.84.6l-62.42-36a3.65,3.65,0,0,1-1.84-2.72c0-.91.82-1.18,1.84-.59l62.43,36A3.68,3.68,0,0,1,318.1,138.81Z"/><path class="cls-10" d="M318.1,148.77c0,.91-.82,1.18-1.84.59l-62.42-36A3.67,3.67,0,0,1,252,110.6c0-.92.82-1.18,1.84-.6l62.43,36.05A3.67,3.67,0,0,1,318.1,148.77Z"/></g></g><path class="cls-11" d="M267.74,102.69a1.79,1.79,0,0,1,.68-1.57.76.76,0,0,1,.18-.1l3.58-2.09h0a1.73,1.73,0,0,1,1.74.17l71.57,41.27,2.08-8.4a2.29,2.29,0,0,1,1-1.37h0l3.73-2.16v0a2.19,2.19,0,0,1,2.26.05L385,146.08a5.47,5.47,0,0,1,2.48,4.29V251.9a1.78,1.78,0,0,1-.66,1.57h0L383,255.69h0a1.78,1.78,0,0,1-1.68-.2L270.18,191.31A5.47,5.47,0,0,1,267.7,187Z"/><path class="cls-10" d="M348.67,130.56a2.22,2.22,0,0,1,2.21.1l30.45,17.58a5.21,5.21,0,0,1,1.75,1.85l3.71-2.16a4.89,4.89,0,0,0-1.75-1.85L354.59,128.5a2.21,2.21,0,0,0-2.26-.05v0Z"/><path class="cls-10" d="M268.6,101a1.87,1.87,0,0,1,1.62.24l71.64,41.33a2.17,2.17,0,0,0,3.31-1.31l.33-.91L273.93,99.1a2.16,2.16,0,0,0-1.1-.33,1.24,1.24,0,0,0-.64.16h0Z"/><path class="cls-9" d="M267.75,102.69,267.7,187a5.47,5.47,0,0,0,2.48,4.29l111.44,64.33a1.46,1.46,0,0,0,2.19-1.26V152.53a5,5,0,0,0-.73-2.44,5.24,5.24,0,0,0-1.74-1.84l-30.45-17.58a2.22,2.22,0,0,0-2.22-.1l-.07,0h0a2.3,2.3,0,0,0-1,1.37l-2.09,8.4-.33.91a2.17,2.17,0,0,1-3.3,1.32l-71.65-41.34a1.81,1.81,0,0,0-1.61-.23l-.1,0-.06,0,0,0A1.76,1.76,0,0,0,267.75,102.69Z"/><path class="cls-11" d="M319.69,183.74a1.25,1.25,0,0,1,.5-.11,1.18,1.18,0,0,1,1.06.67l3.33,7v-12.5a1.18,1.18,0,0,1,2.35,0v15l3.57-3.44a1.17,1.17,0,1,1,1.63,1.69l-5.56,5.35a1.15,1.15,0,0,1-1,.31,1.18,1.18,0,0,1-.85-.65l-5.56-11.78A1.18,1.18,0,0,1,319.69,183.74Z"/><path class="cls-11" d="M333.74,186.42a1.18,1.18,0,0,1-1.17-1.17v-7.08l-13.63-7.87V176a1.18,1.18,0,0,1-2.35,0v-7.75a1.19,1.19,0,0,1,.59-1,1.15,1.15,0,0,1,1.17,0l16,9.23a1.17,1.17,0,0,1,.59,1v7.76A1.18,1.18,0,0,1,333.74,186.42Z"/><path class="cls-8" d="M382.91,255.73l.11,0,3.83-2.22a1.79,1.79,0,0,0,.67-1.57V150.36a5,5,0,0,0-.74-2.43l-3.7,2.16h0a5,5,0,0,1,.72,2.43V254.39A1.43,1.43,0,0,1,382.91,255.73Z"/></g><g id="Folder_Green" data-name="Folder Green"><path class="cls-11" d="M163.05,189.4,58.94,249.5l-6.32,3.65-.29.16a4.87,4.87,0,0,1-.53.21,3.79,3.79,0,0,1-.66.18,3.35,3.35,0,0,1-.44.07.14.14,0,0,1-.09,0,3.43,3.43,0,0,1-.56,0,3.29,3.29,0,0,1-1.66-.37A6.12,6.12,0,0,1,46,249.68L28.48,158.55a3,3,0,0,1-.06-.6,2.81,2.81,0,0,1,0-.5v0a4,4,0,0,1,.17-.74,4.93,4.93,0,0,1,.31-.71c.08-.15.17-.29.26-.43a3.83,3.83,0,0,1,.36-.44,2,2,0,0,1,.36-.35,3.32,3.32,0,0,1,.41-.28L140.76,90.73a2.69,2.69,0,0,1,.29-.16,2.88,2.88,0,0,1,.31-.13l.15,0a1.37,1.37,0,0,1,.4,0,5.15,5.15,0,0,1,2,.93c1.3.77,2.45,1.43,2.45,1.43h0a1.52,1.52,0,0,1,.49.35,2,2,0,0,1,.45.76,3.47,3.47,0,0,1,.1.37l17.54,91.14A4.14,4.14,0,0,1,163.05,189.4Z"/><path class="cls-11" d="M163.05,189.4,58.94,249.5l-6.32,3.65-.29.16a4.87,4.87,0,0,1-.53.21,3.79,3.79,0,0,1-.66.18,3.35,3.35,0,0,1-.44.07.14.14,0,0,1-.09,0,3.43,3.43,0,0,1-.56,0,3.29,3.29,0,0,1-1.66-.37A6.12,6.12,0,0,1,46,249.68L28.48,158.55a3,3,0,0,1-.06-.6,2.81,2.81,0,0,1,0-.5v0a4,4,0,0,1,.17-.74,4.93,4.93,0,0,1,.31-.71c.08-.15.17-.29.26-.43a3.83,3.83,0,0,1,.36-.44,2,2,0,0,1,.36-.35,3.32,3.32,0,0,1,.41-.28L140.76,90.73a2.69,2.69,0,0,1,.29-.16,2.88,2.88,0,0,1,.31-.13l.15,0a1.37,1.37,0,0,1,.4,0,5.15,5.15,0,0,1,2,.93c1.3.77,2.45,1.43,2.45,1.43h0a1.52,1.52,0,0,1,.49.35,2,2,0,0,1,.45.76,3.47,3.47,0,0,1,.1.37l17.54,91.14A4.14,4.14,0,0,1,163.05,189.4Z"/><path class="cls-19" d="M52.33,253.31a4.67,4.67,0,0,1-3.94.14A6.12,6.12,0,0,1,46,249.68L28.48,158.55a4,4,0,0,1,.46-2.57l3.72,2.14a4,4,0,0,0-.47,2.57l17.54,91.14A1.81,1.81,0,0,0,52.33,253.31Z"/><path class="cls-20" d="M143.87,91.27c1.3.77,2.45,1.43,2.45,1.43h0a2,2,0,0,0-1.85.17L34.05,156.63a3.71,3.71,0,0,0-1.39,1.49L28.94,156c.08-.15.17-.29.26-.43a3.83,3.83,0,0,1,.36-.44,3.08,3.08,0,0,1,.77-.63L140.76,90.73a4.15,4.15,0,0,1,.6-.29l.15,0a1.37,1.37,0,0,1,.4,0A5.15,5.15,0,0,1,143.87,91.27Z"/><path class="cls-11" d="M49.73,251.83,32.19,160.69a4.1,4.1,0,0,1,1.86-4.06L144.47,92.87a1.83,1.83,0,0,1,2.89,1.33l17.54,91.13a4.12,4.12,0,0,1-1.85,4.07L52.62,253.15A1.83,1.83,0,0,1,49.73,251.83Z"/><path class="cls-21" d="M49.73,251.83,32.19,160.69a4.1,4.1,0,0,1,1.86-4.06L144.47,92.87a1.83,1.83,0,0,1,2.89,1.33l17.54,91.13a4.12,4.12,0,0,1-1.85,4.07L52.62,253.15A1.83,1.83,0,0,1,49.73,251.83Z"/><path class="cls-11" d="M133.44,185.72,58.54,229,54,231.58l-.21.11a3,3,0,0,1-.38.15,2.9,2.9,0,0,1-.48.14l-.31.05h-.07a2.69,2.69,0,0,1-.4,0,2.37,2.37,0,0,1-1.2-.26,4.41,4.41,0,0,1-1.7-2.71L36.63,163.52a2,2,0,0,1,0-.43,2.17,2.17,0,0,1,0-.36h0a3.16,3.16,0,0,1,.13-.53,3.92,3.92,0,0,1,.22-.51,2,2,0,0,1,.19-.31,2.72,2.72,0,0,1,.25-.32,1.6,1.6,0,0,1,.27-.25,1.87,1.87,0,0,1,.29-.2l79.44-45.87.21-.11.23-.1.1,0a.74.74,0,0,1,.29,0,3.67,3.67,0,0,1,1.41.66l1.76,1h0a1.23,1.23,0,0,1,.36.25,1.43,1.43,0,0,1,.32.55,2.68,2.68,0,0,1,.07.27l12.62,65.56A3,3,0,0,1,133.44,185.72Z"/><path class="cls-11" d="M133.44,185.72,58.54,229,54,231.58l-.21.11a3,3,0,0,1-.38.15,2.9,2.9,0,0,1-.48.14l-.31.05h-.07a2.69,2.69,0,0,1-.4,0,2.37,2.37,0,0,1-1.2-.26,4.41,4.41,0,0,1-1.7-2.71L36.63,163.52a2,2,0,0,1,0-.43,2.17,2.17,0,0,1,0-.36h0a3.16,3.16,0,0,1,.13-.53,3.92,3.92,0,0,1,.22-.51,2,2,0,0,1,.19-.31,2.72,2.72,0,0,1,.25-.32,1.6,1.6,0,0,1,.27-.25,1.87,1.87,0,0,1,.29-.2l79.44-45.87.21-.11.23-.1.1,0a.74.74,0,0,1,.29,0,3.67,3.67,0,0,1,1.41.66l1.76,1h0a1.23,1.23,0,0,1,.36.25,1.43,1.43,0,0,1,.32.55,2.68,2.68,0,0,1,.07.27l12.62,65.56A3,3,0,0,1,133.44,185.72Z"/><path class="cls-2" d="M53.79,231.69a3.38,3.38,0,0,1-2.84.11,4.41,4.41,0,0,1-1.7-2.71L36.63,163.52a2.81,2.81,0,0,1,.33-1.84l2.67,1.54a2.87,2.87,0,0,0-.33,1.84l12.62,65.57A1.3,1.3,0,0,0,53.79,231.69Z"/><path class="cls-1" d="M119.64,115.12l1.76,1h0a1.4,1.4,0,0,0-1.33.12L40.63,162.14a2.82,2.82,0,0,0-1,1.08L37,161.68a2,2,0,0,1,.19-.31,2.72,2.72,0,0,1,.25-.32,2.36,2.36,0,0,1,.56-.45l79.44-45.87a4.49,4.49,0,0,1,.44-.21l.1,0a.74.74,0,0,1,.29,0A3.67,3.67,0,0,1,119.64,115.12Z"/><path class="cls-6" d="M51.92,230.63,39.3,165.07a3,3,0,0,1,1.33-2.93l79.44-45.86a1.31,1.31,0,0,1,2.08,1l12.62,65.56a3,3,0,0,1-1.33,2.93L54,231.58A1.31,1.31,0,0,1,51.92,230.63Z"/><g id="Document-2" data-name="Document"><path class="cls-5" d="M110.67,166.44a2.3,2.3,0,0,1-1-1.83V45.37a2.37,2.37,0,0,1,1.08-1.87L185.61.27a2.35,2.35,0,0,1,2.1,0,2.32,2.32,0,0,1,1,1.83V121.3a2.37,2.37,0,0,1-1.08,1.87L112.76,166.4A2.3,2.3,0,0,1,110.67,166.44Z"/><path class="cls-1" d="M188.71,1.87c-.09-.54-.53-.74-1.07-.42L112.76,44.67a2.12,2.12,0,0,0-.76.81l-2-1.17a2.23,2.23,0,0,1,.77-.81L185.61.27a2.35,2.35,0,0,1,2.1,0A2.36,2.36,0,0,1,188.71,1.87Z"/><path class="cls-2" d="M112.61,166.47a2.27,2.27,0,0,1-1.94,0,2.32,2.32,0,0,1-1-1.83V45.38a2.27,2.27,0,0,1,.31-1.07l2,1.17a2.17,2.17,0,0,0-.32,1.07V165.78C111.68,166.41,112.09,166.7,112.61,166.47Z"/><path class="cls-6" d="M112.76,166.4l74.88-43.23a2.37,2.37,0,0,0,1.08-1.87V2.06c0-.68-.48-1-1.08-.62L112.76,44.67a2.41,2.41,0,0,0-1.08,1.87V165.78C111.68,166.47,112.17,166.75,112.76,166.4Z"/><g class="cls-18"><path class="cls-10" d="M117.15,99c0,.91.82,1.18,1.84.6l62.42-36.05a3.67,3.67,0,0,0,1.84-2.72c0-.92-.82-1.18-1.84-.6L119,96.27A3.65,3.65,0,0,0,117.15,99Z"/><path class="cls-10" d="M117.15,108.94c0,.92.82,1.19,1.84.6l62.42-36a3.69,3.69,0,0,0,1.84-2.72c0-.92-.82-1.19-1.84-.6l-62.42,36A3.69,3.69,0,0,0,117.15,108.94Z"/><path class="cls-10" d="M117.15,118.9c0,.91.82,1.18,1.84.6l62.42-36a3.65,3.65,0,0,0,1.84-2.72c0-.91-.82-1.18-1.84-.6L119,116.18A3.65,3.65,0,0,0,117.15,118.9Z"/><path class="cls-10" d="M117.15,128.85c0,.92.82,1.19,1.84.6l62.42-36a3.69,3.69,0,0,0,1.84-2.72c0-.92-.82-1.19-1.84-.6l-62.42,36A3.69,3.69,0,0,0,117.15,128.85Z"/><path class="cls-10" d="M117.15,69.12c0,.92.82,1.18,1.84.6l62.42-36A3.65,3.65,0,0,0,183.25,31c0-.91-.82-1.18-1.84-.6L119,66.4A3.65,3.65,0,0,0,117.15,69.12Z"/><path class="cls-10" d="M117.15,79.08c0,.91.82,1.18,1.84.59l62.42-36a3.69,3.69,0,0,0,1.84-2.72c0-.92-.82-1.19-1.84-.6L119,76.35A3.69,3.69,0,0,0,117.15,79.08Z"/><path class="cls-10" d="M117.15,59.18c0,.91.82,1.18,1.84.6l62.42-36A3.67,3.67,0,0,0,183.25,21c0-.92-.82-1.18-1.84-.6L119,56.46A3.65,3.65,0,0,0,117.15,59.18Z"/><path class="cls-10" d="M117.15,89c0,.92.82,1.19,1.84.6l62.42-36a3.65,3.65,0,0,0,1.84-2.72c0-.91-.82-1.18-1.84-.59L119,86.31A3.67,3.67,0,0,0,117.15,89Z"/><path class="cls-10" d="M117.15,138.81c0,.92.82,1.18,1.84.6l62.42-36a3.65,3.65,0,0,0,1.84-2.72c0-.91-.82-1.18-1.84-.59l-62.42,36A3.67,3.67,0,0,0,117.15,138.81Z"/><path class="cls-10" d="M117.15,148.77c0,.91.82,1.18,1.84.59l62.42-36a3.67,3.67,0,0,0,1.84-2.72c0-.92-.82-1.18-1.84-.6L119,146.05A3.65,3.65,0,0,0,117.15,148.77Z"/></g></g><path class="cls-11" d="M167.51,102.69a1.77,1.77,0,0,0-.68-1.57.76.76,0,0,0-.18-.1l-3.57-2.09h0a1.73,1.73,0,0,0-1.74.17L89.75,140.37,87.67,132a2.31,2.31,0,0,0-1-1.37h0l-3.72-2.16v0a2.21,2.21,0,0,0-2.27.05L50.21,146.08a5.49,5.49,0,0,0-2.47,4.29V251.9a1.76,1.76,0,0,0,.67,1.57h0l3.83,2.22h0a1.8,1.8,0,0,0,1.69-.2l111.15-64.18a5.46,5.46,0,0,0,2.47-4.29Z"/><path class="cls-22" d="M86.59,130.56a2.24,2.24,0,0,0-2.22.1L53.92,148.24a5.3,5.3,0,0,0-1.75,1.85l-3.7-2.16a4.87,4.87,0,0,1,1.74-1.85L80.66,128.5a2.21,2.21,0,0,1,2.26-.05v0Z"/><path class="cls-22" d="M166.65,101a1.87,1.87,0,0,0-1.62.24L93.39,142.59a2.16,2.16,0,0,1-3.3-1.31l-.34-.91L161.32,99.1a2.19,2.19,0,0,1,1.1-.33,1.22,1.22,0,0,1,.64.16h0Z"/><path class="cls-11" d="M167.51,102.69l0,84.34a5.45,5.45,0,0,1-2.48,4.29L53.64,255.65a1.46,1.46,0,0,1-2.19-1.26V152.53a5,5,0,0,1,.72-2.44,5.26,5.26,0,0,1,1.75-1.84l30.45-17.58a2.22,2.22,0,0,1,2.22-.1l.06,0h0a2.31,2.31,0,0,1,1,1.37l2.08,8.4.33.91a2.17,2.17,0,0,0,3.31,1.32L165,101.26a1.83,1.83,0,0,1,1.62-.23l.1,0,.05,0,0,0A1.76,1.76,0,0,1,167.51,102.69Z"/><path class="cls-8" d="M103.44,181.1a1.11,1.11,0,0,0,.5.12,1.17,1.17,0,0,0,1.06-.68l3.33-7V186a1.17,1.17,0,1,0,2.34,0V171l3.58,3.45a1.18,1.18,0,0,0,1.63-1.7l-5.57-5.35a1.15,1.15,0,0,0-1-.31,1.19,1.19,0,0,0-.85.66l-5.56,11.77A1.16,1.16,0,0,0,103.44,181.1Z"/><path class="cls-8" d="M117.49,177.43a1.17,1.17,0,0,0-1.17,1.17v7.08l-13.64,7.87v-5.73a1.17,1.17,0,0,0-2.34,0v7.76a1.15,1.15,0,0,0,.59,1,1.1,1.1,0,0,0,.58.16,1.14,1.14,0,0,0,.59-.16l16-9.22a1.18,1.18,0,0,0,.58-1V178.6A1.17,1.17,0,0,0,117.49,177.43Z"/><path class="cls-19" d="M52.35,255.73l-.11,0-3.83-2.22a1.76,1.76,0,0,1-.67-1.57V150.36a5,5,0,0,1,.73-2.43l3.7,2.16h0a5.08,5.08,0,0,0-.72,2.43V254.39A1.44,1.44,0,0,0,52.35,255.73Z"/></g><g id="Arrow-2" data-name="Arrow"><polygon class="cls-11" points="271.75 230.89 271.75 238.51 301.1 270.32 301.1 262.7 271.75 230.89"/><polygon class="cls-21" points="271.75 230.89 271.75 238.51 301.1 270.32 301.1 262.7 271.75 230.89"/><polygon class="cls-11" points="303.93 236.67 303.93 229.05 301.1 262.7 301.1 270.32 303.93 236.67"/><polygon class="cls-19" points="303.93 236.67 303.93 229.05 301.1 262.7 301.1 270.32 303.93 236.67"/><path class="cls-11" d="M205.08,282.26c-34.22-2.86-65.62-16.59-81.08-36.58l.58-7,12-2.77c15.73,20.35,54.23,33.23,91.54,30.61,22.07-1.54,41.12-8.33,52.27-18.61l11.4,4.74-.58,7c-14,12.88-36,21-62,22.8A158.67,158.67,0,0,1,205.08,282.26Z"/><g class="cls-23"><path d="M205.08,282.26c-34.22-2.86-65.62-16.59-81.08-36.58l.58-7,12-2.77c15.73,20.35,54.23,33.23,91.54,30.61,22.07-1.54,41.12-8.33,52.27-18.61l11.4,4.74-.58,7c-14,12.88-36,21-62,22.8A158.67,158.67,0,0,1,205.08,282.26Z"/></g><path class="cls-11" d="M303.93,229.05l-32.18,1.84,9.26,10c-11.14,10.28-30.19,17.07-52.27,18.61-37.3,2.62-75.8-10.26-91.54-30.61l-12.62,9.76c15.47,20,46.87,33.72,81.08,36.58a158.69,158.69,0,0,0,24.19.19c26-1.82,48-9.92,62-22.8l9.27,10Z"/></g></g></g></svg>