<svg xmlns="http://www.w3.org/2000/svg" viewBox="0 0 3000 2000"><defs><style>.cls-1{fill:#fefefe;}.cls-2{fill:#ececec;}.cls-3{fill:#f5b400;}.cls-4{fill:#2b454e;}.cls-5{fill:#ffc801;}.cls-6{fill:#fe9580;}.cls-7{fill:#a8a8a8;}.cls-8{fill:#dcdcdc;}.cls-9{fill:#fd9580;}.cls-10{fill:#1b2e35;}.cls-11{fill:#c8c8c8;}.cls-12{fill:#eaebeb;}.cls-13{fill:#fcc806;}.cls-14{fill:#fcca0a;}.cls-15{fill:#fdc807;}.cls-16{fill:#364247;}.cls-17{fill:#395c65;}.cls-18{fill:#1e3137;}.cls-19{fill:#213035;}.cls-20{fill:#ededed;}.cls-21{fill:#606669;}.cls-22{fill:#faca18;}.cls-23{fill:#f9ca13;}.cls-24{fill:#f9c913;}.cls-25{fill:#60686b;}.cls-26{fill:#b5b6b6;}.cls-27{fill:#8b9091;}.cls-28{fill:#a3a6a5;}.cls-29{fill:#b2b6b5;}.cls-30{fill:#51595c;}.cls-31{fill:#4e5759;}.cls-32{fill:#444f52;}.cls-33{fill:#fff;}.cls-34{fill:#1f3038;}.cls-35{fill:#fcfbf9;}.cls-36{fill:#fb9782;}.cls-37{fill:#534a25;}.cls-38{fill:#534d24;}.cls-39{fill:#4c4624;}.cls-40{fill:#756324;}.cls-41{fill:#5e5527;}.cls-42{fill:#675a21;}.cls-43{fill:#595023;}.cls-44{fill:#4c4b24;}.cls-45{fill:#605922;}.cls-46{fill:#474626;}.cls-47{fill:#59511f;}.cls-48{fill:#5b5122;}.cls-49{fill:#514627;}.cls-50{fill:#574e24;}.cls-51{fill:#4a412a;}.cls-52{fill:#493f26;}.cls-53{fill:#4a4533;}.cls-54{fill:#554125;}.cls-55{fill:#4e3e27;}.cls-56{fill:#534c24;}.cls-57{fill:#4e4825;}.cls-58{fill:#494228;}.cls-59{fill:#554620;}.cls-60{fill:#434321;}.cls-61{fill:#574c29;}.cls-62{fill:#484328;}.cls-63{fill:#463d2c;}.cls-64{fill:#4b4224;}.cls-65{fill:#413c24;}.cls-66{fill:#735f1b;}.cls-67{fill:#fdfdfc;}.cls-68{fill:#f79682;}.cls-69{fill:#f89682;}.cls-70{fill:#3e4a50;}.cls-71{fill:#596366;}.cls-72{fill:#495157;}.cls-73{fill:#5a6567;}.cls-74{fill:#515c60;}.cls-75{fill:#485556;}.cls-76{fill:#475053;}.cls-77{fill:#4b535a;}.cls-78{fill:#475153;}.cls-79{fill:#475354;}.cls-80{fill:#48555a;}.cls-81{fill:#434e53;}.cls-82{fill:#464f53;}.cls-83{fill:#444f53;}.cls-84{fill:#425050;}.cls-85{fill:#364343;}.cls-86{fill:#3d4a4f;}.cls-87{fill:#1c2e35;}.cls-88{fill:#6b6338;}.cls-89{fill:#786423;}.cls-90{fill:#595123;}.cls-91{fill:#695b21;}.cls-92{fill:#a6861f;}.cls-93{fill:#fade7a;}.cls-94{fill:#f7df79;}.cls-95{fill:#f7e07d;}.cls-96{fill:#f8df7b;}.cls-97{fill:#f8e480;}.cls-98{fill:#f9e181;}.cls-99{fill:#f3e08e;}.cls-100{fill:#6b483f;}.cls-101{fill:#75514a;}.cls-102{fill:#865950;}.cls-103{fill:#544e4b;}.cls-104{fill:#453e3d;}.cls-105{fill:#223338;}.cls-106{fill:#3b4447;}.cls-107{fill:#1c2f36;}.cls-108{fill:#213138;}.cls-109{fill:#23323a;}.cls-110{fill:#464e50;}.cls-111{fill:#4b403d;}.cls-112{fill:#745046;}.cls-113{fill:#2f3236;}.cls-114{fill:#333638;}.cls-115{fill:#888d8e;}.cls-116{fill:#808787;}.cls-117{fill:#888d8f;}.cls-118{fill:#757c80;}.cls-119{fill:#1c2f34;}.cls-120{fill:#52595c;}.cls-121{fill:#29373c;}.cls-122{fill:#c3c3bc;}.cls-123{fill:#1c2e36;}.cls-124{fill:#5f6b6b;}.cls-125{fill:#454f53;}.cls-126{fill:#f8f9f9;}.cls-127{fill:#a5a6a6;}.cls-128{fill:#f0f3f4;}</style></defs><title>Asset 8</title><g id="Layer_2" data-name="Layer 2"><g id="Layer_1-2" data-name="Layer 1"><ellipse class="cls-1" cx="1500" cy="1000" rx="2121.32" ry="1414.21"/><path class="cls-2" d="M2328,1614c21.94,3,44,5.4,65.89,8.34,23.56,3.17,47,7.38,70.49,11.16,30.75,5,61.15,11.34,91.4,18.57,20.67,4.94,41,11.09,60.45,19.83,9.67,4.35,19,9.26,26.31,17.47s7.62,16.39.5,24.71c-7.38,8.63-17.41,13.14-27.29,17.71-23.29,10.78-48.16,16.44-72.92,22.68-16.08,4.06-32.29,7.23-48.52,10.37-17.84,3.46-35.82,6.23-53.76,9.17-16,2.61-31.95,5.2-48,7.49-12.43,1.77-24.94,3-37.42,4.53-15.74,1.89-31.47,3.9-47.24,5.64-9.21,1-18.48,1.49-27.7,2.4-10.52,1-21,2.11-31.52,3.51-7.55,1-15.25,1.41-22.73,1.87-11.57.71-23.2,1.77-34.66,3-12.5,1.31-25.23.16-37.55,3.28a8.75,8.75,0,0,1-3,.27c-13.67-1.13-27.14,1.74-40.72,2.39-23.16,1.11-46.3,2.8-69.46,4.14-9.9.57-20.07,0-29.71,1.82-17.46,3.32-35.27-.69-52.54,3.59a6.69,6.69,0,0,1-2,.09c-22.31-1.45-44.49,1.53-66.71,2.35-27.25,1-54.59.22-81.71,2.19-20.64,1.5-41.23.06-61.75,1.61-46.89,3.55-93.88-.19-140.7,2.21-63.26,3.23-126.53,2.35-189.7,1-45.92-1-91.88.68-137.7-1.8-23.62-1.28-47.29.29-70.72-1.93-20.31-1.92-40.64.17-60.72-2-17.65-1.91-35.3-.08-52.75-1.93-15.95-1.7-31.95-.35-47.72-2.07-13.31-1.46-26.56-.72-39.77-1.8-22.14-1.81-44.3-2.92-66.47-4.12-20.16-1.09-40.32-2.63-60.47-4q-26.24-1.77-52.48-3.94c-15.83-1.32-31.69-2.45-47.46-4.13-16.74-1.78-33.58-2.75-50.31-5.08-8.75-1.22-17.76-1.93-26.66-2.7-15.14-1.31-30.18-3.69-45.31-5.06-12.87-1.16-25.61-3.08-38.39-4.8-12.11-1.64-24.27-3-36.35-4.9-18.62-2.87-37.19-6-55.77-9.11a888,888,0,0,1-91.17-19.79c-20.84-5.8-41.37-12.25-60.47-22.64a50.5,50.5,0,0,1-18.32-16.44c-3.4-5.1-3.54-10,.19-15.67,5.18-7.9,12.38-12.87,20.35-17.09,19.81-10.46,41.12-16.75,62.66-22.39,25.64-6.72,51.58-12,77.51-17.43,5.81-1.21,11.76-1.87,17.67-2.52,2.61-.29,4.56-.87,4.84-3.83,4.91-3.41,9,.27,13,1.93,40.75,17.1,81.83,33.39,122.85,49.82,13,5.19,26,10.26,39.22,14.59,9.33,3,12.87.77,14.06-9.08,1.33-10.89-.16-21-7.79-29.86q-14.64-17-29.73-33.53c-2.76-3-7-5.48-5.56-10.81a11.65,11.65,0,0,1,5.83-3.42c37.59-4.53,75.27-8,113-11.14,29.77-2.46,59.55-4.88,89.34-6.83,15.41-1,30.85-4.56,46.45-1.8,2.6,3.44,2.31,7.51,2.48,11.48q1.3,31.38,4,62.67c.72,8.36,4.23,12.07,12.88,13.11a285.7,285.7,0,0,0,43.84,1.45c21.35-.75,42.5,2.29,63.79,2.28,3.33,0,6.67.41,9.36,2.79,5.84,9.09,5.08,19.87,7.38,29.84,1.85,8,5.58,11.49,13.59,11.06,3.65-.2,7.33,0,11,0q587.47,0,1175,0c6.3,0,12.69.76,18.8-1.36,2-1.14,2.81-3,3.39-5.09a19.05,19.05,0,0,0,1.19-7.55c5.6-31.26,9.14-62.89,16.88-93.77A5.63,5.63,0,0,1,2328,1614Z" transform="translate(0)"/><path class="cls-3" d="M2326.11,1616.18c-4.29,24.43-8.85,48.82-12.71,73.33-1.2,7.61-3.17,15.07-4,22.72-.76,2,.06,4.25-1.22,6.12a9.46,9.46,0,0,1-.92,5.44c-7.7-3-7.65-10.32-8.85-16.59-6.73-35-12.51-70.21-19-105.27-12.39-66.83-24.06-133.8-36.12-200.7-5.9-32.77-12.86-65.38-17.13-98.42,2.39-4.68-.6-8.22-2.62-12-9.15-44.75-16.46-89.82-24.62-134.73-22.41-123.27-44.31-246.64-66.65-369.92-3.08-17-3.23-17-20.32-17H1282.09c-5,0-10,.13-15-.24-5.73-.43-9.43-3-9.76-9.16.09-13.82,3.36-27.14,6.42-40.49.73-2.58,1.62-5.12,1.44-7.86,1.42-12.05,2.57-24.15,6.74-35.67a8.47,8.47,0,0,1,1.89-2.24c8.3-3.27,9.07-12.31,14.33-18-5.54,3.78-4.14,13.34-12.79,14.41a8.22,8.22,0,0,1-1.41-5.72,16.16,16.16,0,0,1,.48-3.09c1.18-4.17.68-8.51,1.22-12.75.2-2,.62-4,1-5.91,3.16-18.64,3.16-18.64,21.88-19.42,6.23.09,12.49-.55,18.69.59a20.58,20.58,0,0,0,7.78,1.48c67.25,0,134.57,1.82,201.74-.67,45.9-1.71,91.73-.33,137.57-1.63a81.64,81.64,0,0,1,9,.28c8.89.72,11.75,6.35,11.8,14.32-.17,4.09-.6,8.21.78,12.22a41.26,41.26,0,0,1,.9,8.29c0,4.78-.44,9.6,1.16,14.26a55.65,55.65,0,0,1,.86,11.16,25.11,25.11,0,0,0,1.17,9.35,64.27,64.27,0,0,1,.93,11.5c-.44,3.61,1,6.91,1.59,10.37,1.12,12,1.12,12.18,13,12.2,65.61.1,131.23-1,196.81.3,95.82,1.94,191.67,3.29,287.46,1.42,45.86-.89,91.72-.72,137.58-1.65a103.13,103.13,0,0,1,15.92.48,12,12,0,0,1,3.77,1.06c3.76,2,8,1.76,10.9-.69,38.53-1.59,77-.66,115.55-.49,9.15,0,11.86,3.53,10.9,12.69s-2.28,18.46-5.43,27.26c-1.68,4-5.05,5.89-10.46,7.27,3.69,0,6,.45,7.13,3,1.8,6.78-.21,12.85-3.46,18.68l-.39,3.4c-1.5,2.67.29,6-1.7,8.57v0c-2.09,2.32-.09,5.51-1.66,7.94-.2,1.82-.41,3.64-.61,5.47-1.14,2-.16,4.56-1.52,6.54-.12,1.35-.23,2.7-.35,4,1.62,4.27.75,8.54,0,12.8q-18.21,103.15-36.55,206.29c-1,5.81-1.2,12-5.28,16.92-4.55,24.53-9.25,49-13.61,73.57-8.37,47.16-16.19,94.42-25.09,141.48-1.83,9.68-1.94,19.75-5.52,29.1-1.69,2.56,0,5.75-1.55,8.35.32,5.43-2.07,10.41-2.66,15.7-1.37,2.49.31,5.54-1.46,8l-.5,4c-1.19,1.89-.09,4.29-1.41,6.14a10.31,10.31,0,0,1-.73,5.93c-.9,2-.05,4.28-1.27,6.18-1.84,12.67-3.63,25.36-6.71,37.81-1,1.9,0,4.22-1.28,6l-4.81,30c-.8,2,.05,4.26-1.23,6.12l-2.7,15.87c-1,1.85.11,4.17-1.34,5.92a10.82,10.82,0,0,1-.81,6.15c-.73,1.83.27,4-1.25,5.7-.23,1.43-.45,2.86-.68,4.29-.78,1.94,0,4.2-1.19,6.06-1.56,9.55-2.73,19.19-4.88,28.61-.69,3-.19,5.71-.27,8.55a4.27,4.27,0,0,1-.72,3.1c-3.21,4.8-2.51,10.51-3.62,15.79-.4,1.94-.78,3.88-1.16,5.82-1,2-.24,4.41-1.28,6.43-2.31,9.08-1.54,18.7-4.87,27.6-.74,2-.09,4.32-1.14,6.29.31,5.43-2.09,10.39-2.66,15.66C2326.16,1610.67,2327.88,1613.75,2326.11,1616.18Z" transform="translate(0)"/><path class="cls-4" d="M536.21,1380.13c16.33-24.28,32.86-48.45,49-72.88,38.85-58.9,77.86-117.71,113.75-178.5,4.22-7.16,7.88-14.65,12-21.86,4.28-7.42,4.63-14.76,1.73-22.91-4.93-13.8-10.44-27.34-16.2-40.8-19-44.34-39.24-88.14-57.36-132.85-7.76-19.12-15-38.43-21.28-58.08-10.51-32.71-8.38-65,2.81-97a160.81,160.81,0,0,1,29.25-50.77c5.37-2,7.66,2.55,10.48,5.29C686.26,735,715,756.2,746.12,774.51,772.39,790,801.19,795.23,831,797.4c15.69,1.14,31-1.07,46.23-4.62,3.42,1.18,5.07,4.18,6.87,6.94,15.3,23.36,31.47,46.13,46.49,69.7,6.24,19.09,8.15,39.07,11.7,58.68q54.56,301.65,108.8,603.35c1,5.43,3.19,11.14-1.66,16-4.31,3-9.26,3.57-14.25,3.58-35.1.07-70.21.53-105.31-.32-2.65-.07-5.31-.19-7.74-1.46a8.8,8.8,0,0,1-4.36-6.4c-.94-8.24-6.22-9.77-13.34-9.77-74.14-.08-148.27.27-222.41-.17-5.14,0-9.62,2.56-14.58,2.9-18.83-4.38-36-13.16-53.85-20.32q-54.48-21.93-109-43.66c-5.32-2.72-11.19-4.23-16.39-7.24-4.68-2.71-7-6.27-3.43-11.42,15.48-22.42,30-45.47,45.66-67.77A18.57,18.57,0,0,1,536.21,1380.13Z" transform="translate(0)"/><path class="cls-2" d="M1682.13,639.72a5.6,5.6,0,0,0,.13-1c-.24-12.81-.25-12.85-12.75-12.84l-329.65.09c-8,0-16-.2-24-.31-.45-3.19-.18-5.88,4.08-5.72.39,2.13,1.28,3.8,3.75,3.89s4.66.13,7,.13h189.92c11.64,0,13.48-1.84,10.89-13.46-1.33-6-1.1-11.86-1.59-17.8-1.43-17.48-1-35.1-3.82-52.48a12.46,12.46,0,0,1-.09-3c1.31-17-1.69-33.81-2.37-50.72-.87-21.82-2.57-43.64-4-65.46-1.37-21.49-2.45-43-3.91-64.47-1.47-21.82-2.13-43.74-4.35-65.43-1.42-13.85.79-27.93-3-41.56-1-3.74,1.11-5.36,4.88-5.61,11.24-.74,22.64-1.05,33.68-2.45,14.85-1.89,29.94.48,44.54-3.4a3.05,3.05,0,0,1,1-.07c14,1.22,27.8-1.62,41.72-2.24,18.5-.82,37.09-.87,55.48-3.72a8.83,8.83,0,0,1,2-.08c16.65,1.17,33.16-1.7,49.7-2.54,13.79-.7,27.76-1.9,41.55-2.75,18.51-1.15,37-3.33,55.68-2.83,4.86.14,8.2,2.94,11.41,5.53,10.08,8.11,19.67,16.81,29.61,25.08,10.44,8.69,20.56,17.75,31.29,26.12s20.77,17.55,31.14,26.36c5.81,4.94,11.55,10,17.55,14.68,2.19,1.72,4.46,3.17,4.3,6.2-.47,9.34,2,18.39,2.38,27.72.62,17.17.81,34.44,3.52,51.5a13,13,0,0,1,.16,3c-1.39,16.67.93,33.29,2.61,49.67,1.56,15.19-.81,30.62,3.25,45.55a9.06,9.06,0,0,1,.14,3c-1.25,17,1.73,33.8,2.42,50.71.91,22.15,2.34,44.33,3.93,66.46q2.24,31.23,4,62.47c.78,13.24,1.46,26.48,1.86,39.74-1,1-2.42,1.77-3.57,1.15-10.61-5.67-22.1-3.64-33.26-3.66q-112-.21-224-.1c-8,0-16,.75-23.85-1.58-.64-.19-1.34-.17-2-.36-3.68-1.13-6.31,7.3-9.95,1.59-2.06-3.22-.25-7.83-.78-11.79-.18-1.31-.14.36-.22-1-2.24-2.24-.87-5.64-2.56-8.06a38.29,38.29,0,0,0-.75-12.12c-.77-2.68.36-5.62-1.14-8.2a36.43,36.43,0,0,0-.93-11.86c-1-4.52.91-9.31-1.23-13.73l-.74-8.23C1682.43,646.46,1684,642.89,1682.13,639.72Z" transform="translate(0)"/><path class="cls-2" d="M1690,710c4.39,4.12-.17,10.4,3.39,14.89,5.1-1.52.29-6,3.48-8.8,7.46,7.63,17.34,5.89,26.84,5.89q124.71,0,249.42.15c3.77,0,9.69-3.06,10.59,4.78.18,1.64,2.87.87,4.47.76q48.94.12,97.88.24,52.95.06,105.89,0h10.55c-1.44-8.9-5.59-16-9.25-23.29a16.56,16.56,0,0,1-1.68-11.26c5.12-28.65,11.69-57,17.39-85.51,6.62-33.07,14.06-66,20.65-99q9.68-48.63,20.14-97.07c1.67-7.71,3.65-8.79,10.94-7.23,26.18,5.61,52.25,11.78,78.55,16.73,18.86,3.55,37.56,7.75,56.28,11.82,4.36,1,5.95-1.23,8.43-3.1,1.37,1.16,3,2.07,3.89,3.7,6.05,4.81,13.72,4.42,20.64,5.86,24.92,5.19,49.78,10.72,74.75,15.59,21.73,4.24,43.23,9.64,65.14,13,6.82,1,11.9,4.36,16.06,10.41,25.19,36.62,50.79,73,76.24,109.38,2.46,3.53,3.81,7.73,7,10.9,2.88,2.91.61,6.52.08,9.47-2.58,14.65-5.78,29.18-8.73,43.75-6.37,31.42-12.65,62.87-19.12,94.27-2.66,12.91-5.75,25.74-8.79,39.25-6-1.55-8.72-6.4-12.35-9.9-15.91-15.36-9.93-13.66-27.61-1.65-6.84,4.65-13.46,9.63-20.15,14.5-4.18,3-7.65,2.8-11-1.46-7-8.81-14.43-17.29-21.4-26.14-6.18-7.85-6.86-7.66-14.75-1.84-17,12.58-33.55,25.93-51.72,37-.7-6.94,2.91-13.47,2-20.43-.85-2.5,2.12-4,1.67-6.39,2-10.1,4.08-20.18,5.82-30.32,1.55-9,1.11-9.36-8.47-9.39-19-.07-37.92-.21-56.87.06-20.6.28-41.21-.71-61.8.61-2.55,2-4.69-.61-7.06-.6q-198.72,0-397.45-.09-121.34,0-242.67,0c-3,0-6,0-9,0-7-.14-7-.16-7.76-6.86-.4-3.62-.88-7.24-1.33-10.86A1.38,1.38,0,0,1,1690,710Z" transform="translate(0)"/><path class="cls-5" d="M877,793.75c-18.93,9.3-38.9,7.13-58.87,5.53-44.32-3.53-81.23-24-115.66-50.23a509.86,509.86,0,0,1-48.64-41.49,42.72,42.72,0,0,0-3.89-3c-2.92-3.81-.55-6.72,1.52-9.83a716,716,0,0,1,49.69-66.16c23.74-27.95,49.35-54,78-77,23.2-18.61,48.15-34.4,75.58-46.11,6.27-.38,5.45,4.76,6,8.26,2.24,14.74,7,28.32,17.24,39.52,9.33,10.24,15.73,10,24.42-.52a56.41,56.41,0,0,0,11.49-22.92c1.27-2.7,2.22-5.71,5.75-6.39,27.34,6.84,54.4,14.68,81.35,22.9,8,2.45,8,2.49,7.18,11.53-6.94,21-17.1,40.7-26.22,60.8a6.62,6.62,0,0,1-5.22,4.13,20.09,20.09,0,0,1-12.23-12.79c7.33-18,16.27-35.35,23.58-53.4.55-1.21-2.12-.62-.8-.44.36,0,.47.3.3.73q-9.1,22.51-19.72,44.35c-1.26,2.6-2.23,5.76-6.17,5.46-11.28-7.07-17.75-18.77-26.73-28.05-4.13-4.27-7.94-8.86-12.93-14.21,0,.11-.35,2.45.49,1.41,4.34,7.78,1.48,16.18,2,24.28.41,6.64-2.27,13.12-1.89,19.85-.25,3.59-1,7-3.37,9.89-6,3.8-7.69-2.12-9.85-5-7.43-10.07-14.26-20.58-21.23-31,12.73,20.42,27.52,39.34,42.07,58.45a8,8,0,0,1,1,2.7c-.08,4.69-4.18,6.26-6.9,8.92C903.08,665.59,880.7,675,859.1,686c-5.58,2.84-7.48,5.79-5,11.61C863,718.32,870,739.89,882.36,759c2.7,4.17,5.73,8.23,5.7,13.57C885.89,780.44,886,789.48,877,793.75Z" transform="translate(0)"/><path class="cls-2" d="M2424,1068c1.57-17.55,5.64-34.69,8.6-52q12.42-72.62,25.59-145.1c2.34-13,3.64-26.22,7.65-38.9,18.28-13.2,36.61-26.33,54.78-39.67,3.33-2.44,5-1.68,7.26,1.29,7.21,9.5,14.76,18.75,22,28.21,5.47,7.13,7.57,7.62,14.56,2.56,10-7.19,20-14.26,29.73-21.71,3-2.28,5-2.58,7.64.14,5.58,5.73,11.18,11.45,17,16.94,3.71,3.51,3.8,7.77,2.82,12-4.53,19.68-8.45,39.47-12.34,59.28-5.6,28.57-11.51,57.08-17.42,85.58-2.42,11.67-5.32,23.24-7.79,34.9q-8.13,38.35-16,76.76c-1.6,7.75-1.68,7.75-9.73,6.11-33.71-6.9-67.47-13.6-101.16-20.59C2446.16,1071.53,2435.46,1067.63,2424,1068Z" transform="translate(0)"/><path class="cls-6" d="M976.48,622.05c6.38-8.15,9.3-18,13.57-27.25,5.14-11,9.76-22.35,14.76-33.47.62-1.4,2.17-2.38,3.3-3.56,3.73-.14,7.2,1.11,10.72,2.06,12.58,3.42,25.15.76,37.58-.57,25.06-2.68,50-6.21,75-9.43,17.76-2.29,35.47-5.16,53.28-6.88,24.61-2.38,49.12-2.12,72.63,7.16,3.28,1.29,7.23,1.84,8.64,6-2.59,1.63-5,.48-7.53-.33-13.65-4.27-27.51-7.42-35-7.09,7.26-.59,20.72,3,34.14,6.84,2.82.8,5.44,2.66,8.39.53,12.72,6.41,21.83,16.84,30.4,27.75,2.79,3.54,6.26,7.1,5.48,12.36-3.44,1.74-6.52-.38-9.55-1.23-19.33-5.39-38.86-8.32-59-6a24.19,24.19,0,0,1-4.74.3c16.38-2.11,34.36-1,52.21,2.74,7,1.47,13.52,5.49,21.08,4.22,3,2.07,6,4.13,9,6.21,6.1,4.27,10,9.69,9.18,17.57l-4.08,5.73a90.08,90.08,0,0,1-17.91.05c-25.87-6-51-.34-78.25,3.89,7.35,5.33,16.11,2.37,19.94,9.65,1.43,8.87,2.35,17.71-.67,26.45-12.18,6.13-24.86,2.77-37.39,1.91-8-1.06-7.3-10.2-13-14-.57-.69-.9,1.46-.12.38.32-.46.74-.46,1,.1,1.19,3,6.79,6,.06,9.13a7.53,7.53,0,0,1-3.92-.67c-18.3-11.18-38.34-10.41-58.78-9.88-32.27.83-64.61,1.11-96.83-1.93-20-1.89-39.53-5.57-56.38-17.67C971.73,628.68,972.54,625,976.48,622.05Z" transform="translate(0)"/><path class="cls-7" d="M686.11,1614.2c8.45,9.36,16.64,19,25.44,28a151.14,151.14,0,0,1,14.69,17.52c8,11.14,7.48,23.77,3.35,36.22-1.84,5.53-4.87,6.45-11.05,4.52-18.37-5.78-36.17-13.12-54-20.25-40.68-16.24-81.43-32.3-121.6-49.78a8.91,8.91,0,0,0-2.95-.21c-14.21-8-29.78-13.09-44.5-20-11.42-5.39-23-10.37-34.35-16-10.6-5.25-11.21-7.29-7.69-18.93,3.57-11.8,8.43-23.09,13.22-34.41.65-1.53,1.48-3,2.08-4.54,1.9-4.9,1.54-5.57-4.09-5.69-10-.22-20-.21-29.95-.26l-139.73-.7h-6.87v-2.11h97.68c4.07-2.91,8.79-2.51,13.4-2.52,19.51-.06,39-.27,58.52.09,8.79.16,15.54-1.74,19-10.71,1.28-3.36,3.38-6.49,7.08-7.91a10.16,10.16,0,0,1,6.84.29c29.84,12.14,60.25,22.87,89.47,36.51.21,14.43,8.78,22,21.43,26.5a73.93,73.93,0,0,1,9.25,3.74c4.52,2.32,4,4.69,1.1,6.41,15,.41,31.1-3.72,46.67,3.21,1.37,1.55,2.82,3.08,1.27,5.32-11.14,1.57-22.49-1.32-32,1.12,12.52.39,26.82-2.74,40.49,3.3,1.56,1.47,2.83,3,1.84,5.37-11.32,2.18-22.9-1.36-32.82,1.39,12.79.33,27.23-2.82,41,3.24,1.56,1.48,2.84,3,1.82,5.38-11.31,2.41-23.07-2.06-32.23,1.9C659.36,1610.1,673.31,1605.89,686.11,1614.2Z" transform="translate(0)"/><path class="cls-8" d="M486.1,1507.74c-6,1.34-6.72,7.06-8.48,11.31-2.83,6.81-6.92,9-14.34,8.84-25.83-.55-51.69-.29-77.53-.34.71-15.91,3.4-31.56,5.74-47.28,2.58-17.34,4.29-34.8,6.57-52.19,2.07-15.74,4.43-31.44,6.61-47.17q1.75-12.77,3.3-25.57c.31-2.59-.42-5.4,1.94-7.44,18.27,5,37,2.62,55.48,3,14.27.3,28.56-.16,42.84.14,7.7.16,14.44-1.39,19.84-7.14,2.95,8.77,2.69,18,3.85,27,.47,3.68.12,7.39,4.29,9.19l-43,64.75c-3.12,4.69-6.27,9.36-9.62,14.37,6.33,5.07,14.38,5.83,20.67,10.07,1.7,3,1.15,6.08.17,9.15C495.3,1486.36,491,1497.23,486.1,1507.74Z" transform="translate(0)"/><path class="cls-2" d="M624,578c-.5,4.1,1.37,7.82,1.89,11.74.89,6.65-1.19,9.24-7.73,10.18-1,.14-2,0-3,.09-9.4.66-18.37,9.23-18.74,18.44-.17,4.48,2.86,8,5,11.73,1.5,2.53,4.6,3.86,5.66,7.55-5.88,5.93-12.77,11-19.76,16-4.33,3.08-8.78,6-13.08,9.1-5.55,4-6.93,4-11.54-1.19-1.32-1.48-2.18-3.35-3.45-4.86-3.82-4.51-7.81-6.33-14.58-5.75-9.91.85-14.73,5.45-18.29,13.84-3.19,7.55-3.63,7.31-10.77,4-9.63-4.52-19.37-8.82-28.91-13.5-7.38-3.62-7.28-3.82-4.94-11.43.29-1,.58-1.91.81-2.88.86-3.76,4.16-7.24,2.09-11.35-2.54-5-5.3-10.08-9.87-13.62s-9.46-2.16-14.36-1.18c-7.37,1.46-6.81,1.34-8.61-6.09-2.68-11.06-1.52-22.42-3.59-33.55-1.4-7.52-.43-7.68,7.32-9.48,1.29-.3,2.5-.93,3.79-1.25,15.62-3.9,20.9-16.22,12.78-30.09-1.49-2.55-3.4-4.86-5.3-7.55,5.56-7.74,14.47-11.45,21.36-17.58,3.92-3.49,9-5.64,12.94-9.25,3.12-2.85,6-2.32,8.38,1.12.75,1.1,1.33,2.32,2.15,3.36C516.83,511.08,522.8,516,532,514c7.42,1.1,11.59-2.57,14.47-9.1,4.57-10.34,5.17-10.47,15.41-5.39,6.82,3.38,13.88,6.28,20.53,10,6.2,3.45,9.77,8.46,5.86,15.56-7.1,12.92,9,28.71,21,27.05,10-1.39,10.8.08,11.3,10.58C620.79,568,621,573.32,624,578Z" transform="translate(0)"/><path class="cls-9" d="M915.91,530.81c-2,10.35-7.3,19-14.22,26.62-7.71,8.49-14.74,8.57-23,.49-12.83-12.61-18.39-28.64-20.84-46-.37-2.58.17-5.47-3.19-6.52a16.6,16.6,0,0,0,9-8.59c3.7-7.43,7.86-14.65,12.08-21.81,2.28-3.87,2.38-7-.33-10.93-4.64-6.75-5.75-14.62-6-22.79-.26-7.29,2.21-12.15,9.08-14.66,8.61-.09,10.75,8.84,17.13,12.66,7-9.75,9-20.8,10.83-31.9,2.91-17.35,2.93-17.3,17.72-8.51,7.18,4.26,14.6,7.93,23.18,8.42s16.51-1.35,22.64-8A26.6,26.6,0,0,1,973.7,396c8.86-6.64,12.71-5.44,14.95,5.33a161.26,161.26,0,0,1,3,45.35c-4.94,9.06-3.15,19.42-5.54,29-2.59,10.33-4.62,20.76-11.67,29.28C962,520,945.55,522.49,927.52,519.46c-2.33-.4-4.41-1.24-6.6.14-20.32-7.43-33.3-22.12-34.82-39.41,1,22.63,7.36,36.2,20.23,44.08C909.62,526.28,914.21,526.47,915.91,530.81Z" transform="translate(0)"/><path class="cls-8" d="M492.08,1291.91c13,0,25.91.18,38.86,0,4.92-.06,7.36,1.47,7.19,6.8-.26,8.29-.15,16.6,0,24.9,0,3.9-1,6.53-5.47,6.38-4.24-.13-4.66,2.84-4.81,6-8.88-3.31-18.13-2.89-27.36-2.88q-37.21,0-74.45,0c-4.93,0-10,.4-14.21-3.11-.66,0-1.33,0-2,0-9.77-.28-9.79-.28-9.85-10,0-6.67-.11-13.33,0-20,.16-7.76.25-7.9,7.87-8,11.33-.14,22.66,0,34-.07,2.26,0,4.66.52,7.37-1.36-1.19-5.48-5.54-8.32-10-10.91s-9-5.38-12.62-9.54c-2.31-2.66-5.76-4.45-8.93-6.24-15.29-8.64-30.33-17.69-44.93-27.49a14.29,14.29,0,0,0-4.44-2.24c-13.46-3.15-20.86-14.73-31.12-22.3-3.73-2.75-4.39-9.14-1.83-13.72a64.61,64.61,0,0,1,6.42-8.84c1.46-1.81,3.27-3.32,4.9-5,2.43-2.48,4.86-5.12,1.68-8.53-2.69-2.9-5.62-1.65-7.84.69-5.93,6.27-14.6,3.68-21.68,6.81-4.8,2.12-16.94-8-18.49-14.32a18.79,18.79,0,0,0-4.34-8.75c-4.76-5-3.76-11.84-6.42-17.53-3.89-8.31-9.32-15.91-11.68-24.94-1.59-6.07-3.34-12.11-4.89-18.19-.71-2.8,1.35-3.9,3.39-3.32,7.86,2.22,16.76.87,22.07,10.53,3.87,7.07,13.68,9,19.43,15.11,1.8,1.91,4.08,3.36,6,5.18a8.78,8.78,0,0,1,1.32,2.57c-6.49,2.93-1.22,14-10.44,15.11a9.87,9.87,0,0,0-3.57,1.74c-1.79,1.1-3.27,2.65-2.75,4.87.72,3.09,3.69,3.19,5.67,2.44,7.72-2.93,16.33-2.48,23.73-6.44a9.33,9.33,0,0,1,8.89-.38c-1.82,4.43-7.66,2.54-9.87,7,2.25,3.51,5.16,4.3,9.66,3,11.11-3.29,11-3,17.62,7.21A51.72,51.72,0,0,0,374.63,1176c3.67,3,9.2,6.2,6.8,12.08-2.25,5.53-4.39,12.09-12.56,12.2-2.58,0-5.13,1.26-7.71,1.86s-4.77,1.49-4.26,4.44c.47,2.74,2.94,3.33,5.4,3.41a19.49,19.49,0,0,0,7.86-1c4.17-1.61,8.39-1,13.27-.41-1.11,5.61-2.83,10.07-7,13.28-1.17.9-2,2-1.41,3.31.67,1.64,2.33,3.07,3.9,2.43,6.33-2.55,15.16.89,18.89-8.13,1.25-3,4.31-2.84,6.82-1.08,7.25,5.09,11.84,12.44,16.36,19.8,1.36,2.22.42,4.24-.64,6.52-2.51,5.38-.87,8.37,4.4,6.9,6.69-1.86,7.39,1.71,9.67,6.2,4.18,8.2,8.61,16.63,14.68,23.4,5.41,6,12.05,12,21.82,10.88,4.94-.57,10-.14,15-.16A4.67,4.67,0,0,1,492.08,1291.91Z" transform="translate(0)"/><path class="cls-2" d="M492.08,1291.91h-6.15c.76-23.2,4-46.12,8.31-68.87a629.43,629.43,0,0,1,21.8-84.61c8.63-25.56,19.27-50.13,34.23-72.59A201.4,201.4,0,0,1,570.13,1041a436.33,436.33,0,0,1,70.14-61.79c.47-.32,1.24-.23,2.6-.46a59.73,59.73,0,0,1,.51,25.27c-1.93,10.49-1.64,21.07-3.11,31.57-2.2,15.71-3.75,31.54-7,47-3.48,16.74-14.22,24.69-32.09,25.28-5.83.2-11.67,0-18.82,0,4.15,6.59,9.88,9,14,13.11,9.32,9.32,11.3,18.71,4.32,31.41-5,9.08-11.6,17-18.74,24.39-14.38,14.82-29.31,29.1-43.69,43.92a260.58,260.58,0,0,0-34.53,43.53c-1.39,2.24-3.38,4.1-4.92,6.26C494.3,1277,491.12,1283.79,492.08,1291.91Z" transform="translate(0)"/><path class="cls-10" d="M991.64,446.63c-3.26-2.53-1.88-6.12-2-9.28a235.5,235.5,0,0,0-3.5-35.66c-.54-3-1.09-5.88-3-8.74a25.06,25.06,0,0,0-10.39,7.16c-9.95,11.29-22.14,11.61-35.29,8.08-6.83-1.83-12.71-5.6-18.55-9.47-2.36-1.56-4.11-4.36-8.15-4.24-2.12,15-3.33,30.31-10.93,43.89-1.26,2.25-1.84,5.07-5,6.43a76.48,76.48,0,0,0-16.4-18.19c-.54-6.62-1-13.26-1.64-19.88a29.74,29.74,0,0,1,7.09-23.18c3.05-3.58,5.77-7,6.18-12,.27-3.31,2.77-6,5.11-8.38.58-.6,1.89-1.81,2.24-.8,2.2,6.28,4.36,1.19,6.57.14,2.64-1.25,4.85-5,8.37-.85,1,1.21,2.85-1,4.23-1.81,5.15-3,10.17-6.31,15.45-9.1,11.06-5.86,22.34-5.63,33.6-.45A67.07,67.07,0,0,1,986.9,364.9c6.6,7,7.06,10.21,2.5,18.64-1.4,2.6-3.7,4.66-.88,7.86,10.67,12.12,9.2,26.43,6.81,40.75C994.52,437.05,992.89,441.81,991.64,446.63Z" transform="translate(0)"/><path class="cls-11" d="M411.8,1330c35.09,0,70.18.14,105.26-.18,5.38,0,8.65,1.54,10.76,6.18.08,2.63.17,5.26.25,7.89,1,5.82-1.93,8.71-7.36,9.48a56.5,56.5,0,0,1-7.9.56c-28.54,0-57.08-.07-85.62.12-4.77,0-9.13-1.33-13.67-2.1-2.4-.41-3.27-2-3.61-4.07C409.15,1341.79,411.59,1336,411.8,1330Z" transform="translate(0)"/><path class="cls-12" d="M2495.67,384c-3-4.9-8.43-4.78-13-5.84a32.72,32.72,0,0,1-18.35-11c-6.06-7.16-5.85-14.55.88-21.24a34.63,34.63,0,0,1,22.23-9.83,89.83,89.83,0,0,1,47.09,9.17c4.46,2.18,8.88,4.46,13.32,6.69a3.23,3.23,0,0,1,.8,2.62c-1,3.45-3.56,5.19-6.72,4.25-6.14-1.85-12.07-.16-17.93.62-11.56,1.55-20.08-4.1-28.45-10.44a2.39,2.39,0,0,1-1.18-1c.4.92,1.45,1,2.16,1.66,2,1.85,6.58,2.16,5,6.11-1.19,3-4.54,1.46-7.08,1.32-4.25-.23-8.51-.19-12.76,0,12.61-.23,25.13.92,37.63,2.36-1.79,3.91-1.79,3.91-9.37,8.42,4.12-2.12,8.24-4.22,11.78-7.34,8.85-2.44,17.69-2.78,26.54,0,1.7,1.57,2.75,3.4,2.25,5.82-5.76,7.33-14.68,8.58-22.68,11.3C2517.44,381.14,2506.47,382.29,2495.67,384Z" transform="translate(0)"/><path class="cls-2" d="M2560.51,391.72c-5.56,8.89-9.93,18.51-16.69,26.65-7.22,8.68-14.86,16.92-25.08,22.19-8.43,4.34-17.1,6.54-26.44,2.59-5.16-2.18-7.4-6.07-8.32-11.37-2.11-12.32,4.59-20.78,12.36-28.71,1.62-1.65,3.69-2.77,4-5.35,12.34-12.19,28.44-15.94,44.47-19.87,2.39-.33,4.78-.69,7.19-.87a4.9,4.9,0,0,1,2.63,1C2556.37,382.61,2560,386.51,2560.51,391.72Z" transform="translate(0)"/><path class="cls-13" d="M1126.41,354.16c0,11.29-.07,22.57,0,33.85,0,3.76-.51,6.35-5.26,6.39-4.53,0-6.55-1.3-6.61-6.18-.25-18.6-.8-37.2-1.29-55.79-.12-4.32-.48-8.62-.64-12.94-.12-3.23,1.5-4.6,4.78-5,9.52-1.1,10.94,0,10.82,9.76-.1,8.64-.28,17.27-.42,25.91,0,1.33,0,2.66,0,4Z" transform="translate(0)"/><path class="cls-14" d="M1202.55,354.6c0,10.95,0,21.9,0,32.85,0,3.93-.23,7-5.74,7-5.84,0-6.23-3.13-6.29-7.59-.25-17.93-.69-35.86-1.08-53.79-.08-4,.17-8-.44-11.93-.76-4.82.77-6.64,5.67-6.71,7.83-.12,9.63.65,9.71,6.27.16,11.29,0,22.58,0,33.87Z" transform="translate(0)"/><path class="cls-15" d="M1164.53,354.4c0,11,.06,21.9,0,32.84,0,3.57.47,7.25-5.41,7.27s-6.41-3.25-6.5-7.57q-.58-27.87-1.21-55.75c-.06-3-.08-6-.23-9-.12-2.58-1.47-5.93,1.72-7a16.77,16.77,0,0,1,11.7.06c2.49,1,1.71,4.06,1.72,6.29.07,11,0,21.91,0,32.87Z" transform="translate(0)"/><path class="cls-16" d="M1083.85,447.66l-43,6.84c-1.12-3.87,1.17-5.77,2.38-7.94,5.66-10.14,11.2-20.37,17.33-30.22,3.08-4.94,3.43-9.15,1.7-14.8-15.14-49.48,9-102.26,55.82-122.48,8.84-3.82,18-6.91,27.73-7.33,2-.58,4.24-1.75,4,2-61.28,6.24-101.63,67.88-82.9,127.2,2,6.35,1.63,11.09-1.86,16.6-6.2,9.76-11.7,20-18,30.95,11.08.42,20.62-2.91,30.42-2.88C1079.77,445.65,1083,443,1083.85,447.66Z" transform="translate(0)"/><path class="cls-17" d="M2560.51,391.72a17,17,0,0,1-7.06-13.25c2-5.24-2.11-8.65-3.9-12.75l-1.65-3.63c-1.6-2.72-1.26-5.46-.08-8.2a5.63,5.63,0,0,0,0-1.92,30.94,30.94,0,0,1,3.52-3.45c5.18-3.68,11.2-3.63,15.49,0,4.07,3.42,5.28,8.68,3.12,14.34a29.44,29.44,0,0,1-2.49,4.23,7.83,7.83,0,0,0,1.41,1.29c8.46,4.68,11.18,9.59,8.93,16.25C2575.67,390.88,2570.78,392.89,2560.51,391.72Z" transform="translate(0)"/><path class="cls-18" d="M2549.55,365.72c1.07.68,2.18,1.3,3.19,2.06,5.55,4.14,5.54,4.16.71,10.69l-.84-.06c-2.09,1-4.62-.11-6.57,1.45-15,3.94-29.85,8.44-42.85,17.42-.72.49-1.91.31-2.89.44l.06.08c-1.69-2.13-4-2.64-6.59-3.09s-4-2.15-1.19-4.5c5.19,0,3.87-3.21,3.09-6.17,0-4.53,3.32-3.89,6.21-4.11A120,120,0,0,0,2549.55,365.72Z" transform="translate(0)"/><path class="cls-19" d="M915.91,530.81c-17.16-3.2-30.17-19.39-31.72-40.79-.33-4.6-.05-9.25-.05-14.06,3.32.73,3.23,3.36,3.6,5.39,2.71,14.95,12.43,24.37,24.71,31.91,3,1.84,7.11,2.29,8.47,6.34-.45,1.25-.9,2.5-1.34,3.74C917.52,525.43,916.79,528.15,915.91,530.81Z" transform="translate(0)"/><path class="cls-20" d="M624,578c-5.41-3.57-6.52-8.6-5.52-14.72,1.39-8.41-.6-10.34-9-9.47-10.48,1.09-21.21-6.12-24.66-16.19-1.47-4.29,1-7.78,1.67-11.55,1.62-8.91.88-12.69-6.83-16-6.72-2.88-12.9-6.64-19.38-9.89-7.74-3.88-9.27-3.31-12.24,5.15-2.06,5.87-5.31,9.82-11.7,10.56A4.36,4.36,0,0,1,532,514c7.2-1.88,11.77-6.27,14.77-13.25,3.39-7.88,4.49-7.84,12.05-4.38,9.93,4.53,19.75,9.3,29.84,13.41,4.86,2,6.09,4.48,4,9.09-.95,2.1-1.54,4.36-2.4,6.5-4.2,10.41,4.13,23.78,15.35,24.62,4.91.36,10.57-1.81,14.55,1.15,4.24,3.15,1.21,9.33,3,14.07C624.58,569,623.78,573.7,624,578Z" transform="translate(0)"/><path class="cls-21" d="M2342.32,1530.59l.72-3.1,163.78.65q27.46.12,54.93.17c.82.29,1.09.61.84.94a1,1,0,0,1-.79.52Z" transform="translate(0)"/><path class="cls-22" d="M1130.34,417.57c.16,5.89-3.94,10.57-9.39,10.73s-10-4.37-10.26-10.11c-.28-5.91,3.71-10.33,9.51-10.52S1130.19,411.63,1130.34,417.57Z" transform="translate(0)"/><path class="cls-23" d="M1206.39,418c0,6.06-4,10.1-9.77,10.05-6,0-9.84-3.94-9.84-10.06,0-5.54,4.58-10.28,9.92-10.26C1202.26,407.7,1206.43,412.12,1206.39,418Z" transform="translate(0)"/><path class="cls-24" d="M1168.39,418c-.17,6.23-3.89,10-9.84,10a9.77,9.77,0,0,1-9.77-10.21,10.12,10.12,0,0,1,10.06-10.05C1164.74,407.8,1168.55,411.89,1168.39,418Z" transform="translate(0)"/><path class="cls-25" d="M1083.85,447.66c-1.68-2.13-4.32-1.25-6.43-2,8.56-3.25,15.73-2.76,23.6,3.69,19.85,16.26,43.48,21.8,68.86,20.5,2-.84,2.33.07,1.82,1.8-28.52,3-54.41-3.59-76.72-21.93C1091.13,446.51,1087.49,448.55,1083.85,447.66Z" transform="translate(0)"/><path class="cls-26" d="M2561.8,1529.77a4.21,4.21,0,0,0-.05-1.46q39-.15,77.93-.28c20,0,39.91,0,60.53,0-1.59,2.39-3.2,1.75-4.5,1.76q-64,.26-127.95.4C2565.77,1530.18,2563.78,1529.91,2561.8,1529.77Z" transform="translate(0)"/><path class="cls-27" d="M1149.8,273.75c-.86-1.6-2.76-1.16-4-2,12.18-4.19,24.24-1.4,36.19,1,11.47,2.3,22,7.18,31.74,13.65.28.75.53,1.53-.35,2-.34.2-.86-.06-1.35-.43C1192.92,276.06,1171.82,272.91,1149.8,273.75Z" transform="translate(0)"/><path class="cls-28" d="M1171.7,471.61l-1.82-1.8c3.59-3.12,8.24-1.86,12.34-2.81,10-2.31,19.06-6.71,28.6-10A76,76,0,0,1,1171.7,471.61Z" transform="translate(0)"/><path class="cls-29" d="M1212,288l1.7-1.61a58.46,58.46,0,0,1,23,22.9c-3.8-3.63-7.46-7.42-11.44-10.84C1221,294.77,1216.45,291.45,1212,288Z" transform="translate(0)"/><path class="cls-30" d="M2475.7,398.33c-.25.55-.36,1.41-.78,1.6-4.42,2-8.62,4.84-13.79,4.19-1.15-.14-1.22-2-.71-2.41,3.85-3.26,8.67-4.31,13.45-5.27C2474.71,396.27,2475.67,397.13,2475.7,398.33Z" transform="translate(0)"/><path class="cls-31" d="M2433.26,418.13c-1-.66-1.65-.92-2-1.41a1.65,1.65,0,0,1,.27-2.52,7.76,7.76,0,0,1,2.53-1.55c3.93-.88,6.72-5.81,11.54-3.28a1.9,1.9,0,0,1,.2,1.76C2442.13,414.6,2437.33,415.94,2433.26,418.13Z" transform="translate(0)"/><path class="cls-32" d="M2407.87,433.69c-3.54,1.13-4.81-.13-3.89-3.7,3.4-2,6.79-4.07,10.23-6a2.29,2.29,0,0,1,3.34.94,2.89,2.89,0,0,1-.86,2.58C2413.84,429.68,2410.83,431.65,2407.87,433.69Z" transform="translate(0)"/><path class="cls-2" d="M2492.58,390.21c-.63,2-1.16,4.16,2.11,3.86,3-.29,5.31.15,5.67,3.73a68,68,0,0,1-7.27-1.89C2489.29,394.48,2488.4,392.5,2492.58,390.21Z" transform="translate(0)"/><path class="cls-5" d="M2378.22,1320.5c0-2.88-1.17-6,1.55-8.35C2379.82,1315,2380.29,1318,2378.22,1320.5Z" transform="translate(0)"/><path class="cls-5" d="M2374.1,1344.16c.11-2.73-.94-5.66,1.46-8C2375.75,1339,2376.18,1341.79,2374.1,1344.16Z" transform="translate(0)"/><path class="cls-2" d="M2468.31,815.94c-.37-2.84-.5-5.63,1.66-7.94C2469.91,810.75,2470.87,813.71,2468.31,815.94Z" transform="translate(0)"/><path class="cls-5" d="M2326.11,1616.18c.11-2.74-1-5.7,1.49-8q.17,2.89.35,5.78Z" transform="translate(0)"/><path class="cls-2" d="M2470,808c-.21-3-.41-6,1.7-8.57C2471.86,802.4,2473,805.6,2470,808Z" transform="translate(0)"/><path class="cls-5" d="M2336.26,1558.63c-.17-2.26-.76-4.61,1.28-6.43C2337.84,1554.49,2338,1556.74,2336.26,1558.63Z" transform="translate(0)"/><path class="cls-5" d="M2372.19,1354.3c-.14-2.18-.63-4.45,1.41-6.14A6.68,6.68,0,0,1,2372.19,1354.3Z" transform="translate(0)"/><path class="cls-5" d="M2370.19,1366.41c-.13-2.17-.65-4.43,1.27-6.18C2371.86,1362.46,2371.79,1364.59,2370.19,1366.41Z" transform="translate(0)"/><path class="cls-5" d="M2350.06,1480c0-2-.45-4.08,1.25-5.7C2351.81,1476.38,2351.67,1478.34,2350.06,1480Z" transform="translate(0)"/><path class="cls-5" d="M2330.25,1592.52c-.18-2.19-.72-4.46,1.14-6.29C2332,1588.5,2331.91,1590.66,2330.25,1592.52Z" transform="translate(0)"/><path class="cls-5" d="M2362.2,1410.27c-.13-2.13-.64-4.35,1.28-6C2364,1406.44,2363.89,1408.52,2362.2,1410.27Z" transform="translate(0)"/><path class="cls-2" d="M2466.18,828a7.71,7.71,0,0,1,1.52-6.54C2468,823.79,2468.51,826.2,2466.18,828Z" transform="translate(0)"/><path class="cls-5" d="M2356.16,1446.34c-.11-2.14-.61-4.37,1.23-6.12C2357.78,1442.42,2357.78,1444.54,2356.16,1446.34Z" transform="translate(0)"/><path class="cls-5" d="M2352.12,1468.13c-.07-2.09-.53-4.27,1.34-5.92C2353.81,1464.36,2353.83,1466.44,2352.12,1468.13Z" transform="translate(0)"/><path class="cls-5" d="M2348.19,1490.33c-.12-2.12-.64-4.33,1.19-6.06A6.14,6.14,0,0,1,2348.19,1490.33Z" transform="translate(0)"/><path class="cls-5" d="M1050.27,1546.28c-3.56-20.66-7-41.35-10.69-62q-18.78-104.68-37.7-209.34-21.55-119.4-43.18-238.77Q944.33,956.59,930.07,877c-.52-2.92-1.44-5.78-2.17-8.67-6.1-14.6-7.56-30.28-10.48-45.6-2.06-10.78-4.41-21.51-6.22-32.36-4-27.31-3.79-27.58,23.67-27.56,66.19.06,132.38-.2,198.56.25,33.91-.39,67.83-.15,101.74-.1,8.66,0,17.17.1,24.71-5,1.06,7.87,1.06,7.9,7.84,8.1,2.66.08,5.33,0,8,0h844.5c12.34,0,11.88.09,13.91,12.63,3.16,19.57,7.06,39,10.56,58.56,3.85,21.46,7.37,43,11.44,64.41,3,15.92,6.1,31.81,8.74,47.8,4.16,25.11,8.71,50.14,13.27,75.18,4.27,23.41,8.89,46.76,13.1,70.18,3.8,21.14,7.16,42.35,10.89,63.5,2.82,16,6.1,31.82,8.85,47.78,3.64,21.17,8.32,42.16,11.12,63.48,1.08,8.18,4.16,16,4,24.45,1.29,1.87,1.42,4.1,1.93,6.21,5.12,27.62,11,55.13,15.12,82.9,3.26,21.93,7.94,43.57,11.37,65.46,3,18.9,6.84,37.73,10.19,56.61,4.46,25.06,8.86,50.13,13.42,75.16,3.5,19.2,7.32,38.33,10.8,57.53,3.83,21.14,7.3,42.34,11.2,63.47,1.43,7.74,1.92,15.89,7.12,22.48.32,2.17.1,4.14-2.59,4.36-3,.25-6,.26-9,.26H1095.28c-11.82,0-11.65-.05-13.65-11.45-2-11.12-4.3-22.17-6.48-33.25-2.47-2.67-3.33-6-3.8-9.46-.29-2-1.06-3.94-1.46-6-3.56-20.14-7.64-40.18-10.7-60.4-.35-2.62-1.39-5.11-1.63-7.75-.88-6.6-2-13.17-3.26-19.7a33,33,0,0,1-.9-4.51c-.81-5-2-9.91-2.21-15C1051.05,1556.06,1048.43,1551.31,1050.27,1546.28Z" transform="translate(0)"/><path class="cls-33" d="M1053.24,1559.74c.45,5.28,2.53,10.34,2.17,15.73-6.23,4.82-9.65,12.4-16.38,16.77-30.49,2-61,.71-91.5.68a9.9,9.9,0,0,1-7.26-2.76c-7.12,3.34-15.1,2.74-22.44,3.28-12.51.94-25.11,1.5-37.63,2.62-15.13,1.35-30.32,1.67-45.44,3.53a272.44,272.44,0,0,1-28.66,2.08c-12,.19-23.86,1.61-35.62,2.83-16,1.65-32.18,3-48.22,5-10.74,1.31-21.64,3.33-32.62,2.65-3.91.15-7.39-.64-9.52-4.36L678,1604c-1.94-3-6.52-2.58-7.88-6.27l-2.56-4.15c-2.32-2.15-6-2.56-7.42-5.88q-1.27-2.06-2.57-4.11c-5.46-3.67-4.66-6.78,1-9,4.65-1.82,9.58-2.83,14.3-4.5a39.22,39.22,0,0,0,16.65-10.68c3.91-4.4,5.11-9.52,1.57-14.65-3.36-4.87-8.18-6.54-14-4.75-10.54,3.25-18.65,10.08-26.17,17.76a51.17,51.17,0,0,0-3.72,4.7c-10.1,13-10.41,13.06-20.43-.07A83.61,83.61,0,0,0,616,1550.7c-10.76-9.58-22-16.54-36.45-6.94-13.1-2.59-24.8-9-37.12-13.69-18.87-7.17-37.54-14.86-56.3-22.33-.76-9.26,9.24-26,17.8-29.71,5-2.21,9,.81,13.16,2.53q62,25.7,123.76,52c7.75,3.28,14.94,4.89,22.67.83,1.91.31,4.27,2.07,5.66.5,4-4.51,9-3.5,13.87-3.49q113,.13,226,.34c2,0,4,.07,6,0,3.36-.07,4.6,1.69,4.87,4.88.39,4.61.2,9.39,2.69,13.6,7.19,0,14.41-1.58,20.79,4.13,2.87,2.58,7.68,1.55,11.67,1.55,28,0,56-.08,83.94.09C1044.11,1555,1049.88,1554,1053.24,1559.74Z" transform="translate(0)"/><path class="cls-7" d="M940.27,1590.16l101.47-.32c5,7,11.85,11.75,19.19,15.92,4.55,21.1,8.73,42.26,11.16,63.73-3.07,3.78-7.38,2.42-11.18,2.44-25,.13-49.93.08-74.89,0a54.59,54.59,0,0,0-12.32,1.08c-1.22.79.74,2.3-.13,1.29-.25-.29.08-.39.64-.78,2.34-1.65,5-1.5,7.64-1.51q41.94-.13,83.88,0c2.65,0,5.38-.18,7.58,1.78.71,3.29,2.26,6.42,1.84,9.91-34.17-.65-68.34-1.23-102.51-2-6.61-.14-13.08-2.15-19.78-1.84-4.46.22-6.05-2.64-7.37-6.55-2.49-7.38-2.52-15.22-2.79-22.59C942,1630.57,938.75,1610.45,940.27,1590.16Z" transform="translate(0)"/><path class="cls-34" d="M680.12,1607.79c3.37,1,6.7,2.12,9.52,4.36-.24,2.31-2.32,1.43-3.53,2-16-3.32-32-1.8-48.14-1.32C651.15,1603.93,665.52,1604.94,680.12,1607.79Z" transform="translate(0)"/><path class="cls-5" d="M2308.15,1718.35c-.09-2.14-.58-4.36,1.22-6.12C2309.82,1714.44,2309.87,1716.57,2308.15,1718.35Z" transform="translate(0)"/><path class="cls-33" d="M1259.88,757.88c-3.07,7.61-3.07,7.69-11.11,7.7q-57.68,0-115.33,0c-27.73-2.59-53.69-11.85-79.62-21.17-25.65-9.22-51.44-18-76.86-27.88a45.73,45.73,0,0,1-20.49-15c-10-12.89-18.89-26.53-28.38-39.76-1.72-2.41-3.46-4.93-3.27-8.16-.35-4.31,8.74-3.58,5.16-9.64l.09.16C925.44,636,916.7,629.9,918,619c.63-3.06,1.27-6.12,1.9-9.18,5.38-.94,8.49,3,11.87,5.89,8.56,7.3,17.63,13.94,26.31,21.07,5.72,4.7,9.48,5.4,12.07-2.58a3.22,3.22,0,0,1,3.77-2.43,154.66,154.66,0,0,0,61,16.53c31.85,1.9,63.69,1.93,95.55,1.64,2,0,4.06.3,6-.14,17.6-4.08,33.16,1.6,48.31,9.69,2,1.07,4.36,1.43,6.56,2.12,3.24.14,4,2.9,5.47,5s2.65,4.52,4,6.75c-.86-2.63-3.42-5-1.08-8.08,12.82.48,25.63,1.68,38.48.87a10.61,10.61,0,0,1,2.69-1.93c9.82-1.43,19.81-1.8,29.39-4.88,2.28-.73,5.48-1.69,6,2.56-.18.82-.37,1.64-.55,2.47-2.1,2.87,1,6.6-1.57,9.39-2.53,12.66-5.83,25.18-6.23,38.18-1.53,1.69-.64,3.87-1.16,5.77C1263.47,730.92,1260.54,744.21,1259.88,757.88Z" transform="translate(0)"/><path class="cls-35" d="M1237.49,637.79c-6.25-2.33-13.19-1.26-19.37-3.94-1.79-.78-3.93-1.43-3.68-3.94.21-2.15,2.31-2.12,3.8-2.4,9.08-1.7,18.13-3.88,27.3-4.75,13.72-1.3,27.44-4.61,41.36-.88,3.82,1,7.64,1.82,11.09,3.85-15.75.28-15.72.29-18.26,15.74-.48,2.89-1.24,5.74-1.88,8.61-12.08-3.91-24-8.48-36.49-10.87A15.24,15.24,0,0,0,1237.49,637.79Z" transform="translate(0)"/><path class="cls-36" d="M1240.54,636.77c4.44,1,8.84,2.29,13.33,3a47.91,47.91,0,0,1,24,10.34c-.28,4,1.24,8.19-1.6,11.82a3.37,3.37,0,0,0-4.36-.94c-10.08,4.63-20.77,5.58-31.67,5.19C1239.79,656.35,1239.44,646.55,1240.54,636.77Z" transform="translate(0)"/><path class="cls-37" d="M1276.35,670.47c4.66-7.32,7.49-15.9,15.1-21.27-2.45,9.8-6.69,18.58-14.39,25.44a9.16,9.16,0,0,1-1.42-1.13C1275.07,672.31,1274.69,671.15,1276.35,670.47Z" transform="translate(0)"/><path class="cls-38" d="M1304.56,700.79a44.36,44.36,0,0,1,24.64-14.12C1322.39,693.87,1314.43,699,1304.56,700.79Z" transform="translate(0)"/><path class="cls-39" d="M1344.62,737.3c-9.9,3.86-20.77,3.82-28.78.58C1323.47,735,1331.33,734.77,1344.62,737.3Z" transform="translate(0)"/><path class="cls-40" d="M2362,1146c.42-2-1.75-6.45,2.21-6.72,3.49-.24,3,4.22,3.45,7a17.89,17.89,0,0,1,0,3.94c-.19,2.25-.13,5.14-3.27,5-2.56-.11-2.31-2.73-2.42-4.64C2361.9,1149.25,2362,1147.93,2362,1146Z" transform="translate(0)"/><path class="cls-41" d="M2287.12,737.23c-3.25,3.51-6.32,7.31-10.54,9.93a2.12,2.12,0,0,1-1.76-.32,2,2,0,0,1-.77-2.57,28.6,28.6,0,0,1,9.46-9.67,2,2,0,0,1,2.6.65A10.52,10.52,0,0,1,2287.12,737.23Z" transform="translate(0)"/><path class="cls-42" d="M2305.31,1263.27c-1.51-.3-2.62-1.44-2.1-2.7a8.51,8.51,0,0,1,3.17-3.66c3.15-2,5.15-6.24,9.83-5.27.41.08.94,1.08.9,1.61C2316.91,1255.63,2308,1263.1,2305.31,1263.27Z" transform="translate(0)"/><path class="cls-43" d="M2329.53,1241.74a5.8,5.8,0,0,1-1.68-.87c-.7-.75-1.14-1.81-.37-2.69,2.84-3.22,5.67-6.47,8.74-9.46,1.22-1.19,2.68-.09,3,1.24C2339.78,1232.32,2332.15,1241.36,2329.53,1241.74Z" transform="translate(0)"/><path class="cls-44" d="M2279,1280.13c-1-.45-1.75-.56-2.11-1a1.8,1.8,0,0,1,0-2.58,6.3,6.3,0,0,1,2.27-1.76c3.81-1.17,6.36-6,11.21-3.92a1.85,1.85,0,0,1,.46,1.69C2287.55,1276.31,2283,1278.05,2279,1280.13Z" transform="translate(0)"/><path class="cls-45" d="M2365.67,1176.16c-1.83,2.83-.22,7.48-3.61,10.36a1.56,1.56,0,0,1-2.49-.56c-1-3.94.26-7.75,1.28-11.51.48-1.79,1.11-4.35,3.77-3.31C2366.25,1171.77,2366.06,1173.89,2365.67,1176.16Z" transform="translate(0)"/><path class="cls-46" d="M2312.65,1023.32c.62.07,1.5-.1,1.81.24,3.19,3.57,6.66,7,7.3,12.1.11.85-1.1,2-2,1.41-4.08-2.87-6.19-7.32-8.5-11.54C2310.84,1024.74,2311.71,1023.78,2312.65,1023.32Z" transform="translate(0)"/><path class="cls-47" d="M2346.18,1078.19c.07,0,.47-.18.69,0a3.8,3.8,0,0,1,1.48,1.21c2.11,4,5,7.63,4.79,12.43,0,.46-2,1.42-2.28,1.2-3.86-3.33-4.87-8.2-6.48-12.72C2344,1079.2,2344.9,1078.52,2346.18,1078.19Z" transform="translate(0)"/><path class="cls-48" d="M2363.71,1120.21c-.3,1.69-.44,3.09-2.2,3.19a2.14,2.14,0,0,1-2.29-1.46q-1.66-5.67-3.09-11.39a1.93,1.93,0,0,1,1.42-2.24,1.87,1.87,0,0,1,2.47,1C2361.39,1113,2362.57,1116.79,2363.71,1120.21Z" transform="translate(0)"/><path class="cls-49" d="M2383.34,759.74a36.84,36.84,0,0,1-11-7.47c-.77-.79-.42-1.8.1-2.66a1.74,1.74,0,0,1,2.55-.53q5.27,3.46,10.36,7.21c.92.67.56,1.81-.08,2.57C2384.92,759.28,2384.19,759.37,2383.34,759.74Z" transform="translate(0)"/><path class="cls-50" d="M2261.81,1286.73c-.1.25-.17,1.09-.61,1.38a28.83,28.83,0,0,1-12,4.63,2,2,0,0,1-2.23-1.52,2,2,0,0,1,.35-1.76,35.13,35.13,0,0,1,12.81-5C2261,1284.31,2262.08,1285.08,2261.81,1286.73Z" transform="translate(0)"/><path class="cls-51" d="M2255.62,774c.42-7.06,3.71-10.73,6.48-14.61a1.89,1.89,0,0,1,2.61-.34,1.86,1.86,0,0,1,.79,2.54C2262.91,765.49,2261.86,770.65,2255.62,774Z" transform="translate(0)"/><path class="cls-52" d="M2412.08,772.88c-3.75-1.16-8.35-1.91-11.67-5.29a1.66,1.66,0,0,1,1.22-2.77,37.67,37.67,0,0,1,12.62,4.63c.37.21.54,1.18.44,1.73C2414.51,772.19,2413.82,772.88,2412.08,772.88Z" transform="translate(0)"/><path class="cls-53" d="M2475.73,769.18c3.79,3.27-.1,4.53-1.67,6.39-3.94-.81-8.92,5.79-11.06.51-1.29-3.19,5.91-3.45,9.06-5.44A21.11,21.11,0,0,1,2475.73,769.18Z" transform="translate(0)"/><path class="cls-54" d="M2436.36,774c1.77.33,4,.66,6.27,1.21,1.5.37,3.57.69,2.91,3-.56,2-2.53,1.79-4.1,1.61a45.43,45.43,0,0,1-5.78-1.14c-2-.51-5.41.19-4.85-3.2C2431.21,773,2434,774.08,2436.36,774Z" transform="translate(0)"/><path class="cls-55" d="M2338.85,1062a1.3,1.3,0,0,1-.71,1.71c-.92.48-2.09.74-2.65-.11q-3.52-5.33-6.69-10.86a1.8,1.8,0,0,1,1.1-2.36,2,2,0,0,1,1.8.1C2335.24,1053.58,2337.2,1057.7,2338.85,1062Z" transform="translate(0)"/><path class="cls-56" d="M2249.64,912.69a2.41,2.41,0,0,1,2.18,1.66c.67,1.51,1.63,3,1.84,4.57.39,2.88,4.85,6.84.52,8.31-3.53,1.21-3.65-4.44-5.14-7.12a8.37,8.37,0,0,1-1.27-5.68C2248,913.46,2248.38,912.57,2249.64,912.69Z" transform="translate(0)"/><path class="cls-57" d="M2277.7,970.15c.57.16,1.45.14,1.75.54,2.7,3.68,6.42,6.84,6.49,11.92,0,.36-1.05,1.15-1.4,1-5.18-1.53-5.83-6.74-8.23-10.5C2275.58,972,2275.94,970.58,2277.7,970.15Z" transform="translate(0)"/><path class="cls-58" d="M2269.68,954.85c-.49,1.45-1.6,2.25-2.89,1.43a6.24,6.24,0,0,1-2.34-3c-1.22-3.51-5.17-6.17-3.41-10.57.13-.34,1.25-.6,1.74-.43C2264.67,942.9,2269.9,952.65,2269.68,954.85Z" transform="translate(0)"/><path class="cls-59" d="M2240.1,880.32c5.27,5.57,5.38,10.63,5.51,15.64,0,.41-.76,1-1.3,1.24a1.83,1.83,0,0,1-2.36-1.15C2239.78,891.62,2239.29,887,2240.1,880.32Z" transform="translate(0)"/><path class="cls-60" d="M2294.79,996.84c.47.07,1.35-.05,1.66.32,3,3.51,6.29,6.88,7.25,11.6.17.86-1.33,1.77-2.16,1.29-4.24-2.44-5.88-7-8.25-10.9C2292.89,998.5,2293.6,997.27,2294.79,996.84Z" transform="translate(0)"/><path class="cls-61" d="M2245,803.5c-2.53-6.54.56-10.52,1.81-14.75a2.17,2.17,0,0,1,3.12-1.42,2.82,2.82,0,0,1,1.14,2.45C2249.82,794,2249.33,798.65,2245,803.5Z" transform="translate(0)"/><path class="cls-62" d="M2354.94,1202c.84,5.26-2,8.62-4,12.29-.68,1.22-1.82,2.11-3.24,1.44s-1.41-2.06-.7-3.34C2349.14,1208.54,2350.38,1204,2354.94,1202Z" transform="translate(0)"/><path class="cls-63" d="M2347.35,729.54c2.7-3.89,4.78-.46,7.06.6l4.31,5.25c1.06,1.27,2.28,2.76.57,4.12s-3-.18-4.14-1.28C2352.38,735.49,2349.31,733,2347.35,729.54Z" transform="translate(0)"/><path class="cls-64" d="M2238.2,850.52c3.15,4.91,2.52,9.85,1.85,17C2234.43,860.62,2236.15,855.56,2238.2,850.52Z" transform="translate(0)"/><path class="cls-65" d="M2239.54,833.37c-2.28-5.23-2.85-10.36,2-15.76C2243,823.78,2242.78,828.67,2239.54,833.37Z" transform="translate(0)"/><path class="cls-66" d="M2228,1300.18c-5.36-.61-4.86-3-1.93-6.21,2.05.39,5.11-1.12,5.68,2.17C2232.17,1298.47,2229.52,1299,2228,1300.18Z" transform="translate(0)"/><path class="cls-5" d="M1684,658c2.39,4.4,1.47,9.1,1.23,13.74C1682.8,667.32,1684.46,662.56,1684,658Z" transform="translate(0)"/><path class="cls-5" d="M1682.13,639.72c2.18,3.13,1.55,6.6,1.17,10C1681,646.62,1682.3,643.09,1682.13,639.72Z" transform="translate(0)"/><path class="cls-36" d="M1276.35,670.47c-.24,1-.48,2-.71,3a2.6,2.6,0,0,1-1.5.24c-.17-3.26-.93-6.61,1.57-9.41Q1276,667.41,1276.35,670.47Z" transform="translate(0)"/><path class="cls-5" d="M1686.2,683.57c1.78,2.54,1.68,5.34,1.14,8.2C1685.23,689.28,1686.19,686.36,1686.2,683.57Z" transform="translate(0)"/><path class="cls-5" d="M1690,710c-.27.58-.56,1.15-.86,1.71-1.85-2.4-1-5.18-1.07-7.82C1690.11,705.49,1689.09,708.05,1690,710Z" transform="translate(0)"/><path class="cls-5" d="M1266.75,717.7a5.81,5.81,0,0,1,1.16-5.78C1267.94,713.93,1268.4,716,1266.75,717.7Z" transform="translate(0)"/><path class="cls-33" d="M674.55,1527.13c70.1-112.75,139.49-224.46,200.27-344,1.23,7.63,2.27,13.21,3,18.83,6.56,50.17,13.19,100.34,19.56,150.54,5.11,40.3,9.88,80.64,14.81,121,1.9,15.53,3.94,31,5.68,46.6.82,7.33.56,7.55-6.28,7.56q-116.48.13-233,.15A32.09,32.09,0,0,1,674.55,1527.13Z" transform="translate(0)"/><path class="cls-67" d="M913.84,792.52c4.15,10.53,5.07,21.8,7,32.8,2.47,14.3,6.37,28.37,7.09,43-11.35-14.65-20.85-30.58-31.45-45.75-6.63-9.5-13-19.18-19.48-28.78,5.36-6.35,6.71-14.39,9.25-21.92,2.32-1.74,4.58-.81,6.19.8C899.3,779.54,907.55,785,913.84,792.52Z" transform="translate(0)"/><path class="cls-68" d="M663.49,1533.37a27.36,27.36,0,0,0-3.56,3.49c-2.93,4.14-6.33,3.73-10.49,2q-42.3-17.86-84.72-35.47-30.39-12.69-60.82-25.33c-2.3-3-1.5-5.87.32-8.71,18.08,5.83,35.35,13.76,53,20.82C592.69,1504.37,628.06,1518.94,663.49,1533.37Z" transform="translate(0)"/><path class="cls-69" d="M1053.24,1559.74c-3.57-2.58-7.7-1.71-11.62-1.7-31,0-62,.15-93,.2-4.79,0-10.31,1.43-11.26-6.16-.29-2.34-3.06-2-5-2.13-3.28-.21-6.65.86-9.81-.73,20.3-.37,40.59-.6,60.87-1.15,22.28-.6,44.61.59,66.85-1.79C1052.57,1550.48,1052.6,1555.17,1053.24,1559.74Z" transform="translate(0)"/><path class="cls-70" d="M2342.27,705.07c-4.16,2.48-3.57,6.69-2.82,11.59-4.81-1.58-6.38-7.77-11.6-5.4-.08,0-1.44-1.87-1.22-2.18a24.89,24.89,0,0,0,3.08-5.77c1.41-3.75,3.55,0,5.35.55C2337.23,704.53,2339.64,702.56,2342.27,705.07Z" transform="translate(0)"/><path class="cls-71" d="M2431,700.11c-2.79-1.58-10.07,1.7-9.4-4.18.46-4,6.86-.12,10.57-.46a7.45,7.45,0,0,1,2,.24c1.31.25,2.83.57,2.94,2.11.16,2.32-1.73,2.4-3.4,2.48C2433,700.33,2432.38,700.21,2431,700.11Z" transform="translate(0)"/><path class="cls-72" d="M2391.54,443.15c-.15.87,0,1.73-.4,2.07q-4.71,4.29-9.6,8.42a1.94,1.94,0,0,1-2.63-.28,1.75,1.75,0,0,1-.26-2.58,36.29,36.29,0,0,1,10.53-8.69C2389.67,441.84,2390.78,442.79,2391.54,443.15Z" transform="translate(0)"/><path class="cls-73" d="M2314.76,654.15c.08,1.4.14,3.22-2.1,3.35-1.46.09-2.24-1.14-2.51-2.52a16.89,16.89,0,0,1-.59-3.89c.13-3.16-4-8.26,1-9,4-.56,2.82,5.58,3.77,8.8A24.05,24.05,0,0,1,2314.76,654.15Z" transform="translate(0)"/><path class="cls-74" d="M2467.83,707.26a2.09,2.09,0,0,1-2.7,2c-4-1.38-7.86-3-11.71-4.74a1.8,1.8,0,0,1-1-2.42c.4-.94,1-1.81,2.12-1.55a36.52,36.52,0,0,1,12.54,5C2467.49,705.91,2467.58,706.7,2467.83,707.26Z" transform="translate(0)"/><path class="cls-75" d="M2315.74,675.26c.58-1,.85-2.27,1.52-2.56a2.64,2.64,0,0,1,2.46.79q2.54,5.81,4.56,11.81a2,2,0,0,1-3.63,1.58C2318.87,683.06,2317.34,679.13,2315.74,675.26Z" transform="translate(0)"/><path class="cls-76" d="M2368,465.58c0,.33.19.78,0,1-3,3.42-5.84,6.94-9,10.14-1,1-2.61.28-2.85-1.32-.32-2.16,7.36-10.9,9.77-11.32C2367.1,463.83,2367.58,464.65,2368,465.58Z" transform="translate(0)"/><path class="cls-77" d="M2338.74,503.21c-.37-.83-1.3-1.93-1-2.47,2.08-4.36,3.86-9,8.13-11.82.94-.62,2.18.6,2.07,1.39-.71,5-4.25,8.54-7.15,12.35C2340.45,503.06,2339.55,503,2338.74,503.21Z" transform="translate(0)"/><path class="cls-78" d="M2331.33,516c1.9,6.27-2.49,10.17-4.07,14.79-.18.54-1.86,1.08-2.49.81a2.68,2.68,0,0,1-1.12-2.38C2325.59,524.75,2325.82,519.18,2331.33,516Z" transform="translate(0)"/><path class="cls-79" d="M2405.5,694.67c-.49,1.66-.5,2.15-.67,2.2a21.9,21.9,0,0,1-15.18.21c-.3-.11-.51-1.59-.33-1.69C2394.5,692.41,2399.8,693.45,2405.5,694.67Z" transform="translate(0)"/><path class="cls-80" d="M2307.79,588.75a20.39,20.39,0,0,1,.36-3.6c.79-2.58-.09-7.44,3.51-6.85,4.24.69.92,4.82,1,7.43a15.69,15.69,0,0,1-.33,3c-.3,1.83.23,4.75-2.27,4.73C2306.33,593.39,2308.62,589.91,2307.79,588.75Z" transform="translate(0)"/><path class="cls-81" d="M2491.83,727.71c-1,1.71-2,2.69-3.27,1.59a11.73,11.73,0,0,1-3-3.86c-1.4-3.05-6.24-4.23-4.84-8.67.3-.95,1.72-.88,2.54-.27A25.41,25.41,0,0,1,2491.83,727.71Z" transform="translate(0)"/><path class="cls-82" d="M2487.45,759.05c1.44-4.27,2.85-8.56,4.38-12.81a1.79,1.79,0,0,1,2.27-1.37,1.91,1.91,0,0,1,1.56,2.15c-1.08,4.94-1.27,10.4-6.38,13.22Z" transform="translate(0)"/><path class="cls-83" d="M2296.81,726.77c4.19-6.54,8.92-8.54,13.64-10.52.37-.16,1.24.29,1.54.71s.62,1.57.39,1.77C2308.33,722.14,2304.16,725.36,2296.81,726.77Z" transform="translate(0)"/><path class="cls-84" d="M2375,698.12a37.25,37.25,0,0,1-15.15,4,1.88,1.88,0,0,1-2.1-1.49c-.13-.52.12-1.61.41-1.7C2363.11,697.5,2368,694.6,2375,698.12Z" transform="translate(0)"/><path class="cls-85" d="M2318.59,546.37c.83.59,1.24.72,1.28.93,1.12,5.42-1,10-3.73,14.47-.11.16-1.57-.12-1.63-.37C2313.25,555.66,2315.41,551,2318.59,546.37Z" transform="translate(0)"/><path class="cls-86" d="M2307.59,625.38c-2.61-4.3-1.21-9.19-1.14-13.85a1.86,1.86,0,0,1,2.18-1.48,1.91,1.91,0,0,1,1.7,2c.09,4.48,0,9,0,13.44Z" transform="translate(0)"/><path class="cls-6" d="M913.84,792.52c-7.55-3.11-13.11-8.88-19-14.2-2.67-2.41-4.66-5.75-8.6-6.49a25.69,25.69,0,0,0-4.22-8.94c-14.13-21.18-22.36-45.11-31.68-68.52-1.68-4.22-1.19-6.62,3.93-9C877.7,674.56,900.8,663,924,651.63c.71-.59,1.27-.48,1.68.35,6.9,14.08,16.93,26.09,26,38.7,13.46,18.74,13.67,18.81,35.35,26.84,30.5,11.29,61,22.56,91.86,32.9,17.87,6,36.35,10.14,54.55,15.12-14.32.09-28.63.26-42.94.27q-83.49,0-167,0c-1.34,0-2.67,0-4,0-7.47.25-8.62,1.36-7.65,9C912.65,780.7,914.91,786.42,913.84,792.52Z" transform="translate(0)"/><path class="cls-87" d="M974,631.74c-2.23,4.31-4.46,8.61-7.16,13.8-16.67-10.67-31-24.29-46.86-35.75,1.56-15.53,3.4-31,2.26-47.21,8.09,5.83,13.85,13.71,20.26,20.9,6.64,7.44,13.09,15,19.62,22.58,1.84.78,2.83,2.35,3.75,4l10.66,12C977,625.63,974.27,628.38,974,631.74Z" transform="translate(0)"/><path class="cls-88" d="M918,619c3.13,8.79,8.09,16.7,12,25.1a8.86,8.86,0,0,1-2.45-1.53,608.28,608.28,0,0,1-44-62.61c7.75,3.92,7.23,4.26,10.81,9.71,6.56,10,13.76,19.55,20.81,29.2C915.62,619.3,917.09,619,918,619Z" transform="translate(0)"/><path class="cls-89" d="M908.9,640.2h3.89c-19.73,14.09-41.17,24.63-63.27,33.91l-.93-1.8q26.73-14.23,53.48-28.45C904.57,643.06,905.64,639.58,908.9,640.2Z" transform="translate(0)"/><path class="cls-90" d="M825.72,630.3c4.06,18.42,9.75,36.46,12.7,55.13.54,3.45,2.57,4.85,5.89,5.34-6.33,3.15-6.87,3.22-8.29-2.39-3.58-14.11-6.78-28.32-10.07-42.5-.89-3.87-1.53-7.79-2.28-11.68C823.27,632.33,821.84,629.92,825.72,630.3Z" transform="translate(0)"/><path class="cls-91" d="M965.82,610.05c-1.67-.93-3.31-1.9-3.75-4,4.8-3.2,5.56-8.79,7.79-13.46,6.24-13.08,12.25-26.26,19.2-39C983.84,573.47,974.13,591.47,965.82,610.05Z" transform="translate(0)"/><path class="cls-92" d="M825.72,630.3c-1.7.77-1.56,2.5-2.05,3.9-3.54-7.67-8.31-14.94-5.95-24.18.8-3.11-2.44-6.17-1-10.06,3.39,4.64,4.17,9.92,5.47,15S824.56,625.17,825.72,630.3Z" transform="translate(0)"/><path class="cls-93" d="M834,650.6c9.19,2.76,10.31,3.52,15.91,10.75C842.81,659.75,838.5,656.39,834,650.6Z" transform="translate(0)"/><path class="cls-94" d="M688.94,687.09c-5.29-1.93-8-5.77-9.33-12.58C685.62,677.74,687.66,682.09,688.94,687.09Z" transform="translate(0)"/><path class="cls-95" d="M821.85,758.62c6.83-1.08,11.77-1.33,17.74,2.51C832.8,762.92,827.94,762.61,821.85,758.62Z" transform="translate(0)"/><path class="cls-96" d="M826.55,713.23c-1-9.66-1-9.66,2.66-15.55C830.41,705.48,830.41,705.48,826.55,713.23Z" transform="translate(0)"/><path class="cls-97" d="M849.88,602.93c-5,4.19-9.68,3.31-15.71,2.94C839.38,601.66,843.84,601.16,849.88,602.93Z" transform="translate(0)"/><path class="cls-98" d="M747,681.68c-5.68,1-10.63,1.25-15.54-2.19C738.64,677.5,738.64,677.5,747,681.68Z" transform="translate(0)"/><path class="cls-99" d="M908.9,640.2c-1.82,2.07-3.89,3.68-6.83,3.66,2.24-4.25,4-8.85,8.83-11.35C913.36,636,908.67,637.47,908.9,640.2Z" transform="translate(0)"/><path class="cls-88" d="M925.7,652a3.26,3.26,0,0,0-1.68-.34c1.59-2.89,5.76-3.78,6-7.73,3.16,1.87,3.31,3.84.11,5.79C928.68,650.56,927.17,651.22,925.7,652Z" transform="translate(0)"/><path class="cls-100" d="M1301.84,596.17c-1.35,2.05-3.49,2-5.34,1.44-22.78-7.13-46.18-8.44-69.82-7.61-.92,0-1.86-.41-4.21-1,26.36-4.76,50.66-2,74.59,5.83,1.56.5,3.17.85,4.75,1.27Z" transform="translate(0)"/><path class="cls-101" d="M1280.17,573.52c-20.64-4.85-41.12-9.64-62.3-10.5C1239.73,560.22,1260.58,563.58,1280.17,573.52Z" transform="translate(0)"/><path class="cls-102" d="M1265.93,556c-2.33,3.22-5.23,1.84-8.12,1.08-14.13-3.71-28.31-7.17-43-8,11.52-2.14,22.76-.88,34,2.13,5.75,1.54,11,4.77,17.18,4.85Z" transform="translate(0)"/><path class="cls-103" d="M1199.67,665.27c.82,3.69,3.67,6.76,3.36,11.49-5.9-3.94-7.81-10.37-11.75-15.17-.74-3.39-3.79-6.05-2.91-11.4C1193.86,654.66,1196.22,660.43,1199.67,665.27Z" transform="translate(0)"/><path class="cls-104" d="M1240.54,636.77a66.77,66.77,0,0,1-.31,29.37h-2.08l-.66-28.35C1238.24,636.66,1238.9,635.26,1240.54,636.77Z" transform="translate(0)"/><path class="cls-105" d="M579.52,1543.76c5.25-8.13,12.65-8.93,21-5.92,11,4,18.82,12.21,26.34,20.7,3.45,3.9,6.17,8.47,10.33,11.68,3.48-2,5.15-5.4,7.38-8.26a96.16,96.16,0,0,1,20.06-19.26,29.94,29.94,0,0,1,15.64-6c5.62-.35,10.54,1.42,13.61,6.56s2.57,10.21-.46,15.08c-3.46,5.55-8.72,8.95-14.45,11.85-7.48,3.78-15.72,5.19-23.61,7.79-.3,2.4,3.67,2.92,2.27,5.59-17.2-2.34-34.44-1.77-51.88-.73.28-4.29,5.56-3,6.92-6.56-7.88-2.39-15.72-5-22.78-9.31C580.22,1561.11,577.2,1554.17,579.52,1543.76Z" transform="translate(0)"/><path class="cls-106" d="M490,1598.07c4.2-.48,7.76,1.59,11.43,3,65.46,25.06,130.5,51.16,195.35,77.73,3.22,1.31,7.18,1.71,9.16,5.31l.13-.16c-7.21-.15-13.36-3.86-19.76-6.35-62.18-24.23-124.39-48.4-186-74-3.55-1.48-7.74-2.08-10.15-5.7Z" transform="translate(0)"/><path class="cls-107" d="M508.11,1569.28c0,9.17-6.47,16.41-14.83,16.59-9.08.19-15.74-6.43-15.54-15.44s7-16.27,15.26-16.19A15,15,0,0,1,508.11,1569.28Z" transform="translate(0)"/><path class="cls-108" d="M670.14,1597.76a56.62,56.62,0,0,1,7.18,3c.61.34,3.51,1.62.7,3.32-16.75-3-33.56-2.06-51.58-.41,5.45-6,11.81-7,18.11-7.61A75.55,75.55,0,0,1,670.14,1597.76Z" transform="translate(0)"/><path class="cls-109" d="M660.16,1587.73c2.34,2.13,7.88.23,7.42,5.88-16.8-2.16-33.64-1.78-50.56-1.28C630.53,1583.06,645.33,1585.26,660.16,1587.73Z" transform="translate(0)"/><path class="cls-110" d="M670.73,1662.17c8.74-13.9,21.25-19.62,39.32-17.71C685.69,1651,685.69,1651,670.73,1662.17Z" transform="translate(0)"/><path class="cls-106" d="M490.09,1597.91c-3.29.44-5.92-1-9.89-3.78,4.74.63,7.71,1.07,9.76,3.94Z" transform="translate(0)"/><path class="cls-106" d="M705.9,1684.1a26.68,26.68,0,0,1,2.83.05,4.37,4.37,0,0,1,1.61.62c-.31,1.25-1.4,1.18-2.22.84a9.59,9.59,0,0,1-2.09-1.67Z" transform="translate(0)"/><path class="cls-1" d="M496,586V576c-.81-15.69,9.51-24.81,21.19-31.07,26.22-14.07,54.65,2.76,60.72,25.8,4.16,15.82-.72,28.23-11.43,40.77-13.55,15.88-40.78,15.31-55.37,4.35C506,612,503.42,606.82,500,602h0C496.17,597.3,495.44,591.81,496,586Z" transform="translate(0)"/><path class="cls-20" d="M500,602c4.77,4.44,9.16,9.23,14.17,13.5,10.73,9.14,38.57,8.45,48.84-2.85,8-8.81,13.46-18,14.63-29.43.79-7.72-1.68-15.3-6-21.62-15.31-22.37-43.1-26.87-63.52-8.13C501.72,559.33,499,567.89,496,576c-4.08-4.66-4.25-9.14-.21-14.58,10.16-13.69,24.24-21.16,40.48-25.1a5.63,5.63,0,0,1,3-.07c14.48,4.73,30,8.75,37.18,23.83,6.12,12.9,8.63,26.35.87,40.63-4.14,7.61-10.85,12.1-15.67,18.61-2.15,2.9-5.82,3.33-8.94,4-4.53,1-9.16,1.4-13.29,3.83a6.68,6.68,0,0,1-5.83.36c-7.43-2.88-14.84-5.81-22.18-8.92S502,608.77,500,602Z" transform="translate(0)"/><path class="cls-20" d="M496,586a57,57,0,0,1,4,16C493.22,597.46,492.57,594.89,496,586Z" transform="translate(0)"/><path class="cls-111" d="M944.66,479.09c3.05-2.22,5.91-3.23,8.93-3,4.88.3,7.67-1.15,6.95-6.61-.19-1.42.69-3.17,2-2.94,7.34,1.35,5.13-3.92,5-7.29-.27-10.22-2.73-20.36-1.11-31.93,3,5.2,3.07,10,3.5,14.5.74,7.91,1.13,15.86,1.49,23.8.14,3.19.94,7.26-4.75,6.08-1.61-.33-2.67.43-2.49,2,.66,5.78-2.65,6.58-7.27,6.26a4.71,4.71,0,0,0-3.53,1.37C949.45,486.36,947.53,482.47,944.66,479.09Z" transform="translate(0)"/><path class="cls-112" d="M881.09,439.86c8.94,7.58,11.82,16.19,8.7,25.68-3.4-2.86-3.52-8.21-8-9.8-.27-.09-.44-.48-.66-.73C890.78,450.14,880.11,445.62,881.09,439.86Z" transform="translate(0)"/><path class="cls-113" d="M948.21,449.77c-.25,2.62.19,6.07-3.65,6.86-3.37.7-6.42-2.81-6.63-7.1-.23-4.77,2.15-8,5.63-7.64C946.56,442.21,948.19,444.87,948.21,449.77Z" transform="translate(0)"/><path class="cls-111" d="M971.55,449.27c.31-3.26.54-7.18,5.43-7.65,3.34-.32,5.64,3.35,5.35,8-.24,4.08-3.47,7.58-6.83,7C971.72,455.94,971.44,452.85,971.55,449.27Z" transform="translate(0)"/><path class="cls-111" d="M975.87,426.72a26.43,26.43,0,0,1,5.1,1.64c2.6,1.37,5.64,3.11,4.16,6.69-1.32,3.2-4.27,2.18-6.83,1.38a33,33,0,0,1-4.68-1.43c-1.94-1-4.63-1.65-3.76-4.81C970.62,427.46,973.08,427.26,975.87,426.72Z" transform="translate(0)"/><path class="cls-114" d="M940.09,430.27c-2.55.11-3.81-.38-4.49-1.6-.92-1.66-.21-3.15,1-4.46a12.11,12.11,0,0,1,6.79-3.82c2.74-.56,5.65-.39,6.58,2.75,1,3.39-1.67,4.56-4.33,5.4Z" transform="translate(0)"/><path class="cls-2" d="M536.1,1128.11c4.09-4.56,5.37-9.76,6.79-15.17,3.12-11.9,15.31-20.53,27.76-20.94a20.4,20.4,0,0,0,5-.31c3-.88,5.6-2.77,5.92-6,.35-3.55-1.2-6.48-4.92-7.69-2.2-.72-4.43-1.37-6.67-2-1.6-.42-3.52-.55-2.94-2.94a2.35,2.35,0,0,1,3.06-1.78c6.44,1.81,12.33-1.61,18.56-2.06,4-.29,6.76-.35,7.19,4,.57,5.79,4,7,9,6.8,3.32-.13,6.67.15,10-.08,6.49-.45,8.76-3.62,7.27-9.79-.4-1.63-10.1-19.19-11.3-20.45-7-7.27-7-7.27-16.84-8.31a3.34,3.34,0,0,1,2.76-4.39c6.92-.93,8.94-8.72,15.26-10.45,1.48-.41,2.2-2.6,2-4.3-.71-5.08,2.91-7.9,5.6-11.18,3.5-4.26,8.71-7.09,10-13.16.36-1.62,2.37-3.55,4.65-2.81,2.47.81,2,3.38,1.74,5.15-2,12.24.49,25.13-5.22,36.85a4.19,4.19,0,0,0-.29,2.9c5,13.66-3,26.37-3.06,39.75,0,5-4.52,10.08-7.31,14.93-1.39,2.42-4.17,2.76-6.85,3.44-9.83,2.47-19.79,1.66-29.72,2-3.08.08-7.45-1.68-8.78,2.46-1.39,4.35-1.88,9.27,2,13.08,3.31,3.24,6.2,6.9,10.54,9,7.63,3.77,10,10.46,8.48,18.32-1.13,5.71-1.87,11.9-7.38,15.74-3.21,2.23-4,5.94-5.44,9.27-3.49,7.78-8.28,8-13.56,1.38-2.91-3.63-6.12-6.34-4.19-11.88.72-2-1.47-5.21-4.73-5.35-3.76-.16-5.68-3.12-8.45-4.82-3.23-2-3.45-3.81-2.12-7.32,2.72-7.14,1-9.36-6.68-10C541.2,1129.85,539.14,1130.33,536.1,1128.11Z" transform="translate(0)"/><path class="cls-1" d="M558,1072c.44,4.58-6.07,8.33-1.54,13.56.53.61-1.46,2-2.75,2.26-5.35.91-7,5.33-9.35,9.3-4.1,7-5.68,15.44-12.36,20.88l0,0c1.86-11.43,8.25-20.9,13.9-30.55,3.26-5.56,5.82-12.08,12.1-15.45Z" transform="translate(0)"/><path class="cls-1" d="M532,1118a21.59,21.59,0,0,1-1.74,9.62A152.06,152.06,0,0,0,520,1160c-.61,3.18-1.63,5.63-5.61,6.85a53.18,53.18,0,0,1,3.51-15.3q5.45-14.85,11.25-29.56c.57-1.46,1.87-2.63,2.84-3.93Z" transform="translate(0)"/><path class="cls-1" d="M570,1056c-.21,6.14.2,6.7,5.07,5.84,3.51-.62,6.81-2.62,11.09-1.24-3,2.47-6.14,3.07-9.52,3.47-6.94.82-13.48,2.81-18.64,7.93l0,0c2.16-6.71,5.93-12.22,12-16Z" transform="translate(0)"/><path class="cls-1" d="M570,1056c.14-4.46,3.53-6.44,6.6-9.19,0,8,0,8-6.62,9.17Z" transform="translate(0)"/><path class="cls-1" d="M587.77,1034.17c-1.09,5.36-4,6.73-7.78,10.21C581.2,1038.72,584,1037.08,587.77,1034.17Z" transform="translate(0)"/><path class="cls-1" d="M503.58,1210.78c-.31-.48-.93-1-.84-1.37.43-1.64,1.43-2.82,3.31-2.55a1.59,1.59,0,0,1,.94,1.28C506.68,1210,505.07,1210.34,503.58,1210.78Z" transform="translate(0)"/><path class="cls-115" d="M2547.82,353.89c0,2.73,0,5.46.08,8.2a44.06,44.06,0,0,0-27.55.19l-.64-.7c-10.62-2.68-21.66-1.61-32.38-3.51-2.24-.4-4.57-.28-6.93-1.9h20.79c-2.08-4.32-6-4.69-7.76-7.51-.26-1,.15-1.4,1.14-1.27,1.21.5,2.67.73,3.6,1.56,9.67,8.55,21.17,9.87,33.86,8.18,1.72-1.51-2.12-2.69-1.13-4.48.61-.08,1.4-.45,1.79-.2a49.34,49.34,0,0,1,4.73,3.54C2541.8,359.68,2545.14,358.45,2547.82,353.89Z" transform="translate(0)"/><path class="cls-116" d="M2520.35,362.28c-3.94,4.64-9.16,7.24-15,9,4-4.27,8.39-8.09,14.34-9.67Z" transform="translate(0)"/><path class="cls-115" d="M2493.43,348.66a6.15,6.15,0,0,1-4.2-3.54c2.66-.47,4,.83,5.34,2.27C2494.18,347.81,2493.8,348.23,2493.43,348.66Z" transform="translate(0)"/><path class="cls-117" d="M2544.15,395.13c-11.9,8.31-21.37,18.45-25.23,32.93-.24.88-1.16,1.57-1.94,2.57-2.13-5.3,4.16-9.1,2.21-14.14-4.18,0-5.88,4.37-11.17,5.4,3.37-5.27,7.82-7.65,11.49-10.76s7.53-6.28,13-10.81c-7.6,1.28-13.05,1.92-19.75,1.22,4.28-4.68,9.08-3.78,13.06-3.45a24.1,24.1,0,0,0,18.29-5.72C2545.3,393.26,2545.33,394.18,2544.15,395.13Z" transform="translate(0)"/><path class="cls-118" d="M2544.15,395.13l-.07-2.76c2-1.67,3.69-3.7,7.5-4.24-1.95,3.79-3.47,7.22-3.84,10.9C2544.62,399.16,2546.67,395.23,2544.15,395.13Z" transform="translate(0)"/><path class="cls-17" d="M2546,379.86c1.81-2.2,4.13-2.09,6.57-1.45C2550.68,380.07,2548.41,380.18,2546,379.86Z" transform="translate(0)"/><path class="cls-10" d="M1384.15,1303.54a50.15,50.15,0,0,1-50.64,50.78,50.83,50.83,0,0,1-51.09-50.7c0-27.95,22.9-50.84,51-51S1384.08,1275.22,1384.15,1303.54Z" transform="translate(0)"/><path class="cls-10" d="M1734.05,1354.28c-28.09-.15-50.24-22.8-50-51.18.19-28.06,23.15-50.77,51-50.47a51,51,0,0,1,50.7,50.92C1785.75,1332,1762.87,1354.43,1734.05,1354.28Z" transform="translate(0)"/><path class="cls-119" d="M1617.17,1356.85c-1.76,1.09-3.2,1.9-4.54,2.84-3.82,2.67-6.19,2-8.61-2.3a100.76,100.76,0,0,0-32.48-34.69c-16.94-11.27-35.61-16.64-55.94-13.78-23.19,3.26-38.32,17.2-47.64,38.07-1.22,2.73-2,5.63-3,8.46-1.77,5.11-6.73,6.87-11.16,4-2.1-1.39-1.88-3.46-1.23-5.33a131.45,131.45,0,0,1,5.29-14c15.24-32,42.59-47.32,77.84-43.68C1568.93,1299.84,1602.85,1324.72,1617.17,1356.85Z" transform="translate(0)"/><path class="cls-120" d="M1073.31,1673.82q-49.89,0-99.78,0c-.47,0-.93-.46-1.57-.8,4.43-3.25,9.47-2.72,14.32-2.77q42.9-.43,85.81-.71A4.11,4.11,0,0,1,1073.31,1673.82Z" transform="translate(0)"/><path class="cls-121" d="M1060.93,1605.76c-9.68-1.34-16.64-6-19.19-15.92.63-8.52,6-12.54,13.68-14.37l1,4.83c-9,8.23-2.25,13.79,3.31,19.55A10.93,10.93,0,0,1,1060.93,1605.76Z" transform="translate(0)"/><path class="cls-122" d="M1059.72,1599.85a9.4,9.4,0,0,1-5.33-2.21c-9.17-7.05-8.53-12.44,2-17.35C1058.84,1586.59,1059.42,1593.2,1059.72,1599.85Z" transform="translate(0)"/><path class="cls-123" d="M987.44,1645.09c0,9.31-6.55,15.68-15.84,15.49-8.74-.18-14.88-6.51-14.94-15.39-.06-9.13,6.58-15.61,15.84-15.44A14.85,14.85,0,0,1,987.44,1645.09Z" transform="translate(0)"/><path class="cls-124" d="M1134.89,740.72c12.25-3.75,22.22-3.37,34.37-.29C1156.92,743.89,1148.8,744,1134.89,740.72Z" transform="translate(0)"/><path class="cls-125" d="M1150.39,689c10.28,1.82,18.67,7.06,25.84,14.5C1166,701.54,1157.75,696.05,1150.39,689Z" transform="translate(0)"/><path class="cls-126" d="M643.52,1574.12a6.78,6.78,0,0,1,1.88-6.42c6.05-6.65,12.21-13.19,19.37-18.7a30.8,30.8,0,0,1,16.44-6.62c6.71-.56,9.93,3.45,8.43,10a14.89,14.89,0,0,1-6.71,9.58C670.86,1569.58,657.26,1571.89,643.52,1574.12Z" transform="translate(0)"/><path class="cls-127" d="M619.8,1558.26c5.42,4.39,9.18,10.19,13.47,16-13.67-2.5-27.39-4.21-39.6-11-8.93-5-11-10.9-7.69-19.26C596.78,1549.86,608.27,1554.12,619.8,1558.26Z" transform="translate(0)"/><path class="cls-128" d="M619.8,1558.26a2.56,2.56,0,0,1-3.27,1.48c-9.24-3.65-18.42-7.45-27.64-11.14A4.28,4.28,0,0,1,586,1544c7.93-4.76,14.62-.48,21.13,3.25C612,1550,615.9,1554.2,619.8,1558.26Z" transform="translate(0)"/></g></g></svg>