<svg xmlns="http://www.w3.org/2000/svg" viewBox="0 0 1499.25 1366.5"><defs><style>.cls-1{fill:#fbfbfb;}.cls-2{fill:#f49eab;}.cls-3{fill:#e3e3fd;}.cls-4{fill:#9291de;}.cls-5{fill:#558de5;}.cls-6{fill:#f6a9b3;}.cls-7{fill:#ccceee;}.cls-8{fill:#d2d3ef;}.cls-9{fill:#f5bfc5;}.cls-10{fill:#8f93c4;}.cls-11{fill:#f5c0c7;}.cls-12{fill:#9094c4;}.cls-13{fill:#8a8fc4;}.cls-14{fill:#8f94cc;}.cls-15{fill:#f18292;}.cls-16{fill:#fcfbfb;}.cls-17{fill:#c6c5ed;}.cls-18{fill:#3f479b;}.cls-19{fill:#599af1;}.cls-20{fill:#fcdee2;}.cls-21{fill:#f9fbfb;}.cls-22{fill:#f9fafd;}.cls-23{fill:#f9fafc;}.cls-24{fill:#fcdde1;}.cls-25{fill:#4c64b9;}.cls-26{fill:#fcfcfc;}.cls-27{fill:#de9caf;}.cls-28{fill:#575aae;}.cls-29{fill:#589af1;}.cls-30{fill:#fcfdfd;}.cls-31{fill:#f7f9fa;}.cls-32{fill:#fbfdfb;}.cls-33{fill:#fdfdfc;}.cls-34{fill:#fbfcfb;}.cls-35{fill:#fcfdfc;}.cls-36{fill:#a7aad6;}.cls-37{fill:#8b89bc;}.cls-38{fill:#7b7dbe;}.cls-39{fill:#6b71b4;}.cls-40{fill:#7276b5;}.cls-41{fill:#9392dd;}.cls-42{fill:#9392de;}.cls-43{fill:#fdfcfc;}.cls-44{fill:#fafcfb;}.cls-45{fill:#e8e9fd;}.cls-46{fill:#fce4e8;}.cls-47{fill:#f8bbc4;}.cls-48{fill:#aaa8e4;}.cls-49{fill:#7daef5;}.cls-50{fill:#666eb0;}.cls-51{fill:#e8e8fb;}.cls-52{fill:#f7fbfd;}</style></defs><title>Asset 9</title><g id="Layer_2" data-name="Layer 2"><g id="Layer_1-2" data-name="Layer 1"><path class="cls-1" d="M749.62,1366.43q-373.08,0-746.18.07c-2.81,0-3.44-.63-3.44-3.44Q.11,683.25,0,3.44C0,.63.63,0,3.44,0Q749.63.11,1495.81,0c2.81,0,3.44.63,3.44,3.44q-.11,679.82,0,1359.62c0,2.81-.63,3.44-3.44,3.44Q1122.71,1366.38,749.62,1366.43Z"/><path class="cls-2" d="M746.24,1187.4c-25.49-.05-51-.14-76.47-.14q-184.8,0-369.6,0c-13.4,0-23.16-5.63-29.31-17.51a29.59,29.59,0,0,1-3-13.74q-.09-86.17,0-172.33c0-51.7.07-103.4-.14-155.1,0-10.29.76-20.1,6.93-28.77,2.88-6.28,8.57-9.12,14.48-11.52A25.93,25.93,0,0,1,299,786.6q61.38,0,122.75,0c8.95.38,17.9.18,26.85,0,8.75-.17,15.46,3.81,21.52,9.47,1.63,1.53,2.88,3.42,4.53,4.93,2.69,4.93,5.22,9.84,5,15.76a190.88,190.88,0,0,0,.08,20.58c.46,6,.67,12.21,3.73,17.72,6.14,11,15.41,17,28.18,17q36.35.06,72.69,0a27.08,27.08,0,0,1,6.72.41c2.07.66,4.21.42,6.33.42,46.74,0,93.48.09,140.21,0,11.07,0,19,5.26,25.08,13.71a30.68,30.68,0,0,1,5.89,19.08q-.45,124.77-.15,249.54c0,11.39-4.93,20.06-13.48,27.06-1.91,1.57-4.39,1.61-7.42,2.88,6.51.37,12.15.09,17.78.22,2,0,4-.34,5.72,1.17-.23,1.67-1.64,1.78-2.8,1.83-6.42.27-12.85.25-19.27,0A7.86,7.86,0,0,1,746.24,1187.4Z"/><path class="cls-3" d="M422.33,787.64l-123.08.15a31.47,31.47,0,0,0-5.55.44c-7.91,1.4-13.65,6.19-19.05,11.6q-60.55,0-121.11-.05c-7,0-10.69,3.62-10.34,10.11a182.2,182.2,0,0,1,0,23.6c-.69,9,.74,17.89.07,26.8-1.37,18.45-.8,36.92-.53,55.37.2,13.06.84,26.14.45,39.2-.21,7-.57,13.92-.64,20.89a3,3,0,0,1-1.82,3,40.92,40.92,0,0,1-2.54-11.49,217.1,217.1,0,0,0-7.77-40.13c-3.78-13.09-7.31-26.2-8.17-39.91-.41-6.5-.84-13-1.11-19.49-.19-4.35-2.07-8.83-1.81-13.49.28-5.15,1.13-10.37.63-15.46-1.45-14.62,2.1-28.88,2.58-43.36.21-6.22,2.62-12.35,3.78-18.56a246.68,246.68,0,0,1,12.91-46.13,179.39,179.39,0,0,1,12.56-25.83c7.46-12.47,15-24.9,23-37,5.06-7.63,10.2-15.26,14.76-23.16a304.09,304.09,0,0,0,14.55-28.43,139.66,139.66,0,0,0,10.56-38.2c1.23-9.07,1.83-18.38.66-27.66-.93-7.4-1.1-14.89-1.89-22.33a172.35,172.35,0,0,1-1.09-18.8c0-4.78-.61-9.46,0-14.39.47-3.72-.81-8.25-.76-12.44.13-11.25.57-22.48,3.6-33.42a140.7,140.7,0,0,1,11.7-28.43c4.12-7.77,9.86-14.2,14.45-21.51,4.26-6.77,10.19-12.5,15.3-18.75,6.63-8.09,14.18-15.35,21.59-22.66a309.88,309.88,0,0,1,31.13-26.78c5.12-3.88,10.17-8,15.44-11.65,5.78-4,11.55-8.14,18-11.2,10.34-4.9,20.4-10.4,30.77-15.24,14.22-6.63,28.71-12.64,43.33-18.39,13.08-5.14,26.32-9.81,39.59-14.43,5.68-2,11.49-3.58,17.37-5.84-19.2,2.22-33.86-3.87-36.95-24-2.6-17,6.61-27.07,20.36-31.37,13.44-4.2,23.72,1,31.47,10.89A26.23,26.23,0,0,1,494.09,225a30.44,30.44,0,0,1-3.79,15.32c-2.67,4.9-6.94,8.29-12.06,11.82,3.85,1.09,6.64-.32,9.22-1.18,10.51-3.51,21.4-5.47,32.15-8,13-3,26-6.52,39.27-8,13.93-1.6,27.51-5.47,41.66-5.64,6.79-.08,13.55-1.44,20.35-1.89,6.48-.43,12.93-1.18,19.4-1.5a58.54,58.54,0,0,1,8.89.58c13.89,1.49,27.73-.26,41.59-.46,6.17-.09,12.34-.73,18.42.92a3,3,0,0,0,1.47.19c7.74-2.07,15.28,1,23,1,5,.05,10.38.85,15.29.81,10.12-.1,19.81,2.65,29.83,2.82,4.78.08,9.53,1.89,14.32,2.07a185.86,185.86,0,0,0,24.53-.28c5.45-.5,10.92-.56,16.35-1,21.6-1.67,43.25-3.21,64.94-2.4,15.27.56,30.46,2.09,45.67,3.43,13.27,1.17,26.32,3.43,39.39,5.61,19.1,3.18,38,7.36,56.78,12.18,14.32,3.68,28.48,7.91,42.67,12,9.92,2.89,19.7,6.16,29.58,9.1,9.36,2.79,16,9.18,22.2,16.51a181.18,181.18,0,0,1,12.14,15.38c3.93,5.81,8.47,11.41,11.29,17.93,1.2,2.76,4.21,4.6,3.83,8.25-.13,1.25,1.85.67,2.83.67q22.88.07,45.75,0c6.62,0,13.25,0,19.87,0,1.21,0,2.52-.35,3.58.62-1.31,1.54-3.15,1.35-4.86,1.36q-51.58.06-103.18,0a7.87,7.87,0,0,1-4.34-.85c-1.6-1.61-1.29-3.7-1.3-5.66,0-11.73,0-23.47,0-35.21a32.05,32.05,0,0,0-.17-4.49,8.53,8.53,0,0,0-8.24-7.73c-1.37-.1-2.75-.06-4.12-.06H956.06c-1.5,0-3-.05-4.49.07a8.35,8.35,0,0,0-8,6.72,9.33,9.33,0,0,0-.34,2.22c-.16,17.35-.24,34.71,0,52.06.1,5.68,3.39,8.87,9,9.74a33.8,33.8,0,0,0,5.23.22c13-.09,26,.2,39-.15a4.37,4.37,0,0,1,2.54.44c1.43,1.86,1.06,4.05,1.07,6.14q0,30.72,0,61.43c0,9,2.55,11.55,11.6,11.58s18,0,27,0a14,14,0,0,1,5.19.52c3.15,3,1.92,6.5,1.35,10-1.54,2-3.41.92-5.13.47a250.25,250.25,0,0,0-30.75-6.55A225.08,225.08,0,0,0,915.67,441a228.52,228.52,0,0,0-56.17,25.26c-1.64,1-3.18,2.63-5.43,1.41-1.55-2.25-1.05-4.83-1.06-7.28q0-81.32,0-162.62c0-10.8-.87-11.66-11.8-11.66H479.4c-1,0-2,.05-3,0-10.61,0-21.22,0-31.83.06-4.71.05-5.84,1.3-6,6.11-.06,1.5,0,3,0,4.49q0,56.73,0,113.45c0,2.24.24,4.5-.51,6.68-.91,1.84-3,2.06-4.41,3.32a20.67,20.67,0,0,0-7.06,14.85c-.18,6.39-1.12,12.67-1.62,19-.25,3.14-1.53,4.65-4.72,5.11a121.5,121.5,0,0,0-35.12,10.21c-2.37,1.13-4.73,2.26-7,3.56-3.5,2-4.51,1.77-7.12-1.1-4.11-4.54-8.21-9.07-12.13-13.78-5.43-6.53-12.2-9.84-20.79-8.34-8,1.39-13.24,6.36-16,13.71-3,8.05-.71,15.28,4.76,21.51,3.79,4.32,7.58,8.64,11.26,13.05,3.11,3.74,3.24,5.39.36,9.32-8.79,12-15.69,24.91-19.7,39.29-.79,2.84-2.66,4.2-5.59,3.72a154.15,154.15,0,0,0-20.89-1.69c-16.15-.42-25.14,15.86-20.62,27.23,3.62,9.1,10.07,13.78,19.83,14.59,6,.49,11.95.66,17.92,1.31,3.48.38,5.15,1.92,5.75,5.2a190,190,0,0,0,4,18.65A120.3,120.3,0,0,0,328.47,638c2.32,4.46,1.87,5.26-1.59,9-5.18,5.64-11.23,7.23-18.74,7.07-20.48-.43-41-.35-61.47-.1-30.78.38-53.41,23.85-53.52,53.61-.1,28.87,23.81,52.83,52.69,52.85q93,.07,185.91.06c2.25,0,4.81-.83,6.62,1.44.25,7.24.07,14.47.06,21.7,0,2.8-1.18,3.94-4.14,3.81A75.82,75.82,0,0,0,422.33,787.64Z"/><path class="cls-3" d="M1319.24,483.5a55.54,55.54,0,0,1,6.6,17.1c2.11,9.3,5,18.49,5.7,28,.46,6,1.72,11.75.91,18-.47,3.58.9,7.9,1.1,11.95a37.65,37.65,0,0,1,0,4.38c-.61,9.89-1,19.8-1.58,29.7-.19,3.42.78,5.85,3.55,8.41,4.33,4,7.75,9,11.45,13.69,1.38,1.75,2.7,3.55,4.12,5.28a16.42,16.42,0,0,1,3.36,12.64,179.73,179.73,0,0,0,.62,46c1.29,8.81,2.12,17.71,3.92,26.44,3.58,17.38,7.87,34.6,12.49,51.75,3.64,13.53,6.59,27.24,10.06,40.82,2.8,11,4.06,22.17,5.81,33.29a72.87,72.87,0,0,1,.81,12.26c-.09,7,1.24,13.88.87,20.88-.16,3-.67,4.14-4.2,3.55-7.16-1.2-14.07-.55-20,4.57-4,3.38-8.44,6.14-12.56,9.34-1.81,1.41-3.21,1.36-4.92-.08a115.81,115.81,0,0,0-33.51-20c-2.31-.88-3.11-2.53-2.66-5,1-5.85,2.18-11.71,2.74-17.61C1315,827.07,1305,814.4,1292.2,814c-.59-1.35.17-2.44.8-3.48,7.88-13,15.34-26.31,23.23-39.33,11.52-19,22.7-38.18,34.1-57.25,3-5.06,2.36-7.18-2.8-10.27-2.47-1.47-5.7-2.23-6.29-5.78,3.69-8.51,3.37-8.85-4.68-13.65q-23.1-13.77-46.28-27.42c-11.48-6.75-22.77-13.81-34.34-20.41a5.35,5.35,0,0,1-2.73-2.94c-.81-4.48.92-8.66,1.79-12.88.9-4.42.78-8.93,1.82-13.34.73-3.06-1.62-5.28-4.91-5.74-10.47-1.44-21-2.77-31.2-5.53-3.68-1-7.6-1.06-11.4-1.81-4.85-1-9.74-2.12-14.76-1.92-1.71-.41-2.27-1.8-2.73-3.26a222.5,222.5,0,0,0-38.53-72.6c-1-1.25-3.14-2.88-.2-4.51a26.14,26.14,0,0,1,6.72-.39h140.61c1.62,0,3.25,0,4.87,0,7.26-.27,12.16-5,12.62-12.21.23-3.74,0-7.49.1-11.24C1318.05,486.45,1317.88,484.76,1319.24,483.5Z"/><path class="cls-4" d="M1319.24,483.5c0,5.37,0,10.74-.12,16.1a13.19,13.19,0,0,1-13.1,13.15q-77,0-154,0c-1.38.44-2.07-.58-2.76-1.42a224.12,224.12,0,0,0-39.33-36.55A217.19,217.19,0,0,0,1064,449.06c-5.31-2.18-10.67-4.21-16.08-6.13-1.25-.44-2.73-.64-3.23-2.22-.35-3.24.66-6.57-.59-9.76-3.15-8.49,1.32-20.76,12.44-22a48.19,48.19,0,0,1,5.24-.14q86.67,0,173.35,0c2.33,0,4.77-.44,6.9,1l62.53.15c9,0,14.59,5.58,14.61,14.72Q1319.22,454.12,1319.24,483.5Z"/><path class="cls-5" d="M1255.34,875.52c.34,1.45,1.55,2.23,2.5,3.19q39,39.36,78.08,78.71c11.79,11.88,14.87,30.37,7.82,46.51-6.32,14.46-22.64,24.54-39,23.59a40.17,40.17,0,0,1-27-12.23q-32.49-32.87-65.11-65.6c-3.06-1.52-5.08-4.24-7.41-6.56-2.69-2.7-5.58-5.2-8.18-8-4.68-5-9.55-9.81-14.48-14.56-10.92-10.54-21.07-21.84-31.8-32.57a26.21,26.21,0,0,0-3.87-3.5c-3.16-2.51-5.17-6.16-8.44-8.56-4.74-5.24-9.88-10.06-14.88-15.05-2.17-2.17-3.17-4.38-1.52-7.25,2.68-4.7,6.29-8.68,9.84-12.7a316.9,316.9,0,0,1,42.13-40.25c4.9-2.81,5.65-2.73,9.53,1.48,10.73,11.62,22,22.67,33.32,33.74,9,8.5,17.4,17.53,26.14,26.26,3.27,3.41,6.68,6.68,10,10.06C1254,873.2,1255.19,874,1255.34,875.52Z"/><path class="cls-3" d="M746.24,1187.4c7,0,13.94-.05,20.91-.12,1.33,0,2.77.39,3.94-.66a2.35,2.35,0,0,1,1.55-.95c6.88-1.43,12.35-5.14,16.9-10.39,1.11-1.29,2.14-2.86,4.23-2.7q32,.12,64.05,0c2.14,0,5.86,1,5.79-2.06-.06-2.46-3.75-1.43-5.82-1.44-18.47-.1-36.95,0-55.42-.08-2.59,0-5.27.29-7.61-1.31a2.45,2.45,0,0,1-.29-1.44c2.89-15.84,1-31.83,1.57-47.74.07-2.1-.24-4.25.77-6.24,1.74-2.2,4.24-1.83,6.57-1.84,18.11,0,36.22,0,54.33,0a16.08,16.08,0,0,0,4.84-.4c.73-.23,1.43-.65,1.44-1.51s-.77-1.21-1.51-1.38a22.51,22.51,0,0,0-4.85-.28q-26.79,0-53.59,0c-2,0-4,.24-5.87-.77-1.33-1.11-1.2-2.67-1.2-4.15q-.06-20.81,0-41.6c0-4.72.87-5.23,5.38-3.53a6.78,6.78,0,0,0,2.48.82c7-.28,13.48,2.3,20.19,3.53,9.91,1.81,20,2.61,29.79,5.09,7.18,1.81,14.73,2.42,22.07,3.81,12.5,2.38,25.07,4.4,37.48,7.23,1.58.36,3.22.68,4.17,2.25.75,4,1.58,8-.6,11.92-5.95-.23-5.95-.23-5.95,5.9v158.82c0,5.44-.4,6-5.72,5.27-11.38-1.59-22.72-3.47-33.92-6.16a283.39,283.39,0,0,1-33-10.19,273.42,273.42,0,0,1-42.22-19.77A307.13,307.13,0,0,1,763.57,1203c-5.11-3.94-10-8.13-15-12.32A16.83,16.83,0,0,1,746.24,1187.4Z"/><path class="cls-6" d="M1242,409.88c-1.62.06-3.24.16-4.86.16H1059.24c-8.61,0-13.5,4.47-14.59,13.11a40.75,40.75,0,0,0-.56,7.79c-11.86,0-23.72.13-35.59.07-5.93,0-9.54-4-9.55-10.06l-.09-70a19,19,0,0,1-.31-13.85c1.49-4.26,5.39-6.25,10.15-6.23,10.73,0,21.45,0,32.18,0q37.41,0,74.83,0c2.08,0,4.28-.4,6.14,1,16,0,31.92.11,47.88.11q32.37,0,64.73-.07c5.12,1.44,7.5,4.38,7.51,9.63Q1242,375.74,1242,409.88Z"/><path class="cls-3" d="M982.45,1103.38c-5.54-.05-5.72-.09-6.85,5.45-1.72,8.41-3,16.89-1.6,25.49.45,2.76-1.64,2.68-3.13,3.25-5,1.9-10.23,2.81-15,5.56-9.72,5.65-10.92,21.42-2.12,28.62,6.18,5.06,12.78,6,20.08,3,1.27-.52,2.61-.86,3.91-1.28,8.85-2.89,6.73-2.37,11.22,4s9,12.21,15.06,16.9c2.06,1.59,1.78,3.24.78,5.25-2.49,5-5.65,9.64-6.93,15.19-1.47,6.43,1.17,11.76,5.39,15.84s9.85,6.51,16.43,4.85c7.22-1.82,11.44-6.63,14.4-13,.41-.89.9-1.75,1.39-2.61,3.49-6,3.51-6.1,10.15-4.83a92.75,92.75,0,0,0,22.3,1.41c3-.16,4.51,1.19,5,3.73a46.4,46.4,0,0,0,2.63,8.54c1,2.31.39,3.61-1.83,4.8a228.41,228.41,0,0,1-29.26,12.94,197.78,197.78,0,0,1-29.26,8.52c-7.11,1.41-14,4.21-21.25,5-10.79,1.11-21.43,3.35-32.39,3.25-6.64,0-13.31,1.68-20,1.29-7.07-.4-14.06-1.89-21.19-1.52-1.7.08-2.45-1-2.44-2.63,0-.63,0-1.25,0-1.88q0-83.17,0-166.35c1.42-1.28,3-.77,4.62-.49,15.33,2.68,30.56,5.86,46.21,8.37-2-1.94-4.43-2.87-6.54-4.23a9,9,0,0,1-2.93-2.83,1.83,1.83,0,0,1-.18-2.1,1.48,1.48,0,0,1,2-.3c2.1,1.1,4.61,1.33,6.49,2.81a97.47,97.47,0,0,0,13.94,8.6C982.19,1102.24,982.68,1102.62,982.45,1103.38Z"/><path class="cls-7" d="M982.45,1103.38c-8.11-3.1-14.25-9.76-23.1-12.54,1.07,3,3.46,4.11,5.75,5.36a18.72,18.72,0,0,1,6.81,5.37c-6.54-1.12-12.15-2.06-17.76-3-12.06-2.09-24-5-36.15-6.44,0-.24,0-.47-.07-.7q0-6,0-12c3.4-1.61,6.89-.54,10.18.1,13,2.55,26,4.84,38.94,7.18,6.58,1.18,13.42,1.53,19.53,4.72a70.18,70.18,0,0,0,11.6,7.44c10.73,5.34,20.72,11.94,31,18.05,7.68,4.56,15.32,9.19,23.15,13.51,5.88,3.25,11.42,7.11,17.41,10.17,5.13,2.62,6.78,1.64,9.82-3.12,5.24-8.18,10.14-16.57,15.34-24.76a3.51,3.51,0,0,1,2-1.59c6.18,0,12.15,1.58,18.08,2.88,6.56,1.43,13.13,2.8,19.77,3.71,7.54,1,14.8,3.41,22.39,4.28,4.45.5,4.76.47,5.82-3.81,3.3-13.32,4.84-27,7.67-40.35,4.26-20.25,7.28-40.73,11.27-61,5.1-25.92,9.15-52,14.34-78,.29-1.43.19-3,1.43-4.15,5.09,4.91,10.38,9.62,15,15-2.26.52-2.1,2.9-3.26,4.26-7.12,8.35-7.39,18.91-9.5,28.93-1.57,7.4.81,14.54.76,21.82,0,.68.34,1.49-.31,2-2.28.49-1.26-4.19-4-2.51-1.74,1.05-.72,3.25-1.29,4.88-2,5.61-.83,10.67,3.2,15.07.57.62,1.33,2.09.5,2.1-5,.09-4.25,4.23-4.54,6.82-.42,3.7-1.36,7.69.85,11.3a2,2,0,0,1-.37,2.4c-1.06,1.39-1,2.75.8,3.19,1.27.32,3.11,1,3.66-1.27.33-1.39.93-3.13,2.49-2.52s1.27,2.38.7,3.94a31.64,31.64,0,0,0-.9,4.37c-.2,1,1.14,2.39-.57,2.86-1.22.34-1.46-1.08-2.07-1.81-2-2.32-4.39-5.17-7.34-4.19-3.11,1-5.32,4.09-5.77,7.8-.15,1.23-.37,2.45-.64,3.65a3,3,0,0,0,1.26,3.27c1.14.86,1.76-.15,2.56-.69a4,4,0,0,1,5.86,1.72c.5,1,0,1.33-.74,1.7-1.61.84-3.11.09-5-.66,1.56,3.77-1.86,6.6-.88,10a1.45,1.45,0,0,1-.71,1.24c-4.39,1.21-3.08,4.76-3.14,7.66,0,2.28,0,4.5-1.63,6.35a2.88,2.88,0,0,0-.43,2.83c.21.84.78,1.94.45,2.5-2.13,3.74-.2,7.19.49,10.73.15.78.29,1.73,1,1.85,2.07.35,2.61,1.27,1.37,3-1,1.43-.94,4.31-4.29,2.82-2.35-1-4.3-.07-3.65,3a5.18,5.18,0,0,1-.66,3.9c-.55.92-.86,1.91.44,2.5,2.08.94,1.57,2.41.52,3.61-1.51,1.72-2.3,3.85-3.57,5.66-1.13,1.61-1.5,4.56-3.39,4.66-4.12.22-7.87,2.53-12.05,1.84-.46-.08-1.23-.36-1.25-.6-.27-3.53-4.38-3.4-5.78-6.16-.85-1.67-4-2.09-6.19-1.12s-2.89,2.91-2.67,5.28.14,4.75-1.61,6.68c-.52.57-.55,2-1.73,1.41a2.54,2.54,0,0,1-1.07-2.64,60.66,60.66,0,0,1,1.12-6.58c.7-2.69-.26-3.63-2.92-3.76-3.55-.18-7.47.53-9.41-4-.47-1.1-3-1.73-4.46-.94a5.2,5.2,0,0,0-3.22,4.18c-.89,7.76-1.68,9.8-5,14.46,2.41-3.82-1.25-8.29,1.64-12.08a1.34,1.34,0,0,0-.2-1.72,3.93,3.93,0,0,0-5.11-.92c-1.91,1-5.52-.28-5.5,3.65,0,1.62.09,3.25,0,4.87s-.7,3.3-2.76,3.39c-3.57.17-4.78,3-4.85,5.51s-1.27,2.9-3.06,3.16c-2,.3-3.85.62-4.35,3.21a7.13,7.13,0,0,1-8.48,5.72,8.7,8.7,0,0,1-4.38-1.91c-4.07-3.54-8.36-6.63-14.25-5.63a.75.75,0,0,1-1-.8c0-2,0-2-1.75-2.07-1.25,0-2.5-.08-3.74,0-3.29.26-6.09.1-7.15-4-.38-1.48-1.36-3.65-3.92-3.09-.17,0-.48-.21-.6-.4-2.6-4.09-6-5.4-10.83-4-1.44.41-2.49-1.63-2.82-3.06-.76-3.33-2.8-4.55-6-4.17-2.84.34-5.1-.18-6.28-3.22a3.42,3.42,0,0,0-2.6-2c-.37-.06-1-.05-1.07-.19-1.24-5.18-7.15-5.49-9.67-9.28-1.24-1.87-2.36-3.72-4.37-5s-3.68-2-4.95,1c-.89,2.09-3,1.52-4.64,1.27-1.82-.28-.57-1.7-.73-2.65-.35-2.14-1.36-4.3-4-3.6-4.09,1.07-3.91-1.72-3.54-3.93A3.1,3.1,0,0,0,982.45,1103.38Z"/><path class="cls-8" d="M1255.34,875.52a149.63,149.63,0,0,1-12.72-12.59c7.55-11.32,13.86-23.38,20.86-35,8.75-14.53,17.61-29,26.14-43.65,5.77-9.91,11.63-19.77,17.43-29.67,8.61-14.72,16.94-29.62,26.17-44,2.14-3.33,4.22-6.76,6.15-10.25.52-.92.48-2.65,2.33-2.35,1.17,2.38,3.41,3.5,5.64,4.53,5.55,2.57,7.49,6.6,3.71,12.36-7.61,11.61-14.16,23.92-21.24,35.88-9.42,15.91-18.94,31.76-28.4,47.64-3.09,5.2-6.14,10.42-9.21,15.63-3.77,6.42-7.51,12.85-11.32,19.23-5.2,8.73-10.58,17.36-15.65,26.17C1262.08,864.9,1259.29,870.56,1255.34,875.52Z"/><path class="cls-9" d="M1158.67,185.51c0-9.41,6.83-16.11,16.34-16.08,9.07,0,15.8,7,16,16.18.18,8.19-7.89,16.47-16.94,16.28C1166.84,201.73,1157.48,193.86,1158.67,185.51Z"/><path class="cls-10" d="M779.17,106.68a13.16,13.16,0,0,1-13.42-13.43c0-7.28,6.06-13.51,13.16-13.63a13.49,13.49,0,0,1,13.9,13.93C792.79,101.25,787.1,106.72,779.17,106.68Z"/><path class="cls-10" d="M291.73,1282.63c-7.91,0-13.48-5.45-13.5-13.24a13.36,13.36,0,0,1,13.55-13.8,13.77,13.77,0,0,1,13.52,13.63A13.41,13.41,0,0,1,291.73,1282.63Z"/><path class="cls-10" d="M1402.63,1158.23c-7.74-.06-13.2-5.77-13.11-13.72a13.38,13.38,0,0,1,13.32-13.34c7.26,0,13.79,6.42,13.76,13.55A13.48,13.48,0,0,1,1402.63,1158.23Z"/><path class="cls-9" d="M1143.38,1336.45c-5.51,0-10.22-4.94-10.16-10.65.06-5.51,4.76-10.32,10.1-10.33a10.5,10.5,0,1,1,.06,21Z"/><path class="cls-11" d="M324.08,113.39c0,4.19-1.89,6-6.22,5.9S312,117.45,312,113c0-3.76,2.29-6.32,5.65-6.39C321.76,106.56,324.11,109,324.08,113.39Z"/><path class="cls-12" d="M1332.35,92.24a5.57,5.57,0,0,1-.59-11.12,5.86,5.86,0,0,1,5.87,5.09A5.71,5.71,0,0,1,1332.35,92.24Z"/><path class="cls-13" d="M232,327.63c-2.73-.08-4.91-2.23-4.58-4.77s1.91-4.26,4.73-4.27c2.62,0,4.93,2.28,4.56,4.79S234.92,327.73,232,327.63Z"/><path class="cls-14" d="M591.13,873.48c-1.62-.07-3.24-.21-4.86-.21-25.57,0-51.15-.16-76.72.09-6.52.07-11.38-3.11-16.65-5.92-6.39-3.4-9.11-9.6-12.33-15.46a4.8,4.8,0,0,1-.48-1.75c-1-8-2-15.93-1.51-24,.13-2-.2-4,.06-6,.9-6.94-2-12.89-4.65-18.94a7.75,7.75,0,0,1-1.19-4.6c0-10,0-20.06,0-30.09,0-3.13,1-5.3,4.3-5.92a28.64,28.64,0,0,1,6.34-.38H668.57a29,29,0,0,1,5.59.27c2.19,0,1.37,2.47,2.76,3.31,1.76,1.07,3.27,2.77,4.16-.69a2.34,2.34,0,0,1,1.74-1.72,23.47,23.47,0,0,1,6-.37c19.86,0,39.73.53,59.56-.24,9.57-.38,19.44-.26,28.76-3.49,3.17.25,3.6,3.19,4.71,5.2a234.59,234.59,0,0,0,14.36,22.75,225.44,225.44,0,0,0,20.75,25c1.21,1.26,3.67,2.41,1.58,4.87-5.47.33-10.93.79-16.41.79H606.92c-7.19,0-7.09,0-7.22,7.14-.18,9.34.7,18.71-.8,28a68.57,68.57,0,0,1-6.77,21.3A4.36,4.36,0,0,1,591.13,873.48Z"/><path class="cls-15" d="M797.3,1112.3c0,12.84-.12,25.68-.13,38.53a58.37,58.37,0,0,1-2,17,5.4,5.4,0,0,1-2.51,5.14c-5.46,7.26-11.93,12.95-21.54,13.7-7.75,0-15.49,0-23.23-.12-1.08,0-2.85.7-2.87-1.32,0-1.44,1.34-1.5,2.5-1.65,7.88-1.08,12.09-6.36,15.87-12.83,3.63-6.19,3.95-12.59,3.94-19.4q-.12-123.24,0-246.48c0-13.33-6.73-21.46-17.48-28-4.47-2.71-8.77-2.83-13.42-2.83Q666,874,595.5,874c-1.46,0-3,.44-4.38-.49l-.09-.28c1.47-1.24,3.26-1.12,5-1.12,56.69,0,113.38-.18,170.07.1,14.62.07,26,8.28,30.75,22.52a32,32,0,0,1,1.15,9.62c.06,3.19.74,5.41,4.42,5.5a2.64,2.64,0,0,1,1.65.82c-1.18,7.24-2.41,14.48-4,21.66a67.49,67.49,0,0,0-1.67,14.45c0,33.81.54,67.62-.19,101.41-.41,19.06-.42,38.11-.62,57.16A7.23,7.23,0,0,1,797.3,1112.3Z"/><path class="cls-16" d="M351.19,810.17h42.36c1,0,2,0,3,.05a2.41,2.41,0,0,1,2.54,2.62c.08,1.73-.55,3-2.33,3.26a20.9,20.9,0,0,1-3.36.14c-27.62,0-55.24.24-82.85-.13a15.82,15.82,0,0,0-15.86,16c.35,22.84.12,45.7.12,68.56,0,1.12,0,2.24,0,3.37,0,2-1,3-3,3s-3.06-.84-3.06-2.89c0-1.25,0-2.5,0-3.75,0-23.1.26-46.21-.11-69.31-.17-10.7,9-21.44,21-21.06C323.44,810.51,337.32,810.17,351.19,810.17Z"/><path class="cls-17" d="M477.09,761.69c-2.4.51-3.15,1.85-3.12,4.42.16,11.74,0,23.47,0,35.21-.86,0-1.23-.64-1.69-1.28-4.29-6-10.57-9.14-17.05-12a8.91,8.91,0,0,0-3.33-.28q-14.79-.1-29.59-.16c3.89-1.26,7.88-.43,11.82-.5,2.47,0,3.22-.88,3.17-3.27-.13-6,0-12,0-17.93,0-1.49-.16-3,.79-4.32,1.37-1.45,3.19-1.26,4.91-1.27q14.63-.06,29.24,0C473.93,760.37,475.77,760.16,477.09,761.69Z"/><path class="cls-14" d="M681.76,762.33c0,4.59-1.3,5.68-4.13,3.42a42.54,42.54,0,0,0-3.78-2.8l1.88-1.42c-1.63-1.92-1.2-4.26-1.2-6.46q0-42.52,0-85c0-4.27-.62-8.47-.8-12.7-.1-2.2-1.17-3.12-3.28-3.14-1.5,0-3-.05-4.5-.05q-92.4,0-184.79,0c-2.46,0-5,.47-7.3-1-1.57-2.24-1.07-4.81-1.08-7.26q0-75.86,0-151.69V295.26c0-2,0-4,.14-6,.22-2.17,1.09-3.82,3.42-4.33q74.2,0,148.4-.06l220.73,0c6.5,0,8.75,2.23,8.75,8.74q0,84.64,0,169.29c0,1.65-.75,3.51.8,4.94,0,1.73-1.48,2.21-2.55,2.92a220.82,220.82,0,0,0-57.92,57.32c-.93,1.35-1.67,4.24-4.37,1.81-1-1.62-2.69-1.69-4.32-1.7q-22.44-.09-44.88,0a6,6,0,0,0-1.12.06c-1.16.23-2.83,0-2.78,1.76s1.68,1.6,2.87,1.7c2.86.24,5.73.1,8.6.1,11.72,0,23.44,0,35.16,0a16.18,16.18,0,0,1,5.19.42c2.58,1.61.74,3.25-.14,4.67a207.61,207.61,0,0,0-13.95,25.85c-1.83,4.21-3.69,8.4-5.33,12.69-.59,1.53-1.16,3.1-3.28,3H624.56a38.92,38.92,0,0,0-5.61.19c-1.15.18-2.42.44-2.45,1.84s1.38,1.59,2.42,1.89a14.71,14.71,0,0,0,4.09.36q68,0,136,0c2,0,4-.52,6-.1,1.9,1,1,2.64.58,3.93a209.55,209.55,0,0,0-9.45,44.85c-.15,1.6-.54,3.22-2.14,4.15-2.3.87-4.7.58-7.06.58q-97.08,0-194.15,0a36.34,36.34,0,0,0-5.62.19c-1.12.17-2.42.36-2.46,1.79s1.37,1.63,2.41,1.9a26.93,26.93,0,0,0,6.71.38q96.33,0,192.66,0c2.46,0,5-.46,7.32,1A14.39,14.39,0,0,1,754,653c-2,1.46-4.31,1.07-6.52,1.07q-31.66.06-63.34,0c-1.25,0-2.49,0-3.74,0-2.35,0-3.41,1.09-3.31,3.45,1.49,32.95.31,65.91.59,98.86C677.69,759.74,679.41,761.06,681.76,762.33Z"/><path class="cls-1" d="M474.07,652.85c2,0,4,.1,6,.1H670.37c4.77,0,4.66,0,4.8,4.9,1,34.55.26,69.11.56,103.67-2.24,0-4.49.12-6.74.12l-191.9,0-39-.07c-64.36,0-128.72.08-193.07-.12-17,0-30.68-7.41-41.26-20.67A51.64,51.64,0,0,1,192.16,704c1.18-16.68,8.39-30.36,22-40.49,9.88-7.33,21.05-10.52,33.14-10.6q33-.23,66,0a12.92,12.92,0,0,0,9.63-3.85c6.59-6.22,6.59-6.19,2.59-14.26a114,114,0,0,1-11.18-36.09c-.5-3.91-1.5-5.84-6.3-6.11-7.52-.42-15.17-.25-22.59-2-12.5-3-19.95-19.28-14-30.26,4.35-8.06,10.73-12.52,19.07-12.84A93.86,93.86,0,0,1,312,549.09c4.25.83,4.87.45,6-3.75,3.65-13.51,10.13-25.66,18.3-36.92,4.25-5.87,4.15-5.7-.31-11.23s-9.6-10.07-13.3-16.05c-6-9.67-2.63-21.66,5.36-28.1,10-8.07,24.3-5.83,32.71,5.54,3.69,5,8.08,9.44,12.13,14.15,1.29,1.51,2.52.54,3.65-.12a113.85,113.85,0,0,1,35.91-13.19c2.43-.49,4.87-1.3,7.3-1.29,3.14,0,3.94-1.17,4.12-4.2.47-7.66,1.2-15.32,2.23-22.93.66-4.85,3.55-8.67,7.07-12a4.69,4.69,0,0,1,4.06-1.4c1.77,1.87,1.26,4.23,1.26,6.42q.06,46.26,0,92.51V642.72c0,1.12,0,2.24,0,3.37.06,5.31.25,5.53,5.45,5.55,8.24,0,16.48,0,24.73,0C470.57,651.67,472.49,651.52,474.07,652.85Z"/><path class="cls-18" d="M753.71,652.87l0-11.29c-.46-2.26-.59-4.49.69-6.56,1.68-13.56,3.71-27,7.6-40.18,1.16-3.92,2.44-7.8,3.67-11.7a4.2,4.2,0,0,1,1.7-5.15c5.95-15.36,13-30.18,22.12-43.92a3.92,3.92,0,0,0,.31-1.07c0-1.14.35-2,1.63-2.21a262.11,262.11,0,0,1,26.47-32.35A235,235,0,0,1,855,467.83a225,225,0,0,1,186-27.88c1.18.34,2.42.51,3.63.76,12.51,4.62,25,9.21,36.85,15.46A235.73,235.73,0,0,1,1129,489.22c8.2,7.35,15.32,15.67,23,23.53,5.35,7.76,11.36,15.06,16.36,23.07a229.2,229.2,0,0,1,24.81,54,17.25,17.25,0,0,0,.71,1.66c1.29,1,1.63,2.46,2,3.91a242.76,242.76,0,0,1,7.54,44.19,224.1,224.1,0,0,1-6.65,73.06,217.21,217.21,0,0,1-36.24,75.86c-1.4,1.42-2.84,2.79-4.91,3.21a6.07,6.07,0,0,0-3.26,2.33,114.94,114.94,0,0,1-12.29,12c-9.32,7.7-17.43,16.68-26,25.18-2.07,2.06-2.87,4.92-4.45,7.3-7,5.88-15,10.23-22.9,14.83-6,3.54-12.49,6.25-18.73,9.38-4.34,1.68-8.69,3.32-13,5.12a216.41,216.41,0,0,1-62.73,13.08,218.73,218.73,0,0,1-63.13-5c-11.58-3-23.15-6.16-34.26-10.68-27.21-11.09-51.65-26.49-72.75-47-1.24-1.21-2.63-2.33-3.12-4.12-11.28-11.82-21.74-24.3-30.4-38.2-3.61-5.79-7.37-11.5-10-17.86a2.45,2.45,0,0,1,1.58-1.48,53.87,53.87,0,0,0,25.26-22,4.84,4.84,0,0,1,2.31-2.37c1.71.23,2,1.75,2.55,2.93a189.48,189.48,0,0,0,33.48,48.45,185.05,185.05,0,0,0,33.46,28,12.76,12.76,0,0,0,5.83,2.37,6.71,6.71,0,0,1,3.38,1.46,25.3,25.3,0,0,0,10.93,4.59c9.36,3.6,18.5,7.75,28.11,10.72,3.77,1.16,7.79,1.52,11.32,3.49.92,2.18,2.68,3.05,4.93,3.46,34.13,6.18,67.69,4.4,100.35-7.73a187.91,187.91,0,0,0,111.63-113.51,187.43,187.43,0,0,0,9.29-42,156.35,156.35,0,0,0,1.11-19,190,190,0,0,0-3.9-37.16,185.51,185.51,0,0,0-80.14-117.66A183.55,183.55,0,0,0,1016.61,474c-18.11-3.87-36.36-4.43-54.76-3.1-25,1.79-48.23,9.16-70.31,20.64a180.36,180.36,0,0,0-37.34,26.15c-11.09,10.28-21.31,21.34-29.73,33.94-13.49,20.2-23.15,42-28,66-1.19,5.87-2,11.78-2.81,17.71a10.65,10.65,0,0,1-.3,1.85c-.16,6.82-.75,13.62-1,20.43-.06,1.83.3,3.78-1.24,5.27-1.61.69-2.89-.21-4.15-1a56.87,56.87,0,0,0-29.11-7.89C756.43,653.92,754.87,654.13,753.71,652.87Z"/><path class="cls-17" d="M474.07,652.85c-11,0-22-.07-33,.13-3.18.06-3.95-1-3.94-4q.13-79,.08-158,0-36.7,0-73.39,0-62.54,0-125.09c0-6.44,1.17-7.62,7.59-7.61q15.75,0,31.48.07c-2.55,1.62-2.29,4.18-2.29,6.69q0,112,0,224.07Q474.05,584.28,474.07,652.85Z"/><path class="cls-19" d="M1121.85,331.93q-55.85,0-111.68.09c-2.19,0-4.47-.49-6.5,1-2.9,2.15-5.15,4.46-4.79,8.53.28,3.09,0,6.23,0,9.36-1.73.17-3.46.48-5.19.48q-19.47.06-38.95,0c-8.71,0-12.66-3.92-12.67-12.49q0-24.7,0-49.42c0-7.74,3.75-11.55,11.36-11.55l157.32,0c7.45,0,11.22,3.77,11.21,11.25C1121.94,303.48,1121.88,317.7,1121.85,331.93Z"/><path class="cls-6" d="M1341.7,698c-5,8.42-9.68,17-14.93,25.22-5.77,9.07-10.66,18.62-16.15,27.83-5,8.42-9.76,17-15,25.28-8.41,13.26-16.28,26.85-24.33,40.3s-16.39,26.72-23.61,40.65c-1.11,2.13-2.21,4.83-5.07,5.65-8.89-8.71-17.74-17.47-26.11-26.68-1.62-2.12-.52-4.38-.15-6.49,3.25-18.43,6.67-36.84,10.11-55.23,6.42-34.35,12.65-68.73,19-103.08,2-11,4-22.1,6.16-33.11.31-1.56,0-3.66,2.27-4.27q17.25,10.21,34.49,20.44,19.21,11.41,38.41,22.88c4.49,2.68,9,5.34,13.45,8.07,4.93,3,5.63,6.19,2.5,11C1342.43,697,1342.06,697.49,1341.7,698Z"/><path class="cls-20" d="M1253.92,634.07c-2.29,7.23-3,14.77-4.45,22.17q-5.28,27.39-10.28,54.84c-4.15,22.69-8.17,45.4-12.33,68.09-3.38,18.42-6.89,36.81-10.32,55.22a10.48,10.48,0,0,0,0,1.86c-3.47-2.07-5.89-5.29-8.68-8.07-8.46-8.45-16.9-16.92-25.06-25.65-2.7-2.88-5-3.66-8.23-1.31-3.25-1-4.81-4.09-7.33-6-2.33-1.78-4.31-4-7.24-4.94-.86-.27-1.1-.9-.58-1.72,19.7-27.09,33.18-56.93,39.43-89.88,6.5-34.3,5.58-68.37-3.89-102.09-.46-1.67-.72-3.39-1.08-5.09,6.7-.48,13.08,1,19.54,2.6,3.75.91,7.9.27,11.57,1.88,3.89,1.69,8.32.69,12.12,2.64a2.36,2.36,0,0,0,1.44.27c5.15-.93,9.83,2,15,1.67,3.11-.22,5.09,4.3,4.45,7.88C1256.42,617,1255.24,625.52,1253.92,634.07Z"/><path class="cls-21" d="M1125,461.48c0-6.77,5.26-11.82,12.2-11.77A11.8,11.8,0,0,1,1149,461.58a12.16,12.16,0,0,1-12.11,12.1A11.86,11.86,0,0,1,1125,461.48Z"/><path class="cls-22" d="M1220,461.57c0-7.07,5-11.94,12.1-11.87a12,12,0,0,1,11.9,11.56c.14,6.52-5.53,12.42-12,12.42A11.92,11.92,0,0,1,1220,461.57Z"/><path class="cls-23" d="M1194.7,461.37a12,12,0,1,1-24,.49,12,12,0,0,1,24-.49Z"/><path class="cls-24" d="M928.6,874.83c10.68,1.8,21.31,3.76,32.15,4.59a226.46,226.46,0,0,0,76.71-7.16c6-1.62,11.87-3.7,17.8-5.57,11.89,1.44,23.57,4.1,35.34,6.24,15,2.71,29.92,5.41,44.85,8.29,4,.77,8.1,1.23,12,2.71,3.85,2.77,6.88,6.41,10.19,9.74q18.79,18.89,37.45,37.92c1,1,1.8,2,2.69,3.07-.15,6.51-2.32,12.68-3.25,19.06-2,13.49-5.32,26.72-6.83,40.33-.63,5.68-2.58,11.45-3.63,17.25-3.1,17.07-6.88,34-9.19,51.2-.84,6.29-3.27,12.15-3.57,18.49s-2.24,12.24-3.59,18.31c-1.06,4.72-.24,9.65-2.1,14.3a20.2,20.2,0,0,0-1.84,7.79c0,2.31-2.23,2.59-4,2.13-5.75-1.51-11.74-1.6-17.5-3.2a62.59,62.59,0,0,0-16.41-2.4c-2.62,0-5.38-1.37-8.06-2.08-7.06-1.87-14.31-2.59-21.39-4.22-1.59,1.29-3.33.63-5,.31-25-4.67-50-9-75-13.83-7.95-1.52-15.91-3-23.9-4.33-2-.31-4-.42-5.65-1.71a139.26,139.26,0,0,0-14.62-3.3c-10.85-1.73-21.68-3.56-32.44-5.75a189.82,189.82,0,0,0-21.82-3.62c-8.47-2.4-17.15-3.76-25.79-5.29-4.12-.73-8.22-1.55-12.27-2.53a75,75,0,0,0-8.41-1.35c-4.49-.55-8.77-2.48-13.37-2.09-2.21.18-4.11-.91-6.16-1.36a170.61,170.61,0,0,0-21.05-3.4c-5-.45-10.29-1-15-3.23a12.78,12.78,0,0,0-6.56-1,13.34,13.34,0,0,1-8.27-1.68c-3.11-2-3.13-.38-3.12,2.08,0,15.35,0,30.69,0,46a.44.44,0,0,1-.74,0q0-24.91-.07-49.83c0-35.1.14-70.2-.1-105.29-.06-9.08,1.7-17.79,3.35-26.59.64-3.41,1.41-6.8,1.89-10.24a3.41,3.41,0,0,1,1.6-2.72c1.54-1.84,3.68-1.25,5.6-1.25,19.74-.06,39.48-.17,59.23,0a63.39,63.39,0,0,0,32.84-9,66.36,66.36,0,0,0,23.65-22.52C926.08,876.8,926.85,875.31,928.6,874.83Z"/><path class="cls-25" d="M1159.39,788.55c6.07,3,10.63,7.82,15.15,12.67a352.69,352.69,0,0,0-27.26,24.72,228.64,228.64,0,0,0-24.53,27.85c-.11,0-.28.16-.34.12-5.88-4.13-11.67-8.34-13.18-16.06a25.23,25.23,0,0,1,6.83-10.08c9.18-9,18-18.22,27.92-26.47C1149.09,797,1152.82,791.08,1159.39,788.55Z"/><path class="cls-20" d="M1109.23,837.85c2.83,6.74,8.56,11,13.52,15.94-1.34,2.59-.51,4.34,1.53,6.42,5,5.08,10.38,9.76,14.78,15.39-.87,1.8-2.42,1.43-3.89,1.18q-20.82-3.48-41.54-7.47c-7.34-1.41-14.71-2.6-22.06-4a11,11,0,0,1-3.22-.91c-1.31-.69-1.5-1.55-.43-2.62,12.22-5.93,24.33-12.06,35.54-19.81C1105.4,840.65,1107.3,839.24,1109.23,837.85Z"/><path class="cls-26" d="M1067.92,861.81c-.83,2.39,1.43,2.13,2.36,2.26,14.84,2.06,29.39,5.73,44.24,7.79,7.16,1,14.23,2.71,21.32,4.19a4.62,4.62,0,0,0,3.22-.45c3.63,1.92,5.29,5.82,8.34,8.33-5.14.56-10-1.35-14.89-2.13-10.29-1.63-20.51-3.66-30.74-5.58-11.94-2.24-23.9-4.4-35.79-6.87-3.59-.74-7.55-.18-10.72-2.66Z"/><path class="cls-1" d="M832,1136.33c9.6,0,19.2.05,28.8,0,2.68,0,5.19.77,5.12,3.53-.06,2.46-2.48,3.27-5,3.26-18.7-.06-37.41,0-56.11,0a14.13,14.13,0,0,1-3.29-.48c-1.73-.43-3.77-1-3.26-3.26a4,4,0,0,1,4.22-3c8.36,0,16.71,0,25.07,0Z"/><path class="cls-1" d="M792.63,1172.92c.84-1.72,1.67-3.43,2.51-5.14q33.65,0,67.29,0c1.82,0,3.49.58,3.6,2.47s-1.51,3-3.31,3.46a11.34,11.34,0,0,1-2.61.07q-31.64,0-63.28,0C795.41,1173.78,793.79,1174.34,792.63,1172.92Z"/><path class="cls-1" d="M797.25,1105.59h63c1,0,2,0,3,0a2.77,2.77,0,0,1,2.85,2.47,2.87,2.87,0,0,1-2.23,3.09,13.7,13.7,0,0,1-3.68.38q-29.05,0-58.11,0c-1.62,0-3.26-.2-4.75.7C797.29,1110.06,797.27,1107.83,797.25,1105.59Z"/><path class="cls-1" d="M832.49,1200.79c9.63,0,19.25,0,28.87,0,2.37,0,4.61.31,4.54,3.08-.06,2.47-2.28,3-4.44,3q-29.25,0-58.49,0c-2.33,0-4.63-.51-4.74-3.12-.12-3,2.46-2.89,4.64-2.88Z"/><path class="cls-27" d="M986.85,1092.06c8.45.57,16.65,2.69,24.95,4.19q34.07,6.16,68.12,12.39l16.47,3a260.19,260.19,0,0,1-15.65,25.52c-1.16,1.64-.5,4.16-3.41,5.1-2.41.78-4.29,1.19-6.58-.07-7.72-4.22-15-9.28-22.74-13.29-5.51-2.86-10.56-6.39-16-9.3-9.17-4.89-17.87-10.65-26.84-15.92-5.14-3-10.44-5.79-15.65-8.69A4.63,4.63,0,0,1,986.85,1092.06Z"/><path class="cls-28" d="M928.6,874.83c-11.6,20-28.76,32-51.67,35.52a72.49,72.49,0,0,1-10.84.46q-31.08.11-62.17.11c-6.53-.39-6.59-.38-6.9-7-.62-13.46-6.87-23.13-19.41-28.28a35.13,35.13,0,0,0-13.48-2.34q-84.32.11-168.61,0c-1.49,0-3,0-4.49-.07,2.11-6.1,4.72-12,6.06-18.37,1.82-8.64,1.35-17.35,1.42-26.05,0-3.49.17-7,0-10.48-.17-2.8.77-3.64,3.59-3.61,12.73.13,25.48,0,38.22,0q82.43,0,164.87,0c4.62,0,9.24-.42,13.86-.65,7.9,7.54,15.92,15,24.79,21.38a238.44,238.44,0,0,0,42.62,25.08c10.35,4.64,21.07,8.08,31.78,11.64C921.59,873.26,925.33,873.15,928.6,874.83Z"/><path class="cls-29" d="M753.71,652.87c13.26-.43,25.69,2.28,36.8,9.86,2.06.36,3.71,1.55,5.45,2.59,8.18,8.13,14.75,17.26,17,28.82,2.07,10.49,2.5,21-1.31,31.22-.43,1.17-.64,2.41-1.07,3.58-.78,1.26-1.37,2.7-2.84,3.4-6.72,11.94-16,21-29.13,25.64-4.9,2-10,2.52-15.3,3-27.18,2.63-54.4.57-81.58,1.32-5.26-.08-5.27-.08-5.27-5.23q0-44.9,0-89.79c0-3.25-.46-6.43-.69-9.65-.34-4.74-.18-4.75,4.52-4.76Z"/><path class="cls-26" d="M670.52,389H553.21c-.88,0-1.75,0-2.63,0-2-.1-3.52-1-3.5-3.08a3,3,0,0,1,3.13-3.09c1.74-.12,3.48-.32,5.21-.32q115.64,0,231.26,0a33.51,33.51,0,0,1,4.46.36,2.62,2.62,0,0,1,2.48,3.13,2.88,2.88,0,0,1-2.79,2.95c-1.12.11-2.25.06-3.37.06Z"/><path class="cls-30" d="M670.6,484.17H787.54c1.13,0,2.25,0,3.37,0a2.65,2.65,0,0,1,2.87,2.8,2.92,2.92,0,0,1-2.6,3.16,19.84,19.84,0,0,1-3,.1H552.8c-.88,0-1.76,0-2.63,0-1.87-.17-3.13-1.28-3.09-3.11a2.82,2.82,0,0,1,3.2-2.91c1.49,0,3,0,4.49,0Z"/><path class="cls-31" d="M754.37,635a15.06,15.06,0,0,1-.69,6.56q-30.91,0-61.83-.07-70.82,0-141.65,0a46.32,46.32,0,0,1-4.84-.35,2.88,2.88,0,0,1-2.87-2.9c0-1.66,1.25-2.67,2.8-3.11a8.24,8.24,0,0,1,2.23-.15Z"/><path class="cls-32" d="M767.34,578c-.57,1.71-1.13,3.43-1.7,5.14a25.67,25.67,0,0,1-6.31.65q-68.57,0-137.12,0c-1.74,0-3.48-.21-5.22-.38a2.63,2.63,0,0,1-2.57-2.7,3,3,0,0,1,2.57-3.21,14.35,14.35,0,0,1,3.35-.19q71.55,0,143.12,0C764.76,577.29,766.23,576.76,767.34,578Z"/><path class="cls-33" d="M629.65,533H550.21c-1,0-2,0-3,0a2.73,2.73,0,0,1-2.71-3,2.83,2.83,0,0,1,2.73-3,20.79,20.79,0,0,1,2.62-.06H709.49a20.9,20.9,0,0,1,3.36.15c1.69.29,2.09,1.58,2,3.09s-.55,2.49-2,2.7a25.26,25.26,0,0,1-3.37.13Z"/><path class="cls-33" d="M734.6,439.36H682.9a21.26,21.26,0,0,1-3-.07,2.65,2.65,0,0,1-2.48-2.8,2.94,2.94,0,0,1,2.31-3,14.92,14.92,0,0,1,3.35-.14h103.4a13.2,13.2,0,0,1,3.34.21,2.76,2.76,0,0,1,2.12,3.12,2.68,2.68,0,0,1-2.29,2.6,17.9,17.9,0,0,1-3.36.13Z"/><path class="cls-33" d="M592.76,439.36q-22.1,0-44.18,0c-3.52,0-5.13-1.94-3.79-4.44.84-1.56,2.32-1.64,3.88-1.63,7.11,0,14.23,0,21.34,0h65.15c1,0,2,0,3,0a3,3,0,0,1,3.16,3.36c0,2.11-1.38,2.71-3.25,2.69-2.63,0-5.25,0-7.87,0Z"/><path class="cls-34" d="M572.63,583.77c-8,0-16,0-23.93,0a19.54,19.54,0,0,1-3.34-.25c-1.63-.29-2.93-1.3-2.87-3a3.46,3.46,0,0,1,3.14-3.22,14.19,14.19,0,0,1,2.61-.07h49a18.58,18.58,0,0,1,2.24,0c1.87.24,3.5.94,3.48,3.15s-1.46,3.12-3.4,3.26c-2.11.14-4.23,0-6.35,0Z"/><path class="cls-35" d="M791.4,530.79,789.77,533,741,533c-1,0-2,.06-3,0a2.87,2.87,0,0,1-2.88-2.87,2.82,2.82,0,0,1,2.67-3.06,13.9,13.9,0,0,1,2.24-.11c15.62,0,31.25,0,46.87,0C789.78,526.84,791.61,527.54,791.4,530.79Z"/><path class="cls-36" d="M810,729.28c-.68-2.88,1.21-5.2,1.79-7.79,3.18-14.22,2.15-27.76-5-40.73-2.9-5.26-6.76-9.63-10.83-13.91a8.18,8.18,0,0,1-1-1.92,5.64,5.64,0,0,1-1.68-4.38,66.75,66.75,0,0,1,.26-12.24c.36-2.47.58-4.87-.7-7.24a5.85,5.85,0,0,1,0-4.68c0-.44.09-.89.14-1.34,2.09-1.26,2.33-3.39,2.61-5.52a179.32,179.32,0,0,1,15.09-51.17A181.23,181.23,0,0,1,836,537.91,168.24,168.24,0,0,1,850.78,522c1-.92,1.88-2.06,3.49-1.86a2.62,2.62,0,0,1,.71,1c.81,9.23.34,18.46.26,27.69,0,2-1.19,3.51-2.31,5A172.2,172.2,0,0,0,820.65,630a189.65,189.65,0,0,0-2.11,26.1c-.16,7.38,5.62,12,10.73,12,6.29.05,10.93-4.91,11.07-12.06a160.24,160.24,0,0,1,5.71-39.55A108.39,108.39,0,0,1,851.49,601c.51-1.14,1.1-2.81,2.34-2.62,1.59.24,1.45,2.12,1.48,3.45.14,6,.05,12,0,18-.14,54.69,0,109.38-.07,164.07a25.39,25.39,0,0,1-.27,6c-1.26,2.36-2.52.69-3.5-.17-2.61-2.3-5-4.81-7.43-7.34a180.25,180.25,0,0,1-33.25-49.21C810.29,731.93,809.3,730.77,810,729.28Z"/><path class="cls-37" d="M853.49,517.23c6.57-6.7,14.16-12.13,21.92-17.33a184.49,184.49,0,0,1,65.5-27.29c18.41-3.83,37.05-4.34,55.77-2.67a177.35,177.35,0,0,1,67.85,20.27,189.47,189.47,0,0,1,54.51,43,186.23,186.23,0,0,1,37,65.18,181.65,181.65,0,0,1,8.8,50.9,186.48,186.48,0,0,1-78.13,158.14,180.35,180.35,0,0,1-79.84,32.63,193,193,0,0,1-65.82-1.5c-2.25-.44-4.92-.7-4.57-4.14l.46-.4c4.43-.24,8.63,1.2,12.91,1.94a152.4,152.4,0,0,0,28.31,2.41c44.8-.81,84.84-14.93,119-44.29,31.43-27,51.39-61.09,60.08-101.63a178.36,178.36,0,0,0,3.6-30.8,180.72,180.72,0,0,0-14.35-77.35c-.29-.69-.66-1.35-1-2a111.34,111.34,0,0,0-8.29-16.74,178.61,178.61,0,0,0-24.62-33.69,170.65,170.65,0,0,0-20.24-18.72c-14.61-11.7-30.47-21.22-48.11-27.67A165.76,165.76,0,0,0,996.7,474a202.75,202.75,0,0,0-25.38-.76,180.3,180.3,0,0,0-113.54,45.29c-1,.88-1.9,2.06-3.51,1.8a1.16,1.16,0,0,0-.07-.37A2.2,2.2,0,0,1,853.49,517.23Z"/><path class="cls-38" d="M936.49,834.43c-10.88-2-21.14-6-31.3-10.24L897,820.75c-2.43-1.37-5.2-2.06-7.48-3.71-1.16-.85-2.73-1.75-.61-3.27a5.51,5.51,0,0,1,3.25-.65c12.91,1,25.84.22,38.76.44,6.37.11,7,.71,7.05,7.09,0,3.11,0,6.21,0,9.32,0,1.48.05,3-1,4.24A3,3,0,0,0,936.49,834.43Z"/><path class="cls-39" d="M853.49,517.23a4.27,4.27,0,0,1,.71,2.74,193.4,193.4,0,0,0-32.42,39.31,179.81,179.81,0,0,0-23,57.1c-1.18,5.56-2,11.19-3,16.81-.31,1.93-1,2.76-3,1.86A164.84,164.84,0,0,1,801,597a185.46,185.46,0,0,1,25-49.37A169.73,169.73,0,0,1,853.49,517.23Z"/><path class="cls-40" d="M888,814.68c2.31,3,6.6,3.12,9,6.07A23.86,23.86,0,0,1,885.83,816c-.4-.3-.74-.79-1.18-.89-12-2.69-20.22-11.43-29-19A179.11,179.11,0,0,1,821.56,757a193.83,193.83,0,0,1-12.42-22.44,19,19,0,0,0-1.37-2.18c.79-1,.3-2.87,2.18-3.06A189.1,189.1,0,0,0,836.22,772a167,167,0,0,0,18,18.86,3,3,0,0,1,1.51.47,255.66,255.66,0,0,0,21.87,16.89C881,810.47,884.82,812.05,888,814.68Z"/><path class="cls-39" d="M792.72,636.39c.3,1.81-.42,3.71,1.8,5.19,1.28.85.62,3.31.36,4.95a65.18,65.18,0,0,0,0,18.4c-2.25.83-2.87-1.58-4.38-2.21,1.13-1,.72-2.29.76-3.49.26-6.94.49-13.88.73-20.81A2.37,2.37,0,0,1,792.72,636.39Z"/><path class="cls-41" d="M1136.87,470.15a8.59,8.59,0,0,1-8.81-8.71,9.23,9.23,0,0,1,8.73-8.64c4.59-.09,9.09,4.29,9,8.76A8.61,8.61,0,0,1,1136.87,470.15Z"/><path class="cls-42" d="M1240.51,461.71c0,4.57-4.09,8.76-8.5,8.75a9.07,9.07,0,0,1-8.84-8.86,8.75,8.75,0,0,1,8.76-8.81A8.61,8.61,0,0,1,1240.51,461.71Z"/><path class="cls-42" d="M1182.77,470.16a8.67,8.67,0,0,1-9-8.59,9.51,9.51,0,0,1,8.7-8.78,9.27,9.27,0,0,1,9.11,8.66A8.65,8.65,0,0,1,1182.77,470.16Z"/><path class="cls-43" d="M1130.71,996.09a16.09,16.09,0,0,1-5.09-.52c-16.57-3.09-33.16-6.07-49.74-9.15-16.81-3.13-33.6-6.43-50.43-9.52-14.63-2.68-29.31-5.1-43.94-7.77q-25.23-4.62-50.42-9.46c-14.73-2.82-29.53-5.24-44.21-8.3-13.34-2.77-26.84-4.75-40.26-7.09-.73-.12-1.43-.42-2.16-.57-1.83-.36-3.07-1.37-2.86-3.29s1.58-2.71,3.45-2.71c4.26,0,8.35,1.2,12.45,2.06,14.57,3,29.31,5.12,43.87,8.25,7.37,1.58,14.86,2.78,22.3,4.13,15.24,2.79,30.52,5.35,45.77,8.08,6.22,1.11,12.4,2.49,18.62,3.64,15.11,2.79,30.24,5.5,45.35,8.3,12.92,2.38,25.81,4.9,38.72,7.27,16.95,3.12,33.91,6.15,50.86,9.24,2.44.44,4.85,1.21,7.3,1.41s4.58.74,4.37,3.78S1131.83,995.91,1130.71,996.09Z"/><path class="cls-43" d="M1014.46,910.69l19.18,3.48q23.41,4.27,46.83,8.58c11.07,2,22.13,4.25,33.2,6.3,9.15,1.69,18.3,3.28,27.47,4.85,2.57.44,4.52,1.65,3.87,4.39-.69,2.9-3,2.41-5.47,1.94-12.78-2.45-25.6-4.69-38.4-7.05-7-1.28-13.89-2.67-20.84-3.95q-17.91-3.3-35.84-6.52l-30-5.46c-.37-.06-.7-.29-1.06-.37-2.09-.48-3.36-1.64-3.14-3.93C1010.51,910.33,1012.55,910.82,1014.46,910.69Z"/><path class="cls-43" d="M910.91,898.39c1.68-1.57,3.24-2.93,4.69-4.4,1.26-1.3,2.83-1,4.14-.63,12.15,2.94,24.51,4.79,36.81,7,9.74,1.72,19.44,3.73,29.15,5.61,1.82.35,3.64.69,5.46,1.06a2.86,2.86,0,0,1,2.5,3.82c-.45,2.06-2.2,2.31-3.83,2.07q-7.17-1-14.29-2.35-23.35-4.37-46.7-8.81C922.94,900.62,917,899.53,910.91,898.39Z"/><path class="cls-44" d="M738.27,678.79c18.23,0,29.77,19.74,20.63,35.56-1.47,2.54-1.12,3.8.79,5.61,4.52,4.3,8.85,8.79,13.29,13.18,1.57,1.55,2.72,3.25.79,5.12s-3.6,1-5.2-.65c-4.57-4.62-9.24-9.14-13.74-13.81-1.54-1.6-2.59-1.84-4.68-.62-15.79,9.19-35.7-1.95-35.79-20.26C714.29,689.36,724.38,679.1,738.27,678.79Z"/><path class="cls-45" d="M855,791.47l-.76-.66V599c-3.55,6-5.65,12.56-7.44,19.21a157.58,157.58,0,0,0-5.3,39.43,12,12,0,0,1-24-.15c-.15-39,12-73.86,35.08-105a8,8,0,0,0,1.66-5.14c0-9,0-18,0-27,23.94-22.21,52-36.65,83.72-44a177.81,177.81,0,0,1,34.39-4.23,183,183,0,0,1,67.78,10.55c1.64.58,3.36,1,4.63,2.29,1.44,1.85,1,4,1.07,6.11.07,2.74,0,5.48.05,8.21.27,7.29,5,12.1,12.32,12.25,9.58.2,19.16.05,28.74.06,2,0,4,0,5.78,1.11,6.76,3.93,12,9.63,17.38,15.12a173.88,173.88,0,0,1,27,35.71c.3.54.5,1.13.76,1.69-1.7.76-2.85-.48-4.09-1.2q-32.47-19-64.78-38.25c-17.89-10.66-35.88-21.15-53.74-31.85-4.55-2.72-6.9-2.35-9.58,2.35-4.88,8.55-10.15,16.86-14.9,25.48-1.95,3.55-3.69,7.34-7,10-1.54-.12-2.22-1.47-3.28-2.29-6.59-5-14-7-22-4.93-8.47,2.17-13.41,8.41-14.2,17.1-.12,1.3.29,2.8-1.12,3.74-3.66.31-7.19-.66-10.71-1.38-4-.82-8.14-1.12-12.15-2.15a11.47,11.47,0,0,0-7.72.62c-.75.34-1.59.87-2.4,0-.73-3.75-2.69-5.05-7.3-4.35a67,67,0,0,1-8.95.5,13.12,13.12,0,0,1-7.2-1.6c-2.89-1.72-6.14-.51-9.19-.91-1-.13-1.18.68-.94,1.54s.94,2.09.18,2.86c-4.29,4.27-1.23,10.91-5,15.3a1,1,0,0,0-.14.73c1.15,7.31-3.08,13.18-5.33,19.57-.83,2.38-1.68,4.67-1.36,7.25a12.12,12.12,0,0,1-.75,5.15,67.27,67.27,0,0,0-3.57,20.13,8.71,8.71,0,0,1-.51,3.32c-3.14,7.6-4,15.59-4,23.73q0,74.67,0,149.34C856.11,787.21,856.69,789.56,855,791.47Z"/><path class="cls-46" d="M855,791.47c0-54.17-.12-108.35.23-162.52,0-5.59.35-11.78,3.83-16.94a4.56,4.56,0,0,0,.43-2.52,61.25,61.25,0,0,1,4.2-22.74,2.16,2.16,0,0,0,.26-1.07c-1.66-7.76,3.5-13.63,5.61-20.34.11-.35.42-.71.38-1-.67-6.15,3.11-11.51,3.09-17.54,0-2.39,0-4.79,2.57-6.13,1.4-.73.95-1.56,0-2.25a2.26,2.26,0,0,1-.69-3.28c.7-1.06,2-.7,3.11-.34a6.45,6.45,0,0,0,4.75.07,4.06,4.06,0,0,1,3.91.62c5.19,3.5,10.7,2.06,16.15,1.34,2.89-.38,5.49.9,8.26,1.16a1.27,1.27,0,0,1,.5,2.15,3.06,3.06,0,0,0-1,2.66c0,6.14-1.4,12.06-2.89,18-.82,3.26-1.21,6.6-1.76,9.88-2.2,13.38-5,26.64-7.44,40-2.75,14.94-5,30-7.81,44.92s-5.42,30.21-8.26,45.29c-.46,2.46-.87,4.92-1.2,7.39-.58,4.31.49,5.92,4.83,6.94,7.17,1.69,14.48,2.73,21.72,4,22.49,4,44.94,8.25,67.41,12.35,19.77,3.62,39.55,7.22,59.28,11.08,7.24,1.42,9,.3,10.37-6.84,3.06-15.81,5.87-31.66,8.77-47.49,2.74-15,5.71-29.89,8.38-44.86,3.18-17.81,6.66-35.57,9.63-53.41.66-3.93,1.46-7.85,2.29-11.76,1.07-5,.55-6.14-3.78-8.89-.72-.46-1.59-.82-1.42-1.94,1.53-1.27,3.27-1,5-.62,18,3.72,36.16,6.84,54.29,10,5.15.91,10.2,2.29,15.35,3.17a5.56,5.56,0,0,1,2.86,1.63c6.2,12.35,9.74,25.55,12.54,39a165.52,165.52,0,0,1,3.54,35.26,183.72,183.72,0,0,1-47.38,122.39c-29,32.09-65,51.56-107.53,58.77a178.57,178.57,0,0,1-69.46-2.2,3.81,3.81,0,0,1-1-.56c0-5.5-.15-11,0-16.47.06-2.47-.79-3.21-3.22-3.19-12.24.1-24.48,0-36.71.07-3,0-6-.88-8.93.06-5.49-1.35-9.66-5-14.17-8.07A125.47,125.47,0,0,1,855,791.47Z"/><path class="cls-47" d="M1146.14,581.57q-15.8-3.09-31.65-6c-12.4-2.25-24.77-4.61-37.2-6.68-2.9-.49-5.62-2-8.7-1.45-2,1.65-4.25,1.11-6.42.64-15.34-3.32-30.86-5.73-46.27-8.66-8.55-1.63-17.12-3.19-25.69-4.76a7.39,7.39,0,0,1-4-1.85c-1-1.52-.51-3.19-.21-4.72a20.6,20.6,0,0,0-1.68-13.81,3,3,0,0,1-.29-2.85c5.66-9.48,10.84-19.23,16.88-28.49,1.55-2.37,2.61-5.07,4.13-7.47,3.11-4.95,5.32-5.52,10.47-2.6,7.78,4.41,15.39,9.1,23.12,13.58,19.41,11.26,38.6,22.9,57.89,34.37q19.51,11.63,39,23.21c.75.45,1.56.77,2.34,1.15C1141.41,570.27,1143.84,575.89,1146.14,581.57Z"/><path class="cls-48" d="M1092.75,512.69c-11.85,0-23.7.13-35.54,0a12.86,12.86,0,0,1-12.47-12.45c-.12-5.11,0-10.22,0-15.33,6.82,1.68,13,5,19.08,8.25a194.52,194.52,0,0,1,26.28,16.85A24.94,24.94,0,0,1,1092.75,512.69Z"/><path class="cls-29" d="M720.68,702.61a17.61,17.61,0,0,1,35.22.09,18,18,0,0,1-17.7,17.62A17.77,17.77,0,0,1,720.68,702.61Z"/><path class="cls-49" d="M986.24,552.36c7.88,2.19,16,3.37,24,4.69,6,1,11.88,2.37,17.83,3.47,10.09,1.87,20.21,3.59,30.29,5.49,3.4.64,6.68,1.93,10.23,1.46.67.31,1.32.66,2,.92,4.3,1.61,5.63,3.69,4.77,8.33-2.8,15-5.79,30-8.54,45-2.26,12.33-4.24,24.72-6.44,37.06-1,5.74-2.37,11.43-3.42,17.16-2.87,15.62-5.65,31.26-8.49,46.88-1,5.5-2,11-3.19,16.46-.89,4-4.19,5.77-8.69,4.93-14.53-2.72-29-5.52-43.59-8.2-12.56-2.31-25.19-4.25-37.7-6.81-11.94-2.44-23.93-4.51-35.91-6.72q-15.95-3-31.9-5.85c-7.26-1.31-8.42-2.79-7.15-10,2.42-13.58,5.2-27.11,7.31-40.73,2-12.88,4.88-25.6,6.67-38.54.93-6.7,2.35-13.5,3.83-20.19.86-3.88,1.27-8.12,2.15-12,1.43-6.27,2.08-12.7,3.76-19,1-3.9,1.15-8.3,2.06-12.36,1.56-7,2-14.27,4.4-21.13,2.77-3.36,6.58-2.66,10-2.11,7.69,1.21,15.33,2.85,23,4.31,2.62.16,5.22.62,7.85.28,7.39,1.73,15,2.52,22.34,4.29a8.4,8.4,0,0,1,3.49,1.2c.9,2,.35,3.95,0,5.88-4.15,21.7-8.07,43.44-12.09,65.16-1.72,9.33-6.82,13.17-15.32,11.64s-13.77-8.79-12.25-17.2c1.64-9.09,3.41-18.15,5.09-27.24a11.94,11.94,0,0,0,.33-4.45,3.24,3.24,0,0,0-6.23-.88,13.16,13.16,0,0,0-1,3.6c-1.7,9.33-3.59,18.63-5.11,28-1.35,8.29,1.16,15.56,7.8,20.67s14.46,6.46,22.35,3.44c6.93-2.64,10.14-8.63,11.28-15.67,1.44-8.87,3.19-17.68,4.76-26.53,2.45-13.76,5.08-27.49,7.62-41.24C984.71,554.56,984.9,553.17,986.24,552.36Z"/><path class="cls-50" d="M986.24,552.36q-4.89,26.94-9.8,53.86c-1.25,6.84-2.3,13.73-3.92,20.48-3.23,13.46-17.15,19-30.77,12.69-7.41-3.44-14.86-13.42-11.82-26.86,2.08-9.2,3.61-18.52,5.23-27.81.55-3.11,2.05-4.85,5.23-4.48s4.25,2.54,3.81,5.38c-.93,6-2,12-3.13,18-.83,4.51-1.85,9-2.67,13.5-.93,5.1,1.89,10.74,6.66,13.61,4.52,2.72,11.09,2.57,14.83-.21,3.51-2.61,3.79-6.59,4.49-10.32,3.52-18.66,6.92-37.34,10.34-56,.81-4.4,1.55-8.8,2.32-13.2-1-1.39-.4-2.86-.23-4.32.91-7.82-1.79-11.76-9-13.24-7.58-1.53-12.3,1.3-14.36,8.64-.43,1.54-.67,3.23-2.63,3.7a6,6,0,0,1-7.23-.78c-1.91-12.58,9.93-24.07,22.55-22.19,7,1,13.3,3,17.92,8.69C988.23,538.05,988.15,545.11,986.24,552.36Z"/><path class="cls-45" d="M884.18,545.94a3,3,0,0,1-2.1,2.59c-.63.23-1.37,0-1.29-.79a2.85,2.85,0,0,1,2.05-2.41C883.65,545,883.91,545.51,884.18,545.94Z"/><path class="cls-45" d="M890.71,542.62c-.53-.08-1-.29-.9-.89a1.38,1.38,0,0,1,1.28-1.13c.52-.06,1.06,0,1.07.67C892.18,542.2,891.48,542.47,890.71,542.62Z"/><path class="cls-51" d="M950.77,545.74a8.71,8.71,0,0,0,1.72-4.06c1.43-7.16,6.58-10.53,14.32-9.45,8.23,1.16,11.8,5.23,11.15,12.85-.16,2-.6,3.92-.92,5.88C968.27,549.29,959.31,548.57,950.77,545.74Z"/><path class="cls-52" d="M910,561.41l21.56,3.92q18.12,3.31,36.26,6.63c1.27.23,2.7.33,2.52,2s-1.58,1.4-2.87,1.17q-24-4.41-48-8.77c-3.29-.6-6.57-1.31-9.87-1.87-1.21-.21-2.35-.38-2.06-1.94C907.84,561.25,909,561.46,910,561.41Z"/></g></g></svg>