<svg xmlns="http://www.w3.org/2000/svg" viewBox="0 0 2000 2000"><defs><style>.cls-1{fill:#fbfbfb;}.cls-2{fill:#2b454e;}.cls-3{fill:#375a64;}.cls-4{fill:#e0e0e0;}.cls-5{fill:#008573;}.cls-6{fill:#e7e7e7;}.cls-7{fill:#009a83;}.cls-8{fill:#00e8d1;}.cls-9{fill:#00debe;}.cls-10{fill:#1a2e35;}.cls-11{fill:#00c7ab;}.cls-12{fill:#00b298;}.cls-13{fill:#fea9a7;}.cls-14{fill:#243c45;}.cls-15{fill:#01debe;}.cls-16{fill:#fcaaa8;}.cls-17{fill:#a2f4eb;}.cls-18{fill:#00705e;}.cls-19{fill:#efefef;}.cls-20{fill:#fda9a7;}.cls-21{fill:#fca9a7;}.cls-22{fill:#f8f9f9;}.cls-23{fill:#f7f8f8;}.cls-24{fill:#f8f8f8;}.cls-25{fill:#ececec;}.cls-26{fill:#00ddcd;}.cls-27{fill:#f9fcfc;}.cls-28{fill:#fafcfc;}.cls-29{fill:#f4f4f4;}.cls-30{fill:#02debe;}.cls-31{fill:#019c86;}.cls-32{fill:#c0f3ed;}.cls-33{fill:#e1e1e1;}.cls-34{fill:#395b64;}.cls-35{fill:#3b5c66;}.cls-36{fill:#385b64;}.cls-37{fill:#496871;}.cls-38{fill:#3f6067;}.cls-39{fill:#3a5c65;}.cls-40{fill:#395c66;}.cls-41{fill:#3a5c66;}.cls-42{fill:#395b65;}.cls-43{fill:#3c5e67;}.cls-44{fill:#3a5b65;}.cls-45{fill:#406069;}.cls-46{fill:#486770;}.cls-47{fill:#496770;}.cls-48{fill:#4b6a73;}.cls-49{fill:#e3e3e3;}.cls-50{fill:#385a64;}.cls-51{fill:#02debf;}.cls-52{fill:#395c65;}.cls-53{fill:#a7b4bc;}.cls-54{fill:#f5f6f7;}.cls-55{fill:#f7f7f8;}.cls-56{fill:#029e87;}.cls-57{fill:#009b85;}.cls-58{fill:#02dfc1;}.cls-59{fill:#02dfc0;}.cls-60{fill:#009c85;}.cls-61{fill:#04a08a;}.cls-62{fill:#03e1c2;}.cls-63{fill:#03a08a;}.cls-64{fill:#03e0c1;}.cls-65{fill:#04e0c1;}.cls-66{fill:#3e5e67;}.cls-67{fill:#3f5f68;}.cls-68{fill:#3d5e67;}.cls-69{fill:#3e5f68;}.cls-70{fill:#406169;}.cls-71{fill:#3c5d66;}.cls-72{fill:#4e6b74;}.cls-73{fill:#04dfc0;}.cls-74{fill:#039e87;}.cls-75{fill:#4b676f;}.cls-76{fill:#526e75;}.cls-77{fill:#59737b;}.cls-78{fill:#4c6a72;}.cls-79{fill:#577179;}.cls-80{fill:#f9f9f9;}.cls-81{fill:#f5f6f6;}.cls-82{fill:#f4f5f5;}</style></defs><title>Asset 13</title><g id="Layer_2" data-name="Layer 2"><g id="Layer_1-2" data-name="Layer 1"><path class="cls-1" d="M.09.09Q997.76.09,1995.41,0c3.75,0,4.59.84,4.59,4.59q-.15,995.42,0,1990.82c0,3.75-.84,4.59-4.59,4.59q-995.42-.15-1990.82,0c-3.75,0-4.59-.84-4.59-4.59Q.15,997.74.09.09Z" transform="translate(0 0)"/><path class="cls-2" d="M1281.81,108.1c1.81,4.23,2,8.72,2,13.21q0,81.33,0,162.67c-.48,2.84-2.86,4-5,5.23-7,4.23-14.11,8.15-21.19,12.19-6.63,3.78-8.08,2.9-8.09-4.67q-.08-46.64,0-93.29,0-16.22,0-32.42c0-2,.19-4-.58-5.91-2.48-4.76-4.5-5.51-9.59-2.76-8.34,4.53-16.54,9.33-24.75,14.09Q1078.46,255.45,942,334,805.93,412.64,669.74,491.14q-63.59,36.79-127.24,73.49C478.11,601.7,413.85,639,349.4,676c-3.61,2.07-7.13,4.31-10.76,6.34-7.64,4.25-11.39,10.94-12.11,19.49-.14,1.66-.07,3.33-.07,5q0,350.91,0,701.82a35.41,35.41,0,0,0,.39,8c.94,4.12,3.27,5.52,7.36,4.4a30.54,30.54,0,0,0,7.15-3.54c35.52-20.77,71.26-41.16,106.91-61.71,1.82-1,3.52-2.68,6-1.88,1.59,2,1.19,4.44,1.19,6.73,0,28.79-.08,57.58.11,86.37,0,5.13-1.69,8.26-6.13,10.82q-46.08,26.54-92.13,53.09c-14.14,8.12-28.18,16.41-42.36,24.48-3.74,2.13-7.37,4.59-11.87,4.94-7.38-.77-11.05-4.62-11.37-11.94-.09-2.16,0-4.33,0-6.5q0-414.39-.11-828.8c0-17.4,7.33-29.5,22.1-37.85,25.5-14.44,50.75-29.33,76.18-43.89,40.05-22.92,79.92-46.15,119.88-69.21q37.65-21.72,75.28-43.46c26.65-15.48,53.44-30.72,80.12-46.15,33.3-19.27,66.54-38.64,99.93-57.74,32.24-18.45,64.34-37.13,96.5-55.72s64.1-36.87,96-55.51c27.34-16,54.84-31.64,82.26-47.44q43.93-25.31,87.82-50.71c35.47-20.52,71-40.83,106.46-61.44,9.79-5.7,19.56-11.44,29.45-17a24.88,24.88,0,0,1,5.92-2.63C1274.34,103.08,1278.75,103.36,1281.81,108.1Z" transform="translate(0 0)"/><path class="cls-3" d="M1281.81,108.1c-6.45-4.74-12.29-3-18.71.77-23.06,13.55-46.42,26.59-69.56,40-23.41,13.55-46.65,27.38-70.07,40.91-19.71,11.38-39.61,22.43-59.34,33.77-20,11.5-39.92,23.2-59.91,34.75Q970.16,278,936,297.56q-31.71,18.3-63.4,36.69-39.2,22.63-78.44,45.23c-24.29,14.06-48.47,28.31-72.79,42.32-15.69,9.05-31.77,17.42-47.25,26.81-20.73,12.59-42,24.28-62.87,36.55-21.47,12.6-43.21,24.74-64.78,37.17-19.29,11.11-38.48,22.38-57.74,33.53-21,12.14-42,24.19-63,36.33-17.83,10.31-35.6,20.72-53.43,31-14.38,8.32-28.83,16.51-43.21,24.82-7.61,4.4-15.7,8.23-22.58,13.59-8.21,6.4-13.43,15.25-13.43,26.16q-.07,177.22,0,354.46,0,242.48,0,485c0,7.85,2.89,11.19,10.2,11.86-1.44,3.29-4.67,3-7.28,3.16-18.75,1.08-30.71-6.81-36.62-26.21a48.49,48.49,0,0,1-1.84-14.33c.05-17,0-34,0-51,0-2.67-.11-5.36,1.48-7.73.06-2.16.17-4.32.17-6.48q0-380.37,0-760.74c0-17,6.8-29.47,21.76-38.09q218.73-126.06,437.3-252.41l401.4-231.74c36.88-21.29,73.81-42.48,110.61-63.9a41.43,41.43,0,0,1,25.88-5.44C1268.41,85.4,1278.18,94.62,1281.81,108.1Z" transform="translate(0 0)"/><path class="cls-4" d="M259,1443q.11,30.39.2,60.78a42.54,42.54,0,0,0,4,18.81c7.67,15.73,23.13,22.12,40,16.51,3.1-.22,5.67-1.82,8.25-3.3q69.48-40.1,139-80.22c2-1.16,3.81-2,3.79-5.07-.2-32.1-.21-64.21-.27-96.31-1.48-1.41-1.45-3.29-1.55-5.11-.12-2-.06-4-.06-6q0-256,0-512c0-3.16-.28-6.34.49-9.44.52-1.7,1.84-2.77,3.38-2,7.3,3.79,15.25,6.62,20.79,13.21.85,3.12.54,6.3.54,9.46q0,333.45,0,666.92c0,2.66-.12,5.34.11,8,.74,8.51,7.81,13,15.73,9.62,6.91-2.92,13.19-7.13,19.64-10.91,29-17,58.45-33.34,87.44-50.43,23.25-13.7,46.66-27.12,70-40.59,12-6.88,23.72-14.18,36.13-20.28,2.19-.46,3.82.84,5.53,1.83,21.48,12.42,43,24.74,64.36,37.44a109.06,109.06,0,0,0,47.2,14.87c25.8,2.25,49.25-3.82,71.51-17,41.1-24.4,82.7-48,124.1-71.89,5.62-3.25,11.42-6.21,16.44-10.42,8.33-7,13.62-15.33,12.89-26.76-.48-7.64.41-15.32-.51-23a2.81,2.81,0,0,1,.87-2.72c5.88,3.14,11.52,6.61,16,11.63,8.8,9.77,10.69,23.07,4.68,34.18-4.06,7.51-11,13.13-18.6,17.49-13.39,7.63-26.64,15.52-40,23.19-14.66,8.4-29.44,16.58-44.08,25-20.13,11.6-40.1,23.5-60.3,35-15.23,8.68-30.38,17.79-48,21-8.86,1.62-18,4-26.77,3.06s-17.55-2.33-26.28-3.89c-16.61-3-29.89-12.34-44-20.38-8.32-4.76-16.76-9.33-25.15-14a1.88,1.88,0,0,1-.45-.22c-7.87-8.62-14.91-3.93-22.66.75-18.17,11-36.7,21.38-55.1,32q-18.33,10.56-36.71,21c-15,8.5-30.19,16.57-44.88,25.51-14.3,8.72-28.8,17.09-43.25,25.55-15.6,9.13-31.42,17.88-47.08,26.91-14.09,8.12-27.95,16.66-42.2,24.5C432.12,1602,420,1608.93,408,1615.86c-9.6,5.51-19.31,11-28.6,17.07-8,5.27-16.74,10-26.37,10.78-10.33.86-19.52-3.86-28.37-9-14.66-8.45-29.48-16.67-44-25.37-16.17-9.72-32.94-18.36-48.79-28.68-12.43-8.08-26.21-14.06-38.79-21.93-16.16-10.12-33.11-18.84-49.27-28.93-10.78-6.73-7.57-16.1-.11-20.61,14.22-8.57,28.64-16.82,43-25.11,14.09-8.13,28.45-15.77,42.27-24.37C238.73,1453.7,249,1448.52,259,1443Z" transform="translate(0 0)"/><path class="cls-2" d="M1586.09,1245l-.08-6a5.94,5.94,0,0,1,2.86-1.88c4.2-1.2,5.23-3.62,2.19-6.35-3.24-2.92-4.89-5.21-.85-8.65.83-.72.94-2.31.86-3.69-2.51,4.52-3.08,4.67-6,1.59l-.27-9.76c-1.1-4.71.39-9.54-.7-14.25q-.16-6.83-.32-13.66c-.94-5.08.23-10.24-.65-15.32l-.35-17.67c-1-6.75.26-13.57-.66-20.33q-.14-13.44-.26-26.88c-.84-2.94-.39-5.94-.4-8.91q-.07-25.48,0-51c0-1.81-.39-3.67.39-5.43q.12-6.9.23-13.8c2.08-.91,3.9.13,5.74.83,26.46,10,53.87,14.88,82.1,13.55,22.1-1,43.53-5.54,62.84-17.26a110.05,110.05,0,0,0,9.2-6.83c1.42-1.08,2.61-2.67,4.74-2.28l1.32,29.71a76.22,76.22,0,0,1,0,16.54c.22,15.37-1.47,30.66-2.21,46-.44,9.34-.84,18.72-1.85,28-1.54,14.34-2,28.77-3.87,43.09-1.44,11-1.87,22.07-2.3,33.13-.2,5.16,2.42,9.94,3.6,14.94a337.81,337.81,0,0,1,7.88,46.2c1.89,1.75,2,4.11,2.14,6.43.66,13.31-.76,26.55-1.34,39.81-.39,8.61-1.34,17.21-1.88,25.82-2.24,20.41-4.32,40.84-6.77,61.22-.4,3.29-.61,6.6-1.8,9.74-7.58,7.55-21.77,8-31.29.93-2.27-2.75-2-6.25-2.73-9.46-1.36-6.34-2.63-12.7-3.88-19.06a114,114,0,0,0-2-11.61c-17.56-92.1-30.28-184.73-29.79-278.81-3.55,26-6.41,51.91-8.93,77.87a3.65,3.65,0,0,1-1,1.61c-1.06.86-3.19-1.6-3.74,1.76-.53,3.21,2.15,2.77,3.11,4.16.1.13.18.28.28.41.71,2,.8,3.92-.65,5.65-4.67,2.26-4.82,3.34-1.06,7.48a1.76,1.76,0,0,1,.28,1.28c-2.16,1.57-2.09,3.39-.6,5.38a3.93,3.93,0,0,1-.15,2.68c-2.14,2.66-2.65,5.46-.72,8.47a4.6,4.6,0,0,1-.32,3.47c-1.49,1.66-3.77,2-5.52,3.29-3.89,2.85-4.21,4.95-1.13,8.6.86,1,1.93,1.84,2.73,2.91,1,1.33,1.44,2.78-.12,3.92-3.56,2.61-2.23,7.23-5.67,10.86,3.73-1.47,2.84-8,8-4.61-.28,5.93.5,12-1.91,17.64-5.79,1.66-4.5,6.6-4.93,10.74-.06.59,0,.69.25.73,5.19.78,6.61,5.57,9.45,8.85a5.64,5.64,0,0,1,.4,2.1,9.14,9.14,0,0,1-1.25,3.7c-2.23,4.84-2,5.47,2.61,8.16a6.11,6.11,0,0,1,1.45,5.57c-.3.58.25-.08-.15.44-1.63,2.09-2.3,3.93,1.08,4.92a9.84,9.84,0,0,1,0,6.58c-.5,1.07-3.92,1.71-.46,3.4a3.93,3.93,0,0,1,1.83,2.74,110.91,110.91,0,0,1-.06,21.17c-.24.58-.43,1.27-1.06,1.53-1.53.62-3.7.33-3.84,2.82-.12,2.27,2.44,1.75,3.23,3.08a3.05,3.05,0,0,1,.14,2.73c-1.06,1.73-2.91,1.93-5,2.34,1.9.8,4-.67,5.09,1.33.63,2.89-.08,5.62-1,8.32a11.56,11.56,0,0,0-3.15,13.71c1,2.31,2,4.54,2,7.11.11,4.53-.85,9-1.43,13.4-2.21,2.2-2.18,4.67-.83,7.3a7.22,7.22,0,0,1-.45,3.53c-3,2.65-4.75,5.63-3.65,10,.61,2.43-1,4.4-2.92,6-1.28,1-2.84,2.2-2.13,4.1.88,2.34,2.84.75,4.34.86a1.57,1.57,0,0,1,1.24.69,7.8,7.8,0,0,1,.3,5.83c-1,2.06-5,3.65-1,6.53,1,3.92-.46,7.64-.93,11.44-3.44,3.46-6.2,7.06-2.23,11.92a3.8,3.8,0,0,1-.18,2.79,3.26,3.26,0,0,1-1.88,1.53c-4.19.86-6.39,3.23-6.06,7.65-6.81,3.33-13.78,3.18-20.85,1-2.38-1.92-.65-3.39.51-5,.66-.91,1.57-2.19-.05-2.81-1.38-.52-2,.78-2.19,2-.25,1.64-.29,3.35-2.21,4.07a6.55,6.55,0,0,1-5.34-2.55,6.75,6.75,0,0,1-.24-5.2c2.15-1.88.52-3-.88-4.14a4.9,4.9,0,0,1,.08-4.2,2.2,2.2,0,0,1,1.62-1c1.44-.14,3.53.86,3.2-2.12-.27-2.37-1.36-3.14-3.62-2.46a2.6,2.6,0,0,1-1.89-.39c-2.55-3.39-1.85-7.4-2.11-11.22,6.34-3.09,6.32-3.07,1.83-9.17-.88-1.18-1.52-2.53-2.77-3.4a2.92,2.92,0,0,1-.88-2.56c4-3.54,3.29-4.78-.73-6.69-2-2.65-1.44-5.74-1.51-8.72,4.92-3.58,1.19-8.74,2.24-13.07.4-1.61-2.7-.25-3.49-1.73a9,9,0,0,1-1.12-8,1.45,1.45,0,0,1,.22-.43c5-4.38,5-4.38-.94-7.3a4.78,4.78,0,0,1-1-4.79c.85-1.74,3.23-1.69,4.14-3.52-.67-1.84-2.8-1.48-4-2.56-.31-3.07-.4-6.18-1.47-9.13,2.12-2.78,4.09-5.55-.54-7.86q-1.23-10.59-2.45-21.17c.43-2.57,1.89-4,4.68-3.84-.53-1.88-1.88-2.73-2.65-4s-1.5-2.85-.21-4.11c4.54-4.46,1.75-10.22,2.71-15.3.28-1.49-1.44-2.91-3.45-2.85-1.48.05-3,.4-4.22-.88a48,48,0,0,1-1.91-15c.37-.41,1.39-.29,1.17-1-.15-.53-1-.52-1.53-.86-1.32-3.93-.83-8.1-1.59-12.1,4.11-3.15,3.23-7.23,1.79-11.14-1.52-4.13-1.77-7.94,1.33-11.69A3.7,3.7,0,0,1,1586.09,1245Z" transform="translate(0 0)"/><path class="cls-5" d="M1406.81,245.06c.08.58.17,1.16.25,1.74.87,11.94.17,23.89.38,35.84.06,3.49,0,7,0,10.46.54,3.57-2.07,4.94-4.54,6.38-14.82,8.64-29.73,17.11-44.57,25.71-32.71,18.95-65.31,38.1-98.09,56.91q-74.31,42.66-148.49,85.53-55.2,31.78-110.33,63.69-68.61,39.52-137.21,79.08-55.83,32.21-111.63,64.44c-13,7.5-25.84,15.19-39.09,22.19q-59,33.66-117.72,67.74-56.24,32.44-112.5,64.83c-2.13,1.22-4.7,4-7.24.25-1.21-11.45-.33-22.93-.52-34.39-.11-6.14-.58-12.34,1.62-18.28,2.4-4.18,6.21-7,10.22-9.26,21.1-11.73,41.82-24.11,62.83-36,19.55-11.08,38.86-22.61,58.37-33.75,24.87-14.2,49.63-28.58,74.44-42.87q41.32-23.81,82.58-47.75c27.38-15.85,54.87-31.49,82.26-47.33q43-24.87,86.09-49.68c19.89-11.5,39.86-22.84,59.72-34.38,22.74-13.22,45.62-26.21,68.36-39.43q42.54-24.75,85.22-49.22c39.81-22.95,79.71-45.75,119.47-68.78,35.72-20.7,71.66-41,107.22-62,7.72-4.56,15.52-9.06,23.49-13.2C1402.07,241.08,1403.84,241.44,1406.81,245.06Z" transform="translate(0 0)"/><path class="cls-4" d="M1649,1463c-.06-1-.12-2-.19-3-.4-3.86-1-7.75,2-11-.37-4.39,2.08-8.56,1.06-13-1.44-2-.33-3.52,1-5,.91-2.29-.14-4.66.27-7-.59-7.2-.81-14.35,2.75-21l.23-3.65c1-2-1.23-4.46.78-6.37-.57-4.93,1.94-9.61,1.23-14.56.69-2,.31-3.82-.19-5.77s-.6-4.23,1.36-5.82c4,2,8.37,1.82,12.62,2.16,9.8.76,19.4,2.92,29.17,3.82A33.75,33.75,0,0,1,1703,1384c-2.42.85-4.16-.72-5.94-1.81a32.9,32.9,0,0,0-10.6-4.23c-8.3-1.75-14.49,4-13.57,12.36a38.87,38.87,0,0,0,9.56,21.56c9.46,10.94,18.91,21.84,27.12,33.8,5.25,7.67,16.27,10.4,25.06,7.44,3.93-1.32,4-5.52,6.69-7.66,2.35-.58,4.16.84,6.13,1.66,15.78,6.56,32,10.28,49.2,7.45a42.94,42.94,0,0,0,15.35-5.73c1.8-1.09,3.51-2.68,5.94-2a64.45,64.45,0,0,1,6.17,20.73c3.19,24.33-6.5,43.52-22.93,60.36a141.13,141.13,0,0,1-41.53,29.48,256.59,256.59,0,0,1-67.75,20.65c-17.74,2.87-35.55,3.78-53.49,4-25.82.34-51-3.44-76-9.39-15.54-3.69-30.3-9.47-44.6-16.19a131.49,131.49,0,0,1-38-26.58c-15.27-15.54-26.08-33.39-24.86-56.56a71.85,71.85,0,0,1,18.43-45.37,140.22,140.22,0,0,1,40.53-31.75,223.71,223.71,0,0,1,39.1-15.72c12.38-3.7,25.15-5.39,37.56-8.79a67.32,67.32,0,0,1,9.31-1.81,1.45,1.45,0,0,1,.34,2c-.71,1.86.59,3.34,1,5a7.55,7.55,0,0,1,.92,7c-.09,3.06-.41,6.13,1,9,1.78,4.56,3.4,9.13,1.07,14,1.66,2.84-.14,6.27,1.58,9.1,2.17,2.17,2,4.5.42,6.9l.92,2c1.75,4.22,3.3,8.45,1.08,13l1.92,11a5.57,5.57,0,0,1,.47,6.12c.2,1.62.41,3.25.61,4.88a2.82,2.82,0,0,1,.45,3.11c.17,2,.34,3.89.52,5.84,2.19,3.61,1.43,7.46.88,11.28-.87,2.52-3,3.93-5,5.44-13,9.77-27.8,15.71-43,20.86a189.9,189.9,0,0,0-29.31,12.69c-3.77,2-8.43,4-8.5,9-.07,5.18,4.61,7.33,8.48,9.6,12.64,7.44,26.32,7.34,40.24,5.46a70,70,0,0,0,22.77-7.1c10.47-5.35,21.36-9.25,33.47-8.65a37.85,37.85,0,0,0,12.78-2.06c5.71-1.72,7.23-4.23,7.65-10.18.83-11.72-2.66-22.75-5-34-.27-4.39-.08-8.78-.08-13.17A6.74,6.74,0,0,1,1649,1463Z" transform="translate(0 0)"/><path class="cls-3" d="M1746.72,1011.05c-16.81,16.07-37.72,22.65-60,26a154.66,154.66,0,0,1-22.23,2,209.13,209.13,0,0,1-82.34-16q-.07-35.1-.15-70.22c0-12.79-.07-25.57-.19-38.36,0-1.39.68-3-.73-4.18.48-5.29,4.52-8.63,7.19-12.63,7.66-11.45,15.64-22.69,23-34.3,4.83-7.6,5.77-16.54,7.29-25.2a64,64,0,0,0-5.53-39.76c-.5-1-1-2.13-.09-3.24,3.84-1,7.64-2.35,11.54-2.73,3.63-.36,5.06-2.32,6.28-5.24,1.72-4.11,3.65-8.14,5.58-12.16,1.11-2.29,2.53-4.34,5.53-4.24,3.06,6.89,9.07,6.83,15.33,6.89a76.7,76.7,0,0,0,23.52-3.6c5.14-1.58,10-3.64,12.41-9,5.71-.08,6.43,4.61,7.48,8.44.89,3.23,2.07,4.33,5.48,3.58,4.56-1,9.25-.39,13.88,0,13.42,1.72,29.89,15.24,30.48,36.79a640.16,640.16,0,0,1-1.78,69.67c-1.15,14.07-2,28.17-3.3,42.24-.16,1.82,0,3.67-.7,5.42-1.77.94-1.54,2.66-1.86,4.28-3,14.89,1.17,29.35,2.69,44,.85,8.07,2,16.12,3.31,24.12C1749.31,1006.58,1746.84,1008.41,1746.72,1011.05Z" transform="translate(0 0)"/><path class="cls-3" d="M1049.07,1307c2,10.57,1.62,21.29.81,31.85-.85,11.14-8.21,18.79-17.18,24.47-11.1,7-22.6,13.4-34,20-36.42,21.09-72.51,42.78-109.4,63-36.66,20.12-74.26,19.89-111.08-.12-22.35-12.15-44.1-25.43-66.09-38.24-1.39-.81-3.1-1.28-3.93-2.89,1.12-3.06,4.4-3.44,6.5-5.28,28.26-15.94,56.28-32.28,84.39-48.48q71.34-41.12,142.69-82.22,13.41-7.72,26.81-15.46c2.73-1.57,5.17-1.75,7.94-.11,8.73,5.16,17.58,10.14,26.25,15.41,1.28.78,2.63,1.48,3.23,3,7,5,14.8,8.67,22.16,13.07C1037.24,1290.36,1044.78,1297.09,1049.07,1307Z" transform="translate(0 0)"/><path class="cls-6" d="M713,696q46.37-26.61,92.73-53.23Q889.66,594.43,973.5,546L1165,435.58q80.2-46.24,160.39-92.51c20.6-11.9,41.05-24.05,61.67-35.91,6.72-3.87,13.58-7.49,20-11.84a.7.7,0,0,1,.73-.54c0,3.8.16,7.6.16,11.4q0,222.71,0,445.42c0,2.2-1,4.71,1.22,6.56-2.78,4.5-7.81,5.74-12,8.06-2.77,1.52-5.4,4-9.09,3-1.43-1.26-1.27-3-1.36-4.64-.2-3.66-.23-7.32-.23-11q0-207.73,0-415.46c0-9.77-.08-9.89-8.3-5.07-24.86,14.57-49.86,28.91-74.79,43.37-32.56,18.89-65.26,37.55-97.84,56.41Q1151.3,464.27,1097,495.6c-43,24.78-86.1,49.43-129,74.35-27.08,15.72-54.27,31.27-81.34,47-32.82,19.1-65.87,37.85-98.73,56.89-17.14,9.94-34.48,19.56-51.45,29.82-4.43,2.67-6,6-6,11q.12,324.46.07,648.94c0,.83,0,1.66,0,2.49.34,4.74,1.48,5.44,5.49,3.07,17.06-10.09,34.34-19.8,51.5-29.71q46.31-26.76,92.71-53.34c10.13-5.79,20-11.93,30.21-17.65,9.76-5.48,10.68-5.37,17.6,3.54,1,3.19-1.63,4-3.54,5.1-19.63,11.57-39.51,22.7-59.27,34-24.51,14.08-48.79,28.58-73.39,42.5-22.28,12.61-44.5,25.32-66.48,38.44a36,36,0,0,1-6.27,3.06c-2,.72-3.62.4-4.27-2-.74-3.47-.46-7-.46-10.47q0-333.45.06-666.88C714.42,709.18,713.48,702.63,713,696Z" transform="translate(0 0)"/><path class="cls-7" d="M1406.81,245.06c-2.71-2.61-5.57-2.38-8.65-.61q-21.08,12.15-42.21,24.24-19.2,11-38.38,22.09c-19.55,11.29-39.07,22.66-58.64,33.91-20.86,12-41.8,23.85-62.66,35.84-16.53,9.49-33,19.1-49.49,28.64q-32.31,18.68-64.63,37.31c-24.27,14.08-48.44,28.33-72.77,42.32-20.85,12-41.91,23.59-62.76,35.58-17.4,10-34.57,20.44-52,30.49-24.26,14-48.65,27.86-72.94,41.84-19.72,11.35-39.36,22.81-59.06,34.19q-31.21,18.06-62.48,36-35.28,20.37-70.55,40.73c-23.32,13.41-46.7,26.71-70,40.1q-26.79,15.38-53.53,30.83c-9.55,5.5-19.18,10.86-28.05,17.46-1.47,1.17-2.92.42-4.14-.31-5.8-3.48-11.93-6.42-17.21-10.73-.74-2.37.91-3.73,2.26-5.16a32.09,32.09,0,0,1,7.64-5.59q74.63-43.17,149.37-86.14,62.1-35.88,124.27-71.64,60.19-34.66,120.4-69.34Q915.8,495.28,971,463.47q65-37.44,129.9-74.88,59.13-34,118.17-68.21c7.64-4.43,15.19-9,23-13.09,5.2-2.69,6.71-6.28,6.68-12-.22-41.33-.14-82.66-.06-124,0-2.42-1.17-5.35,1.75-7.14.84,1.92.43,3.95.43,5.92q0,63.9,0,127.81c0,5.34.12,5.49,4.74,2.75,9.38-5.57,19.3-10.25,28.15-16.71,4.08-.65,7.11-3.42,10.5-5.36q40.37-23.07,80.58-46.42A21.9,21.9,0,0,1,1406.81,245.06Z" transform="translate(0 0)"/><path class="cls-8" d="M647.18,1646.94c-2.46-31.71,11.45-55.92,35.09-75.34,28.28-23.23,61.58-35.33,96.92-42.7a321.21,321.21,0,0,1,84.36-5.87c44.42,2.58,86.94,12.34,125.55,35.68,8.41,5.08,15.88,11.4,23.65,17.33,4.46,3,7.76,7.14,11,11.29,2.57,3.26,5,6.64,7.61,9.87,10.73,16,13.59,33.79,11.44,52.62-2.32,5.69-3.64,11.73-6.35,17.28-10.13,20.76-26.46,35.7-45.58,47.75-24.81,15.62-52.17,24.67-80.72,30.73-29.42,6.24-59.16,6.24-88.94,5.61a130.74,130.74,0,0,1-23.26-2.65c-23.6-3.48-46.67-9-68.73-18.29-22.27-9.38-42.79-21.45-59.53-39.24-9.72-10.33-16.94-22.1-20.91-35.82C648,1652.45,648.62,1649.5,647.18,1646.94Z" transform="translate(0 0)"/><path class="cls-4" d="M716,1395c8.43-2.47,15.12-8.2,22.67-12.3,14.41-7.82,28.5-16.26,42.73-24.42s28.28-16,42.32-24.2c20.08-11.69,40-23.64,60.12-35.3,13.78-8,27.72-15.7,41.6-23.51A4.77,4.77,0,0,0,928,1273c-.15-2.46,2-2.79,3.48-3.66,13.56-8.09,27.37-15.74,40.85-24,12.75-7.8,25.85-15.13,38.89-22.49,11.6-6.55,23-13.44,34.71-19.81,15.93-8.7,31.34-18.26,47.23-27,13.39-7.38,26.32-15.67,39.7-23.1,19.51-10.83,38.57-22.44,58-33.46q35.42-20.1,70.7-40.42,40.46-23.29,80.87-46.69c14.56-8.41,29.06-16.92,43.59-25.36,10.46-6.09,15.5-16,15.57-27.92.2-33.83.06-67.66.09-101.49,0-2.46-.46-5,.9-7.34,3.22-.8,5,.57,5.48,3.72-2,3.19.11,6.4,0,9.62-.45,9.29-1.3,18.85-.22,27.85,1.82,15.17.49,30.23,1.16,45.31.25,5.65-.09,11.33.07,17,.39,13.93-4,25.94-14.06,35.7a24.16,24.16,0,0,1-5,3.22q-15.24,8.85-30.5,17.65-17,9.86-34,19.76c-3,1.74-5.94,3.55-9,5.19-3.74,2-2.85,3.8,0,5.79,3.67,2.54,8.14,3.68,11.31,7.18,5.37,6,4.74,13.33-1.93,17.86-11.7,8-24.42,14.16-36.6,21.29-19.62,11.5-39,23.44-59,34.25-10,5.45-19.89,11.33-29.7,17.09-26.13,15.35-52.37,30.52-78.54,45.8-9.88,5.76-19.45,12.1-29.57,17.37-17.36,9-33.58,20-50.91,29.06-12.15,6.37-23.67,13.94-35.47,21-9.06-5.2-18.37-10-27.11-15.72-4.78-3.11-8.22-2.57-12.88.12q-118.24,68.48-236.68,136.62c-4.74,2.73-9.58,5.26-14.38,7.89C712.43,1398.33,712.84,1396.4,716,1395Z" transform="translate(0 0)"/><path class="cls-4" d="M1041.83,1650c1.61-18.88-1.48-36.72-11.78-53,2.33-3.76,6.36-4.66,10.14-6,4.27.91,8-.2,12-2,29.69-14,59.81-27,89.79-40.27,31.81-14.12,63.76-27.91,95.41-42.39,9.24-4.22,18.44-8.51,27.69-12.71,2.4-1.1,4.83-3.26,7.89-1.6,15.08,10.83,22.3,25.77,23,44.08.37,9.2-3.9,15.23-12.27,19.05-19.86,9-39.36,18.93-59.44,27.45-15,6.35-29.49,13.62-44.63,19.6-9.33,3.69-18.43,8.31-27.64,12.39-6.73,3-13.56,6-20.49,8.64-7.23,2.77-14.08,6.6-21.25,9.68-13.53,5.8-26.84,12.14-40.4,17.88-9.44,4-18.4,8.94-27.71,13.18C1038.77,1659.38,1041.25,1654.65,1041.83,1650Z" transform="translate(0 0)"/><path class="cls-9" d="M1273,1492c-11.83,4.21-22.87,10.21-34.34,15.26q-73.21,32.28-146.3,64.84c-14,6.25-28,12.7-41.92,19.24-3.4,1.6-6.5,2.35-9.81.16-.45-1,.34-1.5.93-2,4.7-4.12,5.39-8.08,2.5-14.54-2.72-6.06-6.53-8.29-12.82-7.46-1,.14-2,.3-2.66-.74.31-2.74,2-4.48,4.23-5.8,58.73-35.47,116.25-72.9,174.67-108.88,15.37-9.47,31-18.58,46.43-27.93,9.31-5.63,14.33-6.82,25.36,1.94,13.06,10.36,20.1,24.47,19.72,41.56-.16,7-2.87,12.64-9.77,15.94C1283.69,1486.2,1278,1488.43,1273,1492Z" transform="translate(0 0)"/><path class="cls-10" d="M1609,665.32c-2.56-2.65-2.59-6.22-3.74-9.33-.88-2.4-6.29-.35-9.41-2.48-7.83-5.34-7.51-16.36,1.22-22.1,3-2,3.62-3,1.94-6.53-3-6.35-2-12.76,2.86-18,5.92-6.37,13.29-7.7,21.46-5.34,3.74,1.08,6.73,5.19,9.86,5.13,2.65,0,4.86-4.85,8.22-6.52,9-4.45,18.91-2,24.43,6.56,1.67,2.59,2.61,3,5.45,1.19,8.72-5.57,20.61-1.6,25,8.23,1.14,2.56,2.18,3.26,5,3,10.55-.76,17.85,4.79,20.19,15.17.57,2.55,1.47,3.93,4,4.88,18.1,6.64,21.39,24.33,6.81,37.21,1.09,1.49,2.32,2.94,3.29,4.55,5.32,8.86,2.3,19.65-7.16,24.67-2.42,1.29-2.82,2.17-2.09,4.83,2.9,10.58-2.36,20.2-12.87,23.57-4.3,1.38-7.07,3.63-8.75,7.93-2.21,5.65-6.87,9.26-12,12.17-5.39,5.22-12,4.12-17.87,2.22-14-4.57-23.46-14.21-27.57-28.61-1.52-5.32-.56-6.84,4.6-8.28a20.27,20.27,0,0,0,14.39-22.74c-.94-5.4-4.25-9-9.13-10a12,12,0,0,0-13.28,5.74c-2,3.3-3.59,6.75-3.66,10.76,0,1.81-.17,3.83-2.34,4.54s-3.84-.45-5.38-1.84a9,9,0,0,1-2.92-7.16c0-2.48-.88-4.14-3.56-4.55-8-1.24-16.08-2-24.25-3.21.09,2.66,1.87,4,2.58,5.77s1.3,4-.46,5c-2.1,1.21-3.13-.92-4-2.58-7.22-10.58-4.53-20.38,6.86-25,2.17,3-.55,4.5-2,6.31-2.82,3.55-2.69,4.43,1.6,4.86,8.06.8,16,2.5,24.22,2.63.35-2.55-1.48-2.67-2.76-3.14-6.3-2.3-9.85-6.66-10-13.44,0-2.19-.93-3-2.91-3.12C1612.59,668.14,1610.37,667.56,1609,665.32Z" transform="translate(0 0)"/><path class="cls-2" d="M1612.93,795.15A64.65,64.65,0,0,1,1620.8,832c-1.32,16.24-6.09,31.24-16.36,44.47-8.39,10.82-15.65,22.51-23.41,33.82-12.75,18.26-25.16,36.79-39.94,53.53-5.75,6.5-12.06,12.33-19.7,16.69-8.24,4.7-16.12,4.21-24.09-.39-11.94-6.91-20.63-17.2-28.84-27.94a239,239,0,0,1-16.64-24.24c-.91-1.62-.41-3.25.09-4.8a49.47,49.47,0,0,1,19-25.85,4.66,4.66,0,0,1,3.22-1l29.45,25.93c7.83-13.56,15.52-26.93,23.26-40.26,12.1-20.83,24.41-41.53,37.23-61.94C1575.5,801.76,1591.76,793.82,1612.93,795.15Z" transform="translate(0 0)"/><path class="cls-9" d="M1041.83,1650l.33,14v16a50.22,50.22,0,0,1,.61,20.78c-3.32,19.49-13.34,35.21-27.41,48.76-24.11,23.23-53.67,36-85.2,45.15-34.82,10.09-70.49,11.86-106.42,10.56a174.45,174.45,0,0,1-20.87-1.93c-2.34-.37-4.65-.74-5.83-3.23-1.15-4.06-.62-8.21-.65-12.32-.07-11.23,0-22.46,0-33.69,0-2.45-.24-5,1.6-7.06a123.44,123.44,0,0,0,24.57,2.85c13.65.45,27.32.21,41,.09,10.79-.09,21.41-1.94,32.08-3.29a238.1,238.1,0,0,0,47.29-11c24.58-8.44,48-19.29,67.48-37.34,10-9.25,18.75-19.2,24.65-31.49,2.22-4.62,4.35-9.32,5-14.49A3.14,3.14,0,0,1,1041.83,1650Z" transform="translate(0 0)"/><path class="cls-9" d="M1817.89,1446.86c-19,13.71-39.55,11.47-60.35,5.62a61.29,61.29,0,0,1-16.29-7c-1.53-.89-.82-2-.34-3.13,7.76-17.9,18.53-33.84,31.32-48.5,21.49-24.63,45.44-46.36,73.74-63a35.06,35.06,0,0,1,4-2c1.35-.57,2.88-.88,4-2.47-5.8,1-10.35,4.16-14.78,7.1-35.62,23.7-66.25,52.49-89.33,88.82a120.78,120.78,0,0,0-6.58,11.77c-.46,1-.67,2.4-2.35,2-1.89-1.82-1.39-4.21-1.49-6.43-.14-3.06.25-6.2-1.45-9a11.14,11.14,0,0,1,.53-8.87c2.9-22.4,5.58-44.83,7.51-67.35a22.27,22.27,0,0,1,.83-3.36,13.94,13.94,0,0,1,4.57-4.5c2-.36,2.68-3.14,5.06-2.91,5.85-.85,11.39-3.37,17.43-3,2.09.13,4.34-.38,6,1.43.91,7.29,2.82,14.21,7.51,20.77,1.78-6.17,1.85-12.09,3.18-17.8,1.87-8,6.32-12.47,14.4-14.2,18.92-4,37.84-6.77,57.13-2.84,4.29.88,6.62,3.51,6.77,7.91.57,17-2.24,33.68-5.69,50.27-.61,3-1.91,3.34-4.8,3.16-13.11-.82-26.21-.75-39,2.75-.79.21-1.67.23-1.91,1.52,11,1.62,21.59,4.24,31.33,9.69,10.26,5.73,11.33,8.82,6.67,19.63a28.78,28.78,0,0,1-6.63,9.8c-5.53,5.21-8.41,5.87-15.35,2.83-10-4.37-30.73-9.56-38.09-9.15,9.77,5.78,16.56,14,23,22.72C1820.86,1442.26,1820.78,1444.47,1817.89,1446.86Z" transform="translate(0 0)"/><path class="cls-4" d="M798,1800.79c8.9,2.23,18.05,2.66,27.11,3,17.6.68,35.27,1,52.81-.94,44.23-4.92,86.49-16,123-42.87,18.92-13.94,33.8-31.09,39.6-54.76,2-8.39,1-16.86,1.62-25.28,2.68,1.34,1.65,4.14,2.37,6.23a61.18,61.18,0,0,1,2.57,27.06c-1.63,13.58-5.58,26.71-13.9,38.31-6.52,9.09-13.17,17.87-22.06,24.73-11.79,9.1-23.77,17.76-37.45,24.1-11.26,5.21-22.45,10.51-34.37,13.82a425.24,425.24,0,0,1-42.55,9.84c-19.77,3.33-39.63,4-59.61,4.07-9.94.05-19.92-.29-29.75-.88-12.4-.75-24.62-4.13-36.95-6.2a187.63,187.63,0,0,1-30.27-7.85c-16.06-5.57-31.86-12.06-46.5-21a157.87,157.87,0,0,1-43.17-39.23c-7.44-9.72-11.13-21-13.44-32.82-3.38-17.2-.13-33.55,6.61-49.42a8,8,0,0,1,3.18-3.74c2.11,1.8,1.41,4.29,1.5,6.53.38,8.64-.62,17.31.8,25.93,2.76,16.64,10.32,30.77,21.75,43,19.72,21.13,44.33,34.29,71.14,43.93,16,5.77,32.57,9.56,49.35,12.42C793.68,1799.15,796.07,1799.29,798,1800.79Z" transform="translate(0 0)"/><path class="cls-11" d="M798,1800.79c-12.39-.89-24.43-3.75-36.35-7-26.87-7.2-52.29-17.69-74.54-34.76-17.13-13.15-31.16-28.75-37.3-50.16a66.64,66.64,0,0,1-2.8-18.06c0-8-.11-16-.16-23.94q.15-10,.31-20a3.9,3.9,0,0,1,1.83,2.8c3,15.83,11,29,21.9,40.57,19.26,20.42,43.29,33.21,69.26,42.73A254.71,254.71,0,0,0,798,1747Z" transform="translate(0 0)"/><path class="cls-12" d="M1751.62,1336.94a7.9,7.9,0,0,1-4.69,4c.89-14.87,1.85-29.73,2.65-44.6a174.88,174.88,0,0,0-.27-27.75c2.51-2.49,2.44-6,3.5-9.07,9.18-26.36,23.07-49.57,45.21-67.12,7.6-6,16.14-10.39,26.26-10.68,13.41-.38,22.59,8,23.71,21.44,1.46,17.38-4.82,32-16.34,44.36-23.05,24.64-41.45,52-51.63,84.44-7.24-.36-14.34.13-21.19,2.81-.94.37-2.58,1.56-3-.8-1.67-1.84-1.29-4.08-1-6.18,5.14-41.48,20.07-78.79,47.66-110.59,5.12-5.89,11.1-11,16.22-16.9-9,6.35-15.9,14.7-22.69,23.15-24.14,30-37,64.65-41.91,102.6C1753.63,1329.73,1754.41,1333.79,1751.62,1336.94Z" transform="translate(0 0)"/><path class="cls-13" d="M1599.93,699.17l3.8,2.73c2.16-5.54-5.69-7.28-3.65-12.55,9.4,1.22,19.06,2.55,28.74,3.68,2.65.32,2.17,1.7,1.9,3.47-.66,4.33.53,7.94,4.69,10,2.22,1.12,3.84,1,3.65-2.19a20.4,20.4,0,0,1,4.12-13.55c3.69-5,9.14-7.07,14.89-5.6,5.41,1.38,9.3,6.27,9.89,12.44,1.12,11.77-6.56,21.86-18.06,23.18-3,.34-2.11,2.06-1.91,3.39A36.68,36.68,0,0,0,1660,746c9.37,8.57,19.94,13.15,32.78,8.08q.18,5.49.37,11c.53,3.62-1,5.76-4.36,7.3-13.87,6.36-28.28,8-43.24,5.55-4.57-.73-1.7-5.16-3.66-7.17,0-10.65,0-10.64-10.38-10.62-2.83,0-5.67,0-8.49-.14-9.78-.61-13.63-3.77-16.07-13.24a93.22,93.22,0,0,1-2.89-26.13c.1-3.47-1-5-4.44-5.74-6.59-1.48-6.91-2.48-3.85-8.39C1597,704,1598.53,701.62,1599.93,699.17Z" transform="translate(0 0)"/><path class="cls-13" d="M1474.12,896.24c-11.24,7.88-19.2,18.08-22.3,31.69-6.66-8-12.2-16.83-18.07-25.41-7.3-10.68-15-21-25.72-28.58-1.23-1.89-3.33-2.68-5.06-3.94-9.63-4-15.18-11.55-17.85-21.19-3.59-13,0-25.29,5.18-37.13,2.19-5,6.1-5.85,12.74-3.78,2.36,1.07,3.18,3.26,4,5.48,2,5.81,4.28,11.53,6.41,17.29,1,2.73,2.38,5.09,5.25,6.37.28.49.5-.72.14-.16-3.61-6.52-3.06-13.7-3.3-20.76,3.29-4.53,5.6-4.81,9.59-1.19a19,19,0,0,1,4.07,5.61c5,9.66,8.89,19.65,10.15,30.55.73,6.3,3.08,11.7,8,16.06s9.25,9.07,13.78,13.68c2.09,2.78,5.42,4.53,6.64,8Z" transform="translate(0 0)"/><path class="cls-2" d="M1744.66,931.21c-2.44-3.23-.91-6.92-.37-10.06,1-5.91,1-11.89,1.42-17.76,1.51-21.12,3.42-42.22,3.46-63.46,0-12.07.3-24.09-1.85-35.95s-11-18.33-20.72-23.88a70.94,70.94,0,0,0-6.64-3c8.93-1,17.36,1.1,24.15,6.66A35.27,35.27,0,0,1,1755,800.62c4,12.59,5.89,25.59,7.35,38.64q3.59,32,6.59,64a51.67,51.67,0,0,1-.84,17.38c-1.39,5.63-4.5,9-10.54,9.56C1753.25,930.63,1749,931.45,1744.66,931.21Z" transform="translate(0 0)"/><path class="cls-3" d="M1467.74,888.86a24.92,24.92,0,0,1-7.07-6.92c.28-2.46,2.52-2.9,4.15-3.86,16.75-9.89,34-18.88,50.8-28.7,5.44-3.19,5.39-3.17,3.58-8.93-10.85-34.59-22.92-68.78-33.79-103.36-.49-1.55-.67-3.26-1.86-4.69-5.82,1.94-10.67,6.12-16.76,7.41-3.62-.72-7.2.17-10.8.31-3.63-1-3.33-3.15-1.49-5.55,1.12-1.48,2.85-2.2,4.47-3,2.47-1,4.69-2.55,7.39-2.94,6.34-3.29,12.75-6.45,19-9.93,2.92-1.64,3.88-1.3,4.93,2.07,11.8,37.71,23.8,75.35,35.75,113,1.61,5.07,3,10.2,4.92,15.16,1.14,3,.17,4.28-2.42,5.72-19.63,10.86-39.17,21.87-58.73,32.85C1469.08,887.89,1468.42,888.4,1467.74,888.86Z" transform="translate(0 0)"/><path class="cls-3" d="M1416.33,816.06a129.61,129.61,0,0,0,3.49,23.12c-4.29-1.9-6.44-4.21-7.77-7.72-2.85-7.55-4.74-15.48-8.81-22.56-1.73-1-2.14-2.88-2.79-4.58-3.63-9.47-7-19-10.46-28.58-.77-2.11-2.08-4.26-1-6.69l20.17-10.89,4.81-2.25a37.74,37.74,0,0,1,10.6-6.28c2.77-.91,5.87-3,7.1,1.88-.18,2.09-1.88,3.06-3.24,4.21a15.5,15.5,0,0,0-4.65,6.9,151.44,151.44,0,0,1-17.49,9.6c-3.2,1.48-4,3.34-2.67,6.72,4,10.25,7.77,20.56,11.6,30.86C1416,811.83,1417,813.79,1416.33,816.06Z" transform="translate(0 0)"/><path class="cls-14" d="M1028.53,1566.75c9.14-2.06,13.83.17,17.16,8.86,2.31,6,3.92,11.85-5.11,15.9l-10.53,5.5-17.3-21C1017.83,1572.64,1024,1571,1028.53,1566.75Z" transform="translate(0 0)"/><path class="cls-15" d="M1424.82,750.87c-3.78,1.3-6.79,4.23-10.8,5-1.29-5.53,2.59-7.76,6.49-9.71,2.84-1.42,4.49-2.76,4.65-6.52.29-6.93,5.39-10.6,11.31-13.06,5.06-2.1,10.28-3.36,14.76,1.1,2.82,2.82,4.47-.09,6.47-.92,3.41-1.43,6.81-3.81,8.66,1.81-1.71,1.9-4.06,2.63-6.36,3.45-8.19,3.15-15.63,7.83-23.49,11.65C1432.41,745.69,1427.75,746.92,1424.82,750.87Z" transform="translate(0 0)"/><path class="cls-16" d="M1609,665.32a16.65,16.65,0,0,0,10.54,1.92c-.76,10.9.89,13.45,11.42,16.86,2.7.88,1.89,2.85,1.87,4.44,0,2.25-1.89,1.28-3,1.14-9.86-1.25-19.71-2.57-29.53-3.87-.6-5.53,7.18-6.16,6.52-11.6Z" transform="translate(0 0)"/><path class="cls-2" d="M1592,1297c2.47,1,5.2-2.56,7.44.27,1.2,1.53,3,3.71,2.23,5.3-1.27,2.59-.7,5-1,7.54a9.25,9.25,0,0,0,0,3.85,2.82,2.82,0,0,1-.31,2.31c-2.46,2.68-2.54,2.65,0,5.73.88,1,1.92,2,1.1,3.5-1.07,1.9-1.83-.19-2.75-.34-2.25-.36-2.5,1.85-3.71,2.81C1594.12,1317.61,1592.16,1307.38,1592,1297Z" transform="translate(0 0)"/><path class="cls-2" d="M1585.09,1220c2.88,2.27,4.48,1.64,4.27-2.09-.08-1.41.11-2.5,1.49-2.52a1.85,1.85,0,0,1,1.79,2.76c-1.18,2.3.49,5.88-3.43,7-1.83.54-.63,1.76.29,2.53a28.16,28.16,0,0,1,3.39,2.84c1.71,2,1.31,4.41.74,6.61s-2.51.61-3.8.87-2.55.63-3.82,1c-.06-1.59-.11-3.18-.17-4.77-1-3.69.18-7.51-.66-11.2Z" transform="translate(0 0)"/><path class="cls-2" d="M1586.09,1245h6.64c-3.51,4.21-3.3,8-1.24,12.25,2.48,5.09.79,9.73-3.39,10.75C1587.3,1260.32,1586.12,1252.7,1586.09,1245Z" transform="translate(0 0)"/><path class="cls-3" d="M1581.87,1036.84v65.29c-1.45-8.52-.41-17.13-.7-25.69A344.3,344.3,0,0,1,1581.87,1036.84Z" transform="translate(0 0)"/><path class="cls-7" d="M1407.78,294.78c-.25.17-.5.35-.73.54q0-24.26,0-48.52c1.18,7.21.35,14.47.51,21.71C1407.76,277.26,1407.72,286,1407.78,294.78Z" transform="translate(0 0)"/><path class="cls-2" d="M1600.12,1372l-.34-2-.22-3.84c.82,0,1.65-.1,2.47-.12,1.74,0,3.49.18,3.72,2.31.2,1.86-1.27,2.44-2.82,2.8C1602,1371.31,1601.06,1371.67,1600.12,1372Z" transform="translate(0 0)"/><path class="cls-2" d="M1597.55,1349.11c1.68.09,3.93-.95,4.31,1.91s-.38,5.32-3.77,6Z" transform="translate(0 0)"/><path class="cls-3" d="M1582.14,1129c1.7,6.73.72,13.55.66,20.33A123.27,123.27,0,0,1,1582.14,1129Z" transform="translate(0 0)"/><path class="cls-3" d="M1748.06,1057.3q0-8.27,0-16.54A61.48,61.48,0,0,1,1748.06,1057.3Z" transform="translate(0 0)"/><path class="cls-3" d="M1584.12,1196c1.71,4.67.65,9.49.7,14.25C1583.82,1205.52,1584,1200.76,1584.12,1196Z" transform="translate(0 0)"/><path class="cls-3" d="M1583.15,1167c1.6,5,.73,10.2.65,15.32A69.5,69.5,0,0,1,1583.15,1167Z" transform="translate(0 0)"/><path class="cls-2" d="M1589.69,1280.08c1.32-.53,2.74-1.63,3.79.3a2,2,0,0,1,0,1.8c-1.16,1.47-2.33.24-3.48-.19Z" transform="translate(0 0)"/><path class="cls-3" d="M1585.18,1223c1.61,3.65.65,7.45.66,11.2A34.29,34.29,0,0,1,1585.18,1223Z" transform="translate(0 0)"/><path class="cls-17" d="M1250.47,164.21c-.06,20-.16,40-.19,60,0,24.67-.11,49.33.11,74,0,4.22-1.28,6.62-4.89,8.69q-69.16,39.63-138.21,79.49Q1007.17,444.1,907.09,501.9,804.58,561,702,620,583.74,688.17,465.49,756.39c-3.59,2.07-7.14,4.32-8.61,8.6-2.26,16.81-.8,33.73-1.31,50.59a6.24,6.24,0,0,1-1.22,4.21c-.1,2.32-.28,4.65-.28,7q0,261.19,0,522.38c0,1.67,0,3.33-.07,5l-97.74,56.23c-6.35,3.65-12.64,7.4-19,10.95-7.34,4.07-11.57,1.63-11.73-6.63,0-1.5,0-3,0-4.5q0-353.64,0-707.29c0-9.9,4.19-17,12.81-22q243.38-140.45,486.68-281,206.37-119.16,412.77-238.27C1244.92,157.45,1247.69,158,1250.47,164.21Z" transform="translate(0 0)"/><path class="cls-1" d="M716,1395a5,5,0,0,0-1,5.83l-6.76,4.24c-24.34,14-48.73,27.83-73,41.89-17.67,10.24-35.14,20.83-52.82,31.06-18.39,10.63-36.94,21-55.39,31.51-10.24,5.85-20.54,11.6-30.56,17.82-10.7,6.64-20.65-1.71-20.64-12.37q.48-341.4.26-682.81a1.22,1.22,0,0,1,1.14-.73c18.7-10.68,37.43-21.31,56.09-32.06q89.41-51.49,178.78-103.07A4,4,0,0,1,713,696c2.5,3.92,3,8.24,3,12.82Q716,1051.9,716,1395Z" transform="translate(0 0)"/><path class="cls-18" d="M477.2,831.41l-1.14.73-21.72-12.35c0-15.49-.16-31-.09-46.45,0-2.94.57-6,2.63-8.35,5.45,1.54,9.64,5.4,14.52,8,2.17,1.14,4.15,2.62,6.62,3.09,2.12,3-1.11,5.19-1.06,8C477.2,799.83,477.15,815.62,477.2,831.41Z" transform="translate(0 0)"/><path class="cls-19" d="M1701,1372.79c-.24,1.8-1.14,1.81-2.78,1.47a243.72,243.72,0,0,0-33.63-4.41c-1.84-.11-4.64.33-4.72-3-2.16-3-1.88-5.95.11-8.89l.81-9a2.28,2.28,0,0,1,.1-3,3.66,3.66,0,0,0,.18-3c-1.11-2.14-.55-4.1.61-6a164.73,164.73,0,0,0,0-24c-.54-1.3-1.13-2.59-.46-4q-.27-3.95-.56-7.9c-1.15-1.19-.88-2.63-.69-4,.66-2.14-.94-3.94-.9-6-3.1-3.75-1.54-8.27-2-12.45l-.24-1.56c-2.64-5-3.26-10.56-5.19-15.74a4.55,4.55,0,0,1,.14-4.24c2.35-6.15.58-12.76,2.13-19-2.87-4.22.29-8.61-.32-13a15.51,15.51,0,0,1,2.31-11l-.12-4a9.7,9.7,0,0,1,1.23-8l-.23-3c-1-1.93-.17-3.5,1.06-5,0-.33,0-.66.05-1-1.86-2.69-1.92-5.35.17-8,1.65-1.83,1-4,.77-6-1.53-2.29-1.31-4.31,1-6,.73-9.48,1.24-19,2.23-28.45,1.09-10.34,2.69-20.63,3.93-31,.82-6.81,1.33-13.66,2.11-20.48.16-1.41-1-3.91,1.63-3.94,2.94,0,1.82,2.84,1.87,4.25q.95,23.94,1.49,47.89a1039,1039,0,0,0,9.37,114.29q7.74,57.38,18.42,114.23A24.45,24.45,0,0,1,1701,1372.79Z" transform="translate(0 0)"/><path class="cls-10" d="M1738.81,1419.75c3.25,2.92,2,6.92,2.44,10.48.24,1.75.17,3.54.25,5.31,2.39,2.5,1.28,5,0,7.49l-.24,2.41c-1.54,7.43-4,9.47-11.4,10-9.68.63-17.52-2.07-22.95-10.84-7-11.2-15.94-20.86-24.59-30.76-5.79-6.64-9.71-14.2-10.9-23.1-1.27-9.47,5.86-16.1,15.31-14.13,6,1.25,10.93,4.71,16.23,7.44,1.66,8,3.39,16,4.92,24a16,16,0,0,0,1.17,4.22,8.12,8.12,0,0,1,1.5,3.62c.36,5.5,3.94,7.47,8.75,8.33C1726.44,1425.39,1733.05,1424.55,1738.81,1419.75Z" transform="translate(0 0)"/><path class="cls-20" d="M1648.78,1468q0,7.15,0,14.32c.14,4.67-2.54,7.43-6.51,9a33.16,33.16,0,0,1-25.7-.34c-4.6-2-6-5.4-4.71-10l.21-12,4.89,1.9c1.26-.46,2.12.25,3,1a32.26,32.26,0,0,0,22-.83A8.62,8.62,0,0,1,1648.78,1468Z" transform="translate(0 0)"/><path class="cls-21" d="M1738.81,1419.75c0,2.36-1.55,3.44-3.54,4.24a26.9,26.9,0,0,1-22.72-.73c-4.55-2.23-2.81-7.22-3.51-11.09,9.93,5.1,19.8,6,29.55-.47C1738.66,1414.39,1738.74,1417.07,1738.81,1419.75Z" transform="translate(0 0)"/><path class="cls-2" d="M1655.89,1214q-1,12-2,24c-2.16.64-3.05,2.32-3.61,4.31-.35,1.27-.66,2.62-2.22,3a1.42,1.42,0,0,1-1.87-1.12c-.37-1.45-.69-3.05.78-4.07,2-1.37,2.31-3.07,1.47-5.17a1.4,1.4,0,0,1,.84-2c5.67-1.85,2.13-3.41.12-5.62-1.71-1.9-4.77-3.77-3-7.16A11.38,11.38,0,0,1,1655.89,1214Z" transform="translate(0 0)"/><path class="cls-2" d="M1651.77,1257c1.93,6.6,4.48,13,5,20-2.06-2.29-4.11-4.59-6.2-6.85-.7-.76-1.12-2.94-2.66-.73-.3.44-.89.71-.91.15-.15-3.73-.56-7.54,0-11.2C1647.36,1256.14,1650.09,1257.23,1651.77,1257Z" transform="translate(0 0)"/><path class="cls-2" d="M1655.82,1403c-.56,5.31-1.07,10.62-1.69,15.92-.2,1.72.59,3.67-1.06,5.09-2,.75-4.06,3.88-6.26.48-2-3.17-.27-5.2,2.53-6.74a4.9,4.9,0,0,0,2.4-6.36C1649.94,1406.8,1652,1404.57,1655.82,1403Z" transform="translate(0 0)"/><path class="cls-2" d="M1608.11,1438c0-4.37-1.83-8.57-1.08-13a20.11,20.11,0,0,1,7.45,8.51C1616.21,1437.06,1614.83,1438,1608.11,1438Z" transform="translate(0 0)"/><path class="cls-2" d="M1660,1358c0,3-.07,5.93-.11,8.89-1.66,3.68,0,7.89-1.83,11.54a9.46,9.46,0,0,0-1.78-6c-2.79-3.82-.67-8.16-.67-12.23C1655.61,1358.51,1658,1357.79,1660,1358Z" transform="translate(0 0)"/><path class="cls-2" d="M1604.11,1407c.23-4.71-1.83-9.24-1.07-14l4.59-1.83c-.29,4.51-1.5,8.7.1,13C1608.51,1406.22,1606.15,1407,1604.11,1407Z" transform="translate(0 0)"/><path class="cls-2" d="M1648.78,1468c-1.85,2-4.33,2.53-6.84,3-3.46-4.57-3.45-4.54,2.37-6.31,1.58-.48,3.1-1.14,4.65-1.71Z" transform="translate(0 0)"/><path class="cls-2" d="M1610.5,1455.08c-1.09-2-.41-4.08-.47-6.12a4.65,4.65,0,0,1,1,0c1.71.3,2.93-3.11,4.14-1.33s1.47,4.63,1.52,7c0,1.34-1.43,2.27-2.89,1.11C1612.73,1454.87,1611.64,1455,1610.5,1455.08Z" transform="translate(0 0)"/><path class="cls-2" d="M1657.06,1278.52a36.89,36.89,0,0,1,2,12.45c-5.1-.36-6.44-2.56-4.5-7.25C1655.32,1281.93,1657.11,1280.66,1657.06,1278.52Z" transform="translate(0 0)"/><path class="cls-2" d="M1619.94,1471.81c-1.26.47-2.07-.41-3-1a5.2,5.2,0,0,0,.5-4.19c-.45-2.09,1.81-2.43,3-3.26s2.08.13,2.72,1.25a3.1,3.1,0,0,1-.48,4C1621.81,1469.67,1620,1470,1619.94,1471.81Z" transform="translate(0 0)"/><path class="cls-2" d="M1602,1384c-1.73-2.14-.91-4.62-.92-7,.33,0,.66,0,1,0,2.31.2,5.38.39,5.33,3.09C1607.34,1382.5,1604.87,1384.11,1602,1384Z" transform="translate(0 0)"/><path class="cls-2" d="M1659.77,1173c-1.27,1.85-.61,4-1,6-4.42.41-6.53-1.14-3.06-5,1.66-1.81-2.09-4,.83-4.53C1658.79,1169.09,1657.15,1173.17,1659.77,1173Z" transform="translate(0 0)"/><path class="cls-2" d="M1661.7,1337c.07,2,.31,4.07-.61,6-1.65-.37-4,1-4.8-1.27-.65-2,1-3.83,1.88-5.46C1659.46,1333.9,1660.3,1337.56,1661.7,1337Z" transform="translate(0 0)"/><path class="cls-2" d="M1650.79,1449c-1.69,3.47.5,7.66-2,11C1644.51,1455.05,1645.1,1451.83,1650.79,1449Z" transform="translate(0 0)"/><path class="cls-2" d="M1592,1203.52c-.09,2.15,0,4.25-2.59,4.2a2,2,0,0,1-1.71-2.9c.64-1.6-.87-4.52,2.26-4.65C1592.54,1200.05,1591.64,1202.39,1592,1203.52Z" transform="translate(0 0)"/><path class="cls-2" d="M1658.05,1185q-.09,4-.17,8c-3.86,0-4-2.74-3.84-5.46C1654.17,1185,1655.67,1184.18,1658.05,1185Z" transform="translate(0 0)"/><path class="cls-2" d="M1606.11,1423l-.42-6.9c2.4-.24,4.15.33,4.24,3.2C1610,1422,1608.69,1423.08,1606.11,1423Z" transform="translate(0 0)"/><path class="cls-2" d="M1660.91,1346l-.1,3c-.64.16-1.26.36-1.9.49-1.82.36-4.43,1.66-4.72-1.29-.35-3.62,2.63-.65,3.92-1.35A13.57,13.57,0,0,1,1660.91,1346Z" transform="translate(0 0)"/><path class="cls-2" d="M1657,1202c.52,2.8-.25,5.41-1.23,8C1652.44,1206.72,1653.86,1204.22,1657,1202Z" transform="translate(0 0)"/><path class="cls-2" d="M1661.24,1308.91c.91,1.26.43,2.67.46,4a9.13,9.13,0,0,0-1.76-.84c-1.52-.38-3.26-1-2.73-2.75C1658,1306.75,1659.84,1308.82,1661.24,1308.91Z" transform="translate(0 0)"/><path class="cls-2" d="M1660,1297a6.2,6.2,0,0,1,.69,4c-1.21.21-2.63,2.57-3.53.45S1658.19,1298,1660,1297Z" transform="translate(0 0)"/><path class="cls-2" d="M1652.8,1431c-.32,1.67-.64,3.33-1,5-1.18-.26-3.35.61-3.31-1C1648.6,1432.76,1650.5,1431.37,1652.8,1431Z" transform="translate(0 0)"/><path class="cls-2" d="M1647.4,1254.38a2.14,2.14,0,0,1-1.4-2.36c0-1.1.43-2,1.72-1.85,1.09.1,2,.76,1.87,1.88A2.66,2.66,0,0,1,1647.4,1254.38Z" transform="translate(0 0)"/><path class="cls-2" d="M1656.83,1393c.12,2.17.3,4.34-.78,6.36C1656.28,1397.2,1650.86,1394.39,1656.83,1393Z" transform="translate(0 0)"/><path class="cls-2" d="M1657.83,1194c.74,1.89-1,3.27-1.06,5-1.08-.87-2.71-1.43-2.08-3.34C1655.19,1194.09,1656.46,1193.91,1657.83,1194Z" transform="translate(0 0)"/><path class="cls-2" d="M1611.56,1463.07c-1-.92-.57-2-.45-3.11,1.32,0,3.24-1.41,3.59,1S1612.9,1462.79,1611.56,1463.07Z" transform="translate(0 0)"/><path class="cls-2" d="M1656.62,1325.31a1.52,1.52,0,0,1-1.51-1.57,1.34,1.34,0,1,1,2.66-.36A1.7,1.7,0,0,1,1656.62,1325.31Z" transform="translate(0 0)"/><path class="cls-22" d="M1383,283.47c0,7-5.2,14.32-11,16.13-2.8.87-6.9-3.39-5.81-6.93,1.53-5,2.87-10.22,8.06-13.29,2.26-1.33,4.2-1.71,6.34-.71A4.09,4.09,0,0,1,1383,283.47Z" transform="translate(0 0)"/><path class="cls-23" d="M1334.12,309.17c.09-3.93,3.84-8.2,8.2-11.65,3.45-2.74,8.85.78,8.35,5.4-.61,5.52-2.86,10.56-7.83,13.62C1337.19,320,1334.2,318.18,1334.12,309.17Z" transform="translate(0 0)"/><path class="cls-24" d="M1301.88,329.55c.36-4.69,2.87-9,7.17-12.28a6.36,6.36,0,0,1,6.59-.82c2.23,1,2.52,3.25,2.35,5.56a17.11,17.11,0,0,1-7.06,13.05c-1.86,1.38-4,2.43-6.48,1.24C1301.76,335,1302,332.65,1301.88,329.55Z" transform="translate(0 0)"/><path class="cls-10" d="M1611.87,1481c-.11,5,2.52,8.11,7,9.63a36.82,36.82,0,0,0,18.63,1,14,14,0,0,0,11.25-9.28c3.37,10.83,5.75,21.81,5.61,33.26-.07,5.58-2.7,9-7.79,10.88a29.07,29.07,0,0,1-11.69,2.23c-14.73-.88-27.4,5-40.45,10.68-17.26,7.44-35.27,9.15-53.41,2.6a37.53,37.53,0,0,1-12-7c-5.24-4.6-5.3-9,.24-13.22,9-6.85,19.35-10.94,29.88-14.56,14-4.81,27.83-10,40.58-17.62C1604,1487,1607.84,1483.84,1611.87,1481Z" transform="translate(0 0)"/><path class="cls-1" d="M1389,769.05q7.1,19.94,14.2,39.86c-9.21-1.8-10.82-1-13.74,8.06-2.79,8.64-5.18,17.28-4,26.67,1.35,10.47,6.64,18.09,14.9,24.09A30.4,30.4,0,0,1,1403,870c0,36.64.24,73.28-.16,109.91-.15,13.32-6.56,23.47-18.85,29.71-6.78,3.44-13,8-19.77,11.48-10.31,5.27-19.87,11.79-30.13,17.16s-19.76,12.15-29.88,17.8c-8.7,4.86-17.36,9.76-26,14.78-17.62,10.25-35.36,20.31-53.07,30.42-8.51,4.85-17.2,9.41-25.55,14.51-13,7.94-26.57,15-39.41,23.24-9.47,6.09-19.7,11-29.43,16.65-11.72,6.87-23.34,14-35.18,20.56-11.44,6.36-22.51,13.34-34,19.55s-23,13.09-34.5,19.69Q1004,1228.72,980.94,1242c-17.27,10-34.18,20.63-51.85,29.94a6,6,0,0,0-1.09,1c-5.87-8.38-12-6.72-19.74-1.86-18.88,11.76-38.34,22.61-57.61,33.74-15.24,8.81-30.59,17.43-45.83,26.24-14.8,8.55-29.43,17.39-44.3,25.8-8.8,5-17.76,9.69-26.23,15.24-2.81,1.84-4.44.47-5.07-2.29a22.93,22.93,0,0,1-.19-5q0-325.95-.1-651.9c0-4.84,1.66-7.51,5.76-9.87,32.82-18.89,65.49-38,98.26-57q51.91-30.06,103.91-60c32-18.38,64-36.61,95.95-55,18.68-10.79,37-22.2,55.82-32.73,27.23-15.23,54-31.2,81.14-46.68,29.13-16.65,58-33.78,87.18-50.28q22.74-12.86,45.34-26c19.08-11.1,38.55-21.55,57.25-33.31,7.73-4.85,15.82-9.12,23.74-13.69,3.16-1.82,5-1.6,4.71,2.69-.1,1.32,0,2.66,0,4q0,211.46.06,422.93C1388,761.68,1387.25,765.51,1389,769.05Z" transform="translate(0 0)"/><path class="cls-25" d="M1014.62,1662.11c.71,2.73-1.38,4.3-2.66,6.11-13.66,19.22-32.91,31.17-53.84,40.69-27,12.26-55.5,18.62-85,21.1A319.74,319.74,0,0,1,805,1728.9c-39.19-5.08-76.26-16.06-108.21-40.5-9.16-7-17-15.31-22.78-25.47-.35-2.63,1.39-4.36,2.76-6.2,10.52-14.2,24.36-24.4,39.61-33,27.62-15.47,57.61-23.11,88.7-27.4a267.12,267.12,0,0,1,36.3-2.57c43.59,0,86,6.67,125.35,26.6,16.68,8.46,32.38,18.62,44,33.88C1012.43,1656.64,1014.73,1658.78,1014.62,1662.11Z" transform="translate(0 0)"/><path class="cls-26" d="M1014.62,1662.11c-17.19-25.47-42.64-39.48-70.38-49.95-28.86-10.9-58.94-15.74-89.72-16.58-43.58-1.19-85.83,5-125.71,23.38-20,9.23-38.16,21-51.35,39.24-1.15,1.59-2.32,3.15-3.49,4.73-3.68-5.11-5.5-11-6.93-17,5.19-15.75,15.63-27.67,28.16-37.89a151.65,151.65,0,0,1,32.31-19.71A251.29,251.29,0,0,1,803.64,1567a329.65,329.65,0,0,1,63.22-1.68c22.53,1.62,44.62,5.24,66.13,12,26.29,8.28,50.89,19.75,70.61,39.76,8.64,8.76,15.56,18.55,18.37,30.79-1.31,3.47-2.71,6.91-3.9,10.42A6.11,6.11,0,0,1,1014.62,1662.11Z" transform="translate(0 0)"/><path class="cls-11" d="M1022,1647.88c-3.21-5.38-5.29-11.31-8.7-16.63-9.6-15-23.28-25.27-38.18-34.28-15.44-9.34-32.2-15.66-49.43-20.47a267,267,0,0,0-46.75-8.72,361.64,361.64,0,0,0-39.74-1.83,334.16,334.16,0,0,0-49.37,4.72,234.48,234.48,0,0,0-68.28,22.18c-16.53,8.38-31.69,18.89-42.87,34.08-3.6,4.88-7.23,9.88-8.79,16-.36,1.42-.89,2.95-2.82,3-2.46-14.46.78-27.74,8.94-39.7a96.68,96.68,0,0,1,25.5-25.51,199.3,199.3,0,0,1,57.34-27,292.19,292.19,0,0,1,59.4-11,404.84,404.84,0,0,1,46.85-.57,261,261,0,0,1,57.22,9c20.43,5.47,40.1,13,58,24.47,18.45,11.84,34.44,26.14,41,48.11a38.62,38.62,0,0,1,1.32,18.66A31.13,31.13,0,0,0,1022,1647.88Z" transform="translate(0 0)"/><path class="cls-27" d="M1741.49,1443c0-2.5,0-5,0-7.49,7.37-16.32,17.91-30.55,29.56-44,19.37-22.27,41.08-41.95,65.87-58.1,5.13-3.34,10.36-6.54,16.21-8.53,1.29-.44,2.91-1.86,3.61.54.48,1.66-1,2-2.24,2.61-43.93,23.12-77.93,56.83-104.42,98.44C1746.78,1431.75,1744.34,1437.52,1741.49,1443Z" transform="translate(0 0)"/><path class="cls-28" d="M1751.62,1336.94c3.25-38,14.12-73.28,36.18-104.74a185.14,185.14,0,0,1,29.45-33c1.09-1,2.29-3.24,4-1.4s-.59,2.94-1.63,3.91c-14.83,13.75-27.78,29-37.82,46.64a204.94,204.94,0,0,0-25,74.77,64.13,64.13,0,0,0-1,10.89C1754.69,1335.36,1755.07,1338.91,1751.62,1336.94Z" transform="translate(0 0)"/><path class="cls-29" d="M1416.33,816.06c-4.84-12.83-9.59-25.68-14.58-38.45-1-2.67-.89-4.12,1.85-5.45,6.69-3.23,13.26-6.7,19.88-10.08a6.9,6.9,0,0,0,6.58-.49c9.78-5.68,20-10.5,30.14-15.53,3.08-1.54,5.67-3.36,6.63-6.86,4.41-2.3,8.92-4.44,13.2-7,3.35-2,4.76-1.56,6,2.4,10.81,33.45,21.86,66.82,32.81,100.23,1.28,3.9,4.07,8.38,3.08,11.66-1,3.43-6.57,4.46-10.16,6.5-17,9.7-34.08,19.29-51.13,28.91-6.13-6.05-12.54-11.86-18.31-18.25-4.56-5.05-4.13-12-5.34-18.31a84.68,84.68,0,0,0-10.69-27.12C1423.08,812.78,1420.15,812.47,1416.33,816.06Z" transform="translate(0 0)"/><path class="cls-30" d="M1466.83,739.2c1,2.73.59,4.49-2.44,6-12.23,6-24.32,12.39-36.39,18.76-2.6,1.37-4,1.09-4.52-1.88-.46-5.57,4.47-7.07,7.53-10a6.38,6.38,0,0,1,3.09-3.1c7.23-3.47,13.63-8.81,22-9.76C1459.66,738.63,1463.24,736.37,1466.83,739.2Z" transform="translate(0 0)"/><path class="cls-31" d="M1456.08,739.23c-8.6,3.82-16.85,8.3-25.07,12.86-1.09-5.37-4-1.44-6.19-1.22a4,4,0,0,1,2.37-4c10-4.92,19.88-9.95,29.82-14.92,1-.5,2-1.43,3,.09a37,37,0,0,0-4.45,3C1453.89,736.5,1452.69,738.24,1456.08,739.23Z" transform="translate(0 0)"/><path class="cls-32" d="M665,786.85c0,2,0,4,0,6,.09,4.69-1.56,8.27-5.84,10.71-14,8-27.82,16.13-41.7,24.23-19.33,11.29-38.6,22.69-58,33.88-16.68,9.63-33.47,19.07-50.24,28.52-3.74,2.11-6.1.73-6.21-3.55-.11-4.5-.07-9,0-13.5.07-6.07,3.82-9.67,8.65-12.41,29.71-16.87,59.36-33.84,88.74-51.28,18.84-11.17,38-21.79,57-32.61,5.95-3.38,7.54-2.39,7.56,4.51C665.05,783.18,665,785,665,786.85Z" transform="translate(0 0)"/><path class="cls-33" d="M572.11,1285.85c-2.43-.09-3.1-1.49-3-3.36A7.54,7.54,0,0,1,573,1276c7-4.15,13.94-8.37,21-12.45q31.18-18.13,62.42-36.18c1.29-.75,2.64-1.41,4-2,1.93-.92,4.16-2.49,5.85-.24s0,4.54-1.28,6.33c-2.11,2.87-5.4,4.44-8.38,6.17-12.76,7.44-25.69,14.58-38.51,21.93-14.38,8.25-28.71,16.6-43.07,24.89C574,1285,573,1285.42,572.11,1285.85Z" transform="translate(0 0)"/><path class="cls-4" d="M633.06,1034.46a7.85,7.85,0,0,1-4.22,6.63c-14.43,8.19-28.87,16.36-43.23,24.68-14.76,8.57-29.41,17.31-44.14,26-1.54.9-3.5,2.22-4.8,0a5.24,5.24,0,0,1,.64-6.47c3.54-3.88,8.26-6.13,12.69-8.65,21-12,42.08-23.91,62.79-36.44,5-3,10-5.88,15.2-8.52C630.36,1030.43,633,1030.06,633.06,1034.46Z" transform="translate(0 0)"/><path class="cls-33" d="M667,1311.49a12.5,12.5,0,0,1-6,7.88c-11.32,6.61-22.71,13.09-34.05,19.66q-23.25,13.46-46.47,27c-2,1.16-4.09,2.21-6.15,3.29-1.4.74-2.86,1-4.21,0-1.52-1.22-.67-2.63-.29-4.09,1-3.79,4.05-5.63,7-7.35,14.61-8.49,29.32-16.81,44-25.24q20.26-11.65,40.47-23.45c1.37-.8,2.6-1.5,4.15-.82C666.63,1308.86,667,1309.94,667,1311.49Z" transform="translate(0 0)"/><path class="cls-33" d="M667.07,1199.07c-.91,3.93-3.47,6.37-6.76,8.26q-42.7,24.56-85.4,49.12c-1.39.8-2.8,2-4.48.41a4,4,0,0,1-.81-5,9.12,9.12,0,0,1,4-4.23q40.62-23.72,81.2-47.51a57.14,57.14,0,0,1,7.61-3.75C664.94,1195.37,666.65,1196.26,667.07,1199.07Z" transform="translate(0 0)"/><path class="cls-33" d="M666.74,1283.08c-.68,2.88-1.73,5.64-4.54,7.28q-18.47,10.79-37,21.53c-15.87,9.26-32.16,17.82-47.65,27.74a9.82,9.82,0,0,1-1.32.7c-2.2,1-4.64,3.16-6.63.29-1.68-2.42-.11-4.57,1.73-6.58,3.34-3.66,7.87-5.56,11.92-8,14.79-8.87,30-17.09,44.9-25.7,10.76-6.2,21.41-12.61,32.1-18.94C664,1279.21,666.56,1279.82,666.74,1283.08Z" transform="translate(0 0)"/><path class="cls-4" d="M633,950.68c.13,3.81-2.28,5.64-4.63,7-11.27,6.65-22.68,13.08-34,19.61Q570.7,991,547,1004.63a67.06,67.06,0,0,1-6.54,3.59c-3.56,1.56-5,.36-4.35-3.53.62-3.58,3.11-5.62,6.15-7.33,19.65-11.09,39.36-22.06,58.79-33.51,9-5.31,18-10.62,27.15-15.6C631.64,946.38,633.09,947.22,633,950.68Z" transform="translate(0 0)"/><path class="cls-4" d="M633.09,867.39c-.54,3.83-3.38,6-6.36,7.7-14.35,8.31-28.89,16.3-43.15,24.75Q563,912,542.19,923.59c-2,1.09-4.19,2.59-5.68.42-1.32-1.9-.53-4.32,1.25-6.34,2.6-3,6-4.71,9.29-6.59,23.84-13.71,47.78-27.26,71.61-41,3.29-1.89,6.25-4.42,9.87-5.7C631,863.5,633.3,863.64,633.09,867.39Z" transform="translate(0 0)"/><path class="cls-33" d="M649,1125.22c.4,3.06-1.82,4.86-4.3,6.35-9.1,5.47-18.21,10.93-27.4,16.26-18.52,10.73-37.09,21.36-55.65,32-1,.58-2,1.25-3,1.77-1.92,1-4.31,2.52-6,.63-1.93-2.22-.29-4.74,1.3-6.71a16.08,16.08,0,0,1,4.52-3.86c20-11.51,39.92-23.11,59.9-34.64,8.59-5,17.24-9.81,25.85-14.74C647.32,1120.61,649.05,1121.08,649,1125.22Z" transform="translate(0 0)"/><path class="cls-4" d="M536.05,1048.21c-.24-4.77,2.53-6.72,5.44-8.39q41.65-23.92,83.37-47.77a8.15,8.15,0,0,0,1.27-.78c1.77-1.55,3.77-3.65,6-1.33s.89,5.17-.9,7.21c-3.1,3.54-7.66,5.08-11.58,7.43-16.37,9.8-33,19.2-49.5,28.74-9.49,5.48-18.94,11-28.51,16.35C537.37,1052,536.09,1051.37,536.05,1048.21Z" transform="translate(0 0)"/><path class="cls-33" d="M569.11,1309.53a7.68,7.68,0,0,1,3.61-5.37c7.86-4.64,15.74-9.28,23.65-13.85q24.57-14.2,49.18-28.35c5.18-3,10.34-6,15.53-9,1.63-.93,3.45-1.73,5.06-.12s.83,3.44-.12,5.05a14.88,14.88,0,0,1-5.7,5.43c-18.44,10.52-37,20.85-55.21,31.74q-15.18,9.08-30.64,17.63C570.8,1314.75,568.76,1313.5,569.11,1309.53Z" transform="translate(0 0)"/><path class="cls-4" d="M649.06,1097.94c-.11,2.76-2.61,4.55-5.16,6.08q-14.31,8.55-28.75,16.88c-18.95,10.91-38,21.71-56.91,32.63-1.82,1-3.78,2.4-5.41.85s-.85-4,.06-6.05c1.59-3.55,5.25-4.54,8.16-6.23,27.55-16,55.21-31.77,82.82-47.64,1.28-.74,2.37-2,4-.88C649.17,1094.48,649,1095.88,649.06,1097.94Z" transform="translate(0 0)"/><path class="cls-4" d="M572.75,1201c-3.55-.36-4.23-2.17-3.32-4.63,1.22-3.27,3.79-5.32,6.77-7,20.7-11.93,41.25-24.12,62.09-35.81,8-4.47,15.82-9.1,23.78-13.56,1.13-.63,2.44-1.56,3.63-.25,1,1.14,1.66,2.52.87,4.12-1.1,2.22-2.08,4.3-4.51,5.7q-42.72,24.65-85.3,49.51C575.34,1199.9,573.8,1200.52,572.75,1201Z" transform="translate(0 0)"/><path class="cls-4" d="M633,908.83c.26,3.63-2.29,5.54-4.83,7-16.51,9.57-33.16,18.91-49.69,28.46C566.87,951,555.34,958,543.78,964.82c-2.38,1.41-5.4,4-7.27.91s0-6.59,3.22-8.5c6.83-4.09,13.81-8,20.71-12q29.52-17.09,59-34.2c3-1.75,6.17-3.28,9.24-4.94S633,905.68,633,908.83Z" transform="translate(0 0)"/><path class="cls-33" d="M573,1398c-3.87-.24-4.51-2.12-3.52-4.83,1.44-3.92,5-5.63,8.28-7.54q37.2-21.61,74.45-43.17,4.74-2.75,9.57-5.33c1.11-.59,2.36-1.68,3.65-.58a4.2,4.2,0,0,1,1.39,4.52,9.55,9.55,0,0,1-4.54,5.74c-17.13,9.78-34.32,19.45-51.42,29.27-10.21,5.87-20.27,12-30.43,17.93C577.89,1395.5,575.21,1396.82,573,1398Z" transform="translate(0 0)"/><path class="cls-33" d="M666.93,1170.41c-.69,3.39-2,5.91-4.84,7.55-14.5,8.36-29,16.82-43.47,25.18-14.07,8.12-28.22,16.13-42.26,24.3-2.32,1.34-4.71,2.77-6.63.32s-.07-4.86,1.72-6.61c5.54-5.43,12.92-8,19.41-11.94,16.17-9.8,32.64-19.07,49-28.48,7.05-4,14.19-7.94,21.33-11.82C663.63,1167.6,666,1167.12,666.93,1170.41Z" transform="translate(0 0)"/><path class="cls-3" d="M649.43,1068.64a9.13,9.13,0,0,1-4.73,6.71q-43.63,25.22-87.29,50.4c-1.36.79-2.94,2.07-4.55.56s-1-3.4-.35-5.11a10.69,10.69,0,0,1,5-5.31q42.8-24.67,85.58-49.38c1.54-.89,3.08-2.27,5.06-1.35C649.69,1065.85,649.38,1067.36,649.43,1068.64Z" transform="translate(0 0)"/><path class="cls-34" d="M503.05,951.66c0-6.92-.1-13.84,0-20.76.06-2.71,10.87-10.27,13.41-9.57a1.86,1.86,0,0,1,.87,1c2.85,6,3,20-5,24.77-2.78,1.67-6.72,1.26-8.26,5.09Z" transform="translate(0 0)"/><path class="cls-35" d="M674.84,777.4c.17-5.26,1.72-9.55,5.07-13.09,1.85-1.95,4.13-3,6.76-2.12,2.46.8,3.58,3,3.93,5.36a13.37,13.37,0,0,1-.07,5.91c-1,3-.4,5.11,2.06,6.94,1.23.91,2.5,2.14,1.29,3.72-1.45,1.9-2.54.08-3.68-.72s-2.1-2.74-4-.54c-2,2.38-4.56,4.07-7.87,2.34S675,780.15,674.84,777.4Z" transform="translate(0 0)"/><path class="cls-36" d="M509.23,1025a8.65,8.65,0,0,1-6.05-7.53,18.21,18.21,0,0,1,4.06-14c1.4-1.74,3.16-3.19,5.59-2.4s3.08,2.93,3.18,5.17a26,26,0,0,1-6.88,18.82Z" transform="translate(0 0)"/><path class="cls-37" d="M508,1113.47c0-3.57-.47-6.93.12-10.09.66-3.54,2.67-6.25,7.13-5.65,2.22.3,2.5-.27,1.37-2.78-.79-1.76-.23-3.21.49-4.72.47-1,1.24-1.72,2.32-1.44s1.88,1.47,1.42,2.29c-2.27,4.07.59,7.94.27,12-.2,2.67-.83,4.37-3.34,5.32C514.41,1109.62,512,1112.57,508,1113.47Z" transform="translate(0 0)"/><path class="cls-38" d="M503.72,1073.43a48.42,48.42,0,0,0-.39-10.73,21.13,21.13,0,0,1,4.94-15.7c1.87-2.32,4.21-4,7.3-3,2.88,1,3.48,3.7,3.64,6.49.58,9.69-2.79,15.21-11.83,19.72C506,1071,504.93,1072.36,503.72,1073.43Z" transform="translate(0 0)"/><path class="cls-39" d="M552.17,1413.76v-19.34c.42-.05.81-.23,1-.11,7.88,4.16,7.89,4.17,3.57,11.78C555.52,1408.31,554.15,1410.47,552.17,1413.76Z" transform="translate(0 0)"/><path class="cls-40" d="M552.07,1215.28v-17.81c.5-.08.89-.26,1.12-.15,8,4,8,4,3.59,11.73-1.28,2.24-2.64,4.42-4,6.63Z" transform="translate(0 0)"/><path class="cls-41" d="M551.88,1355.94c0-5.15,0-10.3,0-15.44,0-2.37.58-2.87,2.9-1.71,6,3,6.29,3.47,3.06,9.11-1.61,2.81-3.27,5.6-4.91,8.4Z" transform="translate(0 0)"/><path class="cls-42" d="M551.89,1327.89q0-7.91,0-15.79c0-2.2.82-2.41,2.77-1.53,6,2.73,6.37,3.61,3,9.47-1.55,2.71-3.14,5.39-4.71,8.08Z" transform="translate(0 0)"/><path class="cls-42" d="M552.13,1384.34v-18.86c2.63,1.55,4.72,2.76,6.79,4,1.81,1.07,1.23,2.42.43,3.81-2.14,3.73-4.26,7.48-6.39,11.22Z" transform="translate(0 0)"/><path class="cls-41" d="M551.88,1243.55q0-8,0-16c0-.79-.06-2,.94-1.94,2.53.29,4.37,2.15,6.41,3.46,1.79,1.15.59,2.61-.12,3.87-2.06,3.64-4.15,7.25-6.23,10.88Z" transform="translate(0 0)"/><path class="cls-42" d="M552.28,1253.6a4.55,4.55,0,0,1,1,.09c7.88,3.91,7.88,3.91,3.66,11.36-1.29,2.27-2.62,4.52-4.64,8Z" transform="translate(0 0)"/><path class="cls-42" d="M551.89,1300.43c0-6,0-11.08,0-16.18,0-2.52.89-2.72,3-1.68,5.85,2.85,6.07,3.33,2.79,9.18-1.38,2.46-2.81,4.89-4.24,7.32C553.31,1299.33,553,1299.49,551.89,1300.43Z" transform="translate(0 0)"/><path class="cls-43" d="M508.63,1093.45c.42-2.82.67-6,4-6.7,2.44-.51,2.76,1.88,2.57,3.73-.28,2.8-.82,5.84-4.14,6.43C508.7,1097.31,508.91,1095,508.63,1093.45Z" transform="translate(0 0)"/><path class="cls-44" d="M505.91,1103c2.7,5.35,1.77,11-2.57,13.16-.37-4.82-1.49-9.48,2.66-13.24Z" transform="translate(0 0)"/><path class="cls-45" d="M507.82,969.57c-2.24,4.07,5.06,1.29,3,4.34-1.33,2-3.14,3.45-2.92,6.13C502.24,977.86,502.24,977.86,507.82,969.57Z" transform="translate(0 0)"/><path class="cls-46" d="M518.59,980c-2.58-2.86,0-6.62-2.08-8.1-3.64-2.57-.77-3.06.81-4.06,1.09-.7,1.92-.3,1.88,1.06C519.11,972.33,519.74,975.86,518.59,980Z" transform="translate(0 0)"/><path class="cls-47" d="M506,1102.9c-2.17.59-3.18-.34-2.92-2.47.21-1.79.78-3.63,2.75-4.21,1.25-.36,1.64.89,1.74,1.83a6.31,6.31,0,0,1-1.66,4.93Z" transform="translate(0 0)"/><path class="cls-48" d="M509.13,1025.07c.92,0,2-1.36,2.64-.38a3.23,3.23,0,0,1-.14,3.76c-.94,1.06-2.36,1.69-3.85,2.69-1.25-2.76-.64-4.63,1.45-6.16Z" transform="translate(0 0)"/><path class="cls-4" d="M747,1099.8c0-77.82.12-155.65-.21-233.47,0-7.59,2.89-12.07,8.9-15,5.55-2.72,7.72-6.63,7.4-12.74-.38-7.14.13-14.33-.16-21.49-.23-5.39,2.27-8.8,6.62-11.32l84.16-48.58c5.29-3.06,7.23-2,7.27,4,0,7.49,0,15,0,22.49,0,1.78-.53,3.9,1.53,4.91,1.75.86,3.16-.48,4.56-1.31,27.58-16.3,55.38-32.23,83.23-48,18-10.25,35.71-21.14,53.68-31.54,14.62-8.46,29.49-16.49,44.14-24.91,15.66-9,31.15-18.28,46.79-27.31,20.12-11.63,40.34-23.09,60.48-34.69,17.7-10.2,35.32-20.54,53-30.73s35.21-20,52.75-30.18c14.1-8.14,28-16.53,42.12-24.71Q1331.09,519,1359,503.09c3.63-2.08,5.83-.93,5.87,3.34.05,4.95-.81,9.92-.81,14.88q-.08,228.48.16,457c0,8-3.16,12.27-9.36,15.81Q1299.89,1025.48,1245,1057c-18.85,10.8-38,21.2-56.53,32.47-30.81,18.68-62.36,36.1-93.45,54.32-27.17,15.94-54.62,31.43-81.82,47.34-28.62,16.75-57.39,33.26-86.14,49.78-32.41,18.62-64.91,37.07-97.29,55.74-23.4,13.5-46.66,27.25-70,40.86-2.72,1.59-5.59,3-8.32,4.54s-4.06.54-4.38-2.27a39.69,39.69,0,0,1-.05-4.5Z" transform="translate(0 0)"/><path class="cls-49" d="M890.91,670.82c.43,5.15,3.7,3.41,6.05,2.14,6.12-3.31,12-7.06,18-10.51,9.14-5.2,18.69-9.77,27.44-15.56,10.89-7.2,23.2-11.95,33.52-20.1a26.25,26.25,0,0,1,8-4.07c2.89-1,6.29-2,8.71,1,2,2.47.68,8.65-2.06,10.94a33,33,0,0,1-4.84,3.49c-11.06,6.31-21.62,13.45-33.25,18.85-7.15,3.31-13.63,8-20.48,12-15.21,8.86-30.53,17.55-45.7,26.49-9.08,5.35-17.62,11.72-27,16.37C850.9,716,843,721,834.66,725.13c-2.73,1.34-6.38,3.13-8.56-1.33-2-4-.4-8.61,3.59-11.11,6.14-3.86,12.2-7.87,18.39-11.65,3.46-2.12,2.61-3.64-.34-5.18.06-2.26,1.92-2.9,3.44-3.81,11.48-6.87,23.25-13.24,34.72-20.12C887.41,671,888.93,669.76,890.91,670.82Z" transform="translate(0 0)"/><path class="cls-49" d="M1151.19,541c-2.65.24-5.28-.09-6-3.11-.79-3.38-.35-6.76,2.65-9.06a69.32,69.32,0,0,1,6.35-3.92c9.28-5.64,18.41-11.45,28.35-16.07,5.33-2.47,10.44-6.23,15.37-9.93,5.2-3.9,12-5.73,17.15-9.64s11.21-5.06,16.16-8.76c1.2-.9,2.58-1.5,2.75-3.28.06-.58.49-1.62.77-1.63,10.06-.28,16.57-7.93,24.81-11.94,13.09-6.38,24.49-15.75,38-21.47,2.58-1.1,4.41-3.48,7.13-4.51s5-1,6.9,1.06c1.73,1.85,1.69,4.12.81,6.53-1.61,4.41-5.06,6.86-8.89,9-17.53,9.79-34.94,19.83-52.26,30-21.61,12.63-43.61,24.59-64.93,37.76-9.84,6.07-20.09,11.52-29.85,17.77A7.82,7.82,0,0,1,1151.19,541Z" transform="translate(0 0)"/><path class="cls-50" d="M1228.86,475.57l-35,20.25c-1.54,2.73-4.42,3.2-7,4.16l-13.94,7.9c-1.05,2.09-3.16,2.42-5.08,3.08q-7.69,4.29-15.38,8.58c-1.4.79-3.06,1.22-4.19.11s-.91-3.07-.35-4.72a9.91,9.91,0,0,1,4.88-5.42l86.72-50.06c1.57-.91,3.34-2.19,4.92-.34,1.31,1.54.75,3.46,0,5.18-2,4.66-7.08,5.58-10.56,8.45C1232.43,474.12,1231.13,475.7,1228.86,475.57Z" transform="translate(0 0)"/><path class="cls-50" d="M890.91,670.82c-14.58,8-29.07,16.18-43.17,25-5.16,1.85-9.42,5.33-14.2,7.88-1.42.76-2.93,2-4.54.43s-1-3.34-.34-5.07a10.94,10.94,0,0,1,5-5.31q42.75-24.63,85.45-49.31c1.8-1,3.94-2.87,5.83-.85,2.11,2.25.65,4.83-.9,6.77-3.7,4.6-9.67,5.94-14.16,9.44-1,2.12-3,2.68-5.1,3.09C899.72,664.74,895.67,668.41,890.91,670.82Z" transform="translate(0 0)"/><path class="cls-51" d="M1103.9,521.67c7.38-5.87,16.59-1.87,18.65,8.84,3.53,18.29-1.3,34.58-15,47.51-8.34,7.9-18.64,4.83-21.33-6.22-3.37-13.87-.29-26.83,7.2-38.83,2.6.7,2.83,3,3.43,5,.15,2.09-.84,3.85-1.66,5.66a37,37,0,0,0-2.7,19.48c.4,3.71,1.68,7.35,5.67,8.65,3.63,1.17,6.62-1,8.75-3.51,7.75-9,11.21-19.49,9.19-31.35-.89-5.27-3.65-7.2-9-7.25-1.48,0-3,.35-4-1.31A6.89,6.89,0,0,1,1103.9,521.67Z" transform="translate(0 0)"/><path class="cls-51" d="M784.66,706c9.31-5.32,17.87-.5,19.2,11.66,1.7,15.57-2.05,29.93-12.57,42-3.85,4.4-8.4,8.38-15,7.06-5.37-1.07-8.84-6-9.46-12.47a9.21,9.21,0,0,1,4.55-5.43c1.83.61,2.06,2.49,3,3.81,3,4.35,6.11,5,10.65,2.35a8.37,8.37,0,0,0,2-1.48c7.91-8.9,12-19.16,9.84-31.11-1.26-7.05-3.21-8.17-10.56-8a2,2,0,0,1-2.08-1C783.14,710.81,783.77,708.39,784.66,706Z" transform="translate(0 0)"/><path class="cls-52" d="M784.66,706l.21,7.8a2.85,2.85,0,0,1-.93,2.23c-8.3,8-11.55,18-11.57,29.3a6.44,6.44,0,0,1-.8,3.84l-4.7,5C762.38,738.85,771.33,714.6,784.66,706Z" transform="translate(0 0)"/><path class="cls-40" d="M1096.14,537.68q-1.34-2.35-2.68-4.71a27.1,27.1,0,0,1,10.44-11.3l.34,7.38C1102.34,532.68,1100.14,536,1096.14,537.68Z" transform="translate(0 0)"/><path class="cls-49" d="M1186.84,500a23,23,0,0,1,7-4.16C1194.21,501.74,1189.81,499.65,1186.84,500Z" transform="translate(0 0)"/><path class="cls-49" d="M904.81,662.93a13.14,13.14,0,0,1,5.1-3.09C910.26,664.25,907.52,663.56,904.81,662.93Z" transform="translate(0 0)"/><path class="cls-49" d="M1167.82,511a13.09,13.09,0,0,1,5.08-3.08C1173.23,512.24,1170,510.8,1167.82,511Z" transform="translate(0 0)"/><path class="cls-49" d="M1228.86,475.57l5-2.83C1232.54,474.32,1232.43,478,1228.86,475.57Z" transform="translate(0 0)"/><path class="cls-53" d="M512.51,926.53c1.79,2-1.57,7.64,5.09,5.54-5.19,2.13-4.24,6.52-4.66,10.68-1.54-2.17-.26-4.35-1.22-6.11-4.89.54-3.34,4.51-3.92,7.42-2.57-4.32-.9-8.66-.31-14.06.38,2.52.6,4,.84,5.61C514,934.53,511.23,929.78,512.51,926.53Z" transform="translate(0 0)"/><path class="cls-54" d="M678.65,777a16,16,0,0,1,3.47-9.37c.86-1.05,2-2.1,3.37-1.49,1.08.47,1.43,1.72,1.53,3a15,15,0,0,1-2.33,9.47c-1,1.58-2.09,4-4.44,3.08C678.34,780.89,678.85,778.5,678.65,777Z" transform="translate(0 0)"/><path class="cls-55" d="M517.17,1054a15.38,15.38,0,0,1-4.88,11.07c-2.81,2.51-5.11,1.79-6.42-1.76-1.59-4.28,1.15-12.71,4.95-15.29,1.16-.78,2.4-1.38,3.71-.64C516.89,1048.68,517.11,1051,517.17,1054Z" transform="translate(0 0)"/><path class="cls-1" d="M1360,747.1c0,76.83-.09,153.65.16,230.48,0,6.3-2.25,9.74-7.41,12.59-14.09,7.82-28,15.87-42,23.94-28.18,16.31-56.27,32.76-84.48,49-26.6,15.33-53.33,30.42-79.92,45.76-26.34,15.18-52.53,30.6-78.85,45.81-31.33,18.1-62.76,36-94.09,54.14-28.76,16.62-57.39,33.48-86.22,50-16,9.16-31.76,18.76-47.84,27.75-28.41,15.86-56.22,32.76-84.59,48.67-3.55,2-3.91,1-3.72-2.2.05-.83,0-1.67,0-2.5q0-232-.13-463.95c0-5.91,2.17-9.27,7.22-11.66,6-2.86,9.55-7.25,9-14.57-.49-6.79.19-13.67-.19-20.48-.29-5.15,1.59-8.39,6-10.9,14.74-8.35,29.33-17,44-25.42,11.51-6.63,23.09-13.15,34.58-19.83,3.26-1.9,4.07-1.51,4.72,2.5a77.86,77.86,0,0,1,.55,18.4c-.59,7.68,5.53,10.35,11.41,6.85,11.41-6.79,23-13.26,34.54-19.9q28.71-16.55,57.39-33.13c17.26-10,34.48-20,51.76-30,22.86-13.13,45.79-26.14,68.63-39.3,19-11,37.86-22.09,56.84-33.07s38.31-22,57.45-33c8.49-4.9,16.91-9.92,25.38-14.84q24.07-14,48.18-27.91,27.85-16.07,55.74-32c10.22-5.88,20.41-11.82,30.66-17.64,5.09-2.89,5.16-2.8,5.16,3V747.1Z" transform="translate(0 0)"/><path class="cls-19" d="M1096.14,537.68c2.53-3,4.84-6.28,8.1-8.63,8-2.26,12.58.39,13.57,8.75a38.85,38.85,0,0,1-9.71,31.32c-2.59,2.93-5.92,5.53-10.42,4-4.8-1.58-6.06-5.72-6.67-10.09C1089.73,554,1092.63,545.79,1096.14,537.68Z" transform="translate(0 0)"/><path class="cls-19" d="M771.57,749.17c-1.6-14.06,2-26.17,13.3-35.37,7.41-2.63,11.41-.73,13.06,6.85,2.76,12.71-1.16,23.89-9.63,33.21C781.6,761.24,775.22,759.17,771.57,749.17Z" transform="translate(0 0)"/><path class="cls-9" d="M1184.9,881.89c11.34-7.11,21.57-4.53,27.77,7.1,5.68,10.63,5.44,22.28,4,33.55-2.14,17.09-8.14,33-19.46,46.37-5.64,6.67-12,12.42-21.41,13.08-8.12.56-13.39-3.61-17-10.45-5.56-10.44-5.37-21.67-4.32-32.93.21-2.17-.23-4.7,1.35-6.68,4.93-2.39,10.29-2.28,15.54-2.45,13-.42,12.93-.32,13.07-13.32C1184.56,904.74,1183.8,893.3,1184.9,881.89Z" transform="translate(0 0)"/><path class="cls-9" d="M1298.83,815.91c10.73-6.94,20.92-4.44,27.17,6.52,5.64,9.89,5.79,20.77,4.77,31.46a91.69,91.69,0,0,1-16.6,45.06c-4.67,6.57-10.11,12.31-17.74,15.5-5.22,2.19-10.45,2.75-15.57-.35-.89-2.24.13-4.25.86-6.26q6.73-18.52,13.74-37a46.88,46.88,0,0,0,3.07-16.57C1298.64,841.52,1298.09,828.71,1298.83,815.91Z" transform="translate(0 0)"/><path class="cls-56" d="M1020.92,854.11a42.47,42.47,0,0,0-12.94,6.17c-11.38,7.57-17.75,19.39-27.2,28.47a9.06,9.06,0,0,0-2,3.86c-1.29,3.69-2.4,7.84-8,6.91-.78-.14-1.86,1.15-2.72,1.88C962,906.59,956,911.84,949.92,917a14.37,14.37,0,0,0-4.5,6.28c-1.61,4.38-4.13,5.05-7.72,2.45-1.33-1-2.19-.07-3.21.21-6.22,1.69-12.4,3.52-18.64,5.14-2.24.58-3.06,2.34-4.24,3.9s-2.64,2.62-4.71,2-2.07-2.46-1.78-4.09-.23-2.27-1.63-3.06c-7.36-4.17-14.45-8.83-22-12.67-4.1-2.09-6,1.73-7.47,4.79Q863,945,852,968.15c-1.71,3.62-3.58,7-3.4,11.51.2,5.3-4.26,7-8.82,4.12-1.06-.67-1.92,0-2.81.19-6.32,1.29-12.78,2.2-18.88,4.17-4.11,1.34-7.32,4.9-9.54,8.59-8,13.22-15.46,26.7-23.38,39.94-1.51,2.51-.7,5.18-1.75,7.6-1.16,2.68-2.52,5.08-5.7,5.65a2,2,0,0,1-2.28-1.54,6.16,6.16,0,0,1,2.31-7.56c5.06-3.25,7.09-8.52,9.92-13.25,5.69-9.54,11.15-19.22,16.72-28.83,1.82-3.13,3.91-6,3.61-10-.17-2.42,1.62-4.37,3.66-5.58,2.32-1.38,3.86-.49,5.06,2,.25.5,2.78.07,4.2-.21,4.87-1,9.7-2.15,14.57-3.11,5.62-1.11,9.24-4.84,11.58-9.56,8.08-16.32,15.88-32.79,23.72-49.23,1.18-2.47,2.53-4.84,2-8-.44-2.55,1.09-4.79,3.16-6.43a3.79,3.79,0,0,1,3.69-.92c1.66.57,1.66,2.07,1.43,3.32-.47,2.49.92,3.57,2.78,4.62,6.8,3.83,13.59,7.67,20.28,11.68,1.82,1.09,3.08,1.24,4.74-.2s3.37-1.57,4.59.58c.93,1.65,2,1,3.35.63,6.18-1.85,12.38-3.62,18.61-5.27a5.81,5.81,0,0,0,3.7-3c1.17-2,2.79-3.36,5.27-3,1.75.26,2.72-.79,3.87-1.79,6.26-5.47,12.55-10.92,18.9-16.29,1.56-1.33,2.88-2.67,3.32-4.75.36-1.68,1.27-3.5,2.75-4,7.34-2.4,10.73-9,15.17-14.29,5.58-6.63,12.73-12.1,15.59-21,.81-2.51,3.46-6.66,7.14-1.72.81,1.09,1.71.46,2.65.17,2.68-.85,5.39-1.61,8.09-2.41,1.1-.49,1.91-1.46,3-1.91,5.31-1,9.28-4.79,13.85-6.95,6.23-3,10.82-7.5,16.16-11.3a6.49,6.49,0,0,1,3.1-1.64c4.25-3.35,8.72-6.29,10.91-11.8,1.79-4.5,4.5-4.44,7.26-.32.89,1.33,2,.91,3,.92,6.33.07,12.66.16,19,0,4.13-.1,6.53-3.38,7.9-6.44,8.84-19.8,17.31-39.77,25.95-59.65a6.71,6.71,0,0,0,.68-4.29,8,8,0,0,1,2-6.87c1.24-1.5,2.81-2.51,4.79-1.76s1.83,2.8,1.36,4.29c-.72,2.22-.08,3.77,1.34,5.38,7.47,8.49,14.87,17,22.33,25.52,2.78,3.17,6.51,3.42,9.36.24,7.55-8.42,14.9-17,22.28-25.6,1.21-1.42,1.12-3.48,1.85-5.09,1.38-3,3-6.37,7.38-4.29,1.67.79,2.49-.33,3.54-.92,6.07-3.41,12.07-6.94,18.15-10.33,2-1.11,3-2.75,4.11-4.69,2.48-4.41,4.63-4.46,7.68-.37.8,1.06,1.63.93,2.53.94,6.66,0,13.33,0,20,0a3.07,3.07,0,0,0,2.89-1.45c1.53-2.28,3.49-3.52,6.33-1.89,1.45.84,2.53-.48,3.61-1.08,5.07-2.83,10.06-5.79,15.09-8.69,3-1.73,5.72-3.48,7.46-6.89,2.05-4,4.54-3.88,7,0,1,1.59,2.19,1.24,3.38,1.25,6,0,12-.09,18,.06a5.8,5.8,0,0,0,5-2.49c1-1.26,2.46-2.55,4.3-1.62,2.11,1.06,1.65,3.16,1.28,4.89a8.71,8.71,0,0,1-3.59,5.21c-1.08.79-2.83,1.07-3.21.39-4-7.14-10.62-2.94-16-3.63-4.88-.62-10.29-1.33-14,3.61-10.08-1.21-16.05,7.14-24.19,10.43a9.52,9.52,0,0,0-5.07,5c-2.14,4.31-4.48,4.37-7.52.57-1.07-1.33-2.34-1-3.61-1-5,0-10,0-15,0-3.16,0-6.3-.39-8.27,3-.41.7-2,1.46-2.57,1.2-5.13-2.26-8.18,1.91-11.91,3.74-3.57,1.75-6.91,3.94-10.38,5.88-2.48,1.38-4.79,2.8-5.84,5.71a5.35,5.35,0,0,1-2.25,2.59c-12.13,6.75-18.37,19.19-27.64,28.69-1.72,1.76-2,4.81-3.36,7-1,1.74-2.89,3.14-5,2.23s-2-3.19-1.24-4.82c.93-2,0-3-1.14-4.3-7.73-8.92-15.5-17.82-23.05-26.9-2.8-3.35-4.66-2.38-6,.82-8.8,20.18-17.48,40.41-26.23,60.61a4.4,4.4,0,0,0-.28,3.28c1,3.75-1.09,6.29-3.79,8.46-1.8,1.44-4,1.36-4.34-.86-.53-3.28-2.51-2.84-4.62-2.84-3.67,0-7.33,0-11,0a26.62,26.62,0,0,0-12.71,3.19,80.21,80.21,0,0,0-13,8.64A3.58,3.58,0,0,1,1057,834c-5.39,4.94-12,8.57-15.13,15.91-1,2.46-3.82,5.33-6.73,1.1-1-1.52-1.95-.52-3-.21-2.69.79-5.38,1.56-8.06,2.33C1023.13,853.77,1022.31,854.83,1020.92,854.11Z" transform="translate(0 0)"/><path class="cls-57" d="M1298.83,815.91c1.63,1.46,1,3.41,1,5.16.06,9.78-.13,19.58.08,29.36A57.67,57.67,0,0,1,1296,873.7c-5.38,13.34-10.15,26.92-15.18,40.4-9.51-5.16-12-14.48-12.73-23.93-2-24.89,4.95-47.23,21.11-66.49A30.73,30.73,0,0,1,1298.83,815.91Z" transform="translate(0 0)"/><path class="cls-58" d="M1057,834l2.1-1.92c3.08,5.31,6.1,10.65,9.25,15.91,1.13,1.89,1.7,5,5.25,3.14a1.88,1.88,0,0,1,1.68.68c1.31,5,5.36,3.24,8.5,3.39,3.82.19,7.66,0,11.49.07,3,.06,5.81.1,8-2.77,1.19-1.57,3.84-2.68,4.91-.08,1.3,3.15,3.48,2.85,5.92,2.83,4.16,0,8.36-.32,12.49.06,7.07.66,11.25-3,14.5-8.63q10.68-18.51,21.48-36.94a16.78,16.78,0,0,0,2.59-7.85c.26-5.22,4-7.19,8.82-5.18,1.21.5,2.18,0,3.31-.35,4.69-1.56,9.38-3.14,14.16-4.36,6.52-1.67,10.94-6.53,14.77-11.12,7.83-9.39,14.48-19.77,21.64-29.73a11.24,11.24,0,0,0,2.36-5.82,7.88,7.88,0,0,1,4-6c1.35-.83,3.52-1.22,3.93.4,1.14,4.56,4.49,3.24,7.34,3.3,4,.08,8,0,12,0,3.09,0,6,.41,8.28-3,1.27-1.91,4.52-3,5.29,1.09.44,2.37,1.94,1.86,3.3,1.87,6.17,0,12.33,0,18.49,0,.67,0,1.52.23,2-.09,7.69-5.36,17.64-5.88,25-12,3.37-2.77,7.93-4,9.74-8.67a3.66,3.66,0,0,1,5-2c2.39,1.08,1.85,3.68,1.07,5.27-1.44,2.91-2.75,7-7.56,4.55-1.57-.8-2.51.35-3.56.94-6.18,3.53-12.23,7.32-18.52,10.66-2.37,1.25-2.84,3.54-4.25,5.28-3,3.71-4.58,3.71-6.83-.5-.93-1.74-2.2-1.2-3.37-1.22-6-.07-12,.12-18-.11-2.39-.09-3.51,1.21-4.93,2.61-2.22,2.18-4.71,4-6.19-.68-.63-2-2-1.87-3.52-1.86-6,0-12-.22-18,.08-4.5.22-7.82,3.67-10.2,6.69-8.29,10.53-15.84,21.65-23.74,32.49-.88,1.2-.8,2.47-1,3.76-1,5.67-3.56,7.17-8.78,5-1.18-.48-2.2,0-3.33.4-5.9,2-12,3.68-17.75,6.06-4.34,1.78-7.74,5.49-10.07,9.27-8.27,13.38-15.9,27.14-23.83,40.73a9.26,9.26,0,0,0-1.2,5.21c.1,3-1.73,5-3.94,6.55-1.26.9-3.59,1.27-3.92-.23-1-4.65-4.4-3.12-7.09-3.22-4.33-.16-8.67.05-13-.08-2.92-.09-5.35.24-7.51,2.72-1.87,2.16-4.56,2.61-5.54-1-.54-2-1.78-1.62-3-1.62-6.33,0-12.66.09-19-.09a5.3,5.3,0,0,0-4.56,2.35c-1.26,1.53-3,2.51-4.82,1.51s-1.53-3-.81-4.45c1.47-2.89.09-4.93-1.31-7.22C1063.32,844.8,1060.17,839.36,1057,834Z" transform="translate(0 0)"/><path class="cls-59" d="M1020.92,854.11l3.16-1c-3.89,12.44-7.8,24.86-11.63,37.31-1.08,3.5-2.72,6.8-1.47,10.87.89,2.89-1.24,5.44-3.71,7.08-1.85,1.22-3.44,1.13-4.89-1.17-.82-1.28-2.79-.18-4.15.19-5.55,1.52-11.07,3.16-16.6,4.78-1.88.55-3.55,1.26-4.53,3.29-1.75,3.62-6.37,3.19-8.88,6.53-5.87,7.82-12.61,15-19.09,22.34a12.73,12.73,0,0,0-3.27,5.94c-1.07,4.75-3.61,5.78-8.36,4-1.45-.54-2.57.22-3.79.66-5.1,1.87-10.19,3.78-15.31,5.59-2.68,1-5.34,1.74-6.43,4.86a3.34,3.34,0,0,1-2.13,2c-6.05.64-8.51,5.73-12.11,9.43-3.37,3.46-6.85,6.81-10.19,10.3-2.93,3.07-6,5.85-7.41,10.28-.93,2.86-3.26,7.68-7.66,2.27-.81-1-1.86.19-2.7.44-5.7,1.7-11.34,3.59-17,5.32-2.42.73-4.49,1.67-5.77,4.11-.65,1.24-2,3-3.42,2.52-5.9-2-9.53,2.43-13.69,4.81-6,3.45-11.34,8-16.81,12.19-10.79,8.19-17.65,19.47-27.12,28.5-1.78,1.7-1.74,3.85-2.56,5.78-1.1,2.57-2.64,4.67-5.47,5.33a2.34,2.34,0,0,1-2.64-1.85,6.34,6.34,0,0,1,2.73-7.46c12-6.93,18.36-19.27,27.82-28.62a8.15,8.15,0,0,0,2.1-3.82c1.14-4,2.34-8.45,8.33-5.93,1.3.54,2.17-.69,3.1-1.21,5.51-3.06,10.9-6.34,16.4-9.41a14,14,0,0,0,5.93-5.71c1.53-2.86,3.77-5.65,7.1-1.65,1.34,1.6,2.53.22,3.56-.08,5.37-1.57,10.67-3.38,16-5.12,2.53-.82,5-1.61,6.11-4.5a3.2,3.2,0,0,1,2.2-1.87c5.52-.1,7.61-4.87,10.86-7.91,4.12-3.86,7.84-8.14,11.75-12.23,2.72-2.85,5.41-5.53,6.79-9.53,1.17-3.39,3.39-6.94,8-3.14,1.11.92,2.18,0,3.25-.41q9.06-3.31,18.13-6.59a5.11,5.11,0,0,0,1.83-.75c7.13-6.89,15.11-12.9,21-21.05,2.62-3.61,5.75-6.87,8.73-10.22a11.93,11.93,0,0,0,3.28-5.86c1.07-5.4,4.2-6.66,8.83-4.16,1.28.69,2.15,0,3.24-.29,5.39-1.55,10.77-3.13,16.23-4.43a12.84,12.84,0,0,0,9.28-8.75C1012.54,882.2,1016.61,868.11,1020.92,854.11Z" transform="translate(0 0)"/><path class="cls-60" d="M1184.9,881.89c1.4,1.13,1,2.72,1,4.17,0,13.14-.09,26.28.08,39.42,0,3.41-1,4.41-4.43,4.69-8.58.71-17.15,1.56-25.76,1.76C1159.75,911.9,1167.41,894,1184.9,881.89Z" transform="translate(0 0)"/><path class="cls-33" d="M782.05,1308.9c-2.9-.34-3.16-1.73-2.08-3.84,2-3.87,6-5.19,9.37-7.14,15.36-8.91,30.93-17.43,46.25-26.4,16.33-9.56,32.56-19.3,49.11-28.49,11.75-6.53,23.21-13.58,34.88-20.25,1.78-1,4.45-3.57,5.93-.61,1.14,2.3-1.31,4.51-3.59,5.83Q906,1237.24,890,1246.48c-8.88,5.17-17.71,10.42-26.61,15.57q-21.31,12.33-42.67,24.57c-12.11,6.94-24.24,13.82-36.36,20.74C783.52,1307.85,782.73,1308.45,782.05,1308.9Z" transform="translate(0 0)"/><path class="cls-33" d="M782.85,1195.93c-1.78,0-2.74-.21-3.27-1.21-.72-1.39.41-2.14,1.16-3,4.6-5,11-7.48,16.64-10.82,29.06-17.09,58.28-33.91,87.44-50.84,11.88-6.9,23.74-13.86,35.63-20.74,1.53-.89,3.48-2.41,4.95-.63,1.69,2-.19,3.74-1.69,5-5,4.27-11,6.84-16.53,10.12q-28.33,16.69-56.79,33.16c-16.24,9.36-32.63,18.47-48.9,27.79-5.18,3-10.18,6.27-15.28,9.37C785,1195,783.59,1195.55,782.85,1195.93Z" transform="translate(0 0)"/><path class="cls-3" d="M776.76,824.58a9.08,9.08,0,0,1,4.73-6.66l60.72-35.17c1.48-.86,3.11-1.75,4.61-.48,1.71,1.43.95,3.35.29,5.07a10.69,10.69,0,0,1-5,5.29q-29.54,17.05-59,34.17c-1.57.91-3.19,2.09-5.12,1.25C776.45,827.39,776.66,825.91,776.76,824.58Z" transform="translate(0 0)"/><path class="cls-61" d="M927,1181.23c-.58,1-1.1,1.81-1.6,2.67-4.46,7.77-9,15.51-13.32,23.34-1.16,2.08-2.67,3.57-5,3.56-11.11,0-18.88,6.25-25.92,13.7-2.72,2.88-5.08,3.41-8.53,1.43s-7.91-5.53-11-4.76c-3.34.83-4.07,6.73-6,10.36a148,148,0,0,0-7.39,14.67c-1.74,4.31-4.43,6.89-9,7.34-9.08.9-15.56,6.39-21.34,12.58-4,4.33-8.89,5.56-14.21,5.76-4.78.18-8.55,1.68-11.73,5.38-3.35,3.91-7.2,7.4-10.84,11.06-.69.68-1.51,1.67-2.47.63s.31-1.72.91-2.35c4.68-4.95,9.28-10,14.16-14.75,3.41-3.31,8.24-2.07,12.37-2.66,3.69-.53,6.65-1.54,9.22-4.16,7-7.21,14.76-13.27,25.3-14.42,2.06-.22,3.35-1.61,4.31-3.56,4.35-8.91,9-17.71,13.25-26.65,1.34-2.78,2.44-3.65,5.44-1.91,4.14,2.4,8.82,6.09,12.89,5.67,3.84-.4,7.62-5,10.67-8.49,4.53-5.13,10.48-5.9,16.53-6.71a8.76,8.76,0,0,0,7.3-5c4-7.45,8.44-14.66,12.69-22,.59-1,1.07-2.2,2.55-1.87C926.57,1180.23,926.76,1180.87,927,1181.23Z" transform="translate(0 0)"/><path class="cls-62" d="M1096.12,985.17c-6-2.13-9.06,1.57-11.81,6.7s-6.44,9.67-9.14,14.77c-1.77,3.33-4,4-7.26,3.35-1.78-.35-3.73-.33-5.33-1-5.29-2.39-8.29.65-11.17,4.29-2.47,3.13-5.2,6.07-7.46,9.34-4.38,6.33-11.62,5.57-17.77,7.29A77.71,77.71,0,0,1,1012,1032c-4.14.35-6.54,2.88-8.81,5.81a120.55,120.55,0,0,1-25.86,24.61c-1.18.83-2.6,2.67-3.75,1.18-1.4-1.82,1.22-2.25,2.19-3a149.87,149.87,0,0,0,28.66-28.21c2.75-3.49,6.39-2.52,9.52-3.08,5.69-1,11.35-2.34,17.05-3.14a17.81,17.81,0,0,0,12.67-7.48c.69-.94,1.42-1.85,2.14-2.76,8.76-11.08,8.79-11.25,22.27-8.68,2.8.53,3.79-.19,5-2.26,3.89-6.37,8.09-12.55,11.87-19,1.75-3,3.83-4.23,7.25-3.89,2.81.27,5.71-.25,8.48.18a5.61,5.61,0,0,0,5.27-1.7c4.12-3.86,8.43-7.52,12.72-11.19.76-.65,1.68-2.13,2.82-.6.86,1.15-.47,1.69-1.13,2.3-4.51,4.19-9,8.45-13.59,12.5C1103.81,986.22,1100,984.53,1096.12,985.17Z" transform="translate(0 0)"/><path class="cls-63" d="M1087.67,1100.44c-3-.87-6.81-1.87-10.57-3.12-3.15-1-5.22-.7-6.93,2.66-3.6,7.1-7.73,13.93-11.52,20.93-1.33,2.45-2.81,4.51-5.83,4.66-10.31.48-16.86,6.67-22.16,14.66-7.87,11.85-19.39,14-32.07,11.24-5.71-1.23-8.63,0-11.24,5-3.24,6.33-7.31,12.24-11.07,18.31-.52.85-.84,2.57-2.41,1.57s-.16-2.17.33-3c4.69-7.83,9.53-15.57,14.21-23.4,1.58-2.65,3.81-2.36,6.07-1.66a36.75,36.75,0,0,0,23.75-.63,14.86,14.86,0,0,0,7.22-4.87c3.57-4.59,7.46-8.94,10.87-13.64,2.25-3.09,5.45-3.76,8.66-4.15,6.94-.85,11.6-3.94,14.51-10.65,2.81-6.51,7-12.44,10.33-18.71,1.06-2,2.18-2.58,4.26-1.77,1.54.6,3.3.68,4.75,1.41,7.75,3.9,15.58,2.06,23.2,0,5.82-1.57,8.73-7.51,13.61-10.62,1.92-1.22,3.37-5.39,5.69-3.14,1.49,1.45-2.54,3-4,4.66s-3.3,2.85-4.66,4.5C1106.41,1098.39,1097.39,1099.17,1087.67,1100.44Z" transform="translate(0 0)"/><path class="cls-64" d="M926.46,1081.07c.85,1.29.13,1.86-.45,2.4-1.71,1.58-3.76,2.88-5.15,4.69-6.67,8.7-14.64,11.32-24.56,5.71-2.12-1.2-3.2-.34-4.33,1.52-1.46,2.4-3.41,4.5-4.9,6.88-5.54,8.87-12.5,16.07-22.19,20.51-6.15,2.82-10.55,8.11-15.15,12.79-4.08,4.14-8.41,4.39-13,3.07-5.6-1.62-9.54-.53-12.5,4.58-1.23,2.13-3.39,3.77-4.46,6-4,8.24-11.07,10.8-19.5,10.74a8.21,8.21,0,0,0-6.5,2.95c-3.85,4.14-7.82,8.18-11.81,12.19-.84.85-1.78,2.7-3.17,1.44-1.57-1.41.52-2.22,1.27-3,4.48-4.69,9.09-9.27,13.59-13.94,2.47-2.56,5.81-2.42,8.79-2.46,6.12-.09,10.8-2,13.8-7.66,1.21-2.29,3.79-3.91,4.84-6.25,4-9,11-9,18.87-6.71a6,6,0,0,0,6.69-1.74,108.81,108.81,0,0,1,26.5-20c5.24-2.77,7.29-8.45,10.82-12.77,3-3.71,5-9.32,8.79-11.12s8.89,2,13.41,3.34c2.58.73,3.88.25,5.58-1.4,3.46-3.35,7.12-6.49,10.68-9.74C923.54,1082.05,924.64,1081.07,926.46,1081.07Z" transform="translate(0 0)"/><path class="cls-65" d="M1025.17,849.92l-3.28,1.05q6.87-21.35,13.76-42.69a4.3,4.3,0,0,0-.17-3.33c-1.3-2.92-.2-5.43,1.71-7.71,1.35-1.62,3-3,5.11-2s2,3.18,1.06,5.21c-.54,1.2-1.12,2.46-.3,3.77,5.18,8.21,9.16,17.13,15,25l-2.25,2c-3.12-.93-3.8-3.95-5.17-6.27-3.33-5.69-6.56-11.44-10.29-17.68a168.82,168.82,0,0,0-5.69,16.89c-2,7-4.59,13.82-6.46,20.87C1027.68,846.88,1027.17,848.88,1025.17,849.92Z" transform="translate(0 0)"/><path class="cls-42" d="M1318,921.27a6.69,6.69,0,0,1-3.67,5.1c-9.66,5.56-19.28,11.18-28.93,16.74-1.37.79-3.06,2.29-4.32.32-.93-1.44-.2-3.26,1-4.56a8.52,8.52,0,0,1,1.92-1.57q14.87-8.65,29.77-17.26C1315.59,919,1317.57,917.79,1318,921.27Z" transform="translate(0 0)"/><path class="cls-42" d="M1202,984.84c1.92-.11,2.34.89,2.14,2.5-.31,2.42-2,3.73-3.87,4.84q-14.38,8.36-28.79,16.69c-1.22.7-2.71,2.14-4,.68-1.44-1.64-.3-3.42.77-4.95a3.72,3.72,0,0,1,1.08-1q15.66-9.14,31.35-18.23A9,9,0,0,1,1202,984.84Z" transform="translate(0 0)"/><path class="cls-66" d="M798.13,1119.49c-.25-4,2.77-7.15,3.66-11-1.7-.25-2.48,1.09-3.66,1.44-.92.27-2,2-2.82.1a2.36,2.36,0,0,1,1.31-2.93c3-1.72,5.94-3.4,8.92-5.1,1.34,2.56-.07,4.29-.79,6.06-1.12,2.74-3.32,4.74.93,7.65,3.08,2.11,1.25,6.81-.28,10.18-1.43,3.13-3.69,5.53-7.32,6.06A2.66,2.66,0,0,1,795,1130c-.42-1.13-.68-2.27.26-3.26,1.5-1.58,1.72.56,2.58.88,2.62.95,4-.93,5.24-2.64s1.84-4.28.51-6.06C802,1116.76,800.29,1120.35,798.13,1119.49Z" transform="translate(0 0)"/><path class="cls-67" d="M816.05,1100.47c-2.78-.8-4.7,3.9-6.16,1.24-1.59-2.9,2.61-3.44,4.44-4.78a51.1,51.1,0,0,1,5.38-3c1.34,3.77-1.24,6.21-2.19,9-.48,1.45-1.42,2.12,1,3.47,4.48,2.47,2.65,7,1.25,10.68s-3.93,6.77-8.38,6.62c-2.24-.08-2.95-2.22-2.43-4.13.77-2.83,1.77-.74,3-.08,2.3,1.22,3.72-.69,4.9-2.22,1.46-1.91,2.12-4.16,1-6.52-.45-.93-1.37-.68-2.17-.41-1,.34-2,1.84-3.05.81-1.32-1.33.07-2.82.55-4.13C814,1104.85,815,1102.79,816.05,1100.47Z" transform="translate(0 0)"/><path class="cls-68" d="M992.42,1119.46c-.38-4,2.85-7,3.52-10.8-2.59-.45-4.78,3.78-6,1.46-1.55-2.87,2.45-3.66,4.4-4.85,1.73-1,3.84-3.59,5.5-2.24,1.85,1.5-.37,4-1.14,5.85-1,2.51-2.66,4.1,1,6.63,3.15,2.16,1.62,6.79.07,10.17s-3.67,6-7.66,6.3a3.31,3.31,0,0,1-2.73-5c1.3-1.53,1.78.14,2.68.61,2.34,1.21,3.82-.48,5-2.08,1.36-1.91,2.55-4.27,1-6.45C996.23,1116.73,994.58,1120.47,992.42,1119.46Z" transform="translate(0 0)"/><path class="cls-69" d="M804.94,1228.37c-.34-6.14-.07-11.1,3.35-15.2,1.47-1.77,3.31-3.65,5.9-2.7,2.32.84,2.8,3.24,2.78,5.4,0,5.26.83,10.63-1.19,15.73a11.42,11.42,0,0,1-3.61,5.24c-3.73,2.79-6.69,1.56-7.19-3.12A44,44,0,0,1,804.94,1228.37Z" transform="translate(0 0)"/><path class="cls-69" d="M983.67,999.28c1,1.65-.39,2.88-.67,4.26s-.74,2.51-1.12,3.78c5.53,1.15,7.11,3.78,5.89,9.58-1.28,6.09-5.78,10.95-9.27,10-3.24-.85-4-5.83-1.77-12.47,1.31-3.92,2.74-7.8,4.1-11.7C981.36,1001.27,981.55,999.51,983.67,999.28Z" transform="translate(0 0)"/><path class="cls-67" d="M796,1242l5.58-2.66c1.35,2.33.19,3.6-1.66,4.39-3,1.29-6.42,5.64-8.76,3.59-2.16-1.9,1.74-5.75,3-8.71,1.39-3.36,3.42-6.46,4.71-9.85.69-1.82,1.62-4.82-.83-5.65s-3.39,1.85-4.17,3.94c-.5,1.31-.28,3-2,3.77-1.31-4.18,1.33-10.36,5-11.66,2.87-1,4.45.3,5,3.1.66,3.59-.32,6.9-1.84,10.1-1.43,3-2.9,6-4.34,8.93C795.62,1241.33,795.77,1241.51,796,1242Z" transform="translate(0 0)"/><path class="cls-66" d="M994.67,1013.76c3,.44,5.08-3.44,6.35-1,1.42,2.69-2.38,3.3-4.16,4.5-2,1.38-4.25,2.5-6.4,3.74-1.33-2.38-.13-4.12.72-5.86,2.25-4.63,4.74-9.15,6.74-13.87.82-1.94,2-5.12-.94-6-2.3-.69-3.34,2.08-4,4.21-.42,1.33-.18,3.07-2.05,3.62-1.12-4.16,1.25-9.76,4.83-11.48,3.18-1.53,4.77-.06,5.2,3a17.18,17.18,0,0,1-2,10.59C997.5,1007.9,996.19,1010.7,994.67,1013.76Z" transform="translate(0 0)"/><path class="cls-70" d="M978.81,1139.71c-.54-1.59.35-2.86.79-4.2.78-2.36,2.87-5.16-2.14-5.35-1.22-.05-1.57-1.61-1.94-2.7-1.49-4.28,1.32-12.33,5.19-14.7,2.43-1.49,4.82-1.74,6.15,1.41C988.71,1118.54,983,1136.61,978.81,1139.71Z" transform="translate(0 0)"/><path class="cls-71" d="M788.63,1112.15c.86,1.15.16,2.19-.24,3.26-.95,2.57-2.94,5.44,2.31,5.66,1.27.06,1.79,1.85,2.14,3.14,1.17,4.4-1.51,11.78-5.19,14.35-3.07,2.15-5.63,1.49-6.72-1.72C779.38,1132.25,784.59,1115.54,788.63,1112.15Z" transform="translate(0 0)"/><path class="cls-45" d="M1011.22,986.85l-8.58,4.62c1.61-6.85,7.39-6.75,11.14-9.43a167.69,167.69,0,0,1-5.76,29.25l-1.92-.44Z" transform="translate(0 0)"/><path class="cls-72" d="M785.11,1233.48c-2.48,1.07-2.66,5-4.41,3.86-2.2-1.51.46-3.87,1.49-5.51,1.42-2.24,1.93-6.61,4.87-5.95,2.09.47.71,4.7.81,7.22.2,4.8.1,9.61,0,14.41,0,1.36.54,3.51-1.62,3.45-1.84-.06-1.11-2.08-1.14-3.25C785.06,1243.1,785.11,1238.49,785.11,1233.48Z" transform="translate(0 0)"/><path class="cls-73" d="M784,928.82c.19,3.66-3.22,8.17-5.82,8.28-2,.08-3-.89-3.14-2.94-.2-3.37,3.27-8.08,6.06-8.11C783.34,926,783.47,927.88,784,928.82Z" transform="translate(0 0)"/><path class="cls-74" d="M775.29,913.45c.87-2.36,2.22-5.64,6.11-5.85,2.13-.11,3,2,2.42,4-1,3.22-2.34,6.58-6.29,6.76C775.36,918.5,774.77,916.38,775.29,913.45Z" transform="translate(0 0)"/><path class="cls-75" d="M833.72,843.45c-3.93-4.35-3.93-4.35,2.07-7.28C836.31,838.87,834.68,840.78,833.72,843.45Z" transform="translate(0 0)"/><path class="cls-76" d="M1100.12,551.75c1.59-1.61,1.69-5.68,4.81-4.51,2.78,1,1.14,4.36,1,6.65a3.73,3.73,0,0,1-3,3.56c-2.67.57-1.58-2.4-2.87-3.16A1.76,1.76,0,0,1,1100.12,551.75Z" transform="translate(0 0)"/><path class="cls-77" d="M1108.6,552.67c1.21-1.74-2.93-3.69-1.65-6.67,1.13-2.65,5.55.38,5.41-2.5-1.67,1.93,2.3,4,1.49,6.88S1108,549.42,1108.6,552.67Z" transform="translate(0 0)"/><path class="cls-78" d="M1100.12,551.75c0,.84,0,1.69,0,2.54a20.25,20.25,0,0,1-3.12,7,37.14,37.14,0,0,1-1.93-4.68,5.08,5.08,0,0,1,2-5.69C1098.31,550.06,1099.56,549.78,1100.12,551.75Z" transform="translate(0 0)"/><path class="cls-79" d="M792.9,727.22c-2.13,3.15,2.07,5,1.18,7.82s-5.68-.56-5,4.22c-2.16-1.76.76-3.4-.89-4.75-2.3.23-1.3,2.26-1.71,3.39-.7,1.91-1.13,4.19-3.57,4.16-2.76,0-1.51-2.83-2.32-4.26-1.58,2.24-.77,5.46-3,7.77-2-2.67,2.42-6.29-1.61-8.41-.45-.24,1.33-1.58,2.28-2.16,3.26-2,7.55-2.17,10-5.63C791.05,731.58,791.37,728.63,792.9,727.22Z" transform="translate(0 0)"/><path class="cls-80" d="M1025.17,849.92c4.74-15,9.48-29.95,14.6-46.1,5.86,10,10.94,18.69,16,27.35-3.44,3.05-6.41,7.35-10.43,8.86C1038.25,842.71,1033.51,850,1025.17,849.92Z" transform="translate(0 0)"/><path class="cls-81" d="M807.18,1225.35c-.09-3-.16-6.5,2.3-9.39.84-1,1.83-2.12,3.35-1.59,1.29.45,1.46,1.79,1.55,2.92.32,4.14.59,8.31-.46,12.39-.6,2.34-2,4.89-4.52,4.58-2.72-.33-2.11-3.29-2.21-5.38C807.14,1227.89,807.18,1226.89,807.18,1225.35Z" transform="translate(0 0)"/><path class="cls-54" d="M978,1018.7c.52-2.86,1.34-6.16,4.94-6.82,2.44-.44,2.7,2.07,2.43,3.86-.47,3.11-1.11,6.58-4.89,7.16C978,1023.28,978.05,1020.84,978,1018.7Z" transform="translate(0 0)"/><path class="cls-82" d="M977.83,1122.93c.35-3.09,1-6.38,4.78-7.06,1.8-.33,2.28,1.63,2.2,3.22-.17,3.34-1.11,6.57-4.62,7.49C978.06,1127.14,977.94,1124.77,977.83,1122.93Z" transform="translate(0 0)"/><path class="cls-82" d="M790.53,1127.93c-.1,3.93-3.16,8.34-5.36,7.94s-2.16-2.2-2.14-3.9c.05-3.6,3-8,5.27-7.57S790.24,1126.77,790.53,1127.93Z" transform="translate(0 0)"/></g></g></svg>