<svg xmlns="http://www.w3.org/2000/svg" viewBox="0 0 3710.4 3710.4"><defs><style>.cls-1{fill:#fdfdfd;}.cls-2{fill:#eff2f5;}.cls-3{fill:#fd7ca5;}.cls-4{fill:#a496ed;}.cls-5{fill:#c382e7;}.cls-6{fill:#8b75eb;}.cls-7{fill:#952f58;}.cls-8{fill:#d8dee8;}.cls-9{fill:#fd809f;}.cls-10{fill:#ced5e2;}.cls-11{fill:#444b8c;}.cls-12{fill:#6466d8;}.cls-13{fill:#fba94a;}.cls-14{fill:#9b305e;}.cls-15{fill:#ffc444;}.cls-16{fill:#333669;}.cls-17{fill:#6165d7;}.cls-18{fill:#f7883d;}.cls-19{fill:#fb6fbb;}.cls-20{fill:#b0a3ee;}.cls-21{fill:#bfa9f6;}.cls-22{fill:#1f2046;}.cls-23{fill:#9690e6;}.cls-24{fill:#bda9f5;}.cls-25{fill:#404684;}.cls-26{fill:#383c72;}.cls-27{fill:#fab14a;}.cls-28{fill:#efb251;}.cls-29{fill:#3d427e;}.cls-30{fill:#eef2f4;}.cls-31{fill:#878be0;}.cls-32{fill:#434a8a;}.cls-33{fill:#962f59;}.cls-34{fill:#3f4279;}.cls-35{fill:#8b8cdf;}.cls-36{fill:#a17df5;}.cls-37{fill:#fcb148;}.cls-38{fill:#98305b;}.cls-39{fill:#8a2e4e;}.cls-40{fill:#3e437f;}.cls-41{fill:#faa04c;}</style></defs><title>Asset 16</title><g id="Layer_2" data-name="Layer 2"><g id="Layer_1-2" data-name="Layer 1"><circle class="cls-1" cx="1855.2" cy="1855.2" r="2623.65"/><path class="cls-2" d="M3241.78,2078.77c1.85,1.18,2.12,3,2.17,5,.22,9.23,1.75,18.3,3.42,27.36a34.1,34.1,0,0,1,.41,5.72c.07,3.83,0,7.59,1.34,11.35.8,2.33.5,5.05.59,7.6.1,2.87,0,5.7,1,8.52a23.77,23.77,0,0,1,.92,6.58c.18,5.73-.29,11.46,1.65,17.07.7,2,.26,4.44.3,6.67.1,4.46-.31,8.92,1.42,13.26.68,1.69.44,3.78.49,5.69.19,7,0,13.91,1.56,20.92,1.23,5.49.32,11.46.38,17.21,0,3.83-.06,7.6,1.22,11.37.79,2.33.64,5,.67,7.58.08,7,0,14.07,0,21.11,0,4.77-.36,9.53,1.44,14.21.76,2,.45,4.42.45,6.65q0,48.93,0,97.87a31.12,31.12,0,0,1-1.06,9.47,27.93,27.93,0,0,0-.82,7.56c-.1,6.07,0,12.15,0,18.23-.05,5.4.39,10.8-1.49,16.12-.81,2.3-.34,5.07-.41,7.62-.18,6.67.6,13.39-1.64,19.95-.69,2-.24,4.43-.28,6.67-.08,4.46.29,8.91-1.45,13.25-.68,1.69-.43,3.78-.45,5.69-.06,3.83.15,7.66-1.43,11.33a9.49,9.49,0,0,0-.47,3.78c0,9.27-1.91,18.28-3.5,27.35-.82,4.68-1.15,9.44-1.88,14.16-2.43,15.69-5,31.35-8.18,46.89-3.8,18.36-7.43,36.78-12.1,54.92-6.5,25.3-14.23,50.28-22.92,74.94-5.3,15-11.13,29.84-17.14,44.62-10.14,24.91-22.67,48.62-34.73,72.57-5.29,10.5-11.8,20.4-17.95,30.47-5.14,8.43-10.24,16.92-15.93,25-11.18,15.86-22.36,31.72-34.76,46.71-7.1,8.59-14.47,16.93-21.61,25.46-16.47,19.66-35.79,36.47-53.37,55-8.38,5.35-14.39,13.45-22.54,19.15-5.44,3.81-9.89,8.93-15.18,13.1q-15.73,12.39-31.71,24.48c-16.57,12.46-33.7,24.09-51.16,35.23-11.55,7.37-23.31,14.39-35,21.5-13.66,8.27-27.77,15.69-41.79,23.24-16,8.62-32.1,17.19-49,24-8,3.22-15.47,7.54-23.51,10.74-17.17,6.83-34.09,14.31-51.26,21.15-29.05,11.57-58.8,21.2-88.56,30.72-17.58,5.62-35.46,10.29-53.26,15.2-11,3-22.11,6-33.27,8.56-22.62,5.12-45.1,10.82-68,14.82-15.94,2.78-31.7,6.77-47.71,8.87-10.7,1.41-21.32,3.41-32,4.77-6.54.83-13.22,1.37-19.76,2.95-6.73,1.63-14,1.08-20.75,2.65-8.13,1.88-16.52.83-24.57,3a28.63,28.63,0,0,1-6.63.64c-4.46.14-9-.44-13.22,1.56a1.89,1.89,0,0,1-.94.15c-9.62-.73-18.93,2.52-28.53,2.19a36.61,36.61,0,0,0-12.32,1.2c-3,.91-6.32.56-9.5.67-7,.24-14-.59-20.92,1.61-2.63.84-5.71.21-8.58.33-8.89.35-17.87-1-26.66,1.71-2.34.73-5.08.2-7.64.2H2011c-4.14,0-8.25.18-12.31-1.32-2-.75-4.41-.54-6.63-.57-6.4-.06-12.8,0-19.19,0-1.92,0-4,.4-5.73-.18-7.81-2.59-15.83-1.5-23.77-1.74-1.6,0-3.32.33-4.78-.15-7.16-2.33-14.53-1.63-21.84-1.81a23.1,23.1,0,0,1-6.59-.91,28,28,0,0,0-8.52-1c-4.14-.06-8.27.26-12.31-1.34-1.7-.67-3.77-.51-5.67-.56-4.78-.11-9.54.23-14.21-1.51-2-.74-4.42-.38-6.66-.41-3.19,0-6.35,0-9.44-1.22a13.22,13.22,0,0,0-4.7-.67c-9.9-.05-19.54-2.13-29.28-3.51-5.65-.8-11.35-1.24-17-2-7.87-1.06-15.65-3-23.49-3.65-10.8-.92-21.25-3.74-32.07-4.56-8.18-.61-16.25-2.77-24.36-4.32q-17.76-3.41-35.51-6.92c-17.44-3.48-35-6.57-52.25-10.81-19.76-4.84-39.67-9.07-59.39-14.06-20.35-5.16-40.57-10.85-60.82-16.44-37.19-10.27-73.81-22.38-110.28-34.95-12-4.15-23.89-8.9-35.94-13.06-5.69-2-11.2-4.78-17.43-4.87a4.53,4.53,0,0,1-1.88-.34c-9-4.46-18.72-3.27-28.26-3.34-1.59,0-3.32-.28-4.76.22-6.85,2.39-13.91,1.51-20.91,1.68-4.14.09-8.2.09-12.32,1.26-3.29.93-7,.51-10.47.65-7.3.28-14.57-.3-21.89,1.52-4.83,1.2-10.18.33-15.29.42-4.78.07-9.48,0-14.23,1.37-3.26,1-7,.42-10.48.54-6.36.22-12.67-.26-19,1.45-4.2,1.13-8.9.37-13.37.47-5.72.14-11.37,0-17.1,1.41-4.54,1.12-9.54.39-14.33.51-5.4.14-10.73,0-16.15,1.37-4.53,1.14-9.53.44-14.32.55s-9.46.07-14.23,1.35c-3.9,1-8.25.43-12.4.57-6.35.21-12.66-.26-19,1.45-4.19,1.13-8.89.37-13.37.47-5.72.14-11.37-.08-17.1,1.42-4.21,1.1-8.89.4-13.36.5a77.3,77.3,0,0,0-15.19,1.34c-5.21,1.14-10.81.46-16.24.58-4.77.1-9.46.06-14.23,1.34-3.9,1.05-8.25.44-12.4.58-6.35.2-12.66-.26-19,1.45-4.2,1.12-8.9.36-13.37.47-5.72.14-11.36,0-17.1,1.39-4.86,1.16-10.17.48-15.29.51-4.47,0-9-.09-13.42-.15-.14-.63-.47-1.33-.28-1.87,12.15-35.49,11.5-72.95,16.41-109.51,6.32-47.15,11.15-94.51,16.51-141.79,4.82-42.52,9.86-85,14.75-127.53.66-5.71,1.21-11.44,3.11-16.91,4.62-5.72,8.64-.77,12.5,1,17,8,33.65,6,47.25-5.91,14.69-12.86,19.86-30.86,13.77-48.35-5-14.5-15.14-23.71-30.29-26-17-2.51-31.36,3-42.15,16.91-4.71,6.07-6.06,14.05-11.56,19.62-11.88,1.23-22.86-3.85-34.44-5-8.36-.84-17.17-.06-25.06-4.12-4.39-5.82,1.9-7.26,4.46-9.21,16.52-12.6,32.89-25.36,48.76-38.75,44.06-37.19,85.49-77,119.09-124.1,24.14-33.88,43.16-70.17,49.48-112,5.58-37-.9-71.75-18.79-104.46-18.08-33.07-37.85-65.2-55.17-98.68-9.07-17.54-18.27-35.09-24.14-54.1.59-7.18,6.63-10.57,10.78-15.2,18.82-21,14-52.82-10.24-66.38-7.4-4.14-15.38-6-23.92-4.66-4.11.65-8.23,1.26-12.14-.93a14.55,14.55,0,0,1-4.88-6.95c-14.7-38.42-30.11-76.6-37.42-117.39-1.18-6.62-2.17-13.21-1.89-20,0-11.56.06-23.12,0-34.68,0-3.09.38-6.06,2.88-8.27,6.1,2.29,4.5,7.82,4.76,12.24.9,14.71,6.12,27.27,17.09,37.35,8.82,8.11,19,12.74,31.08,13,60.72,1.09,121.39-2.19,182.1-2.51,22.93-.13,46-.88,68.95-1.3,44.39-.82,88.76-3.12,133.18-1.63a32.86,32.86,0,0,0,10.39-1.47c20.8-1.69,41.63-.52,62.45-.77,13.2.06,26.45,1.67,39.57-1.2,15.62-1.67,31.29-.75,46.93-.77,46.95-.06,93.9-1.43,140.8-2.61,36.42-.9,72.8-.32,109.19-.86,4.48-.06,8.95,0,13.27-1.45a35.83,35.83,0,0,1,8.57-.79c42.82,1.19,85.56-2.11,128.36-2q7.2,0,14.35.46a18.88,18.88,0,0,1,10.66,3.84c45.82,32.13,97.4,50.26,151.32,63,22.45,5.31,44.15,12.87,63.66,25.78,29.76,19.68,48.71,47.43,60.57,80.5,10.11,28.2,14.51,57.36,16.61,87.24,3.6,51.44-1.7,102-11.77,152.26a29.49,29.49,0,0,1-.94,5.9,26.1,26.1,0,0,0-1.23,7.08,35.14,35.14,0,0,1-.8,5.77c-1.63,8.13-1.26,16.29-.31,24.44.42,1.71.65,3.46.9,5.19.24,1.17.47,2.35.77,3.51s.6,2.18.87,3.28.66,2.07,1.05,3.08a18.54,18.54,0,0,1,.67,2c.32,1,.62,2,1,3,.3.62.57,1.26.86,1.89a24.5,24.5,0,0,0,1.63,2.63,21.26,21.26,0,0,1,1.69,2.62c.53.89,1,1.81,1.51,2.72.35.6.66,1.22,1,1.85a29.28,29.28,0,0,0,1.75,2.63c.67.87,1.27,1.77,1.85,2.7.44.59.85,1.2,1.29,1.8.26.27.48.57.74.85.56.53,1.09,1.08,1.64,1.63.3.27.57.55.87.82.62.54,1.2,1.12,1.78,1.7q5.89,5.88,11.79,11.71c.62.54,1.2,1.12,1.79,1.69.31.25.61.54.92.79.66.47,1.3,1,1.95,1.45,2,1.4,3.88,3,5.86,4.47,1.12.71,2.25,1.4,3.4,2.09,5.65,4.28,14.5,5.28,15.1,14.74-2.11,26.45-6.83,52.57-10,78.88-6.76,56.43-13.51,112.84-16.86,169.63-1.79,30.28-2.63,60.56-3.79,90.86-3.51,91.77-14.7,182.67-35.1,272.31-2.55,11.22-4.86,22.49-7.86,33.6-1.09,4-1.76,8.13-.35,12.26,1.14,7.76-.54,15.27-2,22.81-2.57,4.77-7.46,5.63-12,7-14.41,4.17-28.71,8.74-43.12,12.89-2.05.59-4.51.6-6.09,3.33,7.47,4.22,15.6,6.16,23.74,5.07,13.08-1.76,26.13-1.25,39.2-1.4,14.93-.18,17-2.76,13.35-17.11a37.28,37.28,0,0,1-1.06-4.68c.5-9.24,5-17.16,8.47-25.42,3.25-3,7.14-2.48,10.82-1.5,8.71,2.34,15.19-.53,21.21-7,20.81-22.41,40.33-45.82,57.52-71.14,3-4.4,5.25-9.67,11.29-11a1535.93,1535.93,0,0,0,164.78-17.76c21.13-3.5,42.19-7.36,63.11-12,7.38-1.64,14.76-4.68,22.58-2.06,4.62,2.77,5.19,7.72,6.34,12.26q7.77,30.89,15.51,61.78c1.08,4.29,1.91,8.71,5.24,12,8.15,1.9,17.47,2.34,17.74,14.11-8.35,14-13.61,30.46-30.42,37.65a15.55,15.55,0,0,0-4.58,3.43c-1.36,1.36-3,2.87-2.46,4.89.7,2.81,3.4,2.5,5.55,2.55,6.38.16,12.76.13,19.14,0,6.63-.13,10.36-4.43,13.33-9.53,4.06-7,8.76-13.08,15.66-17.7,12-8,12.21-11,3.33-22.82a13.14,13.14,0,0,1-1.87-3.33c-1.24-4.71-.43-9.63-1.57-14.35a14.32,14.32,0,0,1-.06-4.48c.21-1.51.54-3,.87-4.48,4.82-19.52,9.15-39.14,12.16-59,2.77-11.13,2-22.9,6-33.8,2.19-4.2,6.48-4.86,10.42-6.06a1671.66,1671.66,0,0,0,172.13-62.44c64-27.37,125.44-59.36,181.49-100.9,36.44-27,69.29-57.69,92.65-97.25,22.81-38.62,32.38-79.65,22.3-124.22-4.94-21.85-15.43-41.32-26.55-60.35-18.85-32.29-34-65.72-39.71-103.14-8.32-54.48.68-105.47,27.63-153.57,20.34-36.3,44.16-70.41,65.63-106,27.65-45.82,50.15-94.2,71-143.38C3235.66,2085.59,3235.63,2079.83,3241.78,2078.77Z"/><path class="cls-3" d="M3241.78,2078.77a44.39,44.39,0,0,0-3.22,5.78c-7.5,19.37-16.08,38.26-25,57-9,19-18,38.11-28.06,56.66q-15.32,28.26-32.49,55.38c-14.82,23.51-29.8,46.93-44.44,70.56a284.31,284.31,0,0,0-25.53,51.41,224.41,224.41,0,0,0-12.28,50,229.37,229.37,0,0,0-1.09,45c2.4,33.07,10.3,64.85,25.78,94.43,5,9.62,10.31,19.12,15.61,28.59,5.62,10,11.22,20.07,16.06,30.51a164.45,164.45,0,0,1,13.61,44.65,159.47,159.47,0,0,1,1,37.27,157.19,157.19,0,0,1-12.44,48.95c-9.82,23.13-23.32,43.92-39.69,63-28.17,32.8-61.72,59.16-97.59,82.85-37.14,24.53-76.24,45.44-116.56,64.18-42.57,19.78-86.05,37.28-130.33,52.89-27.68,9.75-55.5,19-83.67,27.17a26.44,26.44,0,0,0-2.65,1.1c-3-2.34-2.55-5.58-2.29-8.77,1.91-23.18,3.85-46.38,3-69.67-2.58-68.11-13.2-134.48-42.86-196.7a80.85,80.85,0,0,1-3.61-8.85c-.56-1.42-1.08-2.86-1.67-4.27-.48-.89-.91-1.8-1.35-2.71s-1-1.81-1.48-2.74-1-1.92-1.43-2.9c-17.12-37-23.89-76.21-22.32-116.64,1.35-34.76,4-69.48,4.36-104.29,1-3.87,3.5-6.82,6.29-9.46,21.64-20.41,32.95-46.28,38.16-74.83,6.38-34.92,11.41-70.12,10.49-105.76a395.71,395.71,0,0,0-4.8-52.41c-7.67-65-18.28-129.68-29-194.27-1.82-11,0-19,7.07-28,27.31-34.46,40.7-75,47.59-117.79,10.66-66.11,4.27-129.92-27.87-189.84a18.9,18.9,0,0,1-2.41-6.22c7.64-17.63,18.57-33.38,28.72-49.55,21.63-34.45,45.58-67.32,74.1-96.3,44.91-45.63,97.46-76.8,163-83,63.12-5.92,122.48,7.45,180.17,31.64,23.38,9.8,45.33,22.13,66.7,35.64,4.1,2.59,7.89,5.42,10.19,9.83,11.51,8.6,22.92,17.28,33.74,26.77,34.9,30.62,62.21,66.72,79.07,110.15a273.27,273.27,0,0,1,16.17,59.82c2.1,14.55,3.88,29.06,3.91,43.77,0,2.86.56,5.71.72,8.57.18,3.19.68,6.45.19,9.55-1,6.35-1,12.72-1.14,19.1-.4,16.61-2.86,33-5.31,49.38-3.26,21.79-8.31,43.13-13.92,64.39-6.36,24.05-14.41,47.55-22.92,70.91C3245.86,2066.71,3243.86,2072.76,3241.78,2078.77Z"/><path class="cls-4" d="M3157.53,1598.33c-19.37-13-39.21-25.13-60.27-35.21a435.81,435.81,0,0,0-92.8-32.57,383.89,383.89,0,0,0-45.31-6.87c-10.85-1.11-21.64-1.45-32.49-1.49a251.18,251.18,0,0,0-65.2,8.68c-30.4,8-57.64,22.17-82.79,40.79a302.45,302.45,0,0,0-38.94,34,502.32,502.32,0,0,0-42.66,50.44,875.22,875.22,0,0,0-54.37,83.44c-1.86,3.26-3.41,6.92-6.71,9.22-4.06-.63-5.44-4.19-7.34-7-33.08-49-79.09-81.37-133-103.59-3.83-1.58-7.79-3.8-11.88-1.54-6.59,3.64-10.82.21-14.91-4.26a23.55,23.55,0,0,1-4.55-6.13c-5.66-12.87-8.48-26.47-10.15-40.38,10.06-21.42,20.79-42.49,28.91-64.8a506.62,506.62,0,0,0,29.12-136.46,466.12,466.12,0,0,0-24.71-188.82c-35.49-102.7-98.7-184.25-190.36-242.88-14.39-9.21-20-18.92-19.89-36.17.8-114.5.38-229,.51-343.51,0-5.69-2.17-12.44,4.68-16.35,4.54-2.32,9.1-4.58,13.6-7,33.8-17.78,69.65-30,106.74-38.6,17-3.93,34.37-6.45,51.76-8.76,31.2-4.14,62.45-3.45,93.74-3.29,10.59,2.59,21.56,1.4,32.3,3.35,8.72,1.59,17.6,2.68,26.41,4a348,348,0,0,1,40.16,8.44c29.61,8,58.35,18.51,85.62,32.7a343.65,343.65,0,0,1,66.6,44.77,287.14,287.14,0,0,1,24.25,23.17,369,369,0,0,1,42.85,57.5c22.42,36.72,38.71,76.15,51.69,117,7.23,22.77,13,45.94,18,69.3,2.71,12.75,4.5,25.7,6.49,38.6,2,12.58,3.63,25.21,5.43,37.81a7.79,7.79,0,0,1,.09,1c.76,12.42,1.11,24.88,2.36,37.25a302.83,302.83,0,0,1,1.35,45.94c-.91,17.51-.7,35.1-3.19,52.52-.14,1-.1,1.92-.16,2.87-.76,12.75-.83,25.58-2.47,38.21-2.24,17.24-1.8,34.48-1.34,51.69.85,31.79,10,61,30.11,86.05,15.54,19.35,35.41,33,58.4,42.22,15.41,6.21,31.49,10.33,47.18,15.66,10.9,3.7,21.63,7.85,31.68,13.5a114.15,114.15,0,0,1,37,32.72c14.65,20.16,22.18,42.85,25.93,67.12,2.44,15.81,4.26,31.71,3.3,47.66-.77,12.71-1.62,25.43-3,38.14-2.46,22.88-7.22,45.28-12.07,67.69C3161.62,1583.58,3159.45,1590.93,3157.53,1598.33Z"/><path class="cls-5" d="M645.08,2332.13c1.81-1.13,1.37-2.5.53-4-4-7.3-8-14.58-11.81-21.94-8.87-17-17.58-34.06-24.89-51.8a340.9,340.9,0,0,1-19.64-64.86c-2.8-14.38-4.56-28.92-6.24-43.49-2.47-21.41-2.22-42.84-1-64.15,1.48-25.82,7.14-51,15.54-75.62,7.44-21.75,16.23-43,24.56-64.36a337.12,337.12,0,0,0,18.44-65.21c1.46-8.42,2.85-17,2.69-25.67-.15-8,2.13-15.82,1.47-23.87-1.2-14.61-1.62-29.26-3.31-43.86a430.28,430.28,0,0,0-11.57-61.89,367.24,367.24,0,0,0-18.44-53.26c-7.72-17.52-15.9-34.84-24.08-52.15-11.5-24.31-20.81-49.4-26-75.79a248.49,248.49,0,0,1-4.91-38.84c-.4-10.83-2.16-21.64-1.41-32.49,1.06-15.26,1.44-30.55,3.2-45.78,1.6-13.94,3.48-27.79,6.18-41.54a484.38,484.38,0,0,1,21.1-76.33,397,397,0,0,1,19.06-43.85c4-7.67,8.5-15,13-22.34,5-8.31,11.64-15.18,18.51-21.89a28.14,28.14,0,0,1,7.84-5.42c6.83-3.18,12.4-1.66,16.24,4.88a55.34,55.34,0,0,1,4.14,9.64c4.85,13.85,7.7,28.25,11.31,42.43,6,23.5,13.8,46.42,21.54,69.36.47,1.37.85,3,2.57,3.7,1.43-.83.8-2.19.81-3.27.08-7.35.06-14.71.07-22.06q0-403,.08-806,0-5.76,0-11.52c0-1.92.05-3.85,1.42-5.42,3.29,2.4,3.21,6.05,3.42,9.53.27,4.47.12,8.95.12,13.43,0,266.71.4,533.43-.55,800.14-.11,28.86,7,54,20.1,78.51,4.81,9,9.71,18,14.13,27.21,13,24.21,26.44,48.24,38.66,72.9,29.84,61.8,61.83,122.69,81.93,188.68,7.92,26,12.35,52.67,14.48,79.9,3.06,39-4.85,76.13-16.26,112.88-10.7,34.48-20.4,69.2-26.94,104.76a48.74,48.74,0,0,0-.73,12.33c-11.78,59.57-11.21,119.19-.45,178.79,7.27,40.24,19.37,79.36,28.17,119.25,5.71,25.91,10.3,51.95,12.44,78.4.36,4.47,2,8.7,2.24,13.19-2.07,11.54,1.45,22.83,1.46,34.31.1,77.72-10.43,153.87-32.52,228.43a960.43,960.43,0,0,1-42.6,114.79c-2.05,4.66-4.47,9.15-6.81,13.66-6.11,11.79-11.61,13.81-24.87,9.29-3.11-5-.73-10,.29-14.85,9.35-44.21,15.11-88.89,14.39-134-1-62.37-13.09-122.57-41-178.81-16.75-33.71-39-63.69-65.55-90.43-.72-.66-1.39-1.38-2-2.1-.32-.33-.63-.7-1-1-7.55-8.2-15.4-16.12-23.67-23.62C647,2337.11,643.75,2335.88,645.08,2332.13Z"/><path class="cls-6" d="M645.08,2332.13c.74,1,1.29,2.29,2.26,3,10.2,7.18,18.29,16.53,26.54,25.72-9.46.79-10.75,6.68-10.7,14.95.3,52.9.15,105.79.15,158.69,0,5.74,0,11.45,1.86,17,1,3.07,1.51,6.25-1,9-2.54-2.83-5.17-5.59-7.61-8.51-17.41-20.85-38.33-37.55-61.42-51.58-18.56-11.28-37.52-21.91-56.14-33.1-21.43-12.89-41.37-27.71-59.17-45.44-25.95-25.83-45.46-56-60.67-89a366.73,366.73,0,0,1-21-58.5,417.82,417.82,0,0,1-10.66-51.45c-1.78-13-3.05-26-4-39-.8-10.54-1.26-21-1.24-31.58,0-16.95,1.51-33.79,3.4-50.62a425.8,425.8,0,0,1,9.5-53.61,348.68,348.68,0,0,1,63-131.08c13.23-17.26,27.51-33.64,41.33-50.41,10.79-13.08,21.29-26.35,29.73-41.13a158.86,158.86,0,0,0,20.14-59.4c3.39-26.52-.09-52.18-7.32-77.57-7.31-25.71-19.25-49.32-32.71-72.25-3.23-5.5-6.07-11.23-9.05-16.88-.77-1.46-1.2-3,.31-4.34s3.07-.51,4.46.14c6.16,2.9,11.17,7.41,16.09,12a232.69,232.69,0,0,1,29,33.19c21.94,29.81,39,62.2,50,97.62,6.39,20.51,10.59,41.44,10.59,63,0,17.26,0,34.54-.61,51.79-.36,10.18-1.88,20.33-2.94,30.48-.73,7-1.25,14-2.08,21-3.58,30.42-8.23,60.67-13.36,90.87-6.68,39.35-16.07,78.05-26.48,116.54-3.24,12-6.6,24.07-7.88,36.42-1.37,13.28-3,26.53-1.41,40.11,1.48,13.06,3.2,25.94,7.26,38.44,6.62,20.36,17.62,38.21,31.34,54.5,14.25,16.92,30.16,32.18,46.58,46.94C642.55,2329.24,643.77,2330.74,645.08,2332.13Z"/><path class="cls-7" d="M943,2814.05q-5.21,44.65-10.43,89.32c-3.55,30.08-7.18,60.16-10.68,90.25-2.25,19.33-4.26,38.68-6.5,58-2.86,24.71-5.91,49.39-8.73,74.11-2.24,19.64-4.39,39.3-6.31,59-1,10.36-3.47,20.07-10,28.4-10.31,7.05-22.23,9.55-34.17,11.59-28.86,4.94-57.88,5.1-87,2.49a211.18,211.18,0,0,1-41.28-8c-10.68-3.17-17.13-10.24-19.47-20.45-3.13-13.63-7.17-27.1-7.24-41.4,0-9.53-1.77-19.07-3-28.57-3-22.48-6.12-44.95-9.23-67.42-3.51-25.31-7.1-50.61-10.59-75.93-2.84-20.57-5.55-41.16-8.37-61.74-2.9-21.2-5.87-42.4-8.78-63.6q-3.33-24.21-6.59-48.44-1.49-10.92-3-21.83c.85-4.38,4.12-3.49,6.73-2.66,40.46,12.92,82.27,13.72,124.19,14.72a778.25,778.25,0,0,0,123.12-6.31c14-1.89,27-7.5,40.58-10.74C949,2795,948.34,2804.76,943,2814.05Z"/><path class="cls-8" d="M2282.4,556.85c-1.07,2-2.09,3.92-2,6.29.1,2.56,0,5.12,0,7.68q0,178-.22,355.91c0,8.62,1.37,15.1,10.28,18,17.42,11.24,34.35,23.1,50.59,36a467,467,0,0,1,49.66,46.39c12.83,13.71,24.39,28.6,35.5,43.8a463.62,463.62,0,0,1,47.8,82.74,448.11,448.11,0,0,1,28.09,81.19,443.58,443.58,0,0,1,8.81,45.85c1.64,12.63,2.5,25.33,4,37.92,1.8,15,1.19,30,1.42,45,.09,5.73.34,11.5-1.42,17.12a16.06,16.06,0,0,0-.32,4.77c.12,12.15-2,24.06-3.64,36a464.22,464.22,0,0,1-21.23,89,492.47,492.47,0,0,1-32.67,74.41,26.37,26.37,0,0,1-1.62,2.34c-3.87-.1-3.75-4.67-7.16-6.26a169.13,169.13,0,0,1-3.58,29.88c-38.72,63.29-89.68,114.63-151.93,154.73-7.51,4.83-10.11,10.18-10,18.74.37,31,.18,62.06.12,93.09,0,4.43.65,9-1.93,13.1-10.58,5.22-21.77,3.25-32.84,2.82-2.54-3.1-1.36-6.73-1.34-10.15q.18-39.3,0-78.6c0-11.16-1.41-11.88-11.49-7.24a457.28,457.28,0,0,1-153.88,40.86c-18.19,1.54-36.27,2.35-54.43.57a5.39,5.39,0,0,1-3.49-4c-1.42-5.36-4.32-4.57-7.41-1.61-2.67,2.56-5.23,4.66-8.95,1.88-3.26-5-7.74-6-13.72-6.67-24.14-2.53-48.15-6.65-71.44-13.42-40-11.63-78.46-27.28-114.16-49.18-8.61-5.28-13.77-14.16-22-19.73-3.45-2.33-6.46-5.3-10.7-6.1-8.73-1.64-12.92-7.52-14.94-15.57-.85-3.41-1.59-6.86-2.71-10.19-3.55-10.56-9.25-13.69-19.55-9.7-6.16,2.38-9.58-.82-13.48-4.28-28.46-25.25-50.31-55.94-70.36-87.78-35.43-56.25-56.87-117.75-65.64-183.7-.88-6.61.27-14.92-2.73-19.43-5.81-8.7-2.62-15.51-1.42-24,2-14.47.71-29.35.52-44,0-2.59-.43-5.27-2.07-7.28-3.74-4.57-2.78-7.75,1.06-12.23,5.5-6.41,3.33-15.36,4.36-23,7.64-57.07,25.2-110.8,51.85-161.71,15.94-30.45,35.56-58.36,57.66-84.61,49.23-58.44,108.82-102.92,179.29-132.54a425.73,425.73,0,0,1,105-29.54c14.72-2.11,29.26-6.16,44.39-4.29,3.16.38,5.64-.91,6.29-4.46.48-2.57,1.18-5,4-6.09,7.9-2.07,15.92-1.3,23.87-1,61,2.35,119.84,14.18,175.89,38.85,8.75,3.85,10,2.91,10.26-6.44.22-8.94.06-17.9.06-26.85q0-153.94,0-307.9c0-5.11.26-10.24-.56-15.31-2-12.58-9.17-19.21-21.9-19.92-7.34-.41-14.7-.35-22-1.46-6.12-.93-9,1.91-8.94,8,0,3.51-.06,7-.06,10.55q0,149.63,0,299.26c0,4.78.62,9.69-.92,14.29-1.06,3.2-2.62,7.6-6.77,2.08-.54-5.42-.37-10.85-.37-16.28q0-164.35.17-328.72c0-8.56-3-17-.61-25.59,8.26,0,16.53.36,24.77,0,9.25-.42,18.31.85,27.38,2.17a30.93,30.93,0,0,1,8.17,2.46c9.36,4.21,17.28,10,23.46,18.61a65.22,65.22,0,0,1,12,30.51A5.73,5.73,0,0,0,2282.4,556.85Z"/><path class="cls-9" d="M2184.65,499c3.19,7.49,3.91,15.34,3.9,23.4q-.14,169.29-.17,338.57c0,3.07,1,6.49-1.89,9-3.39.91-5.3-1.61-7.49-3.32-37.46-29.38-74.13-59.73-110.95-89.89-9.41-7.71-9.44-8.13-19.39-.66-35.77,26.86-71.75,53.47-107.13,80.86a63,63,0,0,1-8.61,6.07c-3.63,1.94-6.78,2.2-8-2.84-3.9-20.93-2.66-42.06-2.68-63.12q-.11-131.43.11-262.87c0-14.67-2.08-28.62-7.72-42.07-2.76-8.33-8-15-14-21.21-2.72-2.79-6.91-5-5.93-10.06,11.17-.13,22.36-.56,33.46,1.28a28.59,28.59,0,0,0,3.82.2c23.94.76,47.91,1,71.81,2.45,19.46,1.19,39,.88,58.38,2.24,13.09.92,26.15,1,39.23,1.5,14.35.52,28.68,1.49,43,2.06s26.11,7.72,34.63,19.55C2181,492.94,2182.78,496,2184.65,499Z"/><path class="cls-10" d="M1915.55,487.51a95.65,95.65,0,0,1,10.1,44.2c-.21,100.25,0,200.51-.21,300.76,0,10.55,2.2,20.93,1.52,31.48-.1.3-.2.6-.32.9a5,5,0,0,1-.35.78,4.11,4.11,0,0,1-2.73-2.48c-1.77-5.11-4.43-4.85-8.68-2.37-13.68,8-15.7,6.77-15.72-9.43q-.14-148.76,0-297.51c0-6.72-.09-13.4-1.57-20-1.52-6.84-5-10.69-12.46-10.49-13.76.38-27.48-1.5-41.17-1.63-43.8-.43-87.51-3.19-131.28-4.49-51.09-1.51-102.17-3.87-153.26-5.72-33.52-1.21-67.05-2.39-100.57-3.77q-76.62-3.17-153.26-5.83c-34.48-1.26-69-2.36-103.45-3.77q-76.63-3.14-153.27-5.83c-50.13-1.84-100.25-4-150.39-5.75-29.69-1-59.37-2.83-89.08-3.42-26.68-.53-30.77,3.91-30.77,30.25q0,314.31,0,628.62,0,167.94-.07,335.89c0,5.9,1.53,12.28-3.15,17.42q-9.64-18.43-19.29-36.85-8.61-16.37-17.29-32.69c-2.3-6.41-2.94-13-2.94-19.8q.06-448.08,0-896.17c0-9.69.86-19.16,4.31-28.28,7-18.34,17.86-32.44,38.66-35.86,3.76-.64,7.55-.56,11.35-1.48a42,42,0,0,1,19,.06,47.87,47.87,0,0,0,10.43,1.08c7.35,0,14.71,0,22.06.07,6.36.07,12.75-.49,19,1.5,2.06.65,4.44.33,6.68.34,8.63.05,17.26,0,25.89.08,5.73,0,11.47-.34,17.1,1.47,2,.66,4.44.36,6.67.37,8.31.05,16.63,0,24.94.08,5.41,0,10.81-.29,16.15,1.41,2.35.75,5.07.41,7.62.43,8.95,0,17.9,0,26.85.08,5.1,0,10.18-.24,15.2,1.39,2.34.75,5.06.43,7.62.45,7.35.06,14.7,0,22.05.08,6.37.07,12.76-.49,19,1.5,2,.65,4.44.32,6.67.34,8.63,0,17.27,0,25.9.08,5.73,0,11.47-.34,17.1,1.47,2,.66,4.44.36,6.67.37,8.31.05,16.62,0,24.93.08,5.41,0,10.82-.29,16.15,1.41,2.35.75,5.07.41,7.63.43,8.31,0,16.62,0,24.93.08,5.09,0,10.17-.27,15.19,1.37,2.35.76,5.07.44,7.62.46,8,.06,16,0,24,.09,6.36.06,12.75-.49,19,1.5,2.06.65,4.44.33,6.68.34,8.63.06,17.26.07,25.89.11,4.14,0,8.24-.07,12.32,1.27,2.35.76,5.06.54,7.6.57,8.64.07,17.27,0,25.9.08,5.09,0,10.16-.27,15.18,1.41,2.33.78,5.07.42,7.62.43,9.27.06,18.54,0,27.81.08,4.77,0,9.54-.27,14.22,1.39,2,.72,4.43.43,6.66.45,8,.06,16,0,24,.09,6,.06,12.1-.51,18.05,1.47,2,.68,4.43.32,6.67.33,9.91,0,19.82,0,29.73.08,5.72,0,11.46-.46,17.08,1.48,2,.7,4.44.37,6.67.38,8.63,0,17.26,0,25.89.05,5.09,0,10.17-.29,15.18,1.43,2.32.79,5.06.42,7.62.44,9.27,0,18.54,0,27.81,0,4.77,0,9.52-.24,14.22,1.39,2.31.81,5.06.46,7.61.48,7.67.05,15.35,0,23,.05,6,.07,12.1-.52,18,1.52,2,.69,4.43.34,6.67.35,9,0,17.9,0,26.85.05,5.41,0,10.82-.37,16.13,1.48,2,.71,4.43.38,6.66.39,8.63,0,17.26,0,25.9.05,5.08,0,10.18-.36,15.17,1.43,2,.72,4.43.42,6.66.43,7.67.05,15.34,0,23,.06,6.35.07,12.74-.55,19,1.54,2,.68,4.44.32,6.67.33,8.64,0,17.27,0,25.9.05,5.72.05,11.42-.31,17.08,1.5a14.15,14.15,0,0,0,11.13-1.47c5.59-1.87,11.36-1,17-1.09,13.36-.13,26.57,2.7,40,2.09C1910.47,484.65,1913.09,486,1915.55,487.51Z"/><path class="cls-11" d="M778.82,445.63c-1.73,2.06-4.34,2.54-6.59,3.66-20.81,10.39-31.08,27.68-32.8,50.44-.34,4.46-.1,9-.1,13.44q0,447.18,0,894.37c0,6.07-.34,12.13-.52,18.2-7.34-11.25-13.2-23.31-19.12-35.32-5.22-10.58-9.7-21.54-14.68-32.25a29.48,29.48,0,0,1-2.81-13.92c.2-5.11.06-10.23.06-15.34q0-408.17,0-816.33c0-6.38-.12-12.77-.18-19.15,4-23.51,17-39.38,39.78-46.92a51.34,51.34,0,0,1,22.67-2.35C769.29,444.75,774.06,445.15,778.82,445.63Z"/><path class="cls-12" d="M664.17,2560.48c0-2.86.32-5.83-1.75-8.23s-2.14-5.2-2.12-8.12c0-7.67,0-15.34,0-23q0-76.7,0-153.4c0-11.38,0-11.37,10.74-7.25a11.86,11.86,0,0,0,2.83.35v.07a5.08,5.08,0,0,0,1.94,1.88,93.31,93.31,0,0,1,15.91,16.47c4.15,5.63,9.36,10.39,13.67,16,7.8,10.11,15.3,20.4,22.09,31.18a286.76,286.76,0,0,1,14.29,24.88,358.55,358.55,0,0,1,17.16,39.46c6.2,17.41,11.92,35,15.71,53.08,1.89,9,2.75,18.24,5,27.14,2.11,8.43.75,17.21,3.4,25.52.56,1.76.23,3.81.27,5.73.16,6.37-.4,12.76,1.51,19,.63,2.07.35,4.45.3,6.68-.31,13.7,1.14,27.45-1.61,41.08-.68,3.39-.11,7-.17,10.54-.1,5.09.4,10.23-1.52,15.17a12.86,12.86,0,0,0-.36,3.8c-.78,13.35-3.05,26.48-5.09,39.67-1.79,11.64-4.66,23-6.38,34.67-.51,3.46-2.53,6.63-1.91,10.28-2,2.47-4.92,3-7.77,2.83-12-.87-24.14-1.74-35.95-4.22-9.8-2.07-7-10.55-7.34-17.19,1.62-39.88-3.33-79.07-12.51-117.82-.18-.78.19-1.89-1.1-2.09,1.87,3.49,2,7.31,2,11.11.18,32.61.1,65.21,0,97.81,0,3.2,0,6.42-1.54,9.38a2.53,2.53,0,0,1-2.9,1.4q0-63.59,0-127.18a35.81,35.81,0,0,0-2.53-13.94,289.05,289.05,0,0,0-29.58-55.55C667.22,2565.31,665.73,2562.87,664.17,2560.48Z"/><path class="cls-13" d="M719.47,2764.16c-.06,3.81-.17,7.61-.16,11.42,0,2.21,1.19,3.46,3.44,3.68,4.41.44,8.82,1.18,13.24,1.31,10.74.31,21.21,3.91,32.07,2.55,4.46.09,8.91.17,13.37.28,2.89.07,4.67-1.25,5.91-3.89,3.11-6.63,6.42-13.17,9.65-19.74,11.08-4.23,22.4-2.6,33.68-1.44,5.45,2.7,2,5.72.05,8.34-3.3,4.35-8.09,7.15-13.28,11.67,13.19,1,24.59,1.87,35-6.74,5-4.13,9.43-10.81,17.66-9.53,14.06,1.93,28.13,3.74,42.17,5.83,6.2.92,12.32,2.41,18.47,3.64,5.91-1.33,10.18,2.08,14.23,5.37,2.8,2.29,4.41,5.45.73,8.66-9,6.84-19.72,8.88-30.32,11-16.9,3.38-34,4.85-51.23,6.39-16.29,1.47-32.55,1.22-48.83,1.87-7.65.3-15.31,2-22.93.92-8.29-1.16-16.58-.88-24.87-1.15-3.52-.12-7-.16-10.56-.18-14.7-.06-29.28-1.69-43.85-3.5q-9-1.12-18-2.21c-13.34-1.59-26.43-4.23-38.75-9.78-2.09-1-3.5-1-4.83.88-2.28-8.28-1.67-11.12,8.1-15.35,7.6-3.29,15.76-4.84,23.85-6.43,5-1,10-1.51,15-2.35a8.69,8.69,0,0,0,2.45-1.34,3.16,3.16,0,0,0,1.55-.23C708.19,2761.91,713.84,2759.79,719.47,2764.16Z"/><path class="cls-14" d="M1915.55,487.51a292.42,292.42,0,0,1-34.13-1.07c-7.24-.68-14.54-.59-21.81-1-3.07-.18-6.39.69-9.09-1.66a2.39,2.39,0,0,0,.26-1.53A8.57,8.57,0,0,1,1852,480c7.09-13.26,18.24-19.48,33.18-19.16,3.15.07,6.3,0,9.45,0,2.6,2.75,5.15,5.55,7.8,8.25A66.2,66.2,0,0,1,1915.55,487.51Z"/><path class="cls-10" d="M1852,480a2,2,0,0,1-1.21,2.3A1.88,1.88,0,0,1,1852,480Z"/><path class="cls-15" d="M2247.84,1892.12c9.62-1.45,19.34-1.33,29-1.85a15.16,15.16,0,0,0,3.53-1.06c2.19-3,5.5-2.89,8.67-3,24.26-.76,48.41.9,72.55,3.08,6.74.6,14,4,20.26-1.4a64,64,0,0,0,20.37-30.66c1.29-4.25-2.13-6.17-4.92-8.36-11.69-9.17-14.1-16.76-9.65-30.94a62.48,62.48,0,0,1,21.94-31.76c14.56-6.62,27.26-3.37,35.94,9.53a131.56,131.56,0,0,0,9.77,13c5.43,6.27,6.28,12.32.27,18.63-2.76,2.91-4,5,.78,7.87,5.51,3.36,5.84,8.74,1.82,14-12.44,3-13.5,12-12.24,22.61.82,6.92,1.12,13.89,4.95,21.23,21.91-24.68,47.65-44.62,66.41-71.12,20.66-29.18,20.56-59.56,3.88-90.4-12.89-23.84-32.31-41.88-53-58.72-4.47-3.65-9.59-6.73-7-14,.89-2.57-1.54-4.11-3.62-4.95-17.3-7.07-19.28-16.27-14.52-43.19.86-9.73,2.62-19.39,2.4-29.21a30,30,0,0,1,.15-3.79c.12-1.19-.05-2.66,1.53-3.06,2-.51,2.83,1,3.57,2.36.93,1.64,1.56,3.44,2.36,5.16s1.64,3.39,2.46,5.09c2.3,9.25,4.68,18.49,6.88,27.78a39.27,39.27,0,0,0,12.86,20.85c2.43,2.13,3.47,2.16,5.71.08a21.77,21.77,0,0,0,1.84-2.21c1.42-1.72,3.08-1.9,5.11-1.07,4.14,1.68,8.39,3.11,12.5,4.85,38.39,16.2,73.07,38,102.19,68.1,12.72,13.16,23.58,27.74,33.44,43.11a255.23,255.23,0,0,1,24.78,57.88,323,323,0,0,1,9.52,46.7c2.69,21,2,42.11,1.3,63.13-.44,13-2.86,25.92-5.37,38.75-4.59,23.54-11.25,46.43-21.28,68.26-6.81,14.83-14.5,29.17-24.86,41.9-2.41,3-4.95,5.85-7.51,8.69a5.81,5.81,0,0,0-1.59,5.25c2.24,12.52,4.53,25,6.63,37.58,1.58,9.41,2.87,18.88,4.34,28.31,1.72,11,3.59,22,5.23,33,1.59,10.7,2.89,21.44,4.47,32.15,1.61,11,3.5,22,5.09,33,1,6.93,1.56,13.92,2.52,20.85,1,7.26,2.41,14.47,2.09,21.86,1.36,9.57-5.67,13.47-12.19,17.26-22.93,13.29-45.73,26.82-68.68,40.09-34.56,20-68.92,40.29-103.49,60.27-12.6,7.28-17.89,6.69-27.31-4.35-12-14.11-17.87-30.92-19.15-49.17-1.06-15.26-2.82-30.49-2.22-45.87.34-8.82-1-9.48-8.38-5.32-45.86,26-91.19,52.83-136.6,79.55-9.91,5.83-19.8,11.74-30,17.06-6,3.14-9.14,9.86-16,11.54,1.15-6.59,2.27-13.17,3.44-19.75,2.78-15.73,5-31.51,6.31-47.45,1.87-22.64,3.71-45.27,2.86-68-1.31-34.89-5.08-69.45-17-102.62-6.18-17.25-14.2-33.51-25.24-48.23a138.68,138.68,0,0,0-55-43.67c-15.18-6.84-31.1-11.48-47.16-15.73-17.26-4.57-34.66-8.75-51.66-14.16-33.4-10.64-64.31-26.54-93.36-46.11-2.9-1.94-5.44-4.51-8.93-5.5-4.72-1.29-8.52-4.11-12.36-7-37.6-28.62-69.53-62.85-99-99.54-27.88-36.28-53.18-74.32-74.73-114.66-6.46-12.1-13.75-21.88-25.28-29.71-11-7.5-18.82-18.93-25.28-30.86-.72-4.06-1.57-8.11-1.92-12.21s.63-7.8,4.59-9.66c3.78-1.77,6.72.57,9.33,3,6.75,6.22,12.6,13.46,20.74,18.06a26.51,26.51,0,0,1,2.37,1.37,33.77,33.77,0,0,0,3.56,1.78c4.38,1.44,4.67-1.74,5.28-4.63.72-3.36,2.32-6.16,6.07-6.48,4.39-.38,6,3,7.38,6.32,2.39,6,3.45,12.3,4.82,18.54,1.64,7.55,5.28,12.91,14,13,6.6.1,11.16,4.47,15.51,8.69,7.11,6.91,14,14,22,20a24.75,24.75,0,0,1,2,1.86c.32.31.62.65,1,1,13.93,14,29.62,25.76,46.06,36.6a379.42,379.42,0,0,0,50.46,33.09c29.91,16.65,60.62,31.69,93.75,41.12,34.15,9.81,68.72,16.77,104.49,15.76,43,1.69,85.1-6.28,127.55-10.62C2238.75,1890.12,2243.54,1888.83,2247.84,1892.12Z"/><path class="cls-16" d="M2613.74,2758.26a422.46,422.46,0,0,1,37.1,108.1,595.15,595.15,0,0,1,10.22,77.6,535,535,0,0,1,.69,59.25c-.54,12.07-.64,24.23-2.69,36.22a46.2,46.2,0,0,0-.21,6.67q-2.1,14.42-4.2,28.84c-.31,2.15-.1,4.44-1.69,6.24-4.35-4.58-4.23-10.47-4.58-16.15-2.39-39.46-13.2-76-37-108.14-20-27-38.85-54.73-52.66-85.55-2.67-6-6.11-9.19-13.35-7.38-7,1.77-12,4.23-10.69,12.76.47,3.15-.11,6.42-3,8.67-3.35-.21-3.87-3-4.61-5.34-20.31-63.88-41.53-127.47-60.87-191.65-.33-1.31-.6-2.65-.91-4a29.79,29.79,0,0,1-.71-3.65,25.92,25.92,0,0,0-1-4.42,18.85,18.85,0,0,1-.64-2.06,33.62,33.62,0,0,0-1.3-4,16.38,16.38,0,0,1-.65-2,33.7,33.7,0,0,0-1.31-3.9,17.24,17.24,0,0,1-.64-2,37.81,37.81,0,0,0-1.31-3.89,27.67,27.67,0,0,1-.9-2.94c-.34-1-.67-1.94-1-2.9s-.63-2-.9-2.95-.69-1.94-1-2.9-.65-2-.94-3-.71-2-1.05-3a17.34,17.34,0,0,1-.69-3.08,19.62,19.62,0,0,0-1-4,17.19,17.19,0,0,1-.63-2,31.6,31.6,0,0,0-1.28-3.89,14.86,14.86,0,0,1-.65-2,31.33,31.33,0,0,0-1.31-3.9,15.32,15.32,0,0,1-.66-2,38,38,0,0,0-1.37-3.93c-.26-.6-.5-1.22-.72-1.81-.51-.88-1.13-1.39-2.16-.57-12.6,32.47-31.34,61.57-49.1,91.15-30.57,50.95-38,105-23.44,162.46,6,23.56,10.28,47.36,10.33,71.94.09,41.15-9.82,79.77-27,116.75-5.8,12.46-11.84,24.83-19.16,36.52-2.22,3.55-4.39,7.07-8.23,9.14-2.66,2-4,4.94-5.75,7.57-18.68,27.92-40.21,53.52-63.2,78-3.68,3.92-7.41,5.18-12.58,4.67-5.36-.54-10.68-2.15-16.16-1.19-8.15,3.74-15.79,1.77-23.28-2-4.17-2.09-4.22-2.1-3.43-5.36,3.29-13.65,6.88-27.24,9.87-41,7.08-32.43,13.53-65,18.6-97.81q6.51-42.15,10.68-84.58c2-20.66,3.13-41.41,4.56-62.13,1.53-22,1.33-44.08,2.25-66.11,1.41-33.83,3.15-67.66,6.56-101.37,2.25-22.25,4.12-44.53,6.62-66.75,2.65-23.47,5.77-46.9,8.81-70.32,2.68-20.58,5.54-41.14,8.35-61.7.22-1.57.69-3.1,1-4.65,5.13-1.83,9.38,1,13.7,2.82,42.28,17.31,86.06,28.82,131.55,33.23,17.46,1.7,35,3.35,52.61,2.4,4.65.19,9.32.55,13.87-1a35.73,35.73,0,0,1,7.72-.77c6.62-.23,9.65,3.1,10.71,9.57,2.79,17.19,8.87,33.26,17.18,48.59,18.37,33.89,33.37,69.07,40.18,107.32.73,4.08,1.45,8.17,2.12,12.27,1.38,8.45,3,9.46,11.67,7.54,4.06-.91,8.08-2,12-3.28,8.26-2.68,15.14-1.49,19.68,6.68l-.07-.08a14.81,14.81,0,0,1,1.29,2c.19.61.39,1.22.58,1.82A6.43,6.43,0,0,1,2613.74,2758.26Z"/><path class="cls-17" d="M870.15,2762.07c-7.85,4.27-14.6,10.13-21.79,15.33a18.55,18.55,0,0,1-12.33,3.87c-7.3-.32-14.62-.19-21.93-.28-.2,0-.39-.39-1.06-1.09,1.63-2.92,4.65-4.7,7.1-7,4.43-4.07,9.53-7.42,13.16-12.34.23-4.14,3.82-5.61,6.31-8,43.39-40.84,82.4-85,104.45-141.48,16.09-41.2,19.33-83.21,4.31-125.56-9.4-26.49-27-47.67-45.85-67.81-8.5-9.08-17-18.21-27-25.84-2.55-2-4.8-4.29-4.4-8-2.48-5.61-4-11.42-3.59-17.61.51-6.77-1.73-13.21-2.34-19.87-1-10.38-3.51-20.6-5.21-30.92-3.12-18.81-7.85-37.26-12.36-55.75-5.11-21-10.86-41.81-15.67-62.86-2.69-11.72-5.31-23.5-6.75-35.5-.79-6.6-2.56-13.09-3.31-19.69-1-9.15-2-18.35-2.18-27.55-.31-20.11-.09-40.23-.05-60.34,0-4.46-.25-8.93,1.37-13.26a13.12,13.12,0,0,0,.46-4.74c-.25-11.53,2.22-22.73,4-34,.55-3.38,2.17-6.59,3.29-9.87-.15-8.6,4-15.89,7.32-23.36,19.68-44.33,40.32-88.21,61.44-131.86a42.19,42.19,0,0,1,5.45-9c9.68-15.78,22.93-18.56,39.16-10.87a65.11,65.11,0,0,0,6.38,2.06c14.5,5.08,14.94,5.78,13.21,21.61-4.57,12-12.18,22.3-18.11,33.56-10.81,20.52-17.89,42.14-22.51,64.71-1.29,3.17-.76,7-3.47,9.66l-.36,7.32a180.84,180.84,0,0,0-.11,36.78c.72,16.31,4.55,32.07,8.8,47.7,7.1,26.09,16.58,51.4,26.51,76.52,2.33,5.91,4.84,11.74,7.27,17.61,3.59,3,5.08,7.16,6.74,11.31,8.69,21.83,17.16,43.77,26.74,65.23,1.73,3.88,1.5,7.95,2.87,11.76,15.91,37.4,35.09,73.13,55.44,108.26,8.17,14.1,16.26,28.25,24.15,42.51,9.49,17.17,16.56,35.32,19.31,54.82a177.12,177.12,0,0,1,1.82,32.44c-1.71,40.51-16.65,76.42-37.26,110.46-15.79,26.09-34.78,49.77-55.4,72.15-37.83,41.06-80.15,77.1-124.53,110.81C876.42,2756.7,873.33,2759.45,870.15,2762.07Z"/><path class="cls-18" d="M2497,2566.23l-7.49.51c-4.48,1.57-9.33-.56-13.77,1.36-2.55-.07-5.1-.22-7.65-.19a435.56,435.56,0,0,1-122.88-16.68c-21.83-6.15-43.42-13-63.89-22.93a29,29,0,0,0-3.62-1.22c-2.31-2.56-5.49-3.82-8.31-5.63s-5.63-3.69-8.44-5.54a3.53,3.53,0,0,1-1.46-1.22l-6.19-4.35c-.54-.45-1.07-.92-1.57-1.41l-.27-.23a9.73,9.73,0,0,0-1.85-1.66,59.68,59.68,0,0,1-13.54-13.33,5.84,5.84,0,0,0-1.74-2.14l-.05-.06a20.48,20.48,0,0,1-1.65-2l-.16-.23a2.93,2.93,0,0,1-1.39-1.57q-1.26-2-2.53-4a5.59,5.59,0,0,1-1.42-1.78,2.42,2.42,0,0,1-.72-1.56,5.48,5.48,0,0,0-1.47-2.28l-2.13-4a3.3,3.3,0,0,1-1.24-1.78l-.66-2.08c-1.22-.93-.72-2.66-1.72-3.69a2.27,2.27,0,0,1-.43-1.55c-.38-.78-.79-1.54-1.21-2.29-.25-1.14-.49-2.27-.74-3.4-.35-.8-.73-1.59-1.13-2.37l-.75-5.4a110.52,110.52,0,0,1,0-27.74c.15-1.76.3-3.52.44-5.28,1.35-1.9.32-4.35,1.45-6.3.19-1.74.39-3.47.58-5.21,5.28-9,14.25-13.39,22.8-18.27,9.4-5.36,19-10.46,28-16.42,5.85-3.85,12.12-7,18.18-10.56q20.66-12,41.28-24.05,20.22-11.78,40.48-23.52,16.53-9.6,33.06-19.17c1.1-.64,2.2-1.29,3.35-1.85,4.24-2.06,6.23-1.06,6.29,3.48.14,9.27.06,18.54.08,27.81a35.75,35.75,0,0,0,1.11,10.41,28.56,28.56,0,0,1,.75,8.53c-.27,15.35,3.81,29.58,10.93,43a53.17,53.17,0,0,0,12.25,15.77,41,41,0,0,0,5.54,3.69,5.5,5.5,0,0,0,5.49.27c2-1,4.08-1.85,6-3,17-10,33.95-20.16,51-30.15,12.63-7.41,25.41-14.59,38.06-22,18.15-10.6,36.2-21.37,54.37-31.94,10.19-5.93,20.5-11.65,30.79-17.4,6.53-3.66,12.29-7.95,14.16-15.76.53,1.12,1.46,2.22,1.52,3.37.28,5.09,1.28,10.11,1.69,15.12,1.65,20.29,3.22,40.62,2.24,61-2.63,8.62-1.33,17.68-3.13,26.46-1.38,6.78-1.54,13.86-2.33,20.8-2.3,20.24-5.73,40.2-12.58,59.44-6.15,17.31-15.39,32.76-28.52,45.78-3.16,3.14-6.12,6.46-9.17,9.7-2.95,7.41-9.73,10.86-15.91,14.54-19,11.34-39.6,18.78-61.29,23.42C2508.08,2566.88,2502.48,2563.69,2497,2566.23Z"/><path class="cls-19" d="M2451,2632a1.86,1.86,0,0,0,.35,1.59c.93,1.26.76,2.93,1.54,4.24l.72,3.47c.26.87,1,1.5,1.17,2.42.23,1.11.46,2.22.7,3.33.32.87,1.1,1.53,1.18,2.51l.68,3.25a7,7,0,0,1,1.21,2.62l.66,3.15c.71,1.22.46,2.81,1.48,3.92a2.39,2.39,0,0,0,.39,1.82c.76,1.25.54,2.86,1.51,4a2.15,2.15,0,0,0,.38,1.72c.8,1.25.58,2.89,1.53,4.09a2,2,0,0,0,.37,1.64c.81,1.3.66,2.93,1.46,4.23l.78,3.52c.35.79.72,1.57,1.12,2.34,1.48,8.51,4.74,16.51,7.34,24.68q25.8,81.08,51.83,162.08c1.34,4.21,1.8,8.74,4.32,12.54,3.46,2.47,4,6.42,4.89,10.08,13.25,53.27,26.58,106.51,40.33,159.65,1.13,4.37,4,9,.49,13.65-8.61.54-16.86,3-25.27,4.66-18.68,3.59-37.26,7.72-56,11-15,2.62-30.16,4.29-45.25,6.39-12.57,1.74-25.13,3.71-37.74,5.16-9.78,1.13-19.76.9-29.43,2.55-12.32,2.11-24.78,1.05-37.09,3-7.17,1.13-14.63.41-22,.52q4.73-8.31,9.46-16.6c15.69-27.27,28.09-55.86,35.5-86.54a248.83,248.83,0,0,0,6.2-78c-1.44-18.48-5.55-36.58-9.93-54.57-5.16-21.2-8.43-42.59-7-64.49a209.55,209.55,0,0,1,18.84-74.77c6.54-14.26,14.64-27.66,22.87-41,14.8-23.94,28.5-48.43,38.87-74.67a12,12,0,0,1,.7-1.78c.48-.8,1.21-1.72,2.16-1.14.71.43,1,1.49,1.54,2.27.7,1.22.43,2.82,1.5,3.89l.39,1.86c.73,1.25.5,2.84,1.49,4a2.24,2.24,0,0,0,.38,1.77c.79,1.24.58,2.86,1.5,4.07a2.07,2.07,0,0,0,.37,1.68C2450.38,2629.1,2450.2,2630.74,2451,2632Z"/><path class="cls-20" d="M1777.7,1998.41c-3.12,2.4-6.77,1.48-10.2,1.5-26.54.17-53.08.51-79.61.22-15-.16-29.9,2.17-44.94,1.91-21.42-.36-42.84.16-64.26.12-11.82,0-23.49,1.95-35.35,1.8-25.57-.33-51.15,0-76.73.1-12.73,2.37-25.69-.64-38.43,1.59l-63.31.31c-6.62,1.39-13.25,1.63-19.74-.44-8.86-2.81-17.78-4.9-27.19-4.48-7.84.34-11.74-3.58-11.76-11.56-.09-24.89-.33-49.78.13-74.66.16-9.23,2.64-11.47,12.6-11.58,15.79-.18,31.16-2.07,45.73-8.57,9-2,18.12-1.06,27.2-1.09,18.41.42,36.82.05,55.23.19a37.39,37.39,0,0,0,10.31-1.52,31,31,0,0,1,7.61-.73c36.69,1.19,73.3-2.85,110-2,51.68,1.2,103.28-3.17,155-1.94,5.38.13,10.89-.65,16,1.81,4.86,4.22,3.71,9.86,3.24,15.14-2.32,26-5.6,51.9-10.94,77.51-2.58,12.35-1.79,12.7,10.68,13.38C1758.52,1996,1768.64,1992.46,1777.7,1998.41Z"/><path class="cls-21" d="M1364.78,1896.58c-1.67,2.12-4.11,2.85-6.52,3.7a103.25,103.25,0,0,1-36.39,5.84c-13.91-.21-12.75-1.08-12.76,12.94q0,33.92,0,67.84c0,1.91,0,3.82,0,5.73.23,4.63.95,5.34,5.81,5.53a51.32,51.32,0,0,0,8.59,0c7.63-1,14.67,1.26,21,4.8a23.75,23.75,0,0,0,12.68,2.93c2.54,0,5.09.05,7.64.09-2.67,2.55-6,1.64-9.12,1.66-26.5.15-53,.2-79.51.32-5.08,0-10.16-.18-15.2,1.22-2.69.75-5.71.4-8.58.41q-39.75.17-79.5.28c-4.46,0-8.88-.06-13.3,1.17-2.69.74-5.7.46-8.56.47q-41.19.16-82.38.28c-4.14,0-8.25-.09-12.35,1.09-2.38.69-5,.54-7.59.55-26.19.08-52.37.08-78.55.18-12.81.05-23.29-5.13-32.68-13.5-9.71-8.66-15.3-19.43-17.53-32-.72-4-.4-8.26-.64-12.4-.14-2.46.68-5.18-1.67-7.14-.33-3.44-1.08-7,1.66-9.88,3.63-4.39,4.78-10.12,8.35-14.64,12.86-16.31,29-24.31,50.23-25.07,49.46-1.76,99,0,148.35-2.07,41.83-1.72,83.66.36,125.38-1.81,32.89-1.71,65.72-1.15,98.58-1.51C1355.23,1893.49,1360.59,1892.47,1364.78,1896.58Z"/><path class="cls-22" d="M2577.47,3068.56q-12.63-50-25.27-100-9.94-39.34-19.87-78.7a35,35,0,0,1-.57-4.72,58.6,58.6,0,0,0,.18-13.24c-.51-5.45.48-6.59,5.75-8.27,4.23-1.35,8.54-2.53,12.88-3.45,3-.64,5.71.19,7,3.47.61,1.47,1.42,2.86,2.16,4.27,7.67,14.71,15.38,29.4,23,44.14,1.34,2.6,3.3,4.66,5,7,7.1,9.78,13.88,19.8,21,29.53a330.36,330.36,0,0,1,20.26,31.21c3.67,6.39,6,13.35,8.57,20.22,5.34,14.35,8.51,29.25,11.55,44.23a82.68,82.68,0,0,1,1.62,19.91c-.23,5.84,2.06,11.27,2.19,17-.3,10.16-3,19.93-5,29.8-2.16,10.81-4.89,21.52-7.37,32.27l0,0c-.37,1.46-.75,2.91-1.13,4.37-4.11,8.84-11.82,10.88-20.44,10-4.28-.43-8.48-1.47-12.82-.93-5.06.4-7-2.22-8.19-7-5.9-24.37-12.11-48.66-18.24-73C2579.11,3074,2578.25,3071.3,2577.47,3068.56Z"/><path class="cls-23" d="M1777.7,1998.41q-17.65-.11-35.29-.22c-9.15-.06-10.32-1.66-8.43-10.76,2.83-13.59,5.53-27.18,7.35-41,.82-6.19.85-12.62,2.92-18.69a18.89,18.89,0,0,0,.55-5.65c.12-5.7.16-11.31,1.55-17,1.1-4.52.36-9.48.44-14.25,2-2.44,4.89-3.1,7.73-3,19.06.69,38-2.69,57-2.16,3.89.11,7.57.72,10.85,2.94,4.95,5.8,9.95,11.55,14.84,17.39,26.63,31.84,56.14,60.64,89.47,85.44,1.77,1.32,3.32,2.92,5,4.39-11.8.19-23.6.29-35.39.59-18.16.45-36.3,1.2-54.46,1.53-17.86.33-35.73.28-53.6.39C1784.71,1998.41,1781.21,1998.4,1777.7,1998.41Z"/><path class="cls-24" d="M945.75,2785.57c1.25-3.58,0-6.29-3.16-8-3.85-2.15-7.86-4-11.8-6,4.47-19.85,16.54-33.27,36.21-37.47,17-3.65,33.85-.53,46,19,7.49,12,8.56,25.15,3.93,38.46-5.35,15.38-16,25.92-31.56,30.64a43.33,43.33,0,0,1-33.28-3.13c-3.09-1.59-5.44-4.52-9.13-5Q944.38,2799.8,945.75,2785.57Z"/><path class="cls-24" d="M996.17,2222.76c-5.29-9-8.76-18.84-12.82-28.37-8-18.9-15.43-38.08-23.05-57.15a12.73,12.73,0,0,1-.48-2.78c2.86-.08,5.87.39,8.57-.31,13.6-3.54,25.11,1.24,35.42,9.24,9.78,7.6,14.4,18.38,15.5,30.6a44.08,44.08,0,0,1-8.31,30.6c-3.14,4.34-7.33,7.94-11.18,11.74C998,2218.17,996.23,2220,996.17,2222.76Z"/><path class="cls-25" d="M2641.57,3163.92c3.78,2.56,6.73,5.75,8.13,10.24,1.66,5.34.68,9.27-3.59,12.79a37.4,37.4,0,0,1-4.77,3.14c-7.31,4.34-13.19,10.11-16.58,17.93-3.48,8.07-9.56,11.47-18,11.48-5.73,0-11.46.19-17.18.17a29.49,29.49,0,0,1-5.69-.61c-4.24-.83-5.46-4.24-2.71-7.83s5.77-7.17,10-8.67c10.16-3.63,16.08-10.87,19.65-20.63,1.9-5.21,5.74-9.1,9.5-13C2627.43,3160.52,2633.27,3159.15,2641.57,3163.92Z"/><path class="cls-26" d="M2218.45,3214.52c2.32,4.94,4.45,9.92,4.34,15.54-.12,6.8-3.09,10-9.83,10.24-3.83.13-7.67,0-11.51-.14-11.18-.3-22.32-.27-33.48,1.19s-21.6-1-31.3-6.64a3.53,3.53,0,0,1-1.41-2.21c-.24-1.27,1-1.45,1.87-1.7q32.11-9.6,64.24-19.15C2206.81,3214.08,2212.62,3214.35,2218.45,3214.52Z"/><path class="cls-27" d="M2218.45,3214.52c-.87.33-1.77.6-2.6,1-5.94,2.84-10.77,1.6-14.48-3.87.35-7.66.7-15.32,2.4-22.84,7.85-.33,15.52,1.33,23.28,2C2225.28,3199.13,2221.35,3206.64,2218.45,3214.52Z"/><path class="cls-28" d="M2641.57,3163.92c-8-2.1-14.59,1.67-21.29,5-.27-.9-.47-1.83-.82-2.71-3.58-9-3.59-9-13.27-9.47,3.44-.19,6.83-.53,10.22-.52,8.79,0,16.61-2.43,23.09-8.57C2642.24,3152.82,2641.15,3158.46,2641.57,3163.92Z"/><path class="cls-21" d="M1428.18,2005.65c2-2.18,4.64-1.67,7.11-1.67,10.44,0,20.88,0,31.32.08-1.45,1.49-3.32,1.65-5.25,1.65Z"/><path class="cls-21" d="M917.24,1992.63a6.47,6.47,0,0,1-1.54-4.32q0-14.1,0-28.2a5.9,5.9,0,0,1,1.64-4.26Q917.29,1974.24,917.24,1992.63Z"/><path class="cls-15" d="M2214.89,2423.86q0,13.88,0,27.74c-.18-.25-.48-.49-.53-.77C2212.69,2441.8,2211.94,2432.8,2214.89,2423.86Z"/><path class="cls-15" d="M2216.78,2412.28c.32,2.29.67,4.57-1.45,6.3C2215,2416.3,2215.06,2414.1,2216.78,2412.28Z"/><path class="cls-15" d="M2219.16,2466.61a3.76,3.76,0,0,1,1.72,3.69A3.8,3.8,0,0,1,2219.16,2466.61Z"/><path class="cls-15" d="M2215.65,2457a2.33,2.33,0,0,1,1.13,2.37A2.24,2.24,0,0,1,2215.65,2457Z"/><path class="cls-15" d="M2217.52,2462.77a2.33,2.33,0,0,1,1.21,2.28A2.17,2.17,0,0,1,2217.52,2462.77Z"/><path class="cls-15" d="M2259.46,2514.69l1.46,1.23Z"/><path class="cls-15" d="M2251.7,2508.93c.53.47,1.05,1,1.58,1.41A1.58,1.58,0,0,1,2251.7,2508.93Z"/><path class="cls-15" d="M2249.58,2507l1.85,1.67A2.07,2.07,0,0,1,2249.58,2507Z"/><path class="cls-15" d="M2232.6,2489.56l1.65,2A2.09,2.09,0,0,1,2232.6,2489.56Z"/><path class="cls-15" d="M2234.3,2491.57l1.74,2.14Z"/><path class="cls-28" d="M2640.63,3143.29l0,0Z"/><path class="cls-15" d="M2231.05,2487.76c.47.52.93,1,1.39,1.57A1.61,1.61,0,0,1,2231.05,2487.76Z"/><path class="cls-15" d="M2227.1,2482l1.42,1.78A1.85,1.85,0,0,1,2227.1,2482Z"/><path class="cls-15" d="M2224.91,2478.14a2.57,2.57,0,0,1,1.47,2.28A2.54,2.54,0,0,1,2224.91,2478.14Z"/><path class="cls-15" d="M2221.54,2472.38l1.24,1.78C2222.37,2473.56,2222,2473,2221.54,2472.38Z"/><path class="cls-29" d="M2497,2566.23c4.89-2.78,10.52-2.12,15.77-3.15,28.94-5.65,55.37-16.6,78.32-35.39.21,2.85.64,5.7.61,8.54-.16,14.34-.14,28.69-.77,43-.54,12.4-2.08,24.75-2.79,37.14-.94,16.54-1.25,33.06.51,49.62a342.53,342.53,0,0,0,5.53,36.79,218.65,218.65,0,0,0,13,39.88c1.38,3.19,2.39,6.54,3.56,9.81a8.53,8.53,0,0,1-2.46-1.4c-4.46-5.16-9.78-4.92-15.7-3.08-6.68,2.07-13.49,3.71-20.27,5.41-3.31.82-4.57.09-5.72-3.2a32.39,32.39,0,0,1-2-7.35c-1.42-14.94-5.5-29.3-9.4-43.69a277.81,277.81,0,0,0-22.67-56.65c-5.49-10.46-10.62-21.11-15.89-31.68-6.17-12.38-9.46-25.62-11.66-39.17-.74-4.56-.59-4.59-6.07-5.3C2498.24,2566.28,2497.6,2566.27,2497,2566.23Z"/><path class="cls-29" d="M2611.92,2754.43l-1.29-2A1.84,1.84,0,0,1,2611.92,2754.43Z"/><path class="cls-29" d="M2613.74,2758.26c-.41-.67-.82-1.34-1.24-2A2,2,0,0,1,2613.74,2758.26Z"/><path class="cls-1" d="M1822.38,1888.65c-1.28.09-2.55.23-3.83.26l-67.94,1.67c-1.27,0-2.54.18-3.82.28-11.81-.06-23.62-.19-35.43-.18-16,0-32-.64-47.88.39-42.41,2.74-84.89,0-127.25,2.07-26.48,1.32-52.93.63-79.38,1.57-18,1.74-36.09.25-54.13.81-3.75.12-7.61-.91-11.24.87l-26.7.19q-27.35-.07-54.69-.13c-9.91,0-19.84.44-29.74,0s-19.66,1.86-29.6,1.81c-33.58-.15-67.16.11-100.75.23-4.46,0-8.89,0-13.33,1.1-3,.75-6.35.46-9.54.47q-52.79.2-105.55.35c-4.46,0-8.91-.16-13.33,1.09-2.4.68-5.07.47-7.62.49-8.64.09-17.27.18-25.91.12-14.44-.1-26.62,4.87-37,15.06-7.92,7.78-14,16.46-17.29,29.27-.53-3.94-.79-5.88-1-7.83,2.22-17.46,7.37-34.1,14.46-50.15a331.76,331.76,0,0,1,22.25-41c1.33-2.15,2.51-4.41,3.76-6.61,2.74-10.1,9.21-18.23,14.8-26.67,33.89-51.19,53.58-108,67.23-167.28,8-35,14.07-70.24,14.18-106.19.15-48.4-9.59-94.68-33.09-137.42-26.26-47.77-61.26-88.09-105.44-120.11-18.39-13.33-37.34-26-60.65-29.47-15.67-2.32-22.47,3.78-23.24,19.72-.91,19,4.51,36.71,9.48,54.55a762,762,0,0,0,94.26,210.14c15.09,23.38,28.52,47.77,35.39,75.19,8.54,34.09,6.79,67.28-8.61,99.16-16.68,34.56-34.18,68.72-51.37,103a105.74,105.74,0,0,1-8.63,13.8c-10.46,21.79-21,43.54-31.34,65.38-14.7,31-29.11,62.21-42.61,93.79-.5,1.16-.91,2.37-1.36,3.55-2.15-2.14-1.55-4.82-1.07-7.23,2.58-12.78,5.12-25.57,8.05-38.27,5.51-23.88,12.7-47.29,19.9-70.71,5.24-17,10.12-34.19,13.09-51.76,1.32-7.8,2.94-15.65,2.8-23.69a74.59,74.59,0,0,1,1.09-15.25,29.67,29.67,0,0,0-.16-10.46,68.68,68.68,0,0,1-.94-11.43c-.11-13.11-2.36-26-4.67-38.81-7-38.79-20.65-75.43-36.23-111.44-12.15-28.09-25.36-55.69-38.76-83.2-5.58-11.47-11.05-23-16.58-34.49,0-6.72.09-13.44.09-20.16q0-480.81,0-961.63c0-4.8-.12-9.6.09-14.39.44-10,9.18-19,19.16-19.15,12.79-.25,25.74-1.27,38.34.3,16,2,31.89,1,47.82,1.58a18.71,18.71,0,0,1,3.83.13c12,3.06,24.17,1.3,36.26,1.76,7.64.29,15.29-.53,22.87,1.59,3,.84,6.36.29,9.55.31,9,0,17.92,0,26.87.05a40.35,40.35,0,0,1,11.39,1.16c2.69.78,5.69.64,8.56.67,9.27.09,18.55,0,27.83.09,4.78,0,9.53-.2,14.24,1.36,2.34.78,5.07.46,7.62.48,9,.05,17.92,0,26.87.08,6,0,12.12-.42,18.07,1.51,2,.66,4.44.33,6.67.34,9.6,0,19.2,0,28.8.07,4.45,0,8.89-.18,13.29,1.26,2.35.77,5.06.55,7.61.57,9,.07,17.91,0,26.87.08,5.41,0,10.83-.37,16.15,1.44,2,.69,4.44.38,6.67.4,8.32.05,16.64,0,25,.09,7,.08,14-.59,20.94,1.55,2,.64,4.44.27,6.68.27,10.55,0,21.11,0,31.67.06,4.77,0,9.53-.22,14.23,1.39,2.32.8,5.07.45,7.62.46,8.32.05,16.64,0,25,.06,6,.06,12.12-.47,18.06,1.53,2,.68,4.44.32,6.67.33,9,0,17.92,0,26.88.06,5.41,0,10.83-.34,16.14,1.48,2,.7,4.43.37,6.67.38,8,0,16-.06,24,.06,7.32.11,14.67-.64,21.89,1.59,2.36.72,5.09.27,7.64.28,9,0,17.92,0,26.87.05,4.78,0,9.53-.19,14.24,1.4,2.33.79,5.06.44,7.62.46,8.64.05,17.27,0,25.91.06,6.36.08,12.76-.56,19,1.54,2,.68,4.44.31,6.67.32,8.64,0,17.28,0,25.91.06,5.73,0,11.48-.4,17.11,1.5,2,.68,4.43.34,6.67.35,9,0,17.91,0,26.87.06,5.41.05,10.83-.38,16.15,1.47,2,.71,4.43.38,6.66.39,8.32,0,16.64,0,25,.06,7,.09,14-.58,20.93,1.59,2,.64,4.44.27,6.68.28,8,0,16,0,24,0,6.37.07,12.76-.51,19,1.55,2,.67,4.44.3,6.68.31,8.63,0,17.27,0,25.91.05,5.73,0,11.47-.37,17.1,1.52,2,.68,4.44.34,6.67.35,9.6,0,19.2,0,28.79.06,5.42,0,10.81-.23,16.16,1.45,2.64.83,5.7.39,8.58.41,8,0,16,0,24,.06,7.82.09,8.43.47,10.54,8.18a70.37,70.37,0,0,1,2.81,18.82q-.18,153.08-.1,306.15v11c8.66-2.61,13.9-9.73,21.79-13.05,2.36,4.11.51,8.34,1.43,12.18a1,1,0,0,0,.58.66c.27.07.61-.12.92-.19,8.1-4,14.64-10.19,21.78-15.52,25.6-19.1,51-38.49,76.43-57.77q14.88-11.26,29.76-22.53c2.71-2.06,3.16-2.16,5.78,0,7,5.6,13.86,11.28,20.81,16.91q23.07,18.68,46.16,37.33c11.64,9.45,23.2,19,34.85,28.47,7.93,6.44,16,12.76,23.95,19.14,1.13,1,2.61,1.19,3.09-.22a18.32,18.32,0,0,0,.54-5.66c0-11.51,0-23,0-34.53q0-141.46,0-282.94c0-1.92,0-3.84,0-5.75.11-9.07.83-10.38,9.94-8.86s18.41,1.26,27.63,1.73c8.73.44,15,5.12,18.7,12.87,2.07,4.3,3.58,8.87,3.27,13.82-.13,2.23,0,4.48,0,6.71q0,170.73,0,341.45c0,1,0,1.92,0,2.88.12,11-.27,11-10.67,6.34-30.05-13.51-61.29-23.35-93.36-30.53-9.24-2.06-18.78-3.17-28.16-4.68-7.19-1.16-14.61-.6-21.69-3-2.9-1-6.34-.35-9.53-.46-7.3-.25-14.68.76-21.87-1.62-1.74-.57-3.8-.25-5.72-.25q-12,0-24,0c-3.64,3.07-8.05,2.54-12.33,2.65-62.62.87-123.15,11.83-181.11,36.32A474,474,0,0,0,1694.74,1013a478.92,478.92,0,0,0-119,184.64c-14.84,41.49-24.92,84.16-27.43,128.09-3.38,59,.88,117.48,18.1,174.63a483,483,0,0,0,95,174.91c8.49,10,18.27,18.8,27.48,28.13,3.42,3.47,6.39,7.12,8.07,11.73a37.78,37.78,0,0,1,6,7.34,121.66,121.66,0,0,0,14.72,17.56c3.43,3.36,6.91,6.59,11.32,8.68,4.08,2,7.3,5.08,10.67,8,1.71,1.49,3.09,3,2.39,5.75-.5,2,1.05,3.55,2,5.19,16.35,29.57,33.7,58.52,53.2,86.14,7.35,10.42,15.09,20.54,22.63,30.83C1820.81,1885.88,1821.55,1887.3,1822.38,1888.65Z"/><path class="cls-30" d="M871.13,2384c11.43,11.17,23,22.17,34.24,33.55,12.36,12.54,23.58,26.06,32.72,41.19a152,152,0,0,1,22,73.5c1.24,29.61-4.31,57.75-15.7,85a311.86,311.86,0,0,1-36,63.12c-19.86,27.23-43,51.51-67.58,74.41-2.32,2.16-5,4-7.49,5.91l-36.31-.84c4.89-11.77,9.92-23.49,14.66-35.33a881.39,881.39,0,0,0,38.71-120.91c5.39-22.28,9.8-44.77,13-67.44,1.9-13.51,3.52-27.13,4.69-40.78,1-11.14.69-22.35,2-33.39,1.74-14.68,1-29.32,1.24-44a131.64,131.64,0,0,0-1-17.16C869.6,2395.28,868.05,2389.41,871.13,2384Z"/><path class="cls-6" d="M675.81,2362.77a2.36,2.36,0,0,1-1.94-1.88Z"/><path class="cls-1" d="M2051.31,911.75c9.63,0,16.67-.07,23.7,0,6.68.09,13.29,0,20,1.47,6.13,1.36,12.59,1.19,18.92,2.11a445.35,445.35,0,0,1,55,11.5A387,387,0,0,1,2215,942.74c19.74,8.24,39.05,17.39,57.25,28.79,12.43,7.78,25,15.41,36.49,24.51,10.74,8.48,21.89,16.45,31.53,26.3,4.22,4.31,9.5,7.6,13.58,12q14.25,15.45,28.08,31.29c13.28,15.21,24.33,31.91,35.33,48.69a217.78,217.78,0,0,1,13.07,22.28c2.55,5.14,5.8,9.93,8.32,15.08,3.65,7.45,7.17,15,10.3,22.66q9.21,22.59,16.51,45.89a347.71,347.71,0,0,1,12.82,54.71c.8,5.65,2.29,11.19,3.29,16.82a42.43,42.43,0,0,1,.38,6.68c.07,3.2-.09,6.4,1.2,9.45a6.68,6.68,0,0,1,.6,2.79c-.66,17.26,3.94,34.41,1.78,51.57-1.28,10.21-.51,20.47-1.94,30.48-1.66,11.61-2.69,23.3-4.73,34.9-2.7,15.39-6.54,30.44-10.16,45.59-3.72,15.54-9.1,30.53-14.84,45.38a418.65,418.65,0,0,1-20.61,45.3,457.21,457.21,0,0,1-39.84,63c-6.36,8.35-13.33,16.25-20,24.37-11.2,13.66-24,25.74-36.66,37.82-10.81,10.28-22.82,19.34-34.65,28.5a342.28,342.28,0,0,1-39.77,26.45c-14.67,8.38-29.42,16.64-45.17,23.06-12.7,5.18-25.19,10.86-38.28,15a446,446,0,0,1-58.23,14.72c-8.77,1.52-17.54,2.82-26.34,4.05-7.32,1-14.74.47-21.84,1.78-15,2.75-30,2-44.91,1.39-11.67-.43-23.47-1-35.09-3.11-5.6-1-11.34-1.2-17-2.07a374.83,374.83,0,0,1-42-8.82c-27.1-7.44-53.44-16.92-78.71-29.47a516.2,516.2,0,0,1-62.4-37.21c-7.34-5-14.12-10.88-21.1-16.42-18.59-14.76-34.14-32.69-51-49.22-3.85-3.77-7.06-8.2-10.45-12.43a475.16,475.16,0,0,1-39.45-57.48,361.67,361.67,0,0,1-19.63-38.31c-6.75-15.53-13-31.22-18.33-47.25a334.31,334.31,0,0,1-12.41-49c-1.56-9.07-3.86-18-5.22-27.11-1.22-8.16-1.76-16.44-2.31-24.68-.36-5.4.29-10.84-1.6-16.13-.61-1.73-.34-3.8-.34-5.71q0-16.8,0-33.59a24.64,24.64,0,0,1,1-8.52,11.39,11.39,0,0,0,.78-4.69c-.91-9.64,1.45-19,2.19-28.54a173.28,173.28,0,0,1,4-25.39c2.42-10.52,4.17-21.18,7-31.64a510.12,510.12,0,0,1,16.83-51.78,456.93,456.93,0,0,1,21.17-46.1,420.74,420.74,0,0,1,35.54-56.65c7.62-10.21,15.72-20,23.83-29.83,10.44-12.63,22.12-24,33.93-35.13A404.57,404.57,0,0,1,1792.83,998a503,503,0,0,1,44.57-29.57c8.24-4.87,17.11-8.65,25.6-13.11,14.16-7.44,29.09-13,44-18.73,15.22-5.84,30.89-10,46.63-14,8.91-2.26,18.05-3.61,27.06-5.4,6.56-1.3,13.37-.84,19.75-3.19,1.43-.53,3.16-.28,4.76-.33,1.92-.06,3.93.31,5.74-.14C2025.15,910.07,2039.59,912.62,2051.31,911.75Z"/><path class="cls-31" d="M2443,1610.69c0,6.71.26,13.42,0,20.12-.4,8.79,3.85,14.48,11.22,18.41,3.91,2.09,7.81,4.2,11.81,6.35a17.11,17.11,0,0,1-1.06,2.92c-3.54,6-3.58,6,2,10.33,16.44,12.82,31.8,26.75,44.52,43.36,11,14.36,19.35,30,22.79,48a77,77,0,0,1-5,45.91c-5.91,13.69-14.92,25.28-25.16,35.93-8.2,8.52-16.74,16.71-25.13,25-9.08,9-18.23,17.94-26,28.13a19.09,19.09,0,0,1-2.47,2.19c-2.86-2.38-4-5.7-4.78-8.9-2.61-11.3-2.47-22.82-2-34.33.09-2.32,1.57-3.39,3.76-3.39a19.32,19.32,0,0,0,10-2.79c5.87-2.82,12.5-2.36,18.58-4.45,16.23-5.61,22-16.34,17.16-32.83-4.12-13.91-11.46-25.58-24.29-33.2-15.77-9.38-27.59-22.51-36.79-38.27-6.08-10.41-10.71-10.81-17.39-.77-7.68,11.54-10.85,24.37-7.22,38.32,1,3.68,3.48,6.91,3.15,11-7.44,7.08-14.32,14.61-18.19,24.31a72.67,72.67,0,0,0-3.78,11.8c-2.17,10.21,1,17.24,9.85,22.72.27.17.57.29.83.48,2.28,1.69,6,1.81,7.07,4.53,1.45,3.56-1.38,6.64-2.65,9.8a83.31,83.31,0,0,1-20.34,29.76,9.25,9.25,0,0,1-8.61,2.66c-10.7-1.7-21.51-2.45-32.31-3.41-20.71-1.85-41.42-1.14-62.14-1.17q0-54.12,0-108.24c0-11.59-.87-9.79,8.57-15.82a478.49,478.49,0,0,0,56.79-42.07A575.34,575.34,0,0,0,2391,1679a402.76,402.76,0,0,0,34-42.57c5.47-7.83,11.35-15.38,16-23.75A9.63,9.63,0,0,1,2443,1610.69Z"/><path class="cls-1" d="M2000.5,1887c-5.87-.26-11.11-2.86-16.47-4.79a488.24,488.24,0,0,1-108.94-55.62c-7.13-4.82-14.74-9-20.76-15.37,3.43-2,6.84-.77,10.13.29a487.27,487.27,0,0,0,91.06,20.1c11.63,1.4,23.31,2.66,35,3.37,8.77,1.35,17.51,2.83,26.38.67,2.85-.7,5.69-.71,8.16,1.3,11.19,0,22.38.09,33.57,0,6.35,0,12.79.71,19-1.63a8.67,8.67,0,0,1,2.85-.23c17.58-.17,34.59-4.27,51.8-7.16,24.34-4.09,47.53-11.93,70.67-20a221.08,221.08,0,0,0,31.71-13.35c2-1,4-2,6-3,7.16-3.42,8.92-2.37,9,5.92.08,28.77,0,57.55,0,86.32,0,2.91-.06,5.76-1.79,8.28-16.44,2-32.87,4.13-49.34,6-15.2,1.69-30.47,2.78-45.65,4.64-15.6,1.91-31.21,1.73-46.84,1.33-2.47-1.45-5.32-2.21-7.53-4.1-13.66-11.66-29.86-13.63-46.79-11.64C2034.52,1890.33,2017.49,1890.44,2000.5,1887Z"/><path class="cls-8" d="M2020.7,877.55c4.64-.9,9.31-.29,14-.24,0,1.6,0,3.2.14,4.79.51,5.93.09,6.45-5.85,6.62a17,17,0,0,1-4.78-.07c-6.34-1.79-12.48-2.21-18.28,1.67-.24.17-.63.08-.93.19-3.79,1.32-7.4-2.5-11.19-.45-3.46,1.87-7.19,2.12-11,2.67-10.67,1.55-21.34,3.35-31.82,5.87a457.39,457.39,0,0,0-45,12.9,470.27,470.27,0,0,0-51.27,21.08c-20.38,10-40.14,21-58.65,34.16-9.85,7-19.88,13.72-29.21,21.48-4.37,3.64-8.43,7.77-13,10.94a100.33,100.33,0,0,0-16.77,15.21c-5.16,5.68-10.75,11-16.24,16.32-3,2.89-5.52,6.22-9.34,8.18a6.87,6.87,0,0,0-2.68,2.64c-3.45,6.2-8.46,11.14-12.93,16.53-7.71,9.3-14.72,19.16-21.93,28.85-8,10.77-15,22.17-22,33.55-9.1,14.7-16.09,30.5-23.82,45.91-3.56,7.1-6.23,14.66-9.14,22.08a446.55,446.55,0,0,0-23.41,80.58c-1.86,9.92-4.25,19.89-4.47,30.13a15.18,15.18,0,0,1-1.54,5.45c-.92,2.14-1.4,4.18-.56,6.47a9.5,9.5,0,0,1,.27,2.84c.25,6.31-1.83,11.23-8.3,13.43,6.38,7.18,6.39,7.18,6.4,17.11,0,13.12-.13,26.23.06,39.34.08,5.8-1.26,10.71-6.09,14.28.63,2.16,2.86,2.28,4.24,3.45,3.93,3.33,4.23,7.79,3.46,12.28-.54,3.18-1.57,6.08,1,8.91a6.44,6.44,0,0,1,1.07,3.58c3.16,34.13,12,67,23.3,99.13a438.88,438.88,0,0,0,30.35,67.1,451.6,451.6,0,0,0,37.5,56.45c4.26,5.52,9.67,10.24,12.53,16.8a1.83,1.83,0,0,0,.5.81c6.2,3.92,9.85,9.81,12.91,16.26a8.83,8.83,0,0,0,3.39,3.21c6.3,3.93,11.48,9.11,16.6,14.38.89.92,1.84,1.77,2.81,2.61a3.31,3.31,0,0,0,4.37.14c.26-.18.49-.41.76-.59,3.46-2.34,6.93-4.88,11.45-3.2a19,19,0,0,1,11.46,10.9,37,37,0,0,1,1.16,4.61c1.08,4,2.19,8,3.3,11.95,1.68,6.09,5,10.14,11.93,10.4,4,.16,7.22,2.3,10,5.09a45.1,45.1,0,0,0,8.8,7.34,17.13,17.13,0,0,1,6.37,7,12.82,12.82,0,0,0,5.38,5.31c12.86,7.06,25.4,14.79,38.63,21.06a549.29,549.29,0,0,0,63.1,24.94c15.78,5.2,31.89,8.63,48.11,11.92,6.17,1.25,12.77.81,18.55,4a3.66,3.66,0,0,0,2.75.24c4.47-1.69,8,1.13,11.88,2.16s8-1.87,12.19-.71c4.7,1.3,6.71,4.54,6.62,9.27-.36.37-.72.75-1.07,1.13-10.21,3.2-20.3-.29-30.18-1.43a402.56,402.56,0,0,1-106.77-27.83c-20.88-8.56-41.93-17-59.86-31.3l.16.14a7,7,0,0,0-2.76-2c-7.1-4.89-13.2-10.93-19.41-16.84-3.45-3.29-7.09-6.38-10.5-9.7-2.32-2.25-4.67-3.19-7.66-1.37-1.89,1.16-3.67.44-5.36-.55-4.25-2.49-7.54-5.75-8.61-10.81s-2.19-9.89-3.33-14.83a37.86,37.86,0,0,0-3.82-10.71,3.91,3.91,0,0,0-3.82-2.29,3.49,3.49,0,0,0-3.19,3.07,77.78,77.78,0,0,0-.57,8.51c-.18,3.63-1.34,4.28-4.87,2.48a44.41,44.41,0,0,1-4-2.59,7.31,7.31,0,0,1-2.9-2l.16.13c-38-30.9-66.66-69.5-91.08-111.44-33.46-57.46-54-119.5-60.69-185.49-13.06-128.32,17-245.62,94.19-349.76,46.88-63.24,105.67-112.62,176.62-147,41.35-20,84.65-34.52,130.33-40.71C1992.76,879.82,2006.78,879,2020.7,877.55Z"/><path class="cls-8" d="M2025.08,1837c-9.35,2.32-18.88,2.1-28.39,1.94-2.23,0-4.5.14-6.23-1.7,5.4-2.94,11.49.35,17-1.87l.47-.42c2.2.06,4.51.37,5.51-2.38,1.41-3.86,4.63-4.85,8.24-5,2.88-.16,4.19,1.55,3.87,4.8C2025.37,1833.83,2025.22,1835.39,2025.08,1837Z"/><path class="cls-11" d="M719.47,2764.16a49.8,49.8,0,0,0-13.67.92,3,3,0,0,1-3.26-1V2639.72c3.05.06,2.49,2.72,2.93,4a243.59,243.59,0,0,1,8.57,35.06c1.83,10.29,2.82,20.7,4.21,31C720.69,2728,719.46,2746.05,719.47,2764.16Z"/><path class="cls-32" d="M2020.7,877.55c-5.59,1.08-11.13,2.6-16.77,3.17A445.91,445.91,0,0,0,1870,915.56c-97,42.11-172,109.36-225.83,200.18-29.45,49.7-48.74,103.23-59.14,160.1a492.06,492.06,0,0,0-6.62,122.27,474.8,474.8,0,0,0,143.46,309.6c2.71,2.63,6.08,4.72,7.7,8.38-6.08-.84-10-5.31-14.27-8.92-3.15-2.64-5.82-5.86-8.72-8.82a57,57,0,0,0-4.07-4c-3.17-2.64-6.15-1.45-6.66,2.8a40.87,40.87,0,0,0,.07,7.58c.24,3.47.68,6.93,1,10.4a399.24,399.24,0,0,1-49.21-52.32,477.55,477.55,0,0,1-97.23-221.34,494.6,494.6,0,0,1-4.73-116.62,476.78,476.78,0,0,1,38-154.7q52.27-121.12,158-200.07c33.23-24.76,69.31-44.43,107.72-60,33.65-13.63,68.57-22.14,104.38-27.54C1976,879.19,1998.33,878.2,2020.7,877.55Z"/><path class="cls-33" d="M2410.65,1787.73c-6.24-6.14-7.23-14.14-7-22.13a57.44,57.44,0,0,1,7.37-26.47,30.18,30.18,0,0,1,8.12-9.32c4.2-3.16,7.55-2.73,10.7,1.38a64.63,64.63,0,0,1,4.69,7.22c8.59,14.93,19.7,27.57,34.6,36.36,14.39,8.5,22.35,21.34,27,36.86a32.54,32.54,0,0,1,.71,15.16,21.13,21.13,0,0,1-11,15c-8.86,4.93-18.25,7.46-28.46,6.21,1.56-3,2.24-6,.47-9.11s-4.88-3.86-8.17-4.12a3.38,3.38,0,0,1-.91-.4c-1-2.23.76-3.47,1.87-4.85,1.6-2,3.7-3.61,5.06-5.73,3.21-5,3-7.33-.43-11.08a109.66,109.66,0,0,1-12.18-15.91C2435.75,1785,2424.29,1782.15,2410.65,1787.73Z"/><path class="cls-34" d="M2007.43,1835.32c-1.78,1.55-4,1.21-6.08,1.33-3.63.22-7.26.37-10.89.54-17.86-1.24-35.67-2.71-53.39-5.47a465.27,465.27,0,0,1-70.77-16.88c-4-1.27-8-2.4-12-3.6a45.27,45.27,0,0,1-5.89-3.15,474.28,474.28,0,0,1-37.2-30.17,8,8,0,0,1-1.24-2.45c2.72.1,4.66,2,6.85,3.17a457.41,457.41,0,0,0,136.63,50.07c16.55,3.2,33.2,6,50.12,6.72C2004.88,1835.48,2006.16,1835.36,2007.43,1835.32Z"/><path class="cls-35" d="M2000.5,1887c6.67-.14,13.35-.23,20-.41,15.22-.43,30.45-1.25,45.68-1.26,16,0,29.76,5.63,39.81,18.72-10.82.66-21.54-.17-32.32-1.3a378.58,378.58,0,0,1-56.16-10.21C2011.77,1891,2005.76,1890.14,2000.5,1887Z"/><path class="cls-32" d="M1729.4,1716l2.9,2C1731,1717.74,1729.69,1717.6,1729.4,1716Z"/><path class="cls-34" d="M1807.42,1773.62c1.12.39,2.26.74,2.76,2A3.88,3.88,0,0,1,1807.42,1773.62Z"/><path class="cls-29" d="M2475.71,2568.1c4.43-2,9.12-1.46,13.77-1.36a5.52,5.52,0,0,1-4.31,1.56Z"/><path class="cls-29" d="M2460.73,2662.5a4.34,4.34,0,0,1-1.48-3.93A4,4,0,0,1,2460.73,2662.5Z"/><path class="cls-29" d="M2449.16,2626.16a4.45,4.45,0,0,1-1.5-4.07C2449.1,2623.1,2449.34,2624.55,2449.16,2626.16Z"/><path class="cls-29" d="M2451,2632a4.52,4.52,0,0,1-1.51-4.16C2451,2628.87,2451.25,2630.35,2451,2632Z"/><path class="cls-29" d="M2452.93,2637.83a4.6,4.6,0,0,1-1.54-4.24C2453,2634.62,2453.16,2636.15,2452.93,2637.83Z"/><path class="cls-29" d="M2462.63,2668.34a4.53,4.53,0,0,1-1.51-4A4,4,0,0,1,2462.63,2668.34Z"/><path class="cls-29" d="M2464.54,2674.15a4.66,4.66,0,0,1-1.53-4.09A4,4,0,0,1,2464.54,2674.15Z"/><path class="cls-29" d="M2466.37,2680a4.75,4.75,0,0,1-1.46-4.23A4.09,4.09,0,0,1,2466.37,2680Z"/><path class="cls-29" d="M2445.4,2614.47a4.24,4.24,0,0,1-1.5-3.89A3.93,3.93,0,0,1,2445.4,2614.47Z"/><path class="cls-29" d="M2447.28,2620.32a4.35,4.35,0,0,1-1.49-4A4,4,0,0,1,2447.28,2620.32Z"/><path class="cls-29" d="M2454.82,2643.72a2.44,2.44,0,0,1-1.17-2.42A2.47,2.47,0,0,1,2454.82,2643.72Z"/><path class="cls-29" d="M2456.7,2649.56a2.69,2.69,0,0,1-1.18-2.51C2455.91,2647.89,2456.31,2648.72,2456.7,2649.56Z"/><path class="cls-29" d="M2458.59,2655.43a2.81,2.81,0,0,1-1.21-2.62A2.81,2.81,0,0,1,2458.59,2655.43Z"/><path class="cls-29" d="M2468.27,2685.88a2.31,2.31,0,0,1-1.12-2.34Z"/><path class="cls-36" d="M904.16,1829.3c0-3.38,2.08-6,3.48-8.8q23.73-47.58,47.54-95.13c7-14,13.32-28.3,16.94-43.64,3.71-15.74,3.59-31.55,1.75-47.55-3.1-26.88-13.13-51.16-26.63-74.22-11.46-19.57-23.2-39-34.67-58.53a624.82,624.82,0,0,1-49.12-103.71c-10.31-28.48-19.93-57.18-27.57-86.51-3.31-12.7-5.73-25.52-5-38.74a41.94,41.94,0,0,1,.33-5.74c2.15-10.89,8-16.94,21-16.4,9.58.39,18.8,3.31,27.58,7.35a230.39,230.39,0,0,1,44.89,27.38c44.1,34.13,79.58,75.52,104.77,125.45a265.59,265.59,0,0,1,24.77,76.09,371.65,371.65,0,0,1,4,40c.84,14.4-.46,28.68-.72,43a171.86,171.86,0,0,1-2.25,21.89c-5.41,37-14.16,73.2-24.85,108.94A425.75,425.75,0,0,1,993,1788.33c-9,15.86-18.64,31.28-28.53,46.56-1.37,2.1-2.32,4.59-4.65,6a47.27,47.27,0,0,1,.5-9.42c.6-3.91-1.56-6.46-5.24-7.77-9.46-3.37-19.47-5-28.71-9a6.74,6.74,0,0,0-7.18.69c-3,2.27-6.43,3.77-8.31,7.49A15.15,15.15,0,0,1,904.16,1829.3Z"/><path class="cls-21" d="M1391.48,1896.39c1.47-1.49,3.34-1.67,5.28-1.67h60.09c-2,2.26-4.63,1.74-7.12,1.74Q1420.6,1896.45,1391.48,1896.39Z"/><path class="cls-37" d="M1977.4,1426.28c-24-24.09-39.22-53.39-49.82-85.31a17.33,17.33,0,0,0-5.09-7.73c-16.17-14.9-26.85-33.13-32.6-54.32a30.86,30.86,0,0,1-1-8.53c.13-8.57,3.56-12.31,11.95-13,1.59-.13,3.2-.05,4.8-.08,11.45.22,14.56,10,20.48,17.2-1.31-6.54-2.8-13.07-3.85-19.66-5.08-31.64,9-61.08,37.13-76.78,23-12.87,47.37-16.53,73.16-9.91,9,2.3,17.8,5.22,27.14,5.91,12.57.93,21.77-3.53,26.68-15.7,1.08-2.69,1.49-7,5.8-6.38,3.24.45,4,3.86,4.81,6.6,5.26,17,14.67,31,28.95,41.87,22,16.74,27.81,39.57,23.69,65.81-.88,5.58-2.09,11.12-3.92,18.21,7.49-11.34,8.65-25.74,23.49-28.77,2.87-.11,5.74-.43,8.59-.29,4.8.23,7.53,2.52,8.78,7.25a14.9,14.9,0,0,1,.65,5.63c-.6,4.39-.86,8.81-2.3,13.13-5.72,17.18-14.33,32.62-26.95,45.65a27.77,27.77,0,0,0-6.65,11.32c-7.21,22.55-16.95,43.93-30.58,63.39-3.47,4.94-7.37,9.59-11.15,14.3-1.59,2-3.65,3.6-4.17,6.27-20.4,26.81-61.34,45.3-98.58,27C1995.55,1443.76,1983.45,1438.76,1977.4,1426.28Z"/><path class="cls-38" d="M2059.59,1769.84c-5,1.14-10.16,1.13-15.26,1.09-87.06-.71-165.88-26.38-236-78.14a399.09,399.09,0,0,1-71.27-68c-1.82-2.22-3.51-4.54-5.19-6.87a1.62,1.62,0,0,1,.7-2.42,50.41,50.41,0,0,1,6.17-2.56,1023.27,1023.27,0,0,1,98.2-29c20.49-4.9,41.09-9.35,61.91-12.66,5.32-.91,8.14,3,11.26,6.06,30.09,29.57,65.92,47.9,107.6,54.41a273.44,273.44,0,0,0,32.37,3.13c4.35.16,9.23-.56,11.55,4.76a28.65,28.65,0,0,1,1.13,9.47q.12,54,0,108.11C2062.72,1761.61,2062.87,1766.16,2059.59,1769.84Z"/><path class="cls-39" d="M2059.59,1769.84q0-66.36,0-132.71c2.35-4.71,6.91-3.75,10.9-4.26,36.92-4.64,69.35-18.75,95.88-45.37,5.21-5.22,9.34-11.29,13.67-17.21,2-2.78,3.6-6.22,7.84-6.26,25.39,2.82,50.56,7.15,75.57,12.25a1003.44,1003.44,0,0,1,98.18,25.33c9,2.8,9,2.92,3.27,10.2-58.76,74.46-133.67,124.29-225.85,147.52a345.93,345.93,0,0,1-73.78,10.7C2063.41,1770.09,2061.49,1769.9,2059.59,1769.84Z"/><path class="cls-40" d="M2169.21,1255.71c-10.06,7.1-16.31,16.84-19.77,28.52a25.86,25.86,0,0,1-1.46,3.54,3.28,3.28,0,0,1-4,1.84c-2.17-.44-2-2.15-1.65-3.72,1.54-6.51,3.6-12.94,4.63-19.53,1.67-10.75,2.13-21.56-.56-32.33a47.89,47.89,0,0,0-12.46-22.28c-3.8-3.87-7.75-7.63-11.89-11.12-14.37-12.08-24.49-26.77-28.53-45.33-.19-.85-.93-1.58-1.9-3.15-1.67,3.16-2.29,6.1-3.48,8.78-3.56,8-9.1,14-18,15.7a40.26,40.26,0,0,1-17.11-.77c-8.05-2-16.08-4-24.17-5.87-23.77-5.38-46.33-1.9-67.52,10-17.43,9.75-29.87,23.76-35.24,43.38-3.62,13.26-2.93,26.57.17,39.79,1.16,5,2.83,9.8,4.3,14.68a2.48,2.48,0,0,1-1.22,3.22c-1.53.75-3.1.71-4.07-1.07a17.09,17.09,0,0,1-.86-1.71c-3.82-9.19-10.29-16-18.81-20.93-3.35-18-9.69-35-18-51.29-2-4-4.12-7.93-6.12-11.93-7.93-15.83-9.15-32.38-5.21-49.45,4.56-19.71,14.09-36.92,27-52.32,19.08-22.85,42.87-38.08,72.48-43.26,21.43-3.75,42.65-2.16,63.55,3.69a139.33,139.33,0,0,1,61.53,35.54c3.67,3.62,6.91,4.72,11.86,3.13,10.13-3.26,20.66-3.9,31.27-3.41a50.32,50.32,0,0,1,13.16,2.34c11,3.56,18.75,10.68,23,21.48a67.31,67.31,0,0,1,4.22,20.55c.88,14.75-.52,29.4-2.29,44-2,16.79-4.58,33.52-7.22,50.23C2173.24,1236.35,2171.09,1246,2169.21,1255.71Z"/><path class="cls-41" d="M2187.92,1564c-3.9,3.46-6,8.26-9,12.33-16.82,22.3-38.57,38-64.47,48.08-15.84,6.16-32.14,10.43-49.22,11.36a30.77,30.77,0,0,0-5.56,1.33,224.82,224.82,0,0,1-39-2.18,189.49,189.49,0,0,1-47.69-12.88,193,193,0,0,1-64.6-43.19c-2.87-2.9-5.3-6.43-9.53-7.66,1-3.36,3.63-4.93,6.51-6.44a137.14,137.14,0,0,0,35.14-26.23c18.39-19.07,29.2-41.51,31.13-68.14.47-6.64,1.93-13.21,2.94-19.81a1.14,1.14,0,0,1,.41-1.45c-.43-7.76,1.84-15.23,2.47-22.87a187.65,187.65,0,0,0,18.79,14.6,90.2,90.2,0,0,0,26.14,11.46c5.46,1.47,11.36,2.85,16.87,2.31,8.44-.83,17.19-1.45,25.07-5.05,11.29-5.15,22.61-10.32,31.29-19.8,2.73-3,6.55-5,9.87-7.44q.3,11.36.59,22.71a1.73,1.73,0,0,1,.28,1.65c.81,6,1.2,12.06,2.51,17.93,4.89,21.92,15.78,40.94,29.44,58.45,10.06,12.91,21.56,24.38,35.61,33C2178.44,1558.92,2183.23,1561.4,2187.92,1564Z"/><path class="cls-37" d="M2106.3,1446.72a2.13,2.13,0,0,1-.28-1.65,7.48,7.48,0,0,1,.6,1.11C2106.67,1446.31,2106.41,1446.54,2106.3,1446.72Z"/><path class="cls-37" d="M1974.93,1449.15a2,2,0,0,1-.41,1.45A.93.93,0,0,1,1974.93,1449.15Z"/></g></g></svg>