<svg xmlns="http://www.w3.org/2000/svg" viewBox="0 0 3000 2000"><defs><style>.cls-1{fill:#fefefe;}.cls-2{fill:#1a2e35;}.cls-3{fill:#fafafa;}.cls-4{fill:#ff4f5b;}.cls-5{fill:#ececec;}.cls-6{fill:#375a64;}.cls-7{fill:#ffbf9d;}.cls-8{fill:#e2e2e2;}.cls-9{fill:#e1e1e1;}.cls-10{fill:#fff;}.cls-11{fill:#2c4952;}.cls-12{fill:#57666b;}.cls-13{fill:#ff505c;}.cls-14{fill:#b2b9bb;}.cls-15{fill:#e1e1e2;}.cls-16{fill:#536267;}.cls-17{fill:#703a42;}.cls-18{fill:#783b44;}.cls-19{fill:#d3d7d8;}.cls-20{fill:#6a767a;}.cls-21{fill:#798388;}.cls-22{fill:#646f74;}.cls-23{fill:#6c787d;}.cls-24{fill:#ff9c6e;}.cls-25{fill:#754b52;}.cls-26{fill:#9aa0a3;}.cls-27{fill:#626f74;}.cls-28{fill:#828d90;}.cls-29{fill:#9c414b;}.cls-30{fill:#773b44;}.cls-31{fill:#6b3b44;}.cls-32{fill:#889296;}.cls-33{fill:#faf9f9;}.cls-34{fill:#949ca0;}.cls-35{fill:#fc707a;}.cls-36{fill:#526065;}.cls-37{fill:#778286;}.cls-38{fill:#a3a9ac;}.cls-39{fill:#7e898d;}.cls-40{fill:#5d6a70;}.cls-41{fill:#b7b2b5;}.cls-42{fill:#faf7f7;}.cls-43{fill:#a7aeb1;}.cls-44{fill:#fd5b66;}.cls-45{fill:#7e888c;}.cls-46{fill:#fe5863;}.cls-47{fill:#526066;}.cls-48{fill:#8e969a;}.cls-49{fill:#937379;}.cls-50{fill:#907279;}.cls-51{fill:#7c6067;}.cls-52{fill:#9fa7a9;}.cls-53{fill:#80888c;}.cls-54{fill:#7e6268;}.cls-55{fill:#afb6b8;}.cls-56{fill:#b9858b;}.cls-57{fill:#acb3b5;}.cls-58{fill:#c28b91;}.cls-59{fill:#9aa2a5;}.cls-60{fill:#fd969d;}.cls-61{fill:#49565c;}.cls-62{fill:#4b575d;}.cls-63{fill:#4c575d;}.cls-64{fill:#969ea1;}.cls-65{fill:#969fa2;}.cls-66{fill:#90999d;}.cls-67{fill:#fd6e78;}.cls-68{fill:#fc717a;}.cls-69{fill:#99a1a4;}.cls-70{fill:#949da0;}.cls-71{fill:#838d91;}.cls-72{fill:#7a8588;}.cls-73{fill:#b9353e;}.cls-74{fill:#b93a43;}.cls-75{fill:#66323a;}.cls-76{fill:#5d3037;}.cls-77{fill:#843c46;}.cls-78{fill:#753a43;}.cls-79{fill:#eef1f2;}.cls-80{fill:#f1f4f4;}.cls-81{fill:#f1f3f4;}.cls-82{fill:#f2f5f5;}.cls-83{fill:#eceff0;}.cls-84{fill:#9babb1;}.cls-85{fill:#90a3a9;}.cls-86{fill:#768c94;}.cls-87{fill:#8a9ea4;}.cls-88{fill:#ced7d8;}.cls-89{fill:#bac5c9;}.cls-90{fill:#873e47;}.cls-91{fill:#d73e48;}.cls-92{fill:#1b2f36;}.cls-93{fill:#713a43;}.cls-94{fill:#7f898d;}.cls-95{fill:#793b44;}.cls-96{fill:#6c3942;}.cls-97{fill:#98a9ae;}.cls-98{fill:#cbd4d6;}.cls-99{fill:#c8d0d3;}.cls-100{fill:#6c5e58;}.cls-101{fill:#424646;}.cls-102{fill:#414546;}.cls-103{fill:#394042;}.cls-104{fill:#373f41;}.cls-105{fill:#655b55;}.cls-106{fill:#58534f;}.cls-107{fill:#484948;}.cls-108{fill:#703a43;}.cls-109{fill:#823c45;}.cls-110{fill:#763b44;}.cls-111{fill:#6f3a42;}.cls-112{fill:#7c3b44;}.cls-113{fill:#ede3e3;}.cls-114{fill:#eee1e1;}.cls-115{fill:#773a44;}.cls-116{fill:#febf9d;}.cls-117{fill:#fcfdfd;}.cls-118{fill:#ff868f;}.cls-119{fill:#ffdbdd;}.cls-120{fill:#fe7d86;}.cls-121{fill:#707c80;}.cls-122{fill:#8b9498;}.cls-123{fill:#a6adb0;}.cls-124{fill:#a2a9ac;}.cls-125{fill:#394a50;}.cls-126{fill:#58666c;}.cls-127{fill:#36484e;}.cls-128{fill:#425358;}.cls-129{fill:#34454b;}.cls-130{fill:#fe8089;}.cls-131{fill:#fe7f87;}.cls-132{fill:#fe7f88;}.cls-133{fill:#fe8088;}.cls-134{fill:#fe8189;}.cls-135{fill:#ff818a;}.cls-136{fill:#fe868e;}.cls-137{fill:#4a5a60;}.cls-138{fill:#4b5b61;}.cls-139{fill:#536167;}.cls-140{fill:#526167;}.cls-141{fill:#56646a;}.cls-142{fill:#4e454c;}.cls-143{fill:#ff7e87;}.cls-144{fill:#556368;}.cls-145{fill:#22353c;}.cls-146{fill:#1f3339;}.cls-147{fill:#395c65;}.cls-148{fill:#506e77;}.cls-149{fill:#41626b;}.cls-150{fill:#3d5f68;}.cls-151{fill:#3f616a;}.cls-152{fill:#fef2f2;}.cls-153{fill:#fef4f4;}.cls-154{fill:#fef3f3;}.cls-155{fill:#fef0f0;}.cls-156{fill:#ffedee;}.cls-157{fill:#ff969d;}.cls-158{fill:#fe9fa5;}.cls-159{fill:#febcc1;}.cls-160{fill:#fff1f2;}.cls-161{fill:#fef4f5;}.cls-162{fill:#fef6f6;}.cls-163{fill:#feb7bc;}.cls-164{fill:#fef7f7;}.cls-165{fill:#fef6f7;}.cls-166{fill:#fe888f;}.cls-167{fill:#fe878f;}.cls-168{fill:#ff8b93;}.cls-169{fill:#fe828a;}.cls-170{fill:#fe818a;}.cls-171{fill:#fe8a92;}.cls-172{fill:#fe848c;}.cls-173{fill:#e3e5e6;}.cls-174{fill:#d9dcdd;}.cls-175{fill:#e4e6e6;}.cls-176{fill:#eef1f1;}.cls-177{fill:#fe5561;}.cls-178{fill:#fe5460;}.cls-179{fill:#ff5763;}.cls-180{fill:#ff8790;}.cls-181{fill:#fe8e96;}.cls-182{fill:#fe9199;}.cls-183{fill:#ff8992;}</style></defs><title>Asset 6</title><g id="Layer_2" data-name="Layer 2"><g id="Layer_1-2" data-name="Layer 1"><ellipse class="cls-1" cx="1500" cy="1000" rx="2121.32" ry="1414.21"/><path class="cls-2" d="M1024,1638.16c-3.65.16-7.3.47-10.94.46q-109.89-.13-219.76-.35c-24.64,0-49.3-.9-73.91-.06-21.49.73-39.11-5.79-52.89-22.38-8.25-7.7-11.89-17.23-11.3-28.46q-.06-275.37,0-550.72c0-21.25,4.47-25,25.61-21.44a12.41,12.41,0,0,1,5.53,2.17c3.72,4.66,2.46,10.21,2.46,15.42q.12,180.93.06,361.85c0,3.33,0,6.67,0,10,.1,5.77,3.14,8.45,8.79,8.48,3,0,6,0,9,0H2352c31,0,62-.57,92.94-.48,12.79,0,13.54-1,13.79-13.57.11-5.65-.48-11.35,1.13-16.89,3.42-7.91,10.83-10.38,18.06-12.84,4.8-1.63,7.64.76,8.44,5.61.65,4,.43,8,.44,12,.09,66.88-.17,133.76.15,200.64-1,27.86-23.1,50.85-51.18,53.28-4,.35-8,.26-12,.26q-139.72,0-279.45,0c-5.65,0-11.32.19-16.92-.93-5.84-1.9-11.88-1.33-17.85-1.33-238.78,0-477.57.56-716.36-.27-116.21-.4-232.43-.17-348.64-.44C1037.73,1638.12,1030.83,1635,1024,1638.16Z"/><path class="cls-3" d="M2486.27,662,2826,662c2,0,4,.09,6,0,4.11-.17,6.25,1.56,6.08,5.86-.11,2.66,0,5.33,0,8l0,315.7v1c0,13.5,0,13.5-14.13,13.41-3.82-3-8.31-1.89-12.53-1.9q-56.88-.12-113.75,0c-148.47-.5-296.94,1.43-445.4.87-45.4-.09-90.79,0-136.19-.08-4.88,0-10,.9-14.44-2.28-3.56-5.09-2.33-10.94-2.34-16.5q-.12-146.44,0-292.9c0-3.66.06-7.33-.05-11-.53-17.28,1.24-19.4,18.08-19.34,119.29.4,238.6-1.07,357.85,1,79.59,1.34,159.16.18,238.72,1.31q54.36,0,108.72,0c13.75,0,12.45-1.65,12.46,12q.08,63.33,0,126.67,0,76.54,0,153.09,0-76.35,0-152.7c0-43.27-.18-86.54.17-129.81.06-7.39-1.75-9.6-9.35-9.51-37.28.4-74.56.18-111.85.18-72.65,0-145.29.06-217.94-.2C2493,664.76,2487.94,668.23,2486.27,662Z"/><path class="cls-2" d="M331.83,1702c2.08-35.19,3.71-70.39,4.42-105.63-2.55-11.61,1.11-22.93,1.58-34.4,3.22-48.43,4.94-96.92,6.45-145.42.36-10.8,1.76-21.54-.74-32.39-2-8.85,1-17.73,2-26.55a107.83,107.83,0,0,1,2.19-13.62c1.22-23.16,2.54-46.32,3.64-69.49,1.69-35.43,3.22-70.86,4.81-106.3,6.16-5.11,13.38-3.09,20.13-2.56,21.57,1.72,43.16,2.76,64.78,3.41,7,.21,13.94.93,20.88,1.79,6.73.84,10.5-1.71,11.77-8.82,3.06-17,6.11-34.11,9.31-51.14a72.5,72.5,0,0,1,2.52-10.69c.66-1.85,1.3-4.16,3.6-4.23,2.12-.07,3.5,1.7,4.46,3.54a35.74,35.74,0,0,1,2.9,9.53c3.46,16.64,7.58,33.13,11.24,49.72,2.39,10.82,3.27,11.15,14.38,8.75,25.41-5.5,50.49-12.35,75.76-18.4,5.72-1.36,11.71-3.58,17.1,1.2,4.48,15.5,4.18,31.61,5.78,47.44,4.88,48.36,9.18,96.78,13.58,145.19,4.25,46.76,8.68,93.49,12.86,140.26,2.81,31.47,5.74,62.94,8.22,94.44,1.19,15.1,1.88,30.23,2.35,45.37.11,21,3.38,41.71,5,62.56,2,25.18,4.65,50.31,7,75.46.72,7.62,1,15.29,2.22,22.83,1,6-.48,10-6,12.81-1.51.76-4,1.21-4,3.87-17.5,1.26-34.59,4.94-51.67,8.74-4.78,1.06-9.62,2.9-14.65,1-12.41,1.5-12.6,1.53-14.55-11.16q-11.71-76-23.23-152c-7.74-50.67-15.57-101.33-23.19-152C520.08,1397,500.49,1299.72,483.78,1202c-.32-1.9-.15-4-2.88-5.52-.84,9.27-1.73,18.27-2.45,27.29q-6.42,80.65-12.78,161.33-6.44,82.17-16.81,163.93c-6.11,47.87-11.43,95.85-17.13,143.78q-7.08,59.51-14.27,119c-.24,2-.92,3.94-.93,5.92,0,4.17-1.78,6-6.08,5.76a92.26,92.26,0,0,0-9.94.49c-3.24,2.68-7.11,3.22-11.12,3.21-17.08,0-34.16.41-51.23-.22-8.64.61-12.83-3.25-13.28-12.06-1.26-24.61,2.65-49,2.24-73.62a10.47,10.47,0,0,1,2.93-7.24,1.27,1.27,0,0,0,.18-1.56C332.47,1722.39,329.59,1712.06,331.83,1702Z"/><path class="cls-2" d="M1286,1866c10-6,19.88-12.15,28.86-19.66,33.82-28.26,52-65.09,59.18-107.93,5.27-31.56,4.3-63-1.84-94.38-.25-1.3-.27-2.65-.4-4,2.72-2.71,6.22-2,9.46-2,135.18,0,270.36-.26,405.52.12,8,2.22,5.08,8.33,4.15,13.11a174.42,174.42,0,0,0-1.11,61.43c6.34,39.86,25.26,73.31,52.27,102.53,15.16,16.39,31.38,31.67,50.16,44.06,2.84,1.87,9,3.71,4.23,9.57q-304.55.23-609,0Q1285,1868.26,1286,1866Z"/><path class="cls-4" d="M282.91,1006c-10.75-2.82-20.12-8.46-29.6-14-9-5.3-11.64-13-10.55-22.81a346,346,0,0,1,10-50.88q18-67.5,36.44-134.88c4.66-17.11,11.33-33.4,21.13-48.29s22-26.39,38.62-33.47c17.14-7.3,33.72-15.91,50.77-23.43,7.89-3.49,14.3-8.09,18.84-15.51,2-3.33,4.13-6.83,8.22-9.82,1.38,4.15.57,7.93.08,11.56-1.92,14.15.24,27.49,5.4,40.9,20,51.86,39.36,103.94,59,155.92.69,1.82.82,4,2.65,5.23,2,1.37.22,4,1.9,5.5.86.59.52,4.56,2.29,1.75,3.05-4.82,2.42-10.94,3.3-16.48q12.34-77.76,24.11-155.62c1.1-7.21,1.2-14.44-1.24-21.63-2.13-6.28-3.36-12.86-5-19.29-.44-1.68-.83-3.34,1.07-4.3s3.17.34,4.25,1.59c5.43,6.29,11.08,12.43,16.14,19a33,33,0,0,0,17.6,12.17c10.2,3,20.05,7.15,30.26,10.11,8,2.32,14.24,6.67,20,12.41,17.73,17.57,32.29,37.08,39.66,61.35,1.51,5,3.75,9.74,6.2,16,2.81-4.31,2-7.44,1.79-10.47a1.49,1.49,0,0,1,2.62,0c-.33,21.19,12.36,38.67,16.7,58.54-2.26,7-8.36,5.63-13.36,5.66-32.26.22-64.53.57-96.77-.12-12.78-.28-20.2,3.8-25,16-11.18,28.47-23.13,56.64-35.55,84.6-1.83,4.12-2.8,9-9.62,11.26-.5-11.61-.09-22.65-.22-30.86.61,9.66-.81,22.11,1.06,34.64,1.35,9.06-5.63,15-15.11,13.55s-19.24-.49-28.84-1c-8-.44-11,3-9.42,10.73-8.65,9.62-20.11,8.36-31.32,8.11-10-9.73-22.69-15.68-34.14-23.38-3.28-2.21-6.88-4-9-7.59a319,319,0,0,1-6-40.32c2.63-9.33,3.15-18.86,2.93-28.51q-.28-12.4,0-24.84c.23-8.29,2.28-16.39,2.36-23.27-5.46,20.44-12.52,41.92-18.45,63.72-2.83,8.8-4.93,17.85-7.87,26.61-2.17,6.47-.83,10.06,5.19,13.69,18.65,11.26,36,24.62,54.68,35.8,3.15,1.88,6.41,3.67,6.52,8a12.45,12.45,0,0,1-.41,2.78c-2.36,6.31-3.71,12.9-5.28,19.43a20.41,20.41,0,0,1-.77,2.56c-1,2.53-1.23,5.24-1.81,7.88a24.64,24.64,0,0,1-.82,2.82c-5.53,18.13-5.86,18.73-23.3,12.32-28.29-10.4-57.07-19.32-85.47-29.35l.17.07C288.05,1006.14,285.06,1007.44,282.91,1006Z"/><path class="cls-2" d="M674.45,836.4c-2.93-6.7-5.62-13.52-8.84-20.08-5.8-11.83-9.61-24-8.43-37.38-.35-63.27,1.06-126.56-.44-189.8-1.79-75.83-2.13-151.64-1.51-227.45.88-12.46,6.73-22.67,14.59-32,2.59-3.4,6.72-4,10.29-5.67A108.47,108.47,0,0,1,700,315.82c4.21-1.57,8.59-.75,12.87-.75q839.69-.06,1679.37.09c13.34,0,26.32-3,39.73-2.58,32.21,1,53,21.42,53,53.38q0,142.26,0,284.51c0,16.58,2.74,14.3-15,14.45-3.18,0-6.79,1.12-9.17-2.31-2.81-5.64-1.92-11.73-1.93-17.65-.23-96.09.14-192.18.32-288.27,0-4.82,1.45-10.14-3.24-13.92-4.46-2-9.19-1.48-13.82-1.48q-868.2,0-1736.41,0c-4.63,0-9.37-.62-13.7,1.7-4.51,3.94-3.09,9.27-3.07,14.1.56,154.22.34,308.45.33,462.68,0,6.29.79,12.69-1.51,18.81C682.32,843.74,677.66,844.45,674.45,836.4Z"/><path class="cls-5" d="M680.11,324.05l-7.77,6.53c-50.62.67-101.24.14-151.85.28-29.64.08-59.29-.05-88.93,0-11.88,0-12.78,1.37-9.48,12.87a85.46,85.46,0,0,0,10.41,23.7c11.21,17.11,27.19,22,45.93,14a161.91,161.91,0,0,0,20.19-10.94c5.12-3.11,10.3-6.13,15.66-8.82,30.2-15.16,56.87-9.53,78.47,16.67,9.81,11.9,17.42,25.14,24.19,39,4.28,8.73,25.44,14,33.34,8.64,3.28-2.23,2.78-5.85,2.81-9.1.13-16-.13-32,.17-47.95.08-4-1.21-8.95,4.4-10.86-.19,59.31-.49,118.62-.54,177.94q-.12,121.49.07,243a1.34,1.34,0,0,0-.92-.4c-.16-4.32-.45-8.64-.45-13q0-106.41,0-212.81c0-2.34.06-4.67,0-7-.24-7.51-.25-7.69-8.06-7.72q-44-.12-87.93,0c-7.49,0-7.56.28-7.75,8.09-.11,4.66-.1,9.32-.14,14-4-.47-4.59-3.88-4.49-6.62.7-20.48-3.76-40.79-1.87-61.28.13-.64.13-1.56.57-1.86,11.53-7.58,10.42-20.47,13.39-31.65a12,12,0,0,0,.2-6.88c-1.89-6-23.67-17.82-29.5-15.09-11.82,5.52-22.34,2.76-33.51-2.19-25.62-11.37-42.22-6.64-58.95,15.88a15.3,15.3,0,0,1-8.71,6.11c-16.36,4.45-23,14.41-19.46,31.15,2.12,10.15,2.84,20.43,4.55,30.6.72,4.28.92,8.62-.65,12.83-4.12,4-7.14,9.49-13.43,10.86-.74-4.93-4.6-3.93-7.76-3.94-12-.08-24,0-36,0H346V343.29c0-12.54.05-25.07,0-37.61-.06-11.25,1.88-21.58,14.21-25.7,11.92-4,23.47-3.59,33.75,4.94,9.34,7.76,14.58,18,17.79,29.38,2.7,9.62,2.61,9.7,12.67,9.7Q552.26,324,680.11,324.05Z"/><path class="cls-6" d="M2461.83,661.78c6.06,4.19,12.77,1.69,19.21,1.76,2,0,2.52-1.91,2.57-3.64.09-3,.09-6,.09-9q0-136.15,0-272.31c0-4.31.33-8.61.51-12.92.87-.3,1.34,0,1.43.91-.1,3.33-.29,6.65-.29,10q0,137.3,0,274.59c0,3.61-.76,7.33.87,10.83,2.94,3.42,6.85,1.59,10.22,1.6q103.28.2,206.54.11c3.66,0,7.31.17,11,.26.69.44.89.85.63,1.22s-.5.53-.75.53c-4,.07-8,.2-12,.2q-293.7,0-587.4,0c-14.36,0-12.24-1.68-12.25,12q-.12,157.83-.07,315.68c0,2.65.16,5.31.25,8-.41,2.58-1.36,3.69-3.59,1.31-2.93-5.62-2-11.73-2-17.66q-.09-139.46,0-278.91c0-2.33,0-4.66,0-7-.15-13.35-.77-14.1-14.22-14.11q-113-.1-225.92,0c-29.75,0-33.85-4.16-33.85-34.26,0-23.66-.19-47.32.07-71,.22-19.38,6-25.16,25.17-25.17q164.94-.14,329.89,0c18.3,0,23.12,4.93,23.27,23.22.18,22.66,0,45.32.08,68,.08,13.81,1,14.73,14.81,14.74q117,.06,233.92,0C2454,660.77,2458,660.05,2461.83,661.78Z"/><path class="cls-4" d="M613.42,1149.38c-17.55,2.19-34.35,7.71-51.51,11.63-17.48,4-34.87,8.4-53.51,12.93-5.94-25.79-11.81-51.2-18.17-78.79-4,9.14-4.31,16.89-5.8,24.25-3.16,15.64-5.71,31.4-8.54,47.1-1.3,7.26-1.34,7.56-9,7.16-29.25-1.5-58.48-3.25-87.72-4.8-7.63-.41-15.29-.45-22.94-.66-3.95-.44-7.92-.79-11.86-1.34-6.68-.93-6.68-1-5.36-8.25q4.54-25,9.11-49.92,6.87-37.18,13.81-74.35c7-2.33,12.49,2.45,18.63,4,7.37,1.84,14.37,4.51,15.53-7,.17-1.63,2-2.51,3.73-3,30.32,1.14,60.25,6.77,90.59,7.47,2.88,13.37-.89,26.74.56,38.4.21-11.12-.29-24,1.4-36.8,1.85-5.14,6.61-6.37,11-7.55,11.59-3.12,22.89-6.78,32.71-14,21.53-1.22,43.05-2.2,64.54.48,4.64,2.72,4.73,7.74,5.83,12.1q12.74,50.61,24.41,101.49C634.59,1146.27,630.68,1150.72,613.42,1149.38Z"/><path class="cls-4" d="M2484.9,1586.08c-.13-3.66-.37-7.31-.37-11q0-97-.06-194c0-3.53.94-7.24-1.32-11.18a108.44,108.44,0,0,0-21.71,11.58c-8.55,6-16.68,13.28-28.5,9.6-2.84-6-2.31-12.61-1.37-18.67,2.18-13.93,1.72-27.88,1.63-41.82,0-7.54,2.29-13.57,7.92-18.56a244.23,244.23,0,0,1,44.54-31.86c7.75-4.24,8.77-3.33,9.35,5.07,1.34,19.52,3.12,39,4,55.8-.44-13.34-1.62-29.44-3.31-45.45-1.32-12.57-2.57-24,12-26.2-8.83,5.88-19.75,8.57-32.74,6-11.67-2.32-23.91-.46-35.89-.71-4.62-.1-9.35.66-13.82-1.24-4.57-6.17,1.71-7.36,4.76-9.12,10-5.78,20.76-10.1,31.5-14.4,7.47-2,14.85-4.3,22.46-5.77a19.79,19.79,0,0,1,3.14-.61c16.79.13,33.7-2.5,50.06,4.25,12.14,5,19.72,13,21.08,27.07,10.58-9.82,22.41-15.46,36.89-13.53,4,.53,8.06.59,10.11,4.94,4.41,4,8.87,7.84,12,13.15a12.57,12.57,0,0,0,9.23,6.57c15.77,2.7,26.21,12.5,31.32,27.45,5.62,16.41,4.84,33.45,3.21,50.38-3.59,37.52-16.26,71.78-37.39,103a26.48,26.48,0,0,0-2,4.51c-.69,1.71-.55,3.64-1.42,5.3-9.09,10-18,20-27.87,29.29a17.34,17.34,0,0,1-3.91,2.64c-9,4-15.53-.43-21.3-6.46-16.19-16.93-27-36.84-34.09-59.2-8.87-27.85-7.58-84.4,1.09-112.6a218.31,218.31,0,0,1-39.65,35c-5.84,4.06-5.67,10.09-5.67,16.15q0,74,0,148c0,15.33.06,30.66,0,46,0,4,.39,8.05-2.16,11.57-.77,1.08.26-.13-.81.47C2484.25,1588.29,2484.9,1586.78,2484.9,1586.08Z"/><path class="cls-6" d="M2619.21,1475.1c.48-1.48.94-3,2.47-3.79q.11,54.43.21,108.87c0,13.32-.14,26.64-.16,40,0,7.39.05,7.41,7.8,7.53,4,.06,8,.07,12,.1a1.93,1.93,0,0,1,3,0l17.09,0a4.08,4.08,0,0,1,4.63.12q50.47-.09,100.93-.16c7.21,0,7.32.16,7.4,7,.12,9-.26,18,.13,27,.24,5.49-2.09,6.89-7,6.56-4.31-.3-8.72.41-13-.16-5.07-.67-7.13,2-8.53,6-10,10.26-12.48,22.74-12.19,36.64.22,10.39-1.72,20.74-8.53,29.4-3.94,1-7.95.72-11.93.73q-79.32,0-158.65,0c-4.3,0-8.66.39-12.87-.89-4.07-1.76-4.27-5.54-4.68-9.16-1.64-14.55-6.29-28.45-9.22-42.72-1.34-6.48-5.93-10.1-10.93-13.5-5.85-4.47-12.77-3-19.31-3.49-9.94-.79-12.22-2.93-12.82-12.75-.39-6.32-.3-12.66-.07-19,.42-11.74,2.63-14.29,14.19-14.35,32.64-.19,65.28-.38,97.92.08,1.9.08,3.8.09,5.69,0,14-1,14.07-1,14.09-15.49q.07-58.93,0-117.85C2616.84,1486.08,2616.59,1480.39,2619.21,1475.1Z"/><path class="cls-6" d="M2727.86,1738.25a17.44,17.44,0,0,1,1.28-14.35c2.81-5.25,2.67-10.4,2-16.31-1.13-10,2.24-19.57,7-28.38,1.49-2.79,4.18-5.29,8-5.17-1.81,15.87-6,31.28-9.19,46.88-7.35,35.69-15,71.34-22.45,107-.2,1-.35,2-.48,3-.81,6-.69,6.36,5.26,6.51,7,.19,14,0,21,.1,1.84,0,3.94-.63,6.15,2.15l-22,25.43c2.62,2.63,5.76,1.27,9.44,2.27-2.28,0-3.33,0-4.37,0-63.5,2-127,.4-190.53.82a15.81,15.81,0,0,1-2.93-.52c-.82-.68-1.66-1.33-2.53-2-5.65-5.7-10.12-12.35-14.62-18.92-5.52-8-3.92-10.78,6.14-11.39a112.44,112.44,0,0,1,14-.05c7.72.51,9.91-2.46,8.34-10.11-5.49-26.73-11.06-53.45-16-80.31a26.56,26.56,0,0,0-1.5-7.83c-3.79-16.89-7.45-33.81-10.83-50.79-.82-4.11-2.62-8.48,1-12.29,6.56,2.29,9.63,6.92,11,13.78,2.31,11.9,5.54,23.62,8.36,35.43,1.16,4.88.35,9.87.58,14.8,6,1.85,12.24,2,18.48,2q74.33,0,148.65,0A114.24,114.24,0,0,0,2727.86,1738.25Z"/><path class="cls-7" d="M547.71,489.9c-.17,21.27,3.34,42.4,2.43,63.7-.09,2.32-.15,4.7,1.74,6.53,0,10-.06,20,.11,29.92.34,19.54-8.64,32.84-26.55,40.32-3.05,1.27-6.07,2.6-9.1,3.9-14.36,1.55-27.31-2.87-38.34-8,7.89,8.16,19.23,13.06,32.59,13.36A7.89,7.89,0,0,1,516,642c.09,2,0,4,.28,5.95.72,5.6-1.64,9.17-6.35,12.26-9.65,6.36-18.92,13.33-28.34,20a2.53,2.53,0,0,1-3.65,0c-14-8.4-27.85-17-42-25.08-4.26-2.45-5.79-5.34-6.28-10.19-1.69-16.85-3.05-33.72-3.64-50.64-.16-4.39-1.3-8.53-1.78-12.82-.44-3.93,1.16-8.41-1.27-11.68s-6.89-1-10.37-1.84c-7-1.6-11.92-7.23-12.51-14.95-.28-3.64,0-7.32,0-11,3.6-4,5.88-9.56,12.32-10.06,1.91-.07,3,1.2,4,2.55,1.74,2.34,3,5.83,6.69,4.92,4.11-1,5.77-4.77,5.76-8.48,0-8.51,3.47-15.08,8.81-21.49,4.58-5.5,4.48-13.06,5.62-19.92,1.84-11.09,6.6-15.29,18-16.13a47.31,47.31,0,0,1,26,5.6,84.91,84.91,0,0,0,54,9.52C543.47,488.16,545.83,488,547.71,489.9Z"/><path class="cls-4" d="M2666,1477.9c-1.66-8.78-4.79-17.25-4.24-26.49,1-16.84,13.45-30.18,30.21-31.67,2.28-.2,4.82.44,6.55-1.62,4.51-5.41,10.68-4.73,16.64-4.53,54.51,1.84,101.46,46,107.26,100.43a204.76,204.76,0,0,1,.33,35.88c-1.16,16.9-1.66,33.85,1,50.94-8.11,2.5-15.63.05-23-1.15a140.07,140.07,0,0,1-50.16-18.92,15.19,15.19,0,0,1-2.7-2.73c1.88-1.84.42-4.92,2.49-6.7,3.15-16.43,8.23-32.36,12.86-48.39,2.18-1.78,1.21-4.75,2.61-6.82,5-2.84,6.22,1.57,8.22,4.28,8.58,11.63,13.54,25.12,19.6,38.06,4.09,8.74,8.3,17.44,13,25.7,0,0,0,.28.21.4-.94-1,.5.3-.4-.79-6.65-13.1-13.32-26.08-19-39.57a136.09,136.09,0,0,0-29.53-43.3c-1.81-1.8-4.3-3.31-4.08-7.12,10-2.45,19.33,2.22,28.87,3.63,9.33,1.39,18.4,4.54,27.65,6.67-14.43-3.7-28.87-7.41-43.56-9.92-1.31-.22.3-.3-1-.19-17.1,1.62-26.12-9.66-34.81-21.56a32.68,32.68,0,0,0-4.29-4.67c9.94,13.35,24,25.63,36.87,39,2.31,2.41,4.78,4.86,2.86,8.71-2.37,1.64-.89,4.82-2.69,6.68a315.87,315.87,0,0,0-13.21,48.9c-2.25,1.81-1.08,4.93-2.67,7-9-3.17-15.72-9.75-22.67-15.81-22.71-19.77-39.34-44.11-52.65-70.89-1.47-3-3.12-5.84-4.68-8.75C2666.21,1481.52,2667.23,1479.24,2666,1477.9Z"/><path class="cls-8" d="M330.05,1734c.75,26-2.35,51.87-2.52,77.83,0,1.33-.18,2.66-.21,4-.14,7-.13,7,6.87,7.43,1.32.09,2.63.34,3.94.52,3.33,4.21,1.21,8.58.39,12.91a17.76,17.76,0,0,1-.83,2.75c-2.55,5.44-5.39,10.74-7.84,16.26-.4.93-.85,1.81-1.33,2.69-2.49,4-3.84,9.39-10.32,8.58-27.55,0-55.09,0-82.62,0-3.22,0-6.64,1-9.66-1.1-6.1-15.41-12.22-30.82-17.4-46.58-6.63-20.17-12.48-40.52-14.47-61.75-.4-4.32-2.18-8.28-2.15-12.74.06-10.59-.1-10.72,10.22-10.74,18.66,0,37.32,0,56,0,2.34,0,4.67-.07,7-.06,3.31,0,4.87-1.67,4.89-4.91,0-2.33.06-4.66.06-7q0-107.3,0-214.59,0-56.39,0-112.79c0-3.31,1.21-7.27-.86-9.8-7.64-9.38-4.56-21.38-8.38-31.67s-7.71-20.48-9.93-31.26a36.35,36.35,0,0,1-.78-7.89c4.72-.73,5.32,2.93,6.15,6,1.2,4.46,2,9,4.23,13.6,2.43-4.85,1.87-9.6,1.62-14.44-.17-3.45-2-8.15,3.94-9.2,3.59,9.61,3.2,19.53.43,29-3.33,11.38-2.78,22,3.19,34.93v-41c3.89,4,1,8.17,3.31,11.48,3.57-3.11,3.59-7.73,5-11.61,4.85-13,9.23-26.2,18.18-37.3A47.89,47.89,0,0,1,318,1280.44c6.13-2.18,8.28.5,6.46,6.94-5.78,20.34-17.19,37.13-32.36,51.57-1.73,1.64-3.48,3.11-6,3.12-1.66-6.92,3.69-10.29,7.63-13.9,11.17-10.25,16.83-23.56,23.05-38.54-7.11,1-12,3.54-15.26,8.16-7.84,10.92-12.86,23.26-17,36-1,3-.82,5.92,1.64,8.32-1.69,3.52-4.86,5.37-8.07,7.17-4.45,2.49-6.23,5.91-6.19,11.34.28,36.33-.12,72.66.38,109,.11,7.57-.2,15.09-.21,22.64q-.06,115.5,0,231c0,1.33.11,2.68,0,4-.47,5.28,2.13,6.94,7.13,6.87,13.33-.18,26.66-.06,40,0Z"/><path class="cls-9" d="M2521.94,327V222.05c0-2.34.15-4.68,0-7-.38-5,1.64-7.34,6.88-7.1,5.65.26,11.33.05,17,.05,14.32,0,28.64-.06,43,0,9.13,0,9.22.13,9.23,9.62q.08,38.46,0,76.94V433.46c0,2,0,4,0,6-.19,8.31-.19,8.46-8.33,8.52-15,.1-30,0-45,0-5,0-10,.1-15,0-7.49-.19-7.64-.29-7.74-8.11-.12-10,0-20,0-30Z"/><path class="cls-9" d="M2485.67,366.6c-.48-.29-1-.6-1.43-.91-1.17-27.38-22.63-49.24-49.83-50.13-14-.46-28,.07-42,.07L755,315.61c-18.32,0-36.64.14-55,.21,3.7-3.4,8.26-2,12.42-2q144-.12,287.94-.06l1395.7,0h1c10.9-.05,10.94-.05,10.94-10.87q0-75,0-150c0-2.33.11-4.67,0-7-.19-4.23,1.77-6.15,6-5.92,1.33.07,2.66,0,4,0,19.66,0,39.32-.08,59,0,7.52.05,7.27.24,7.2,7.85-.16,19.32-.09,38.65-.1,58q0,44.49,0,89c0,20.94-.49,41.89,1.86,62.77C2486.26,360.59,2485.78,363.62,2485.67,366.6Z"/><path class="cls-1" d="M613.42,1149.38c3.7-2.47,8-3,12.21-3.81,4.7-.88,5.57-3.22,4.45-7.73-5.11-20.55-10-41.16-14.82-61.77-4.57-19.31-9-38.65-13.57-58,3.38-3.56,7.87-3.24,12.15-3.29,11-.13,22-.18,33,.06,7.26.15,10.42,3,10.34,11-.4,37.63-.18,75.28-.18,112.92q0,219.84,0,439.68c0,4-.78,8,.75,11.87-.31,9.6,4.86,17.32,8.73,25.49-3.11-.2-4.21-4.06-8.12-4.21-.19,3.82-.37,7.59-.55,11.37-2.94-8.29-2.22-17.08-3.08-25.61-4-39.7-7.3-79.47-11-119.2-3.64-39.4-7.46-78.79-11.11-118.19-3-32.45-5.87-64.91-8.83-97.37Q618.66,1206,613.42,1149.38Z"/><path class="cls-9" d="M2712.06,355.06V435c0,2-.14,4,0,6,.39,5-1.64,7.34-6.88,7.11-6-.26-12-.05-18-.05-14,0-28,.05-41.94,0-9.16-.05-9.26-.13-9.26-9.59q-.06-68.91,0-137.83c0-10.66.12-21.31,0-32-.07-4.59,1.6-6.63,6.37-6.61,21,.12,42,.15,62.92,0,5.29,0,6.9,2.21,6.86,7.18-.15,18.65-.05,37.29-.05,55.94Z"/><path class="cls-4" d="M2837.93,1259.71c18.94,7.59,36,18.6,52.92,29.72,9.34,6.14,8.42,12.9-1.73,17.63a243.4,243.4,0,0,1-99.26,23.19c-13.63.25-27.22.84-40.68,3.32a61,61,0,0,0-20.6,7.26c-14.9,8.93-30.82,13.91-48.24,14a35.7,35.7,0,0,0-4.33.58c-1.37-6.43,1-12.43,2.12-18.43,3.62-18.69,9-36.8,18.86-53.32,14.81-24.85,37.22-37.35,65.48-39.72a129.11,129.11,0,0,1,71.38,14c-8.13,4.76-17,4.76-25.83,3.36-20.19-3.19-40.23-3.72-60.12,2-2.09.59-4.88,2.36-6.27-.31-1.5-2.9,1.55-4.67,2.09-5.36-3,7.8-11.46,11.76-19.28,16.73-9.31,5.93-16.64,14.14-23.29,22.91-6.09,7.87-9.41,17.37-15.63,27.51,6.44-9.79,9.26-19.41,15.59-26.92,2.13-3.53,3.68-7.67,8.74-8,15.59,11.52,31,23.38,47.21,34-16.22-11.1-32.24-22.47-47.54-34.81,14.26-20.7,36.21-26.23,59.07-29.91,3.82-.62,5.91,2.46,8.56,4.3,22.31,15.93,45.38,30.75,67.88,46.42-22.46-15.7-45.41-30.67-67.84-46.41-3.4-5.37,1.07-4.29,3.69-4.33,17.78-.32,34.76,3.33,51.43,9.54,15.24,5.69,29.66,13.1,44.36,19.94,1.36.2.84-1.88.67-.55-.05.45-.38.6-.93.33-18.61-8.93-36.95-18.42-56.75-25.27C2826,1261.34,2831.79,1259.46,2837.93,1259.71Z"/><path class="cls-9" d="M2820,394c0,15.3.08,30.61,0,45.91-.06,7.79-.22,8-7.78,8q-31.46.16-62.89,0c-6.89,0-7.21-.38-7.23-7.55q-.14-47.41,0-94.83c0-7.13.35-7.48,7.28-7.52,21.29-.12,42.59.07,63.88-.11,5.3,0,6.88,2.21,6.83,7.17C2819.87,361.42,2820,377.72,2820,394Z"/><path class="cls-10" d="M2605.29,1266.3c-18.94-7.29-34.28-1.08-46.7,12.49-1.76.37-2.29.09-2.33-.65-1.25-20.69-10.68-27.15-36.07-32.08-11.43-2.21-23.15-.38-34.73,0-4.16-13.7-1.89-27.67-1.38-41.5.2-5.51,3.72-5.57,7.21-1.72a16.6,16.6,0,0,1,1.87,2.33c4.49,7.13,7.32,4.33,10.14-1.45,3.2-6.58,7.23-12.73,10.79-19.13,3.3-4.47,7.28-3.37,11.33-1.33s7.81,4.77,11.95,6.75a22.18,22.18,0,0,1,2.47,1.49c23.33,14.34,47.25,27.7,70.65,41.92,3.22,1.95,7.65,3,7.69,8.1-.06,5.56-.06,11.12-.21,16.67-.19,7.35-.24,7.35-7.78,7.85C2608.55,1266.12,2606.92,1266.2,2605.29,1266.3Z"/><path class="cls-4" d="M595.8,1810.24c17.88-4.17,35.51-9.47,54.05-10.65,4.33-.28,8.32-1.67,12.27.94,1.7,9.58,1.8,19.27,2,29-.91,2.26-3.18,2.83-5.22,4.27,2.56-1,4.53-3.07,7.29-2C687,1836,707.64,1840.68,728,1849c-5.9,3.35-96.24,15.3-126,17l.13.14c-2.88-9.24-2-19-3.56-28.4C597,1828.69,596.65,1819.43,595.8,1810.24Z"/><path class="cls-11" d="M1790.22,1640.06H1371.8c-4.23-1.27-8.58-.77-12.88-.77q-156.56,0-313.1,0c-7.3,0-14.6.09-21.83-1.11a5.09,5.09,0,0,1,4.3-2.08c3,0,6,0,9,0q539.21,0,1078.42.07c4.1,0,8.72-1.78,12.28,2.05-5.85,4.82-13,4.92-19.92,4.94q-152.79.36-305.6.08C1798.17,1643.19,1793.72,1643.38,1790.22,1640.06Z"/><path class="cls-4" d="M328.05,1856.17c1.45-6,4.65-11.19,7.8-16.39a20.64,20.64,0,0,1,15.8,1.77c-3.24-4.2-10.22-1.15-15.36-3.61q.91-7.08,1.84-14.16c20.79-.44,41.59-.74,62.38.16-2.2,9.39-4.51,18.76-6.53,28.19a12.46,12.46,0,0,1-5.55,7.89q-38.28,27.21-76.49,54.52c-1.83,1.3-3.63,3.33-6.18,1.67a7.29,7.29,0,0,1-3.53-6.75,12.49,12.49,0,0,1,1-4.81c5.49-11,10-22.45,16.79-32.77,4.74-1.73,7.74,1.25,10.41,3.51-1.81-3.64-6.76-3.18-9.94-5.69a1.68,1.68,0,0,1-.46-1.22,2.49,2.49,0,0,1,1.68-2.07c2.88-3,3.14-7.62,6.44-10.37a45.69,45.69,0,0,1,17.56,8.5C340.42,1860.46,334.79,1857.13,328.05,1856.17Z"/><path class="cls-9" d="M81.39,1446.08c12.4-23.56,31.75-30.68,54.94-32.59-2.32-2.37-5.17-2.61-7.64-3.54-2.77-1-5.75-1.72-7.81-5a37.29,37.29,0,0,1,24.37-11c17.31-1.35,32.8,3.31,47,13,1.62,1.1,3.46,1.87,6.39,3.42-1.32-8.27-6.91-13.33-9.09-20-2.38-7.24-4.39-14.54-6.43-21.86s-1-14.55-1.06-21.81-1.33-14.54,3.23-21.55c8,7.82,10.83,18.11,14.64,27.81,7.16,18.21,9,37.24,8.09,56.66-.39,8.26-3.63,11.25-11.91,9.29a121,121,0,0,0-29.56-3c-5.6.08-10,1.81-14.66,5-15.05,10.31-30.62,19.59-48.79,23.85C96.39,1446.29,90,1445.5,81.39,1446.08Z"/><path class="cls-9" d="M166,1540.07c0-6-.3-11.89.06-17.7,1-15.49,6.35-29.07,18.2-39.57,3.91-3.46,7-2.55,7.48,2.43s.78,10.14-.27,14.91a165.17,165.17,0,0,1-17.78,46.37,19.49,19.49,0,0,1-11.07,9.23c-17,6-33.75,5.88-50.8.56-5.25-1.64-9.58-4.64-13.86-7.7-4.86-3.47-4.46-7.16,1-9.79,7.8-3.76,16.08-3.26,24.43-2.09,12.16,1.69,23.67,5.4,35.17,10.2-8-6.87-15-14.63-22.51-21.76s-12.54-15.43-16.7-24.58c-3.1-6.82-4.38-13.84-2.77-21.35,4.06-1.15,6.62,1.18,9,3.42,15.92,15.32,30.43,31.63,36.82,53.54C162.77,1537.64,163.17,1539.45,166,1540.07Z"/><path class="cls-12" d="M2535.76,1865.61l.28,2c-9.65.22-19.31.62-29,.64q-85,.18-170,.21-694.92.33-1389.84.62c-4.62,0-9.33.81-13.87-.81,2.27-2.07,5.07-1.24,7.65-1.24q169.86-.06,339.74,0c2,0,4-.23,5.92.58q299.34,0,598.68-.09c4.19,0,8.64,1.33,12.57-1.39,5-4.7,11.28-3.34,17.12-3.35q130.32-.13,260.65-.06,170.26,0,340.55,0C2522.89,1862.74,2529.63,1862.14,2535.76,1865.61Z"/><path class="cls-4" d="M2571.85,1102.74c56.62,22.18,74.56,84.34,54.1,128a57.54,57.54,0,0,1-3.62,5.87c-4.39-4.31-4.16-10.14-5.12-15.59a82.28,82.28,0,0,0-5-18.09,137.15,137.15,0,0,0-34.79-54.73c-5.94-5.76-8.91-12.18-8-20.32C2570.35,1119.53,2567,1110.74,2571.85,1102.74Z"/><path class="cls-4" d="M2618.18,1241.49c-16-11.38-33.64-20-50.15-30.43-10.06-6.38-21.05-11.25-30.39-18.78,1.76-2.84,4.8-3.49,7.65-4.26a436.24,436.24,0,0,0,41.8-13.29c10.18-3.88,12.11-2.73,17.28,7.07a144.24,144.24,0,0,1,9.38,21.93c3.56,11.88,7.91,23.62,6.11,36.4A1.64,1.64,0,0,1,2618.18,1241.49Z"/><path class="cls-9" d="M224.48,1639.6c.55-3.62-4.22-4.4-3.73-7.76,1.7-1.58,2.8,1.76,4.68.26a124.41,124.41,0,0,1,.69-61.51c2.14-8,5.77-14.79,12.27-20,3.81-3,5.62-2.7,7.43,1.72,3.42,8.31,2.78,17.09,1.7,25.58-1.29,10.13-3.68,20.14-5.9,30.13-1.45,6.53-4.94,12.29-7.7,18.33-2,4.43-5.79,8.24-5.23,13.68.17,1.64-1.41,2-2.31,2.9-9,8.86-17.84,17.92-27,26.58A63.37,63.37,0,0,1,172,1685.06c-3.38.89-6.64,1.76-8.95-1.68-2.08-3.09,0-5.88,1.59-8.26,12.57-18.86,29.08-31.57,52.58-33.17a15.47,15.47,0,0,0,3.89-.67A24.45,24.45,0,0,0,224.48,1639.6Z"/><path class="cls-9" d="M206.83,1514.55c4,6.83,4.55,13.74,5.07,20.44,1.69,21.93-1.71,43-11.91,62.7-1.57,3-.77,6-.84,9.12-4.26-1.37-4.6-5.46-7.88-7.92-3.23,1.23-5.24,4.11-7.29,7-6.67,9.49-13.29,19-20.15,28.36-7.57,10.34-18,16.23-30.14,19.13-2.48-2.83-1.44-5.3-.54-7.84,7.92-22.41,24-37,45.16-46.37,4.16-1.83,8.44-3,11.8-6.25,4.43-4.25.22-8.5,0-12.74-1-18.14.72-35.81,9-52.31C201.27,1523.58,202.8,1518.78,206.83,1514.55Z"/><path class="cls-13" d="M2486.37,1103.88c11.93-3.7,23.72-7.67,36.34-8.85a96.12,96.12,0,0,1,47.31,7.09c2.06,10.52.42,21.15.95,31.71.21,4.36-1.84,5.25-5.55,3.72a16.72,16.72,0,0,1-3.56-1.79c-21.54-16-46.41-22.37-72.55-25.08-2.66-.27-5.32-.5-7.3-2.64-1-1.87-.08-3.16,1.26-4.34A2.68,2.68,0,0,1,2486.37,1103.88Z"/><path class="cls-9" d="M270.69,1278.3c7.43-18.27,20.69-30.8,36.83-40.64,5.94-3.63,12.35-6.52,19.26-7.49,3.71-.53,8.49-1.51,10.56,3.22,1.93,4.42.48,8.45-3.28,11.53-3.57,2.93-7.05,6-10.79,8.72-14.84,10.76-30.71,19.57-48.33,25C273.72,1279,272.54,1279.87,270.69,1278.3Z"/><path class="cls-9" d="M315.71,1473.3c15.07,31.39,7.07,60.33-1.47,90.23C297.79,1541.65,299.54,1499,315.71,1473.3Z"/><path class="cls-14" d="M2252,1002.18c1.33-.08,2.66-.23,4-.23l441.88.25q2,1.78,0,3.57c-18.94.09-37.88.25-56.82.27q-71.3.06-142.58,0c-4,0-8,.2-12,.31l-1.74.15c-8.23.67-16.47.26-24.71.29-64.8,0-129.59.08-194.38-.11C2260.86,1006.7,2254.77,1009,2252,1002.18Z"/><path class="cls-9" d="M267.84,1266.49c-15.3-14.81-29.52-27.26-37.32-45.21-5-11.5-5.92-20.28-1.84-30.06C254,1209.18,265.93,1234,267.84,1266.49Z"/><path class="cls-15" d="M337.83,1562c.42,11.51.72,23-1.58,34.4-.91-.68-2-.81-2.11.49-1.93,18.17-8.62,34.56-18.38,49.82a14.68,14.68,0,0,0-1.22,2.71c-.09.25.14.61.22.93,1.69,1.18,2.67-1.62,4.3-.75-6.8,13.26-6.8,13.26-11.21,15.6-.4-.46-1.22-1.15-1.12-1.34,5.39-9.79,3.49-20.31,3.34-30.72-.24-18.42,5.19-35.21,15.52-50.47,1.31-1.94,2.43-4,4.4-5.31,6.26-4.12,6.28-4.08,5.08-12.08-2.51-1.73-5,1.88-7.54,0C332.35,1558.15,332.35,1558.15,337.83,1562Z"/><path class="cls-9" d="M109.66,1462.35c23.18-25.76,58.17-38.54,98-35.8-.71,2.1-2.54,1.51-3.7,1.35-8.28-1.14-14.29,2.86-20.69,7.53-14.71,10.71-29.54,21.28-48,25.29C127.27,1462.45,119.64,1461.3,109.66,1462.35Z"/><path class="cls-16" d="M1286.69,1867.62c-4.65.11-9.31.32-14,.32l-326.39,0c-4.32,0-8.64.22-13,.34q-66.45.07-132.91.15-56,0-112,0c-3.59,0-7.33.81-10.72-2.43H1286A2.58,2.58,0,0,0,1286.69,1867.62Z"/><path class="cls-9" d="M304.92,1182.76c4.3,15.52-2.38,28-9.54,39.94-6.65,11.07-14.05,21.7-20.5,32.92-.23.4-1.12.43-1.7.64C267.65,1235.15,283.17,1187.94,304.92,1182.76Z"/><path class="cls-9" d="M347.75,1344c-.83,24.2-.8,48.44-3.47,72.56-2.29-9,1.12-18.36-1-27.49-4.2-.86-5.87,3.57-9.57,3.46a82.28,82.28,0,0,1-13.63-52.12c.43-6,1.59-11.81,4.45-17.16.79-1.48,2-2.76,3.92-2.43a3.79,3.79,0,0,1,3.17,3.38,47.27,47.27,0,0,1,.39,6.94c0,14,0,27.93.07,41.89,0,3.18-.76,6.63,3,10.71C339.49,1369.79,342,1356.3,347.75,1344Z"/><path class="cls-9" d="M199.71,1327.48c21.86-6,46,12.85,57.37,38.72C231.59,1362.16,213.7,1348.87,199.71,1327.48Z"/><path class="cls-8" d="M245.55,1462.54c-7.11-4.1-10.32-10.9-15.46-16.56,3.72-1.27,4.32,3.7,7.95,2-8.45-24.35-9.14-48.77,1-73.19,3.74,1,4.07,3.78,5,6.14,5.42,14.18,3.9,28.54,1.1,42.93-1.07,5.51-2.47,11-2.92,16.56C241.57,1447.88,241,1455.52,245.55,1462.54Z"/><path class="cls-17" d="M2482.27,1106.21c5,4.16,11.44,2.65,17,3.21,23.72,2.41,44.94,10.74,64.4,24.16,1.57,1.07,2.9,2.78,6.34,2.71v-34.17l1.82.62c.15,9.65.83,19.33.22,28.94-.36,5.67,1.44,9.26,5.39,12.92a136.29,136.29,0,0,1,35.77,53.39,35.54,35.54,0,0,1,1,3.85c.87,2.08-.11,2.37-1.85,1.9a117.06,117.06,0,0,0-10.51-23.4c-3.92-7-4.08-7-11.38-4.19-17.19,6.74-34.67,12.5-52.81,16.13h.1c.25-6.57,6.06-6.39,10-7.55,11.85-3.43,23.49-7.47,35.18-11.36,9.45-3.15,9.41-3.26,3.51-10.78-15.25-19.41-34.77-32.73-58-40.71a23.08,23.08,0,0,1-2.83-1.11c-12.8-5-26.34-6.37-39.81-8-3.26-.4-6.68,0-9.52-2.21C2475.64,1105.5,2478.59,1105.34,2482.27,1106.21Z"/><path class="cls-18" d="M2837.93,1259.71a49.18,49.18,0,0,1-15.76,3,359.93,359.93,0,0,1,60.3,28.3c-5.34.29-8.09-2-10.94-3.43-20.12-10.29-40.66-19.47-62.92-24.11-9.4-2-18.88-3.43-28.56-3.25-3.36.07-2.83,1.76-2.13,3.82l.13-.14c-6.08-3.56-12.51-3.18-19-1.61-19,4.57-37.11,10.8-49.13,27.75l.12-.13c-3.86,1.51-5.12,5.6-8,8.08a1.48,1.48,0,0,1-2.53-.16,66.1,66.1,0,0,1,24.9-25.31c8-4.64,14.53-10.26,19.51-17.93,1.24-1.92,2.85-3.61,4.88-6.14,1.23,6.58-4.76,8.65-6.14,14,5.47-1.08,10.63-2.13,15.8-3.12,14.54-2.8,29.1-2.32,43.68-.31,10.63,1.46,21.23,1.61,31.71-1.12C2835.39,1258.12,2837,1258.09,2837.93,1259.71Z"/><path class="cls-8" d="M266,1310a5.19,5.19,0,0,0-1.87,6.27c3.61,8.07-1.58,15.23-1,22.78-3.36.32-4.42-1.41-4.9-3.38-1.26-5.14-4.23-9.81-4.21-15.28a6.47,6.47,0,0,0-3.93-6.37c.22-8.57-1.32-17.28,2-25.63a14,14,0,0,1,4.13-6.25C262.47,1290.81,265.1,1300.08,266,1310Z"/><path class="cls-19" d="M2697.84,1005.77c0-1.19,0-2.38,0-3.57q59.66-.06,119.33-.12c2.9,0,6.28-.59,6.69,3.86q-57.07.06-114.13.12C2705.77,1006.06,2701.81,1005.87,2697.84,1005.77Z"/><path class="cls-20" d="M495.83,871.94c-1.81-1.43-1.67-3.53-1.9-5.5-1.54-18.21-3-36.43-4.63-54.64-1.71-19.22-3.63-38.42-5.29-57.65q-2-23.35-3.59-46.76a78.72,78.72,0,0,1,.58-15c1.08,6.76,2,13.59,2.7,20.33,2.59,26.49,4.57,53,6.78,79.57,1.7,20.22,3.51,40.43,5,60.67C496,859.26,495.75,865.62,495.83,871.94Z"/><path class="cls-21" d="M601.93,1866c-1.68,3.74-5.1,2.5-7.86,2.51q-54.95.11-109.89,0-42.45-.06-84.9-.29c-3.23,0-6.65,1-9.73-1.1,2.06-1.84,4.5-1.06,6.73-1.06q101.4-.12,202.8-.14c1,0,2,.14,3,.21Z"/><path class="cls-22" d="M2666,1477.9c2,1,1.83,2.94,2,4.73-3.92,11.09-4.3,22.81-5.41,34.3a464.51,464.51,0,0,0,1.2,97.56c.51,4.49-1.19,9.42,2.4,13.37l-4.63-.12c1.38-11.39-1.6-22.51-2.4-33.75-2.17-30.68-2.18-61.2,2.12-91.7C2662.44,1494.07,2663,1485.76,2666,1477.9Z"/><path class="cls-23" d="M477.89,680.18l3.65,0c2.94,5.55,6.78,10.59,9,16.61s2.78,12.27,4.08,19c8-2.85,13.05-9.79,20.37-13.27-6,7.81-13.7,13.5-22.38,19.17-3.08-6.25-1.61-12.82-3.51-18.62s-3.45-12.19-9.67-16.78c-7.48,11.08-5.34,24.72-10.22,37-5.9-4-11.15-7.93-15.69-12.75-.11-.91.26-1.35,1.19-1.25,4.71,1.68,7.48,6.52,12.7,7.9C470.86,704.75,470.5,691.34,477.89,680.18Z"/><path class="cls-24" d="M516,642c-5.91-.26-11.75.33-17.71-1.4-12.69-3.67-17.54-6.75-26.3-19.54,8.84,4.23,16.91,7.41,25.47,9.3,3.9.85,7.68,1.86,11.71,1.7,2.62-.1,5.38-.34,7.22,2.24Z"/><path class="cls-25" d="M398,1030.25c-4.29,13.41-4.29,13.4-18.32,9.32-5.93-1.72-11.59-4.41-17.79-5.23-17.4-7.14-35.72-11.62-53.27-18.32-6.34-2.42-13.37-3.29-18.76-8,3.85-.56,7.14,1.42,10.57,2.51,27.21,8.66,54.38,17.47,81.56,26.21a49.64,49.64,0,0,1,4.79,1.32c3.68,1.61,5.55.11,6.57-3.37,1.27-4.35,1.37-9.14,4.71-12.74C400.53,1024.76,400,1027.51,398,1030.25Z"/><path class="cls-26" d="M321.69,1866.41l-1.68,2.07H156.24v-2.65h69.68q40.41.06,80.82.12C311.72,1866,316.71,1866.25,321.69,1866.41Z"/><path class="cls-27" d="M2640.31,1542.09a566.6,566.6,0,0,1,4.33-60.5c1.54-13.16,3.85-26.23,5.82-39.33,3.79,0,2.2,2.35,1.83,4.17-1.42,11.53-2.72,23.07-4.29,34.57-2.67,19.45-3.79,39-4.55,58.61-.11,2.93.44,6-1.25,8.77C2640,1546.75,2641.85,1543.92,2640.31,1542.09Z"/><path class="cls-28" d="M2652.29,1446.43c-.43-1.47-.44-3.13-1.83-4.17a418.38,418.38,0,0,1,18.29-71.75c.26,2.25-.41.27.74,1,.25.15.56.6.5.81C2663.12,1396.76,2657.84,1421.63,2652.29,1446.43Z"/><path class="cls-14" d="M2486.37,1103.88a4.27,4.27,0,0,1-1.71.53c-4.19-3-3.76-7.57-3.8-11.79q-.29-37.39,0-74.78c0-4.41-.92-9.6,4.47-12.22.38.24.76.5,1.13.76Z"/><path class="cls-16" d="M2640.31,1542.09c2,1.68,1.37,4.16,1.89,6.29.07,15.58-.08,31.16.3,46.72.28,10.9,1.29,21.79,2,32.68h-3c1.36-8-.83-15.88-1.09-23.81C2639.75,1583.34,2639.39,1562.72,2640.31,1542.09Z"/><path class="cls-29" d="M2612.34,1203.74l1.85-1.9c5.94,10.85,6,23.08,8.14,34.81-.36,1.49-.47,3.15-2.47,3.48C2619.24,1227.61,2616.05,1215.62,2612.34,1203.74Z"/><path class="cls-8" d="M331.83,1702c.19,10.18.79,20.4-1.6,30.45C330.18,1722.27,328.22,1712,331.83,1702Z"/><path class="cls-30" d="M320.47,1869.7c7.49,0,12.28,3.8,14.84,10.94-5.08-3-8.84-8.38-15.31-8.76C320.16,1871.16,320.31,1870.43,320.47,1869.7Z"/><path class="cls-31" d="M666.22,1831.76c-4.12,1.43-7.13,4.56-11,6.66.74-5.1,4.28-7.54,8.92-8.94A3,3,0,0,1,666.22,1831.76Z"/><path class="cls-23" d="M444.28,701.23a39.32,39.32,0,0,1,10.4,8.09c-.4.41-.8.82-1.19,1.25a33.18,33.18,0,0,1-10.15-8.2v-1Z"/><path class="cls-32" d="M443.34,702.37c-3.25-.74-5.12-3-8.28-6.84a14.62,14.62,0,0,1,9.22,5.7A1.4,1.4,0,0,1,443.34,702.37Z"/><path class="cls-25" d="M282.91,1006c2.56.12,5.34-.49,7.13,2.17A8.25,8.25,0,0,1,282.91,1006Z"/><path class="cls-10" d="M2535.76,1865.61c-4.93,1.24-10,.67-14.93.67q-309.45-.12-618.89-.3c-1.33,0-2.66.1-4,.16-31.32-20.26-58.36-45-79.38-76-25.55-37.63-37.4-78.94-32.47-124.52.93-8.56,2.73-17,4.13-25.54,4.25-1.27,8.61-.76,12.92-.76q152,0,304,0c7,0,14,.08,20.88-1.1,3.65.16,7.3.46,10.95.46q110-.14,220-.35c23,0,46-.85,69-.13,31.83,1,56.53-23.57,57.05-52.05.17-3.31.5-6.6.51-9.89,0-66.24.14-132.49-.14-198.74,0-7.12,1.95-11.51,8.06-15.33,15.32-9.6,28.43-21.85,39.91-35.83a37.25,37.25,0,0,1,3.46-3.42c.19-.18.64-.07,1.7-.15-1.87,8.9-4,17.56-5.48,26.33-5.24,31.49-6,62.89,3.3,93.87,6.72,22.37,17.79,42.22,34.55,58.73,5.48,5.4,11.35,8,18.79,4.21,4.2,3.62,4.46,8.93,4.79,13.63,1.22,17.78,3.22,35.52,4.07,53.29.74,15.5,3.55,30.91,2.44,46.5-.22,3.14,1.21,6.86-3.19,8.39l-98.67,0c-2,0-4,0-6,0-2.74,0-4.41,1-4.4,4,0,10.63.06,21.26,0,31.89,0,3.53,1.82,4.53,5,4.49,6-.07,12,.37,17.93-.09,4.86-.37,7.47,1.44,8.58,6,2.56,19.21,7.46,38,11,57l1.26,6.78c1.1,2-.09,4.46,1.46,6.33q8.55,42.56,17.11,85.13c1.62,8,1.61,8.11-6.93,8.18-8.84.07-17.68,0-28.34,0Z"/><path class="cls-6" d="M657.76,1590.34c-2.13-3.75-1.08-7.84-1.08-11.75q-.07-274.26-.07-548.52c0-14.17,1.74-12.32-12-12.36-14.31,0-28.62.25-42.93.39l-68-.09c-3.41,2.62-7.41,2.66-11.42,2.67-9.65,0-19.33-.52-28.93.13-15.43,1-25.83-6.29-34.27-18.22-4.13-5.84-4.23-9.89,2.64-13.51,4.47-2.36,9.72-4.32,11.7-10.7-7.48-1.47-13.33,2.58-19.67,3.63-3.78.62-7.57,3.24-11.26-.21-.79-1.07-1.67-2.08-2.36-3.2-3.93-6.42-2.18-10.39,5.14-10.4,12,0,24-.34,35.93.95,9.44,1,12.14-1,12.42-10.79.44-14.61.12-29.25,1-43.88,2.29,12.31,1.2,24.72,1.62,37.66,3.37-1.8,3.85-4.95,4.93-7.48q19.54-45.92,38.88-91.93c4.88-11.58,6.66-12.85,19.49-12.87,35.3,0,70.61,0,105.92-.11,3.16,0,7.71,2.22,9-3.35,3.09,4.6,7.74,3.64,12.18,3.4,3-2.88,6.75-2.54,10.36-2.55q48.93-.11,97.88,0c5.78,0,11.44.69,15.38,5.61,4.93,6.15,3.22,12.36.08,18.68-15.82,31.92-32.59,63.34-49.15,94.87-1.71,3.24-3.38,6.5-5.06,9.75-7.66,14.59-15.12,29.29-22.93,43.82-4.13,7.68-9.45,11.25-18.08,10.78-7.56-.41-15.17.12-22.76-.21a9,9,0,0,1-6-2.48c-7.33,0-14.66,0-22-.14-4.1-.09-6.28,1.36-6.05,5.75.16,3,0,6,0,9q0,272.35,0,544.71C658.28,1581.71,657.94,1586,657.76,1590.34Z"/><path class="cls-33" d="M686.32,1018.08h5.82c5.86,5.65,13.27,5.23,20.53,5.09,8.57-.17,17.77,2.18,25.56-1,9.2-3.72,3.63-15,7.75-22,3.13-5.36,4.51-11.7,7.12-17.39,1.14-2.49,1.74-7.49,6.67-3.58,4.17,7.11.62,13.61-1.77,20.07-2.31,6.21-5,12-4.52,19.14.5,7.86-5.66,14.55-13,13.14-15.15-2.89-29.56,5.63-44.54,1.68-3.08-.81-4.08,1.38-4.43,4a72.26,72.26,0,0,0-.3,10q0,173,0,346c0,17.56,0,17.59,17.8,17.59q816,0,1631.95,0c6.82,0,14.42,1.64,18.07-6.84,2.43-3.18,5.05-2.88,7.31,0,5,6.52,11.28,5.61,18,3.52,14.59-4.53,28.75-10.27,43.27-15a12.31,12.31,0,0,1,4.9-.62l1.53.21c9.62-2.25,17.83-8.15,27.39-10.58.07,9.66.06,19.32.27,29,.08,3.76-1.24,5.6-5.16,5.35-2.33-.15-4.67,0-7,0q-875.31,0-1750.61,0c-14.64,0-12.57,1.82-12.58-12.82Q686.27,1210.54,686.32,1018.08Z"/><path class="cls-6" d="M1569,1500c23.44.93,31.21,12.82,32.61,32.21,1.26,17.56-14.45,31.43-32.52,31.89a30.27,30.27,0,0,1-31.46-32C1538.68,1512.49,1550,1500,1569,1500Z"/><path class="cls-3" d="M2361,827.92l4.87-4.89a92.64,92.64,0,0,1,12.17-11.09l-.15.12c2-1.49,4.23-2.56,6.16-4.12l-.16.12c20.66-10.78,35.41-6.48,48.13,14l-.1-.16c4.65,9.19,3.71,11.69-6,16-18.9.25-37.79.08-56.68.08-3.26,0-6.68.59-9.64-1.53C2357.89,833.23,2357.26,830.22,2361,827.92Z"/><path class="cls-34" d="M2252,1002.18c3.46,3.05,7.65,1.67,11.49,1.68q99.27.18,198.54.15c2.66,2.91,3.09,6.53,3.1,10.21.15,32.14.22,64.27,0,96.41a20.36,20.36,0,0,1-1.25,6.81c-1.06,1.64-1.91,3.76-4.48,2-3.13-4.42-2.52-9.55-2.54-14.49-.09-26.31,0-52.63,0-78.94,0-16.7-.05-16.76-16.54-16.77q-160.38,0-320.76,0c-4.66,0-9.36.34-13.95-.63-2.51-.53-5.46-.92-5.54-4.57a3,3,0,0,0,2.45-2.4l87.75.32Z"/><path class="cls-35" d="M2428.24,836c4.11-3.94,5.81-8.52,3.71-14.09,3.8,2.67,5.72,7.53,10.91,8.72,2.12.48,3.22,3,3.93,5.24a9.16,9.16,0,0,1,1.27,4.07c-1.58,13.85,7.32,21.95,16.81,29.21,5.54,4.25,10,.37,13-4.57,4.47-7.43,6.33-15.86,8.65-24.11.6-1.85,2.09-3.09,3.22-4.58,3.75-10.9,5.41-22.3,8.18-33.43a192.27,192.27,0,0,1,9.64-30c.06-1.3,1.62-1.57,1.89-2.73,2.07-2.51,3.8-5,4.3-8.54.61-4.38,3.83-6.86,8.19-7s7.37,2.41,8.68,6.57c1.08,3.44,1.87,7,5.36,8.93.62.93,2.23,1.18,1.89,2.77,4.39,12.82,7,26.44,16.64,36.91A3,3,0,0,1,2552,811c-5.46-.79-7.36-5.33-9.48-9.38A84.11,84.11,0,0,1,2536,785c-1.91-7-5.54-10.65-13.39-10.52-7.55.13-11.46,3.31-13.8,10.27-5.53,16.44-8.7,33.46-12.9,50.23-.59,2-2.11,3.43-3.47,4.93-3,8.39-4.58,17.25-8.8,25.23-7.15,13.5-16.79,15.06-27.62,4.33-5.24-5.19-8.89-11.48-12.26-18-1.19-2.3-2.09-5.11-5.51-4.83-5.22.42-7.58-3.25-10-6.85C2426.83,838.52,2426.82,837.25,2428.24,836Z"/><path class="cls-3" d="M2653.92,851c-1,1-1.93,2-2.9,2.93a27.14,27.14,0,0,0-7.1,4.13l.17-.11c-1.68,1.81-4.53.18-6.18,2.1l.18-.09a11.62,11.62,0,0,1-10.18,0l.18.09c-7.56-2.42-11.19-8.43-14.05-15.21-1.13-2.69-1.55-5,1.79-6.43a411.3,411.3,0,0,1,42.43.09c3,1.48,2.24,3.42.6,5.38C2657,846.11,2654.85,848.13,2653.92,851Z"/><path class="cls-36" d="M2509.4,769.78l-1.89,2.73c-5-.09-10-.24-15-.25q-129.78-.32-259.56-.59c-3,0-5.95,0-8.95-1.63q20.89,0,41.77,0Z"/><path class="cls-37" d="M2713.87,665.71c0-.59.07-1.17.13-1.75,6-.17,12-.47,17.94-.48q48.48-.08,97,0c7.5,0,7.63.13,7.61,7.65q-.15,66.47-.42,132.93c-.72.91-1.33.8-1.86-.19L2834,677.11c0-2.33-.08-4.66,0-7,.05-3-1.48-4.12-4.3-4-2.66.06-5.33,0-8,0Z"/><path class="cls-35" d="M2614.32,840.23c1.18,9,6.77,14.89,13.77,19.82-6.7.49-9.75-4.26-12.5-9-2.07-3.6-3.56-7.53-5.31-11.31a8.52,8.52,0,0,1-2.74-3.65c-4.84-15.84-15.95-22.37-32.33-20.43-7.42.88-16.48,5.12-21.65-5.08l.9-1.09c12.51,3.7,29.3,1.28,41.18-6,3.41-2.09,6.86-2.34,10.19-.1,2.92,2,5.05,5,3.85,8.43-3.12,9,1.63,16.45,4,24.41C2615.19,837.34,2615.18,838.72,2614.32,840.23Z"/><path class="cls-38" d="M2343.8,840c-40.83-.19-81.67.31-122.49-2,40.18-2.68,80.4-1.79,120.59-2.28C2343.74,836.62,2345,837.81,2343.8,840Z"/><path class="cls-39" d="M2609.7,835.74l.57,4-117.88.2a3.83,3.83,0,0,1,1.53-4.11c3.6-3,8-3,12.26-3q45.63-.12,91.27,0C2601.73,832.83,2606.12,832.65,2609.7,835.74Z"/><path class="cls-40" d="M2537.82,772.53a3.21,3.21,0,0,1-1.89-2.77c54.62.06,109.23,0,163.85.24,18.6.09,37.22-.31,55.81,2.32q-102.39,0-204.78,0C2546.48,772.33,2542.15,772.46,2537.82,772.53Z"/><path class="cls-41" d="M2714,834c3.65,2,7.61,2,11.63,2,9.59-.08,19.19,0,30.47,0-6.38,4.57-42.48,5.63-92.26,3.88a2.16,2.16,0,0,1,.56-2.91,11,11,0,0,1,5.8-3.31C2684.84,833.33,2699.45,832,2714,834Z"/><path class="cls-42" d="M2714,834c-2.26,2.86-5.47,1.9-8.32,1.9-12.62,0-25.23-.17-37.84-.28-.34-1.87.65-3.9,2-4.12,9.38-1.58,16.76-8,25.82-10.27,3.34,2.08,7.52,2.23,10.69,4.69l1.74,1.57c2,2.1,4.4,3.86,5.89,6.45Z"/><path class="cls-43" d="M2834.23,803.87a16.75,16.75,0,0,0,1.86.19q0,50.91.07,101.81,0,25.89,0,51.77l-2,0v-18Q2834.18,871.76,2834.23,803.87Z"/><path class="cls-44" d="M2696.22,821.69c-3.57-.3-5.74.78-7.53,4.46-3.06,6.25-5.31,7.39-11.79,5.06-5.43-1.94-7.05.89-9,4.42l-3.95,2.61a1.48,1.48,0,0,1-.54-1.28c0-.47.14-.71.25-.71,4.09-4.51,8.49-8.34,8.85-15.58.28-5.76,8.31-8.19,13.1-4.16a16.38,16.38,0,0,0,10.57,4.17C2696.17,821,2696.2,821.35,2696.22,821.69Z"/><path class="cls-45" d="M2428.24,836c0,1.26,0,2.53,0,3.8l-68.39-.29c-.85-1.5-.85-2.83.79-3.81Z"/><path class="cls-35" d="M2360.59,835.71c-.26,1.27-.52,2.54-.79,3.81-3.86,3.85-8.82,4-13.78,4.08-2.78.07-1.24-2.53-2.22-3.57q-.95-2.16-1.9-4.32c3.68-11.21,4.93-11.72,19.12-7.79C2360,830.47,2360.26,833.09,2360.59,835.71Z"/><path class="cls-46" d="M2281.88,884.06c-5.25,0-7.49-3.78-9.26-7.76-1.66-3.75,1.76-5.69,3.83-7.68,2.9-2.77,6.45-3.14,10.05-.84,2.65,1.69,4.06,5.57,8.21,4.7.28-.06.95.4.95.6C2295.62,874.27,2283.22,884.06,2281.88,884.06Z"/><path class="cls-47" d="M2287.69,725c-43.38,1.61-86.61,1.69-129.84,0C2201.18,723.23,2244.51,723.32,2287.69,725Z"/><path class="cls-48" d="M2663.63,836.25c.1.66.19,1.32.29,2s0,1.06-.05,1.59a1.3,1.3,0,0,1-1,.25,1.71,1.71,0,0,1-2.92,0l-45.61.18c-.21-1.34-.43-2.69-.64-4Z"/><path class="cls-49" d="M2642.89,906c7.05-3.39,14.33-1.86,21.49-2.37,4.82-.34,10,1.51,14.3-2.36a2.92,2.92,0,0,1,2.71-.36c8.57,5.45,18.07,2,27.1,3,2.59.28,5.29-.59,7.77,2.13Z"/><path class="cls-50" d="M2242.2,904.75c8.34-1.44,15.64-.46,22.87-.91,5.14-.32,10.73,1.68,15.23-2.61a2.09,2.09,0,0,1,1.8-.49c10.57,6,22.13,1.39,33.08,3.16.59.09,1.11.65,1.66,1C2309.74,906.8,2254,906.84,2242.2,904.75Z"/><path class="cls-51" d="M2396.84,906.08h-73.78c8.34-3.07,16.84-1.94,25.27-2.38,3.85-.2,8,1.19,11.4-2a3.14,3.14,0,0,1,2.69-.7c9.74,5.15,20.19,1.3,30.23,2.55,1.26.15,2.53.33,3.8.5Z"/><path class="cls-52" d="M2152.77,772.58c-.78-2-1.82-3.73-2.13-5.61-.37-2.24,2.29-3.23,3-2.25,2.55,3.5,4.5,2.42,7.71.81,3.37-1.7,5.41,1.34,6.23,4.4s-2.13,7.94-4.84,7.11a16.35,16.35,0,0,0-10.88.27c-.54.2-1.78-.79-2.29-1.52-1-1.44.53-1.46,1.3-1.77S2152.8,773.66,2152.77,772.58Z"/><path class="cls-53" d="M2446.75,839.94c0-1.36,0-2.71,0-4.06l42.9,0a4,4,0,0,1-1.31,4.17C2474.49,844.74,2460.61,845.26,2446.75,839.94Z"/><path class="cls-54" d="M2638.34,906h-76c2.12-3.35,4.59-2.23,6.65-2.47,10.41-1.21,21.2,2.56,31.31-2.45,8.71,4.37,18.08,2,27.15,2.64C2630.62,904,2634,902.75,2638.34,906Z"/><path class="cls-55" d="M2149.12,898.76c3.09-.8,5.38,1.89,8.08-.08,2.24-1.62,4.58-.4,6,1.69a7.41,7.41,0,0,1,.42,7.61c-1.18,2.44-3.59,2.38-6.05,2.11C2150.61,909.32,2150.61,909.4,2149.12,898.76Z"/><path class="cls-35" d="M2432.05,822.08c-3-.69-3.53-3.63-5.08-5.61-9.71-12.39-21.83-15.85-36.58-10.31-2.11.79-4,2.35-6.47,1.9A30.07,30.07,0,0,1,2432.05,822.08Z"/><path class="cls-56" d="M2723.66,904c7.2,0,14.39,0,21.59,0,4.48,0,9.23,1.46,12.88-2.86,1.21-1.44,3-.92,4.38.3a3.15,3.15,0,0,1,1,3.56c-.62,1.63-2,3.06-3.77,2.49-11-3.65-22.25-.44-33.33-1.46a20,20,0,0,1-2.81-.65C2723.61,904.93,2723.63,904.47,2723.66,904Z"/><path class="cls-57" d="M2156.16,833.82a34.35,34.35,0,0,1,4.48-1.8c3.33-.84,5.85.41,6.85,3.7a6.34,6.34,0,0,1-2.9,7.61c-3.2,1.87-5.42-.17-6.94-3.07A19.4,19.4,0,0,0,2156,838,2.77,2.77,0,0,1,2156.16,833.82Z"/><path class="cls-58" d="M2235.93,906c-4.59,0-9.17-.08-13.75,0-6.51.15-13.13-1.56-19.52,1.38-1.65.75-3.13-.72-3.88-2.3a3.14,3.14,0,0,1,.83-3.58c1-1.13,2.74-1.78,3.5-1,6.73,6.77,15,2.38,22.54,3.41C2229.18,904.43,2232.88,903,2235.93,906Z"/><path class="cls-43" d="M2202.82,933.82c4.79-.29,6.12,2.45,6.38,5.53.28,3.29-1.5,6-4.92,6.31-3.19.25-4.53-2.32-4.7-5.23C2199.4,937.35,2199.69,934.4,2202.82,933.82Z"/><path class="cls-59" d="M2681.66,941.67c-.45,2.4-1.83,3.89-3.95,4-3.63.23-5.41-2-5.76-5.39-.39-3.75,2.4-6.75,5.73-6.44.85.08,1.56.67,1.17,1.08C2674.5,939.39,2683.74,938.37,2681.66,941.67Z"/><path class="cls-60" d="M2341.68,847.59c-7.12,6.77-15.14,12.23-25,15l23.89-16.66Z"/><path class="cls-61" d="M2437.71,906H2403c0-.79,0-1.59,0-2.39h34.45a1.46,1.46,0,0,1,.77,1.53C2438.06,905.72,2437.9,906,2437.71,906Z"/><path class="cls-61" d="M2517.63,906H2483l0-2.4h34.34Q2519,904.63,2517.63,906Z"/><path class="cls-62" d="M2525.62,903.66H2557c0,.78,0,1.55,0,2.33h-32.45C2523.21,904.41,2524.25,904,2525.62,903.66Z"/><path class="cls-63" d="M2445.91,903.63h31l0,2.33h-32.22C2443,904.09,2444.41,903.84,2445.91,903.63Z"/><path class="cls-64" d="M2601.38,942.49c-.46,2.83-4.62,4.41-7.05,2.59-.75-.56-1.19-2.05-.11-2.19,3.44-.43,5.42-.78.75-3.06-1.5-.73-1.18-2.16-1.17-3.43a2.31,2.31,0,0,1,2.36-2.52c3-.11,2.9.58,1.39,3.1C2597,937.94,2601.85,939.27,2601.38,942.49Z"/><path class="cls-65" d="M2514.08,941.24c.52-2.94,2.38-4.68,4.72-6.54a43.87,43.87,0,0,1,4.09,6c.37.79-.63,3.22-1.22,3.3C2518.76,944.41,2516.45,942.61,2514.08,941.24Z"/><path class="cls-66" d="M2356.07,942.62c.15-1.87,6.73-4,.8-7.42.34-.4.63-1.06,1.05-1.15,1.66-.37,3.42-.29,4.23,1.45,1.69,3.63-1.92,6.53-1.61,10a14.59,14.59,0,0,1-2.87.08C2356.64,945.42,2356,944.69,2356.07,942.62Z"/><path class="cls-67" d="M2525.62,903.66l-1.13,2.33c-2.28,2.4-4.56,2.34-6.86,0l-.3-2.4C2521,898.92,2521.12,898.92,2525.62,903.66Z"/><path class="cls-68" d="M2445.91,903.63c-.41.78-.83,1.56-1.23,2.34-2.3,2.6-4.63,2.19-7,0-.09-.79-.19-1.59-.28-2.39C2441.24,898.93,2441.24,898.93,2445.91,903.63Z"/><path class="cls-69" d="M2439.46,943.34l-4.06-8.81c3.47-1.07,6.61-2.27,6.37,3.82-.08,2.21,1.23,4.56-1.27,6.22C2439.52,944.69,2439.17,944.28,2439.46,943.34Z"/><path class="cls-35" d="M2378.07,811.94c-3,4.85-7.48,8.08-12.17,11.08C2368,817.15,2372.27,813.72,2378.07,811.94Z"/><path class="cls-70" d="M2757,941.13a1.65,1.65,0,0,1-1.13-2.37c1.15-3.16-5.44-1-3-4.31,1.15-1.57,4-1.23,5.58-.37,3.19,1.74.33,3.93-.24,5.9C2758.06,940.45,2757.41,940.77,2757,941.13Z"/><path class="cls-35" d="M2659.93,840.05l2.91,0a35.24,35.24,0,0,1-8.92,10.91C2653.29,845.9,2658.85,844.21,2659.93,840.05Z"/><path class="cls-41" d="M2696.22,821.69a.8.8,0,0,1-.07-1c3.76,1,7.87,1.41,10.19,5.25C2702.46,825.73,2699,824.62,2696.22,821.69Z"/><path class="cls-71" d="M2154.28,838.52a9.28,9.28,0,0,0,.33,2.83c1.25,2.71-.76,2.51-2.24,2.51-1.93,0-3.09-1-2.11-3a5.55,5.55,0,0,1,3.54-3Z"/><path class="cls-35" d="M2627.91,860h10.18C2634.7,862.86,2631.3,862.92,2627.91,860Z"/><path class="cls-41" d="M2714,834c-2.87-1.32-5.17-3.16-5.89-6.44C2711.27,828.53,2713.86,830.11,2714,834Z"/><path class="cls-72" d="M2156.16,833.82,2156,838a2.55,2.55,0,0,1-1.7.55l-.48-.67a6.93,6.93,0,0,1,0-1.87c.57-2.15-3.93-1.48-2.25-3.43C2152.58,831.3,2155,831.72,2156.16,833.82Z"/><path class="cls-69" d="M2440.5,944.57a3.81,3.81,0,0,1-3.46,1.3c-1-.09-2.14-.52-2.14-1.57,0-2.3,1.64-.92,2.63-1,.64,0,1.29,0,1.93,0C2439.8,943.75,2440.14,944.17,2440.5,944.57Z"/><path class="cls-35" d="M2643.92,858.06c1.49-2.87,3.65-4.61,7.1-4.13C2649.11,856.09,2647.14,858.15,2643.92,858.06Z"/><path class="cls-35" d="M2384.08,807.94c-1.12,2.76-3.07,4.29-6.16,4.12A5.72,5.72,0,0,1,2384.08,807.94Z"/><path class="cls-35" d="M2637.91,860.05c1.44-2.54,3.86-2.15,6.18-2.1C2642.76,860.82,2640.23,860.11,2637.91,860.05Z"/><path class="cls-7" d="M442.47,981.8c9-2.34,18-4.83,27-6.91,2.88-.66,7-3.21,8.67,1.22,1.43,3.83-1.22,7.06-4.58,9.07-5.42,3.23-11,6.23-17,9.61,4.54,7.24,10.33,13.08,16,19,3.52,3.63,8.39,3.69,13.09,3.7,12.33,0,24.66,0,37,0,3.65,0,7.3.34,10.95.52-2.17,4.81-6,7.22-11,8.83-9.6,3.09-19.62,4.9-28.83,9.19a2.91,2.91,0,0,1-3.72.66,38.32,38.32,0,0,1-13.68,1.5c-18-1.26-36-3.31-53.93-5.53-8.15-1-16.35-1.62-24.52-2.41l.06-8.26-.07.1c2.25-2.31-.17-5.82,2.08-8.14l-.07.14c2.57-7.23,3.47-14.91,6.08-22.13l-.06.13c1.63-1.06.15-4.85,3.7-4.24C421,987.75,432.09,986.7,442.47,981.8Z"/><path class="cls-1" d="M364.66,918c1.37,13.92,4.82,27.56,5.53,41.56-11.95-2.32-20.12-11.38-30.13-17.15-2.93-1.68-1.31-5.53-.44-8.32q4.42-14.19,8.09-28.6c2.15-6.25,3.78-12.64,5.43-19,.78-3,.62-7.85,4.07-8.13,4.58-.38,4.9,4.47,5.51,8C364.5,896.78,366,907.29,364.66,918Z"/><path class="cls-73" d="M452.26,821.9c14.23,17.92,26.38,37.28,40.72,57.32-4.81-.85-6.23-3.48-7.91-5.48Q460.14,844,435.3,814.25c-10.86-13-21.73-25.9-32.75-38.72-2.65-3.07-2.59-5.47-.46-8.83,3.54-5.6,6.17-11.79,9.81-17.32,2.23-3.39,1.12-5.29-1.12-7.73-2.65-2.87-6.34-5-7-9.41,8,.27,11.86,7.4,17.86,11,3,1.78,1.38,5-.66,6.84-13.09,12-7.6,22.46,1.76,33.61,8.92,10.63,16.48,22.37,24.39,33.8C448.46,819.42,449.79,821.31,452.26,821.9Z"/><path class="cls-74" d="M364.66,918l-6-39H357l-8.37,26.95a1.43,1.43,0,0,1-2.53.19q10.81-37.1,21.62-74.2l2.14.15c0,6.27.9,12.69-.17,18.77-2.82,15.89-1.24,31.83-1.67,47.74C367.85,905.24,367.23,911.74,364.66,918Z"/><path class="cls-75" d="M508,860c1.82-11.66,8-21.7,12.27-32.42C528.4,807.24,537,787.09,545.77,767c2.1-4.84,2.43-8.51-1.74-12.41-3.37-3.16-5.79-7.31-9.06-10.6s-2.48-5.44.45-8.26c5.27-5.07,10.29-10.39,15.36-15.66,2.48-2.58,5.45-4.83,5.6-10,3.08,4.89.78,7.24-1.48,9.6-5.29,5.52-10.47,11.15-15.9,16.53-2.68,2.65-2.92,4.77-.22,7.54,2.54,2.61,4.28,6.12,7.1,8.3,7.08,5.47,5.74,11.89,2.87,18.59-8.77,20.42-17.49,40.87-26.52,61.17C518,841.44,514.79,851.65,508,860Z"/><path class="cls-76" d="M452.26,821.9c-1.55,2.28-2.92.75-3.8-.46q-18.6-25.65-37.09-51.41c-2.3-3.19-1.67-6.06.51-9.07,2.91-4,5.48-8.27,8.38-12.28,1.79-2.47,1.27-4.32-1.05-5.8-5.27-3.37-9.6-8.1-15.43-10.64-2.49-2.17-5-4.31-7.45-6.53-5.05-4.57-5-4.58-.28-11.66L396,714c-1.17,5.57,1.1,9.32,5.75,12.44C408.59,731,415,736.31,421.85,741c3.76,2.59,4.81,5,1.64,8.8-2.73,3.32-4.72,7.25-7.49,10.52-3.13,3.7-2.83,6.73-.06,10.51,8.23,11.24,16.17,22.69,24.22,34Q446.21,813.4,452.26,821.9Z"/><path class="cls-25" d="M346.11,906.09l2.53-.18c-1.58,9.81-4.85,19.2-7.69,28.67-1.42,4.71-.34,7.26,3.83,9.62,8.6,4.88,17,10.19,25.41,15.32,11.12,7.14,22.28,14.2,33.31,21.46,2.58,1.7,6.44,2.53,6.23,6.87-1.87.87-1.27,3.88-3.7,4.24.58-4.72-2.25-7.06-5.88-9.34-18.87-11.82-37.6-23.86-56.43-35.75-7.88-5-7.89-4.9-5.2-14.15C341.1,923.94,343.58,915,346.11,906.09Z"/><path class="cls-77" d="M606.79,815.69a554.37,554.37,0,0,1-6.2-87.71C605.16,757.11,605.86,786.52,606.79,815.69Z"/><path class="cls-78" d="M352.81,733c17.17,16.63,24.68,36.9,22.35,60.72C373.37,771.44,366.54,751,352.81,733Z"/><path class="cls-25" d="M406.09,992a46.21,46.21,0,0,1-6.08,22.13C400.55,1006.31,401.85,998.73,406.09,992Z"/><path class="cls-75" d="M508,860c.37,3.26-1,5.83-4,9.31.53-4.48,1.12-7.35,3.94-9.34Z"/><path class="cls-76" d="M398.06,708a12.09,12.09,0,0,1,4-9.94L402,698a12.47,12.47,0,0,1-4,9.93Z"/><path class="cls-25" d="M400.08,1014c.15,2.93.73,6-2.08,8.14C398.09,1019.23,397,1016.07,400.08,1014Z"/><path class="cls-76" d="M402.09,698.1c0-.93,0-1.88.11-2.81a10.13,10.13,0,0,1,.51-1.74c1.2.42,1.16,1.44.84,2.27A10.24,10.24,0,0,1,402,698Z"/><path class="cls-76" d="M396.05,714.05c-.08-2.26-.73-4.7,2-6l-.14-.12c.05,2.24.68,4.68-2,6.06Z"/><path class="cls-3" d="M2100,1004c2.24,3.8,6,2.1,9,2.11,29.28.14,58.57.1,87.86.08q126.32-.06,252.62-.15c11.39,0,11-1,11,10.66q0,45.93,0,91.86c0,3.65.28,7.3.43,11,.57,3.69-2.39,5.14-4.52,7.12-8.63,8-8.75,9.08-2.19,19.16,4.12,6.81,10.23,12.63,10.52,21.33,1,24.6.3,49.2.39,73.8,0,4-.32,8-3.26,11.2-9.36,4.33-18.77,8.56-28,13-3.56,1.72-7.35,3.19-10.15,6.2a5.31,5.31,0,0,1-2.7,3.17c-23.13,16-43.44,34.57-53.92,61.69-6.49,18.87-8.59,38-3.83,57.6.63,2.58,1,5.25-.93,7.58-1.93,5.57-1.93,5.57-1.54,11.6-3.72,1.8-7.76.94-11.65.94q-239,.07-477.93,0H702.31c-16,0-14.29,1.46-14.29-14.61q0-179.48,0-359c0-1.33,0-2.67,0-4,.06-11.23.06-11.23,10-5.79,4.08,2.24,9,2.57,12.51.55,9.22-5.31,18.89-3.65,28.15-2.24,5.06.77,7.52-.92,10.16-3.81,2.91-3.18,4.3-6.7.86-10.64-2.09-2.4-1.31-4.39.66-7,4.7-6.14,6.35-13.69,8.57-21,1-3.34-1.1-5.78-1-8.71-3.07-3.46-3.69-7.7-3.88-12.09.51-3.74,2.79-6.71,4.45-9.92q24.33-46.89,48.79-93.7a48.09,48.09,0,0,0,3-6.29c2.71-7.88-1.61-14.81-10-15.87a62.23,62.23,0,0,0-8-.16l-105.71,0c-.1-3.66-.29-7.31-.29-11q0-240.18.1-480.35c0-3.32-2-7.24,1.56-10.12,3.84,4.12,3,9.31,3.06,14.2.12,21.26,0,42.53.07,63.79,0,13.81.11,13.83,13.59,14.6,3.33.19,6.65.35,9.78,1.67,4.75,3.27,10.19,2.53,15.45,2.53q107.09,0,214.17,0,167.91.11,335.82,0,294,.11,587.91,0,167.91.11,335.83,0,107.66.14,215.31,0c5,0,10,.54,14.46-2.52,3.43-1.49,7.1-1.55,10.75-1.73,12.2-.61,12.59-.93,12.65-13.51.1-21.61,0-43.22.08-64.83,0-4.9-.78-10.09,3.07-14.21,3.54,2.88,1.56,6.79,1.56,10.11q.21,151.17.12,302.34c0,3.66.1,7.32.15,11-2.76,2.7-6.25,1.85-9.5,1.84q-121.92-.12-243.85-.34c-9.56,0-9.6-.09-9.61-10.15q0-37,0-74a81.34,81.34,0,0,0-.23-9c-.87-7.6-5.36-12.08-12.84-12.91a73.38,73.38,0,0,0-8-.15H1848c-2,0-4-.06-6,0-10.08.5-15.49,5.49-15.57,15.6q-.32,46.47,0,93c.07,10.37,5.8,15.73,16.36,16,8.32.22,16.66.06,25,.06q110.45,0,220.89,0c12.54,0,11.07-1,11.08,11.38q0,149.92,0,299.84C2099.75,996.7,2099.89,1000.36,2100,1004Z"/><path class="cls-3" d="M714.35,434.15c-6.61-.06-13.23-.26-19.84-.12-4.58.1-6.71-1.66-6.53-6.37s0-9.26,0-13.89V338.36c3.56-1.29,7.27-.66,10.9-.66q875.1,0,1750.2,0c3.63,0,7.34-.63,10.9.66v83.35c0,2.32-.07,4.63,0,7,.06,3.75-1.85,5.33-5.49,5.33-6.94,0-13.89.1-20.83.16-4.21,3-9,1.78-13.6,1.79q-122,.12-244,.06H972.16q-122.13,0-244.25-.06C723.36,435.93,718.55,437.13,714.35,434.15Z"/><path class="cls-1" d="M657.65,358c-2.93,3.07-1.8,6.94-1.82,10.47-.12,17.65,0,35.3-.09,52.95,0,8.33-.16,8.39-8.25,8.52-6.66.1-13.33-.27-20,.11-5.43.31-8.59-1.74-10.91-6.62-5.41-11.41-11.06-22.67-18.31-33.13-8.47-12.23-18.43-22.41-31.88-29.2-15.18-7.67-30-6.54-45,.16-13.72,6.1-25.68,15.33-39.25,21.68-5.14,2.4-10.25,4.58-16,5.06-15.46,1.28-26.72-5-35.3-17.79-7.4-11-11-23.35-14.34-35.86-1.09-4,.48-6.46,5-6.35,2.33.05,4.66,0,7,0q115.89,0,231.78.09c4.08,0,8.79-1.78,12.1,2.49A68.48,68.48,0,0,0,657.65,358Z"/><path class="cls-2" d="M547.71,489.9c-19.72,4.79-38.64,3.52-56.84-6.38-8.44-4.59-17.58-7.83-27.45-8-3.65-.05-7.24.13-10.64,1.88-4.15,2.13-6.73,5.05-7,10s-1,9.88-1.7,14.79c-.63,4.36-2,9.08-5.57,11.33-6.17,3.87-6.63,9.17-6.27,15.35a19.82,19.82,0,0,1-2.51,10.53c-1.68,3.13-4.15,5.09-7.91,5-3.54-.07-5.32-2.28-6.53-5.21-1-2.42-2-4.85-2.93-7.27-1.63-14.46-1.28-29.13-5.48-43.32a30,30,0,0,1,.67-17.7c3.15-9.79,9.33-16.12,19.9-16.64,3.91-.2,5.68-1.63,7.6-4.8,13.56-22.41,36.16-29.34,60.07-18.68,2.73,1.22,5.43,2.49,8.12,3.79,8.27,4,16.2,4.35,24.76,0,9.88-5.05,12.34-4,18.4,5.53,1.34,2.1,2.66,2.12,4.74,2.32,10.24,1,14.54,7.49,11,17.23-1.71,4.7-3.17,8.87-1.81,14.09,1.17,4.5-1.76,8.31-5.25,11.16C552.77,486.75,550.17,488.24,547.71,489.9Z"/><path class="cls-79" d="M1900.51,652.68A28.37,28.37,0,0,1,1872.12,624c.09-16.28,13.09-28.74,29.61-28.4a28.53,28.53,0,1,1-1.22,57Z"/><path class="cls-80" d="M1993.82,632a79.91,79.91,0,0,1,9.07.06,9.16,9.16,0,0,1,8.41,8.46c.27,4.43-1.82,7.63-5.77,9.57a12.66,12.66,0,0,1-17.72-7.47c-4.29-13.06,3.57-24,16.24-22.65,2.24.24,5.21.27,4.9,3.41-.24,2.43-2.67,2.28-4.79,2.06C1999.23,625,1995,625.69,1993.82,632Z"/><path class="cls-81" d="M2050,635.59c.17-5.27,1.27-9,4.17-12a11.88,11.88,0,0,1,18.8,1.84,18.62,18.62,0,0,1,.36,19.82c-4.74,8.36-16.36,8.1-21.08-.3C2050.39,641.68,2049.56,638.16,2050,635.59Z"/><path class="cls-82" d="M2104.55,635.52a43.31,43.31,0,0,1-.87,6.62,12.47,12.47,0,0,1-11.71,9.24,12.34,12.34,0,0,1-11.84-9,23.35,23.35,0,0,1-.19-12.84c1.48-5.83,5.71-9.31,11.28-9.53,6.08-.23,10.84,3.21,12.53,9.31A45.63,45.63,0,0,1,2104.55,635.52Z"/><path class="cls-83" d="M2037.15,620c2.63.62,7.29-1.49,7.63,2.12.49,5.19-4.62,2.94-7.47,3.41-2.25.37-5-.18-5,3.29,0,3.64,3,2.68,5,3.18,7.28,1.72,10.27,4.93,9.77,10.36s-5.57,9.26-12.38,9.05a23.1,23.1,0,0,1-5.85-1.12c-2.12-.63-5.21-1.05-4.32-4.18,1-3.32,3.59-1.84,5.74-1a6.94,6.94,0,0,0,1.93.49c3.36.29,7.49.88,8.17-3.43.79-5-3.79-4.26-6.9-4.87-2.63-.51-6.83,1.52-7.27-2.94s-1-9.76,2.16-13.43C2030.27,618.82,2034.13,620.28,2037.15,620Z"/><path class="cls-84" d="M2029.62,591.75c1.73,3.18-.64,5.58-1.69,8.21-.4,1-1.9,1.71-2.34,1.16-2.53-3.17-4.76-2.46-7,.14-3.49-5-6.37-1.32-9.43.6-.49.31-1.3.1-1.95.21-3.32.57-4.31-4.69-6.84-3.52-2.22,1-3.84,3.62-6.76,3.54-2.24-.05-5,.91-6.4-1.55-1.86-3.36-1.43-7.26-.44-10.7s4.46-1.79,6.9-2.37c4.51-1.06,5.49,5.38,8.81,4.49s6.1-3.17,9-.11c1.68,1.77,3.49-2.58,4.84.53s2.64,3.48,4.29,0c.78-1.67,2.55-2.06,3.66.24C2026.93,598.17,2027.61,591,2029.62,591.75Z"/><path class="cls-85" d="M2066,602a10.54,10.54,0,0,0-8.9-.14c-3.11,1.2-5.88-.47-7-3.74a5.6,5.6,0,0,1,2.28-7c2.59-1.79,5-1.27,7.17.74,1.2,1.11,2.21,2.45,3.49,3.45,1,.8,1.56,0,1.41-2.65-.1-1.64.73-2.53,2.14-2.58,4.1-.15,6.11,2.49,5.79,7.35C2072.13,601.29,2070.77,602.34,2066,602Z"/><path class="cls-86" d="M1964.29,667.3V567.61C1966.61,576.33,1967.05,652.42,1964.29,667.3Z"/><path class="cls-87" d="M2085.17,586.93c1.42,3.51.83,6.48.91,9.39.08,2.75-.18,5.29-3.8,5.69s-6.71,0-8.16-3.68a5.68,5.68,0,0,1,2.79-7.53C2079.37,589.43,2082,588.39,2085.17,586.93Z"/><path class="cls-84" d="M2032.17,600.84c.06-4-2-7.6,1.4-9.94a5.74,5.74,0,0,1,6.53,0c3.74,2.63,2.27,6.23,2,9.77-3.93-.94-.46-6.66-4.84-6.36C2034,594.57,2035.43,598.92,2032.17,600.84Z"/><path class="cls-88" d="M2018.12,643.73c2.23.37,3.81,1.47,3.58,3.87a3.59,3.59,0,0,1-4,3.46,3.47,3.47,0,0,1-3.53-3.89C2014.29,644.73,2015.89,643.81,2018.12,643.73Z"/><path class="cls-89" d="M2046.71,585.7c1.91,6.11,1.75,10.44.45,16.49C2045.21,596.21,2045.5,591.87,2046.71,585.7Z"/><path class="cls-90" d="M490.14,1036.69l3.72-.66c-.68,13.86-2.39,27.66-3.72,41.56Z"/><path class="cls-1" d="M2619.21,1475.1q.3,33.5.59,67,.28,38.49.45,77c.05,8.53,0,8.54-8.78,8.62-3,0-6-.05-9-.07-2.63-2.56-2.71-6.15-2.83-9.27-1.43-37.38-5.33-74.59-7.54-111.92a17.54,17.54,0,0,1,.27-3Q2605.8,1489.28,2619.21,1475.1Z"/><path class="cls-91" d="M2462.07,1163.63c-2.2-6.58-7.59-11.35-10.1-17.76,1.54-5.11,5-2.93,7.49-1.51,18,10.42,36.13,20.61,53.68,31.79,3,1.89,5,4.44,3.22,8.3-4.75,11-11.3,20.92-17.1,32.09-6.2-4.28-7.76-11-13.8-16.61V1246l-.82-.23c-3.48-2-3.1-5.55-3.32-8.77a64.82,64.82,0,0,1-.06-10.88c1.78-18.37-.83-35.47-13.38-50C2464.8,1172.57,2464.22,1167.71,2462.07,1163.63Z"/><path class="cls-92" d="M2462.07,1163.63c8.22,9.51,13.82,20.8,21,31,1.84,2.62,1.21,5.72,1.24,8.65q.2,21.26.33,42.51a142.88,142.88,0,0,1-22.79,6.34Q2462,1207.89,2462.07,1163.63Z"/><path class="cls-93" d="M2419.71,1272.8l3.93-1.42c9.31.15,18.62.23,27.92.48,10,.26,19.91-.12,29.82,1.7,8.33,1.53,16.47.62,24-4.14,2.64-1.67,5.54-3.65,10.37-3-4.66,3.94-9.55,5.54-14,7.6-4.68,2.16-6.57,5.21-5.61,10.14,2.23,11.46,1.63,23.16,3.12,34.69,1.4,10.87,1,21.78.15,32.72-2.48-23.75-5.24-47.45-5.55-71.33-3.25-1.37-5.15,1.17-7.21,2.37a267.27,267.27,0,0,0-45.85,33.4c-2.76,2.51-5,5-4.83,9.28,1.11,22.3-1.84,44.49-1.87,66.76l0,0c-6.43-1.08-4.58-6.4-4.58-10.07,0-17.1-1.3-34.25,2-52.94-8.54,7.38-13.8,15.82-21.79,21.36a3.62,3.62,0,0,1-3.83-1.51c1.3-10.8,11.23-15.55,16.62-23.49,2.13-3.15,6-5.13,5.82-9.7,11.65-4.63,19.75-14.25,29.76-21.18,7.89-5.46,15.63-11.1,25.38-16.41-19.76,2.2-37.92-2.25-56.3-1.7C2424.3,1276.52,2421,1276.41,2419.71,1272.8Z"/><path class="cls-18" d="M2577.2,1496.11c-2.21-19.3,1-67.15,6.14-95.58-14.26,12.4-26.76,25.29-42.06,34.69,6.27-8.57,14.82-14.76,22.65-21.59,20.35-17.75,20.54-17.54,25.76-43.48,3.15-15.66,8.19-30.8,12.68-46.09.51-1.74.92-3.88,4.39-5.48-8.45,29.52-15.92,58.24-20.83,87.6C2581.05,1435.32,2580.33,1464.81,2577.2,1496.11Z"/><path class="cls-94" d="M2592.38,1503.44c3.3,9.28,2.29,19.11,3.2,28.63,2.23,23.17,3.36,46.46,4.6,69.71.47,8.65.83,17.28,2.3,25.82l-4.81.09c1.51-10.22,0-20.42-.46-30.59-.63-13.25-2.32-26.43-3.19-39.67-1.12-17.22-2.44-34.41-4.46-51.55Z"/><path class="cls-95" d="M2613.15,1297.51c-.71,8.27-.5,8.07,6.15,14.88,10.66,10.91,21,22.12,31.42,33.1-2.08,1.23-3.29-1.53-4.7-2.9-9.76-9.51-19.3-19.25-29.18-28.64-1.84-1.74-2.76-6.49-7.51-3.54-1.13.71-2.61-4.45-1-6.72S2611.53,1299.56,2613.15,1297.51Z"/><path class="cls-18" d="M2632.22,1427.65l-37.08-53.39C2604.66,1381,2628.71,1414.57,2632.22,1427.65Z"/><path class="cls-96" d="M2599.29,1311.27a610,610,0,0,1-53.69,34.58C2551.41,1338.48,2590.69,1313.29,2599.29,1311.27Z"/><path class="cls-97" d="M2727.86,1738.25c-5.38,3-11.38,3.2-17.26,3.28q-76.91,1-153.83,0c-6.2-.09-12.38-1.27-18.57-2,0,0-.12-.7,0-.75a17.24,17.24,0,0,1,1.82-.79c38.31-.06,76.61-.18,114.92-.15C2679.23,1737.88,2703.55,1738.11,2727.86,1738.25Z"/><path class="cls-98" d="M2723.58,1749.07q-88.62,3-177.22,0C2605.43,1747.74,2664.51,1747.63,2723.58,1749.07Z"/><path class="cls-99" d="M2544.48,1761q89.78-2.07,179.25,0Q2634,1763.72,2544.48,1761Z"/><path class="cls-97" d="M2533.85,1744.11a6.68,6.68,0,0,1-1.46-6.33C2534.8,1739.45,2534.52,1741.73,2533.85,1744.11Z"/><path class="cls-100" d="M505,524.75c6.47,11.47,10.15,23.48,14.45,35.18,2.38,6.46-.18,8.17-9.78,7.47.3-1.23,1.36-1.31,2.31-1.38,4.49-.29,5.53-2.16,3.84-6.48-3.85-9.82-7.28-19.8-10.9-29.7A5.78,5.78,0,0,1,505,524.75Z"/><path class="cls-101" d="M488.93,507.28,464.69,510C469,501.29,477.74,500,488.93,507.28Z"/><path class="cls-102" d="M537.56,511.15c-5.17,1.49-9.5.15-13.78.57-1.6.15-3.56.12-3.65-2.17-.06-1.41,1.19-2.28,2.39-2.87C527.56,504.22,532.22,505.47,537.56,511.15Z"/><path class="cls-103" d="M539.18,535c-.69,2.83-2.08,5-5.34,4.88a4.36,4.36,0,0,1-4.6-4.31c-.24-3.12,1.52-5.07,4.61-5.33C537.12,530,538.53,532.19,539.18,535Z"/><path class="cls-104" d="M481.24,539.93c-2.91-.64-4.76-2.39-4.25-5.53a4.56,4.56,0,0,1,4.81-4.17c3.17.06,5.06,2,4.91,5S484.48,539.93,481.24,539.93Z"/><path class="cls-105" d="M466.22,527.92c8.92-7.74,12-7.79,19.7-1.22-3.36,1.95-6.23-1.19-9.24-.51C473.89,526.81,471.05,527.14,466.22,527.92Z"/><path class="cls-106" d="M521.48,525.79c6.64-5.79,9.09-5.83,17.57-.31C532.69,526.43,527.1,524.56,521.48,525.79Z"/><path class="cls-107" d="M490.85,573.15c2.77,6.3,7.35,10.2,15.31,11.72C495,587.28,490.78,583.82,490.85,573.15Z"/><path class="cls-108" d="M2808.06,1586c-3.66-1.18-4.53-4.68-5.95-7.53-4.89-9.77-9.67-19.61-14.22-29.55-4.43-9.66-9-19.19-15.29-27.85-1.72-2.38-3-5.36-6.69-5.1l.12.1c.66-4.71-2.82-7.24-5.46-10.14-11.89-13.05-25.08-24.88-36.43-38.45-2.09-2.5-5-4.42-5.92-8.08,2.62-1.38,3.37,1.1,4.47,2.25,7.6,8,15.24,15.86,22.57,24.05,4,4.52,8.55,6.07,14.71,6.6a183.47,183.47,0,0,1,54.41,13.12c-19.55-3.09-38.56-8.87-60.33-11.8,12.86,14.78,24.85,27.93,32.15,44.38,7.14,16.08,14.5,32.06,21.76,48.08Z"/><path class="cls-109" d="M2782.07,1445.22c-23.46.89-46.5-3.16-69.61-6.42C2735.93,1437.76,2758.94,1442.21,2782.07,1445.22Z"/><path class="cls-110" d="M2712.33,1462.11q-7.51,29.09-15,58.15c.6-20.53,6.58-39.76,13.17-58.85Z"/><path class="cls-30" d="M2750.06,1572a134,134,0,0,1,13.67-50.28l.52.44c-2.27,14.33-7.62,27.85-11.21,41.83-.68,2.64.15,6.18-3.11,7.91Z"/><path class="cls-109" d="M2708.33,1445.79a10.83,10.83,0,0,1,1.16-.78,10.94,10.94,0,0,1,2.12,2.87c.25.65-.08,2.09-1.47,1A3.92,3.92,0,0,1,2708.33,1445.79Z"/><path class="cls-108" d="M2808,1586c2,.91,3.58,2.1,3.17,4.84-2.69-.83-3.3-2.62-3.08-4.92Z"/><path class="cls-30" d="M2748,1578.08c.67-2-.49-4.66,2.06-6l-.13-.1c.09,2.28,0,4.5-2,6.11Z"/><path class="cls-30" d="M2763.73,1521.75c.3-2.1-.06-4.46,2.3-5.73l-.12-.1c0,2.23.67,4.65-1.67,6.27Z"/><path class="cls-9" d="M286.07,1342.06c-3.65-.11-7-.39-5.25-5.64,4.63-14.26,10.42-28,18.63-40.59,3.65-5.6,10.09-7.27,15.84-9.55,3-1.21,5.45,1.62,4,4.64-6.52,13.29-11.06,27.78-22.95,37.88-4.3,3.65-8.38,7.66-10.27,13.27Z"/><path class="cls-111" d="M336.29,1837.94c6.67-.25,13.54-1.24,19.84,5.82-7.72-1.53-13.72-4.45-20.28-4A2,2,0,0,1,336.29,1837.94Z"/><path class="cls-18" d="M2777.92,1264.07c2.94-.08,4.85,2,7,3.4q31.46,20.29,62,41.91c1.45,1,3.65,1.42,3.7,3.91-2.75,1-4.39-1.18-6.15-2.35q-30.68-20.55-61.21-41.34c-2.16-1.47-4.62-2.76-5.29-5.67Z"/><path class="cls-78" d="M2709.92,1290.07c3.32-.16,5.45,2.2,7.83,3.88q21.89,15.45,43.64,31.06c.7.5,1.56,1,1.24,2.28-2.63,1-4.29-1.06-6.09-2.18-15.19-9.44-29.33-20.37-43.4-31.38a22.16,22.16,0,0,1-3.1-3.79Z"/><path class="cls-112" d="M2699.51,1297.86l2.53.15a275.94,275.94,0,0,0-14.69,27.35C2686.94,1318.39,2691.76,1307.85,2699.51,1297.86Z"/><path class="cls-4" d="M2516.36,1184.45c-.39-3.2-2.16-5.14-5-6.79-17.85-10.42-35.58-21.06-53.38-31.56-1.85-1.09-3.93-2.95-6-.23-7.67-9.88-7.62-11.06,1-19.15,2.6-2.45,5.3-4.79,8-7.18l1.53-1.66c3.1-5,7-8.74,13.51-8,15.77-.87,30.88,2.89,46,6.58a11.85,11.85,0,0,1,6,3.44c-23.3,5.17-46.65,10.16-69.55,17,23-6.75,46.32-11.85,69.71-16.79,5.55,0,10.3,2.59,15,4.91a134.6,134.6,0,0,1,50,41.74,48,48,0,0,1,2.74,5.09c-14.9,4.78-29.4,9.34-43.83,14.1-4.92,1.62-10.5,1.91-14.18,6.36-5.53-1.21-9.61-5.16-14.44-7.69C2520.92,1183.35,2518.73,1182.14,2516.36,1184.45Z"/><path class="cls-113" d="M628.19,1834c-.21,3.43-1.59,5.81-5.27,5.81-3.15,0-4.81-2-4.89-5s1.76-4.85,4.79-5.06S627.86,1830.78,628.19,1834Z"/><path class="cls-114" d="M387.62,1836.32c-.79,3.13-2.54,5.44-6.11,5.06-2.6-.29-4-2.28-4-4.87,0-3.09,1.61-5,4.83-5C385.36,1831.55,387.36,1833,387.62,1836.32Z"/><path class="cls-115" d="M328.05,1856.17c9.81-.55,16.58,3.94,20.88,12.48-6.33-5.18-13.78-8.55-20.8-12.61Z"/><path class="cls-9" d="M229.39,1618.78c-1.46-21.15-4.12-42.4,9.78-62.42,4.92,7.48,2.39,14.8,2.7,21.63.33,7.32-3.26,14.08-4.15,21.38C236.88,1606.28,235.31,1613.47,229.39,1618.78Z"/><path class="cls-9" d="M176.43,1607.53c-9.72,16-17.16,32.63-36.85,38.83C140.74,1630.21,159.26,1610.56,176.43,1607.53Z"/><path class="cls-2" d="M2476,1109.88l-13.51,8q-.09-50-.19-99.9c0-4.65-.15-9.31-.24-14,7.78.66,15.77-1.92,23.35,1.61a9,9,0,0,0-1,2.73q.07,48,.26,96.05l-2.39,1.81A10.06,10.06,0,0,0,2476,1109.88Z"/><path class="cls-116" d="M754.06,965.77c3.78,3.23,3.77,7.68,3.88,12.09-3.59,9.21-7,18.49-10.84,27.61-1.91,4.56-1.08,9.17-1.13,13.77s-2.07,6.84-6.59,6.84c-13,0-25.91,0-38.86-.18-5-.07-8.17-2.45-8.38-7.83,8.94-.12,17.9-.61,26.82-.23,5.51.24,8.36-1.84,10.74-6.61,7.09-14.23,14.61-28.26,22-42.34A24.12,24.12,0,0,1,754.06,965.77Z"/><path class="cls-117" d="M646.57,942.17c-8.34,0-14.47-5.83-14.14-13.35.37-8.07,8-15,16.87-15.11,8.5-.16,14.46,5.14,14.48,12.86C663.8,935.14,656,942.21,646.57,942.17Z"/><path class="cls-4" d="M2427.92,1318.05c1.77.33,4.78.06,2.06,3.12-6,6.7-12.15,13.22-18.15,19.89-2,2.21-3.69,4.67-5.52,7,.25,4.33-4.14,5.63-5.74,9.24,2.27-3,4.3-5.77,7.4-7.39l25.36-27.73a43.49,43.49,0,0,1-.1,14.72c-2.32,16.9-1.22,33.86-1.07,50.81a4.82,4.82,0,0,0,1.93,4.34c-17.68,8.13-36.34,13.52-54.77,19.49-8.56,2.78-10.54,1.15-17.05-10.14-6.26-21.23-6.27-42.33,1.27-63.29.57-1.56,1-3.15,2.3-4.28l1.44-.21c16.56-3.16,32.5-8.6,48.65-13.28,3.47-1,6.79-2.64,10.53-2.52C2427,1317.9,2427.43,1318,2427.92,1318.05Z"/><path class="cls-3" d="M2609.7,835.74l-115.77,0a309.2,309.2,0,0,1,14-56.72c1.62-4.58,4.19-7,9.47-6.84,20.24.52,15.43-2.48,22.27,15.13,1.56,4,2.72,8.2,4.57,12.07,2.12,4.42,4.07,9.19,9.28,11.11,5.83,5.9,13.05,3.35,19.81,3.12a39.27,39.27,0,0,0,8.74-1.8c4.95-1.35,9.77-3.05,11.68,4.29.48,1.86,3,3.32,4.75,3.2,7.95-.57,9.1,4.75,9.94,10.62C2608.76,831.9,2609.28,833.81,2609.7,835.74Z"/><path class="cls-3" d="M2446.75,839.94l41.62.13a65,65,0,0,1-8.29,25.37c-5.64,10.11-12.13,11-20.81,3.24-6.05-5.43-9.77-12.47-13.68-19.46C2443.49,845.45,2445.76,842.94,2446.75,839.94Z"/><path class="cls-4" d="M1132.55,557.25h157.87c3,0,6-.07,9,0,12.47.43,18.74,6.69,19.25,19.33.19,4.66.07,9.33.07,14,0,22.65.08,45.3,0,67.94-.08,17.12-6.37,23.24-23.74,23.25-108.24,0-216.48-.17-324.72.21-14.62.06-24.72-7.93-24.24-24.46.74-25.95.14-51.95.22-77.93,0-16,6.45-22.33,22.47-22.34Q1050.62,557.21,1132.55,557.25Z"/><path class="cls-118" d="M1572.88,681.87h-169c-2,0-4,.14-6,0-7.15-.63-10.89-4.25-11.67-11.26a46.28,46.28,0,0,1-.06-5q0-46.49,0-93c0-13,4.14-16.71,16.86-15.44,3.3.33,6.64.36,10,.36q159,0,317.91,0c4,0,8-.35,11.93-.71,11.26-1,17,4.7,16.45,15.7-1.58,31.27-1.31,62.57-.17,93.85.4,11.08-3.48,15.51-15.33,15.52Q1658.34,681.91,1572.88,681.87Z"/><path class="cls-118" d="M1749.68,1048V866c0-1.66.06-3.33.06-5,0-3.31,1.62-4.81,4.91-4.8,14,0,28,0,42-.07,4.77,0,5.25,2.82,5.24,6.52-.05,10.67.07,21.33.07,32q0,165.46-.1,330.93c0,13.53,1.12,12.18-12.45,12.24-10.67,0-21.33.08-32,0-7.52-.07-7.68-.18-7.7-7.88q-.12-47.49,0-95,0-43.49,0-87Z"/><path class="cls-6" d="M1856.2,1090.94V956.05c0-2,.06-4,0-6-.06-2.71.89-4.52,3.91-4.52q22.48,0,45,0c2.53,0,3.4,1.63,3.42,3.9s0,4.66,0,7v268.83a54.56,54.56,0,0,0,0,6c.6,5.44-2.08,6.71-7,6.61-12.66-.26-25.32,0-38-.11-7.25,0-7.35-.15-7.36-8q-.06-50.46,0-100.9Z"/><path class="cls-119" d="M1416.31,1234.37c-.11-27.08-.42-54.15-.13-81.22.06-5.09-2.69-10.1-.3-15.18,15.87-13,28.94-28.85,39.94-38.83-8,7.91-19.78,19.9-31.78,31.69-2.25,2.2-3.83,5.59-7.76,5.51-.1-26.41-.41-52.82-.1-79.23.06-5.08-2.7-10.08-.34-15.15,16-13.07,29.19-29,40.44-39.29-8.92,8.91-21.56,21.62-34.29,34.24-1.58,1.58-2.9,3.79-5.7,3.45q0-21.37-.07-42.74c13.5-15.36,28.83-28.92,40.78-41.63-9.6,9.47-21.12,21.24-32.88,32.77-2.27,2.22-3.92,5.48-7.73,5.68-.12-17.31-.18-34.63-.43-52-.06-4.64,1.73-6.58,6.45-6.53q19.48.24,39,0c4.56-.05,6.83,1.52,6.64,6.34-.18,5,0,10,0,15q0,132.42,0,264.85c0,2.33,0,4.66,0,7-.17,8.7-.18,8.8-9,8.85-14,.09-28,0-42,0a1.64,1.64,0,0,1-.84-.38c-.59-.44-.58-1,0-1.66,15.55-13.32,28.95-28.82,39.79-39-8,8-19.82,19.94-31.83,31.76C1421.84,1231,1420.16,1234.27,1416.31,1234.37Z"/><path class="cls-119" d="M1638.4,1136.45c-.16-15.62-.43-31.25-.46-46.88q-.07-46.39.07-92.79c0-10.72.06-10.74,11.1-10.77,10.64,0,21.28-.07,31.93,0,8.84.07,9,.15,9,8.88q.07,49.89,0,99.78-.09,45.9-.36,91.79c-15.72,12.93-28.78,28.62-43.71,42.38-.91,1-.94-.93-.22.2.07.11.32,0,.72-.43,11.76-11.81,23.51-23.62,35.38-35.33,2.29-2.26,4-5.48,7.83-5.71.12,14.61.1,29.23.42,43.84.12,5.5-2.6,6.68-7.37,6.62-12.62-.17-25.25-.21-37.87,0-5.14.09-6.94-1.82-6.9-7,.24-30.5.23-61,.31-91.5,13.57-15.4,28.94-29,41.7-42.54-10.38,10.32-22,22.1-33.81,33.71C1643.86,1133,1642.2,1136.23,1638.4,1136.45Z"/><path class="cls-119" d="M1141.79,1189.73c.07,14,.23,28,.17,42,0,8-.23,8.15-7.58,8.24q-18.5.21-37,0c-7-.08-7.31-.37-7.36-7.43-.12-17.33,0-34.65,0-52,0-21.65,0-43.31,0-65,0-10.19,1.18-11.34,11.58-11.5,7-.1,14-.62,20.68,2.15-5.63,11.27-16.83,17.43-23.37,25.94,7.42-8.35,17.6-16,25-26.32,5.08-3.72,10.06-1.38,15,.25,3.37,1.11,3,4,3,6.61,0,9.29-.2,18.57-.31,27.86-13.44,15.14-28.5,28.67-41.57,42.34,10.69-10.53,22.09-22.19,33.74-33.61,2.29-2.24,4-5.48,7.75-5.75l.49,44.45c-15.83,13.19-29.11,29-40.11,39.11,8.24-8.26,20.41-20.51,32.7-32.64C1136.68,1192.46,1138.2,1189.45,1141.79,1189.73Z"/><path class="cls-119" d="M2107.8,1126.1c9.65,0,19.31.06,29-.16,4.85-.11,7.38,1.29,7.29,6.72-.31,18.63-.34,37.26-.47,55.9-15.89,13-28.91,28.93-39.66,38.56,7.55-7.55,19.3-19.4,31.19-31.11,2.52-2.48,4.42-5.94,8.46-6.49.14,14.6.15,29.19.48,43.78.12,5.37-2.36,6.81-7.23,6.74-12.61-.17-25.22.06-37.83-.1-6.78-.08-7-.29-7-7.67-.05-30.13,0-60.27.05-90.41A87.89,87.89,0,0,1,2107.8,1126.1Z"/><path class="cls-119" d="M1359.62,1143.56q.42,22.2.86,44.39-23.43,23.1-46.54,46.51c-1.2,1.31-2.79,2.2-3.94,3.58-3.06-2.61-1.94-6.17-2-9.36q-.1-56.42,0-112.82c0-9.57,1.63-11.1,11.53-11.82,7-.52,13.89.6,20.71,2.15-5.63,11.56-17.15,17.67-24,26.6,7.82-8.72,18.24-16.48,25.66-27.13,3.84-3,8.2-1.69,12.29-1.13,2.47.34,5.45,1.57,5.52,4.76.25,10.9.23,21.82.31,32.72-15.58,12.92-28.55,28.5-39.14,38.14,8.26-8.24,20.61-20.68,33.06-33C1355.55,1145.55,1356.89,1143.41,1359.62,1143.56Z"/><path class="cls-119" d="M872.32,1188.38c-.11-14.29-.33-28.59-.27-42.89,0-7,.38-7.35,7.35-7.43q18.45-.24,36.92,0c7.26.07,7.61.33,7.63,7.12.1,28.6,0,57.2.1,85.8,0,5-1.69,7.17-6.91,7.09-13-.22-25.94-.19-38.91,0-4.79.06-6.36-2-6.29-6.58.21-13.82.12-27.65.15-41.48,15.61-13.28,29-28.88,39.59-38.71-7.71,7.67-19.55,19.67-31.56,31.5C877.85,1185,876.16,1188.25,872.32,1188.38Z"/><path class="cls-119" d="M2022,1090c2.8,1.82,2,4.68,2,7.25.06,7.32-.32,14.67.09,22,1,18.85-.06,37.68-.26,56.51-.06,4.8,2.7,9.52.32,14.32-16,16-31.85,32.23-48.17,48-1.42,1.47-3.08,1.84-3.57-.48a38.51,38.51,0,0,1-.4-7.91q0-44.8,0-89.62c.67-.64,1.37-1.26,2.08-1.86a422.27,422.27,0,0,0,46.14-46A19,19,0,0,1,2022,1090Z"/><path class="cls-119" d="M1252,1203.05c0,9.65-.07,19.29,0,28.94,0,4.15-1.63,6-5.9,6-13.64-.11-27.27-.08-40.91,0-3.85,0-5.23-1.89-5.22-5.55q.09-29.43,0-58.87c0-3.65,1.52-5.54,5.32-5.54,13.63,0,27.27.07,40.91,0,4.35,0,5.82,2.07,5.78,6.14C1251.92,1183.76,1252,1193.41,1252,1203.05Z"/><path class="cls-4" d="M2419.71,1272.8c3.47,1.53,7.17,1.21,10.81,1.25,19.19.2,38.27,3.08,58.79,1.59-2.4,3.76-5.22,4.78-7.61,6.22-14.56,8.74-28.63,18.27-40.8,30.09-4,3.91-9.24,2.94-13,6.1l.16-.09c-18.31,5.2-36.53,10.71-54.83,15.94-2.28.66-4.36,1.45-6.67.49l-.74-.54c6.69-19.34,19.8-34,35-46.93C2406.78,1281.83,2413.39,1277.49,2419.71,1272.8Z"/><path class="cls-120" d="M1579.89,842.86q.06,146.35.11,292.72,0,46.45,0,92.91c0,9.47-.07,9.54-9.11,9.6-12,.06-24,.11-36,0-7.88-.09-8.53-.71-8.56-8.63-.1-27.31,0-54.61,0-81.92q0-161.85.08-323.7c0-3.74-1.64-7.95,1.79-11.22,4.27,6,1.14,12.8,2.53,19.53,8.36-5.79,13.52-15.52,23.14-19.86H1560c.5,6-4.2,9.13-7.89,11.83-18.47,13.49-25.43,31.29-21.73,53.61.31,1.87-.15,3.85.57,6.83,11.83-11.82,23-23.08,34.27-34.22,3.74-3.7,7.13-8,12.75-9.13A1.79,1.79,0,0,1,1579.89,842.86Z"/><path class="cls-119" d="M986.25,1234.34c-.1-15.66-.29-31.32-.24-47,0-7,1.78-9,8.79-9.19,12-.33,24-.07,36-.11,5,0,7.21,2.54,7.2,7.43,0,15.33-.11,30.66,0,46,0,4.65-1.74,6.62-6.46,6.55-14.66-.25-29.32-.28-44-.4,2.68-7.2,9.29-11,14.22-16.24,8.93-9.44,18.29-18.47,27.49-27.65-11.79,11.65-23.41,23.47-35.24,35.07C991.8,1231,990.24,1234.48,986.25,1234.34Z"/><path class="cls-13" d="M1577.88,842.88c-4,1.87-6.87,5.13-9.92,8.17-12.66,12.6-25.31,25.21-39.81,39.66,0-11,.81-19.79-.19-28.41-1.48-12.76,2.76-22.11,12.61-30.17,7.14-5.83,13-13.2,19.47-19.89,4.63-.07,9.27,0,13.9-.26,4.23-.21,5.93,1.51,5.82,5.8-.2,7.28,0,14.57,0,21.85-6.6,3.27-13.89-.08-20.61,2-1.27.5.57,2-.09.87-.29-.51-.16-.87.4-.89C1565.64,841.33,1572,839.27,1577.88,842.88Z"/><path class="cls-121" d="M1378,434.34c3-.11,6-.32,9-.32q187,0,374.11,0c3,0,6,.22,9,.33,29.52,1.57,59.07.17,88.6.83,3,.07,7.34-2.55,9.2,2.51-3.32.11-6.65.3-10,.3q-283.85,0-567.69,0c-3.32,0-6.65-.19-10-.3,1.37-5.09,5.49-2.5,8.2-2.52,26.57-.22,53.15-.11,79.73-.16C1371.41,435,1374.77,435.59,1378,434.34Z"/><path class="cls-119" d="M2225.68,1168.25c6.92-.09,13.83-.32,20.75-.21,7.11.11,7.3.35,7.53,7.14.17,4.93.07,9.88.09,14.82a9.77,9.77,0,0,1-2.15,1.56c-14.21,11.5-25.91,25.57-39.23,38-3,2.83-5.25,7.09-10.36,6.84-.1-9.92-.18-19.84-.33-29.75-.08-4.86-.29-9.72-.45-14.59Q2214,1180.57,2225.68,1168.25Z"/><path class="cls-122" d="M1867.82,437.68c-3.11-2.91-7-1.6-10.48-1.61-25.6-.12-51.2,0-76.81-.12-3.52,0-7.36,1.2-10.51-1.61,3.32-.11,6.64-.32,10-.32q192.54,0,385.08,0c3.65,0,7.3.23,11,.35,7.54,1.39,15.16.24,22.72.72,1.89.13,5-1.4,5.05,2.62-2.67.09-5.33.27-8,.27h-320C1873.15,438,1870.48,437.79,1867.82,437.68Z"/><path class="cls-122" d="M1378,434.34c-3.15,2.81-7,1.6-10.52,1.61-25.6.1-51.2,0-76.8.12-3.51,0-7.37-1.31-10.48,1.61-2.66.1-5.33.29-8,.29q-160,0-320,0c-2.66,0-5.32-.18-8-.27.52-4.25,3.87-2.44,6-2.61,7.22-.56,14.52.71,21.73-.77,3-.11,6-.31,9-.31H1369C1372,434,1375,434.23,1378,434.34Z"/><path class="cls-119" d="M2252.34,1190h1.71c0,14.31-.16,28.61,0,42.91.06,5-1.61,7.23-6.87,7.14-13.31-.22-26.62-.06-39.93-.07-2,0-4,0-5.09-2.22,14.55-12,26.83-26.44,40.54-39.37C2245.79,1195.47,2248.2,1191.73,2252.34,1190Z"/><path class="cls-119" d="M1973.78,1140.06l-1.8-.06c0-13,0-26,.06-39,0-8.29,1.31-10.31,9.39-10.73a227.6,227.6,0,0,1,30.9.43c3.47.3,6.46-.48,9.67-.74,0,.6,0,1.2,0,1.8A600.56,600.56,0,0,1,1973.78,1140.06Z"/><path class="cls-119" d="M1310,1238c0-1.56.25-3,1.62-4,14.62-11.33,26.21-25.79,39.74-38.23,2.53-2.33,4.12-6.2,8.49-6,.05,13.57.21,27.14.11,40.7-.06,7-.38,7.38-7.27,7.46C1338.46,1238.11,1324.23,1238,1310,1238Z"/><path class="cls-119" d="M2023.76,1191.69c.09,13,.31,26,.22,39,0,6.91-.42,7.27-7.51,7.29-13,0-26-.23-39-.37,7.63-12,19-20.58,28.82-30.62C2011.69,1201.45,2015.91,1194.41,2023.76,1191.69Z"/><path class="cls-123" d="M972,434.33c-4.84,3.23-10.28,1-15.4,1.68-4.13.55-8.61-1.47-12.37,1.7-11.29.09-22.58.28-33.86.27q-93.15-.08-186.29-.36c-3.28,0-8.37,2.78-9.73-3.47Q836.69,434.08,959,434C963.36,434,967.68,434.22,972,434.33Z"/><path class="cls-123" d="M2203.79,437.71c-3.42-3.1-7.58-1.17-11.38-1.7-5.44-.76-11.2,1.64-16.39-1.64,4-.12,8-.35,12-.35q122.83,0,245.66.13c-.13,1.33-.25,2.84-1.83,3.13a33.41,33.41,0,0,1-5.91.46q-109.58.13-219.14.2C2205.77,437.94,2204.78,437.79,2203.79,437.71Z"/><path class="cls-124" d="M848.56,844.26c.51-2.55.78-4.51,1.31-6.39,1.63-5.84,3.71-7.22,9.18-4.86,2,.88,3.21,1.7,5,0,1.61-1.48,4-2,5.53-.83,2.68,1.92,4.57,2.51,7.56.22,2.17-1.66,5.15-1,6.85,1.8,1.9,3.11,2.13,6.26-.22,9.24-1.81,2.29-4.27,3.64-6.89,1.72-2.38-1.75-4.28-3-6.63-.19-.39.46-1.44,1-1.7.84C862.22,841.42,855.16,847.92,848.56,844.26Z"/><path class="cls-13" d="M1553.86,812.25c-6.95,9.21-16,16.27-25.67,24.29v-24C1536.73,811.46,1545.29,812,1553.86,812.25Z"/><path class="cls-125" d="M891.61,768.81v3c-.06,10-.16,10.14-10.61,10-5.67-.09-9.38-3.61-9.69-9.19-.33-5.76,2.64-9.73,8.34-10.37,3.35-.38,7.64,1.54,7.05-4.72-.14-1.52,1.66-2,2.94-1.72.73.19,1.23,1.34,1.76,2.11a1.78,1.78,0,0,1,.14,1q0,5,0,10Z"/><path class="cls-126" d="M839.34,756c1.67,0,3.34-.1,5,0,1.85.14,4.47-.57,4.87,2.1s-2.17,2.9-4.05,3.11c-3.28.38-3.3,2.69-3.32,5.09,0,4,0,8-.15,12-.06,1.82-1,3.29-3,3.18s-2.62-1.79-2.66-3.54c-.09-3.66-.21-7.33,0-11,.18-3.48-.57-5.83-4.65-6-1.71,0-3.37-.76-3-3s2.4-1.91,4-2C834.67,755.9,837,756,839.34,756Z"/><path class="cls-127" d="M935.06,761.76c-2.83,9.54-5.71,17.71-10.94,24.73-2.13,2.86-5.85,2.41-9,.53.06-.73-.09-1.79.17-1.9,7.47-3.18,7.49-3.17,4.31-10.73-.9-2.12-1.93-4.2-2.8-6.33-.72-1.76-2.31-4.2-.11-5.26,3-1.43,3.64,1.84,4.66,3.72,1.24,2.3,2.25,4.74,3.37,7.14C929.16,771,927.55,763.9,935.06,761.76Z"/><path class="cls-128" d="M907.33,769.29c-2.17-3.69-4.55-3-6.76-2.39-1.81.51-3.51.62-3.73-1.57s1.86-2.61,3.37-2.93c6.9-1.46,13.54.49,12.59,10.23-.27,2.84,1.47,7.33-1.61,8.09-3.55.87-7.7,2.18-11.6.59-2.24-.92-3.91-2.44-4-5.17s1.12-4.67,3.5-5.44S904.15,769.8,907.33,769.29Z"/><path class="cls-129" d="M868.66,771.65a9.57,9.57,0,0,1-9.72,10.11,10.07,10.07,0,0,1-10.41-9.65c-.15-5.53,4.17-9.85,10-10C864.48,762,868.54,765.78,868.66,771.65Z"/><path class="cls-130" d="M1416.28,1136.34c16.29-15.42,31.23-32.25,48.21-47.17,1.28,2.11,0,3-.83,3.85q-21.81,21.92-43.71,43.74c-1,1-2.09,2.92-4.07,1.21A6.59,6.59,0,0,0,1416.28,1136.34Z"/><path class="cls-130" d="M1416.3,1040.36c16.34-15.38,31.32-32.19,48.39-47.32,1,2.77-.67,3.72-1.73,4.78q-21.14,21.25-42.4,42.37c-1.18,1.16-2.16,3.85-4.72,1.77A5.88,5.88,0,0,0,1416.3,1040.36Z"/><path class="cls-131" d="M1638.4,1136.45c16.15-15.59,31.3-32.21,49.15-48.22-4.42,8.47-35.61,40.54-49.31,51.35C1638.29,1138.54,1638.35,1137.5,1638.4,1136.45Z"/><path class="cls-132" d="M986.25,1234.34q19.18-18.93,38.39-37.85A45.39,45.39,0,0,1,1034,1189c-14.05,17.55-30.76,32.56-46.39,48.6C983.63,1238,985.56,1235.9,986.25,1234.34Z"/><path class="cls-133" d="M2023.76,1191.69l-46.24,45.88a5.76,5.76,0,0,0-1.52.44c-1.56-1.3-.47-2.39.4-3.31,14.44-15.16,29.2-30,44.43-44.38,1-.93,2.1-1.73,3.34-.27A6.57,6.57,0,0,0,2023.76,1191.69Z"/><path class="cls-133" d="M1141.79,1189.73c-16.27,15.49-31.33,32.24-48.2,47.27-1.75-2.32.18-3.31,1.16-4.3q20.28-20.48,40.68-40.81c1.86-1.85,3.63-4,6.64-3.9A17,17,0,0,0,1141.79,1189.73Z"/><path class="cls-130" d="M1689.65,1187.59c-16.18,15.65-31.34,32.34-48.22,47.54-1.62-2.66.34-3.57,1.33-4.58q20.06-20.21,40.23-40.29c1.86-1.85,3.55-4.1,6.66-3.79A8.37,8.37,0,0,1,1689.65,1187.59Z"/><path class="cls-132" d="M1416.31,1234.37l48-47.53c2,2.39.16,3.48-.81,4.45q-20.27,20.46-40.67,40.78c-1.86,1.86-3.67,3.89-6.64,3.9C1416.21,1235.44,1416.26,1234.9,1416.31,1234.37Z"/><path class="cls-134" d="M1416.39,994.44c16.12-15.06,30.76-31.66,48-45.55-15.12,17.19-30.55,34.05-48.2,48.73C1416.28,996.56,1416.33,995.5,1416.39,994.44Z"/><path class="cls-132" d="M872.32,1188.38c16.27-15.5,31.3-32.27,48.1-47.22,1.71,1.55.45,2.59-.37,3.42q-21,21.14-42,42.2c-1.65,1.65-3.36,3.22-5.92,3.2C872.19,1189.45,872.27,1188.92,872.32,1188.38Z"/><path class="cls-130" d="M1141.58,1143.54l-47,46.58-1.82-1.83c16-16.21,31.26-33.15,48.91-47.73C1141.63,1141.55,1141.61,1142.54,1141.58,1143.54Z"/><path class="cls-135" d="M1359.62,1143.56c-16.16,15-30.69,31.71-47.45,46.27-1.3-1.85-.39-2.57.19-3.15q21.8-21.89,43.68-43.69c1-1,2.12-3,4-1A6,6,0,0,0,1359.62,1143.56Z"/><path class="cls-132" d="M2143.57,1189.52l-47.74,47.81c-2-2.3-.58-3.22.23-4q20.76-20.88,41.58-41.67c1.64-1.65,3.26-3.4,5.94-3.06Z"/><path class="cls-133" d="M2252.34,1190c-14.07,15.57-29.18,30.1-44.21,44.72-1.67,1.62-3.31,3.36-6,3l.15-1.4c14.11-14,28.14-28,42.4-41.86C2246.75,1192.54,2247.88,1188.19,2252.34,1190Z"/><path class="cls-124" d="M828.1,831.86c4.76,0,7.29,4.39,10.89.46,1.76-1.93,5.26-.17,6.47,2.56,1.38,3.11,1.7,6.46-.93,9.28-2.16,2.31-5.07,2.82-6.94.41-2.29-3-3.14-2.35-5.2.14-1,1.16-2.08-.76-2.23-2.12C829.8,839.36,830.52,836,828.1,831.86Z"/><path class="cls-134" d="M1359.85,1189.79c-13.8,13.62-27.51,27.33-41.5,40.75-1.66,1.59-2.68,5.94-6.72,3.46q20.67-20.88,41.35-41.74c2.08-2.09,4-4.52,7.49-4.31A5.21,5.21,0,0,0,1359.85,1189.79Z"/><path class="cls-136" d="M2225.68,1168.25c-5.78,10.22-13.54,18.45-24.14,23.79A67.28,67.28,0,0,1,2225.68,1168.25Z"/><path class="cls-131" d="M1341.92,1105.66c1.37,1.15.91,2.3-.08,3.34-9.76,10.3-19.63,20.49-30.84,29.36,8-12.25,19.91-21.09,29.25-32.17A5.1,5.1,0,0,0,1341.92,1105.66Z"/><path class="cls-130" d="M1124,1105.84a1.65,1.65,0,0,1,.34,2.55,285.07,285.07,0,0,1-31.37,30.09c8.19-12.2,20-21.14,29.35-32.26A8.87,8.87,0,0,0,1124,1105.84Z"/><path class="cls-137" d="M1269.88,841.17a181.29,181.29,0,0,1,40.33,0A171.09,171.09,0,0,1,1269.88,841.17Z"/><path class="cls-138" d="M1118.25,841.14c-13.18,1.79-26.4,1.34-39.62.1A178.52,178.52,0,0,1,1118.25,841.14Z"/><path class="cls-139" d="M1174.42,841.16a181,181,0,0,1,40.23,0A158.38,158.38,0,0,1,1174.42,841.16Z"/><path class="cls-138" d="M1939.5,841.21a183.08,183.08,0,0,1,40.26-.06A172.65,172.65,0,0,1,1939.5,841.21Z"/><path class="cls-140" d="M1843.8,841.15a177.68,177.68,0,0,1,40.19,0A161.35,161.35,0,0,1,1843.8,841.15Z"/><path class="cls-137" d="M1787.88,841.14a164.61,164.61,0,0,1-40.11,0A181.72,181.72,0,0,1,1787.88,841.14Z"/><path class="cls-138" d="M2074.63,841.16a167.47,167.47,0,0,1-40.52,0A189.26,189.26,0,0,1,2074.63,841.16Z"/><path class="cls-139" d="M1692.57,841.13c-13.44,1.87-26.89,1.44-40.35.14A175.65,175.65,0,0,1,1692.57,841.13Z"/><path class="cls-138" d="M1023.83,841.13a164.17,164.17,0,0,1-40.42,0A191.62,191.62,0,0,1,1023.83,841.13Z"/><path class="cls-141" d="M1405.82,841.11a156.83,156.83,0,0,1-40.32.07A178.84,178.84,0,0,1,1405.82,841.11Z"/><path class="cls-138" d="M1501.87,841.14a161.83,161.83,0,0,1-39.95,0A182.74,182.74,0,0,1,1501.87,841.14Z"/><path class="cls-142" d="M1577.88,842.88l-19.71-1c7.07-2.79,14.43-1.18,21.58-2.2,5.53,1.13,11.28-.38,17,1.43-5.56,2.3-11.36.43-16.81,1.8Z"/><path class="cls-143" d="M2107.8,1126.1a60,60,0,0,1-15.73,15.76C2094.59,1133.89,2099.9,1128.71,2107.8,1126.1Z"/><path class="cls-144" d="M910,840.92a47.88,47.88,0,0,1,18.67,0A25.65,25.65,0,0,1,910,840.92Z"/><path class="cls-145" d="M858.79,396.09a10.66,10.66,0,0,1-10.58-10.74,10.79,10.79,0,1,1,21.57.39A10.76,10.76,0,0,1,858.79,396.09Z"/><path class="cls-146" d="M773.7,385.5a11,11,0,0,1,10.5-11.12,11.41,11.41,0,0,1,11.07,10.75,10.9,10.9,0,0,1-10.71,10.95A10.49,10.49,0,0,1,773.7,385.5Z"/><path class="cls-146" d="M832.3,384.88a10.49,10.49,0,0,1-10.21,11.2,10.85,10.85,0,0,1-11.29-10.35,11.34,11.34,0,0,1,10.43-11.35A10.85,10.85,0,0,1,832.3,384.88Z"/><path class="cls-147" d="M1900.52,600a24.52,24.52,0,0,1,24.68,23.59c.4,13.36-10.88,24.69-24.51,24.62-13.13-.06-24.18-11-24.24-24S1887.5,600.14,1900.52,600Z"/><path class="cls-148" d="M2000,636.46c3.27.68,5.84,2.24,5.34,5.88-.43,3.1-3,4.06-5.93,3.94s-5.33-1.24-5.33-4.55C1994.05,638,1996.85,636.92,2000,636.46Z"/><path class="cls-149" d="M2069.68,635.1a14,14,0,0,1-1.32,6.77c-1.08,2.28-2.66,3.78-5.28,3.91-3.13.15-5.08-1.72-6-4.34a19.86,19.86,0,0,1-.94-6.82c.13-5.86,2.9-9.35,6.92-9.17S2069.54,629.37,2069.68,635.1Z"/><path class="cls-150" d="M2085.12,635.17a52.64,52.64,0,0,1,1.18-5.71,5.44,5.44,0,0,1,5.18-3.92,5.67,5.67,0,0,1,6.06,4.12,18.91,18.91,0,0,1,.36,10.75c-.74,3.18-2.67,5.4-6.16,5.34s-5.26-2.37-5.95-5.57C2085.45,638.58,2085.35,636.92,2085.12,635.17Z"/><path class="cls-151" d="M1993.14,590.18c3,.27,4.6,1.76,4.53,4.49-.09,3.19-2.15,5-5.11,4.66-3.28-.33-2.45-3.32-2.51-5.48S1990.87,590.05,1993.14,590.18Z"/><path class="cls-96" d="M2408,1349.93c-3.42,4.68-6.42,9.71-11.4,13.18,1.7-6,5.85-10.43,9.74-15Z"/><path class="cls-17" d="M2528.06,1120.09c-10.83,5.17-22.85,5.89-34.23,9-11.8,3.24-23.74,5.93-35.63,8.82a5.2,5.2,0,0,1-1.92-.31c9.46-5.69,56.34-17.28,71.63-17.72Z"/><path class="cls-93" d="M2366.58,1334.39c17.6-5.09,35.22-10.13,52.79-15.34a23.53,23.53,0,0,1,8.71-1.09c-8.42,5.47-18.38,6.64-27.65,9.7-8.73,2.88-17.72,5-26.6,7.42C2371.33,1335.77,2368.78,1337,2366.58,1334.39Z"/><path class="cls-152" d="M1030.43,620.22l10.1,14.28c-13.07,12-13.2,12-21.42-2-.67-1.14-1.39-2.25-2-3.25-.84-.13-1.56-.49-2.06-.28-2.61,1.05-4,5.08-7.64,3.48-3.83-1.68-3.14-5.45-3.39-8.69-.65-8.28-1.58-16.56-1.8-24.86-.17-6.36,2.5-8,7.92-4.91,7.54,4.24,14.9,8.8,22.15,13.51,7,4.57,6.86,5.67-.61,10.83C1031.21,618.6,1031,619.29,1030.43,620.22Z"/><path class="cls-153" d="M1187.7,636.77c0-4.28.11-7.23,1.62-10,2.46-4.47,6-6.94,11.25-6.83s8.87,2.88,10.84,7.45a20.33,20.33,0,0,1,.6,14.65c-2,6.12-6.89,9.7-12.66,9.29s-10.26-4.7-11.4-10.87A21.94,21.94,0,0,1,1187.7,636.77Z"/><path class="cls-153" d="M1123.34,634.93a37.4,37.4,0,0,1,1.19-6.82,11.72,11.72,0,0,1,12.34-8.1,12,12,0,0,1,10.89,8.77,25.54,25.54,0,0,1,.52,10.9c-1,7.26-6.15,11.89-12.64,11.68-6.12-.2-10.78-4.64-11.9-11.41C1123.52,638.64,1123.52,637.3,1123.34,634.93Z"/><path class="cls-154" d="M1242.08,635.29a17,17,0,0,1-2.68,10.39,12,12,0,0,1-20.55-.36,18.56,18.56,0,0,1-1.78-15.28c2.14-6.76,6.73-10.4,12.88-10s10.6,4.7,11.81,11.36A36.93,36.93,0,0,1,1242.08,635.29Z"/><path class="cls-155" d="M1174.54,620.09a5.57,5.57,0,0,1,1,0c2.36.45,6.3-1.24,6.42,2.58s-3.78,2.64-6.22,2.94a30.35,30.35,0,0,0-4,.39,2.31,2.31,0,0,0-1.75,2.13c-.14,1.43.11,2.91,1.44,3.35,2.5.84,5.25,1,7.69,1.91a7.62,7.62,0,0,1,5.17,7.75c0,3.65-1.37,6.5-4.54,8.32-5.44,3.11-10.92,2.35-16.26-.23a2.55,2.55,0,0,1-1.4-3.34,2.41,2.41,0,0,1,3.16-1.59c2.87,1,5.7,1.94,8.77,1.32,2.12-.42,3.71-1.5,3.81-3.88s-1.59-3.47-3.67-4c-1-.22-2-.21-3-.34-7.69-1-7.69-1-7.41-8.06C1164.21,619.93,1164.21,619.93,1174.54,620.09Z"/><path class="cls-156" d="M1117.82,635.42c0,3,.11,5.94,0,8.9-.11,2.46.72,5.9-3.33,5.79-3.39-.1-2.6-3.2-2.7-5.31-.16-3.29,0-6.59-.07-9.89-.06-4.07,1.25-8.73-4.77-10.19-1.4-.34-1.51-2.5-.63-3.34,2.42-2.29,5.59-1.24,8.45-1.1,2.51.13,3,2.16,3,4.27,0,3.62,0,7.25,0,10.87Z"/><path class="cls-157" d="M1142.43,585.55c1.88,5.28,2.55,8.17,8.08,5.45,6.13-3,7.5-.8,10.07,5,2,4.37-.09,5.45-3.33,6-2.55.43-5.48.72-7.58-1.29-2.41-2.31-4.67-1.15-7.27.88C1141.58,596.17,1141.7,592,1142.43,585.55Z"/><path class="cls-158" d="M1136.82,602.05c-3.79,0-6.13-1.6-6.77-4.92s1.06-5.67,4.22-6.8c1.6-.57,3.61-.63,4.47.87,1.34,2.35-1.11,2.14-2.37,2.88-3,1.77-3.53,3.69.32,5.09,1,.35,3-.66,2.14,1.68C1138.58,601.51,1137.31,601.77,1136.82,602.05Z"/><path class="cls-159" d="M1106.91,597c.08-9.35,1.65-10.49,10-7.7C1111.32,589.21,1107.7,591.49,1106.91,597Z"/><path class="cls-160" d="M1158.37,647.61a2.87,2.87,0,0,1-2.71,3c-2.37.25-3.72-1-3.66-3.48a3,3,0,0,1,3.17-3.1C1157.05,644,1158.18,645.16,1158.37,647.61Z"/><path class="cls-161" d="M1442,634.68c.07-.87-.2-2.71.42-4.15,2-4.72-.53-7.52-3.72-10.19-1.27-1.07-2.58-2.08-3.86-3.14-2.16-1.8-3.59-3.93-2.93-6.92.71-3.17,3.18-4.19,6-4.24,8.77-.17,13.5-4.68,16.62-12.78,2.84-7.37,6.78-7.27,11.15-.74a23.43,23.43,0,0,1,2.44,4.33c2.09,5.33,5.83,7.77,11.59,7.19a16.21,16.21,0,0,1,5,.3c5.35,1.17,6.84,5,3.8,9.59a6.08,6.08,0,0,1-1.33,1.48c-7,5.24-9.09,11.76-5.72,20.05,1,2.5.82,5.32-1.63,7.27s-5.17,1-7.39-.5c-6.75-4.45-12.9-4.83-20.1,0S1441.64,644.51,1442,634.68Z"/><path class="cls-162" d="M1569.9,631.39c-1.62,2.55-.25,4.6.85,7.14,2.22,5.12.34,8.93-4.62,11.3-5.94,2.85-14.07,1.66-17.4-2.64-1.22-1.58-3-4.2-2-5.31,5.54-5.75-2.38-13.89,3.8-19.31,3.19-2.79,11-3.6,15-1.4C1569.39,623.19,1570.44,625.67,1569.9,631.39Z"/><path class="cls-163" d="M1626.73,597.64c3-3.22.34-8.14,5.51-7.51,4.32.52,3.85,3.81,4,6.8.12,3.92-1.94,5.61-5.6,4.93-4.14-.76-9.78.37-9.24-6.61-4.88-.39-2,4.68-6.06,5.54-2.6,0-.14-4.83-3.12-5.65-3.48.3-.9,5.09-4.3,5.81-3.54-1.25-.41-5.61-3-7.35-1.18,0-1.7.85-2.23,1.71-1.13,1.87.49,5.84-2.55,5.71-3.65-.15-7.16,2.13-10.72.51-2.79-1.27-3.68-3.7-3.28-6.63.36-2.62,2.54-5.37,4.37-4.5,8.15,3.85,15.74-1.74,23.78-.66C1619.71,590.47,1624.7,590.33,1626.73,597.64Z"/><path class="cls-162" d="M1640.07,635.22c-.23-4.5.89-8.59,4.15-11.79a12.18,12.18,0,0,1,19.77,3.82,22.65,22.65,0,0,1,1.77,6.65c.94,9.12-4.67,17.1-12.17,17.61S1640,644.79,1640.07,635.22Z"/><path class="cls-164" d="M1611.37,634.68c.05-4.52,1-8.57,4.52-11.75a11.27,11.27,0,0,1,13-1.92c5.71,2.68,7.45,8,7.42,14.1,0,5.89-.66,11.4-6.44,14.6-7.16,4-15.09.75-17.46-7.17C1611.63,640.05,1611.68,637.31,1611.37,634.68Z"/><path class="cls-161" d="M1596.5,620.1c2.19,0,3.52-.06,4.85,0,2,.1,4.4,0,4.37,2.77s-2.38,2.73-4.41,2.83c-1,0-2,0-3,.1-2.06.11-4.19.39-4.26,3s2.11,2.85,4.12,3.21a17.81,17.81,0,0,1,4.73,1.4c6.52,3.26,7.17,11,1.37,15.41-4.6,3.49-13.3,3.49-17.83,0-.79-.62-1.45-1.37-1-2.49.55-1.38,1.63-2.27,3.06-1.9,2.89.73,5.68,1.83,8.76,1.31,2.62-.45,4.39-1.79,4.33-4.54,0-2.51-2.08-3.09-4.15-3.38-.33,0-.67,0-1-.11-3.06-.63-7.79,1.46-8.74-2.53s-.3-8.68.89-12.69C1589.89,618.18,1594.43,621.06,1596.5,620.1Z"/><path class="cls-165" d="M1578.74,644.18c2,.12,3.11,1.09,3.19,3.08a2.94,2.94,0,0,1-2.85,3.38,2.87,2.87,0,0,1-3.1-3.1A3,3,0,0,1,1578.74,644.18Z"/><path class="cls-166" d="M1459.29,1147.4a274.5,274.5,0,0,1-35.83,36A138.9,138.9,0,0,1,1459.29,1147.4Z"/><path class="cls-167" d="M1422.61,1082.53a296.22,296.22,0,0,1,35.89-36C1449,1060.9,1436.63,1072.57,1422.61,1082.53Z"/><path class="cls-168" d="M1681.08,1046.74l-33.35,33.45C1648.78,1075.42,1671.91,1051.46,1681.08,1046.74Z"/><path class="cls-133" d="M1639.84,1042.16l44.8-44.9C1683.13,1001,1658.58,1026.6,1639.84,1042.16Z"/><path class="cls-169" d="M1642.5,1186.45l41.63-41.76C1681.52,1150.35,1649.65,1182.54,1642.5,1186.45Z"/><path class="cls-170" d="M2096.12,1188.59l43.88-44.23C2138.21,1149.73,2104,1184.45,2096.12,1188.59Z"/><path class="cls-169" d="M877.84,1233.54c3.28-8.47,32.94-38.21,41.76-41.74Z"/><path class="cls-171" d="M2016.24,1149.38c-4.86,8.86-26.54,30.67-34.8,35.8C1983.1,1179.27,2004,1157.39,2016.24,1149.38Z"/><path class="cls-172" d="M1973.78,1140.06a522.24,522.24,0,0,1,48.27-48.26c.11,2.58-1.46,4.29-3.11,5.94q-19.61,19.6-39.22,39.2C1978.07,1138.59,1976.34,1140.13,1973.78,1140.06Z"/><path class="cls-172" d="M1245,1193.12c-11.54,13.69-24.27,26.16-37.85,38.74C1209.21,1225.14,1234.79,1198.7,1245,1193.12Z"/><path class="cls-4" d="M1570,901.94a15.65,15.65,0,0,1,8-7.19v28.4c0,19.53-.23,39.06.13,58.58.13,6.49-1.71,11.17-6.43,15.73-14.08,13.58-27.67,27.67-41.53,41.63-3.16-2.59-2-5.42-2-7.8-.11-26.52.2-53-.25-79.55-.12-7,1.32-12.12,7.17-16A72.44,72.44,0,0,0,1542,930C1553.25,922.59,1561.71,912.36,1570,901.94Z"/><path class="cls-4" d="M1576.24,1042.23c1.76,1.44,1.77,3.45,1.77,5.46,0,11.3,0,22.61,0,33.92,0,3.1-.48,5.83-2.82,8.17-15,15-30,30.12-44.85,45.08-3.5-1.89-2.14-4.51-2.15-6.55-.1-25.21,0-50.43-.1-75.64,0-4.42.31-8.27,3.89-11.75,14.06-13.68,27.83-27.66,41.73-41.5.88-.89,1.72-2.08,4.1-1.39,0,12.92.07,26.07-.09,39.22,0,1.51-1.29,3-2,4.51-12.59,13.61-26.23,26.19-37.86,38.34C1550,1068.45,1562.63,1054.82,1576.24,1042.23Z"/><path class="cls-4" d="M1577.93,1093.62c0,14.29,0,28.45,0,42.6,0,3.42-2.51,5.32-4.67,7.33-6.58,6.09-13.37,12-19.81,18.17-5.49,5.3-11.08,10.51-15.54,16.83-2.2,3.12-5.34,5.57-9.7,10,0-16.53,0-30.67,0-44.81,0-2.56,1.42-4.34,3.11-6q21.95-21.83,43.9-43.61C1575.58,1093.77,1576.41,1093.88,1577.93,1093.62Z"/><path class="cls-4" d="M1528.16,1232c0-11.58,0-23.17,0-34.75a9.45,9.45,0,0,1,2.72-7.22c15.06-15,30.09-30,46.78-46.68.64,9.07-.43,16.27.52,23.22,1.77,13.09-2.73,22.56-12.72,31.22-12.51,10.84-23.64,23.28-35.37,35Z"/><path class="cls-4" d="M1536,888.13c2.31-5.23,8-6.8,11.57-10.73,6.93-7.61,14.87-14.25,21.09-22.58,2.08-2.8,4.41-5.79,9.25-7.74V886c0,3.83-2.84,5.9-5.26,8.09-9.6,8.7-19.41,17.18-28.31,26.64-4.93,5.25-8.57,11.74-16,16.65V898C1531.24,894.92,1534.06,891.85,1536,888.13Z"/><path class="cls-4" d="M1531.85,1236c2.51-2.94,3.48-4.23,4.61-5.36,13.14-13.18,26.3-26.32,39.34-39.37,3.58,1.55,2.1,4.24,2.13,6.23.16,10.64,0,21.29.12,31.93.07,4.56-1.53,6.68-6.33,6.62C1559.13,1235.93,1546.54,1236,1531.85,1236Z"/><path class="cls-4" d="M1570,901.94c-6.48,12.21-14,23.35-28,28A263.14,263.14,0,0,1,1570,901.94Z"/><path class="cls-13" d="M1536,888.13c.12,5.34-2.14,8.84-7.61,9.86C1528.36,892.69,1532.49,890.64,1536,888.13Z"/><path class="cls-173" d="M886.41,771.26c-.21,3.89-1.82,6-4.82,6.06-3.42,0-5.49-2.09-5.4-5.66.08-3,1.77-5.08,4.82-5.23C884.71,766.26,886.08,768.77,886.41,771.26Z"/><path class="cls-174" d="M907,776c-.85,1.84-2.61,2.23-4.68,1.55-.91-.31-2-1-1.54-2.11.9-2.34,3-1.91,4.89-1.64C906.48,773.91,907.72,774.19,907,776Z"/><path class="cls-175" d="M853.67,771.48c.34-3.08,1.94-5.14,5.05-5.09,3.64.06,5.32,2.46,5.18,5.93-.12,3.11-2.15,5.11-5.07,5.08C855.34,777.36,853.59,775,853.67,771.48Z"/><path class="cls-176" d="M1902.63,629.58c4.58-1.28,5.11-4.82,7.48-6.52a2.1,2.1,0,0,1,2.67-.1,1.84,1.84,0,0,1,.47,2.63q-5.1,7.35-10.37,14.59a2.47,2.47,0,0,1-4.2.19c-3.89-4.53-7.62-9.19-11.39-13.82a1.85,1.85,0,0,1,.12-2.63c1.23-1.23,2.43-.7,3.42.35,2,2.1,3.88,4.26,7.44,8.18,0-7.92,0-13.72,0-19.52,0-1.79.48-3.52,2.66-3.27,1.51.18,1.67,1.82,1.67,3.13C1902.65,618.26,1902.63,623.73,1902.63,629.58Z"/><path class="cls-177" d="M1031.17,612.67c-2.68,2.19-6.2,1.82-8.4,4.88,3.22,4.42,6.51,9,9.83,13.49,1.42,1.93,1.4,3.55-.76,5s-4.06,2.4-5.78-.54c-2.84-4.84-5.75-9.65-8.48-14.21-3.92-.31-4.55,4.22-8.82,4.19l-2.29-27.69C1016,601.89,1023.53,607.14,1031.17,612.67Z"/><path class="cls-178" d="M1206.68,635.42c-.09,1.14-.14,2.45-.32,3.75-.47,3.57-2,6.43-6,6.53s-5.76-2.75-6.31-6.25a29.14,29.14,0,0,1-.16-6.86c.32-4,2.1-7,6.64-6.91,4.09.11,5.4,3.12,5.91,6.63C1206.57,633.28,1206.59,634.27,1206.68,635.42Z"/><path class="cls-178" d="M1129.51,634.72a34.45,34.45,0,0,1,1-5.22,5.38,5.38,0,0,1,5.17-3.85,5.66,5.66,0,0,1,6,4.1c1.13,3.16.92,6.49.49,9.75-.48,3.63-2.33,6.3-6.31,6.2s-5.61-2.87-6.06-6.49C1129.63,637.92,1129.62,636.6,1129.51,634.72Z"/><path class="cls-179" d="M1235.93,634.67c0,3.45-.13,5.74-1.43,7.82-2.74,4.38-7.82,4.52-10.36.08a14.25,14.25,0,0,1-.86-12.45c1-2.74,2.82-4.5,5.82-4.56s5,1.7,5.93,4.41A26.84,26.84,0,0,1,1235.93,634.67Z"/><path class="cls-180" d="M1459.8,594c5.15,3,5.2,9,9.1,12.17,4.24,3.44,9.88.4,14.37,3.26.93,3.27-1.78,5-3.47,6.56-5.06,4.62-6.41,9.72-3.87,16.06.71,1.78.75,3.83,1.2,6.29-3,.41-5.3-1.07-7.27-2.43-5.76-3.94-11.09-3.26-16.53.54-1.83,1.28-3.59,3.11-6.38,2.49-2.22-5.23,3.16-10.65.29-15.44-2.5-4.18-6.46-7.48-10.51-12,5.25-1.49,10.41-2.12,14.69-4.41C1456,604.69,1455.84,598.38,1459.8,594Z"/><path class="cls-181" d="M1565.42,641.59c-.55,3.54-2.92,4.4-5.74,4.5-3.11.11-6.44-.25-6.69-4.09-.21-3.34,2.68-4.12,5.52-4.24C1561.65,637.63,1564.43,638.15,1565.42,641.59Z"/><path class="cls-182" d="M1563.91,628.41c-.13,3.26-2.35,3.78-4.83,3.77s-4.91-.41-4.8-3.64c.1-2.88,2.31-4,4.78-4S1563.54,625.64,1563.91,628.41Z"/><path class="cls-168" d="M1659.79,636.19a36.45,36.45,0,0,1-1.16,4.69c-.94,2.56-2.4,4.83-5.55,4.83-3.48,0-5.43-2.26-6.36-5.24a17.31,17.31,0,0,1-.54-5.84c.26-6,2.73-9,7-8.85C1657.32,625.93,1659.73,629.35,1659.79,636.19Z"/><path class="cls-183" d="M1617.52,635.55a45.39,45.39,0,0,1,.61-5.1c.81-3.46,3.25-5.13,6.63-4.55,5.21.89,5.5,5.1,5.44,9.23s.55,9.14-5.16,10.49c-3.39.8-5.85-1-6.8-4.3A36.25,36.25,0,0,1,1617.52,635.55Z"/><path class="cls-120" d="M1576.24,1042.23c-.27,2.47-1.77,4.21-3.44,5.87l-35.14,35.11c-1.16,1.15-2.33,2.36-4.23,2-1.41-1.16-.81-2.51.08-3.4q19.26-19.38,38.66-38.61c.85-.85,2.39-1,3.6-1.49Z"/></g></g></svg>