<svg xmlns="http://www.w3.org/2000/svg" viewBox="0 0 511.37 501.44"><defs><style>.cls-1{fill:#1e3a89;}.cls-2{fill:#fefefe;}.cls-3{fill:#1e3a8a;}.cls-4{fill:#1f3b8a;}.cls-5{fill:#203b8a;}</style></defs><title>calendar_1</title><g id="Layer_2" data-name="Layer 2"><g id="Layer_1-2" data-name="Layer 1"><path class="cls-1" d="M510.86,447.88c-.95-12.23-1.77-24.47-3.75-36.61-4.35-26.72-8.3-53.5-12.37-80.26-5.49-36.12-11.16-72.21-16.61-108.34q-6.18-40.89-12.51-81.75c-3.3-21.5-5.91-43.12-9.89-64.5C452.14,57.13,435,43.23,415.27,43c-10-.1-20,.05-29.93,0-19.81-.19-17.13,2.46-17.4-17.11,0-3.48.41-7-.73-10.39C363.45,4.35,352.55-1.58,339.56.38,328.75,2,321,10.87,320.62,22.16c-.16,4.49,0,9-.09,13.47-.1,6.45-.86,7.32-7.15,7.35q-30.93.12-61.85,0c-6.36,0-7.15-.89-7.26-7.24-.08-4.82,0-9.64-.06-14.46a20.39,20.39,0,0,0-1.83-8.21C237.87,2.91,226.07-2.13,213.69.85a21.57,21.57,0,0,0-16.77,20.36c-.19,5.15,0,10.31-.12,15.46s-1.1,6.07-6.16,6.31c-.34,0-.67,0-1,0-20.62,0-41.24,0-61.86,0-6.35,0-7.11-.87-7.22-7.27-.07-4.49.06-9-.08-13.47C120.12,11.39,114.6,3.8,104.1,1.12,85-3.76,72.23,8.61,73.1,23.77c.26,4.47,0,9,0,13.47,0,3.94-1.8,5.74-5.76,5.75-9,0-18,0-26.94,0a39.27,39.27,0,0,0-7.94.57C11.9,48.09.08,62.59.07,83.6q0,134.93,0,269.83c0,35.91.13,71.82-.06,107.73-.08,15.44,6.59,26.75,19.63,34.49,7.65,4.54,16.1,5.8,24.92,5.79q211.26-.07,422.5,0c2.16,0,4.33,0,6.49-.09,20.49-1.07,35.07-14.51,37.6-34.64,0-.16.15-.3.23-.44v-16A4.06,4.06,0,0,1,510.86,447.88ZM344.43,17.37c4.23,0,6.57,1.44,6.52,6.07-.12,10.81,0,21.62,0,32.42,0,10.31-.09,20.62,0,30.92.06,4.39-1.66,6.46-6.16,6.38-5.08-.09-6.83-1.41-6.84-6.26-.06-21.12,0-42.23,0-63.35C337.9,19.08,340.12,17.36,344.43,17.37ZM361,102.19c.34,8.93-6.94,16.45-16.19,16.7s-16.71-7-16.93-16.74C339.87,110.52,349,110.46,361,102.19ZM214.09,24c0-5.06,1.57-6.56,6.47-6.57s6.46,1.36,6.48,6.5c.05,10.61,0,21.22,0,31.83,0,10.28-.11,20.56.05,30.84.07,4.65-1.8,6.71-6.48,6.57-5-.16-6.53-1.44-6.54-6.5Q214,55.33,214.09,24ZM237,102.23a16.43,16.43,0,1,1-32.86.14C215.12,110.19,226.08,110.64,237,102.23ZM90.27,55c0-10.45.1-20.89,0-31.34-.07-4.49,1.92-6.32,6.26-6.28,5,.05,6.73,1.47,6.74,6.35q.08,31.59,0,63.17c0,4.85-1.71,6.17-6.8,6.25-4.42.06-6.26-1.89-6.2-6.32C90.37,76.23,90.27,65.62,90.27,55Zm23,47.19a16.47,16.47,0,0,1-16.39,16.7c-9.22.09-16.45-7-16.77-16.76C91,110.34,101.92,110.48,113.24,102.2ZM15.53,87.42c0-16.94,10.34-27.25,27.33-27.31,9.31,0,18.63.21,27.93-.1,3.88-.13,5.07,1.15,4.53,4.76a17.74,17.74,0,0,0,0,4,19.68,19.68,0,0,1-4.6,14.92c-10,12.76-7.22,31.75,5.33,42.64,12.27,10.66,31.32,9.9,43.06-1.72s12.94-30.43,2.17-43c-5.52-6.42-2-13.6-2.86-20.39-.18-1.52,1.74-1.12,2.8-1.12,24.93,0,49.87,0,74.81-.07,2.34,0,3.23.63,3.13,3.07-.18,4-.14,8,0,12a7.11,7.11,0,0,1-2.06,5.29c-11.74,13.36-11.08,32.44,1.4,44.46a31.84,31.84,0,0,0,43.79.47c12.87-12,13.89-31.31,1.94-44.77-3-3.36-2.05-6.8-2.1-10.27-.17-10.17-.06-10.17,9.87-10.17,22.11,0,44.22.08,66.33-.09,3.62,0,5.3.72,4.67,4.59a20.32,20.32,0,0,0,0,4.48,19.92,19.92,0,0,1-4.33,14.51c-10,12.93-7.44,31.52,4.81,42.28a31.89,31.89,0,0,0,42.71-.56C378.24,114,380.46,95.48,369.89,83c-5.82-6.89-3.17-14-3.9-21.14-.2-2,1.63-1.72,2.9-1.72,15.95,0,31.92-.27,47.87.19,12.17.36,22.59,11.32,22.7,23.62.24,24.76,0,49.53.19,74.3,0,4-2,3.64-4.63,3.64q-66.33,0-132.67,0H227.54q-103.24,0-206.48.11c-4.65,0-5.68-1.28-5.64-5.73C15.65,133.3,15.52,110.36,15.53,87.42ZM470.28,484.09c-7.79.08-15.59,0-24.84,0,8.93-10.91,9.27-22.73,9.17-34.84-.22-28.59-.07-57.19-.07-85.78a37.31,37.31,0,0,0-.08-4.49c-.47-4-2.72-6.4-6.74-6.73-4.29-.35-7,1.92-8,6a21,21,0,0,0-.21,5q0,46.89,0,93.77c0,16.52-10.51,27.12-27.09,27.13q-184.81,0-369.62,0c-16.82,0-27.29-10.62-27.3-27.49q0-123.44-.11-246.87c0-4.37,1.33-5,5.27-5q89.3.19,178.58.09a37.15,37.15,0,0,0,4.48-.07c4.17-.51,7.17-3.86,6.81-7.82-.39-4.17-2.77-6.65-7-7-1.65-.14-3.32,0-5,0H23c-7.44,0-7.44,0-7.43-7.68a18.8,18.8,0,0,0,0-2.49c-.27-2.2.68-3,2.83-2.81a27.1,27.1,0,0,0,3,0q206.27,0,412.51,0c1.86,0,5-1.09,5.39.9a31.74,31.74,0,0,1-.14,11.33c-.26,1.46-3,.66-4.58.66q-85.78.06-171.59,0c-7.64,0-15.29,0-22.94,0-6,0-9.22,2.58-9.3,7.28-.08,4.89,3.3,7.67,9.49,7.67q96.77,0,193.54-.11c4.71,0,6,1,6,5.86-.24,36.74-.13,73.48-.12,110.23a22.73,22.73,0,0,0,.18,5c.9,4.09,3.54,6.41,7.8,6.17,4-.23,6.38-2.6,6.91-6.58a37.54,37.54,0,0,0,.09-5V188.25l.74-.08q3.6,23.55,7.21,47.1,9.18,59.82,18.37,119.63c5.09,33.15,10.31,66.28,15.21,99.46C498.59,471.41,487.52,483.92,470.28,484.09ZM377.14,243.24q-12.45-.39-24.9,0a7.4,7.4,0,0,0-7.32,7.38c0,4.07,3.13,7.22,7.74,7.4,4,.16,8,0,11.95,0h11c.33,0,.67,0,1,0,4.74-.26,7.86-3,8-7.12A7.38,7.38,0,0,0,377.14,243.24ZM377.07,364c-8.13-.22-16.27-.2-24.4,0-4.61.1-7.76,3.4-7.74,7.44s3.15,7.16,7.8,7.38c4,.18,8,0,11.95,0v0c4.15,0,8.31.17,12.45-.05,4.4-.23,7.34-3.24,7.46-7.15C384.72,367.51,381.7,364.14,377.07,364Zm.09-60.35c-4-.17-8,0-12,0-4.16,0-8.32-.1-12.47,0-4.59.14-7.78,3.25-7.8,7.35a7.37,7.37,0,0,0,7.2,7.48q12.71.33,25.43,0a7.4,7.4,0,0,0-.4-14.8Zm-68.77,120.7c-4-.16-8,0-11.95,0-4.16,0-8.31-.14-12.46,0-4.61.18-7.62,3.33-7.54,7.55a7.25,7.25,0,0,0,7.3,7.31q12.45.28,24.9,0a7.16,7.16,0,0,0,7.26-7.31C316,427.63,313,424.55,308.39,424.36ZM307.62,364c-3.82-.12-7.64,0-11.45,0s-7.64-.1-11.45,0c-5.11.18-8.23,3-8.29,7.36s3,7.41,8.09,7.51q11.69.24,23.39,0c5.16-.11,8.07-3.08,8-7.56S312.81,364.12,307.62,364Zm1-60.3c-4.14-.17-8.3,0-12.45,0s-8.31-.14-12.45.05a7.4,7.4,0,0,0-.14,14.8c8.47.22,16.95.23,25.41,0a7.11,7.11,0,0,0,6.95-7.59C315.82,306.79,313,303.83,308.58,303.65ZM284.09,258c4,.15,8,0,11.94,0,4.15,0,8.31.13,12.45-.05,4.51-.18,7.29-3,7.41-7.07s-2.46-7.44-6.87-7.61c-8.45-.34-16.92-.34-25.37-.07a7.22,7.22,0,0,0-7.22,7.88C276.68,255.12,279.59,257.86,284.09,258ZM239.31,424.34q-11.7-.16-23.4,0c-5.08.07-8,3-8,7.54s3.1,7.24,8.21,7.38c3.82.11,7.64,0,11.45,0h11c.33,0,.66,0,1,0,4.71-.3,7.69-3.13,7.77-7.36C247.37,427.47,244.32,424.42,239.31,424.34Zm.16-60.36q-11.94-.25-23.88,0c-4.8.11-7.65,3.09-7.68,7.36s2.71,7.2,7.56,7.44c4.14.21,8.29,0,12.44,0v0h10.44c.33,0,.67,0,1,0,5.1-.34,8-3.16,7.94-7.64C247.18,367,244.31,364.09,239.47,364ZM215.35,258c4,.17,8,0,11.94,0v0h11.44c.33,0,.66,0,1,0,4.57-.3,7.37-2.88,7.56-7s-2.37-7.61-6.7-7.78q-12.92-.48-25.85,0c-4.43.17-7,3.51-6.82,7.65S210.79,257.83,215.35,258Zm.19,60.5c4,.17,8,0,11.94,0,4.15,0,8.31.16,12.45,0,4.56-.23,7.48-3.47,7.35-7.73-.12-4.07-3-7-7.38-7.12q-12.19-.23-24.4,0c-4.71.08-7.59,3.08-7.59,7.42S210.81,318.32,215.54,318.52Zm-44.6,105.84q-12-.19-23.93,0c-4.66.08-7.72,3.14-7.77,7.33s3,7.34,7.59,7.55c4,.18,8,0,12,.05s8,.1,12,0c4.9-.16,8.19-3.36,8.1-7.64C178.76,427.54,175.57,424.43,170.94,424.36ZM171,303.65q-12-.18-23.93,0c-4.67.07-7.74,3.08-7.83,7.26s2.93,7.38,7.53,7.61c4,.19,8,0,12,0,4.16,0,8.32.15,12.46,0,4.56-.2,7.71-3.46,7.66-7.56S175.59,303.72,171,303.65Zm-.27,75.17c5-.1,8.21-3.3,8.11-7.55s-3.34-7.15-8.4-7.32c-3.81-.12-7.63,0-11.45,0s-7.64-.11-11.45,0c-5.16.18-8.23,3-8.3,7.35s3,7.42,8.09,7.52Q159,379.06,170.73,378.82ZM146.46,258c4.14.17,8.3,0,12.45,0v0c4.15,0,8.31.14,12.45,0,4.38-.19,7.36-3.18,7.48-7.12a7.3,7.3,0,0,0-7-7.61c-8.62-.27-17.26-.27-25.88.09a6.92,6.92,0,0,0-6.64,7.81C139.72,255.39,142.21,257.82,146.46,258ZM102,303.63q-11.72-.13-23.43,0c-4.67.06-7.86,3-8,7.12s3.15,7.59,8,7.77c4,.14,8,0,12,0,3.83,0,7.65.09,11.47,0,5-.15,8.24-3.19,8.27-7.46S107,303.69,102,303.63Zm.73,120.75c-8.14-.17-16.29-.16-24.43,0-4.56.08-7.78,3.35-7.77,7.41s3.21,7.29,7.76,7.48c4,.17,8,0,12,0,4.16,0,8.32.16,12.47,0,4.52-.22,7.62-3.59,7.48-7.69A7.35,7.35,0,0,0,102.77,424.38ZM101.88,364c-3.81-.13-7.63,0-11.45,0s-7.64-.1-11.46,0c-5,.17-8.31,3.13-8.4,7.33s3.19,7.44,8.14,7.54q11.7.24,23.41,0c5-.1,8.19-3.24,8.12-7.53S107,364.12,101.88,364Z"/><path class="cls-2" d="M110.24,371.29c.07,4.29-3.09,7.43-8.12,7.53q-11.7.24-23.41,0c-4.95-.1-8.22-3.33-8.14-7.54S74,364.12,79,364c3.82-.13,7.64,0,11.46,0s7.64-.1,11.45,0C107,364.12,110.17,367,110.24,371.29Z"/><path class="cls-2" d="M110.24,431.54c.14,4.1-3,7.47-7.48,7.69-4.15.21-8.31,0-12.47,0-4,0-8,.14-12,0-4.55-.19-7.76-3.41-7.76-7.48s3.21-7.33,7.77-7.41c8.14-.14,16.29-.15,24.43,0A7.35,7.35,0,0,1,110.24,431.54Z"/><path class="cls-2" d="M110.25,311.08c0,4.27-3.31,7.31-8.27,7.46-3.82.11-7.64,0-11.47,0-4,0-8,.11-12,0-4.82-.18-8.15-3.54-8-7.77s3.36-7.06,8-7.12q11.72-.15,23.43,0C107,303.69,110.28,306.78,110.25,311.08Z"/><path class="cls-2" d="M139.28,251.18a6.92,6.92,0,0,1,6.64-7.81c8.62-.36,17.26-.36,25.88-.09a7.3,7.3,0,0,1,7,7.61c-.12,3.94-3.1,6.93-7.48,7.12-4.14.18-8.3,0-12.45,0v0c-4.15,0-8.31.14-12.45,0S139.72,255.39,139.28,251.18Z"/><path class="cls-2" d="M147.33,378.82c-5.08-.1-8.15-3.16-8.09-7.52s3.14-7.17,8.3-7.35c3.81-.13,7.63,0,11.45,0s7.64-.1,11.45,0c5.06.17,8.31,3.08,8.4,7.32s-3.12,7.45-8.11,7.55Q159,379.06,147.33,378.82Z"/><path class="cls-2" d="M178.85,311c.05,4.1-3.1,7.36-7.66,7.56-4.14.19-8.3,0-12.46,0-4,0-8,.15-12,0-4.6-.23-7.61-3.43-7.53-7.61s3.16-7.19,7.83-7.26q12-.17,23.93,0C175.59,303.72,178.8,306.86,178.85,311Z"/><path class="cls-2" d="M178.85,431.63c.09,4.28-3.2,7.48-8.1,7.64-4,.12-8,0-12,0s-8,.13-12-.05c-4.62-.21-7.64-3.37-7.59-7.55s3.11-7.25,7.77-7.33q12-.19,23.93,0C175.57,424.43,178.76,427.54,178.85,431.63Z"/><path class="cls-2" d="M207.91,311.07c0-4.34,2.88-7.34,7.59-7.42q12.19-.19,24.4,0c4.41.09,7.26,3,7.38,7.12.13,4.26-2.79,7.5-7.35,7.73-4.14.2-8.3,0-12.45,0-4,0-8,.14-11.94,0C210.81,318.32,207.92,315.35,207.91,311.07Z"/><path class="cls-2" d="M207.91,251c-.14-4.14,2.39-7.48,6.82-7.65q12.92-.48,25.85,0c4.33.17,6.9,3.67,6.7,7.78s-3,6.65-7.56,7c-.33,0-.66,0-1,0H227.29v0c-4,0-8,.14-11.94,0C210.79,257.83,208.06,255.1,207.91,251Z"/><path class="cls-2" d="M247.29,371.22c.1,4.48-2.84,7.3-7.94,7.64-.33,0-.67,0-1,0H227.91v0c-4.15,0-8.3.16-12.44,0-4.85-.24-7.59-3.1-7.56-7.44s2.88-7.25,7.68-7.36q11.94-.27,23.88,0C244.31,364.09,247.18,367,247.29,371.22Z"/><path class="cls-2" d="M247.29,431.92c-.08,4.23-3.06,7.06-7.77,7.36-.33,0-.66,0-1,0h-11c-3.81,0-7.63.09-11.45,0-5.11-.14-8.15-2.95-8.21-7.38s2.92-7.47,8-7.54q11.7-.18,23.4,0C244.32,424.42,247.37,427.47,247.29,431.92Z"/><path class="cls-2" d="M276.43,251.14a7.22,7.22,0,0,1,7.22-7.88c8.45-.27,16.92-.27,25.37.07,4.41.17,7,3.52,6.87,7.61s-2.9,6.89-7.41,7.07c-4.14.18-8.3,0-12.45.05-4,0-8,.12-11.94,0C279.59,257.86,276.68,255.12,276.43,251.14Z"/><path class="cls-2" d="M315.9,310.86a7.11,7.11,0,0,1-6.95,7.59c-8.46.25-16.94.24-25.41,0a7.4,7.4,0,0,1,.14-14.8c4.14-.19,8.3,0,12.45-.05s8.31-.14,12.45,0C313,303.83,315.82,306.79,315.9,310.86Z"/><path class="cls-2" d="M315.9,371.26c.08,4.48-2.83,7.45-8,7.56q-11.7.26-23.39,0c-5.08-.1-8.16-3.15-8.09-7.51s3.18-7.18,8.29-7.36c3.81-.12,7.63,0,11.45,0s7.63-.1,11.45,0C312.81,364.12,315.81,366.85,315.9,371.26Z"/><path class="cls-2" d="M315.9,431.9a7.16,7.16,0,0,1-7.26,7.31q-12.45.3-24.9,0a7.25,7.25,0,0,1-7.3-7.31c-.08-4.22,2.93-7.37,7.54-7.55,4.15-.17,8.3,0,12.46,0,4,0,8-.13,11.95,0C313,424.55,316,427.63,315.9,431.9Z"/><path class="cls-2" d="M384.59,310.85a7.32,7.32,0,0,1-7,7.61q-12.71.36-25.43,0a7.37,7.37,0,0,1-7.2-7.48c0-4.1,3.21-7.21,7.8-7.35,4.15-.12,8.31,0,12.47,0,4,0,8-.13,12,0A7.37,7.37,0,0,1,384.59,310.85Z"/><path class="cls-2" d="M384.59,371.63c-.12,3.91-3.06,6.92-7.46,7.15-4.14.22-8.3.05-12.45.05v0c-4,0-8,.15-11.95,0-4.65-.22-7.79-3.33-7.8-7.38s3.13-7.34,7.74-7.44c8.13-.19,16.27-.21,24.4,0C381.7,364.14,384.72,367.51,384.59,371.63Z"/><path class="cls-2" d="M344.92,250.63a7.4,7.4,0,0,1,7.32-7.38q12.43-.39,24.9,0a7.38,7.38,0,0,1,7.45,7.71c-.16,4.09-3.28,6.86-8,7.12-.33,0-.67,0-1,0h-11c-4,0-8,.12-11.95,0C348.05,257.85,344.89,254.7,344.92,250.63Z"/><path class="cls-3" d="M110.25,311.08c0,4.27-3.31,7.31-8.27,7.46-3.82.11-7.64,0-11.47,0-4,0-8,.11-12,0-4.82-.18-8.15-3.54-8-7.77s3.36-7.06,8-7.12q11.72-.15,23.43,0C107,303.69,110.28,306.78,110.25,311.08Z"/><path class="cls-3" d="M384.59,310.85a7.32,7.32,0,0,1-7,7.61q-12.71.36-25.43,0a7.37,7.37,0,0,1-7.2-7.48c0-4.1,3.21-7.21,7.8-7.35,4.15-.12,8.31,0,12.47,0,4,0,8-.13,12,0A7.37,7.37,0,0,1,384.59,310.85Z"/><path class="cls-3" d="M110.24,431.54c.14,4.1-3,7.47-7.48,7.69-4.15.21-8.31,0-12.47,0-4,0-8,.14-12,0-4.55-.19-7.76-3.41-7.76-7.48s3.21-7.33,7.77-7.41c8.14-.14,16.29-.15,24.43,0A7.35,7.35,0,0,1,110.24,431.54Z"/><path class="cls-3" d="M178.85,311c.05,4.1-3.1,7.36-7.66,7.56-4.14.19-8.3,0-12.46,0-4,0-8,.15-12,0-4.6-.23-7.61-3.43-7.53-7.61s3.16-7.19,7.83-7.26q12-.17,23.93,0C175.59,303.72,178.8,306.86,178.85,311Z"/><path class="cls-3" d="M178.85,431.63c.09,4.28-3.2,7.48-8.1,7.64-4,.12-8,0-12,0s-8,.13-12-.05c-4.62-.21-7.64-3.37-7.59-7.55s3.11-7.25,7.77-7.33q12-.19,23.93,0C175.57,424.43,178.76,427.54,178.85,431.63Z"/><path class="cls-4" d="M315.89,250.94c-.12,4.09-2.9,6.89-7.41,7.07-4.14.18-8.3,0-12.45.05-4,0-8,.12-11.94,0-4.5-.17-7.41-2.91-7.66-6.89a7.22,7.22,0,0,1,7.22-7.88c8.45-.27,16.92-.27,25.37.07C313.43,243.5,316,246.85,315.89,250.94Z"/><path class="cls-5" d="M315.9,310.86a7.11,7.11,0,0,1-6.95,7.59c-8.46.25-16.94.24-25.41,0a7.4,7.4,0,0,1,.14-14.8c4.14-.19,8.3,0,12.45-.05s8.31-.14,12.45,0C313,303.83,315.82,306.79,315.9,310.86Z"/><path class="cls-4" d="M178.84,371.27c.1,4.25-3.12,7.45-8.11,7.55q-11.7.24-23.4,0c-5.08-.1-8.15-3.16-8.09-7.52s3.14-7.17,8.3-7.35c3.81-.13,7.63,0,11.45,0s7.64-.1,11.45,0C175.5,364.12,178.75,367,178.84,371.27Z"/><path class="cls-4" d="M178.84,250.89c-.12,3.94-3.1,6.93-7.48,7.12-4.14.18-8.3,0-12.45,0v0c-4.15,0-8.31.14-12.45,0s-6.74-2.61-7.18-6.82a6.92,6.92,0,0,1,6.64-7.81c8.62-.36,17.26-.36,25.88-.09A7.3,7.3,0,0,1,178.84,250.89Z"/><path class="cls-4" d="M315.9,371.26c.08,4.48-2.83,7.45-8,7.56q-11.7.26-23.39,0c-5.08-.1-8.16-3.15-8.09-7.51s3.18-7.18,8.29-7.36c3.81-.12,7.63,0,11.45,0s7.63-.1,11.45,0C312.81,364.12,315.81,366.85,315.9,371.26Z"/><path class="cls-3" d="M315.9,431.9a7.16,7.16,0,0,1-7.26,7.31q-12.45.3-24.9,0a7.25,7.25,0,0,1-7.3-7.31c-.08-4.22,2.93-7.37,7.54-7.55,4.15-.17,8.3,0,12.46,0,4,0,8-.13,11.95,0C313,424.55,316,427.63,315.9,431.9Z"/><path class="cls-4" d="M247.29,371.22c.1,4.48-2.84,7.3-7.94,7.64-.33,0-.67,0-1,0H227.91v0c-4.15,0-8.3.16-12.44,0-4.85-.24-7.59-3.1-7.56-7.44s2.88-7.25,7.68-7.36q11.94-.27,23.88,0C244.31,364.09,247.18,367,247.29,371.22Z"/><path class="cls-3" d="M247.28,310.78c.13,4.26-2.79,7.5-7.35,7.73-4.14.2-8.3,0-12.45,0-4,0-8,.14-11.94,0-4.73-.2-7.62-3.17-7.63-7.45s2.88-7.34,7.59-7.42q12.19-.19,24.4,0C244.31,303.75,247.16,306.71,247.28,310.78Z"/><path class="cls-4" d="M247.28,251.1c-.19,4.07-3,6.65-7.56,7-.33,0-.66,0-1,0H227.29v0c-4,0-8,.14-11.94,0-4.56-.19-7.29-2.92-7.44-7s2.39-7.48,6.82-7.65q12.92-.48,25.85,0C244.91,243.49,247.48,247,247.28,251.1Z"/><path class="cls-4" d="M384.59,251c-.16,4.09-3.28,6.86-8,7.12-.33,0-.67,0-1,0h-11c-4,0-8,.12-11.95,0-4.61-.18-7.77-3.33-7.74-7.4a7.4,7.4,0,0,1,7.32-7.38q12.43-.39,24.9,0A7.38,7.38,0,0,1,384.59,251Z"/><path class="cls-4" d="M110.24,371.29c.07,4.29-3.09,7.43-8.12,7.53q-11.7.24-23.41,0c-4.95-.1-8.22-3.33-8.14-7.54S74,364.12,79,364c3.82-.13,7.64,0,11.46,0s7.64-.1,11.45,0C107,364.12,110.17,367,110.24,371.29Z"/><path class="cls-3" d="M247.29,431.92c-.08,4.23-3.06,7.06-7.77,7.36-.33,0-.66,0-1,0h-11c-3.81,0-7.63.09-11.45,0-5.11-.14-8.15-2.95-8.21-7.38s2.92-7.47,8-7.54q11.7-.18,23.4,0C244.32,424.42,247.37,427.47,247.29,431.92Z"/><path class="cls-4" d="M384.59,371.63c-.12,3.91-3.06,6.92-7.46,7.15-4.14.22-8.3.05-12.45.05v0c-4,0-8,.15-11.95,0-4.65-.22-7.79-3.33-7.8-7.38s3.13-7.34,7.74-7.44c8.13-.19,16.27-.21,24.4,0C381.7,364.14,384.72,367.51,384.59,371.63Z"/></g></g></svg>