<svg xmlns="http://www.w3.org/2000/svg" viewBox="0 0 7124.94 4749.96"><defs><style>.cls-1{fill:#fafafa;}.cls-2{fill:#fff;}.cls-3{fill:#1a2e35;}.cls-4{fill:#ff4f5b;}.cls-5{fill:#1b2f36;}.cls-6{fill:#ececec;}.cls-7{fill:#375a64;}.cls-8{fill:#ffbf9d;}.cls-9{fill:#e1e1e1;}.cls-10{fill:#375963;}.cls-11{fill:#6c9497;}.cls-12{fill:#fe505c;}.cls-13{fill:#7f898e;}.cls-14{fill:#fe4f5b;}.cls-15{fill:#e5e5e5;}.cls-16{fill:#fd767f;}.cls-17{fill:#e2e2e2;}.cls-18{fill:#758185;}.cls-19{fill:#583239;}.cls-20{fill:#532e35;}.cls-21{fill:#e0e0e0;}.cls-22{fill:#7a8388;}.cls-23{fill:#a0747a;}.cls-24{fill:#6b777c;}.cls-25{fill:#fe747e;}.cls-26{fill:#506a70;}.cls-27{fill:#c69c9f;}.cls-28{fill:#673841;}.cls-29{fill:#597176;}.cls-30{fill:#78545b;}.cls-31{fill:#5c6a6f;}.cls-32{fill:#a79598;}.cls-33{fill:#9a7075;}.cls-34{fill:#b6a4a7;}.cls-35{fill:#fe5f6a;}.cls-36{fill:#fe606a;}.cls-37{fill:#53656a;}.cls-38{fill:#70494f;}.cls-39{fill:#aa7a7f;}.cls-40{fill:#8a3e47;}.cls-41{fill:#6f3941;}.cls-42{fill:#723f46;}.cls-43{fill:#71494f;}.cls-44{fill:#6d7b80;}.cls-45{fill:#b1888e;}.cls-46{fill:#727e83;}.cls-47{fill:#576267;}.cls-48{fill:#8d6268;}.cls-49{fill:#be8b91;}.cls-50{fill:#476267;}.cls-51{fill:#466267;}.cls-52{fill:#546267;}.cls-53{fill:#8d9397;}.cls-54{fill:#61747a;}.cls-55{fill:#486268;}.cls-56{fill:#763b44;}.cls-57{fill:#767277;}.cls-58{fill:#5d7075;}.cls-59{fill:#85888c;}.cls-60{fill:#c5e5e6;}.cls-61{fill:#bfedee;}.cls-62{fill:#713a43;}.cls-63{fill:#fefefe;}.cls-64{fill:#bc363f;}.cls-65{fill:#ba3841;}.cls-66{fill:#612f37;}.cls-67{fill:#6f4b52;}.cls-68{fill:#652f36;}.cls-69{fill:#673941;}.cls-70{fill:#723a43;}.cls-71{fill:#783b44;}.cls-72{fill:#843b45;}.cls-73{fill:#653841;}.cls-74{fill:#a4414b;}.cls-75{fill:#1c3037;}.cls-76{fill:#733a43;}.cls-77{fill:#7a3b44;}.cls-78{fill:#7c3b44;}.cls-79{fill:#6e3942;}.cls-80{fill:#5f6c72;}.cls-81{fill:#683841;}.cls-82{fill:#21343c;}.cls-83{fill:#ace1e3;}.cls-84{fill:#ff9b6e;}.cls-85{fill:#695d57;}.cls-86{fill:#434445;}.cls-87{fill:#444c4b;}.cls-88{fill:#373e40;}.cls-89{fill:#363d40;}.cls-90{fill:#564a49;}.cls-91{fill:#61534f;}.cls-92{fill:#585853;}.cls-93{fill:#7f3c45;}.cls-94{fill:#7d3c45;}.cls-95{fill:#723b44;}.cls-96{fill:#753a43;}.cls-97{fill:#f0d1d3;}.cls-98{fill:#efddde;}.cls-99{fill:#7a3a43;}.cls-100{fill:#f8f9f9;}.cls-101{fill:#febf9d;}.cls-102{fill:#fdfdfd;}.cls-103{fill:#55363e;}.cls-104{fill:#ff868f;}.cls-105{fill:#ffdbdd;}.cls-106{fill:#ff505b;}.cls-107{fill:#b2878b;}.cls-108{fill:#d73e48;}.cls-109{fill:#fe98a0;}.cls-110{fill:#fe989f;}.cls-111{fill:#fe7c85;}.cls-112{fill:#fe979f;}.cls-113{fill:#fe7e86;}.cls-114{fill:#593e44;}.cls-115{fill:#fe7f87;}.cls-116{fill:#593d44;}.cls-117{fill:#5c363d;}.cls-118{fill:#593f45;}.cls-119{fill:#593e45;}.cls-120{fill:#5e444a;}.cls-121{fill:#fe949c;}.cls-122{fill:#8c6268;}.cls-123{fill:#21343b;}.cls-124{fill:#203339;}.cls-125{fill:#22343b;}.cls-126{fill:#fe7d85;}.cls-127{fill:#fe7e87;}.cls-128{fill:#fe7d86;}.cls-129{fill:#fe828a;}.cls-130{fill:#fe7b84;}.cls-131{fill:#fe979e;}.cls-132{fill:#fe8088;}.cls-133{fill:#fe7b83;}.cls-134{fill:#fe8189;}.cls-135{fill:#fe99a0;}.cls-136{fill:#fe8089;}</style></defs><title>dashboard</title><g id="Layer_2" data-name="Layer 2"><g id="Layer_1-2" data-name="Layer 1"><ellipse class="cls-1" cx="3562.47" cy="2374.98" rx="5038.09" ry="3358.73"/><path class="cls-2" d="M1685.14,4426.49c.95-5.27,3.95-8.93,9.42-8.39,15.87,1.58,30.53-6.66,46.38-5.23,5.66.5,11.44-1.21,13.18-7.42,1.94-6.9-3.95-9.3-8.65-12.08s-9.31-5.58-14-8.37c-6.08,3.13-12.62,2.49-18.46.39-41.77-15-85.8-21.87-127.91-35.74a21.81,21.81,0,0,1-8.2-8.6c-9.17-22-8.85-44.86-6.72-68a31,31,0,0,1,2.56-8,43.26,43.26,0,0,1,7.53-10.28c8.18-7.81,9.33-17.37,8.43-28.22-8.29-99.93-18.29-199.71-27.27-299.58q-15.27-169.86-31.3-339.63c-10.45-109.25-19.89-218.58-30.59-327.81-9.16-93.48-16.9-187.1-25.8-280.61-7.25-76.22-14.59-152.44-20.64-228.77-.62-7.86-2.4-15.68.34-23.44,2.24-5.46,6.88-8.31,11.88-10.82,26.4-13.21,26.7-13.29,19.72-42-19-77.94-38.31-155.78-55.84-234-2.21-9.83-8.72-21.73,5.23-29.3,37-6.22,74.06-3.15,111.08-2.09,15.09.43,22.53,9.52,22.72,24.72q.18,15.4.22,30.8,0,639.84,0,1279.67c0,13.35-1.57,26.91,3.47,39.83,20.3,63.36,64.21,96,130.26,96.08,63.27.09,126.55-.48,189.82-.55,441.39-.49,882.78,1.21,1324.16.62,7.12,0,14.24.09,21.36.12,15.55.05,26.48,7.3,29,22.6,28.76,174.11,11.21,336.78-122,468.19-26.58,26.22-55.23,52.73-95.24,59q-669.54.08-1339-.13C1701.94,4429.44,1692.92,4432.47,1685.14,4426.49Z"/><path class="cls-3" d="M1457.16,2725.36c6.32,65.22,12.77,130.42,18.94,195.65q11.26,119.05,22.17,238.16c7,75.47,13.67,150.95,20.65,226.42q13.3,143.85,26.84,287.67c7,75.46,13.76,150.94,20.75,226.4q13.32,143.85,26.79,287.67c1.17,12.58.37,25.56,3.25,37.71,4.35,18.4,1.07,31.84-17.5,39.3l-.88.59c-1.19,2.49-2.38,5-3.56,7.48-46.32-.17-90.16,14.46-135.06,22.74-9.21,1.7-18.18,4.62-27.4,6.6-28.33,2.88-32.64,0-37.42-31.43q-28.73-188.73-57.65-377.42c-32.35-208.56-60.83-417.72-99.25-625.33-23.45-126.7-45.91-253.58-68.34-380.48a149.77,149.77,0,0,1-2.18-39.17c.94,51.81-6.5,103-10.23,154.54-6.5,89.79-14.25,179.49-21.67,269.21-7.82,94.46-14.05,189-25.6,283.19-26.86,218.87-52.67,437.87-79.37,656.76-3.44,28.24-6.31,56.55-10.28,84.73-4.25,30.2-4.22,30.21-34.47,34.68-4.69.7-9.33,1.74-14.05,2.4-48.14,2.44-96.27,3.12-144.42.48-33.91-7.91-39-11.68-35.84-46.05,5.83-64.22.7-129.36,16.08-192.74,3.18-48.51,6.51-97,5.89-145.67,3.46-18.07-3-35.55-3.49-53.52-1.11-38.89,6.84-77.15,5.06-115.92-.36-7.8.48-15.93,6.93-21.91,1.41-8.85,2.63-17.7,1.12-26.67,4.27-22.55-1.88-45.64,3.55-68.13,3.06-63.79,6.68-127.57,9-191.39,2-54.36,7.41-108.59,6.35-163.07,4.71-11.11-1.5-21.27-2.5-31.9-2.35-24.94-2-49.87,6.64-73.92a3.21,3.21,0,0,0,.36-3.85c5.54-22.2-1.5-45.13,3.92-67.33q7.53-154.28,15.09-308.53c.85-17.26,2.23-34.5,3.37-51.75,12.92-11.31,28.42-7.51,42.94-6.37,53.44,4.19,106.93,7.19,160.51,8.4,13.47.31,26.71,2.11,40,3.62,25.94,2.93,30.6-.56,35.11-25.72,7.67-42.71,15.72-85.34,23.87-128,2-10.66,2.62-22.19,14.09-28.52,11,6.76,11.33,18.48,13.79,28.95,9.18,39.18,18.17,78.39,26.69,117.72,7.54,34.79,9,35.68,44.59,26.41,58-15.12,116.64-28,174.89-42.3C1435.67,2723.25,1446.45,2718.18,1457.16,2725.36Z"/><path class="cls-3" d="M3052.44,4427.69c32.13-18.78,63-39.19,90.11-65,71.68-68.45,108.86-153.93,122.84-250.45,9.69-67,7.7-133.95-3.95-200.63-4.17-23.9-4-24-27.82-24q-204,0-408.08,0-468.57-.42-937.13-1.08c-66.43-.09-132.85,0-199.27-.83-61.13-.75-110.25-40.48-123.13-98.28-2.48-8.73-3.64-17.42.88-25.92,11.27-4.92,18.34.61,23,10,16.92,34.23,45.53,56.48,74.36,80.35,24.81,20.55,50,23,78.53,22.14,19.75-.58,39.53-.08,59.31-.12,22.78-.05,44.6.6,65.65-13.87,16.07-11,37.68-10.13,57.71-8.45,59.11,5,118.24,5,177.45,1.66,23.71-1.34,46.54,7.21,70.57,6.81,65.62-1.09,131.27-.35,196.91-.4,16,0,31.12,1.85,46,8.9,20.12,9.53,42,5.86,63.09,3.63a536.66,536.66,0,0,1,56.79-3c185.06,0,370.11.39,555.16-.31,34.13-.13,67.77,5.28,101.78,5.1,16-.09,30.67-.82,43.41-13.92,12-12.34,28.25-11.4,40.82-.09,13,11.66,27.29,14.1,43.61,14.09,291-.15,582.08,2.54,873.07-.92,255.09-3,510.15-3.57,765.24-4a432.18,432.18,0,0,1,49.67,3c24.38,2.79,48.81,4.8,71.7-8.2,7.6-4.32,16.83-4,25.55-4.13,11.87-.24,23.74-.38,35.59-.1,144.7,3.44,289.24-7,433.93-4.87,20.66.3,41.22-.72,58.41,14.12,5.61,4.85,13.39,4.56,20.47,4.67,33.21.54,66.42.36,99.64.12,10.56-.08,20.35-1.6,26.88-11.66,5.42-8.34,14.46-11.8,23.3-15.51,27.65-11.63,47.24-31.15,56.4-60.06,4.33-13.69,9.08-27,19-37.78,7.62-8.3,7.83-18.69,7.84-29q.18-212.26,0-424.54c0-11.18-1.06-22.11-6.91-32-.32-15.85,6.17-22.24,21.91-15.65,6.33,10.9,4.89,23,4.9,34.73q.16,232.4,0,464.79c-.18,88.2-56.82,145.93-145.16,146.52-137.57.92-275.16.26-412.74.26q-518.31,0-1036.63,0c-7.9,0-15.81-.1-23.72,0-28.86.5-31.64,2.89-36.6,31.81-23.22,135.6,19,252.29,102.47,357.52,37.76,47.6,83.67,85.91,132.12,121.7,7.59,5.61,16,10.23,21.63,18.26a8.84,8.84,0,0,1,.8,8.42c-7.87.35-15.75,1-23.63,1q-705.46.07-1410.94,0c-7.88,0-15.75-.64-23.63-1-1.19-1.15-1.46-2.11-.82-2.87A2.25,2.25,0,0,1,3052.44,4427.69Z"/><path class="cls-4" d="M714.19,2401.09c-38.37-12.3-75.59-27-110.05-48.45-18.8-11.69-27.21-26.72-25.52-49.1,3.51-46.74,14.93-91.88,26.49-136.93,26.68-104,57.71-206.76,84.43-310.74,14.47-56.3,38.8-108.53,80.09-151.22A168,168,0,0,1,821.56,1668c43.12-19.56,85.6-40.55,128.89-59.73,19.48-8.63,35.23-20.2,46.35-38.49,4.34-7.15,8.83-14.65,17.93-21.14,0,20.22,1.24,38.74-.37,57a102.54,102.54,0,0,0,6.61,45.72q73.52,196.29,147.55,392.38c1.09,2.91,3,5.53,4.52,8.28,4.41.31,3.94,7.66,9.3,6.25,19.33-134.69,41.24-268.74,62-403,2.91-18.86-2.92-35.93-6.82-53.56-1.88-8.49-5-16.67-6.76-25.17-1.82-8.72-3.11-18.24,6-23.39,10.43-5.87,16.85,3.29,21.09,9.93,32.58,50.89,82.78,73,138.43,87.18a121.65,121.65,0,0,1,60.17,36.23c39.86,43.3,76,89,91.72,147.38,2.06,7.66,5.67,14.74,8.43,22.13,2.27,8.17,5.91,15.8,9.35,23.52q15.36,39.76,32.17,78.93c4.51,10.53,11.88,21,7.41,33.71-9.46,9.91-21.91,7.6-33.46,7.64-77.34.26-154.68,0-232,.17-36.33.07-40.33,3-54.26,37-26.65,65-53.86,129.69-82.35,193.86-4.22,9.51-6,22-19.94,23.88-5.67-3.23-6.58-8.82-6.07-14.32,4.09-43.83.89-87.79,2.16-116.87,1.63,43.3-2.32,101.33-1.2,159.39-5,19.73-18.69,26.3-37.31,22.86-20.28-3.74-40.59-2.25-60.87-2.28-27,0-27.25.69-25.67,27.33-23.23,19.39-51.36,16-78.57,17-23-24.81-54-38.24-81-57.33-6.19-4.37-14.38-6.58-17.15-14.95-8-30.29-13.35-61-14-92.36,4.11-43.59,4.57-87.4,7.29-131.08,1.11-17.74-1.27-35.62,1.38-49.9-2.07,16.94-9.26,36.08-14.62,55.69-5.52,14.08-8.88,28.79-12.25,43.47a50.32,50.32,0,0,1-1.94,6.37,145.31,145.31,0,0,0-8.78,31,45.26,45.26,0,0,1-1.93,6.46c-7.94,23.11-13.65,46.86-20.79,70.17-3.94,12.87-.32,21,10.83,27.44,43,24.67,81,56.87,124.21,81.07,16.37,9.17,24.41,21.47,22.69,40.11-.9,18-6.56,34.78-13.55,51.18a45.25,45.25,0,0,0-7.55,18.57,48.41,48.41,0,0,1-2.08,6.79c-10.69,32.91-10.5,32.06-43.36,24.53-20.58-4.71-38.67-15.41-58.69-21.13l.1.16c-3.63-5-10.31-1-14.3-4.86l.17.07c-3.73-4.83-10.36-1-14.42-4.8l.17.07c-3.72-4.86-10.36-1-14.42-4.82l.2.07c-14.21-5.07-29-8.42-42.94-14.32l.24.1c-3.74-4.85-10.4-1-14.48-4.83l.24.08c-3.74-4.85-10.42-1-14.48-4.86l.28.09C726.31,2401.45,719.3,2404.46,714.19,2401.09Z"/><path class="cls-2" d="M952.85,4327.38a19,19,0,0,1,2.08-1.13c11-4.43,25.62,4.62,33.52-5.52,7.13-9.14,4.06-22.86,5.52-34.52,10.64-85.4,20.77-170.87,31.18-256.31,12.23-100.32,24.73-200.61,36.81-301,8.5-70.54,16.91-141.11,24.61-211.75,14.72-135.06,23.24-270.67,34.44-406q10.93-132.22,22.34-264.41c.26-3.12.87-6.22,2-14.09,96.84,488.28,166.55,976.29,240.43,1464.26,11.53,3.08,21.08-4.79,31.07-2.13,16.38,22.85,11.07,50.06,13.83,75.32,2,18.72,12.11,38.8-2.06,57.29l.36-.26c-6.53,4.26-13.85,2.37-20.79,2.38q-228.67.16-457.34,0c-6.84,0-14.29,2.44-20.47-2.93,4.87-6.83,5.05-14.67,4.85-22.6C929.45,4375.75,936.69,4350.54,952.85,4327.38Z"/><path class="cls-5" d="M1604.86,1988.62c-15.52-36-33.31-71-43.92-109-4.67-16.89-6.13-34.11-6.1-51.59.13-83-.13-166,.1-249.06.39-143.1-.56-286.19-1.27-429.29-.47-94.08,2-188.14,1.35-282.16,2.89-33,14.39-62.1,38.93-85.25,5.8-6.25,13.32-9.75,21-13,28.59-17.32,59.65-22.45,92.9-22.44q1987.2.54,3974.41.31c11,0,22.14,1.44,33.05-1.38,2.62-3.08,5.85-5.66,9.82-6,65.06-5.78,118,6.34,157.75,58.29,12.14,15.86,14.23,34.38,16.61,53.05.23,63.12.61,126.24.64,189.35q.14,250.93.06,501.86c0,9.46.4,18.91.61,28.37-17.35,13.77-36.18,6.77-54.73,3.89-7.39-11.59-4.69-24.6-4.7-37q-.26-347.55-.13-695.11c0-36.72-1.71-38.39-39.23-38.4H1672.63c-36.13,0-37.66,1.5-37.67,37.13q0,552.77,0,1105.54c0,11.07,1,22.24-.84,33.17C1631.05,1998.36,1621.83,2001,1604.86,1988.62Z"/><path class="cls-6" d="M1615,769.26l-15.51,13.24c-10.77,3.38-21.88,2.77-32.94,2.77H1039.72c-7.12,0-14.24.19-21.35,0-14.26-.32-20.63,5.16-16.88,20.22,7.55,30.31,18.66,58.53,40.77,81.72,25.48,26.72,55.07,32,88.81,19.33,28.3-10.67,53.82-26.65,79.46-42.3,17.73-10.82,36.36-19.52,56.59-23.85,44.25-9.46,82.86,2.44,116.32,32.43,32.86,29.46,58,64.42,76.88,104.28,16.73,35.22,38.89,44.42,76.39,35.38,12.9-3.11,12.91-12.25,13-21.75.42-34.79-.45-69.59.52-104.36.27-9.88-4.2-23.11,11.1-27.51.19,60.77.51,121.55.53,182.32q.12,406.2,0,812.4c0,8.66-.65,17.33-1,26-4.57-5.76-8.39-11.84-8.46-19.55-6.81-66.17-2.83-132.54-3.23-198.82-.7-114.57-.09-229.15-.26-343.72,0-31.75-1.49-33-33.74-33.13-56.12-.17-112.24,0-168.36-.11-11.8,0-23.78.91-35.09-3.85-9.44-5.08-13-14-13-23.7.15-30-4.15-59.7-4-89.6.55-2.25.69-5.47,2.44-6.46,29.18-16.51,27.15-46.65,32.53-73.58,1.09-5.49,1.7-10.94-.24-16.31-5.62-15.58-55.42-40.53-70.95-33.79-24.6,10.67-47.45,8.29-70.35-3.92-7.65-4.07-15.93-6.82-24.18-9.52-46.54-15.23-85.47-4.11-115.76,34.52-10.5,13.4-20.78,24-38.93,27.63-22.25,4.49-33.64,22.45-34.35,47.63-1.07,37.85,14.09,74.31,9.93,112.5-.51,4.64.66,9.43-.32,14.13-7.68,9.69-16.91,16.62-30,16.6-35.55,0-71.1,0-106.65-.16-21.78-.13-21.86-.33-22.06-22.8-.14-15.8,0-31.59,0-47.39,0-160.18,1.75-320.38-.93-480.52-1-57,39.94-76.25,88.34-62.81,24.62,6.83,39.38,24.67,51.19,46,7.34,13.27,11.93,27.58,15.78,42,3.78,14.13,11.56,19.55,25.59,18,5.47-.6,11.05-.09,16.58-.09q280.83,0,561.67,0C1594.42,768.75,1604.68,769.08,1615,769.26Z"/><path class="cls-4" d="M1457.16,2725.36l-218.81,52.87c-3.83.92-7.67,1.88-11.52,2.71-17.66,3.85-17.92,3.89-21.84-13-10.91-46.91-21.58-93.87-32.36-140.81-2.11-9.19-4.32-18.35-7.22-30.61-9.54,26.86-11.28,52.19-16.33,76.75q-10,48.7-18,97.82c-1.8,11-6.38,14.48-17.14,13.79-40.22-2.57-80.48-4.69-120.74-6.69-48.14-2.38-96.29-4.47-144.43-6.68-13.2-6.76-28.09-2.42-44.88-6.67q28.7-155.73,57.3-310.92c17.81-5.81,32.39,5.74,47.71,10.45,18.76,5.76,31.14,7.06,33.22-16.8.26-3.08,2.41-5.63,5.24-7.34,16.48-7.16,32.83-.73,49,.93,57.14,5.86,114.2,12.43,171.57,15.69,4.54,34.68-2.43,69.13-2.65,103.73.51-33.11,5-66,4.83-99.15,0-14.28,12.14-14.55,21.15-17.55,27.93-9.33,57-15.7,81.24-34,45.9-4.73,91.88-1.94,137.82-1.76,7,0,14,1.46,19,7.45q34.31,141.92,68.8,283.77c2.37,9.7.81,14.22-9.43,16.7C1478.1,2718.64,1466.94,2719.82,1457.16,2725.36Z"/><path class="cls-4" d="M6318.68,3212.7c-3,93.07-32.71,177.5-82.27,255.58-4.21,6.62-8.1,13.44-12.14,20.17a7.69,7.69,0,0,1-.52,6,32,32,0,0,1-4.89,8.13c-16.72,24.46-39.78,43-59.74,64.53-4.18,4.12-8.5,8.06-13.66,11-18.18,9.49-31.75.52-44.48-11.29-44.18-41-70.57-92.68-87-149.43-25.58-88.08-19.32-176.19,3.83-265.31-8.86,11.2-18.36,20.41-27.72,29.75s-18.52,19.56-29.87,26.82c-7.28,4.65-13.75,14.25-24.62,6.83-8.07-16.26-4.48-34.24-6-51.15-3.62-40.66-7.5-81.43-7.89-122.37-.08-9.16,4.1-14.52,11.49-18.88,20.12-11.87,42.07-19.33,60-27.21-16.7,6-36.58,14-55.25,24.42-12.21,6.81-24.8,11-38.4,8.78-42.3-7-84.9-3.5-127.37-4.56-5.53-.14-11.05-.41-16.12-3-10.49-14.61,4.11-17.59,11.45-21.91,23.82-14,49.63-23.88,75.48-33.49,18.76-6,37.94-10.45,57.06-15.14,38.49-9.57,76.66-7.14,114.21,4.43,32.08,9.89,55.87,28.56,59.48,65.39,76-43.93,114.2-40.76,143.22,10.37,2.58,5.77.58,13.46,7.36,17.48,40.95.09,83.51,32.49,92.31,89.58,3.6,23.34,5.16,47.15,1.4,70.85-20.8-8.1-31.36-27.85-47.15-41.66-12.45-10.88-23.59-23.27-35.45-34.85C6263.69,3158.66,6288.2,3188.76,6318.68,3212.7Z"/><path class="cls-7" d="M6523.33,3958.79q-18.94,91.82-37.85,183.65c-.94,4.56-1.22,9.25-1.81,13.88-3.4,4.33-.73,10.07-3.4,14.56-.36,1.57-.71,3.14-1.06,4.72-4.76,5.68-.15,13.25-3.86,19.14-10.51,49.26-20.36,98.68-31.93,147.69-3.36,14.19,3.21,16.15,13.44,17.61-22.68,10.41-35.75,2.84-34.12-20.91,1.45-21.17,4.25-41.95,13.94-61.83,9.27-19,2.17-41.76,11.23-61.88,3.64-8.1-7.41-7-12.88-9-57.12-21.06-116.55-13-175.22-14-37.07-.63-74.26,1.51-111.22-.64-28.35-1.65-54.12,6.74-80.68,13-12.56,3-9.95,12.81-8.94,20.95,3.72,29.72,9.26,59,18.32,87.76,5.07,16.08,7.63,33.65-15.71,39.65-12.79-3.86-11.82-15.77-13.79-25.18-8.73-41.71-17.3-83.47-25.31-125.33a76.84,76.84,0,0,0-4-19.06c-13.74-66.09-27.66-132.15-40.4-198.44-1.77-9.21-4.16-18.56,1.06-27.6a17.61,17.61,0,0,1,7.22-4.89c7.75-2.22,15.68-1.82,23.55-1.82q241.45-.11,482.93,0c7.86,0,15.81-.42,23.49,2A14.51,14.51,0,0,1,6523.33,3958.79Z"/><path class="cls-8" d="M954.68,1276.57c8.74-5.3,14.45-16.18,26.92-14.61,10.64,3.06,12.53,22.06,25.61,17.35,14.63-5.27,13.76-21.42,16.17-34.39.86-4.64.46-10.07,3.27-13.68,18.55-23.89,24.95-51.7,29.2-80.92,2.4-16.5,15.64-24.88,32.12-26.71,19.84-2.19,39.74-1.87,58,7.09,45.38,22.31,91.92,37.43,143.44,28,3.9-.72,7.73,1,10.53,4.24,4,30.94,6.71,62,5.75,93.22a40.55,40.55,0,0,0,4.39,20.36c11.91,15.88,6.46,34.23,7.42,51.67-1.42,28.21-.2,56.46-.63,84.65.15,39.41-22.66,64.48-54.73,81.31-18,9.47-29.29,19.53-26.59,41.21,1.83,14.7-5.93,24.74-17.57,33.5-21.92,16.5-46.35,29.63-66.13,49-6.5,4.13-11.59,1-16.43-3.26-20.42-18.86-46.23-29.35-69.14-44.35a324.72,324.72,0,0,0-30.41-18c-11.28-5.73-14.72-14.26-15.34-26.59-2.72-54.07-6.66-108.07-9.66-162.13-.57-10.26-3.07-15.2-14.73-16.11-36-2.82-51-24.2-43.35-59.16C953.58,1284.36,954,1280.45,954.68,1276.57Z"/><path class="cls-4" d="M6329.13,3505.87c-2.81-14.7-6.13-29.33-8.34-44.13-7.38-49.4,23-88.62,72.88-94.17,5.65-.63,10.72-1,15-5.47,9.64-10.08,22.33-11.3,35.16-10.39,137,9.69,225,100.94,251.45,206.29a251.86,251.86,0,0,1,7.78,63.34c-.21,31.62-.38,63.22-3.22,94.77-1.92,21.34-.12,42.73,2.74,63.86,2.73,20.23-1.47,20.4-18.43,19-76.46-6.5-143.64-35.67-202.5-84.15-32.39-26.67-62-56.2-83.59-92.73,11.36-48.84,22.2-97.81,36.71-145.86,7.3-24.13,9.35-24.56,27.71-6.6,21.5,28.62,48.64,51.82,74.12,76.64,1.35,1.81,2.7,3.61,4.08,5.39,10.94,8.27,15.9,21.58,25.86,30.67,4.87,4.44,4.17,9,1.64,14.81-18.18,41.93-27,86.77-39.49,130.46,11.34-39.08,19.89-79,34.06-117.22,6.55-17.67,11.77-18.8,23.15-3.65a244.29,244.29,0,0,1,32.33,57.71c11.75,30.13,28.09,57.89,36.88,77.09-13.27-24.45-29.59-59.68-45.15-95.26-16.64-38.08-48.81-65.25-69.78-100.27,1.53-1.9,3.48-3.68,5.85-3.37,45.14,5.86,89.7,14.36,116.15,23.11-28.54-7.76-74-20.28-121.67-22.63-11.36,1-16.29-8.36-22.53-14.77-18-18.49-38.11-35-53.57-55.86-6.71-11.36-19.62-17.88-21.6-30.47-16,59.83-31.87,119.5-44.88,179.83-22.74-25.66-37.3-56.34-52.94-86.36-3.62-7-5.41-14.93-11.34-20.62C6327.6,3514.11,6330.62,3508.86,6329.13,3505.87Z"/><path class="cls-9" d="M5985.75,776.48q0-126.75,0-253.49c0-6.31.07-12.63.27-18.94.22-6.6,3.81-10,10.39-10.27q7.09-.24,14.21-.26,67.53,0,135.08,0c24.78,0,24.95.16,25,24.63q.06,260.6,0,521.18c0,3.16-.19,6.33,0,9.48.53,10.06-4.3,14.11-14.21,14.08q-78.2-.26-156.41,0c-9.84,0-14.75-3.85-14.29-14,.25-5.51,0-11.05,0-16.58Z"/><path class="cls-7" d="M6061.19,4352.17c22.66-13.85,12.48-33.64,6.08-49.55-12.22-30.35-10.63-62.86-18.59-93.73-2-7.78,7.77-15.37,18-12.69s18,3.45,24.58-6.49c4.11-6.25,11.4-4.36,17.52-4.37q138.61-.14,277.22,0c4.67,0,11.08-.87,13.73,1.7,14,13.63,31.06,12.67,48.52,12.74,14.49.07,14.77,2.51,8.59,16.84-6.69,15.51-17,31-6.48,48.83,2.61,4.43-1.51,5-2.9,7.3-8.95,14.85-16.82,30-15.79,48.27.3,5.35-1.24,10.86-2.3,16.23-3.67,18.58-.75,22.53,18,23.46,3.13.16,6.29-.42,9.43-.67a310.34,310.34,0,0,1,66.33.51l-53.59,62.53c-2.44,2.38-1,6.67-4.27,8.65q-240.84-.1-481.7-.24a58.27,58.27,0,0,1-7-.85c-1.31-2.54-.75-4.55,1.66-6.06,4.18-2.48,8.87-3.24,13.61-3.46,12.48-.58,12.75-6.24,6.74-15.13-5.75-8.49-12-16.64-17.54-25.27-13.35-20.83-8.7-29.86,16.54-30.76C6018.8,4349.2,6040.1,4348.41,6061.19,4352.17Z"/><path class="cls-9" d="M787.46,4095.12q-3.24,82.59-6.48,165.18c-.63,15.74-1.7,31.47-2.06,47.21s-.08,15.6,16.42,17c3.81.32,7.53,1.73,11.29,2.63,5.71,12.12.14,23.44-2.44,35a46.34,46.34,0,0,1-2.18,7.11c-6.87,16-15.13,31.27-23,46.73-4.65,9.11-10.94,15.47-22.33,13.63-64.38,0-128.73.11-193.06-.14-7.56,0-15.73,2.73-22.68-2.87-30.81-68.35-55.61-138.61-71.25-212.16-6.23-29.3-7.15-59.17-13.21-88.38-1.6-7.7,3-11.72,10.84-11.78,6.32,0,12.64-.14,19-.14,90.9,0,181.8-.6,272.69.53C775.37,4114.85,783.23,4109.36,787.46,4095.12Z"/><path class="cls-9" d="M6441.35,844.07q0,95.91,0,191.82c0,5.52-.06,11-.27,16.57-.25,6.63-3.91,10-10.46,10.18-3.16.11-6.32.23-9.47.23-48.17,0-96.34.16-144.51-.06-19.63-.09-20.12-.48-20.14-19.83q-.21-201.29,0-402.58c0-18,.59-18.52,19-18.62q72.24-.39,144.5,0c20.95.08,21.28.36,21.33,21C6441.45,709.88,6441.35,777,6441.35,844.07Z"/><path class="cls-9" d="M5899.49,851.07a93,93,0,0,1-3.48-8.65c-16.83-57.52-61.87-92.85-121.53-95.33-19.72-.82-39.5,1.62-59.17-1.34l0-385.94c0-3.95.25-7.91,0-11.84-.73-10.76,3.53-15.87,14.93-15.81q78.17.42,156.32,0c10.34,0,14.13,5,13.68,14.59-.15,3.15,0,6.31,0,9.47q.06,242.7.1,485.39C5900.32,844.8,5899.78,847.93,5899.49,851.07Z"/><path class="cls-4" d="M6735.77,2985.71c43.38,19.13,83.35,44.38,123.51,69.25a55.84,55.84,0,0,1,9.33,7.21c14.41,13.9,13.19,26.51-4.75,35.48a494.78,494.78,0,0,1-79,31.22c-56.91,17.09-115,26.87-174.64,26.62a501.1,501.1,0,0,0-70.76,4.87c-23.64,3.25-46.25,10.26-66.74,22.6-36.87,22.21-76.79,31.45-119.5,30.09-2.34-5.8-1.36-10.9,2.28-15.59,10.49-27.5,18.95-55.76,32.74-82,9.91-18.88,20.63-37.05,34.46-53.32,11.32-13,22.43-26.31,37-36,76.27-49.69,157.18-54.67,241.3-24,21.69,7.91,44.55,12.91,64.67,25-17.75-10.47-37.58-15.44-56.78-22.14-4.67-1.63-12.21-2.77-10.6-10.05,1-4.72,7.06-5.66,11.76-6.59C6718.54,2986.63,6727.28,2987.39,6735.77,2985.71Z"/><path class="cls-10" d="M6584.27,3862.33c5.78,3.88,3.54,9.89,3.6,15,.27,19.59.2,39.18.09,58.76-.12,20.71-.21,20.65-20.05,21.19-14.86.4-29.72,1-44.57,1.49-.78-.72-1.58-1.4-2.41-2.05-5.24-2.5-10.84-1.63-16.3-1.64q-253-.06-506.08,0c-5.47,0-11.06-.82-16.33,1.53-.75.57-1.47,1.17-2.16,1.81-19.76,11.78-40.84,7-61.57,4.44-7.46-.91-13.33-6.37-14-14-2.67-29.32-8.12-58.88,4.19-87.53,9.73-7.25,21.14-5.44,32-5.46,82.17-.19,164.49-3.3,246.47.64,127.78,6.14,255.51,1.76,383.25,3.75C6575.1,3860.38,6579.93,3859.7,6584.27,3862.33Z"/><path class="cls-9" d="M6512.6,932.53c0-37.09-.21-74.18.07-111.27.14-18.51.62-19.09,18.38-19.19q72.22-.41,144.46,0c16.4.11,17.28,1,17.33,17.8q.34,112.46,0,224.9c-.05,17-.88,17.87-17.16,18-48.94.31-97.88-.14-146.82.27-12.41.1-16.54-5-16.42-16.87C6512.86,1008.28,6512.6,970.4,6512.6,932.53Z"/><path class="cls-4" d="M1428.63,4427.39q-5.89-66.3-11.78-132.62a872.52,872.52,0,0,1,112.82-24.39c14.17-2.15,30.45-7.29,44.94,2l5.52,68.59c-2.44,4-6.67,5.66-10.56,8.16,5.09-1.62,9.21-7.17,15.24-3.24,50.29,7.82,98.73,22.59,146.7,39.09-3.76,8-11.6,7.4-18.36,8.19-72.92,8.55-145.88,16.78-218.8,25.33C1472.4,4421.09,1450.53,4424.41,1428.63,4427.39Z"/><path class="cls-4" d="M764.36,4428c14.68-19.34,21.8-42.77,34.28-63.3,12.11-2,24.2-3.84,34,3.63-8.38-9.85-22.49-1.69-33.07-7.19,3-11.19,2.32-23.13,7.08-33.95,48.74-1.32,97.48-1.75,146.21.24L935.24,4404l-183,130.62c-2.56,1.83-5.08,3.77-7.77,5.39-5.17,3.11-9.91,9.2-16.81,4.63-6.63-4.38-7.89-11.61-7.28-18.93a31.78,31.78,0,0,1,3.15-11.3c13.1-26,26.44-51.79,39.71-77.66,11.2,4.76,23.71,7.38,30.65,19.11-6.62-11.78-19.39-14.11-29.94-19.84a3.68,3.68,0,0,1-.57-2.4Q760.2,4430.11,764.36,4428Z"/><path class="cls-9" d="M475.6,3346.7c-37.83-63.18-53.55-129.32-33.15-201.88,44.53,66.21,60.6,139,53.51,218-37.39-.27-72.22-4.19-107.26-3.5-10.68.22-17.81,6.11-25.46,11.19-27,17.92-54,35.74-84.78,46.48-20.72,7.24-41.79,14.44-64.29,13.69-15.12-.5-17-4.11-9.7-16.79,14.61-25.31,37.68-39.75,64.21-49.54a169,169,0,0,1,67.7-10.37c-14.79-6-31.09-7.34-44.91-18.91,11.06-21.09,31-25.23,51-27.37,40.6-4.33,78.33,4.39,112.4,27.62C461.4,3339.7,468.69,3342.92,475.6,3346.7Z"/><path class="cls-9" d="M282.1,3504c51.91,36.57,86.93,85.5,109.76,144.69,1.07-18.47,4-36.38,7.05-54.23,5.2-30.26,16.95-57.35,40.35-78.31,3.3-3,6.13-8.35,11.67-5.46,4.8,2.5,4.29,7.89,4.77,12.61,4.15,40.78-8.08,78-25.19,114-6.41,13.5-14.68,26.11-21.91,39.24-2.36,4.29-5,7.94-9.77,9.77-50,19.31-99.72,22.59-148.74-2.78-9.45-4.89-23.1-10.25-19.38-23,3.45-11.87,16.66-15.47,29.27-16.2,34.55-2,67.34,5.21,99.09,18.23,3.55,1.45,7,3.06,11.48,5-7.39-14.78-10.56-17.37-23.2-27.77-35-28.79-59.92-64.55-70.86-108.93C274.37,3522.3,272.06,3512.05,282.1,3504Z"/><path class="cls-4" d="M6104.44,2614.54c145.72,56.18,179.39,215.64,124.75,315.37-1.47,2.69-3.65,5-5.5,7.45-12.21-16.05-5.55-36.88-13.74-53.93-12.59-56.47-38-105.91-79.65-146.72-10-9.77-21.71-18.42-26.13-32.77a49.32,49.32,0,0,1-1.48-11.34c.35-25-.86-50-.87-75Z"/><path class="cls-11" d="M5848.29,1575.14c17.5-1.55,35.73,5.42,52.51-4.49,10.27.33,20.54.94,30.81.94q382.08.09,764.18.05c5.53,0,11.07-.06,16.61,0,23.41.28,23.62.3,23.56,23.66q-.87,333.32-1.88,666.62a5.26,5.26,0,0,1-2.57,4.69c0-19.92.05-39.84,0-59.76q-.87-298.92-1.77-597.82c0-5.54-.3-11.09,0-16.6.49-9.09-3.6-13.14-12.63-12.64-3.94.22-7.91,0-11.86,0q-848.43.27-1696.85.55c-4.74,0-9.48.29-14.22.44l-.48-4.54c9.12-10.29,21.57-8.33,33.11-8.41,55.16-.4,110.32-.08,165.48-.21a171.31,171.31,0,0,0,30.56-2.87c12.5-2.41,25.16-2,37.77-2q269.94-.06,539.86,0c12.57,0,25.3-1.12,37.59,3C5842.76,1567.46,5845.53,1571.29,5848.29,1575.14Z"/><path class="cls-5" d="M5900.87,2382.05v237.29c1.14,3.9-1.05,6.26-3.82,8.37a156.85,156.85,0,0,0-17.2,11.2c-7,4.67-13.76,9.61-21.32,13.25-8.44,4.06-16.21,5.1-20.36-6-5.16-25.81-2.77-51.91-2.44-77.82.77-59.83-3.35-119.73,2.25-179.51a18.28,18.28,0,0,1,4.87-7.59C5862.21,2379.47,5881.58,2377.86,5900.87,2382.05Z"/><path class="cls-9" d="M536.56,3867.08c-7.58-29-3.88-58.94-5-88.69-1.09-27.59,8.46-52.53,17.29-77.75,3-8.5,9.41-14.53,15.87-20.33,11.76-10.57,18.68-8.23,23.3,7,6.6,21.75,3.79,43.45-.13,65-3.35,18.49-8.33,36.69-11.64,55.2-3.68,20.52-11.92,39.16-22,57-6.93,12.28-12.07,23.88.86,37.08-13.87-7.18-21.91-.07-29.73,7.73q-27.66,27.6-55.31,55.2c-17.84,17.88-39.28,28.45-64.17,32.55-4.75.79-9.19,2.87-13-1.5-4.79-5.48-4.69-11.91-1.34-17.64,26-44.47,63.42-73.34,114.89-81.78a262.89,262.89,0,0,0,31.4-7.2c-3.34-11.55-16.22-15.42-19.27-26.51C526.36,3859.62,528.21,3871.5,536.56,3867.08Z"/><path class="cls-12" d="M6356.57,3189.77c7.63-60.18,24.69-117,61.21-166.44,30.17-40.85,72.38-62.74,121.37-70.93,67.45-11.27,131.39,1.84,192.12,32.33-20.29,10.48-42.28,12.17-63.89,8.33-50.23-8.91-99.65-8.75-148.82,6.06-14.15,4.26-12.36-2.49-9.2-7.63-6.17,20.56-32.55,22.31-48.71,37.16-15.15,8.6-25.71,22.09-37,34.76-25.54,33.23-43,70.59-57.08,109.81C6364.52,3178.82,6366.38,3188.31,6356.57,3189.77Z"/><path class="cls-13" d="M5845.22,2382.79a6.21,6.21,0,0,1-1.76,3.75c-9,8.3-20.2,8.24-31.28,8.25q-398.51.24-797-.07c-32.13,0-38.74-6.06-38.8-36.75q-.66-359.23,0-718.49a96.93,96.93,0,0,1,1.47-16.49c6.48-14-2.65-33.39,14.87-43.64l1.47,1.44c-.27,6.3-.77,12.6-.77,18.91q-.06,378,0,755.92c0,7.07.71,14.15,1.09,21.23,6.83,6.17,15.06,2.76,22.52,2.76q400.29.32,800.58.33C5826.78,2380,5836.54,2376.92,5845.22,2382.79Z"/><path class="cls-14" d="M5895.32,2624l5.55-4.65c39.38-14,79.15-26,121.71-23.35,28.29,1.74,55.92,6.45,81.86,18.55l-.51,1c.27,26.6-2.16,53.38,5.12,79.54l.18,9.2c-8.9,4.25-15.34-1.94-21.33-6.19-51.93-36.91-109.91-56.67-173-62.87C5907.27,2634.43,5896.49,2637,5895.32,2624Z"/><path class="cls-15" d="M801.85,3758.1c0,15,1,30-.17,44.94-3.69,48.76-2.42,97.79-8.33,146.4-.89-9.3-3.23-16.81-15.28-15.75-7.73.68-15.57.11-23.35.1,2.67-15,19.77-18.61,24.63-31.91-4.78,13.34-22.6,16.34-24.59,31.89-11.45,10.2-22.89,20.4-36.83,32.84,22.3-51,23-51,22.27-104.15-.57-42.19,15.06-78.3,37.58-112.48,3.11-4.72,5.68-10.12,12.13-9.87,9.51.36,6.08,9.48,9,14.38A28.9,28.9,0,0,0,801.85,3758.1Z"/><path class="cls-16" d="M5912.66,1983.32c11.25-50.78,20.68-102,40.24-150.61-6.49-6.89-14.82-3.3-22.18-3.31-114.06-.26-228.13-.08-342.2-.39-8.13,0-17.3,3.86-24.55-3.5,8.26-4.09,17.12-2.12,25.67-2.13q169.62-.23,339.23-.1c5.54,0,11.08-.13,16.61,0,11.29.28,20-1.71,21.53-15.84,1.27-11.28,8.71-18.54,20.8-18.79s20,6.49,21.51,17.86c2.29,16.74,13.61,16.82,26,16.8q83-.13,166.05,0c8.58,0,17.42-1.83,25.72,2.06-6.35,7.15-14.73,3.56-22.09,3.61-59.82.4-119.65,0-179.43.31a18.48,18.48,0,0,0-6.54,4.62c-7.82,4.53-16.66,5-25.11,4.11-23.22-2.44-34.26,9.06-39.89,30.3q-12,45.43-22.69,91.17c-2,8.36-2.77,17.06-7.95,24.36q-2.4,2.94-4.65,6c-6.25,18.53-11.21,37.62-19,55.48-17.9,41-47,44.48-74.88,9.69-5.87-7.31-10.76-15.45-15.73-23.44-7.15-11.48-10.55-26.06-29.24-25.67-6.36.13-11.69-7.32-12.54-15.23-1-1.9-2-3.77-3.09-5.61,4.19-17.33,2.93-34.2-4.34-50.58a6.38,6.38,0,0,1,4.12-4.48c3.1,3.48,6.83,6.58,9.17,10.51,7.14,12,12.61,25,28.08,29.57,5.07,1.49,6.9,8.22,9.28,13.18a23.91,23.91,0,0,1,3.11,5.92c-5.6,26.5,9.84,45.12,25.32,62.62,16.93,19.13,34.77,16.22,46.62-6.47,9.09-17.4,12.19-37.19,20.32-55.06C5907.67,1987.5,5910.94,1986.15,5912.66,1983.32Z"/><path class="cls-17" d="M806.52,3663.3c.4,22.79,1.64,45.62-3.55,68.12-.37-2.33-.65-4.68-1.12-7-3-14.55-9.1-17.71-20.11-9.25-7.46,5.73-13.7,13-20.45,19.7-7.19,7.07-14.35,14.19-22.16,21.92-3.41-8,.7-12.91,2.45-17.61,5.29-14.26,3.8-27-2.17-41-25.31-59.35-23.49-119.43-2-179.43,2.53-7.1,5.1-14.77,11.53-19,4.87-.1,6.2,3.17,7.32,5.89,13.38,32.37,20.66,65.35,15.36,101-4.76,32-12.49,63-20.6,94.19-2.49,9.6-2,19.85,0,30,8.59-.31,11.28-6.95,15.91-10.75,4.26-3.5,7.77-10.41,12.12-10.87,26.66-2.76,21.69-23.16,23.82-39.91C803.15,3667.11,805.26,3665.26,806.52,3663.3Z"/><path class="cls-9" d="M503,3696.57c-2.49,38.33-13,74-34.34,106.29-17.19-10.29-16.39-9.61-29.15,5.58-15.81,18.83-26,41.34-41.5,60.26-15.61,19.08-32.43,36.62-56,46.15-8.19,3.3-16,6.76-27.18,1.86,5.5-27.21,18.79-50.5,37.09-71.15,25.78-29.1,57.88-48.59,95.21-58.82,11.74-3.21,16.45-7.62,10.93-19.37-3.52-7.49-2-15.54-2.18-23.39,8.31-6.18,12.31,1.36,17.79,5.75,5.55-11.14,6.43-23.48,9.9-35.06C486.42,3705,489.53,3695.08,503,3696.57Z"/><path class="cls-9" d="M645.08,3207.82c15.53-38.56,24.79-75.13,43-108.11,12.3-22.27,28.89-41.2,50.91-54.61a59.75,59.75,0,0,1,17.27-7.44c14-3.2,19.62,2.62,15.61,16.56-18.73,65-59.71,113.18-115.22,150.05C654.84,3205.48,652.32,3205.65,645.08,3207.82Z"/><path class="cls-18" d="M6584.27,3862.33a91.06,91.06,0,0,1-9.42,1q-331.92-.08-663.84-.24c3.38-17,17.66-12.23,27.7-12.39,56.82-.91,113.65-.38,170.48-.43,4.73,0,9.47,0,14.2,0,41.12-.11,39.65-.22,36.92-41.18q-6.84-102.64-15.85-205.1c-1-11-.31-22.07,3.22-32.74l8.21-5.89c10.45,9.53,9.9,23,10.92,35.05,4.44,52.38,9.63,104.76,11.13,157.3.71,25.17,6.68,49.91,5,75.11-.19,6.88-1.64,14.37,8.08,16.48,19.2,1.73,19.61-11.67,19.71-24.7.35-47.09.07-94.18.17-141.27,0-13.33-.41-26.7,2.14-39.93,6.93-38,1.8-76.26,3.16-114.36.45-12.52,0-25,6.46-36.38a8.21,8.21,0,0,1,1.63-4.17c3.64,6.68,2.14,13.94,2.15,20.94q.14,158.77.07,317.56a21.23,21.23,0,0,0,.05,4.72c1.92,8.34-6.05,19.45,1,24.48,10.46,7.49,24.53,4.2,36.73,2.39,11.68-1.73,4.37-13.15,7.11-19.72,1.27-2.17,2.51-2,3.72.05,4.29,20.41,4.3,20.6,23.29,20.54,6.87,0,14.13,1.82,20.54-2.35V3834c1.22-2,2.4-2,3.53.09,6.91,25.42,6.91,25.44,34,25.44,67.52,0,135.05-.08,202.57.11C6567.41,3859.64,6576.28,3857.4,6584.27,3862.33Z"/><path class="cls-9" d="M645.38,3035.12c17.46-45.26,44.87-77.35,85.3-97.48,17.33-8.64,33.47-21.29,54.75-19.45,7.84.68,16.43-.61,20.11,8.64,3.39,8.51-1,14.74-6.63,21.05-17,19.18-38.49,32.34-59.91,45.4C710.85,3010.45,681.83,3026.08,645.38,3035.12Z"/><path class="cls-9" d="M640.14,3004.49c-9.37,0-13.44-6.89-17-12.08-12.22-17.74-28.94-31.19-42.91-47.17-29.71-34-46.79-72.21-36.43-120.89,18.31,8,24.38,26.7,37.86,37.71,13.31,10.88,24.91,23.66,32.42,40.11,7.61,16.67,11.57,34.28,16.45,51.6C635.13,2970.13,637,2987.26,640.14,3004.49Z"/><path class="cls-19" d="M5976.94,4428.77l-.36,1.87c-8.65.39-17.3,1.13-26,1.14q-329.41.3-658.84.46-378,.21-756,.37c-8.66,0-17.31-.68-26-1a11.4,11.4,0,0,1-.8-3.69c10.79-11.2,24.94-8.47,38-8.5q170.79-.44,341.58-.16,521.86,0,1043.73.22C5947.53,4419.45,5964.39,4414.81,5976.94,4428.77Z"/><path class="cls-9" d="M267.79,3466.73c49.59-63.72,149.58-91.64,230.1-81.08-.59.52-1.26,1.57-1.76,1.49-32.1-4.89-54.45,13.35-78.05,30.93-41.76,31.11-87.52,52.88-141.53,50.56C274.39,3468.54,272.26,3467.73,267.79,3466.73Z"/><path class="cls-20" d="M3052.44,4427.69a18.34,18.34,0,0,1-.81,3.88c-8.67.35-17.34,1-26,1q-392.65.07-785.31,0-301.3-.08-602.62-.44c-9.42,0-19,1.06-31.5-2.89,28.32-4.5,53.8,0,79-2.76,9.46.26,18.92.74,28.38.75q656.43.06,1312.87.06C3035.07,4427.3,3043.76,4427.56,3052.44,4427.69Z"/><path class="cls-9" d="M648.18,2985.5a327.63,327.63,0,0,1,9.72-88c8-31.55,23.08-58.26,47.7-79.65,6.56-5.7,12.76-11.44,23.11-11.59,6.5,23.5-3.16,43.79-9.86,64.3a100.38,100.38,0,0,1-11.52,23.28C687.57,2924,667.92,2954.23,648.18,2985.5Z"/><path class="cls-9" d="M503,3696.57c-8.92,4.79-13,11.82-14.57,22.29-2.12,14.19-3.54,29.32-14.86,42.71-5.19-8.12-6.63-18.45-17.72-17.59.23-28.33-3.14-56.93,5.29-84.68,7.06-23.25,17.06-45.07,33.72-64C502.88,3629.13,511.56,3662.15,503,3696.57Z"/><path class="cls-9" d="M616.49,3241.9c-37.89-6.55-68.44-19.59-94.42-41.83-13.64-11.69-27.26-24-37.34-39.16-6.58-9.92-4.2-13.66,7.38-14.78,19.74-1.91,37.46,4.6,53.72,14.46C576.69,3179.31,596.34,3208,616.49,3241.9Z"/><path class="cls-21" d="M826,3203c.54,35.35,1,70.69-4.14,105.82-.75-5.41-1.5-10.82-2.23-16.12-9.51-2.69-13.84,6.7-22.75,8.58-20.68-20.47-29.11-47.71-31.74-75.45-2.41-25.44-4.84-51.83,3.49-77.23,1-2.95,1-6.28,2.2-9.08,2.08-4.67,5.87-7.54,11.23-6.32,4.61,1.05,6,5.1,5.61,9.13-2.28,23,5.12,45.16,4.93,67.94-.19,24.36,0,48.72,0,73.81,8.59-3,8.09-9.74,9.88-15.48C809.39,3246.43,810.76,3222.21,826,3203Z"/><path class="cls-22" d="M1135.37,1614.58c5.08-2.46,8.8.71,12.72,3.06,19.64,10.6,23.44,30.93,28.46,49.49,4,14.69,8.23,20,21.27,8.67a33.18,33.18,0,0,1,10.15-6c3.85-1.42,8-2.27,10.89,1.21,2.11,2.54,1.19,6.13-.49,8.83-10,16-24.32,27-41.75,33.23-10.82,3.87-13.7-5.33-14.67-13.38-1.71-14.13-5-27.89-8.08-41.74,8.88,100.62,18.64,201.18,25.87,302,2.81,39.07,9,78,1.87,117.15-5.81-7.33-5.46-16.78-8.58-25-1.07-52.89-9.27-105.23-12.75-158-3.27-49.57-8.29-99-12.25-148.57-3-37.64-5.56-75.32-8.61-117-13.34,22.6-14.39,44.65-17.26,65.47-2.94,21.35-4.36,25.66-24.39,8.23-11.87-10.34-25.46-18.64-36-30.5-.46-2.24.37-3.23,2.69-2.78l47.43,33.51C1118.88,1671.91,1119.27,1641,1135.37,1614.58Z"/><path class="cls-17" d="M607.51,3041.62c32.33,37.78,39,114.06,16.42,173.07C603.42,3158.06,577.53,3103.82,607.51,3041.62Z"/><path class="cls-17" d="M581.77,3464.67c-9.29-5.44-18.81-10-13.41-23.5,3.1-7.73-2.78-15.25-5.22-22.53-7.8-23.32-12.89-47.13-12.23-71.65.69-26,6.66-51.31,14.21-76.18,1.17-3.83,2.71-7.8,7.49-7.57,3.45.17,5.24,3.43,6.41,6.34,5.31,13.18,9.15,26.72,9.56,41.08.84,29.22-1.43,58-8.35,86.58C574.91,3419.22,569.38,3441.91,581.77,3464.67Z"/><path class="cls-23" d="M5845.22,2382.79c-11.06-.31-22.11-.89-33.16-.9q-397.26-.06-794.52-.06c-7.77,0-15.53-.62-23.29-1.07-.33,0-.89-1.22-.83-1.83a6.19,6.19,0,0,1,1.08-2.08q491.91.32,983.84.65c10.26,0,20.53.36,30.79.55,1.72.61,2.39,1.41,2,2.37s-.85,1.59-1.34,1.59l-108.93,0Z"/><path class="cls-24" d="M6275.06,3838.86c-1.24,0-2.48-.05-3.72-.05a1769.41,1769.41,0,0,1,4.15-293.08c7.76-80,21.09-159.24,43.07-236.75,2-6.93.83-16,9.15-20.33l-.38-.3c0,24.74-9.79,47.53-14.89,71.21-16.42,76.34-26.59,153.38-32.78,231.17-6,74.83-4.2,149.67-4.07,224.54C6275.6,3823.13,6275.25,3831,6275.06,3838.86Z"/><path class="cls-25" d="M6275.52,2036c-29.41,14.29-53.62,6.77-67.36-21.47-3.7-7.62-5.84-16-8.7-24-1.42-3.56-5-5-7.4-7.67-13.32-40.38-38.58-55.15-81.59-47.68-37.5,6.51-59-3.46-74.66-37.55-9.36-20.32-21.34-40.44-18.28-64.5.72-.67,1.46-1.33,2.21-2,2.3-1.35,3.9-.85,4.71,1.77,6.85,18.34,13.21,36.88,20.64,55,13.28,32.34,28,40.3,62.11,34.63,8.49-1.41,16.86-3.55,25.38-4.68,10.89-1.43,21.11-2.48,29.52-11.75,6.2-6.84,16.08-5.82,24.21-1.72,7.87,4,11.54,11.9,9.21,19.89-6.2,21.36,5.3,39.51,9,59,2.33,2.75,2.22,6,1.83,9.26,1.86,5.19,3.34,10.55,5.63,15.55,10.44,22.82,21.57,29.56,46.36,28.35,5.52-.26,11-.76,16.54-1.14Z"/><path class="cls-26" d="M5564,1825.51c39.46.28,78.93.74,118.4.8,83.72.12,167.44,0,251.15.15,6.8,0,14-2.2,20.36,2.34.36.26.39,1.31.22,1.89a9.12,9.12,0,0,1-1.2,2c-7.89-.26-15.78-.73-23.67-.75q-314.28-.63-628.56-1.16c-16.57,0-33.14,0-49.7-.83C5355.27,1825.23,5459.64,1827.41,5564,1825.51Z"/><path class="cls-27" d="M6009.8,2382a33.41,33.41,0,0,1-.67-4c8.69-.28,17.37-.79,26.05-.79q312,.16,624,.44c12.58,0,25.16,0,37.75,4.11h-30q-320.3.57-640.59,1.1C6020.83,2382.92,6015.31,2382.32,6009.8,2382Z"/><path class="cls-28" d="M6455.87,3028.05c26.2-15.87,51.85-32.37,67.56-60.69,1.56,12.22-9.39,18.09-13.06,30.56,9.69-2.92,17.86-6.07,26.32-7.8,38.88-8,77.86-8.43,117.2-2.44a199.43,199.43,0,0,0,77.38-2.95,9.84,9.84,0,0,1,4.49,1c-9.36,8.93-21.57,8.32-37.34,9.52,27.25,14.26,54.74,18.59,79,34.67-9.72,3.86-15.72-2.12-21.94-4.64-35.83-14.5-72.22-26.35-110.8-31.62-66.23-9-128.09.81-184.33,38.54C6455.48,3034.45,6455,3032,6455.87,3028.05Z"/><path class="cls-29" d="M6024.45,1832.89l-4.71-1.77c6.69-8.3,16-4.67,24.14-4.74,61.09-.57,122.19-.69,183.27-1,104.23,1.72,208.52-.28,312.75,6.61q-211.53,0-423,0C6086.05,1832.1,6055.25,1832.6,6024.45,1832.89Z"/><path class="cls-30" d="M930.39,4426.55c66.15.32,132.3.87,198.45.91q150.08.1,300.15-.33c-5.85,10.24-15.63,4.91-23.28,4.93-121.42.26-242.85,0-364.28-.16-32.33,0-64.66.09-97-.11-5.26,0-11,1.88-15.75-2a1.72,1.72,0,0,1,0-1.61A9.12,9.12,0,0,1,930.39,4426.55Z"/><path class="cls-31" d="M6322.42,3834.06a34.67,34.67,0,0,0-3.53-.09,1230.53,1230.53,0,0,1-7-192.89c1.81-45.61,6.65-90.74,17.21-135.2l4.49,8.95c-18.69,93.22-18.7,187.25-12.2,281.58C6322.28,3808.92,6322.11,3821.51,6322.42,3834.06Z"/><path class="cls-16" d="M5562,1982.51c3.81-22.8,10-28.39,29.65-23.21,7.39,2,11.24.54,16.25-4,9.64-8.84,17.26-20.19,30.14-25.17l2.36,2.25c-4.43,20.82-28.32,29.36-32,50.65-2.18,2.35-5.48,3.55-6.88,6.72-3.13,4.69-7.09,8.7-13,8.67-10.07-.06-19.48,1.63-27.33,11.62-1.45-9.88,9.36-13,3.06-19.94C5560.62,1988.41,5560.47,1985.72,5562,1982.51Z"/><path class="cls-32" d="M764.36,4428q-.51,2.8-1,5.62c-59.85-.46-119.71-1.14-179.57-1.34-69.26-.23-138.52,0-207.81-3.58l164.93-2.06q94.1.12,188.2.29C740.85,4426.91,752.6,4427.57,764.36,4428Z"/><path class="cls-33" d="M5562,1982.51c.75,2.52,1.49,5,2.25,7.54-30.74,3.74-61.43-.56-92.14-.64-73.39-.21-146.78-.07-220.17-2,54.37-5.14,108.83-3.26,163.25-4.08C5464.15,1982.65,5513.09,1982.77,5562,1982.51Z"/><path class="cls-34" d="M6465.33,4431.73c.85-3.17.2-7.08,4.27-8.66,6.62,6.44,15,3.65,22.52,3.7,95.45.67,190.9,1,286.35,1.56,7.53.05,15.24-1.48,22.62,3.7q-65,0-129.93,0Q6568.25,4431.93,6465.33,4431.73Z"/><path class="cls-35" d="M6403.48,1946.69c-8.65,3.35-16.64,2.77-21.27,15.11-5.12,13.69-30.58,15.67-38.2,5.39-3.3-4.45-.06-23.77,4.86-29,7.51-8,18-9.06,27.78-2.73,4.54,3,6.88,8.9,12.94,9.76C6394.2,1945.86,6398.85,1946.21,6403.48,1946.69Z"/><path class="cls-36" d="M5453.75,2068.64c-6.31,4.89-13.37,7.67-17.5,16.46-6.16,13.12-18.65,15.06-29.27,7.87-10.86-7.35-13.74-18.33-7.23-27.56,8.11-11.52,19.64-14.89,30.07-7,7.48,5.67,13.4,13.19,24.21,10.53Z"/><path class="cls-37" d="M5121.73,1720.21c103.05-5.18,206.11-4.92,309.17-.14C5327.85,1723.7,5224.79,1723.48,5121.73,1720.21Z"/><path class="cls-38" d="M6195.19,1983.17c1.42,2.43,2.84,4.87,4.27,7.3l-280.67-.56,1.2-6.93c9.13-8.08,20.45-7.32,31.38-7.35q106.2-.3,212.39,0C6174.79,1975.63,6185.94,1975.56,6195.19,1983.17Z"/><path class="cls-39" d="M6327.33,1983.46c70.73-.43,141.47-1,212.18,2.43q-105.92,5.31-211.93,2.7-2.41-1.59-1.72-3.34C6326.33,1984.06,6326.82,1983.46,6327.33,1983.46Z"/><path class="cls-40" d="M6356.57,3189.77c6-15.25,11.92-30.56,18.12-45.74,12.21-29.92,25.92-59,47.63-83.52a8.47,8.47,0,0,1,4.54,4.77c-25.77,33.24-43.47,70.68-57.55,110-2.87,8-6.54,15.75-10,23.57-.14.32-1.51.37-2.16.13s-1.16-1-1.73-1.56Z"/><path class="cls-41" d="M6318.68,3212.7c-3-.87-6.72-.87-8.81-2.74-31.61-28.3-61.64-58.2-89.34-90.53,36.09,25.91,64.38,60.35,97.45,89.55A7.84,7.84,0,0,1,6318.68,3212.7Z"/><path class="cls-42" d="M945.76,2443.63c-.22,1.56-.31,3.15-.67,4.68-6.74,28.32-6.65,28-34.19,20-16.58-4.78-32.32-12.49-49.73-14.38-2.64-8-13.87-1.92-16.48-10,10.73-3.37,19.94,2.59,29.55,5.21,18.8,5.13,37.33,11.22,56.11,17,8-9.93,5.13-23.67,14.28-31.89C947.25,2437.09,947.71,2440.21,945.76,2443.63Z"/><path class="cls-43" d="M5601.53,1989.7l4.66-6.57c22.8-10.88,138.45-10.72,160.3.22q.45,3.69.89,7.38Z"/><path class="cls-44" d="M6313.22,2144.81c16.46-3.72,34.86,4.53,49.91-8.08a2.55,2.55,0,0,1,2.27,0c25.54,15.07,53.89,3.83,80.51,8.68.71.13,1.32.82,5.57,3.6h-138.3c-1.54-.94-2.05-1.87-1.52-2.79S6312.69,2144.81,6313.22,2144.81Z"/><path class="cls-45" d="M6465.15,2144.84c17.15,0,34.3.19,51.45-.07,11.26-.16,23.62,4.58,32.42-7.8,2.06-2.89,7.52-2.48,10.49,1a9.37,9.37,0,0,1,2,6.31c-.46,4.41-4,8-7.87,7.21C6524.39,2145.29,6494.41,2153.38,6465.15,2144.84Z"/><path class="cls-46" d="M5430.44,2148.67H5329.32c18.84-6.38,38.1-3.21,57.13-4.34,9.11-.55,18.37,1.9,26.7-5.81,7.74-7.16,12.05,2.5,17.26,6.38,1.5.83,2,1.66,1.52,2.5S5431,2148.67,5430.44,2148.67Z"/><path class="cls-47" d="M5620.2,2148.8H5517.36c20-6.67,40.26-3.89,60.38-4.83,7-.32,15.63,2.92,20.57-1.93,9.54-9.36,15.21-1.69,22.1,2.59,1.48,1,1.94,1.95,1.39,2.86S5620.73,2148.8,5620.2,2148.8Z"/><path class="cls-48" d="M6327.33,1983.46c.09,1.71.17,3.42.25,5.13a6.13,6.13,0,0,1-3.49.7,10.14,10.14,0,0,1-5.78,1.32c-37.33-.76-74.68-2.92-111.92,1.93a11.68,11.68,0,0,1-1.85-9.26Z"/><path class="cls-49" d="M5308.64,2145c-11.88,6.55-24.24,4-36.36,4.58-13.18.59-26.49-3.2-39.57,1.64-5.13,1.9-9.35-.34-11.21-5.38a7.24,7.24,0,0,1,2.35-8.42c3.47-2.75,8.11-3.34,10.58-.14,8.92,11.62,21.09,7.6,32.42,7.7C5280.78,2145.1,5294.71,2145,5308.64,2145Z"/><path class="cls-16" d="M5676.22,1906.37c36.24-14.8,66-6.78,87.85,23.7l-2.87,2.42c-25.2-13.19-51-24.11-80.43-21.44A9,9,0,0,1,5676.22,1906.37Z"/><path class="cls-50" d="M5785.7,2144.81c3.55-2.87,6.88-9.4,11.22-7.16,21.79,11.23,44.88,3.41,67.19,5.8,5.33.57,11.07-1.11,18.17,5.32-33.64,1.82-64.81,1.15-96-.43-1.62-.53-2.24-1.23-1.88-2.1S5785.23,2144.81,5785.7,2144.81Z"/><path class="cls-51" d="M5975.49,2144.8c3.29-3.2,6.8-9.56,11.1-7.16,19.43,10.86,40.18,3.63,60.16,5.86,7.61.85,15.78-2.36,25.95,5.26a871.7,871.7,0,0,1-96.56-.51c-1.6-.49-2.23-1.17-1.89-2S5975,2144.8,5975.49,2144.8Z"/><path class="cls-52" d="M6165,2144.65c2.9-3.65,6.85-9.63,10.79-7.29,22,13.1,45.77,3.88,68.5,6.6,4.51.54,9.14.08,13.68,2.56-30.73,3.75-61.47,3.73-92.26,1.83-1.44-.58-2-1.32-1.76-2.23S6164.61,2144.65,6165,2144.65Z"/><path class="cls-53" d="M6224.27,3048.56c-8.68,1.49-6.69-6.75-9.62-10.51-3.23-30.52-7.31-61,.17-91.55a8.6,8.6,0,0,1,6.75-4.5Z"/><path class="cls-38" d="M5809.7,1990.53c.3-2.4.59-4.8.89-7.2l102.09,0q-1.36,3.87-2.71,7.72C5876.51,1998.84,5843.08,1999.45,5809.7,1990.53Z"/><path class="cls-50" d="M6165,2144.65a12.57,12.57,0,0,1,.71,3.69c-26.32,2.68-52.55,1-78.84-1.47A360.18,360.18,0,0,1,6165,2144.65Z"/><path class="cls-51" d="M5975.49,2144.8a11.52,11.52,0,0,1,.65,3.45c-26.42,3.1-52.75,1-79.13-1.5A357.66,357.66,0,0,1,5975.49,2144.8Z"/><path class="cls-51" d="M5785.7,2144.81a13.66,13.66,0,0,1,.59,3.53c-26.43,2.68-52.79,1.06-79.19-1.49A350.93,350.93,0,0,1,5785.7,2144.81Z"/><path class="cls-54" d="M5430.44,2148.67c0-1.25,0-2.51,0-3.77h69.69c0,1.26,0,2.52,0,3.77Z"/><path class="cls-55" d="M5620.2,2148.8c.05-1.39.12-2.78.2-4.17H5690l0,4.17Z"/><path class="cls-21" d="M830.3,3131.84c.39,22.54,2.18,45.16-3.92,67.33C826.76,3176.67,821.66,3153.85,830.3,3131.84Z"/><path class="cls-56" d="M6221.57,2942l-2,.51c-1.09-.72-2.18-1.45-3.29-2.16-5.16-18.78-10.65-37.53-5.47-57.31l2.8-2.78c11.43,17.62,7.82,37.88,10,57.11C6223,2938.91,6222.28,2940.46,6221.57,2942Z"/><path class="cls-24" d="M6327.71,3288.65c-2.74-16.3,8.48-28.65,12.14-43.13-1.34,15.11-3.79,29.89-12.52,42.83Z"/><path class="cls-16" d="M5638.07,1930.08c10.35-11.72,22.81-20,38.15-23.71l1.8,2.37c-8.37,14.91-19.65,25-38.18,23.32Q5639,1931.06,5638.07,1930.08Z"/><path class="cls-57" d="M759.25,2415.52c15.45,1.38,30.06,5.27,42.94,14.32C786.42,2429.44,772,2425.14,759.25,2415.52Z"/><path class="cls-58" d="M6313.22,2144.81c0,1.39,0,2.78,0,4.17-12.9,1-25.81,2.47-43-2.07C6287.37,2142.26,6300.3,2143.7,6313.22,2144.81Z"/><path class="cls-59" d="M1061.73,1671.7c-7.1-2.78-12.34-7.57-20.08-17.06,12.66,3.23,17.78,8.66,22.77,14.29A19.56,19.56,0,0,1,1061.73,1671.7Z"/><path class="cls-35" d="M6318.31,1990.61l5.78-1.32c-2.53,6.65-7.15,11.66-15.37,18.56C6310.49,1998.89,6314.83,1995,6318.31,1990.61Z"/><path class="cls-25" d="M6274.91,2035.3c1.75-5.91,7.3-6.22,11.89-9.45,0,9.22-5.57,9.77-11.28,10.13Z"/><path class="cls-60" d="M6475.35,4194.74c-.34-6.71-1-13.47,3.86-19.15C6479.8,4182.36,6481.21,4189.28,6475.35,4194.74Z"/><path class="cls-57" d="M730.77,2406c5.63-.77,10.92-.53,14.48,4.86C739.54,2411.88,734,2412.4,730.77,2406Z"/><path class="cls-57" d="M830.49,2439.25c5.66-1,11.3-1.94,14.3,4.86C839.22,2444.85,833.61,2445.73,830.49,2439.25Z"/><path class="cls-61" d="M6480.27,4170.88a18,18,0,0,1,3.4-14.56C6484.66,4161.67,6485,4166.87,6480.27,4170.88Z"/><path class="cls-57" d="M802,2429.77c5.65-.9,11.1-1.23,14.42,4.82C810.74,2435.59,805.11,2436.42,802,2429.77Z"/><path class="cls-36" d="M5454,2069c1.58-1.3,3-3.06,4.79-3.79s4.34-1,5.38,1.82a19.2,19.2,0,0,1-3.9,1.35c-2.16.28-4.36.21-6.55.29Z"/><path class="cls-57" d="M714.19,2401.09c6.3-.62,12.46-.77,16.86,5A17.44,17.44,0,0,1,714.19,2401.09Z"/><path class="cls-57" d="M816.24,2434.52c5.64-.89,11.2-1.57,14.42,4.8C825,2440.17,819.32,2441.3,816.24,2434.52Z"/><path class="cls-57" d="M745,2410.79c5.65-.85,10.91-.56,14.48,4.83C753.81,2416.57,748.12,2417.53,745,2410.79Z"/><path class="cls-36" d="M5380.21,2072.75l-4.19-1.69c1.48-.4,3-1.19,4.44-1.11s2.8,1,4.2,1.62Z"/><path class="cls-7" d="M5848.29,1575.14c-2.77-.25-4.22-2.14-5.4-4.36-6.16-7-7.34-15.62-7.34-24.4,0-172.16-1.27-344.32.57-516.47-1.94-61.65-.3-123.32-.87-185-.31-33.15-1.68-34.51-34.84-34.93-6.33-.08-12.66,0-19,0q-2043,0-4086,0c-59.45,0-54-3.93-54.48,53.3-.5,54.53,1.23,109.09-.87,163.59.89,205.33.2,410.68.39,616,.09,103.47-.09,206.93.08,310.4,0,30.64,1.42,32,32.13,32.06,65.57.18,131.15,0,196.73.07,8.68,0,17.4-.3,26.05.55,31.45,3.11,45,24.12,32.87,53.08-11.61,27.67-25.5,54.37-40,80.63-30.17,54.63-56.93,111-87.11,165.61-19.69,36-38.23,72.72-57.18,109.15-10.63,20.45-24.18,28.93-46.73,27.94-17.17-.76-34.73-2.72-51.74,2.45-8.14,13.09-4.48,27.57-4.49,41.31q-.39,424.88-.34,849.75c0,14.67,3.23,30.22-7,43.39-13.22-.14-11.32-11.1-12.63-18.81-1.86-10.9-.89-22.08-.89-33.14q0-417.35,0-834.69c0-8.7-.27-17.4-.13-26.08.25-15.43-5.83-23.29-22.41-23.11-16,.18-23.17,7-23,22.83.11,9.48-.18,19-.18,28.45q0,621.29-.15,1242.56c0,15.48,3.41,31.91-7.82,45.62q-.24,12.23-.47,24.44c-7.29-11.57-4.74-24.53-4.75-36.94q-.26-250.11-.1-500.21V2453.68c0-4.74,0-9.48,0-14.22-.33-27,3.73-25.89-25.28-25.48-35.51.5-71.08-2.14-106.54,1.63-53.79-1.76-107.59-1.11-161.39-.35-8.92,6.08-19,6.78-29.4,6.76-20.47,0-41.12-1.72-61.38.36-38.38,3.93-64.45-13.32-85.55-43.15-10-14.19-8.61-24,5.85-33.13,10.15-6.41,23.15-9.72,29.57-25.6-18-1-32.34,6-47.26,8.78-8.84,1.67-17.83,8-26.65-.16-1.46-1.82-2.86-3.68-4.38-5.45-4.58-5.34-10-10.35-5.88-18.47,3.79-7.49,10.5-8.51,17.87-8.28,27.28.87,54.62-.72,81.84,2.53,11.76,1.4,23.91,2.8,29.51-11.73,5.17-11.31,1-26.64,14.66-34.32,32.84-77.76,66-155.38,98.3-233.37,8-19.41,20.18-27.85,41.45-27.67,84.53.7,169.06.38,253.59.1,8.27,0,17.46,3.28,24.78-3.84,22.61,6.27,23.13,6,23.14-18.8q.09-249.09,0-498.16V831.17c0-6.32.27-12.66,0-19-.46-10.94,4.35-16.16,15.49-15.56,5.52.3,11.07,0,16.6,0q2077.55,0,4155.07,0c35.3,0,33-3.13,33,33.61Z"/><path class="cls-62" d="M1584.81,4345.91c-10.89,1.68-16.43,12.4-28.54,18,2.6-16.35,12.56-20.33,23.87-22.88Z"/><path class="cls-4" d="M1578.17,4264.93c-2.13.8-4.4,1.33-4.7-1.79-.08-.88,1.64-2.58,2.76-2.81,3.41-.71,3.18,1.72,2.82,4,0,0,0,.92,0,.92Z"/><path class="cls-3" d="M1566.48,3763q-.12-159-.23-317.92,0-499.43,0-998.85c0-33.33-2.52-31.15,30.45-31.12,34.79,0,31.28-2.47,31.29,32.51q.08,442.48.26,885c0,8.69-4.67,19.18,5.56,26,7.06-6.38,15.9-6.41,24.58-6.74,11.85-.45,23.72-.22,35.58-.22q1945.29,0,3890.57.23c72.72,0,145.44-.88,218.17-.4,30,.19,31.84-2.32,32.53-32.52.3-12.61-.88-25.32,2.44-37.72,8.88-16.88,22.74-24.41,41.83-22,9.86.38,17.09,3.43,16,15.34-.29,3.13,0,6.32,0,9.48q0,223,0,446c0,11.05,1.24,21.48-13.1,26.58-7.17,2.55-9.86,12.11-10.54,20.19-2.59,31-25.23,49.2-44.51,69.35-3.5,3.66-9.69,5.46-15,6.55-13.28,2.77-27,3.84-27.39,22.62-.13,5.62-6.38,6.19-11.22,6.19q-67.65.11-135.28.08c-5.73,0-11.36-.52-13.37-7.19-3.62-12-13.21-11.77-23-11.76-67.24.05-134.74-3.74-201.66.92-98.78,6.87-197.45,1.22-296.12,3.83-11.68.31-24-2.13-31.81,10.52-2.18,3.54-6.81,3.81-10.79,3.6-20.42-1.08-41,2.74-61.33-2.87-7.44-2-15.66-1.68-23.52-1.68-200.93-.08-401.87-.91-602.79.76-34.45.28-69.16,3.81-103.83,3.89-8.6,0-17.49,1.34-24.9-5.08-3.13-2.71-7.3-4.3-10.79-1.37-11.75,9.88-25.67,6.35-38.76,6.35q-440.24.26-880.47.13c-5.54,0-11.08-.16-16.61,0-9,.31-16.68-.09-20.46-11.13-3.44-10-12.6-12.91-23.14-12.76-10.25.13-16.09,4.22-18.8,14.19-2.26,8.36-9.48,10-17,9.58-24.34-1.34-48.94,3.51-73.09-3.71-5.86-1.75-12.56-.92-18.87-.92q-307.34-.06-614.67.26c-27.46.07-54.77,6.51-82.47,4.46-6.16-.46-13.59,1.75-17.62-4.33-7.57-11.42-18.73-9.92-29.73-9.92H2157.47c-10.25,0-20.36.2-30.33-3.73-11.68-4.61-23.79-9.78-35.39,1.28-1.79,1.7-6.17,1.84-9,1.14-29.69-7.38-59.82-1.81-89.7-3.38-23.55-1.24-47.17,1.85-70.68-4.24-17.17-4.45-34.1,4.73-51.45,5.08-2,0-5.38,1.75-5.88,3.38-5.94,19.16-21.68,14.58-35.22,14.64-44.3.18-88.6,0-132.9.09-10.38,0-21,1.59-22.32-13.87-.63-7.22-7.76-9-14.08-10.75-18.25-4.95-27.2-23.46-44.07-30.49-.91-14.88-13-19.24-23.13-26.41-6.15-4.38-8-13.24-8-21.55C1585.35,3765.9,1577.44,3762.49,1566.48,3763Z"/><path class="cls-2" d="M5976.94,4428.77c-6.29-.38-12.58-1.09-18.87-1.09q-717.43-.29-1434.85-.42c-4.73,0-9.46.4-14.2.61-91.52-58.52-167.26-132.25-218.86-228.78q-73.82-138.06-41.78-291.68c4.12-19.63,4.12-19.82,24.48-19.83q191.05-.06,382.09,0,471.06-.43,942.13-1.08,85.42-.12,170.84-.72c77-.51,132.07-54.85,132.2-131.23q.45-246.74.09-493.46c0-4.73-.43-9.47-.66-14.2,1.84-17.74,18.9-19.55,29.46-28.17a20.78,20.78,0,0,1,9.78-2c33.76-22.35,60.39-52.25,88.88-81.75-5,24-10.92,47.93-15,72.14-15.34,92-11.5,182,29.7,267.85,15.83,33,36.27,62.64,62.84,88,12.48,11.91,25.85,18,42.43,8.27,6.14,19,4.81,39,6.71,58.41,5.16,52.54,7.72,105.33,11.43,158,1.32,18.87,2.68,37.74,4.56,56.55,1.11,11.12-2.68,16.1-14.33,15.34-10.22-.67-20.52-.12-30.78-.12-63.94,0-127.88-.12-191.82.17-7.48,0-15.84-3.17-22.44,3.48-3.51,27.22-.54,54.57-1.72,81.82-.48,11.13,5.47,12.61,14.52,12.58,18.75-.05,37.5.62,56.25,1q20.85,103.65,41.67,207.32c1.23,6.12,1.78,12.38,2.64,18.57,2.87,4.66,0,10.67,3.6,15.16q14.45,69.81,28.85,139.61c.94,4.54,1,9.36,4.37,13.07-5.21,8.59-13.79,5.81-21.23,5.92-20.84.3-41.68.1-67.58.1l48.38,67.33C6004.49,4430.13,5990.39,4425.92,5976.94,4428.77Z"/><path class="cls-4" d="M5933.55,3221.28c-10.61,9.5-24.39,14.78-34,25.61-7.22,3.19-14.62,6.1-20,12.24l-35.87,17.06c-13.18,14.59-31.25,20.25-49,26.42-6.81,2.38-14,3.76-17.71-5.34-4.35-42.83-1.59-85.73-1.59-128.59-.59-39.2,23-62.17,52.84-82.63,23.3-16,45.27-34,70.29-47.43,16.72-9,26.91-4.36,27.31,14.08,1.14,52.6,7.05,104.85,9.94,157.31C5936,3213.9,5936.15,3217.89,5933.55,3221.28Z"/><path class="cls-2" d="M1181.61,2077.06c-4.73-72.25-9.39-144.5-16.46-216.59-4.38-44.66-6.73-89.53-11.38-134.17-2.85-27.31-2.83-55-9.47-81.91-.69-2.76-.1-5.84-.1-12.61,20.63,24.71,22.18,51.27,24.06,80.94,20.91-11.1,37.21-24,50.31-41.32-15.29,5.9-25.64,19.45-43.86,27.24-.1-30.42-10-56.94-26.62-81,.28-9.31,7.54-13.2,13.9-17.67,17.34-12.16,34.48-24.66,52.28-36.12,11-7.06,17.13-15.36,15-28.9-3.53-22.77,4.13-36,27.72-45.13,30.77-11.87,50.48-36.51,53.94-71.25,2.5-29.94,2.9-59.87-.28-89.79q-.32-26.14-.65-52.31l218.08,0c5.53,0,11.06.1,16.59.13,7.51,0,11.93,3.3,12,11.29,0,3.94.18,7.89.18,11.84q0,269,0,537.9c0,7.6,2.5,16-4.33,22.39-7.7-13-11.83-27.48-16.72-41.59-20.55-59.31-60-104.83-105.43-146.17-6.68-6.09-14.8-8.71-23-11.5-27.6-9.38-55-19.48-82.82-28a69.82,69.82,0,0,1-36.15-24.81c-11.67-14.89-24.29-29.06-36.95-43.14-3.74-4.14-6.62-13.23-14.38-8.26-6.67,4.28-1.91,11.46-.44,17.3,4.06,16,7.85,32.17,12.64,48,3.29,10.92,3.41,21.66,1.71,32.65q-31.93,205.53-63.94,411C1186.32,2069.84,1188.1,2075.46,1181.61,2077.06Z"/><path class="cls-8" d="M1053.12,2329.12c19.82-5.08,39.62-10.22,59.46-15.2,5.33-1.34,10.75-2.81,16.19-3.12,9.11-.51,12.43,4.95,8.77,13.58-3.26,7.68-9.55,12.41-16.57,16.26-11,6-22.09,11.92-34.7,18.71,11.17,19.17,26.06,34,41,48.36,6.92,6.65,17.6,6,27.14,6,30,0,60-.09,90,.1,7.84.05,15.67,1,23.51,1.47-6.38,14.51-19.75,19.19-33.37,22.7q-31.46,8.1-62,19.08-1.9,5.09-5.77,1.28c-19.14,5.88-38.23,4.69-57.92,2-36.36-5-72.93-8.63-109.52-11.48-17.93-1.39-35.44-6.84-53.63-5.22-.37-3.14-.75-6.27-1.13-9.41l-.09.3c5.89-5.16-1.68-15.22,7.06-19.34,3.39-16.64,11.8-32.06,12-49.48,4.6-6.82-1.07-18.58,10.59-22C1000.74,2340.21,1028.06,2340.76,1053.12,2329.12Z"/><path class="cls-63" d="M869.43,2182.89q6.18,46.82,12.34,93.62c-27.49-5.91-47.24-25.67-70.26-39.54-6.39-3.85-4.85-10-3.31-16.7,6.27-27.14,14.89-53.58,22.76-80.25l-.16.34c3.85-11,5.55-22.64,9.63-33.59l-.17.37c2.76-8.56,4.38-17.5,7.91-25.79,1.82-4.29,5.24-4.88,8.76-1.25C869.8,2113.31,868.43,2148.24,869.43,2182.89Z"/><path class="cls-64" d="M1115.43,2021.56c-20.84-13.8-33.13-35.64-49.36-53.67-32.07-35.64-62-73.24-92.78-110-2-2.41-4.38-4.56-6.34-7-16.32-20.52-17.73-21.5-2.7-43.79,17.46-25.92,22.41-48.88-5.2-70.51,21,.48,32.27,16.23,44,29.75,6,6.91-2.09,14-6.38,20.69-22.92,35.45-24.42,23.79,0,58.17,39.59,55.64,78.71,111.61,119,166.76l-.11-.16C1118.12,2015.08,1118.46,2018.35,1115.43,2021.56Z"/><path class="cls-65" d="M869.43,2182.89c-6.86-34.27-11.2-68.91-15.56-103.56-6.28-5.43.93-13.53-3.81-19.27l24.23-83.54c5.4,5.6,3.9,10.18,4.08,14.07,2.66,60.6-6,120.9-5.11,181.46A15.35,15.35,0,0,1,869.43,2182.89Z"/><path class="cls-66" d="M1115.72,2011.93c-15.63-8.24-21.2-24.88-30.84-37.93-34.16-46.21-67.49-93-100.85-139.83-12.29-17.25-11.94-17.51-.43-34.68,3.07-4.57,6.11-9.17,9.31-13.65,11.07-15.52,11.55-18.09-2.76-28.52-10-7.3-18.2-17.7-31.1-20.76-6.26-5.58-12.58-11.11-18.78-16.76-7.47-6.81-8.61-13.86-.47-21.07l.13.1c-.28,8.32,2.26,14.47,9.8,19.67,18.77,12.92,36.41,27.47,55.2,40.36,8.81,6.05,9.49,11.34,3,18.88a34.06,34.06,0,0,0-3.94,5.85c-6.41,11.56-21.14,21.18-19.09,33.85,1.93,12,13.19,22.61,20.85,33.49,33,46.93,66.39,93.63,99.25,140.68C1109.3,1997.8,1116.24,2003,1115.72,2011.93Z"/><path class="cls-67" d="M831,2140c-1.92,24.53-11.49,47.15-17.7,70.61-5.39,20.32-5.69,20.42,12.08,31.49,18.71,11.63,37.62,22.94,56.44,34.39q38.94,25.34,77.87,50.69c6.35,4.14,14.39,6.86,14.51,16.49-6.83,5.74-4,16.13-10.58,22,3.32-19.47-4.72-31.28-22-41.38-40.67-23.81-79.93-50-119.87-75.09-21.65-13.58-22.79-13.75-14.59-38.92C814.81,2186.81,816.72,2161.29,831,2140Z"/><path class="cls-68" d="M1306.38,1796.21c7.51,6.8,4.36,14.75,1.4,21.83-29.69,71.16-58.31,142.79-92.21,212.12-.61,1.24-2.18,2-3.33,3,1.41-17,64.26-172.19,92.5-228.4Q1302.06,1799.83,1306.38,1796.21Z"/><path class="cls-69" d="M1441.83,1930.25c-6.91-33.25-7.46-67.13-11.15-100.7-3.7-33.74,0-67.76-4-101.49C1437.79,1795,1441.41,1862.46,1441.83,1930.25Z"/><path class="cls-70" d="M891.63,1876.16c-3.57-59-27-108.65-69.46-151.39C858.72,1737,900.64,1817.63,891.63,1876.16Z"/><path class="cls-71" d="M1186.74,2253.4l-14.66,34.32c-.53-31.6,3.1-63,4-94.56.91-30.48.19-61,.19-91.53l6,0c0,43.33-.15,86.66.14,130C1182.47,2239,1178.4,2247.56,1186.74,2253.4Z"/><path class="cls-72" d="M1286.05,1734.37c4.88-6.12,9-13.17,14.79-18.17,14.71-12.62,24.6-26.17,13.91-46.8,17.42,21.63,17.42,24.33.89,41.6-9.72,10.16-19.53,20.25-29.3,30.36A5.56,5.56,0,0,1,1286.05,1734.37Z"/><path class="cls-73" d="M1286.05,1734.37c.1,2.33.19,4.66.29,7-11.11,15.84-11,15.77-.2,29.36,6.75,8.5,15.72,15.24,20.23,25.5-.54,2.84-1.08,5.7-1.63,8.56-9.76-12.1-19.68-24.08-29.25-36.33-10.53-13.48-10.44-13.62,1.86-26.33C1280.05,1739.34,1283.14,1736.94,1286.05,1734.37Z"/><path class="cls-66" d="M1115.43,2021.56l.18-9.79c15.59,12.73,25.93,29.09,33.11,47.65h0C1133.53,2050.4,1127.86,2033,1115.43,2021.56Z"/><path class="cls-67" d="M850.06,2060.06c7.08,5.28,3.52,12.66,3.81,19.28-8.91,7.13-5.56,20.25-13.61,27.8C838.71,2090.44,847,2075.79,850.06,2060.06Z"/><path class="cls-67" d="M840.43,2106.77a57,57,0,0,1-9.63,33.59C829,2127.74,833,2116.76,840.43,2106.77Z"/><path class="cls-66" d="M1148.72,2059.42c7.28,2.29,9.5,8.84,14.52,15.84-10.15-2.67-13.69-8.11-14.51-15.84Z"/><path class="cls-68" d="M1197.71,2066.93c-1.18-9.19,2.41-13.29,4.81-18.07C1202.91,2057,1202.91,2057,1197.71,2066.93Z"/><path class="cls-66" d="M954.23,1660.87a30.76,30.76,0,0,1,9.58-23.53l-.24-.21c-.32,9-2.85,17.13-9.69,23.46Z"/><path class="cls-66" d="M939.8,1698.73c-.4-9.34,2.49-17.32,9.76-23.47l-.34-.27c.73,9.44-2.54,17.32-9.29,23.84Z"/><path class="cls-42" d="M951.6,2415.18c-3.19,6.14-1,14.25-7.06,19.34C945.44,2427.55,941.44,2418.79,951.6,2415.18Z"/><path class="cls-66" d="M963.81,1637.34a33.28,33.28,0,0,1,.28-4.59c.35-1.8-.48-5.29,1.95-4.81s1.39,3.75.43,5.71a18.94,18.94,0,0,1-2.91,3.48Z"/><path class="cls-66" d="M953.88,1660.59c0,5.29,1.33,11-4.66,14.4l.34.27c0-5.3-1.45-11.07,4.67-14.39Z"/><path class="cls-1" d="M1561.36,858.9c-6.8,6.41-4.32,14.79-4.37,22.41-.21,40.3.1,80.6-.21,120.9-.13,16.82-1,17.49-17.36,17.86-17.38.4-34.8-.42-52.17.29-10.41.42-16-4.25-20-13.06-4.91-10.78-10.75-21.13-15.69-31.89-15.66-34.13-38.28-62.95-64.45-89.75-49.87-51.07-110.49-52.65-168.06-18.39-26.37,15.69-52.23,32.17-80.62,44.25-55.41,23.56-90,1.46-117.65-39-16.59-24.21-24.53-52.6-30.17-81.55-2-10.27.93-13,10.06-12.79,5.53.11,11.06,0,16.6,0q277.45,0,554.93.18c9.1,0,19.1-3.39,27.2,4.13C1579.37,804.29,1567,829.94,1561.36,858.9Z"/><path class="cls-3" d="M1299.89,1162.9c-46.21,10-90.47,6.88-132.9-16.41-18.57-10.2-38.91-17.25-60.65-18.53-32.55-1.92-45,8.62-47.07,40.6-1.44,22.6-4.88,44.1-25.69,58.07-5.58,3.75-4.44,9.78-4.22,15.14a85.66,85.66,0,0,1-5,32.54c-3.32,9.33-8.69,16.82-20.15,17-11.09.18-14.48-7.73-17.62-16.09q-2.49-6.63-5-13.26a45.84,45.84,0,0,1-2.68-13.29c-2-28.13,0-56.62-9.57-84.13-4.35-12.51-3.74-26.43-1.56-39.85,4.59-28.12,21.71-45.22,50.15-47.39,8.46-.64,12.55-3.47,16.08-10.37,27.28-53.35,92.24-72,146.35-44.24,7.69,4,15.59,7.57,23.64,10.76,16.1,6.37,32.13,7.35,47.8-1.74a65.74,65.74,0,0,1,10.71-4.94c16.67-5.94,26.64-2.74,35.54,12.92,3.27,5.77,4.77,9.28,13.12,9.63,23.08,1,33.93,18.86,25.4,41.35-3.9,10.29-7.94,18.86-4.07,30.79,3.69,11.37-4.08,21.2-13.09,28.38C1313.32,1154.7,1306.42,1158.58,1299.89,1162.9Z"/><path class="cls-74" d="M1166.83,2458.32l5.77-1.27c1.59,36.79.48,73.41-7.47,114.2C1159.2,2530.48,1166.58,2494.44,1166.83,2458.32Z"/><path class="cls-1" d="M5780.55,3301.74q31.54-12.78,63.09-25.56c.15,22.93,0,45.85.57,68.77.25,10-3,14.87-13.52,13.75-3.91-.42-7.9-.06-11.85-.06H1643.31c-3.17,0-6.33-.06-9.5-.1-.37-8.66-1.07-17.32-1.07-26q-.09-446.21,0-892.41c0-5.53.07-11,.07-16.57,0-11.41,7.19-9.93,14.56-8.12,8,8.93,18.69,11.31,29.86,11.68,22,.74,44,0,66,.34,13.66.21,20.35-5.64,20.75-19.4a81,81,0,0,1,8.47-34.11c13.64-27.15,21-55.69,20.71-86.13q39.39-76.95,78.8-153.9c15.53-30.22,31.31-60.3,47-90.47,2.54-4.9,5.66-9.66,7.23-14.87,5.38-17.9-4.91-33.64-23.6-36-7-.89-14.22-.46-21.33-.47q-115.1,0-230.18-.07c-17.89,0-18.19-.33-18.25-18.29-.16-50.61-.06-101.21-.06-151.82q0-379.53.06-759.07c0-11,.82-22.09,1.26-33.13,16.78-12.38,35.29-6.61,53.42-5.17,9.19,2.8,18.62,3.23,28.15,3.13,341.4-3.34,682.73,6,1024.14,5.13,564.45-1.47,1128.9-.35,1693.35-.45,256.12.17,512.31,3.87,768.32-1.23,187.27-3.74,374.45-.84,561.65-3.42,8.74-.12,17.35-.59,25.75-3.17,18.08-1.41,36.64-7.23,53.39,5.18.44,7.06,1.26,14.12,1.26,21.19q.11,254,0,508.09c0,3.92-.37,7.85-.57,11.79-80.56.23-161.1.66-241.65.64q-174.15,0-348.3-.58c-10.26,0-20.52-.39-30.78-.6-10.28-9.18-8.27-21.67-8.37-33.24-.4-46.64-.15-93.28-.16-139.91,0-67.09-3-70.08-71.43-70.08q-325,0-650,0c-34,0-68-.56-102,.24-34.45.8-43.44,9.87-43.69,44.28-.45,62.44-.22,124.89-.1,187.33.08,43.33,7.66,51.24,51.26,51.31,181.86.27,363.73,0,545.59.28,13.83,0,28.79-3.33,40.59,8q0,367.21.07,734.45c0,36-4.6,33.58,32.45,33.55q399.33-.32,798.66-.66c9.46,0,18.93.49,28.39.76q.31,118.11.64,236.24c0,10.23.44,20.45.68,30.67.46,8.92-6.19,13.75-11.3,19.37-20.5,22.54-20.54,22.51-4,47.14,9.73,15.06,21.57,29.21,20.56,48.81,2.27,58.35.69,116.68,1,175,0,9.5-.41,19-6.7,27-31.12,14.62-64.24,25.23-92.35,45.9a15.86,15.86,0,0,1-3,6.44c-36.57,27.38-73.93,53.6-99.67,93-39.95,61.08-57.2,125.84-35.21,197.55,9,29.34,15.61,31.71,44.92,24.38,39.14-9.79,75.39-28.11,114.6-37.56A11.31,11.31,0,0,1,5780.55,3301.74Z"/><path class="cls-2" d="M6219.6,2942.51c-.57,24.23-1,48.46-1.76,72.69-.23,7.69,1.53,15.73-3.19,22.83-20.8-40-57.85-52.89-99.17-35-16.82,7.28-29.83,19.66-46.45,34.53-1.16-18-2.24-32.7-10.35-45.56a48.47,48.47,0,0,0-18.08-17.44c-37.34-21.13-77.33-24.95-118.89-20.8l-21.11,2.11c-8.35-7.83-7.82-18.3-7.7-28.27.31-25.58-2-51.23,1.66-76.68,6.24-16.87,13.07-7.47,19.45-.16,20.22,23.18,20.12,23.21,34.64-4.13,8.05-15.18,15.47-30.77,27-43.83,20.77-4.24,33.18,12.86,49.73,19.41a54.07,54.07,0,0,1,5.95,3.44c49.09,30.9,99.8,59.09,149.55,88.89,13.34,8,28.3,13.77,37.76,27.16Z"/><path class="cls-2" d="M6218.91,3644.08q.15,91,.32,182c0,6.3-.07,12.62.29,18.9.56,9.62-2.81,15.09-13.37,14.4-8.6-.57-17.34,1.17-25.82-1.6-4.73-5.54-.32-12.91-3.76-18.71-5-74.8-9.94-149.62-15.21-224.4-1.16-16.51-3.61-32.92-5.47-49.37l61.3-67.21c7.58,14.73,3.09,30.49,3.09,45.64C6220.26,3577.17,6222.81,3610.68,6218.91,3644.08Z"/><path class="cls-75" d="M5901.24,2843.84q-.32,56-.64,112c-18.28,6.81-37.18,11.26-56.31,14.89q.27-105.37.56-210.76c9,.44,14.32,6.71,17.94,13.51C5875.37,2797.09,5899.48,2814.4,5901.24,2843.84Z"/><path class="cls-76" d="M5747.3,3018.23l4.63-1.56c18.92.27,37.83.77,56.75.77,32.32,0,64.59.62,96.66,5.09,12.24,1.7,23.1-1.39,34.09-6.76,21-10.26,42.34-20,68.12-27.75-7.59,11.42-17.62,10.94-25.08,15-10.36,5.6-21.58,9.57-32.21,14.71-23.15,11.21-23.13,11.34-21.58,36.46q5,81.28,10.11,162.56c-1.06,2.3-1.85,4.93-5.24,4.56-2.61-32.15-4.71-64.35-8-96.43-2-19.7-1.59-39.39-2.26-59.09-.32-9.4.76-19.06-6.5-28-15.92,4.24-28.88,14.74-42.51,23.56-24.51,15.86-47.2,34.28-70.09,52.4-12.39,9.82-21.75,20.23-19.1,37.69.65,4.25-2.16,9-3.38,13.56a4.63,4.63,0,0,1-5.93.47c-5.8-11.58-11.26-6.53-17.32,0-27.33,29.57-52.77,60.61-74.47,94.63-4.64,7.28-9,14.88-15.73,20.58-2.45,2.07-5.5,4-8.5,2.68-4.41-1.88-4.18-6.2-3.33-10.16,1.54-7.1,5.85-12.84,9.6-18.85,29.75-47.81,65.95-90.31,106.3-129.45a62.55,62.55,0,0,1,4.86-5c37.3-34.27,77-65,118.18-86.82-36.34,5.23-78.07-3.49-120.21-4.23C5765.23,3028.68,5752.16,3033.15,5747.3,3018.23Z"/><path class="cls-77" d="M6148,3280.71c.14,25.39-7.58,49.67-11,74.57-8.48,61.7-14.37,123.46-14,185.76,0,5.45,0,10.9,0,17.33-6-4.34-3.93-9.48-4.1-13.78-2.55-67.84,2.59-135.1,11.43-202.44,3-23,10.83-44.75,12.75-67.72C6148,3274,6149.85,3275.88,6148,3280.71Z"/><path class="cls-78" d="M6148,3280.71l-4.89-6.28c10.87-52.25,25.67-103.39,43-153.83,2.29-6.68,9.57-15.41-5.31-16.89l-.76-.83c4.94-9.14,17.45-9.51,22.21-19.58.65,8,1,15.1-2.3,22.42-19.55,43.6-29.21,90.25-41.44,136.11-1.35,5,1,9.13,2.76,13.44l.28-.24C6149.09,3259.43,6155,3273.46,6148,3280.71Z"/><path class="cls-78" d="M6171.82,3268.57c10.27,6.55,15.83,17.18,22.92,26.48,22.88,30,43.11,61.79,63.34,93.57,2.74,4.31,7.11,8.39,5.38,15.68-6.35-2.92-8.4-9.05-11.64-13.65q-39.27-55.86-78-112.1c-1.72-2.49-2.45-5.67-3.65-8.53Z"/><path class="cls-79" d="M6046.42,3187.67a911.17,911.17,0,0,1,118.69-75.88c.62.68,1.23,1.36,1.85,2-37.4,28.64-77.15,53.61-118.48,76.12Z"/><path class="cls-80" d="M6218.91,3644.08q-.39-60.06-.81-120.12c-.07-8.63-.59-17.25-.91-25.87,1.17-2.48,2.4-4.88,5.45-5.48,0,43.8.16,87.61,0,131.42C6222.67,3630.85,6224.7,3638.26,6218.91,3644.08Z"/><path class="cls-81" d="M6117.88,3335.16a535.05,535.05,0,0,1-71.22,62.19q-1.66-1.89-3.34-3.77l70.89-62.81Z"/><path class="cls-79" d="M6048.48,3189.94c-3.47,3.63-6.31,8.45-13.88,6.47,2.63-5.41,6.79-7.59,11.83-8.74C6047.1,3188.43,6047.78,3189.19,6048.48,3189.94Z"/><path class="cls-78" d="M6170.17,3270c-5.66-3.39-9-8.12-8.66-15l-.29.24c5.81,2.63,9.45,7,10.58,13.31Z"/><path class="cls-79" d="M6165.11,3111.79c3.75-5,8.43-8.45,14.9-8.9,0,0,.73.81.74.81-2.85,5.75-7.69,8.81-13.8,10.12C6166.35,3113.14,6165.73,3112.46,6165.11,3111.79Z"/><path class="cls-82" d="M5982.22,3956.63c5.72-6.32,13.29-3.71,20.05-3.71q249.33-.23,498.66,0c6.76,0,14.34-2.57,20,3.82-25.2.24-50.4.68-75.59.69q-219.78.11-439.54,0C5997.94,3957.42,5990.08,3956.91,5982.22,3956.63Z"/><path class="cls-83" d="M6468.79,4125.87q-219.73,7.43-440,.13C6175.38,4122.76,6322,4123.28,6468.79,4125.87Z"/><path class="cls-61" d="M6038.42,4149.73q215.44-5.25,430.9,0Q6253.88,4155.74,6038.42,4149.73Z"/><path class="cls-60" d="M6043.65,4178.2q211-5.49,421.19,0Q6254,4183.39,6043.65,4178.2Z"/><path class="cls-60" d="M6028,4199.49c-5.07-4.13-4.85-9.52-3.6-15.16C6028.57,4188.68,6028.73,4194,6028,4199.49Z"/><path class="cls-84" d="M1124.31,1474c28.81,12.13,56.72,24.58,88.11,25.48,9.09.26,12.65,4.43,12.15,13.32-.47,8.47-5.7,10.67-12.74,10.28C1174.63,1521,1143.25,1508.2,1124.31,1474Z"/><path class="cls-85" d="M1208.92,1346.47c2.1-1.9,2.61-2.74,3.28-2.91,18.27-4.69,18.34-4.7,12.77-20.28q-10.7-29.94-21.63-59.8c-1.33-3.67-3.18-7.2.18-15.25,6.67,16.14,12.35,29.58,17.8,43.11,4.4,10.92,9,21.81,12.65,33,6.11,18.55,3.39,22.21-16,23.17C1215.7,1347.62,1213.39,1347,1208.92,1346.47Z"/><path class="cls-86" d="M1160.34,1203.5l-55.27,6.1C1115.27,1188.71,1138.13,1185.4,1160.34,1203.5Z"/><path class="cls-87" d="M1257.63,1213.74a26.73,26.73,0,0,1-5.12,0c-5.52-1.18-15.31,3.79-15.72-4.19-.47-9.4,9.86-9.8,17.43-10.29a35.16,35.16,0,0,1,11.45,1.22c5.14,1.43,11.46,3.51,10.1,10.19-1.21,6-7.48,3.23-11.68,3.54A43.71,43.71,0,0,1,1257.63,1213.74Z"/><path class="cls-88" d="M1269.67,1280.84c-7.5-1.51-12.28-5.23-11.31-12.89.94-7.43,6.06-10.8,13.4-10,6.46.7,10,5.14,9.88,11.21C1281.46,1276.59,1276.21,1279.89,1269.67,1280.84Z"/><path class="cls-89" d="M1134.18,1268.56c1.39-7.06,5.35-11.31,13-10.73,6.33.48,10.38,4.32,10.58,10.56.25,7.5-4.62,11.94-11.67,12.1C1138.83,1280.65,1134.59,1276.16,1134.18,1268.56Z"/><path class="cls-6" d="M1310.68,1328.79c3.87,3.54,4.5,8.24,4.12,13-2.09,25.56,4.85,51.58-3.85,76.8Q1310.83,1373.68,1310.68,1328.79Z"/><path class="cls-90" d="M1166.08,1358.65c8.06,15.61,20.27,25.35,42.32,30C1176.61,1392.33,1167,1384.72,1166.08,1358.65Z"/><path class="cls-91" d="M1155.09,1250.55c-14.24-3.33-28-4.15-41.87.84C1128.42,1233.9,1137.66,1233.73,1155.09,1250.55Z"/><path class="cls-92" d="M1279.52,1246.71c-13.48.19-26.08-4.08-38.8,1.65C1253.69,1233.09,1262.29,1232.82,1279.52,1246.71Z"/><path class="cls-79" d="M6541.74,3549.15c28.3,26.86,52.29,57.17,69.39,92.23,19.67,40.31,36.37,82,56,122.51-38-51-51.44-116-94.82-168.4-19.76,46.52-28,93.48-42.91,140.49-3.26-6.33-2.47-11.18-1.42-15.95,8.82-40.06,18.74-79.88,35-117.62,4.66-10.82,2.68-17.29-4.72-24.95-8.19-8.47-15.3-18-22.88-27.06Q6538,3546.77,6541.74,3549.15Z"/><path class="cls-93" d="M6397.91,3621.8c4.2-48.12,17.05-94.3,32.07-139.9,6.37-19.34,15.85-38.19-2.26-57.36,10.24,5.34,14.7,14.79,20.34,22.93,5.8,8.36,15.06,14.16,18.1,24.52.73,2.59-.16,3.41-2.68,2.48-7.12-3.11-9-13.09-20.46-14.17-8.25,30.57-16.23,61.45-25,92.12-6.61,23.22-8.53,47.81-20,69.63Z"/><path class="cls-93" d="M6606.59,3429.08c-55.23,2.63-109.87-7.81-164.78-15.44C6497.14,3411.55,6551.47,3421.34,6606.59,3429.08Z"/><path class="cls-94" d="M6541.74,3549.15l-6.37,1.25s.49-.51.49-.51c-2.09-3.3-2.47-6.52.42-9.6,51.59-.32,100.11,14,151.71,30.32-14.15,5.63-23.49-1-33-2.89-33-6.53-65.76-14.61-98.65-21.84C6551.26,3544.77,6545.35,3542.57,6541.74,3549.15Z"/><path class="cls-79" d="M6536.28,3540.29l-.42,9.6c-26.47-22.89-51.66-47-72.37-75.42a7.89,7.89,0,0,0,2.67-2.47C6490.61,3493.66,6510.55,3519.94,6536.28,3540.29Z"/><path class="cls-95" d="M799.56,4361.09c13.1-.95,26.5-3.68,41.56,8.83l-42.48-5.27A4.12,4.12,0,0,1,799.56,4361.09Z"/><path class="cls-96" d="M6763.81,3113.3c-6.88.3-11.9-4-17-7.44q-72.59-48.95-144.95-98.24c-2.26-1.54-4.1-3.71-6.73-6.14,8-2.86,11.92,2.18,16.08,5q73.77,49.3,147.18,99.16c2.47,1.68,4.09,4.61,6.11,7Z"/><path class="cls-62" d="M6464.74,3079l94,67.45-3,4.17c-33-20.49-65.53-41.66-94.94-67.31Q6462.8,3081.2,6464.74,3079Z"/><path class="cls-96" d="M6426.86,3065.28l-4.54-4.77c9.5-12.56,20-24.08,33.55-32.47l4.48,4.14Z"/><path class="cls-96" d="M6764.48,3112.55A83.5,83.5,0,0,1,6773,3116c1.2.64,2.9,2.73,2.61,3.39-1.28,3-3.85,2.18-5.64.63a69.85,69.85,0,0,1-6.1-6.74Z"/><path class="cls-97" d="M1494.44,4351.88c-1.9,7.49-6.19,13.13-14.2,12.48-7.81-.63-12.73-6.3-11.81-14.25.76-6.56,5.61-11.52,12.58-11.29C1488.7,4339.08,1493.68,4343.66,1494.44,4351.88Z"/><path class="cls-98" d="M921.76,4355c-.52,8.28-5,12.75-12,12.8-6.75,0-12.3-3.76-12.2-11.51.11-8.18,4.47-13.74,13.07-13.18C917.73,4343.6,921.78,4348.29,921.76,4355Z"/><path class="cls-94" d="M833.07,4438.55c-16.41-13.78-30.05-24.77-49-31.9C806.81,4404.12,819.18,4412.1,833.07,4438.55Z"/><path class="cls-99" d="M763.92,4436c15.68,1.53,28.67,6.85,35.75,27.58l-36.45-26.87Z"/><path class="cls-56" d="M5895.32,2624c12.44,10.69,28.46,6.67,42.33,8.25,52.85,6,100.11,25.21,144.24,53.67,9.22,5.94,18.23,12.21,27.34,18.33,21.56,24.69,46.9,46,64,74.68,15.32,25.67,28.63,52,37.52,80.66,2.14,6.88,3.76,13.53,2.87,20.69l-.16.12c-12.74-1-12.15-12.57-15.51-20.46-11.35-26.65-19.52-55-42.6-75-29.89-56.37-78.35-91.22-135.13-116.28-9.11-4-18.65-1.21-27.91.91-44.59,10.2-89.42,19.34-133.45,31.94-9.52,2.72-24.47,8.36-27.79-2.19-3.84-12.17,12.5-13.23,21.28-15.82,46.54-13.71,92.91-28.41,135.44-30.59-31.53-7.15-70.57-6.19-107.05-20.37C5884.34,2627.52,5888.72,2623.86,5895.32,2624Z"/><path class="cls-56" d="M6109.05,2695c-4.11-1.72-5.31-5.33-5.84-9.26-3.16-23.46-7.24-46.94.72-70.29C6111.63,2641.62,6109,2668.42,6109.05,2695Z"/><path class="cls-7" d="M4983.89,1618.44c-8.66-.43-17.32-1.21-26-1.21q-282.42-.11-564.83-.07c-7.91,0-15.92.56-23.7-.49-19.36-2.6-31.28-15.38-31.38-35.2q-.57-112.7,0-225.39c.12-21.53,12.18-33.4,33.53-35.41,5.49-.52,11.07-.18,16.6-.18h780.8c4,0,7.92-.09,11.87,0,28.09.89,40.37,12.86,40.51,41,.3,60.9.08,121.79.14,182.68,0,8.69.46,17.37.71,26.06-6.36,8.91-15.85,5.47-24,5.5-60,.29-120.08.07-180.12.25-8.49,0-17.47-2.2-25.31,3.36-5.77,6.68-3,14.77-3.65,22.29C4988.55,1607.64,4990.33,1614.28,4983.89,1618.44Z"/><path class="cls-4" d="M5880.76,2632.54c39.33.77,77.64,6.9,114.66,21.41-54.94,12.31-109.73,23.5-166.28,43.8,15.55,3.66,25.83-2.31,36.37-4.72q67.8-15.45,135.34-32c7.12-1.73,13.27-2.66,20.47.43A325.15,325.15,0,0,1,6154,2765c5,6.62,9.51,12.75,2.54,20.6-.76.94-1.52,1.88-2.26,2.84-43,14.38-85,32-130.12,39.21-16.91-4.85-28.59-20.76-47.09-22.27-35.28-12-63.65-36.6-96.49-53.12-19.56-9.84-37-23.52-57.21-32.38-2.46-2.91-5.33-5.57-7.32-8.78-10.44-16.82-10.18-20.19,3.48-33.93,8.14-8.19,16.84-15.83,25.29-23.71Z"/><path class="cls-9" d="M409.3,3980.32c17-40.81,48.72-57.17,86-67.91C485.27,3943,448.73,3972.41,409.3,3980.32Z"/><path class="cls-1" d="M754.76,3933.77c-4-2.69-4.79-6.44-1.57-9.74a304.4,304.4,0,0,0,27.13-32c2.18-3,5.92-6,9.84-2.6,3.51,3.09,2.36,7.61-.12,10.59-10.47,12.58-22.6,23.51-35.32,33.77Z"/><path class="cls-1" d="M6195.19,1983.17,5920,1983c7.74-37.47,15.67-74.89,26.78-111.55,2.72-9,6.24-17.68,9.24-26.56,3.14-9.3,8.9-13.86,19.29-13.13,14,1,28.15.94,42.23,1.34,7.74,20.57,14.53,41.56,23.43,61.62,14.33,32.32,33.68,41.52,68.2,34.66,6.93-1.38,14.12-1.9,20.78-4.07,12.34-4,22.86-5.48,28.56,10,1.11,3,6,6.5,9.19,6.52,25.83.09,25.29,19.32,27.47,36.7A38.93,38.93,0,0,1,6195.19,1983.17Z"/><path class="cls-1" d="M5639.84,1932.06q19.08-11.67,38.17-23.32c32.33-8.17,60.38-1.37,83.19,23.74,1,2.09,1.58,4.48,3,6.21,11.74,14.37,16.63,29,2.3,44.66l-160.31-.22c-2.75-10.88.74-19.26,9.14-26.66C5624,1948.86,5631.71,1940.24,5639.84,1932.06Z"/><path class="cls-100" d="M5809.7,1990.53c33.43-1.09,66.85-1.89,100.27.48-4.85,15.76-9.45,31.59-14.66,47.22a64.72,64.72,0,0,1-15.67,26c-8.25,8.18-17.16,10.39-27.71,4.49-24.15-13.51-36.06-36.45-46.54-60.4C5802.49,2001.74,5809.26,1996.74,5809.7,1990.53Z"/><path class="cls-1" d="M6176.57,3839.07c5.61,5.36,3.25,12.33,3.76,18.71C6173.13,3852.74,6176.58,3845.56,6176.57,3839.07Z"/><path class="cls-4" d="M6156.5,2785.59c9.72-2.72,14,3.57,18.26,10.58,12.28,20,21.2,41.58,29.43,63.51,2.64,7,2.28,15.59,9.29,20.71-1.11,20.68,9.09,40.4,5.17,61.31-13.86-3.74-24.88-12.85-37-19.87-46-26.78-91.86-53.93-137.69-81.08-6-3.56-11.52-7.9-17.26-11.88,34.39-14.61,71.06-22.32,106.11-35,8-2.88,16.34-4.68,24-8.57Z"/><path class="cls-1" d="M5842.18,1029.71l-52,.31c-8.33,3.79-17.16,1.9-25.73,1.91-126.48.14-253,.52-379.45-.07-73.48-.35-146.92,1.64-220.37,2.59H2312.07c-202.47-4.61-405-1.55-607.46-2.48-6.22,0-12.66,1.29-18.57-2l-52-.31c-.44-7.07-1.25-14.13-1.26-21.2q-.15-91.32,0-182.63c.07-27.82-3.14-24.41,25.81-24.74,1.58,0,3.16,0,4.75,0q2074.8,0,4149.61.08c35.59,0,30.32-4.91,30.51,29.41.31,58.5.13,117,0,175.51C5843.43,1014,5842.62,1021.85,5842.18,1029.71Z"/><path class="cls-101" d="M1793.13,2287.83c7.73,14.86,8.19,30,2.17,45.58-4,10.26-6.85,21-11.38,31-7.85,17.3-15.7,34.3-13,54.18,1.43,10.64-3.58,16-14.91,15.81-29.14-.42-58.31,0-87.45-.65-11.35-.25-23-1.95-21.22-18.26,18-.36,36.08-2.11,53.92-.69,18.09,1.45,28.11-4.36,36.18-21.25C1754.57,2357.6,1774.4,2323,1793.13,2287.83Z"/><path class="cls-102" d="M1536.43,2234.92c-19.85-.37-33.11-13.64-32.32-32.38.87-20.53,19.49-36.11,42.15-35.27,19.22.71,31.25,12.74,31,31C1577,2218.86,1558.65,2235.33,1536.43,2234.92Z"/><path class="cls-7" d="M3727.81,3558.77c44.49-1.43,76.32,30.44,74.64,77.88-1.46,41.26-34.14,75.16-76.1,73.79-47.81-1.56-75.62-27.23-75.91-79.94C3650.23,3590.66,3685.57,3558.52,3727.81,3558.77Z"/><path class="cls-103" d="M5777.61,3165.22c1.37,0,2.73-.1,4.09-.2q-.57,68.36-1.15,136.72l-1.47.89-1.73,0c-2.5-2-5.05-4.45-5.42-7.54a507.13,507.13,0,0,1,.11-122.44C5772.43,3169.53,5775,3167.16,5777.61,3165.22Z"/><path class="cls-4" d="M2689,1319.91h379.51c5.53,0,11.07-.17,16.6,0,29.61,1.09,46.93,17.85,47.52,47.58.68,34,.23,68,.23,102,0,32.41.32,64.82-.16,97.22-.47,31.44-16.69,48-47.9,50.09-5.51.36-11.07.1-16.6.1H2313.91c-6.33,0-12.68.29-19-.22-30-2.42-45.61-18.71-46-49.11-.46-38.72-.14-77.45-.15-116.18,0-26.87-.29-53.75.08-80.62.47-34.74,16.31-50.62,51.1-50.76,67.2-.28,134.41-.09,201.61-.09Z"/><path class="cls-104" d="M3735.92,1319.67h398.41a35.68,35.68,0,0,0,4.74,0c27.45-3.64,39.21,12.95,38.64,37.22-1.54,65.55-.56,131.17-.57,196.76,0,11.06.34,22.13,0,33.18-.56,19.49-9.24,28.61-28.69,30.39-4.71.44-9.48.12-14.23.12H3337.43c-4.74,0-9.51.3-14.22-.07-20.8-1.64-29.35-10.54-29.39-31.69q-.24-117.36,0-234.7c.05-22.49,8.79-31,31.82-31.11,69.56-.21,139.13-.06,208.69-.06Z"/><path class="cls-104" d="M4278.74,2484.3q0,162.47-.05,324.92c0,36.35-.53,72.69-1.11,109-.28,17.33-.68,17.89-17,18.09q-45.08.54-90.18,0c-16.09-.17-16.39-.58-16.55-18.13-.29-31.63-.23-63.26-.23-94.89q.06-381.92.19-763.84c0-31.18-2.59-28.41,27.65-28.55,24.52-.12,49-.3,73.56-.19,22.32.1,22.55.25,22.59,22,.14,64.05-.16,128.09.16,192.14.37,72.72-1.5,145.45,1,218.17.25,7-.82,14.14-1.28,21.21Z"/><path class="cls-7" d="M4408.45,2590.57q0-163.34,0-326.65c0-21.87.18-22,22-22.07,28.45-.12,56.9-.26,85.35.08,16.41.19,16.77.6,16.81,17.67q.26,101.91.1,203.81,0,222.78,0,445.55c0,3.95-.42,7.95.06,11.84,1.6,13-5,15.93-16.68,15.72-30-.54-60.05,0-90.08-.23-17.29-.13-17.48-.4-17.54-19.05-.13-37.85,0-75.71,0-113.57Z"/><path class="cls-105" d="M3892.93,2814.66c-.2-21.35-.52-42.7-.57-64-.09-43.19,0-86.39-.06-129.58,0-13.18-.49-26.36-.76-39.54,38.29-31.18,70.06-69,99.24-96.19-24.35,24.25-55.1,55.2-86.07,85.93-3.26,3.23-6.39,7.16-12,6-2.71-34.54-2.39-69.45-2.18-103.77.25-39.22.4-78.73,1.55-118.09.37-12.68,5.72-16.22,17.33-16.06,30,.42,60.08.5,90.1,0,12.49-.22,17.21,5.1,16.26,17-.32,3.92,0,7.89,0,11.84q0,270.21,0,540.43c0,30.11,1.39,28.81-28.06,28.76-32.23-.05-64.46,0-97,0,2-40.71,3.24-78.88-.74-117,0-.54,1-1.19,1.46-1.8,37.94-29.41,67.77-67.23,94.94-91.5-19.66,19.59-47.12,47.4-75,74.77C3906.07,2806.93,3902.36,2815.07,3892.93,2814.66Z"/><path class="cls-105" d="M3361.7,2819.77c-.32-46.4-.78-92.8-.91-139.2-.19-67.85-.14-135.69-.19-203.53,2.44-2.34,3.22-5.61,4.79-8.44,34.55-39.51,74.29-74,109.74-112.62,2.62-2.23,5.34-4.09,9-2.35q-.4,114.48-.82,228.94c-37.24,30.67-68.24,67.77-94.92,92.25,19.94-19.74,48-48.21,76.44-76.22,5.41-5.33,9.48-12.89,18.47-13.47.3,59.12.7,118.24.87,177.35q.23,76.7,0,153.37c-.08,21-.38,21.18-21.06,21.34-27.6.22-55.21.26-82.81,0-18.85-.19-19.34-.5-19.39-17.95-.11-32.31.42-64.62.68-96.94,36.92-30.44,67.74-67.12,94.35-91.75-20.31,20.43-48.76,48.89-77.35,77.22C3373.65,2812.59,3369.77,2819.22,3361.7,2819.77Z"/><path class="cls-4" d="M3750.23,2472c.15,31.47.16,62.94.53,94.4.09,7.31-.86,14-5.57,19.77-.5,1-1,2-1.48,3-34.47,34.33-70,67.57-102.58,103.81a19.48,19.48,0,0,1-5.13,4.22c-3.41,1-6.52.79-8.9-2.27q-.2-168.21-.36-336.44c0-42.64.22-85.27.34-127.9,33.76-37.94,71.1-72.36,106.87-108.32,4.2-4.23,8.86-9.33,16.23-6.11q-.07,173.33-.13,346.65c-32.15,37.28-69.36,69.57-97.19,99.39,22.48-22.08,50.31-50.63,78.86-78.44C3736.87,2478.75,3740.23,2469.8,3750.23,2472Z"/><path class="cls-4" d="M5777.61,3165.22c-2.47,45.79-2.26,91.59-.26,137.39-42.43,19-86.94,32.2-131.11,46.21-17.23,5.47-24.6.67-32.68-18.1-17.76-41.24-19.74-83.93-10-127.34,13.89-61.71,48.46-110.45,96-150.76a368.56,368.56,0,0,1,47.72-34.39c5,4.9,11.5,4.51,17.74,4.53,47.94.2,95.63,7.37,144.58,5.86a987.87,987.87,0,0,0-132.78,98.46c-35.21,1.67-66.68,18.05-100.43,25.57-13.59,3-26.67,8.32-40.33,11.33-2.89,2.15-5.92,3.88-9.77,2.89,4.09,1.27,7.06-1.08,10.31-2.92,2.74-1.54-.84.28,2-1.09,43-10,84.75-24.28,127.19-36.12,3.87-1.08,7.4-2.71,11,.37-37.1,38.59-73.29,77.94-101.76,123.63-6,9.61-13.38,18.64-14.57,30.89,34.2-49.43,68.85-98.23,114.24-139.27C5779.31,3151.14,5775.81,3158.42,5777.61,3165.22Z"/><path class="cls-106" d="M3627,2225.09q-.22-140.51-.39-281c0-17.72.41-18,18.59-18.15q43.7-.35,87.4,0c17.61.14,17.72.41,18,18.65.25,15.75.21,31.5.29,47.25-16.32,7.25-32.93,2-46.9,3.18,12.5,5,30-5.81,44.58,4.56,4.22,35.74,1.58,71.58,1.51,107.39-35.7,40.09-75.28,76.37-112.85,114.63C3634.55,2224.37,3631.53,2227.13,3627,2225.09Z"/><path class="cls-105" d="M2192.48,2709.1c.21,69.9.56,139.8.53,209.7,0,17.19-.92,18.1-16.91,18.31-30,.4-59.95-.23-89.91.26-12.09.2-16.73-4.26-16.67-16.51q.51-101.7,0-203.42c0-11.29,2.66-17.74,15.72-17.54,33.91.5,67.83,0,101.74.25,5.64,0,12.5.68,5.35,9-9.62-.88-13.27,7.47-18.55,12.65-28.65,28.12-56.89,56.65-85.26,85,28.5-28.27,56.7-56.84,85.34-85C2179.19,2716.61,2183,2708.43,2192.48,2709.1Z"/><path class="cls-105" d="M4689.89,2937c-4.78-7.93-4.82-7.93-4.82-11.45,0-62.12-.24-124.24.23-186.36.09-11.48-3.12-23,0-34.44,29.81-32.52,62.13-62.55,92.92-94.11,6-6.18,12.93-11.62,16.87-19.58a29.1,29.1,0,0,1,3.88-5c12.2,1.28,9.34,10.76,9.39,18.07q.38,54.47.18,108.94c-.11,35.51-.48,71-.74,106.54C4769.05,2859.25,4730.29,2898.93,4689.89,2937Z"/><path class="cls-105" d="M3484.12,2353.63l-4.65,4.55c-39.89,36.32-78.44,74-114.11,114.51l-4.75,4.34q.06-113.66.15-227.33c0-5.53.09-11,.12-16.57,0-7.37,3-12.16,11.06-12.17,34-.05,67.93-.71,101.85.24,15,.43,13.58,16.43,12.64,23.78C3481.75,2281.23,3485.8,2317.47,3484.12,2353.63Z"/><path class="cls-105" d="M2715.27,2704.77q-.08,104.24-.18,208.47c0,25.44-2.9,28.67-28.55,28.55-25.93-.13-51.8,1.13-77.78-3.63-12.81-2.35-17.68-5.44-17.32-18.53.85-30.77.59-61.58.78-92.37,14-24.36,37.15-40.38,55.49-60.78s41.07-36.8,56.34-60.13C2707.33,2702.64,2710.9,2700.8,2715.27,2704.77Z"/><path class="cls-105" d="M2976.2,2856.13c0,21.34-.34,42.69.13,64,.26,11.66-3.43,17.43-16.13,17.23-32.42-.5-64.84.11-97.26-.3-14.07-.18-14.84-1.23-11.85-15.37,2.5-11.82,1.45-23.61,1.54-35.4.26-32.41.47-64.82-.09-97.22-.21-12.16,3.58-21.33,16.05-21.69q46.18-1.33,92.44.1c10.92.34,15.64,8.36,15.34,19.87C2975.79,2810.27,2976.2,2833.21,2976.2,2856.13Z"/><path class="cls-105" d="M5087.86,2713.39c.25,69.14.23,138.3,1,207.44.14,12.14-5.45,17.22-15.83,19.14a108.52,108.52,0,0,1-18.68,1.87c-22,.22-44.11.19-66.16,0-22.78-.14-22.88-.24-23-24-.1-28.35,0-56.7,0-85.05,2.26-2.44,3.09-5.67,4.66-8.5,32.12-36.25,67.87-68.93,101.82-103.38C5076,2716.62,5080.64,2712,5087.86,2713.39Z"/><path class="cls-4" d="M3750.17,2709.32c.17,69.4.45,138.81.43,208.21,0,18-.44,18.32-18.49,18.47-29.2.24-58.41.35-87.61-.07-16.47-.23-17.62-1.38-17.77-17.64-.27-30,.13-60,.25-89.94,7.18-17.45,22.3-28.25,34.85-41.12q32.16-33,65.23-65.08C3733.4,2716,3738.35,2706.09,3750.17,2709.32Z"/><path class="cls-105" d="M3231.51,2708.33c2.68,70.7.54,141.42,1.14,212.13.1,11.83-3.91,17.11-16.33,16.91-30.7-.5-61.43-.41-92.14-.06-11.14.13-15.34-4.43-15.17-15.45.53-33.05.45-66.12.62-99.18,33.92-35.64,69.35-69.78,104.08-104.63C3218.59,2713.16,3223.39,2707.55,3231.51,2708.33Z"/><path class="cls-105" d="M5278.68,2771.74c1.76-2.81,4.36-5.56,7.56-4.42,9.31,3.31,18.08,2.93,27.55,0,6.62-2.08,13.92-.57,21,1.18,10.82,2.69,15.27,8.28,15.12,19.92-.58,43.28-.09,86.58-.3,129.88-.08,16.86-2.89,21.54-20,22.67-27.49,1.83-55.17,2.73-82.69-.73-3.09-.38-6.35-2.51-9.1-1.91-10.21,2.22-11.87-2.66-11.74-11.39.49-33.15.48-66.31.65-99.47C5245.67,2810.36,5267.41,2795.93,5278.68,2771.74Z"/><path class="cls-105" d="M2715.27,2704.77c-3.68,0-7.14.61-9.6,3.75-35.34,39.44-70.71,78.87-113.16,111.07-.29-29.12,1.33-58.41-1.38-87.3-3-31.37,2.34-62.31.81-93.51-.91-18.39.55-19.08,18-19.3q41.34-.51,82.69,0c20.18.25,22.12,2.52,22.4,23.89C2715.34,2663.83,2715.22,2684.3,2715.27,2704.77Z"/><path class="cls-105" d="M3109.9,2819.58c-.26-60.88-.39-121.76-.89-182.64-.09-11.22,2.46-17.92,15.66-17.69,30.84.53,61.7.4,92.55.05,11.13-.12,15.66,4.42,15.38,15.49-.59,23.7-.62,47.42-.88,71.13-35.92,29.64-66.07,65.21-99.94,96.95C3125.12,2809.12,3120.61,2818.53,3109.9,2819.58Z"/><path class="cls-105" d="M2340.22,2866.21c0-18.92.18-37.85-.06-56.77-.12-9.66,3.54-14.58,13.8-14.51q47.31.33,94.64,0c9.33,0,15,2.81,15,13.31q-.22,57.95,0,115.88c0,10.62-5.93,13.2-15.14,13.15-31.54-.17-63.09-.26-94.64,0-10.27.08-13.88-4.47-13.68-14.32C2340.47,2904.06,2340.2,2885.13,2340.22,2866.21Z"/><path class="cls-4" d="M3627.08,2818.19l.12-113.14c1.58-4.57,5.21-7.29,9-9.87l-.25.25a1488.42,1488.42,0,0,1,109.36-109.35l-.11.08c7.36,2.34,5.35,8.68,5.35,13.65,0,35-.35,70-.57,105-36.49,31-68,67.23-102.78,100C3641.42,2810.17,3638,2820.05,3627.08,2818.19Z"/><path class="cls-107" d="M1686,1030q298.82-.26,597.63-.47c9.47,0,18.95.49,28.42.75,9.2,3.58,18.79,1.75,28.17,1.75q467.44.18,934.89.1h924.29c76.27.06,152.56-.13,228.84.09q5.52-.1,5.33,5.42c-9.46.41-18.91,1.2-28.37,1.2q-668.91.09-1337.81,0c-266.45-.06-532.93,1.53-799.35-1.29-184.95-2-369.89-1.12-554.83-3.28C1704.11,1034.2,1694.28,1036.65,1686,1030Z"/><path class="cls-105" d="M4969.93,2828c-1.58,1.61-3.15,3.23-4.72,4.84,0-48-.18-96,0-144,.09-21.69.42-21.86,22.66-22,27.55-.18,55.1-.3,82.64.05,16.76.21,17.42,1.07,18,17.16.3,8.63-.18,17.29-.31,25.94C5046.58,2747.17,5007.43,2786.78,4969.93,2828Z"/><path class="cls-108" d="M5823.33,2719.87c2.58-3.4,5.51-5.53,9.89-2.9q68.49,41.09,136.94,82.21c2.59,1.56,4.59,4.11,6.87,6.2-13.95,26.09-27.91,52.18-42.93,80.25-15.64-12.84-21-30-32.86-41.79-17.89-28.54-34.74-57.78-56.4-83.81C5841.83,2744.4,5828.53,2734.3,5823.33,2719.87Z"/><path class="cls-107" d="M4433.61,1037.66c-.08-.82-.11-1.64-.11-2.46,7.8-5.89,16.81-2.89,25.18-2.9q339.85-.29,679.69-.24c8.58,0,17.38,1.7,25.76-1.75,9.47-.26,18.94-.77,28.41-.76q298.83.18,597.64.47c-10.65,7.55-22.85,4.21-34.3,4.25-166.7.62-333.42-1-500.08,1.73-266.18,4.45-532.36.59-798.53,2.22C4449.38,1038.27,4441.49,1037.85,4433.61,1037.66Z"/><path class="cls-105" d="M4799,2586.05V2590c-35.43,39.34-70.69,78.84-113.18,111-.25-32.22-.78-64.45-.63-96.68.09-17.33.82-17.84,19.43-18C4736.09,2585.93,4767.55,2586.09,4799,2586.05Z"/><path class="cls-105" d="M4807.66,2822.38c.26,33.18.34,66.37.9,99.54.19,11.12-4.4,15.59-15.47,15.4-33.18-.57-66.38-.65-99.57-.92,14.48-25.93,38.73-43,59-63.45C4770,2855.29,4784.54,2834,4807.66,2822.38Z"/><path class="cls-109" d="M3627.08,2818.19c20.91-15.31,36.79-35.82,55.39-53.53,16.38-15.6,32.17-31.83,48.37-47.63,5.49-5.35,10.23-12.11,19.13-12.26a5.07,5.07,0,0,1,.2,4.55c-11.49,5.88-18.56,16.6-27.48,25.26-32.06,31.09-63.83,62.49-95.71,93.77C3627,2825,3627.05,2821.58,3627.08,2818.19Z"/><path class="cls-110" d="M3627,2225.09c14.75-9.28,24.95-23.39,37.28-35.24,28.67-27.55,55.14-57.39,85.8-82.89q0,4.59.07,9.2c-18.84,13-32.59,31.35-49,47-18.71,17.83-36.73,36.36-55.17,54.48-5.52,5.43-10.43,11.9-19,13C3627.06,2228.75,3627,2226.92,3627,2225.09Z"/><path class="cls-111" d="M3109.9,2819.58c33.62-33.33,67.09-66.79,101-99.85,5.9-5.76,10.4-14.55,20.84-13.81-.06.81-.12,1.62-.21,2.42-33.7,33.58-67.29,67.28-101.19,100.66-5.88,5.79-10.54,14.09-20.7,13.69C3109.71,2821.65,3109.81,2820.62,3109.9,2819.58Z"/><path class="cls-111" d="M3892.93,2814.66q47.9-47.28,95.83-94.51c5.3-5.19,10-11.5,19-14.9-1.81,8.59-7.29,12-11.38,16.15q-45.77,46.14-92.06,91.74c-3.16,3.1-5.51,11.17-12.86,5.31A9.27,9.27,0,0,0,3892.93,2814.66Z"/><path class="cls-111" d="M3892.75,2577.19c31.84-31.49,63.59-63.07,95.6-94.38,6.05-5.91,11.26-13,19.45-16.81,3.18,6.32-2.67,8.55-5.42,11.34q-46.37,47.05-93.2,93.62c-4.95,4.95-9.55,10.73-17.63,10.54A15.7,15.7,0,0,0,3892.75,2577.19Z"/><path class="cls-112" d="M3750.23,2472c-12.9,6.79-21,18.83-31.12,28.65-22.64,22-44.7,44.63-67.28,66.71-4.79,4.68-8.35,11.49-21.71,12.82,41.62-41.56,78.3-81.89,119.93-117.36Z"/><path class="cls-111" d="M4807.66,2822.38l-114.14,114c-1.22.14-2.42.33-3.63.57.19-6,3.72-10.1,7.65-14q48.15-48.09,96.31-96.15c3.85-3.84,7.68-8,14-7.21Q4807.78,2821,4807.66,2822.38Z"/><path class="cls-111" d="M4969.93,2828c-.24-6.15,3.58-10.15,7.49-14.07q48.33-48.35,96.66-96.67c3.92-3.9,7.91-7.78,14.13-7.23-.12,1.11-.23,2.22-.34,3.33q-45.93,45.51-91.9,91C4987.61,2812.57,4978.63,2820.16,4969.93,2828Z"/><path class="cls-111" d="M3483.29,2585.13c-38.33,37.22-74.26,76.92-114.6,112.86-3.61-7.4,2.24-9.6,5-12.44q45.84-46.37,92.17-92.21c4.88-4.83,8.93-11.54,17.4-10.77A19.87,19.87,0,0,1,3483.29,2585.13Z"/><path class="cls-111" d="M3361.7,2819.77c37.78-37.74,74.3-76.77,114.83-113.45,2.33,8.69-3.77,11.27-7.19,14.73q-45,45.47-90.41,90.46c-4.86,4.82-8.92,11.52-17.38,10.77C3361.57,2821.43,3361.62,2820.6,3361.7,2819.77Z"/><path class="cls-111" d="M2592.51,2819.59l113.16-111.07c3.23,2.85,1.87,5.59-.46,8-36.95,37.66-72.76,76.48-113,110.79C2592.32,2824.71,2592.41,2822.15,2592.51,2819.59Z"/><path class="cls-113" d="M4685.83,2700.94q47-46.65,94.1-93.27c6.17-6.09,12.71-11.81,19.08-17.7,4.32,4.21.53,7-2,9.57q-49.59,49.74-99.35,99.29c-3.39,3.39-7.27,5.9-12.31,5.89C4685.55,2703.47,4685.72,2702.21,4685.83,2700.94Z"/><path class="cls-114" d="M3015.66,1995.47a453.2,453.2,0,0,1,98.45,0A491.49,491.49,0,0,1,3015.66,1995.47Z"/><path class="cls-115" d="M5278.68,2771.74c2.31,1,4.45,3.71,3.12,5.18-16.77,18.54-30.48,40.47-55,50.51C5240.66,2805.69,5261.94,2790.83,5278.68,2771.74Z"/><path class="cls-114" d="M3341.1,1995.54a502.69,502.69,0,0,1-99.19,0A451.85,451.85,0,0,1,3341.1,1995.54Z"/><path class="cls-116" d="M4149,1995.49a447.24,447.24,0,0,1,98.41,0A487.42,487.42,0,0,1,4149,1995.49Z"/><path class="cls-117" d="M3748.61,1999.57c-17-2.83-34.48,1.72-53.75-4.13,20.12-4.9,38.33-.93,56.07-3.61l46.64,2.44C3778.36,2000.57,3763.05,1995.83,3748.61,1999.57Z"/><path class="cls-118" d="M2659.22,1995.61a491.69,491.69,0,0,1-96.36-.06A418,418,0,0,1,2659.22,1995.61Z"/><path class="cls-114" d="M3925,1995.72c32.11-4,64.21-3.65,96.3-.31C3989.18,1999.24,3957.07,1998.12,3925,1995.72Z"/><path class="cls-114" d="M4472.05,1995.38a477.1,477.1,0,0,1-95.88.2C4408.27,1991.43,4440.38,1992.54,4472.05,1995.38Z"/><path class="cls-119" d="M2334.92,1995.64c31.78-3.88,63.6-3.63,95.45-.41C2398.6,1999.41,2366.77,1998.3,2334.92,1995.64Z"/><path class="cls-119" d="M4831.84,1995.78a403.49,403.49,0,0,1,96.37-.24C4896.11,1999.11,4864,1998.21,4831.84,1995.78Z"/><path class="cls-114" d="M2885.86,1995.56a486,486,0,0,1-96.1,0A420.2,420.2,0,0,1,2885.86,1995.56Z"/><path class="cls-114" d="M3468.91,1995.65c32.13-4.25,64.28-3.16,96.44-.26C3533.21,1998.84,3501.07,1998.54,3468.91,1995.65Z"/><path class="cls-119" d="M4604.37,1995.55a419,419,0,0,1,96.35,0A492.36,492.36,0,0,1,4604.37,1995.55Z"/><path class="cls-120" d="M2157.63,1995.19c20.06-4,35.27-2.87,50.48-.2C2192.9,1999.7,2177.69,1999.57,2157.63,1995.19Z"/><path class="cls-121" d="M3636.19,2695.18a19.58,19.58,0,0,1-9,9.87q-.06-5.06-.1-10.12Z"/><path class="cls-56" d="M6156.81,2785.32c-27.46,17.2-59.05,23.47-89.27,33.26-13.31,4.32-27.18,6.92-40.79,10.29a3.4,3.4,0,0,1-2.63-1.23c6.83-7.38,16.5-8,25.32-10.75q45.72-14.38,91.29-29.22A48.42,48.42,0,0,1,6156.81,2785.32Z"/><path class="cls-122" d="M5164.13,1030.31c-8.32,6.94-18.22,3.64-27.34,3.65q-336.28.32-672.57.21c-10.24,0-20.48.66-30.72,1q-96.41-.39-192.81-.8c-13.32-.07-26.64-.43-39.95-.65l0-3.28c6.31-.26,12.63-.73,18.94-.73q462.73,0,925.46,0C5151.49,1029.74,5157.81,1030.11,5164.13,1030.31Z"/><path class="cls-122" d="M3275.43,1033.79c-41.85.21-83.71.61-125.57.6q-405.21-.06-810.43-.43c-9.11,0-19,3.31-27.34-3.66,6.32-.19,12.64-.56,18.95-.56q462.72,0,925.45,0c6.31,0,12.62.45,18.93.7,1.5.74,2,1.48,1.5,2.23S3275.94,1033.79,3275.43,1033.79Z"/><path class="cls-38" d="M3275.43,1033.79a28.8,28.8,0,0,1,0-3.35c6.32-.24,12.63-.7,18.94-.7q443.74,0,887.48,0c6.31,0,12.62.48,18.93.73a30.09,30.09,0,0,1,0,3.29c-6.32.21-12.64.63-19,.63q-443.68,0-887.39,0C3288.07,1034.39,3281.75,1034,3275.43,1033.79Z"/><path class="cls-123" d="M1953.06,939.34a25.86,25.86,0,0,1-2.16-51.65c14.37-.93,27.73,11.57,27.69,25.9C1978.56,926.92,1966.49,939.09,1953.06,939.34Z"/><path class="cls-124" d="M2066.1,912.55c.43,14.6-10,26.21-24.11,26.72s-25.47-10.42-25.87-24.91c-.41-14.78,9.86-26.17,24.08-26.69S2065.67,898,2066.1,912.55Z"/><path class="cls-125" d="M1889.5,912.94a25.6,25.6,0,0,1-24.43,26.3c-14.53.62-27.6-12-27.2-26.37.36-13.27,12.66-25.15,26.11-25.23C1877.62,887.57,1889.25,899.09,1889.5,912.94Z"/><path class="cls-126" d="M3896.76,2689.38l98.82-98.93C3988,2610.08,3920.59,2678.24,3896.76,2689.38Z"/><path class="cls-127" d="M3989.53,2374.82c-23.25,30.5-50.44,57.2-80.61,82.87C3914.88,2441.57,3962.26,2392,3989.53,2374.82Z"/><path class="cls-128" d="M3994.41,2827.93l-83.07,82.94C3916.74,2900.29,3968.09,2847.25,3994.41,2827.93Z"/><path class="cls-128" d="M3475.91,2820.82c-35.78,36.06-71.57,72.11-106,106.85C3374.61,2914.87,3441.56,2845.23,3475.91,2820.82Z"/><path class="cls-129" d="M3365.36,2472.69c-.15-7.07,4.74-11.33,9.1-15.7q44.61-44.8,89.42-89.42c4.37-4.35,8.56-9.31,15.59-9.39C3444.39,2399.3,3405.81,2436.93,3365.36,2472.69Z"/><path class="cls-130" d="M3470.11,2482.69c-14.76,15-29.42,30.16-44.32,45.06s-30,29.56-48.1,47.3C3385.16,2556.18,3441.43,2498,3470.11,2482.69Z"/><path class="cls-121" d="M3745.3,2586.08a1128.79,1128.79,0,0,1-109.36,109.35c-.21-6.09,3.49-10.16,7.39-14.06q44-43.92,88-87.81C3735.19,2589.66,3739.22,2585.94,3745.3,2586.08Z"/><path class="cls-110" d="M3639.49,2341.83c11.51-17.2,75.5-81.93,98-99.18C3730.15,2259.11,3659,2331.06,3639.49,2341.83Z"/><path class="cls-131" d="M3727,2372.85l-80.89,81.07C3651.77,2443.19,3713.69,2380.74,3727,2372.85Z"/><path class="cls-76" d="M5776.83,3127.11c-40.53,11.74-81.11,23.35-121.57,35.34-6.89,2.05-13.58,3.68-20.74,2.72l-.19-.24c23.91-14.5,51.7-17.75,77.61-26.41,17.16-5.73,34.9-9.69,52.4-14.39,4.65-1.25,9.35-2.29,12.51,2.95Z"/><path class="cls-76" d="M5634.52,3165.17c-2.93,4.78-6.51,5.81-11.08,1.94,3.36-2.57,7.15-2.29,10.89-2.17Z"/><path class="cls-111" d="M2192.48,2709.1q-43.52,43.14-87.07,86.24c-8.88,8.76-18,17.27-28.45,27.26-1.91-8.9,3.7-11.73,7.11-15.17,30.47-30.7,60.94-61.42,91.93-91.6,3.92-3.82,7-14.34,16.35-6.72Z"/><path class="cls-132" d="M2100.53,2906.74c17.84-26.61,40.52-48.44,68.63-70.62C2159.39,2855.54,2123.92,2892.32,2100.53,2906.74Z"/><path class="cls-126" d="M4696.74,2815.78l94.54-94.19C4785.15,2736.52,4725.53,2798.32,4696.74,2815.78Z"/><path class="cls-133" d="M2682.6,2847.3l-53.81,53.22C2632,2888.36,2659.19,2859.81,2682.6,2847.3Z"/><path class="cls-134" d="M2958.18,2825.6l-93.83,94.23-1.06-1.07,94.34-94.51Z"/><path class="cls-128" d="M5072.2,2835.43l-84.16,84C4991.32,2907.47,5045.58,2850.87,5072.2,2835.43Z"/><path class="cls-135" d="M3645,2915.68c9.57-15.67,71.33-76.71,82.39-82.45Z"/><path class="cls-136" d="M3213,2836.76c-14.41,15.39-28.42,31.18-43.35,46-12.1,12-25.32,23-39.87,36C3137.14,2901.06,3186.72,2849.67,3213,2836.76Z"/><path class="cls-115" d="M5339.13,2827l-98.33,98.2C5245.84,2913.51,5320.28,2837.9,5339.13,2827Z"/><path class="cls-136" d="M2659,2634.19l-52.88,53.41C2610.71,2677,2646.14,2641,2659,2634.19Z"/><path class="cls-128" d="M3187.22,2626.92l-64.95,63.88C3128.11,2677.34,3162.06,2641.94,3187.22,2626.92Z"/><path class="cls-136" d="M2356.3,2919.65l87.58-87.45C2439.18,2845,2387,2899.14,2356.3,2919.65Z"/><path class="cls-1" d="M2034.83,1996.87c-3.63.28-6.18-1-6.7-4.53-.66-4.62-.81-9.83,4.86-11.06,4.47-1,6.45,3,6.86,7S2039.22,1995.76,2034.83,1996.87Z"/></g></g></svg>