<svg xmlns="http://www.w3.org/2000/svg" viewBox="0 0 401.84 510.84"><defs><style>.cls-1{fill:#7b7b7b;}</style></defs><title>delete disabled</title><g id="Layer_2" data-name="Layer 2"><g id="Layer_1-2" data-name="Layer 1"><path class="cls-1" d="M401.81,88.23c-.05-20.6-11.88-32.45-32.44-32.48-23.6,0-47.21-.07-70.82.07-3.26,0-4.3-.85-4.18-4.17.25-6.64.22-13.3,0-19.94C294,18,287.7,8,275.16,2.2c-1.75-.81-3.86-.75-5.35-2.2H132.13a7.73,7.73,0,0,1-1.57,1c-14.45,4.67-22.73,15.64-23,30.75-.13,6.32-.29,12.65.06,19,.24,4.15-1,5.23-5.19,5.2-24.6-.19-49.21-.24-73.81,0A28.64,28.64,0,0,0,.32,83.23c-.44,12.12-.42,24.28,0,36.4C.8,133,11.58,144.91,24.85,146.37c4.85.53,5.37,2.32,5.37,6.38Q30.09,308.36,30.15,464c0,2.83,0,5.66.12,8.48,1,21.09,19.09,38.36,40.27,38.37q130.41,0,260.84,0a36,36,0,0,0,15.92-3.44c16.83-8.17,24.56-21.79,24.54-40.42q-.15-156.86,0-313.71c0-1.16.08-2.33,0-3.49-.18-2.1.72-2.75,2.81-3.07,17.79-2.74,27.12-13.62,27.22-31.55Q401.87,101.71,401.81,88.23ZM126.67,51.15c.32-6.47,0-13,.14-19.44.19-8,4.91-12.71,12.84-12.72Q201,18.9,262.31,19c7.94,0,12.61,4.73,12.79,12.77.16,6.64-.15,13.3.12,19.94.14,3.39-1,4.13-4.23,4.11-23.43-.12-46.87-.06-70.31-.06-23.1,0-46.2-.09-69.3.09C127.63,55.87,126.49,54.92,126.67,51.15Zm226,415.49c0,16.58-8.62,25.21-25.1,25.22H74.27c-16.27,0-25-8.63-25-24.78q0-78,0-156.08c0-52.86.07-105.72-.12-158.57,0-4.7,1.36-5.62,5.77-5.61q146.1.19,292.22,0c4.56,0,5.68,1.15,5.68,5.69Q352.59,309.57,352.69,466.64Zm30-352.63c0,10.47-3.26,13.77-13.63,13.77H33.43c-11.1,0-14.16-3.08-14.17-14.22q0-12.72,0-25.43c0-9.81,3.45-13.29,13.13-13.3q20.45,0,40.89,0H368.51c11.05,0,14.16,3.12,14.17,14.24Q382.7,101.55,382.68,114Zm-97.87,97.07c-5.28,0-9.05,3.68-9.56,9.46-.13,1.49-.07,3-.07,4.49V414c0,9,3.15,13.64,9.36,13.83,6.42.2,9.91-4.65,9.91-13.8V224.55c0-1.33.06-2.67-.06-4C293.84,214.77,290.09,211.09,284.81,211.08Zm-74.87,6.61a8.55,8.55,0,0,0-7.93-6.51,9,9,0,0,0-9.48,5c-1.3,2.44-1.2,5.12-1.2,7.79q0,47.63,0,95.25,0,48.63,0,97.25c0,7,4,11.51,9.79,11.37s9.24-4.47,9.44-11.26c0-.66,0-1.33,0-2q0-95.25,0-190.5A24.08,24.08,0,0,0,209.94,217.69ZM126.76,319.76q0-47.62,0-95.25a27.58,27.58,0,0,0-.54-6.43c-1.06-4.41-4.18-6.74-8.6-7a8.93,8.93,0,0,0-9.34,6.05c-.88,2.2-.77,4.56-.77,6.9q0,50.11,0,100.23,0,45.88,0,91.77c0,7.13,3.7,11.63,9.41,11.78,5.92.16,9.72-4.42,9.84-11.85,0-1.17,0-2.33,0-3.49Z"/><path class="cls-1" d="M126.76,412.52c0,1.16,0,2.32,0,3.49-.12,7.43-3.92,12-9.84,11.85-5.71-.15-9.4-4.65-9.41-11.78q0-45.88,0-91.77,0-50.12,0-100.23c0-2.34-.11-4.7.77-6.9a8.93,8.93,0,0,1,9.34-6.05c4.42.21,7.54,2.54,8.6,7a27.58,27.58,0,0,1,.54,6.43q0,47.63,0,95.25Z"/><path class="cls-1" d="M210.58,224.1q0,95.25,0,190.5c0,.67,0,1.34,0,2-.2,6.79-3.83,11.13-9.44,11.26s-9.78-4.37-9.79-11.37q-.09-48.63,0-97.25,0-47.62,0-95.25c0-2.67-.1-5.35,1.2-7.79a9,9,0,0,1,9.48-5,8.55,8.55,0,0,1,7.93,6.51A24.08,24.08,0,0,1,210.58,224.1Z"/><path class="cls-1" d="M294.45,224.55V414.06c0,9.15-3.49,14-9.91,13.8-6.21-.19-9.35-4.82-9.36-13.83V225c0-1.5-.06-3,.07-4.49.51-5.78,4.28-9.47,9.56-9.46s9,3.69,9.58,9.48C294.51,221.88,294.45,223.22,294.45,224.55Z"/><path class="cls-1" d="M126.76,416c-.12,7.43-3.92,12-9.84,11.85-5.71-.15-9.4-4.65-9.41-11.78q0-45.88,0-91.77,0-50.12,0-100.23c0-2.34-.11-4.7.77-6.9a8.93,8.93,0,0,1,9.34-6.05c4.42.21,7.54,2.54,8.6,7a27.58,27.58,0,0,1,.54,6.43q0,47.63,0,95.25v92.76C126.76,413.68,126.78,414.84,126.76,416Z"/><path class="cls-1" d="M210.61,414.6c0,.67,0,1.34,0,2-.2,6.79-3.83,11.13-9.44,11.26s-9.78-4.37-9.79-11.37q-.09-48.63,0-97.25,0-47.62,0-95.25c0-2.67-.1-5.35,1.2-7.79a9,9,0,0,1,9.48-5,8.55,8.55,0,0,1,7.93,6.51,24.08,24.08,0,0,1,.64,6.41Q210.63,319.35,210.61,414.6Z"/><path class="cls-1" d="M294.45,224.55V414.06c0,9.15-3.49,14-9.91,13.8-6.21-.19-9.35-4.82-9.36-13.83V225c0-1.5-.06-3,.07-4.49.51-5.78,4.28-9.47,9.56-9.46s9,3.69,9.58,9.48C294.51,221.88,294.45,223.22,294.45,224.55Z"/></g></g></svg>