<svg xmlns="http://www.w3.org/2000/svg" viewBox="0 0 511.81 509.29"><defs><style>.cls-1{fill:#7b7b7b;}</style></defs><title>edit disabled</title><g id="Layer_2" data-name="Layer 2"><g id="Layer_1-2" data-name="Layer 1"><path class="cls-1" d="M485,335c0,36.32.07,72.63,0,109-.08,34.09-22,59.55-55.71,64.92a51.67,51.67,0,0,1-8,.41q-178.67,0-357.32,0A63.51,63.51,0,0,1,.85,455.55,12.15,12.15,0,0,0,0,453.29c2.74.46,2.36,2.89,2.81,4.66C9.65,485.33,27,501.59,54.6,507.09a44.9,44.9,0,0,0,9,.64q178.89,0,357.79,0a61.75,61.75,0,0,0,61.93-62q0-54.21,0-108.43a34,34,0,0,0-.36-7,10.55,10.55,0,0,0-10.61-8.81,11.07,11.07,0,0,0-10.62,8.91,35.43,35.43,0,0,0-.32,7q0,53,0,105.94c0,12.82-4.56,23.57-14.18,32.35-8.23,7.51-18.22,9.17-28.62,10.06-1.32.11-2.66.06-4,.06q-172.16,0-344.3,0c-9.24,0-18.32-1-26.46-6-12.27-7.51-19.28-18.3-19.29-32.86q-.12-167.4,0-334.81A38.4,38.4,0,0,1,62.69,73.93c35.81-.12,71.63,0,107.44,0a47.81,47.81,0,0,0,7-.22c5.76-.85,10.53-5.72,10.74-10.89.2-5-4-9.87-9.65-11.26a29,29,0,0,0-7-.54c-34.81,0-69.62-.08-104.44,0-32.55.09-56.24,18.77-64.1,50.25-.4,1.63-.14,3.86-2.7,4.17,2.26-8.47,4.25-17,9-24.58,12.51-19.79,30.48-30.7,53.78-31.05,37.47-.57,75-.21,112.44-.15,8.4,0,14.36,5.43,14.43,12.72.07,7.45-6,12.93-14.71,12.94-37.14,0-74.29-.07-111.44.07-18,.06-32.58,11.82-37,29.25A46.2,46.2,0,0,0,25.62,116c0,108.94.21,217.89-.2,326.83C25.34,465,41,484.13,66.89,484.08q175.65-.3,351.32-.11c25.45,0,41.48-16.15,41.5-41.54,0-36.32,0-72.63,0-108.95,0-9.59,7.43-15.62,16.05-13.2,5.15,1.45,8.14,5,9,10.21A26.86,26.86,0,0,1,485,335Z"/><path class="cls-1" d="M511.81,79.43c-2.34,10.06-5.29,19.88-12,28-2,2.44-4.11,4.82-6.34,7q-112,112-223.93,224a22.24,22.24,0,0,1-10.17,5.91q-51.66,14.21-103.24,28.67c-5.35,1.49-10.26,1.28-14.37-2.8s-4.4-8.9-2.88-14.32q14.64-52.32,29-104.71a17.78,17.78,0,0,1,4.73-8.05Q285.52,130.41,398.42,17.56c23.63-23.56,58.45-23.29,82.3.06,1.08,1.05,2.08,2.17,3.2,3.17,13.59,12.2,25,25.75,27.89,44.64-2.63,0-2-2.25-2.29-3.66a54.29,54.29,0,0,0-15.65-29C486.8,26,480.62,18.12,472.68,12.32c-22.74-16.61-53.33-14-73.52,6.12Q350.29,67.1,301.61,116q-62.71,62.71-125.48,125.4a28.75,28.75,0,0,0-7.8,13.05Q154.08,305.67,139.94,357c-2.84,10.22,4.54,17.83,14.77,15.08,30.24-8.1,60.22-17.23,90.61-24.71,13.61-3.34,23.82-10.15,33.5-19.9Q385.5,220,492.85,113.19c8.64-8.63,14.49-18.56,16.74-30.59C509.83,81.29,509.49,79.37,511.81,79.43Z"/><path class="cls-1" d="M483.92,20.79c-1.12-1-2.12-2.12-3.2-3.17C456.87-5.73,422.05-6,398.42,17.56q-113,112.71-225.81,225.69a17.78,17.78,0,0,0-4.73,8.05q-14.44,52.38-29,104.71c-1.52,5.42-1.21,10.25,2.88,14.32s9,4.29,14.37,2.8q51.58-14.44,103.24-28.67a22.24,22.24,0,0,0,10.17-5.91q111.93-112,223.93-224c2.23-2.23,4.33-4.61,6.34-7,6.73-8.16,9.68-18,12-28v-14C508.94,46.54,497.51,33,483.92,20.79ZM255.78,309.15q-26.25-26.73-52.95-53c-2.55-2.52-3.26-3.93-.25-6.93q90-89.73,179.84-179.69c.93-.94,1.92-1.81,3-2.8.95.85,1.84,1.59,2.66,2.4,18.25,18.24,36.46,36.53,54.8,54.68,2.28,2.26,2,3.45-.11,5.52-8.47,8.25-16.76,16.67-25.12,25Q340.28,231.69,263,309.11C260.1,312,258.71,312.14,255.78,309.15ZM169,343l18-65.19L234.19,325ZM406.28,45.55c3.84-3.43,7.29-7.31,11-10.87,12.63-12.07,31.56-12.18,44.17-.19,5.43,5.16,10.71,10.48,15.91,15.88a30.18,30.18,0,0,1,8.77,22.13,30.44,30.44,0,0,1-8.85,22.1c-3.68,3.85-7.69,7.4-11.21,11.39-2.22,2.52-3.4,1.78-5.39-.21q-27.09-27.3-54.41-54.38C404,49.12,403.78,47.77,406.28,45.55Z"/><path class="cls-1" d="M485,443.93c-.08,34.09-22,59.55-55.71,64.92a51.67,51.67,0,0,1-8,.41q-178.67,0-357.32,0A63.51,63.51,0,0,1,.85,455.55,12.15,12.15,0,0,0,0,453.29V105.42c2.26-8.47,4.25-17,9-24.58,12.51-19.79,30.48-30.7,53.78-31.05,37.47-.57,75-.21,112.44-.15,8.4,0,14.36,5.43,14.43,12.72.07,7.45-6,12.93-14.71,12.94-37.14,0-74.29-.07-111.44.07-18,.06-32.58,11.82-37,29.25A46.2,46.2,0,0,0,25.62,116c0,108.94.21,217.89-.2,326.83C25.34,465,41,484.13,66.89,484.08q175.65-.3,351.32-.11c25.45,0,41.48-16.15,41.5-41.54,0-36.32,0-72.63,0-108.95,0-9.59,7.43-15.62,16.05-13.2,5.15,1.45,8.14,5,9,10.21A26.86,26.86,0,0,1,485,335C485,371.3,485.08,407.61,485,443.93Z"/></g></g></svg>