<svg xmlns="http://www.w3.org/2000/svg" viewBox="0 0 6409 5000"><defs><style>.cls-1{fill:#fff;}.cls-2{fill:#5f9fff;}.cls-3{fill:#fec955;}.cls-4{fill:#60a2ff;}.cls-5{fill:#ffd255;}.cls-6{fill:#262e3b;}.cls-7{fill:#eea886;}.cls-8{fill:#85bfff;}.cls-9{fill:#97a43b;}.cls-10{fill:#17202f;}.cls-11{fill:#8fc6ff;}.cls-12{fill:#48753a;}.cls-13{fill:#fec956;}.cls-14{fill:#7ab5ff;}.cls-15{fill:#68a8ff;}.cls-16{fill:#1d3b55;}.cls-17{fill:#354b70;}.cls-18{fill:#eddad3;}.cls-19{fill:#91c6ff;}.cls-20{fill:#212338;}.cls-21{fill:#f5c548;}.cls-22{fill:#bbd071;}.cls-23{fill:#6e675f;}.cls-24{fill:#46423f;}.cls-25{fill:#d0d0d0;}.cls-26{fill:#cfcfcf;}.cls-27{fill:#73acfd;}.cls-28{fill:#ffcb56;}.cls-29{fill:#eda886;}.cls-30{fill:#192230;}.cls-31{fill:#d9cfc5;}.cls-32{fill:#eda785;}.cls-33{fill:#eca786;}.cls-34{fill:#38709e;}.cls-35{fill:#85bdfe;}.cls-36{fill:#eeab8a;}.cls-37{fill:#88bcfd;}.cls-38{fill:#e9a989;}.cls-39{fill:#dca58c;}.cls-40{fill:#c6c3c0;}.cls-41{fill:#c7c3c1;}.cls-42{fill:#c6c2c0;}.cls-43{fill:#c7c3c0;}.cls-44{fill:#c6c2bf;}.cls-45{fill:#c5c1bf;}.cls-46{fill:#c7c4c1;}.cls-47{fill:#c5c2bf;}.cls-48{fill:#c4c0bd;}.cls-49{fill:#42454e;}.cls-50{fill:#fcfcfc;}.cls-51{fill:#f8f9fc;}.cls-52{fill:#fdd157;}.cls-53{fill:#5189dc;}.cls-54{fill:#323757;}.cls-55{fill:#e6ece7;}.cls-56{fill:#e4f1fc;}.cls-57{fill:#ebebe9;}.cls-58{fill:#895a2d;}.cls-59{fill:#6e4125;}.cls-60{fill:#77b3ff;}.cls-61{fill:#70aeff;}.cls-62{fill:#5f6ba9;}.cls-63{fill:#86bcf9;}.cls-64{fill:#e9734d;}.cls-65{fill:#c4c1cc;}.cls-66{fill:#a87860;}.cls-67{fill:#5fa1fe;}.cls-68{fill:#606aa8;}.cls-69{fill:#dbd8e3;}.cls-70{fill:#376e9d;}.cls-71{fill:#fbfbfb;}.cls-72{fill:#80baff;}.cls-73{fill:#f7f8f9;}.cls-74{fill:#608cc9;}.cls-75{fill:#fafafa;}.cls-76{fill:#63a4ff;}.cls-77{fill:#efab88;}.cls-78{fill:#f6c19a;}.cls-79{fill:#f25f55;}.cls-80{fill:#f15f55;}.cls-81{fill:#db9b7d;}.cls-82{fill:#3e4348;}.cls-83{fill:#fccb5e;}.cls-84{fill:#fdcb5c;}.cls-85{fill:#fdca5b;}.cls-86{fill:#fdca5a;}.cls-87{fill:#6eaafd;}.cls-88{fill:#fcfbfa;}.cls-89{fill:#d0a346;}.cls-90{fill:#343857;}.cls-91{fill:#33395a;}.cls-92{fill:#353b5c;}.cls-93{fill:#333858;}</style></defs><title>Asset 5</title><g id="Layer_2" data-name="Layer 2"><g id="Layer_1-2" data-name="Layer 1"><path class="cls-1" d="M0,5000V0H6409V5000Z"/><path class="cls-2" d="M3646.28,4190.59c-.28-3.31-.2-6.71-.9-9.93-2.78-12.88-3.74-12.53-15.83-12.86-14.44-.39-14.37-.68-17.15-15.45-2.71-14.4-2.77-29.08-4.77-43.6-4.15-30.27-6.16-60.83-9.43-91.22-3.2-29.73-6.93-59.4-10.31-89.11-1.73-15.19-3.24-30.4-4.78-45.62-3-29.75-5.72-59.54-9-89.27-4.71-42.94-10-85.81-14.65-128.75-3.37-31.05-5.93-62.2-9.24-93.26-3.24-30.39-7-60.73-10.48-91.09-.15-1.32-.28-2.65-.36-4-.28-5,1.74-7.83,6.46-8.14,5.3-.34,10.63-.31,16-.31q112.82,0,225.61,0c7.31,0,14.62-.46,21.92-.7,8.91-5.8,19-5.53,29-5.53q328.71,0,657.4-.06c17.37,0,34.15.18,38.58,22.24,38.64,30.85,28.15,76.63,32.72,116.4,18.62,162.15,35.2,324.54,53.07,486.79,2.8,25.4,3.92,26.38,29.31,26.7,14,.18,28-.3,42,.2,24.15.86,27.75,4.8,28.69,30.22-.48,16.77,4.66,34.2-5.9,49.78-9,5.86-19.16,5-29.08,5q-503.81.14-1007.59-.1C3666.64,4198.9,3654.47,4201.59,3646.28,4190.59Z"/><path class="cls-3" d="M1099.43,2584c.23-9.32.65-18.65.65-28q.08-188,.06-375.93c0-6.65-.36-13.43.75-19.93,5.24-30.75,29.91-52.12,61.36-52.4,48-.44,95.92-.11,143.89-.22,7.3,0,14.6-.65,21.9-1,8.16-6.08,17.73-5,26.94-5,85.87-.13,171.74-.34,257.6,0,53,.23,77,24.52,77.24,77.07.16,30.63.44,61.28,0,91.9-1,63.26,1.4,126.44,3.6,189.63-7,120.9-2.73,241.88-2.39,362.83-1.94,23.94-.86,47.94-1.24,71.91-.65,41.33-24.4,67-65.69,71.08-7.3.72-14.63.61-22,.61q-210.72,0-421.45,0c-61.41,0-87.24-25.86-87.46-87.79-.27-72.61-.11-145.23,0-217.84,0-8.64-.42-17.36,2.82-25.64,2.36-5.36,7.18-7.51,12.4-8.46,26.36-4.76,51.89-13.27,78.34-17.5,5.82-.69,6.24,8.85,7.62,7.38,4.2-4.47,12.57-10.51,1.16-16.72-8.51-6.27-17.51-3.93-26.6-1.81-16.05,3.74-32.12,7.77-48.72,7.61C1106.2,2605.61,1097.56,2599.57,1099.43,2584Z"/><path class="cls-4" d="M5234.3,2347.33c21.88,6.49,41.46,17.93,61.47,28.46a65.92,65.92,0,0,1,8.57,5.11c8,6,14.9,5.15,23.32-.62,25.26-17.31,51.2-33.63,76.89-50.33,5-3.24,9.56-7.21,15.49-8.69,4.92,1.31,7.63,5.34,10.86,8.6q85,86,169.93,172.16c2.33,2.36,4.68,4.74,6.8,7.3a7.18,7.18,0,0,1,.57,9.17c-2.55,3.9-5.1,7.81-7.72,11.66-17.22,25.35-34.23,50.85-51.84,75.93-5.22,7.43-6,13.35-1.37,21.61a603.59,603.59,0,0,1,49.08,113.51c3.19,10.16,6.37,20.35,8.82,30.7,1.79,7.55,5.84,10.81,13.44,12.31,31.31,6.17,62.5,13,93.73,19.57,2.6.55,5.26.89,7.81,1.62,8.28,2.35,9.59,4,9.94,12.41.14,3.33,0,6.67,0,10l-1.32,232c0,4-.12,8-.14,12,0,5.5-2.88,8.55-8.17,9.6-17.6,3.49-35.18,7.13-52.81,10.51-16.32,3.13-32.68,6.06-49.05,8.93-9.32,1.64-15,5.86-17.65,16-8.35,31.6-20.82,61.76-34.2,91.58a481.14,481.14,0,0,1-25.06,47.72c-4.74,8-4.4,14.33.72,22,16.33,24.34,32.09,49.06,48.07,73.63,2.91,4.46,5.7,9,8.79,13.35,3.24,4.56,2.9,8.57-1,12.44-2.85,2.8-5.62,5.68-8.48,8.48q-83.52,81.84-167,163.68c-14.42,14.15-12.88,13.61-29.6,2.19q-37.11-25.36-74.24-50.73c-13.27-9-15.67-8.9-28.08-.08-4.68,3.32-5,7.06-3.11,12.09a279.64,279.64,0,0,1,11.42,36.13c4.13,17.58,6.88,35.2,6.87,53.31q-.16,294-.15,587.91c-2.52,4.54-5.8,3.88-9.35,1.39-7.11-10.89-4.88-23.22-4.89-35q-.23-269.87,0-539.74a271.39,271.39,0,0,0-11.42-78.8c-2.22-7.4-3.62-16.16-14-17.05a48.39,48.39,0,0,0-9.26,1.61c-2,.72-4,1.28-6,1.82-4.11,1.13-8.15,2.56-12.45,3a18.3,18.3,0,0,1-6.66-.83c-11.86-5.77-12.68-17.05-11.53-27.47,4.52-41.1-16.38-67.6-47.65-89.87-36.47-26-76.61-39.18-121.13-39.28-81.05-.17-162.1,0-243.15-.08-9.94,0-19.95.72-29.81-1.58a18.12,18.12,0,0,1-6.43-3.37,12,12,0,0,1-3.32-6.47A7.52,7.52,0,0,1,4773,3353c9.49-4.15,19.59-3.07,29.49-3.08,81.76-.11,163.53.79,245.27-.36,51.69-.73,100.13,10.29,146.6,32.07,21.56,10.11,25,7.89,25.22-16.36.26-35.25.14-70.5.05-105.75-.09-32.52-1.93-65.18,9.27-96.59,9.1-21.76,27-37.64,38.63-57.88,49-85.12,57.29-174.53,30.67-268.12-3.26-11.45-9.07-22.36-7.57-34.86,3.66-20-3.48-39.4-3.15-59.34.8-48.39-.31-96.82.54-145.21.34-19.63-5.48-33.4-24.7-39.84-4-10.84,5.1-9,10.45-10.34,6.75-1.67,17.1,2.55,19.79-4.5,3.15-8.28-8.22-12-12.24-18.4C5242,2478,5235,2421,5229.18,2363.72,5228.58,2357.73,5228.87,2351.62,5234.3,2347.33Z"/><path class="cls-5" d="M4769.75,3356.27l1.26,4q1.32,2.22,2.79,4.37l-.24-.15c6.86,5.16,9,13,11.34,20.6,30.44,97.75,62.1,195.13,90.92,293.39,25,85.05,49,170.36,64.32,257.82,4.36,24.92,8.25,49.94,7.45,75.43-.7,22.16-9.58,39.78-27.45,52.94A324.6,324.6,0,0,1,4856,4101.2c-37.92,16.38-76.53,31-115.91,43.59-8.13,2.59-16.41,6.35-25,1a31.35,31.35,0,0,1-.58-3.95c-.52-22,1.69-20.71-20.63-20.75-20.65,0-41.3.1-61.95,0-14.55-.1-15.31-.88-17.05-15.66-1.33-11.24-2.49-22.5-3.65-33.76-3.14-30.47-6.12-61-9.38-91.41s-6.89-60.87-10.19-91.31c-3.24-29.79-6.2-59.61-9.41-89.4-4.86-45-9.88-90-14.73-135-3.21-29.79-6.19-59.61-9.39-89.4q-3.52-32.76-7.38-65.5c-1-8.55-1.3-8.55-9.48-9.67-2-.28-4-.22-6-.38-3.89-.3-6-2.75-6.56-6.29-1.11-6.55-1.85-13.17-2.86-19.73-.45-2.9-2.3-4.88-5.22-5.06q-9-.52-17.95-.51-215.82,0-431.63,0-121.89,0-243.79,0c-6,0-12-.43-18-.66,4.39-13.46,15.08-23.21,21-35.77,4.66-14.88,14.14-26.72,23.91-38.46,30.2-36.25,59.7-72.91,96.28-103.48,26.67-22.27,56.87-36.76,88.64-48.72a1054.94,1054.94,0,0,1,104.51-33.31c9.34-2.45,19.19-7.16,28.45.79,6.94,16,3.2,32.86,3.52,49.31.48,24.19,3.24,48,12.16,70.45,15.51,39.15,42.36,64.82,85.48,72.4,63.64,11.18,130.66-21.22,162.62-80.33,18.31-33.86,27.89-70.4,32.44-108.41.79-6.57.27-13.39,4-19.35,5.8-5.93,13.4-6.09,20.54-4.92,88.85,14.6,171.67,42.58,237.82,107.6,14.89,14.63,26.89,31.21,37,49.32A18.64,18.64,0,0,1,4769.75,3356.27Z"/><path class="cls-6" d="M4170.37,3207.1c-18.58,2.28-36.11,8.79-54,13.8-28.79,8.07-57,17.91-85.1,28.25-36.83,13.56-68.65,34.48-96.6,61.91a936.19,936.19,0,0,0-94.26,108.22c-3.15,4.22-6.7,8.16-10.07,12.22-3.19-44.15,2.71-87.22,14.93-129.63,2-6.83,6.34-13.37,4.28-21.09,8.62-38.58,31-69.48,54.77-99.83,18.11-23.13,41.11-41.15,61.87-61.48,21.79-21.33,33.57-47.13,39.05-76.49,14.23-73.08,11.7-145.45-8.45-217.19-6.3-22.42-11.81-45.06-14.19-68.31-10.91-60-12.47-120.2-6.82-180.93,7.35-79.08,50.48-134.18,114.4-175.9,25.16-16.42,51.5-30.71,80.54-39.3a28.51,28.51,0,0,1,15.53-1c16.29-3,32.52-6.44,48.87-9,50.33-7.92,99.3-1.31,147.32,14.56a311.23,311.23,0,0,1,80,39.74c13.21,2.61,22.18,11.16,30.74,20.88,36.61,41.56,54.2,91.22,61.84,145a808.41,808.41,0,0,1,7.72,123.45c-.93,75.83-7.23,151.54-25.55,225.84-17.37,70.48-42.93,137.28-81.29,199-4.13,6.63-7.32,14.48-15.79,17.26-.6-.26-1.66-.42-1.75-.81-8.08-33.08-15.79-69,4.65-97.57,46.08-64.42,61.49-137.77,72.71-213.26,1.33-8.91-1.47-15.57-9.9-19.67-92.49-45.07-155-121.76-213.38-202.76-1.17-1.62-2.39-3.21-3.42-4.92-7.36-12.21-15-12.7-25.12-2.28-23.2,23.95-45.17,48.94-64.6,76-27.2,37.88-53.51,76.32-74.27,118.32-6.55,13.26-8.47,25.74-4.83,40.3,16.29,65,38.72,126.9,76,183.6,18.77,28.57,16.6,64,14.49,97.2a523,523,0,0,1-10.37,73.12C4196.19,3204.25,4192.32,3207.29,4170.37,3207.1Z"/><path class="cls-7" d="M2694.34,1308.43c-1.75,18.47-3.05,37-5.32,55.4-5.93,48-17.38,95.11-25.52,142.77,2.58,4.35,2.08,9.08,1.05,13.59-12.77,55.88-28,110.88-58.61,160.24-21.61,34.85-51.8,56.46-93.34,60.53-72.26-3.2-136.23-28.19-189-70.61,13.86,13.49,29.18,31.92,48.31,46.46,34,25.87,72.34,41.64,114,50,9,1.81,18.52,2.56,26.33,8.41,2.55,3.4,3.38,7.32,3.63,11.43-2.18,28.21-16.86,51.46-31,74.53a308.72,308.72,0,0,1-32,43,9,9,0,0,1-5.76,1.41c-48.4-23.31-89.33-57-128.37-93.19-19-17.58-36.3-37-55.2-54.67-12.57-11.74-19.16-25.09-18-42.27,3.14-53.94,13.26-107.76,2.21-161.87-.3-11.37-5.91-21.35-8.32-32.18q-5.94-26.7-12-53.38c-3.39-29.84,2.65-58.33,14.49-85.32,17.74-40.46,54.23-43.53,80.18-7.5,3.48,4.84,5.89,10.61,11,14.08,6.23,4.27,13.65,7.15,20.65,4,6.78-3.06,3.92-10.58,3.69-16.23a192,192,0,0,1,7.39-61.13c7.32-25.52,23-37.76,49.55-37.61,44.73.25,88.28,10.54,132.18,17.61,29.51,4.76,59.11,8.87,88.64,13.48C2655.08,1312.47,2674.58,1305.3,2694.34,1308.43Z"/><path class="cls-8" d="M4438.45,3135.24c11.84-14.48,20.89-30.76,29.76-47.1,37.24-68.56,60.11-142,73.85-218.53,10.4-57.86,14.69-116.31,14.34-175-.28-47.26-1.86-94.61-10.3-141.31-7.31-40.51-21.72-78.13-47.24-111-10.68-13.76-23.67-25.07-36.38-36.7,7.54-2,12.17-7.92,17.34-13q33.41-33,66.71-66.15c3.32-3.29,6.7-6.5,9.95-9.85,3.84-4,7.8-4.36,12.41-1.22,19.26,13.1,38.6,26.1,57.89,39.17,9.92,6.72,20,13.2,29.59,20.39,7,5.23,12.94,4.44,20.16.49,14-7.68,28.18-15.2,42.82-21.54,16.39-7.1,32.2-16.07,50.35-18.44-11.52,101.26-2.44,202.88-5.32,304.29-.34,12.16-.44,24.26,11.47,32,7.39,11.21-3.2,15.72-8.81,20.87-39.5,36.27-69.32,79-87.91,129.39-44.29,120-17.22,262.69,83.35,353.79,11.35,10.27,22.18,21.09,34.86,29.9,5.62,3.91,13.12,8.28,7.79,17.65-8.22,7.51-8.94,17.39-9,27.58-.17,23.33.85,46.69-.48,70-1.2,21.07-9.4,28-30,27.49-11.27-14.74-20.61-30.84-33.54-44.45-28.86-30.37-63.07-53-100.72-70.54-43-20.07-88.43-32.65-135.21-40.28-7.17-1.17-14.57-.93-21.86-1.34-12.93,3.73-26.41,3.48-33.67-8.51C4431.72,3168.52,4427.35,3151.75,4438.45,3135.24Z"/><path class="cls-9" d="M2775.15,1569.05c73.73-56.29,155.3-97.85,242.51-128.64,70.49-24.88,142.94-42,216.83-53.1,34.89-5.27,69.84-9.89,105.07-12,15.25-.92,15.58-.63,16.31,14.66,2.2,46.45-5.1,91.6-19.35,135.72-20.65,63.92-55.16,119.44-101.67,167.66-9.69,10-19.52,19.94-29.28,29.91-1.73,5.56-6.59,8.61-10.13,12.74-17.7,15-35.1,30.35-56.89,39.46-48.89-5.78-96.58-18.76-145.55-24-56.11-6-111.95-14-168.81-6.57-63.67,8.29-122.29,30.56-178.93,59.24-16,8.1-31.38,17.44-47.33,25.68-11.32,3-21-1.39-30.41-6.89a15.77,15.77,0,0,1-5.4-7.3c.2-12,7.67-21.12,13.38-30.56,35.22-58.19,76.36-111.91,125.05-159.49,15.61-15.26,32.38-29.46,49.43-43.22,6.21-5,12.71-9.48,20.92-10.56h0A9.12,9.12,0,0,1,2775.15,1569.05Z"/><path class="cls-10" d="M2694.34,1308.43c-10.88,5.79-22.56,7.28-34.73,7.28-29.45,0-58.37-4.85-87.26-9.44-43.37-6.9-86.47-15.56-130.13-20.5-10.56-1.2-21.24-1.35-31.88-1.68-19.2-.59-31.26,9.43-38.05,26.58-5.72,14.41-7.63,29.66-8.35,45a193.1,193.1,0,0,0,1.42,37.9c1.33,8.89-.54,10.21-10.05,8.62-3.94-.65-7.85-2-11.78-2-12.75-.24-20.14-5.57-24.5-18.4-5-14.63-16.41-24-32.5-26.15-12.28-1.68-22.25,2.26-29.83,12.15-6.17,8-10.3,17.08-13.47,26.61-6.32,19.05-9.87,38.67-12.2,58.56-.6,5.14.81,10.83-3.6,15.08-7.15-15.2-10.59-31.49-13.77-47.83-18-92.57-26.91-185.91-23.21-280.28a158,158,0,0,1,3.59-29.71c5.51-23.78,19.45-40.48,41.21-50.83,17.14-8.16,35.4-11.63,54.28-11.33a35.74,35.74,0,0,0,20.58-5.83c48.66-30.59,102.54-40,158.89-36.85,59.08,3.31,115.42,18.56,170,41.13a72.14,72.14,0,0,1,35.59,30.57c8.67,14.39,14.78,29.87,19.41,45.88,10.4,36,15.27,73,16.22,110.45.37,14.74-1.41,29.29-3.56,43.79C2705,1288.46,2701.2,1299.09,2694.34,1308.43Z"/><path class="cls-11" d="M1688.05,2462a16.81,16.81,0,0,1-.27-2c-1.18-33.21-3.08-66.42-3.37-99.64-.55-62-.17-123.9-.18-185.85,0-10.67-.07-21.22-5-31.21-10.71-21.49-27.79-33.48-51.64-35.54-6.61-.58-13.31-.25-20-.25q-128.82-.06-257.64-.14c-7.3,0-14.6-.59-21.9-.9-1.58-28.51-5.11-56.85-7.44-85.27-1.63-19.85-4.58-39.61-5.12-59.54a99.49,99.49,0,0,0-2.28-19.78c-1.31-5.76-1.42-11.88-1.41-17.84,0-6.88,2.15-9.53,8.78-11.5,15.26-4.53,30.61-8.78,45.88-13.29,8.29-2.45,16.47-5.24,24.71-7.83,7.14-2.24,10.81-7.23,11.87-14.49,5.33-36.44,16.7-71,32-104.43,3.06-6.69,3.56-12-1.62-18-10.4-12.09-20.16-24.73-30.17-37.15-5.42-6.74-10.91-13.42-16.15-20.29-4.94-6.47-5-8.36.62-15.76,8.9-11.6,18.07-23,27.4-34.26q32.48-39.15,65.2-78.09c7.68-9.18,15.13-18.57,23.15-27.44,6.45-7.13,8.77-7.53,17.4-3.09,20.06,10.32,40.64,19.74,59,33-3.48,27.92-1.33,55.29,2.66,83.31,8,56.52,14.1,113.41,18.65,170.36,2.55,31.85,7.67,63.44,9.17,95.39.38,8.25,4.15,15.36,11.64,19.83,6.21,5.39,6.39,12.84,6.62,20.16,2.83,93.52,41.81,166.3,123,214.9a16.23,16.23,0,0,1,5.62,5.55c2.66,8.11-.21,15.77-2.1,23.41-19.45,78.47-39,156.91-55.37,236.12C1698.09,2448.58,1697.82,2458.05,1688.05,2462Z"/><path class="cls-12" d="M4010.14,3048c-4.91,19.26-11.65,37.71-22.56,54.55A84.59,84.59,0,0,1,3975,3117.8c-13.37,12.79-25.44,27-41,37.46a28.91,28.91,0,0,0-5.75,5.47c-10.19,12.12-20.46,24.17-30.39,36.51-18.4,22.86-31.35,48.89-43,75.6-1.34,3.07-2.19,6.22-5.36,7.94-10.93-2.83-20.27-9-29.82-14.6-17-9.9-33.58-20.37-50.35-30.6-2.86-2.18-6.7-1.43-9.69-3.27-21.59-10.77-37-29.65-56.59-43.06-110.87-104.38-174.72-233.13-198.22-382.79-1.75-11.17-4.54-22.27-3.16-33.7,1.74-14.32,7.17-17.57,17.6-8.33,52.68,46.64,117.8,69.12,181.23,95,2.67,1.21,5.27,2.57,7.92,3.81,1.82.66,3.6,1.41,5.39,2.12,70.13,23.13,137.94,51.68,200.82,90.57C3952.89,2979.53,3982.76,3012.68,4010.14,3048Z"/><path class="cls-13" d="M5298,4190.32l7.85.13c8,.39,15.92,1.13,23.88,1.14q120.93.12,241.86,0c23.2,0,21.89-.84,21.86,21.65,0,6-.06,12-.34,18-.23,4.74-3.39,7-7.74,7.62a60.45,60.45,0,0,1-8,.42c-5.33.06-10.66,0-16,0H3050.92c-6.66,0-13.33.19-20-.14-9.09-.45-11.56-2.75-11.46-12.45.4-40.55-6.08-34.41,32.32-35.14,22-.42,43.95,1.34,65.87-1.06,8.41-5.76,17.58-3.67,26.45-2,11.18,2.08,22,.28,33-1.5,42-2.26,83.93-1.26,125.9-.68,26-1.3,51.94-.52,77.91-.42,6.64,0,13.4.31,18.94,4.91,4.62.27,9.25.78,13.87.78q108.38.07,216.76,0c5.28,0,10.55-.64,15.82-1,7.29.32,14.59.94,21.88.94q512.15.07,1024.28,0c7.29,0,14.58-.69,21.87-1.06,8.33-5.52,17.82-4.83,27.1-4.84q264.69-.12,529.4,0C5280.11,4185.63,5289.55,4185.1,5298,4190.32Z"/><path class="cls-14" d="M1623.36,1943.9c-2.66-.08-5.32-.06-8-.25-3.53-.24-6.36-1.58-7.63-5.23-2.17-6.26-4.57-12.35-4.48-19.27.16-12.58,1.33-25.32-3.56-37.44,1.37-20.65-6.61-40.67-4.31-61.36,1.5-13.52-3.13-26.33-5.14-39.3-1.75-11.23-3.32-22.31-2.77-33.54a110.49,110.49,0,0,0-5-39.27,69.86,69.86,0,0,1-3.06-25.53,105.53,105.53,0,0,0-4.52-37.35c-6.53-20.9-2.73-42.24-3.19-63.39-.11-5.12,3.8-8.24,8.11-10.53a10.22,10.22,0,0,1,3.37,1.07c3.33,3.75,6.56,7.79,12.17,3.42l.08,0a13,13,0,0,1,3.87-3.16,8.17,8.17,0,0,1,3.31-1.21,16.58,16.58,0,0,0,4.76-3.56l.08-.06a14,14,0,0,1,3.85-3.25,7.94,7.94,0,0,1,3.37-1.1,28,28,0,0,0,4.75-3.41l.24-.17a8.13,8.13,0,0,1,3.62-3.09,8.84,8.84,0,0,1,3.7-1.18q2.1-1.7,4.32-3.24a7.55,7.55,0,0,1,3.25-1c1.89-.71,3.28-2.16,4.86-3.33l.26-.17a6.49,6.49,0,0,1,3.58-2.87l4.17-1.24a9.62,9.62,0,0,1,3.84-2.95l4-1.09a11.76,11.76,0,0,1,4-2.94l4.09-1a9.75,9.75,0,0,1,3.9-2.88l4.18-1.07c2-2.57,5.68-1.54,7.83-3.75a7,7,0,0,1,3.25-.69,22.08,22.08,0,0,0,4.76-3.06,8.63,8.63,0,0,1,3.61-.75,30.14,30.14,0,0,1,4.37-2.86l5.64-2c7-2.5,9.89-7.2,10.55-14.93,2-23.84,4.91-47.61,7.72-71.37,1.12-9.48,3.08-11.23,12.5-12,20.54-1.76,41.11-3.07,61.63-5,19.18-1.82,38.28-4.44,57.45-6.27,21.18-2,42.4-3.59,63.61-5.28,5.47-.43,9,1.69,9.07,7.75-15.64,3.39-18.68,11.52-16.38,27.92,10.36,73.77,16.08,148.09,24,222.16,2.07,19.26,3.07,38.55,14.77,55.2a12.16,12.16,0,0,1,1.81,11.42c-5.54,4-11.57,2.56-17.29,1-58-15.24-113.3-6.24-167.05,17.7-2.61,1-5.31,1.7-7.93,2.51-1.52.62-3.1,1.18-4.63,1.77-1.36.73-2.78,1.41-4.14,2.16-.61.43-1.27.82-1.89,1.25-1.17.91-2.42,1.73-3.67,2.52s-2.47,1.5-3.75,2.18-2.41,1.5-3.6,2.26c-.55.44-1.14.84-1.7,1.27a33.53,33.53,0,0,1-3.45,2.49c-1.19.79-2.44,1.48-3.69,2.16s-2.41,1.6-3.59,2.45c-.54.51-1.12,1-1.66,1.48-1.05,1.15-2.14,2.22-3.22,3.33-.53.61-1.09,1.16-1.62,1.77-1.09,1.27-2.24,2.44-3.42,3.62-8,8-15.8,16-23.79,23.85-1.1,1.2-2.31,2.32-3.5,3.41-.56.54-1.17,1.06-1.73,1.6-1,1.09-2.17,2.13-3.25,3.17-.46.57-1,1.1-1.45,1.66-.79,1.2-1.64,2.37-2.43,3.57a41.34,41.34,0,0,1-2.27,3.62c-.76,1.16-1.63,2.26-2.5,3.35-.4.56-.84,1.09-1.23,1.65-.69,1.17-1.45,2.31-2.16,3.46a34.65,34.65,0,0,1-2.12,3.45,35.27,35.27,0,0,1-2.41,3.17s-1.25,1.52-1.2,1.55c-.69,1.1-1.42,2.18-2.11,3.28a33.89,33.89,0,0,1-2,3.42c-1,1.73-1.92,3.49-2.76,5.3-.51,1.27-1.12,2.48-1.75,3.69s-1.19,2.46-1.81,3.68a40.73,40.73,0,0,1-1.84,3.68c-.92,1.83-1.85,3.65-2.68,5.52-.47,1.3-1,2.56-1.54,3.82-.68,2-1.32,3.93-1.9,5.92a32.94,32.94,0,0,1-1.34,4c-.75,2-1.51,3.94-2.14,6a60.39,60.39,0,0,1-1.93,6.17c-.73,2.08-1.46,4.17-2.08,6.3a53.13,53.13,0,0,1-2,6.65,57,57,0,0,1-3.06,6.65c-.74,1.54-1.58,3-2.42,4.5-5.29,7.44,1.17,15.62-1.47,23.21A9.74,9.74,0,0,1,1623.36,1943.9Z"/><path class="cls-14" d="M4777.46,2675.87l-5.42-2.46c-3.84-1.73-7.81,3-11.37.09-4.23-3.48-2.48-8.64-2.48-13.07q-.13-148.36-.16-296.72c0-8.31.88-15.76,7.65-21.59,1.88-1.61,2.71-4.43,4-6.7,0,0,0,.27,0,.27,1.46-1,2.9-2,4.31-3,15.09-5,30-10.44,45.34-14.65,8.8-2.42,13.09-6.55,14.84-15.85,6.22-33.15,13.38-66.12,20.24-99.14,1.82-8.76,3.88-10.4,13.74-10.72,12.59-.41,25.17-.57,37.76-.83a14.83,14.83,0,0,1,12.79-4.33c42.38,5,85,.47,127.39,3.19,10.64,1.5,16.2,7.75,12,17.91-33.82,81.31-42.81,169.54-70.65,252.48a25.38,25.38,0,0,1-1.8,3.52c-8.47,8.68-11.12,18.41-7.77,30.57,3.61,13.1-.89,27.13,3.48,42.67,0,.36,2.07-3.77-.21-2.4-1.22-6.16-3.19-12.38,1.8-19.8,13.09,8.59,14.18,24.59,23.22,34.92,6.58,18.11,17.63,35,15.33,55.57-5.83,3.91-12.54,4.16-19.09,3.83-60.84-3-117.7,12-172.18,37.75-1.72.76-3.53,1.41-5.28,2.06-.79.37-1.66.69-2.45,1.06-1.48.81-3,1.55-4.55,2.3s-2.85,1.52-4.3,2.2c-2,1.08-4.07,2.14-6,3.38q-3.63,2.58-7.47,4.84c-1.82,1.22-3.66,2.44-5.44,3.74a52.77,52.77,0,0,1-5.48,3.66c-1.2.83-2.46,1.58-3.71,2.33-.61.41-1.25.77-1.86,1.17a15.58,15.58,0,0,1-4,1.81Z"/><path class="cls-15" d="M1947.35,1727.07c-3.78-5.44-7.26-11.14-11.43-16.27-4.85-6-6.81-13.19-8-20.16-1.82-11,0-22.56-4.08-33.39,4.85-7.9,1-16-1-23.19-4.78-17.43-1.61-35.76-7.27-53-2.29-7,1.66-14.06.38-21.64-4.63-27.37-7.1-55-9.14-82.74-1.49-20.37-5.45-40.56-8.07-60.86-.84-6.5,1.5-8.72,7.23-7.5s11.22,4.37,17.45,3.3l-.07,0c1.95,2.36,1.45,5.67,3.17,8.11.23,1.35.46,2.69.7,4,2.32,2.15,1.55,5.49,3.09,7.94q.63,3.71,1.25,7.41c1.74,2.64,1.08,6.18,3.24,8.67a7,7,0,0,1,.58,3.66c2,2.4,1.34,5.82,3.13,8.3.24,1.34.47,2.68.71,4,2.3,2.15,1.56,5.48,3.06,8q.62,3.74,1.24,7.48c1.81,2.59,1.12,6.13,3.27,8.6a6.05,6.05,0,0,1,.7,3.07c1.62,3.71,5.76,2.79,8.42,4.59l11.38,1.12c2.66,1.67,6,1.26,8.68,2.84l7.28.9c3.48,3,8.68.06,12.06,3.45l3.93.6c2.53,2,6,1.37,8.61,3.11l7.39,1.22c1.67.86,3,2.3,5,2.69l7,1.26c1.66.91,3,2.35,5,2.74l7,1.37c1.55,1,3.12,1.86,4.71,2.75,8.06,2.92,16.32,5.38,24.09,8.92,5.59,2.54,9.69,2.13,14.4-1.8,16.25-13.58,32.49-27.21,49.28-40.1,17.1-13.15,14.35-16,32.63-.36,22.16,18.89,44.79,37.22,67.31,55.67,5.11,4.17,10.65,7.82,16,11.72,7.87,11.35,10.46,24,10.55,37.66a831.69,831.69,0,0,1-6.25,111c-.76,5.91-1,11.89-1.49,17.83.2,26-12.19,47.29-25.33,68.33-5.35,4.49-11.79,7-18,9.86-33.48,10.24-65.9,23.33-98.43,36.16-7.88,3.11-15.48,7.65-24.5,6.86-23.16-33.15-50.57-62.09-84.25-84.75a41.25,41.25,0,0,1-3.79-3.19c-.59-.5-1.17-1.07-1.76-1.57-1.19-.9-2.36-1.88-3.54-2.79-1.22-.74-2.4-1.58-3.58-2.38-1.75-1.08-3.52-2.15-5.36-3.07-1.23-.5-2.42-1.1-3.61-1.69a40.5,40.5,0,0,0-5.54-2.06,35.91,35.91,0,0,1-5.75-1.82c-1.88-.8-3.71-1.7-5.56-2.56-1.3-.5-2.54-1.09-3.79-1.69-2.59-1.13-5.27-2-7.81-3.25A5.21,5.21,0,0,1,1947.35,1727.07Z"/><path class="cls-16" d="M916.7,3176.89c.64-14.47-3.45-28.95,1.42-43.54,1.42-4.24-2.47-10-3.14-15.21-3.88-29.69-7.54-59.41-11.25-89.12-.83-6.6-1.49-13.22-2.4-19.81-3.85-27.88-5-55.71,1.5-83.37s6.52-55.39,3.75-83.36c.71-9.7-7.16-20.16,2.57-29.06,7.34-5,15.83-6.59,24.37-7.34,15.6-1.38,20.53-9.48,16.67-24.16-1-3.8-1.3-7.81-2-11.72-5.93-35-5.92-35,27.91-42.33,15.35-2.87,30.73-5.55,45.77-9.84,7.56-2.16,15.23-4,22.59.83,10.3,14.57,12.11,32.18,16.79,48.65,9.07,32,17.06,64.29,24.52,96.66,6.49,28.12-.37,56.87-1.8,85.21q-3.16,62.64-6.54,125.28c-.51,9.29,1.22,18.88-.94,27.86-6,24.95,5.73,40.79,25.47,52.93,11,6.79,19.52,14.45,12.85,29-22.41,15.73-37.75,12.42-65-14.34-3.86,5.49.64,15.38-8,17.57-5.35,1.35-7.3-4.33-9.53-8.28-9.7-26.35-2-53.94-5.9-80.89-5.44-37.48-6.75-75.49-11.24-113.12-1.87-15.68,1-30.66,4.82-45.39,5.12-19.64,3.58-37.44-5.88-55.85-9.3-18.09-16.83-37.1-28.11-57.72-17.52,56.8-33.15,110.38-32.54,167,.39,36.56-2.79,73.24,3.39,109.64.67,3.92,1.13,8.24-.1,11.91-6.4,19.05,2.75,31.88,16.34,43.28,7.51,6.3,12.84,13.65,9.52,24.28-14.88,14.2-38.74,16-51.78,1.85C926.26,3179.45,915.72,3189.09,916.7,3176.89Z"/><path class="cls-17" d="M3085,4133.55c.58-1.91,2-4,1.61-5.71-2.71-12.64,3.21-23.19,7.71-34.15,19.22-46.8,38.23-93.7,57.62-140.44,4.93-11.89,7.06-24,7.57-36.8,1.55-38.61,3.94-77.18,5.92-115.77.41-8,.46-16,.68-24,20.57-15.59,42.35-28.66,69.33-20.07,11.7,3.72,17-.24,22.1-9.47,5.34-9.74,12.05-17.5,24.66-10.1q18,90.72,36,181.43c4.32,21.56,5.09,43.49,7.08,65.26,3.8,41.6,6.54,83.31,9.42,125,.55,7.88-.29,15.86-.5,23.79-8.22,18.56-16.86,20.34-35,7.26-6.94-7-8.65-16.18-10.61-25.37-10-46.91-18.71-94.1-28.78-141-5.77-26.9-13-53-27.3-77.52-2.17,36.45-16.3,68.57-33.34,99.78-20.74,38-41.65,75.92-61.48,114.41a60.84,60.84,0,0,1-13.13,17.52C3104.64,4144.23,3099.9,4144.94,3085,4133.55Z"/><path class="cls-18" d="M1043.5,2720a11.5,11.5,0,0,0-9.42-.06c-19,7.3-39,10.12-59,13-12.54,1.62-24,1.65-36.19-5.29-15.19-8.64-28,1-29.64,19-1.27,14,4.79,29.75-8.8,41.22-10,4.86-20.05,7.87-30.31.67-9.2-19.46-13.39-39.16-2.78-59.55.1-10,.17-20,.3-29.94.11-8.61-.7-17.29,2.76-25.6a18.86,18.86,0,0,0,1.08-7.85c-.72-15.5,3.53-30,7.06-44.94,5.31-22.48,9.7-45.2,13.6-68,3-17.41,6.89-35.31,21.07-48.39,5-4.65,10-7.64,17.25-8.6,10.41-1.38,20.52-5,30.79-7.48,3.8-.93,5.28-3.61,6.12-7,2.6-3.08,4.84-1.05,7.15.45a41.66,41.66,0,0,1,4,3.83c.64.65,1.25,1.35,1.9,2,7.55,8.14,15.62,15.85,21.89,25.55,2.17-9.94-3.38-21.09,5.74-29.28,4.58,6.44,9.17,11.25,18.22,13.2,17.12,3.69,27.84,17,35.53,32,9.36,18.26,21.85,34.43,32.83,51.59,1,1.54,3.13,2.32,4.73,3.46,1.81,3.51,3.43,7.13,5.46,10.51,3.34,5.55,7.7,7.45,14.78,6.72a406.5,406.5,0,0,0,58.1-10.44c14.46-3.68,14.45-3.75,22.84,9.63,2.34,8.15-.61,12.37-9.2,12.39-16.06,4.09-32.18,7.94-48.15,12.32-14.16,3.88-28.56,6-43.1,7.44-22.37-6.53-34.36-24.41-48.43-41.42-2.09,35.87-6.19,72.72-6.16,109.88C1045.58,2707.4,1048.53,2714.15,1043.5,2720Z"/><path class="cls-19" d="M1036.56,3180.61c.69,1.12,1.33,2.27,2.09,3.34s1.61,2,2.43,3c.84-.8,2.33-1.55,2.41-2.42.39-3.93.34-7.89.5-11.83.14-3.27.35-6.53.51-9.54,4.18-1.62,6.9.26,9.19,2.68,4.07,4.29,8,8.75,11.84,13.23,5.49,6.38,12.26,9.63,20.8,9.37s17.16.52,25.12-3.6c8.28-2.93,16.85-3.38,25.56-3.37q140.71.12,281.42.12c9.88,0,20.1-1.06,29,5.09,8.22,14.54-1.72,26.16-7.18,39q381.84,0,761.83,0c8.65,0,17.3,0,26,.53,10-1.2,19.95-.71,29.93-.71q315.43,0,630.87,0c8.66,0,17.3-.07,25.93.72,12-1.21,24-.7,35.94-.7q384.7,0,769.39-.07c14.73,0,29.34,0,43.08,6.36,2.69.34,5.18,1,6.26,3.89-8,.14-16,.43-24,.43q-1453.18-.21-2906.38-.49c-7.32,0-14.66,0-22-.5-5.52-.41-8.52-3.47-8.72-9.06-.37-10-.27-20-.13-30,.06-4.59,2.59-7.52,7.32-7.78,5.32-.29,10.65-.31,16-.32,24,0,48-.33,72,.11,8.42.16,12.12-3.5,13.2-11.13.88,1,1.79,1.83,2.62,2.8,2.52,3,2.81.43,3.15-1.34.73-3.75-.66-7.95,2.51-11.33,3.82.65,4.58,4.3,5.22,6.8,3.27,12.69,12.07,16,23.81,15.41,8.41-.42,17.19,1.22,24.31-5.17C997.6,3180.57,1017.26,3183.66,1036.56,3180.61Z"/><path class="cls-20" d="M4981.43,2463.71c13.5-47.2,26.08-94.66,36.21-142.7,7.7-36.51,19.1-71.75,32.82-106.34,1.72-4.32,3.51-8.6,5.29-12.89,2.47-6-2.25-6.38-5.87-7.65-.38-5.84,2.64-10.28,6.64-13.78,40.23-35.23,86.19-52.84,140.21-44.77,6.54,1,12.54,3.82,16.4,9.77q4.4,46.61,8.79,93.2c3,31.08,5.95,62.16,9.14,93.21.54,5.25,2.13,10.39,3.24,15.57-1.59,17.47,3.7,34.29,5.06,51.51.93,11.88,4.32,23.55,5.65,35.42a119.1,119.1,0,0,0,19.75,53.69c7.74,11.61,14.62,23.8,21.89,35.73-8.84,16.06-20.33,8.94-28.38,1-16.47-16.23-31.3-34.19-34.1-58.71-16.62-48.71-39.32-95.18-53.49-144.79a631.74,631.74,0,0,1-18.07-77.14c-1.44-8.79-1-18.79-10.44-24.17-3.17,1.15-3.74,4.07-4.67,6.77-.42,1.69-.94,3.29-1.51,4.91-14.93,37.2-40.51,68.3-58.73,103.65-19.13,37.08-39.48,73.54-58.85,110.52-7.22,13.76-8.32,25.22.78,38.65a226.08,226.08,0,0,1,18.65,32.83,21.74,21.74,0,0,1,1.62,5.93,8,8,0,0,1-2.07,5.81c-12.12,7.09-23,4.4-31.77-5.45-9.61-10.74-18.39-22.25-24.87-35.29C4976.62,2479.92,4977.1,2471.77,4981.43,2463.71Z"/><path class="cls-21" d="M3282.18,3737.07c-3.2.74-6.38,1.55-9.6,2.19-5.81,1.17-9.75,4.1-9.69,10.52,0,3.51-.58,6.84-3.61,8.67a119.66,119.66,0,0,1-15.69,8.15c-2.68,1.12-5.08-1.5-6.59-3.48-6.39-8.36-13.75-8-22.74-4.31-15.85,6.47-32.09,12-48.17,17.9-2.5-.6-5.79-.53-6.29-3.7a50.78,50.78,0,0,1-.43-11.88c1.31-16.55,2.68-33.11,4.38-49.63,1.49-14.53,3.29-29,5.31-43.49a19,19,0,0,0-2-11.49c-.88-1.79-1.91-3.5-2.82-5.28-13.5-26.26-13.44-26.25-7.37-54.53,5.71-26.61,12-53.13,16.71-79.91,3.11-17.62,4.37-35.59,9.17-52.92,3.54-12.79,6.9-25.72,16.36-35.82,8.88-1.9,13.11,5.12,18.13,10a587.79,587.79,0,0,1,49.94,54c9.84,10.89,14.91,24.56,21.18,37.33,5.72-.48,8.22-4.76,11.22-8.07,8-8.78,15.57-17.89,23.54-26.66,3.44-3.79,6-8.87,11.8-9.86,9.3,3.75,17.88,8.1,16.65,20.45a20.23,20.23,0,0,1-3.23,11.31c-15,22.76-29.92,45.6-45,68.33-3.68,5.55-7.5,11.4-13.51,14.44-4.87,2.47-6.64,5.63-6.89,10.8-1.1,23.24-4.7,46.31-4.34,69.66.25,16-.62,31.92,3.93,47.55C3283.37,3730.26,3282.34,3733.8,3282.18,3737.07Z"/><path class="cls-18" d="M4681.92,2004.19c4.92-.31,8.81-2.63,12.09-6.18,13-14.13,27.08-27.14,39.39-42.11,15.13-18.41,33-34.57,50.15-51.29a122.56,122.56,0,0,0,20-24.67c7.81-13.09,15-26.53,22.48-39.84s14.64-26.77,22.33-39.94c9.17-15.7,22.87-27.49,35.67-40,4.35-4.26,9.88-6.73,15.72-8.22,9.59-2.45,19.16-5.17,28.89-6.79,13.66-2.27,27.47-3.64,41.21-5.4,15.21,18.2,17.87,41.32,24.67,62.84,3.24,39.82,2.7,79.1-9.41,117.94-11.66,37.39-15.72,76.46-21.15,115.15-1.47,10.48-2.51,21.06-6.95,30.88a22.46,22.46,0,0,1-22.31,9.93c-20.79-3-41.46-7.15-56.35-24.26,14.68-23.74,26.87-48.55,33.64-75.86a74.39,74.39,0,0,0,2.09-17.67c0-6.64-.41-13.32.12-19.92,2.62-32.91-9.41-62.46-20.79-92.16-1.13-3-3.25-5.55-5.18-8.76-9.79,4.71-12.86,14.15-17.63,21.69-8.14,12.86-15.15,26.45-22.17,40a62.86,62.86,0,0,1-11.75,15.9c-13.23,13.06-25.92,26.71-39.66,39.22-15.13,13.78-31.54,26.16-46.73,39.89-11.3,10.22-22.55,20.45-34.6,29.77a17.54,17.54,0,0,1-9,3.89C4698.58,2020.06,4686.76,2015.74,4681.92,2004.19Z"/><path class="cls-22" d="M2770.9,1571.81c-22.11,18.89-45.22,36.73-66.1,56.88a716.32,716.32,0,0,0-110.05,135.48c-10.54,16.84-20.65,34-31,51l-1.77,2.19c-5.92,2.42-10.95-.45-16.11-2.66-12-8.1-26.24-13.28-34.46-26.34q-.33-6.32-.67-12.64c-8.28-13.24-8.33-26.45.15-39.63,17.46-3.37,34.85-6.3,50.43-16.23,18.43-11.74,31.25-28.24,42.54-46.21,20.6-32.78,32.54-69.15,43.08-106,5.07-17.73,10.77-35.3,13.46-53.64.37-2.53,2-4.88,3-7.31,15-13.49,25.12-30.69,35.74-47.45,19-29.93,32.57-62.39,44.08-95.78,1.3-3.77,2.54-7.57,4.09-11.24a3.23,3.23,0,0,1,2.76-1.55,4.79,4.79,0,0,1,2.69,2.63,47.64,47.64,0,0,1,1.91,7.68c6,33.32,10.5,66.78,13.17,100.61,1.83,23.26,2.42,46.43,2.47,69.68,0,9.3.13,18.6-2.07,27.79C2767.27,1563.4,2766.4,1568.28,2770.9,1571.81Z"/><path class="cls-23" d="M5170,1983.39c27.9.57,55.8,1,83.69,1.77,15.87.41,31.72,1.21,46.58,1.79,4,4,2.11,7.25,1,10.13q-21.44,56.89-43.09,113.72c-.71,1.86-1.49,3.69-2.23,5.54-1.92,4.81-5.29,7.13-10.63,7.23-12,.23-23.91.75-35.87,1.27a75.54,75.54,0,0,0-7.86,1.14c-6.64,8.7-16.38,7.64-25.52,7.74-24.52.27-49-.28-73.41,3.56-13.91,2.18-27.75-.2-41-5.5-17.24-6.89-34.65-13.36-51.91-20.2-10-4-26.06-6-24.12-19.39,2.08-14.36,18.05-9.52,28.48-10.05,22.4-1.16,45.09,2.47,67.16-4.33a20.18,20.18,0,0,0,7.06-3.35c15.27-24,20.81-51.84,30.8-77.94C5130.86,1976.46,5143.75,1973.15,5170,1983.39Z"/><path class="cls-3" d="M5094.75,2076.47c-.44,5.56-3.46,8.12-9,8.32-18.54.67-37.06,1.6-55.6,2.24-11.92.42-23.86.4-35.78.79-2.49.09-5.56.29-6.24,3.65-.83,4.1,2.05,6.11,5.14,7.32,17.86,7,35.8,13.84,53.71,20.74,3.09,1.19,6.34,2.09,9.23,3.64,15.86,8.5,32.91,10.15,50.21,7.64,21.11-3.07,42.33-2.25,63.49-3.3q15.87-.8,31.71-1.54c4.62,6,11.42,10.7,11.53,19.38-40.5-13.5-78.83-7-115.44,13.08-17.55,9.64-34,20.91-47.8,35.7-12.5.34-25,.84-37.48,1-13.83.17-27.67-.26-41.5.12a387.83,387.83,0,0,1-65-3.77c-6.54-3.1-13.24-5.89-19.59-9.35-17.62-9.6-27.15-24.29-28.92-44.6-2.71-30.94,3.73-59.37,20.9-85.3,13.39,4.83,26.48,10.44,39.62,15.83,12.49,5.13,24,5.69,35.61-1.32a20.19,20.19,0,0,1,15.23-2.74c23.16,4.49,46,.88,68.91-2.24,10,10.83,20.42,18.74,33.57,4C5081.22,2064.67,5089.08,2068.18,5094.75,2076.47Z"/><path class="cls-24" d="M4926.68,1655.94c-6.34-17.15-9.24-34.62-4.9-52.75,4.85-20.23,15-36.85,33.37-47.48,11.3-6.53,23.66-9.25,36.47-6.53,21.82,4.63,41.62,13.72,57.66,29.67,18.56,18.45,21.18,36.7,9,59.54-1.88,3.52-4.09,6.87-5.73,10.48-4.39,9.62-4.52,19.43.37,28.83a202.75,202.75,0,0,0,11.39,18.67c5.17,7.77,6.33,14.77,1.76,24-10.72,21.71-8.54,30.28,8.6,47.49,7.12,26.64,1.3,37-25.08,44.93a93.41,93.41,0,0,1-21.53-.35,61.42,61.42,0,0,1-23.33-10.62c-16.94-12-22.93-27.76-14.59-46.59,8.67-19.59,5.33-39.3,7-59.07,3.23-37.2-28.73-45.81-42.95-68.1-4.74-7.44-8.15,1-11.16,4.85C4937.26,1640.38,4938.62,1652.91,4926.68,1655.94Z"/><path class="cls-18" d="M5048.74,1808.9c20.55-6.56,24.64-11.76,23.59-31.81-.19-3.64,1.32-6.2,2.3-9.2,12.27,8.66,20.84,19.67,25.08,34.5,3.81,13.33,9.46,26.12,14.16,39.2,13,36.12,26.11,72.2,38.75,108.44,4.21,12,12.53,21.75,17.36,33.36-9.21.12-18.44.69-27.62.22-8.32-.43-14.1,1.61-16.06,10.55-.53,2.45-2.24,4.63-3.41,6.93-23.74-22.07-31.06-52.85-42.4-85-11.94,12.84-11.85,25.94-12.78,38.47-2.34,31.87,3.34,63.37,4.87,95.06.32,6.55,2.52,13.19-2.43,19a11.68,11.68,0,0,1-8,10.51,43.36,43.36,0,0,1-13.42,3c-1.84,0-4.7-3-5.44-5.15-1.26-3.68-1.2-7.8-1.7-11.74-5.68-6-4.73-13.36-4.1-20.64a1660.76,1660.76,0,0,0,4.89-216C5042.09,1821.1,5041.49,1813.77,5048.74,1808.9Z"/><path class="cls-25" d="M2713.52,3586.19c2.72-2,3.66-3.13,4.83-3.49,26-7.89,52.12-15.45,78-23.73,5.79-1.85,10.32-1,15.11,1.62q34,18.67,67.95,37.4c18.07,9.9,36.15,19.79,54.31,29.53q33.39,17.91,66.93,35.56a56.08,56.08,0,0,1,14.38,10.41c-10.41,2.88-13.54,3.29-20,2-18.22-3.51-36.59-5.71-55-7.75-21-2.32-41.81-6.75-62.76-9.91-14.4-2.17-28.85-4.26-43.36-5.41-12.6-1-24.73-4.59-37.46-5.09-10.21-.41-12.83-4.76-13.67-15.77-.3-4-.21-8-.9-11.93-1.59-9.09-5.66-14.24-16-17.07C2748.65,3597.91,2730.86,3594.61,2713.52,3586.19Z"/><path class="cls-26" d="M1691.61,1063.78c-9.12,9.51-17,11.63-23.7,15.57-9.74,5.71-19.59,11.25-29.45,16.74-5.25,2.93-7.56,7.35-7.11,13.19s.86,11.91,1.83,17.78c1.69,10.19,1.86,10.15-8.3,14.11q-83.55,32.55-167.12,65.06c-11.74,4.55-23.64,8.7-35.53,12.85a3.91,3.91,0,0,1-3.48-1.17,3.47,3.47,0,0,1,.59-3.39c16.08-10.87,27.63-26.89,43.24-38.16,6-4.35,11-9.59,16.47-14.4q29.87-26.3,59.85-52.45a53.72,53.72,0,0,0,5.85-5.42c12.59-14.81,30.14-24,43-38.49a17,17,0,0,1,14.26-5.8c15.2.84,30.55-1.79,45.62,3,4.9,1.56,10.56.87,15.87,1C1671.44,1063.87,1679.34,1063.78,1691.61,1063.78Z"/><path class="cls-27" d="M3195,1732.13a16.32,16.32,0,0,1,10.55-8.88c10,.22,19.95.65,29.93.65q345.48.06,691-.07c31.6,0,62.34,4.21,91.84,15.47,80.63,30.79,133.49,87.87,158.06,170.48,6.81,22.89,9.77,46.73,9.72,70.89q-.32,176.84-.08,353.68c0,8.65.18,17.31.27,26-2.88,3.19-6.72,3.61-10.68,3.71-5.6-7.77-3.52-16.71-3.52-25.19,0-110,.53-220-.37-330-.31-37.19-2.08-74.68-15.76-110.23-33.41-86.77-95.16-139.52-187.14-155.46-23-4-46.24-5.16-69.65-5.13q-334.8.36-669.59,0C3217.87,1738,3205.36,1740.86,3195,1732.13Z"/><path class="cls-28" d="M4861.42,1660.16c-2.78.23-3.73.57-4,.29-9.65-11-22-12.65-35.83-12.08-18.55.77-37.17.32-55.75.07-9.19-.12-10.86-1.68-11-10.3q-.37-27.89,0-55.78c.09-7.84,1.91-9.87,9.18-9.92q43.8-.29,87.61,0c7.79,0,9.65,1.9,9.7,9.39C4861.53,1607.68,4861.42,1633.56,4861.42,1660.16Z"/><path class="cls-29" d="M4926.68,1655.94c5.12-10.73,10.06-21.55,15.45-32.14,2-4,3.86-8.65,9.76-9.87,11.48,19.65,28.21,34.66,45.79,48.86,7.42,6,9.25,8.9,4.43,16.52-4.26,6.73-3.91,13.84-1,21,1,2.47,1.34,5.18,2.39,7.6,5.17,11.88,4,23.12-2.16,34.43a108.43,108.43,0,0,0-8.26,20.24c-4.53,14.71-.57,26.23,12.17,34.49,6.64,4.3,14.15,7.27,21.26,10.84,4.18,7.87-.49,12.32-6.54,15.69-5.54,3.08-9.87-.57-14.15-3.63-7.11-5.09-11.26-12.51-15.71-19.71-1.25-2.21-3.15-4.28-3.66-6.66a201.5,201.5,0,0,0-12.89-38.88c-2.13-4.88-4-9.62-3.68-15a19.21,19.21,0,0,0,3.46-13.08c-.41-5-2-9.35-7.65-9.92-13.67-1.36-20.39-10.86-26-21.72C4933.37,1682.68,4930.12,1669.27,4926.68,1655.94Z"/><path class="cls-30" d="M971.62,2484.1l-4.21-2.95c-7.29-5.74-14.53-11.54-21.9-17.18-4.47-3.44-6.58-7.68-7.25-13.43a308.12,308.12,0,0,1-1.84-45.74,66.51,66.51,0,0,1,1.71-11.79c7.83-36.35,40.59-48.4,72.42-34.62,13.37,5.79,19.6,17.26,22.38,31,2.12,19.32-12.57,20.63-24.57,19.74-30.42-2.28-26.67,5.58-26.86,29.59-.1,12.63,3.89,24.76,4.46,37.23.27,6,2.79,16.18-10.12,11.44l.35.33C974.28,2487,973.17,2485.25,971.62,2484.1Z"/><path class="cls-31" d="M3362.7,3410.69c20.9-4.12,41.2-10.07,59.81-20.68,8.07-4.6,15.78-9.84,23.58-14.9,3.35-2.17,6.63-4.34,10.7-4.33,5.6,9,5.51,19.31,7.69,28.93,3.51,15.5,6.69,31.08,9.73,46.68,1.28,6.57-2.61,9.83-9.38,8.66-13-2.25-26-5.25-39.13-6.38-15.87-1.37-31.88-1.06-47.53,2.94C3366.78,3440.33,3368.69,3424,3362.7,3410.69Z"/><path class="cls-32" d="M3267.13,3492c-5.5-1.48-8.67-6-12.39-9.71-13.66-13.64-27.14-27.46-40.81-41.09-4.69-4.66-8.7-10.14-14.87-13.14l7.74-20c1.57-10.31,5.3-20.25,4.55-31-.56-7.9,3-14.19,10.31-17.59,8.67-4.06,13.3,2.28,19.17,9.11,3.53-7,6.42-14.67,15-15.74,8.82-1.11,17.05.21,23.32,7.41-1.15,11.44,2.3,22.25,4.79,33.16.79,3.47,1.3,7.41-1.78,9-8.1,4.2-9.74,12-12.52,19.39-2.91,7.7-7.66,11.57-16.78,9.79-7-1.36-8,.32-9.22,6.55-2.12,11-1.24,20.63,7.66,29.07A57.82,57.82,0,0,1,3267.13,3492Z"/><path class="cls-30" d="M3279.11,3360.26c-8.47-1.21-16.89-3.17-25.52-2.23-4.29.48-7.41,2.55-7.65,7.4-.17,3.29-.19,6.6-.5,9.87-.23,2.45.57,5.88-2.58,6.69-5.13,1.32-4.28-3.28-5.13-6.08-1-3.14-1.61-6.44-3-9.35-1.86-3.78-5.15-6.17-9.58-5.45a10.31,10.31,0,0,0-8.63,7.26,19.12,19.12,0,0,0-.09,9.65c3.18,12.17-1.11,21.72-9.59,30-9.41-15.3-15.87-31.95-22.06-48.71a60.14,60.14,0,0,1-3.11-13.48c-.87-7.26,1.86-13.53,8.7-16.26,7.47-3,13.84-7.65,20.79-11.4,14-7.55,29.13-8,44.48-6.52a21.28,21.28,0,0,1,15.34,8.29C3279.89,3332,3285.18,3345.05,3279.11,3360.26Z"/><path class="cls-33" d="M975.84,2487.36c2.89-.64,7.38.34,6.32-4.9-3.67-18.09-7.38-36.16-7.47-54.72,0-6.59-.06-13.19.31-19.76.28-5,2.61-6.58,7.8-6.26,8.54.54,17.07,1.27,25.61,1.53a79.48,79.48,0,0,0,13.77-.91c8.55-1.22,8.71-1.6,10.74-13,4,3.76,2.9,8.57,2.34,13-2.38,18.85-5,37.68-7.56,56.52-2.34,9.47-6.93,17.08-16.81,20.31l-2.77,4.52c-.22,11.3-.39,22.6-.74,33.9a3.82,3.82,0,0,1-2.06,2.79c-1,.36-3.06.06-3.51-.66C994.47,2507.87,982.31,2499.89,975.84,2487.36Z"/><path class="cls-34" d="M867.38,2729q1.5,25.17,3,50.33c.19,3.24.42,6.46,2.66,9.09,6,11.68,7,23.1-1.75,34-9.1,1.43-18.19,2.95-27.3,4.27-5,.74-7.27-.8-8.16-6.05-4.17-24.66-8.34-49.33-12.15-74-1.33-8.61-.32-9.45,8.93-11.49,6.43-1.42,12.9-2.63,19.34-3.93,3.9-1.94,8.55-.12,12.36-2.5A5.42,5.42,0,0,0,867.38,2729Z"/><path class="cls-35" d="M3085,4133.55c11.26,5.55,21.59,5.7,29.93-5.27a8.31,8.31,0,0,1,6.84-3.29c6,23.16,20.58,38.62,42.46,47.83,7.69,3.24,17.12,6.33,10.8,18.27-8.19,8.41-18.41,6.88-28,4.51-9.72-2.39-19.53-3.58-29.35-5.06-10.61-3.85-22-2.16-32.91-5.47-8.2-2.5-10.66-4.77-10-13.87a74.25,74.25,0,0,1,2.66-15.45C3079.56,4148.24,3082.41,4140.94,3085,4133.55Z"/><path class="cls-35" d="M3303.12,4137.57c4,4.65,8.37,7.39,15.18,5.83s11.5-5.89,15.84-10.86c.57.33,1.43.52,1.66,1,8.32,17.74,25.73,25.19,40.39,35.73,4.53,3.25,9.93,2.71,15.07,3.54,11.45,1.86,12.63,4.62,8.56,18a49,49,0,0,1-17.63,2.6c-21.92-.24-43.85-.28-65.77-.66-4.57-.08-9.11-1.34-13.67-2.05C3293.45,4172.93,3293,4155.21,3303.12,4137.57Z"/><path class="cls-36" d="M4681.92,2004.19c10.14,6,22.18,10.15,24.79,24-10.23,18.72-27.08,32.07-39.65,48.9-1.2,1.61-3.33,2.59-5.08,1.38-2-1.36-.69-3.35.18-5s1.78-3.39,2.84-5.39c-5.39-1.54-6.64,3.26-9.33,5.3-3.13,2.36-5.66,5.5-8.68,8-2.74,2.3-14.23-1.05-15.24-4.6-.45-1.58.29-4,1.31-5.4,4.57-6.38,10.65-11.72,13-19.57l.22.22c-6.83-1.31-9.9,6.23-15.86,6.91-3.65-2.42-1.16-4.61.4-6.22a338.14,338.14,0,0,1,35.3-32.16c4.15-3.22,3.37-6.5-1.63-8.59-4.28-1.79-8.72-3.26-12.8-5.41-1.37-.73-1.86-3.12-2.75-4.74,1.82-.52,3.72-1.64,5.46-1.43C4663.58,2001.48,4672.74,2002.9,4681.92,2004.19Z"/><path class="cls-37" d="M3362.7,3410.69c3.78,1.16,7.19,2.59,8.14,7.14,2.36,11.28,4.88,22.52,7.33,33.78-4.49,1.23-9.05,2.22-13.43,3.75-4.65,1.63-3.18,4.87-1.54,7.95-1.19,11.86-5.83,14.89-15.16,5.92-1.14-7.37-6-9.67-12.74-9.25s-10.17-3.75-10.88-9.19c-4-30.88-14.91-27.34,19.16-35.4C3350,3413.87,3356.33,3412.26,3362.7,3410.69Z"/><path class="cls-38" d="M871.28,2822.4l1.74-34c9.63,1,18.51-3.52,28-3.8,9.47,8.29,18.36,16.77,10,30.86-3.57,4.07-3.77,9-3.82,14.08,0,4.33-.41,8.66-.63,13-2.63-2.51-2.16-6-2.79-9.07-.74-3.66-2.94-5.62-6.65-5.71q-6.81-.16-13.63-.1C878.65,2827.66,874.83,2825.38,871.28,2822.4Z"/><path class="cls-39" d="M3348,3469.23c8.57,3.08,8.57,3.08,15.16-5.92,6.55-.37,11,1.85,13.29,8.67,2.35,7,3.58,13.54.62,20.77-1.52,3.72-1.77,7.84-7.12,7.14-7-.92-12.41,3.22-18.47,5.29l-16.66-20.44C3341.56,3481.53,3342.53,3473.45,3348,3469.23Z"/><path class="cls-40" d="M4372.63,1164.06c.65,2.81-3.13,7.32-5.91,7.18a20,20,0,0,1-7.59-1.48c-17.16-8.44-34.22-17.1-51.29-25.73a11.28,11.28,0,0,1-3.18-2.28c-2.68-2.85-2.23-6-.29-9,1.58-2.41,4.09-3.48,6.79-2.13q29.2,14.56,58.32,29.35C4371.22,1160.86,4372.87,1162.12,4372.63,1164.06Z"/><path class="cls-41" d="M3871.51,1000c21.59,3,41.72,5.73,61.82,8.65,2.82.41,4.23,2.78,4.84,5.55.95,4.34-2.08,8.51-6.07,7.91-20.76-3.12-41.44-6.77-62.52-7.15-3.65-.07-6.09-2.36-6.46-6.15-.25-2.61-.27-5.59,2.4-7A25.45,25.45,0,0,1,3871.51,1000Z"/><path class="cls-42" d="M516.19,3036.37c2.84-9.55,2.85-21.5,4.91-33.11,1.15-6.47,2.37-12.88,3.1-19.43a21.18,21.18,0,0,1,3.57-9c1.45-2.2,4.27-2.73,7.08-2.11a5.17,5.17,0,0,1,4.33,5.73c-1.15,9.76-2,19.66-4.45,29.13a117.62,117.62,0,0,0-3.21,25.39,33.34,33.34,0,0,1-1.1,7.78c-1.22,4.22-4.17,6.63-8.7,6.49C518.09,3047.17,515.91,3043.55,516.19,3036.37Z"/><path class="cls-40" d="M2236.39,3475.92c-5.37.55-11.27,1.27-17.19,1.75-3.93.31-6.06-2.15-7-5.61-.86-3.19,1.62-7.17,4.88-7.25,20.47-.46,40.51-6.4,61.14-4.66,3.24.27,6.86-.58,9.43,1.94,1.18,1.16,1.71,3.31,1.87,5.08.1,1-.92,2.41-1.81,3.2a5.86,5.86,0,0,1-3.49,1.56C2268.33,3471.76,2253,3477.79,2236.39,3475.92Z"/><path class="cls-43" d="M2288.94,779.91c-10,0-20,.1-29.93,0-3.48-.06-6.69-1.38-7.09-5.42s2.31-6,6-6.34q26.74-2.19,53.51-4.1a42.78,42.78,0,0,1,9.91.58c3.89.65,5.27,3.59,5.16,7.26s-1.83,6.75-5.66,6.86c-10.62.3-21.25.1-31.88.1Z"/><path class="cls-44" d="M865,3579.87c2.54.45,5.25.56,7.7,1.42a488.54,488.54,0,0,0,53.15,15.45c3.92.91,5.49,3.73,4.68,7.33-.76,3.36-2.92,6-7,5.47a48.62,48.62,0,0,1-7.79-1.45q-26.55-7.77-53-15.75a13.9,13.9,0,0,1-5-2.88,4.27,4.27,0,0,1-1.28-3.49c.48-1.75,1.4-3.81,2.8-4.78S863,3580.29,865,3579.87Z"/><path class="cls-42" d="M1678.23,3595.73c3.31-.85,5.22-1.68,7.17-1.77,2.94-.13,4.92,1.38,5.43,4.5.45,2.75.14,5.34-1.95,7.3a7.46,7.46,0,0,1-3.47,1.76q-31.22,6-62.47,11.75a5.3,5.3,0,0,1-6.35-3.44,6.58,6.58,0,0,1,1.36-7.39,14.24,14.24,0,0,1,6.83-3.62C1643,3601.55,1661.34,3598.56,1678.23,3595.73Z"/><path class="cls-43" d="M1329.63,3648.2c-5.48-.5-9.5-.55-13.37-1.33-2.8-.57-4.18-3.09-4.37-5.93-.24-3.6.94-6.61,4.66-7.75a21.27,21.27,0,0,1,5.91-.71c18-.15,35.9-.29,53.84-.27a27.93,27.93,0,0,1,7.68,1.44c2.28.67,2.78,3.06,2.45,4.84a9.51,9.51,0,0,1-3,4.65,5.86,5.86,0,0,1-3.75,1A265.58,265.58,0,0,0,1329.63,3648.2Z"/><path class="cls-44" d="M1752.72,967.39c.66,4.69-2.42,6.32-5.18,8q-22.77,14-45.59,27.9c-2.24,1.37-4.43,3-6.87,3.79-1.69.54-3.86.07-5.69-.4-3.27-.85-4.83-5.59-2.76-7.91a14.73,14.73,0,0,1,2.75-2.82c17.84-11.29,35.65-22.62,53.64-33.66A6.37,6.37,0,0,1,1752.72,967.39Z"/><path class="cls-43" d="M3633.43,1010.38a4.43,4.43,0,0,1-3.31,4.5,119.42,119.42,0,0,1-15.3,4c-16.19,2.81-32.42,5.37-48.65,7.95-2.78.45-5.34-.35-6.52-3.11A6.89,6.89,0,0,1,3562,1015a13,13,0,0,1,5.25-2.55c16.18-2.91,32.36-5.84,48.61-8.31a47.26,47.26,0,0,1,13.78.44C3632.39,1004.94,3633.83,1007.44,3633.43,1010.38Z"/><path class="cls-44" d="M4629.18,1335.69c-1.06,1.82-1.68,3.87-3.06,5a9.94,9.94,0,0,1-5.35,1.8c-1.11.08-2.44-1-3.46-1.74q-25.17-19.54-50.25-39.18c-3.25-2.55-3.29-7.22.07-10.36,1.25-1.16,3.95-2.32,5.11-1.74A70.67,70.67,0,0,1,4584,1297q21.11,16.65,41.93,33.67C4627.29,1331.79,4628,1333.81,4629.18,1335.69Z"/><path class="cls-40" d="M2467.16,791.71c-9.16-1.41-18.38-2.51-27.45-4.33-9.78-2-19.48-4-29.51-4.24-4.66-.13-7-3.47-6.75-8,.25-3.83,2.49-6.87,6.16-6.26,20.9,3.45,42.08,5.32,62.61,10.91,3.53,1,6.3,2.54,6,6.53s-3.42,5.27-7,5.43C2469.82,791.77,2468.49,791.71,2467.16,791.71Z"/><path class="cls-44" d="M2701.57,863.94a52.1,52.1,0,0,1,6.37,2.54c16.39,8.69,32.77,17.4,49,26.36a11.91,11.91,0,0,1,4.78,5.85c.54,1.36-.7,3.68-1.66,5.25a4.88,4.88,0,0,1-3.3,1.87,7.14,7.14,0,0,1-3.76-1c-18.91-9.61-37.78-19.3-56.69-28.92-2.68-1.37-4.21-3.5-3.26-6.3C2694.19,866.27,2696.73,864.16,2701.57,863.94Z"/><path class="cls-45" d="M1831.82,3559.9c1.89.49,4,.6,5.62,1.54,2.27,1.31,4.07,3.27,3.74,6.32-.25,2.33-1.88,3.25-3.82,3.82-4.41,1.28-8.81,2.6-13.27,3.72q-23.83,6-47.72,11.86c-3.33.81-6.63.69-8.21-3.16-1.51-3.65.4-8.54,4.4-9.69,12-3.44,23.94-7.1,36.14-9.4C1816.43,3563.45,1823.56,3559.07,1831.82,3559.9Z"/><path class="cls-44" d="M3029.4,1047c-1.31,0-2.79.41-3.9-.06q-28.22-12-56.34-24.32a11.21,11.21,0,0,1-3.14-2.37c-2-2-2.84-4.39-1.47-7.1,1.26-2.5,3.24-4.32,6.15-4.06a18.08,18.08,0,0,1,5.58,1.78c16.27,7.27,32.55,14.54,48.75,22a28.91,28.91,0,0,1,8.09,5.42c1,1,1,3.71.55,5.46A4.06,4.06,0,0,1,3029.4,1047Z"/><path class="cls-46" d="M1195.61,3644c-8.64,0-17.28.21-25.9-.1a25.47,25.47,0,0,1-9.41-2.38c-1.43-.65-2.48-3-3-4.72-.81-3,1.23-5.14,3.5-6.5a15.11,15.11,0,0,1,11.62-1.38c16.32,4.33,33,2.74,49.5,3.35a31.38,31.38,0,0,1,9.62,1.59c1.33.48,2.64,3.11,2.57,4.7a6.25,6.25,0,0,1-3,4.61,19.67,19.67,0,0,1-7.7,1.31c-9.3.14-18.6.06-27.9.06Z"/><path class="cls-43" d="M1522.91,3619.81c4.51.37,8.53.32,12.33,1.2,1.39.33,2.85,2.68,3.28,4.37a4.65,4.65,0,0,1-3.65,6c-9,1.72-18.13,3.63-27.28,4.36-11.82.93-23.7.66-35.35,3.65-4.58,1.18-7.91-1.91-8.31-6.21s2-8.3,6.42-8.22C1488.25,3625.3,1505.71,3621.06,1522.91,3619.81Z"/><path class="cls-42" d="M2129.09,3480.34c1.33.39,3.49.54,5,1.61s3,3,3.22,4.67a5.88,5.88,0,0,1-2.48,4.73,37.15,37.15,0,0,1-9.3,3.29q-26.84,6.41-53.74,12.55c-3.44.79-6.66.28-7.83-3.75-1-3.57.3-6.51,3.35-8.46a18,18,0,0,1,5.4-2.27q25.89-6.15,51.84-12.1A30,30,0,0,1,2129.09,3480.34Z"/><path class="cls-47" d="M1920.54,3547.91c-1.39-1.09-3.36-1.94-4.18-3.42a5.38,5.38,0,0,1,1.48-7.08,21.27,21.27,0,0,1,6.89-3.76c18.32-5.33,36.71-10.46,55.08-15.62,2.69-.76,5-.41,6.94,2,3.39,4.25,2.25,9.59-2.92,11-15.83,4.46-31.71,8.74-47.59,13C1931.18,3545.48,1926.06,3546.59,1920.54,3547.91Z"/><path class="cls-44" d="M2834.54,936.7a31.09,31.09,0,0,1,5.26,1.87q26.73,15.07,53.35,30.34a9.3,9.3,0,0,1,2.79,2.73c1.87,2.68.31,5-1.11,7.22-1.13,1.75-2.8,3-5,2-7.72-3.73-15.51-7.35-23-11.49q-18.2-10-36-20.74c-3.77-2.26-3.58-7.56-.08-10A28.43,28.43,0,0,1,2834.54,936.7Z"/><path class="cls-42" d="M1823,930.26c-1.19-1.06-2.89-2.1-3.92-3.61-1.51-2.21-2.48-4.89-.42-7.28a16.75,16.75,0,0,1,4.69-3.61q24.56-13.29,49.2-26.42a54.4,54.4,0,0,1,5.46-2.44c3.81-1.54,6.37.05,8,3.48s.73,6.65-2.39,8.67c-3.34,2.16-7,3.77-10.55,5.65q-22.9,12.16-45.81,24.31A23.59,23.59,0,0,1,1823,930.26Z"/><path class="cls-44" d="M2625.07,833.73c-1,2.46-2.83,4.51-5.59,4.81-1.84.19-3.89-.61-5.71-1.3q-28.82-10.89-57.59-21.89c-2.89-1.1-4.2-3.08-3.29-6.06a7.24,7.24,0,0,1,5.69-5,11.06,11.06,0,0,1,5.87.42q27.84,10.6,55.56,21.54C2623.06,827.44,2626,829.37,2625.07,833.73Z"/><path class="cls-47" d="M3284.49,1091.88c-5.27,0-10.54.09-15.8,0-4-.1-8.08-.3-9-5.47-.68-3.73,2.09-6.41,7.86-6.48,20.42-.26,40.44-4.07,60.65-6.27,2.74-.3,5,.77,5.84,3.91,1.12,4.45-.73,8.83-4.55,9.4q-17.52,2.57-35.1,4.65c-3.24.39-6.58.06-9.87.06Z"/><path class="cls-42" d="M527.86,3168.56c0,11.16.15,17.78-.06,24.4-.11,3.66-2,6.35-6,6.28-2.87,0-5.21-1.89-5.29-4.81-.54-19.81-6.3-39.22-4.58-59.2a41.23,41.23,0,0,1,.59-5.91,5.12,5.12,0,0,1,5.69-4.3c2.9.19,5,1.73,5.36,4.76C525.46,3144.17,529.16,3158.39,527.86,3168.56Z"/><path class="cls-47" d="M4504.64,1244.43c.41,2.47-3.89,6.83-6.41,6.3a17.05,17.05,0,0,1-5.52-1.85q-25.2-15.78-50.25-31.81a8.89,8.89,0,0,1-3.52-4.59,7.34,7.34,0,0,1,.73-5.58,7,7,0,0,1,4.92-2.46,10.44,10.44,0,0,1,5.48,1.9q25.08,16,50,32.19C4502.22,1239.92,4504.85,1241.14,4504.64,1244.43Z"/><path class="cls-44" d="M4167.48,1071.72c2.44.2,4.56-.07,6.32.6,18.44,7,36.87,14.09,55.18,21.43,3.11,1.25,5.12,4.12,4,8s-5.14,5.74-9.53,4.08q-25.84-9.81-51.59-19.83a27,27,0,0,1-6.89-3.78,5.29,5.29,0,0,1-1.48-7C4164.34,1073.67,4166.23,1072.75,4167.48,1071.72Z"/><path class="cls-42" d="M3168.52,1087.69c-8.09-1.6-19.17-3.54-30.14-6-9-2-18.44-2.51-27-6.49-2.75-1.27-4.11-3.35-3.78-6.19a5.27,5.27,0,0,1,5.2-5,22.82,22.82,0,0,1,5.95,0c19.46,4,38.9,8.08,58.34,12.14,2.95.62,4.71,2.48,4.79,5.42.1,4.13-2.69,5.63-6.31,6.08a16.38,16.38,0,0,1-2,.09C3172.9,1087.7,3172.23,1087.69,3168.52,1087.69Z"/><path class="cls-47" d="M3482.62,1041.72c-1.19,1.81-1.88,4.16-3.34,4.84a116.57,116.57,0,0,1-13.08,4.76c-15.11,5-30.22,10-45.38,14.85-5.5,1.77-8.9.31-9.6-3.51-.87-4.71,1.4-8,5.42-9.41,18.77-6.51,37.51-13.17,57-17.31a8.39,8.39,0,0,1,5.67,1C3480.76,1037.79,3481.45,1039.91,3482.62,1041.72Z"/><path class="cls-47" d="M2384.61,3464.26c14.58,2.63,33.4,5.87,52.14,9.53a6.17,6.17,0,0,1,4.87,7.55c-.75,3.46-3.33,5.89-7.16,5.43s-7.7-1.75-11.6-2.42q-24.34-4.17-48.72-8.19c-3.55-.6-6.49-2.09-6.43-6.09s3-5.5,6.62-5.79C2376.3,3464.13,2378.3,3464.26,2384.61,3464.26Z"/><path class="cls-47" d="M1960,862.15c-3-.29-4.78-4.57-4.25-6.79a10,10,0,0,1,6.41-7.12c19.13-7.67,38.33-15.16,57.52-22.68,2.85-1.12,5.24-.29,6.5,2.52a6.54,6.54,0,0,1-1.32,7.42,20,20,0,0,1-6.58,4.32q-26.8,10.84-53.73,21.36A21.41,21.41,0,0,1,1960,862.15Z"/><path class="cls-44" d="M2585.75,3533.59a14.88,14.88,0,0,1-3.24,1.86c-3.27,1.29-6.51.54-9.63-.81q-26.48-11.44-52.91-22.92c-1.17-.51-2.67-1.24-3.08-2.24a11.6,11.6,0,0,1-.75-5.53c.13-1.08,1.43-2.78,2.33-2.86,3.22-.31,6.87-1,9.69.17,17.81,7.18,35.46,14.76,53.13,22.32C2584.48,3525,2586.82,3527.2,2585.75,3533.59Z"/><path class="cls-44" d="M2167.52,783.68c-1.42-.09-.09-.09,1.2.1,2.81.41,4.9,1.79,5.38,4.79s-.71,5.41-3.51,6.16c-7,1.87-14.07,3.19-21.06,5-14,3.57-27.91,7.3-41.86,11-2.82.74-5.53.06-6.91-2.36-1.75-3.08-1.19-6.36,1.45-8.95a7.93,7.93,0,0,1,3.24-2.17q27.68-6.84,55.4-13.47C2162.1,783.42,2163.48,783.68,2167.52,783.68Z"/><path class="cls-42" d="M723.12,3513.46c1.26.29,2.71.27,3.74.92A616.06,616.06,0,0,0,782,3545.54a8,8,0,0,1,2.75,2.75c1.8,2.67.36,5-1.08,7.24-1.13,1.73-2.72,3-5,2-20.44-9.29-40.63-19.06-59-32.22a5.79,5.79,0,0,1-2.35-6.92A7.62,7.62,0,0,1,723.12,3513.46Z"/><path class="cls-43" d="M1079.12,3628.65c.16,3.59-1.22,5.65-4,6.58a9.3,9.3,0,0,1-3.91.46q-30.45-3.9-60.89-7.94c-3.75-.5-5.93-2.64-5.8-6.63.15-4.45,3-6.8,8-6.41,19.11,1.53,37.89,6,57.17,6.27C1075.58,3621.06,1078.62,3624.53,1079.12,3628.65Z"/><path class="cls-47" d="M579.92,2831.86c-.63,2.24-1.4,5.45-2.42,8.57-4.71,14.46-9.37,28.94-14.34,43.32a39.71,39.71,0,0,1-5.58,10.35c-.82,1.12-3.71,1.51-5.3,1a6.33,6.33,0,0,1-3.8-3.82,15.12,15.12,0,0,1,.19-7.79c5.58-17,11.4-33.92,17.23-50.83a20.31,20.31,0,0,1,2.78-5.27,6,6,0,0,1,6.86-2.58C578.61,2825.68,579.34,2828.13,579.92,2831.86Z"/><path class="cls-44" d="M611.74,3412.61a12,12,0,0,1,4.07,1.91c3,2.62,6.07,5.33,8.21,8.59,7.34,11.22,17.28,20,26.4,29.62a80.6,80.6,0,0,1,7.75,9c1.69,2.42.66,5-1.32,7.12s-4.83,3.29-7,1.54a124.92,124.92,0,0,1-14.6-13.36c-9.36-10.26-18.39-20.83-27.36-31.44a22.12,22.12,0,0,1-3.45-7C603.49,3416,607.58,3411.89,611.74,3412.61Z"/><path class="cls-44" d="M542.54,3276.7c2.6.24,4.08,2.14,5,4.8,2.89,8.05,5.71,16.13,8.89,24.07,3.91,9.78,8.23,19.39,12.19,29.14a16.69,16.69,0,0,1,1.49,7.44c-.16,1.54-2.07,3.45-3.65,4.16s-4.13.74-5.4-.16a14.06,14.06,0,0,1-4.9-5.94q-10.1-25.71-19.61-51.66c-.85-2.32-.64-5.23-.23-7.75C536.85,3277.87,539.23,3276.68,542.54,3276.7Z"/><path class="cls-45" d="M4021.56,1027.83c2.79,0,4.18-.27,5.43,0,19.22,4.86,38.69,8.84,57.34,15.79,2.74,1,5,2.63,4.4,5.56a6.86,6.86,0,0,1-7,5.88,31.79,31.79,0,0,1-7.69-1.49q-25.87-6.87-51.73-13.85c-1.86-.51-4.07-1-5.29-2.23s-1.5-3.43-1.55-5.23a4.25,4.25,0,0,1,2-3.11A16.89,16.89,0,0,1,4021.56,1027.83Z"/><path class="cls-48" d="M3747,1007.18c-10.64,0-21.29.26-31.91-.18-2.58-.11-4.3-3.24-3.42-6.12.51-1.67,2.16-4.14,3.44-4.24a507.7,507.7,0,0,1,65.85-.36c2.92.16,4.7,2.57,4.69,5.45s-1.79,5.36-4.71,5.42c-11.31.23-22.62.09-33.94.09Z"/><path class="cls-49" d="M1010.89,2479.18c.37-1.25.34-3.18,1.16-3.64,6.93-4,10.12-11.42,15.65-16.67.61,3.92.87,8,1.91,11.76,3.68,13.39,2.78,16.85-13,10.29A57,57,0,0,0,1010.89,2479.18Z"/><path class="cls-11" d="M1595.4,1575.93c-7.4,5.24-8.6,4.91-12.17-3.42Z"/><path class="cls-14" d="M1995.36,1503.74c-4.4.18-8.92.75-12.06-3.45C1987.8,1499.76,1992.07,1500,1995.36,1503.74Z"/><path class="cls-18" d="M864.3,2728.65c-3.69,3-7.9,3.36-12.36,2.5C855.44,2727.24,859.84,2727.81,864.3,2728.65Z"/><path class="cls-14" d="M1926.57,1419.71c-2.85-2-3.44-4.89-3.17-8.11C1926.29,1413.59,1927,1416.42,1926.57,1419.71Z"/><path class="cls-14" d="M1976,1499.39c-3.37.5-6.44.1-8.69-2.84C1970.72,1496,1973.7,1496.68,1976,1499.39Z"/><path class="cls-11" d="M1679.31,1528.14c-1.79,2.95-4.62,3.76-7.83,3.75C1673.3,1529,1676,1527.92,1679.31,1528.14Z"/><path class="cls-14" d="M1956,1495.43c-3.85.39-7.14-.24-8.42-4.58Z"/><path class="cls-14" d="M1930.36,1431.68c-2.72-2-3.26-4.82-3.09-7.94A7.65,7.65,0,0,1,1930.36,1431.68Z"/><path class="cls-14" d="M1946.84,1487.77c-3.07-2.11-3.69-5.16-3.27-8.6C1946.4,1481.37,1947.23,1484.34,1946.84,1487.77Z"/><path class="cls-14" d="M1942.33,1471.69c-2.71-2-3.24-4.84-3.06-8A7.63,7.63,0,0,1,1942.33,1471.69Z"/><path class="cls-14" d="M1938.56,1459.72c-2.89-2.06-3.43-5-3.13-8.29C1938.22,1453.53,1939,1456.38,1938.56,1459.72Z"/><path class="cls-14" d="M1934.85,1447.76c-3.09-2.14-3.69-5.2-3.24-8.67C1934.45,1441.32,1935.25,1444.32,1934.85,1447.76Z"/><path class="cls-14" d="M2007.9,1507.45c-3.4.43-6.46-.08-8.61-3.11C2002.69,1503.91,2005.65,1504.7,2007.9,1507.45Z"/><path class="cls-11" d="M1599.35,1572.72l-3.87,3.16Z"/><path class="cls-22" d="M2775.15,1569.05a4.07,4.07,0,0,1-4.26,2.77A4.38,4.38,0,0,1,2775.15,1569.05Z"/><path class="cls-11" d="M1611.35,1564.64l-3.85,3.25A4.33,4.33,0,0,1,1611.35,1564.64Z"/><path class="cls-11" d="M1619.47,1560.13l-4.74,3.41Z"/><path class="cls-11" d="M1623.33,1556.87l-3.63,3.09A3.88,3.88,0,0,1,1623.33,1556.87Z"/><path class="cls-11" d="M1631.35,1552.45l-4.32,3.24Z"/><path class="cls-11" d="M1639.46,1548.14l-4.86,3.34Z"/><path class="cls-11" d="M1643.3,1545.1l-3.58,2.87C1640.31,1546.27,1641.35,1545.11,1643.3,1545.1Z"/><path class="cls-11" d="M1651.31,1540.91l-3.85,2.95Z"/><path class="cls-11" d="M1659.31,1536.88l-4,2.94Z"/><path class="cls-11" d="M1667.3,1533l-3.9,2.88Z"/><path class="cls-11" d="M1687.32,1524.39a5.37,5.37,0,0,1-4.76,3.06Z"/><path class="cls-11" d="M1695.3,1520.78l-4.37,2.86Z"/><path class="cls-14" d="M2044,1519.48l-4.71-2.75Z"/><path class="cls-14" d="M2032.25,1515.36l-5-2.74A5.36,5.36,0,0,1,2032.25,1515.36Z"/><path class="cls-14" d="M2020.25,1511.36a5.29,5.29,0,0,1-5-2.69A5.29,5.29,0,0,1,2020.25,1511.36Z"/><path class="cls-8" d="M4774,2332.67l-4.31,3A4.09,4.09,0,0,1,4774,2332.67Z"/><path class="cls-11" d="M1607.42,1568l-4.76,3.56Z"/><path class="cls-50" d="M5298,4190.32c-7.27.43-14.53,1.23-21.8,1.24q-270,.1-540.06,0c-7.27,0-14.55-.7-21.81-1.07q.4-22.35.81-44.68c15.14-2.57,29.38-8.22,43.78-13.25,40.13-14,80.1-28.45,118.08-47.81A332.76,332.76,0,0,0,4916.1,4061c17.8-12.44,25.95-29.07,25.91-50.86-.05-28.74-4.37-56.9-9.54-85-13.84-75.17-34.29-148.72-55.18-222.16-2.18-7.64-4-15.39-6-23.09,8.35-7.61,18.75-5.58,28.47-5.62,61.73-.22,123.46,0,185.19-.15,25.16-.05,26.08-.82,31.12-25.86,4.84-24.09,10.59-48,15.44-72.08,2.39-11.82,7.94-22,19.89-25.31,29.27-8.22,56.87-22,87.33-26.2a5.34,5.34,0,0,0,3.24-.93c2.31-1.92,5.9-1,7.93-3.56L5254,3519a11.78,11.78,0,0,0,4.19-2.73l16.51-5.65c4.92,2.89,5.74,7.63,7.29,11.9a266.76,266.76,0,0,1,15.94,91.92q-.28,274.93-.08,549.87C5297.82,4173,5297.92,4181.66,5298,4190.32Z"/><path class="cls-51" d="M3790.17,3499.1c-7.32.28-14.63.79-21.94.8q-87,.1-173.93,0c-5.32,0-10.66,0-16,.35-3.87.23-6,2.47-5.67,6.52.85,9.95,1.56,19.92,2.73,29.84,2,17.19,4.62,34.3,6.44,51.5,3.28,31.11,6,62.29,9.27,93.4,3.24,30.43,7.15,60.79,10.46,91.22s6.09,60.94,9.35,91.38,6.88,60.83,10.24,91.25c1.83,16.54,3.47,33.1,5.16,49.66q6.63,64.54,13.25,129.11c.69,6.58,3.48,13,2.12,19.72-.35,1.74-1.6,4-3.07,4.69-7.16,3.56-15.26-.11-16.86-7.48a143,143,0,0,1-2.75-15.73c-4.42-43-8.46-86.11-13.1-129.11s-10-85.92-14.7-128.91c-3.27-29.77-5.81-59.61-9-89.39-3.35-31.09-7.22-62.12-10.62-93.21-1.59-14.55-2.65-29.14-4.38-43.7-5-42.29-8.57-84.75-13.35-127.07-1.49-13.24-3.7-26.38-3.6-39.75,0-4.65,2.42-7.42,7.2-7.69,3.32-.19,6.65-.25,10-.25q112,0,223.91,0c3.31,0,6.63.45,10,.69C3804,3487.64,3796.8,3493.22,3790.17,3499.1Z"/><path class="cls-52" d="M3790.17,3499.1c1.82-8.31,7.66-14.6,11.12-22.08,7.31-.24,14.62-.69,21.94-.69q335.86-.06,671.72,0c4,0,8-.11,12,0,9.85.35,11.12,1.66,11.79,11.76s-.58,11.38-10.92,11.73c-4.66.16-9.33.06-14,.06q-340.86,0-681.72,0C3804.79,3499.85,3797.48,3499.36,3790.17,3499.1Z"/><path class="cls-53" d="M4106.09,3924.35c-26.94.74-42.84-13.75-55.69-32.49-8-11.61-12.53-25-14.91-38.81-4.32-25,3.63-59.44,30.54-77.49,16.65-11.17,35.37-10,53-.24s29.45,24.7,35.42,43.82c3.33,10.7,6.83,21.78,7.36,32.83a75.57,75.57,0,0,1-17,51.8c-2.07,2.58-4.75,4.67-7,7.15C4128.79,3921.05,4117.72,3926,4106.09,3924.35Z"/><path class="cls-54" d="M2083.9,1838.16q53.49-20.31,107-40.62c4.89-1.86,9.62-4.5,15.12-2.35,12.67,2.53,17.69,13.35,23.93,22.57,45.36,67.11,71.68,142.52,94.23,219.38,36.33,123.79,54.74,250.92,68.68,378.83,5.41,49.65,11,99.36,7.39,149.36-4.59,64.36-9.56,128.71-16.68,192.84-1.87,16.87,3.12,24.55,19.27,28,31.91,6.81,63.06,16.6,94.45,25.44,34.21,11,69,20.15,102.27,34.09,7.88,3.3,16.75,5.7,18.63,16.08-2.78,21.37-17.29,37.11-27.2,54.92-20.07,36-41.79,71.18-61.62,107.41-24.08,44.47-24.09,44.51-72.09,32.44-27.68-7-55.67-12.88-82.94-21.26-16-4.91-20.93,0-22.86,15.69-4.79,38.87-9,77.82-14.31,116.63-1,7.19-1,14.7-6.69,20.42-9.75,7.76-21.38,6.49-32.59,6.58-51.27.42-102.53-.57-153.8-.64-41.48,1.19-83,.57-124.47.29a60.61,60.61,0,0,1-21.3-3.73c-16.92-11.88-17.76-21.45-.7-29.78,14.31-7,26.4-17.11,40.26-24.55,27-5.47,25.85-5.54,27.43-33.46,4.48-79.07-13.8-155.85-22-233.64-3.15-29.66-10.77-58.85-9.58-89,6.25-15.79,8.36-31.56,2.37-48.25-4.15-11.58.66-22,7.34-31.72,16.2-23.5,30.78-48.08,46.7-71.75,11.11-16.51,13-32.26,4.25-50.4-13.54-28.08-25.46-56.94-38.15-85.41-12.14-27.26-30.66-43.93-59.67-49.9-11.73-2.41-23.57-5.69-28.21-19.09-2.52-10.5,1.9-19.67,5.81-28.83s8.05-18.29,10.72-28c7.93-28.76,2-39.55-26.11-46.94-24.71-6.51-41,3.68-46.5,29.83-5.14,24.52-7.51,48.93,7.71,71.41a14.23,14.23,0,0,1,1.88,11.56c-6,11.41-18,13.41-28.31,16.91-30.61,10.36-48,28.77-52.17,62.84-5.28,42.85-13.41,85.64-28.71,126.44-3.66,9.76-5.5,20.88-15.53,27.11-15.07,1.89-28.84-4-42.66-8.22-13.6-4.18-19.59.18-22.59,13.46-5.27,23.36-10.81,46.69-17.34,69.73-3.94,13.93-.63,21.6,14.19,24.07,7.77,1.3,15.75,3,22.12,8.43,10.83,24.14,24.81,27.67,47.57,11.94,20,3.17,41.46,2.18,56.68,19.41,2,25.32.13,50.31-6.7,74.84a11.25,11.25,0,0,1-6,2.93c-4.48.29-8.72-1-13-2.13-41.66-13.41-82.89-28.08-123.33-44.89-7.12-3-15.71-4.13-19.15-12.78-3.05-5.55-2.44-11.61-2.44-17.58q0-156.78-.15-313.55c0-10.15,2.75-19.72,3.74-29.61,3.59-14.15,7.89-28.16,10.67-42.48,12.07-62.08,28-123.25,42.57-184.75,4.27-18.1,8.76-36.15,13.15-54.23-4.07-7.2-1.28-14.36.45-21.37,15.36-62.14,32.25-123.81,52.67-184.54,9.09-27.05,24.17-44.75,51.73-55.89,68-27.49,136.83-52.53,205.27-78.73C2070.75,1837.65,2077.11,1835.15,2083.9,1838.16Z"/><path class="cls-50" d="M1686.9,2822.75c47.49,19.53,96.09,36.05,144.37,53.43,2.58,2.49,6.19,2,9.22,3.17a2.53,2.53,0,0,1,2.78.75c13.87,8.34,10.68,22.34,9.76,34.25-5.37,69.71-6.46,139.7-13.71,209.27-.42,4-.47,8-.64,11.94.78,19.84-13.72,25.87-28.74,29.9-14.45,3.87-29.41,5.71-29.86,25.5-8.75,4.3-18.15,3.74-27.41,3.75q-137.42.16-274.84,0c-10.49,0-21.46,1.3-30.39-6.48-8-.18-15.92-.52-23.88-.52q-145.44,0-290.88,0c-7.11,0-14.69,2-21.22-2.84,2.62-16.82,1.87-19.48-12.17-24.34-7.49-2.6-12.73-6.59-16.81-13a117.86,117.86,0,0,0-9.3-13c-5.8-6.87-9.72-13.34-4-22.67,2.18-3.52,1.09-9.11,1.32-13.76,1.54-30.59,2.88-61.19,4.59-91.77,2.22-39.88,4.52-79.76,7.24-119.6.61-8.87-.8-17.15-3-25.55q-17.67-67.56-35.13-135.19a43.09,43.09,0,0,1-.74-5.93,139.42,139.42,0,0,1-1.21-62.5c2.9-14.32,1.24-29,1.27-43.48,0-9.38,1-18.32,5.51-26.65,1.25.2,2.92-.06,3.67.66,8.16,7.7,16.74,15.05,24,23.51,7,8,17.55,11.81,23.37,20.95q0,128.79-.13,257.57c0,19.4,4.54,36.71,18.39,51,11.21,11.61,24.92,17.33,40.73,18.5,4.63.35,9.31.14,14,.14h439c10.63,0,21.15,0,31.47-3.78,24.84-9.19,39.92-29.32,40.44-55.91.38-19.29,0-38.6.18-57.9C1684.27,2835.63,1683,2828.8,1686.9,2822.75Z"/><path class="cls-55" d="M1398.6,2560.88c-6.15.21-12.14-.45-16.69-5.08-4.92-5-10.88-4.84-16.76-3.36-20,5-39.86,10.49-59.81,15.65-5,1.29-8.19,3.78-9.27,9.1-2.22,11-8.79,17.8-20.2,18.88-5.71.54-7.67,4-9.33,8.75-4.82,13.83-10.09,27.49-15,41.29-8.49,23.82-16.74,47.73-25.38,71.5-1.53,4.2-2.13,9.24-6.73,11.78a2.77,2.77,0,0,1-1.92.39c-.51-.17-.92-.9-1.2-1.47-1.28-2.62-.44-5.13.45-7.64,6.25-17.56,12.42-35.15,18.71-52.69,7.64-21.3,15.27-42.61,23.13-63.83,2.51-6.79,1.77-12-2.7-18.26-6.66-9.29-5.48-17.61,1.15-25.56,7.08-8.48,17.2-12,26.71-5.81,11,7.18,20.88,5.84,32.17,2.49,16.56-4.92,33.4-8.87,50.17-13,5-1.24,8.21-3.59,9.42-8.91,1.93-8.5,7.64-14.08,15.71-16.66,7.55-2.41,10-8.24,11.62-14.84,9.09-36.1,18-72.24,27.26-108.3,1.46-5.72,1.05-10.41-3.18-14.67a23.69,23.69,0,0,1-3.45-4.87c-3.87-6.78-5.07-13.65-.73-20.79,4.91-8.08,11.72-12.61,21.45-11.73,2.63.24,6-.08,7.71,1.41,8.25,7.43,15.79,3.42,23.74-.35s15.78-7.1,23.83-10.27c9.09-3.59,16-7.85,16.42-19.56.27-7.77,7-12.59,14.59-14.68,6.18-1.7,8-6,8.8-11.76,4-28.29,8.36-56.54,12.59-84.8a5,5,0,0,1,.35-2c3.28-5.06-1-14,8.18-16,5.08,5.74.35,11.36-.46,16.88-3.66,25-7.74,49.91-11.65,74.85-.31,2-.51,4-.71,6-.95,9.38-.66,17.65,6.59,25.8,9,10.13,5.72,23.51-5.57,30.88-7.19,4.7-15.21,6.54-22.39,1s-13.22-4.1-20.32-.82c-10.87,5-22,9.55-33,14.17-5.33,2.22-8.86,5.29-8.81,11.78.08,9.84-5.28,16.65-14.33,19.46-8.15,2.53-11.55,8-13.42,15.52-9,36.14-18,72.3-27.21,108.37-1.5,5.85-.7,10.3,3.6,14.45,3.91,3.78,6.48,8.22,6.84,14C1420.41,2551.42,1412.43,2560.54,1398.6,2560.88Z"/><path class="cls-56" d="M1623.1,2774.15q0,45.92,0,91.81c0,5.31-.13,10.63-.45,15.94-.24,3.95-3,5.63-6.59,6.07-1.31.16-2.65.18-4,.24-19.53.84-20.14.4-20.16-19.16q-.11-95.79,0-191.59c0-4,0-8,.33-12,.52-5.57,3.14-7.86,9.12-8.45,2-.2,4-.2,6-.22,14.68-.19,15.69.62,15.75,15.54C1623.18,2706.3,1623.1,2740.23,1623.1,2774.15Z"/><path class="cls-57" d="M1254.92,2388q-32.84,0-65.67,0a128.88,128.88,0,0,1-13.91-.35,13.7,13.7,0,0,1-7.18-2.83c-7.74-6.79-5.17-15.94-4.34-24.26.65-6.6,5.78-10.33,12.08-11.53,3.86-.74,7.93-.53,11.9-.54q67.67,0,135.32,0c.66,0,1.33,0,2,0,20.94.44,27,8.4,22.36,29.23a12.1,12.1,0,0,1-11,9.88,134.3,134.3,0,0,1-13.91.41Q1288.76,2388,1254.92,2388Z"/><path class="cls-57" d="M1255.94,2320.3q-32.88,0-65.77,0c-4.65,0-9.32.14-13.94-.27a15.26,15.26,0,0,1-7.45-2.34c-7.75-5.72-5.52-14.28-5.48-22.07,0-5.86,3.09-9.94,8.58-12.22,5-2.09,10.27-2.53,15.62-2.53H1323c.66,0,1.33,0,2,0,20.39,1,26.08,8,22.72,28-1.09,6.53-5.1,10.46-12.09,11.13-4.61.44-9.29.26-13.94.26Q1288.82,2320.32,1255.94,2320.3Z"/><path class="cls-56" d="M1532,2785q0-39,0-77.95c0-4.66-.1-9.34.18-14,.42-7.16,2.32-8.91,10-9.19,4.65-.17,9.33-.05,14,.22,3.68.22,6.3,2.1,6.6,6.05s.44,8,.45,12q0,83.94,0,167.88c0,3.33,0,6.67-.19,10-.43,5.94-2.41,7.66-8.94,8.13-.66.05-1.33.07-2,.09-19.45.86-20,.38-20.11-19.27C1532,2840.94,1532,2813,1532,2785Z"/><path class="cls-56" d="M1467.56,2802.05c0-22,0-44,0-65.92,0-4.65.2-9.31.57-13.94a5.33,5.33,0,0,1,5.19-5.07,113.75,113.75,0,0,1,13.93-.43c8.85.36,10.8,2.21,11.35,10.46.27,4,.16,8,.16,12q0,63.93,0,127.86c0,3.32.08,6.66-.07,10-.44,9.69-1.83,11-12.11,11.25-2,.06-4,.05-6,0-11.83-.26-12.86-1-13-12.26-.21-20.65-.08-41.29-.09-61.93Z"/><path class="cls-56" d="M1400.18,2824c0-17.32-.15-34.65.06-52,.13-10.51,1.61-11.86,11.13-12.28,19.5-.86,20-.44,20.08,19.24.07,31.32.11,62.64,0,94-.07,14.79-.83,15.31-16,15.3h-2c-11.63-.23-13-1.25-13.13-12.26C1400,2858.67,1400.18,2841.34,1400.18,2824Z"/><path class="cls-58" d="M1292.33,2492.77c-1.49,2.92-2.61,6.12-4.54,8.71q-28,37.68-56.21,75.15c-2.77,3.69-5,8-9.65,9.82a3.47,3.47,0,0,1-4.89-3.75,7.19,7.19,0,0,1,1.77-3.45q32.28-40.65,64.67-81.21c2-2.54,4.73-4.57,7.12-6.84Z"/><path class="cls-59" d="M1191.41,2612.76c4.65-3,7.35-7.34,9.2-12.38,1.87-.36,4.09-1.52,5.52-.88a4.67,4.67,0,0,1,1.88,6.77c-5.61,8.14-11.65,16-17.77,23.77-1.27,1.61-3.64,1.48-5.23-.13a4.2,4.2,0,0,1-.84-5.35C1186.53,2620.59,1189,2616.69,1191.41,2612.76Z"/><path class="cls-58" d="M1290.6,2491.2c2.63-6.48,6.05-12.3,12.91-15.17l-.06-.07c-.37,7.82-5.57,12.43-11.12,16.81C1291.76,2492.24,1291.18,2491.72,1290.6,2491.2Z"/><path class="cls-58" d="M1307.55,2472.06c-.43-6.07,3.11-9.46,8-11.92l-.26-.28q.27,8.79-7.88,12.07Z"/><path class="cls-58" d="M1315.57,2460.14l1.93-1.95c-.13.44-.13,1.11-.43,1.29a5.46,5.46,0,0,1-1.76.38Z"/><path class="cls-58" d="M1303.51,2476c.17-2.52,1.33-4,4-4l-.12-.11c-.17,2.49-1.27,4-4,4Z"/><path class="cls-50" d="M4810.53,2652.17a7.63,7.63,0,0,0,3.73-1.21,8.47,8.47,0,0,0,3.61-3l.17-.11c1.58-1.3,3.08-2.74,5.08-3.42,18.08-6.69,34.93-16.15,53.32-22.28,36.32-12.1,73.28-19,111.61-18.29,11.32.21,22.64.18,33.95.26a6.92,6.92,0,0,1,4.93-2.13c5.58.65,11.18,1.08,16.82,1.21,108.76,21.66,190.53,80.1,242.72,178.67,3.69,7,8.07,13.9,6.81,22.45,6.29,21,14.6,41.27,18.79,62.93,12.83,66.25,8.49,130.91-16.57,193.86a318,318,0,0,1-56.76,93.22,63.51,63.51,0,0,0-4.49,6.54c-34.34,48.86-83.19,77.93-138.05,96.36-91.77,30.82-181.68,23.69-268.26-20.31-8.16-4.15-17.23-7.55-21-17.19-3-2.58-5.79-5.44-9-7.68-45.64-31.71-81.9-72-107.56-121.18a330.15,330.15,0,0,1-33-99.92c-5.13-31.25-5.11-62.56-2.19-93.54,3.31-35.12,13.72-68.94,28.76-101.18,20.92-44.81,50.66-82.68,88-114.81,2-1.7,3.71-3.69,5.55-5.54l.49-.42a14.37,14.37,0,0,0,4-3.46l.09-.08a32.27,32.27,0,0,1,4.64-3.67l7.48-4.8a38,38,0,0,0,4.14-3.34l7.86-4.66Q4808.4,2653.87,4810.53,2652.17Z"/><path class="cls-60" d="M5238.72,3524.66c-10.76,8.32-23.89,11.39-36.29,15.82-16.26,5.8-32.81,10.86-49.45,15.41-8.94,2.45-13.07,7.4-14.83,16.35-6.42,32.57-13.39,65-20.21,97.52-2.08,9.88-3.09,11-13.09,11-41.92,0-83.85-.3-125.77-.47l-107.8-.44q-8.88-28.49-17.76-57-38.94-124.35-77.85-248.72c-1-3.14-1.42-6.45-2.11-9.67,33.9-.14,67.81-.35,101.71-.38,61.17-.06,122.35-.47,183.51.17,43,.45,82,14.17,116.56,39.74,10.05,7.44,20.52,14.56,28.95,24.2A105.07,105.07,0,0,1,5217,3446c6.71,11.92,10.29,24.23,9.07,38.08-.76,8.58,0,17.28-.14,25.93C5225.79,3518.82,5230.09,3523.56,5238.72,3524.66Z"/><path class="cls-61" d="M5025.5,2604.24l-1.76.21-1.74-.34c-.38-2-.11-4.49-1.26-5.76-7.38-8.16-11.93-17-11.26-28.59.39-6.73-8.3-10.57-7.37-18,6.44-6.21,14.66-4.68,22.37-4.93,23.81-.77,23.81-.69,12.87-22.38l.07.05a54.42,54.42,0,0,0-2.85-4.76c-8.72-14.93-17.22-30-26.25-44.74-3.9-6.37-4.21-11.92-.6-18.56,7.93-14.62,15-29.7,22.89-44.33q30.8-57.09,62-113.93c2.55-4.67,5.25-9.27,8.12-13.75,11.79-18.43,24.13-36.53,33.25-56.54,8.4,3.21,8.66,11.15,10.2,18.13,3.43,15.6,7.19,31.21,9.29,47,1.87,14.12,8.08,23.51,21.88,27.51,15.51,46.16,32.69,91.68,52.8,136.05,1.06,2.33,1.27,5,1.88,7.57-8.2,13-2.46,26.67-1.24,39.84.71,7.66-.44,16.18,4.47,23.17a7.65,7.65,0,0,1,4.36-.36,11.49,11.49,0,0,1,3.64,3,73.19,73.19,0,0,1,4.2,6.29c3.36,7.62,12.16,9.87,16.39,16.6,3,3.27,7,3.26,11,3.36,4.58.12,9.54-.57,12.59,4.05,3.24,4.9,8.13,9,8.25,15.52.1,5.3.17,10.6.17,15.91q0,79.58,0,159.15c0,7.93-.21,15.75,2.59,23.55,2.72,7.56,1.71,15.76.84,23.65-.26,2.26-2.65,4.29-4.07,6.42-4.18-3.64-5.59-8.92-7.91-13.62-35.14-71-88.81-123.2-160.36-156.85-26.48-12.45-54.55-20.39-83.16-26.36C5036.85,2604.1,5030.45,2607.88,5025.5,2604.24Z"/><path class="cls-60" d="M4806.9,3219.72c19.57,9.74,38.36,21,59.05,28.48,30.1,10.82,60.74,18.88,92.86,20.5,9.92.5,19.92,3.11,29.69,2.32,28.37-2.33,56.79-4.5,84.5-12.16,54.92-15.19,102.95-42.08,143.57-82.18,5.62-5.54,10.23-12.29,17.68-15.82-.11,8.68-.26,17.32-5.09,25.08-4.13,6.62-3.21,14.12-3.21,21.4q0,80.91,0,161.82c0,5.33.14,10.66-.1,16-.4,8.61-2.57,10.67-10.67,11a25.27,25.27,0,0,1-15.11-3.74c-28-17.61-59.68-24.81-91.35-32.38-16.45-3.93-32.88-3.79-49.45-3.79q-144.75,0-289.5.09c-2.92-1.83-3.83-4.71-4.11-7.92,24.44-10,24.45-10,24.46-36q0-33,0-65.89c0-3.32-.09-6.66,0-10C4790.65,3223.29,4791.37,3222.6,4806.9,3219.72Z"/><path class="cls-62" d="M5238,2531.86a14.53,14.53,0,0,0-.49-3.83c-1.19-1.38-2.39-1.46-3.62-.06-.22,3.27-.27,6.55-.73,9.78-.16,1.12-1.33,2.08-2,3.12a34.75,34.75,0,0,1-3-2.18,2.66,2.66,0,0,1-.94-1.68c-.16-19-6.32-37.39-5.6-56.5.27-7,1.76-13,8.5-16.39-.48,10.21,2.66,19.15,8.65,27.46,7.65,10.61,13.78,22.37,23.62,31.28,7.8,7,13.52,7.1,24.33.82,5.28,4.93,10.84,9.59,15.76,14.86,4.74,5.09,2,12-5,13.13a87.58,87.58,0,0,1-11.81.64c-7.91.18-15.81.26-23.72.39-11-.63-18-6.16-20.8-16.88A19.41,19.41,0,0,0,5238,2531.86Z"/><path class="cls-60" d="M5249.89,3520.17c-1.89,2.87-4.61,3.89-7.93,3.57C5243.81,3520.79,5246.65,3520,5249.89,3520.17Z"/><path class="cls-60" d="M4773.8,3364.68c-2.2-.65-3-2.21-2.79-4.37Z"/><path class="cls-60" d="M5258.16,3516.29A4.17,4.17,0,0,1,5254,3519Z"/><path class="cls-7" d="M4438.45,3135.24a150.81,150.81,0,0,0,3.2,41c1.31,6.31,4.91,8.53,10.14,10.32,7.35,2.51,15.93-.4,22.52,5.23-1,52.23-13.05,101.54-42.52,145.1-24.76,36.59-58.2,60.55-103.33,68.22a179.65,179.65,0,0,1-70.92-2c-23.75-5.35-41.8-20.32-56.5-38.86-15.13-19.08-22.38-41.62-27.07-65.56-6-30.49-2.36-61-3.6-91.53,6.58-5.76,18.3-3.06,22.33-11.34,3.35-6.87,3.32-15.47,4.44-23.35,2.79-19.77,5.95-39.51,7.92-59.37,2.44-24.67-.47-49.2-4.24-73.6-1.64-10.64-5.87-20-12.24-29-24.86-35-41.68-74.1-55.32-114.68-8.5-25.28-14.77-51.13-21.23-76.95-1.91-7.61-1-14.13,2.58-21.05,40.07-78.17,89.48-149.61,151.74-211.85,2.35-2.35,4.71-4.71,7.21-6.91,4-3.52,6-3.21,9.54,1.66,3.91,5.38,7.63,10.91,11.44,16.36,29.45,42.11,61.61,82,97.8,118.5a520,520,0,0,0,60.14,52.49c18.26,13.49,37.4,25.63,58.5,34.13,11.84,4.76,12.55,6,10.77,19.54-2.24,17.15-4.63,34.31-7.84,51.3-7.06,37.34-16.45,74-32,108.94-9.52,21.42-21,41.57-35.75,59.81-3.78,4.69-7.61,9-7.79,15.63C4437.72,3083.35,4435.52,3109.29,4438.45,3135.24Z"/><path class="cls-50" d="M3195,1732.13c8.66.19,17.31.53,26,.53q349.86,0,699.72,0c24.07,0,48,1.89,71.16,8.32,94.18,26.21,152.9,87.74,178.22,181.72,6.29,23.36,6.76,47.56,6.89,71.4.65,116,.32,232,.22,348.06,0,7.29-1.06,14.58-1.62,21.87-6.1,2.54-12.18,5.14-18.31,7.62-42.34,17.15-79.74,41.68-113,73.07-36,33.9-55.33,75.45-61.69,123.94-7.39,56.42-5.79,112.65,2.25,168.83.94,6.57,1.74,13.17,2.61,19.75-6.31,7.58-9.5-.17-11.66-3.36-32.19-47.48-70.08-90.26-108.38-132.74a24.67,24.67,0,0,1-5.88-12.54c-1.69-36.74,6.42-72.62,9.49-108.92,3.13-36.95,7.51-73.83,12.25-110.64.88-6.86-2.41-10-8.55-10.79-7.27-1-14.61-.57-21.92-.57q-336.28,0-672.57-.08c-11.22,0-22.67,1.54-33.5-3-21.43-18.36-29.48-45.29-42.24-68.9-28.4-52.57-53.91-106.69-80.64-160.16-6.53-13.07-12.93-26.2-21-38.45-3.95-6-8.81-12.08-5-20.14,6.19-6.82,14.85-8.57,23.11-11,107.76-31.46,203.55-84.86,289.21-157.12,34.71-29.28,66.89-61,95.77-96.05,4.17-5.06,9.37-9.48,10.86-15.92-.07-1.93-1-3.06-2.57-2.79-79.34,13.38-156.36-3.67-233.5-18.21-13.36-2.52-28.28-2.08-38.34-14.11,1.18-1.5,2.1-3.37,3.58-4.45C3162.25,1755.55,3178.65,1743.86,3195,1732.13Z"/><path class="cls-9" d="M3865.59,2614.87c38.44,36.89,72.52,77.5,103.07,121.12,4.57,6.52,9.08,13.08,13.6,19.64,1.32,1.9,3.06,2.23,5.14,1.6.74,1.07,2.1,2.09,2.15,3.17,1,24.07,8.5,46.8,14.7,69.71,8.5,31.45,13.87,63.23,14.81,95.81.47,16.47,1.63,32.79.68,49.42-1.4,24.56-4.22,48.71-9.59,72.64-6.26.61-9.7-3.63-13-7.82a395.3,395.3,0,0,0-70.28-69.88c-17.38-13.52-37-23.31-56.19-33.62-38-20.41-77.91-36.53-117.84-52.65-14-5.65-28.61-9.53-42.21-16.13-54-115.1-54.13-228.89,9-340.79,14.16-25.12,21.72-26,45.28-8.07,15.89,12.1,31.52,24.56,45.67,38.71,16.74,13.59,32.07,28.83,48.69,42.61C3863.22,2604.38,3863.54,2610,3865.59,2614.87Z"/><path class="cls-63" d="M4126.08,2527.66c14-37.65,36-69.7,67.64-94.47,34.2-26.72,73.34-36.18,116.3-31.29,36.59,4.17,69.68,16.55,98.26,40.21a180.41,180.41,0,0,1,30.16,31.77c1.8,2.43,4.77,4.83,2.67,9.19-5.19,0-7.32-4.61-10.39-7.46-21.65-20.19-45.63-36.83-73.68-46.67-53.7-18.83-104.69-13.71-152.1,19-26.63,18.34-48.23,41.66-67.25,67.63-3.26,4.44-4.77,11.13-11.9,11.86Z"/><path class="cls-63" d="M4125.79,2527.39l-.93,4.27c-.17-.37-.58-.87-.47-1.1.49-1,1.13-1.92,1.71-2.89Z"/><path class="cls-64" d="M2616.37,2864.24a9.42,9.42,0,0,0-6.62-8.85c-9.86-3.71-19.55-7.94-29.54-11.26-26.86-8.93-53.85-17.48-80.78-26.18-3.68-17-6.68-34.28-6.24-51.44,1.57-61.34-2.79-122.53-5.15-183.7-2.75-71.12-6.11-142.27-10.47-213.37-5.53-90.4-11.35-180.74-20.9-270.81-2.8-26.5-6.42-52.92-9.25-79.41-2-18.22-8.48-31.7-25.83-38.84-2-1.8-4.46-4-3.9-6.58,5.52-25.16,11.68-50.11,30.37-69.53a7.6,7.6,0,0,0,2.56-.22,5.48,5.48,0,0,1,7.12,1.14c14.21,14.92,26.07,31.68,37.21,48.93,3.35,5.18,3.88,11.21,2.15,17.3-1.73,9.07,2.32,17,5.12,25.08,62.35,179.07,100.23,363.37,119.46,551.84,10,97.62,12.48,195.4,11.2,293.38-.09,7.31.13,14.73-3.82,21.39C2625.18,2867.39,2620.93,2867.56,2616.37,2864.24Z"/><path class="cls-65" d="M2448.06,1904.27l-28.48,70.35c3,8,1.11,15-6.5,18.38-7.22,3.2-12.34-2.93-17.12-7.34-22.91-21.15-42.57-45.39-63.38-68.45-33.24-36.82-67.57-72.68-99.66-110.54-4.83-5.71-13.29-9.8-10.26-19.71,3.17-7.22,6.2-14.51,9.54-21.64,3.64-7.77,6.94-15.8,11.53-23,4.48-7,1.1-16,6.78-22.33-.81,12,3.17,21.23,12.25,29.77,21.75,20.45,41.77,42.77,63.76,62.93,33.69,30.89,68.84,60.09,109.62,81.55C2440.9,1896.77,2445.58,1899.14,2448.06,1904.27Z"/><path class="cls-65" d="M2495.25,1968c0-3.35-.54-6.51-2.64-9.29-13.87-18.3-26.23-37.76-42-54.61,1.39-9.73,8.4-16.25,14-23.33a271.76,271.76,0,0,0,39.76-67.84c3.18-7.9,6.64-15.82,7-24.56,12.91,6.21,24.43,14.5,35.46,23.55,3.89,16.32-3.12,31.41-5.47,47-5.34,35.43-13.31,70.38-20.52,105.47-1.47,7.17-3.42,15.52-12.28,16C2501.5,1980.7,2496.69,1975.39,2495.25,1968Z"/><path class="cls-66" d="M2510.93,1736.05q-.07,19.82-.14,39.63c-26.61-2-52-9.13-76.88-18.4-43.35-16.14-78.58-43.66-108.92-77.89-6.39-7.2-11.56-15.48-17.64-23.73,6.47-2.09,7.74,3,10.8,4.76a62.93,62.93,0,0,1,8.24,5.56c41.06,33.15,87.82,54.25,139.33,64.42C2480.53,1733.32,2495.55,1736.77,2510.93,1736.05Z"/><path class="cls-54" d="M2999.5,2088.58c49.84,93.18,93.6,189.49,145,281.85-7.3,9.71-18,7.05-27.61,7.08-98.33.23-196.66.1-295,.15-24.79,0-25,0-30.18,23.89-3.06,14.1-12.27,19.09-25.59,20.53-26.56,2.87-26.06,3.25-29.41,29.62-4,31.65-6.09,63.5-10.54,95.08-1.08,7.71-.89,16.2-8.24,21.62-13.28-5.57-11-18.41-12.55-28.77-18.15-122.46-33.82-245.3-55.28-367.24-19.74-112.15-42.91-223.58-81.4-331.17-1.8-5-3.37-10.11-3.27-15.55a6.61,6.61,0,0,1,3.18-5.69l26.24,8c28.8,4.74,53.14,20.78,79.1,32.31,76,33.77,150.59,70.72,226.55,104.62,22.58,10.08,40.53,25.21,55.09,44.82,14.71,19.82,27.17,41.08,39.92,62.15C2998.62,2076.91,3002.19,2082.06,2999.5,2088.58Z"/><path class="cls-12" d="M2999.5,2088.58c-14.8-24.42-29.56-48.82-45.57-72.52-16.8-24.87-39.53-40.76-66.73-51.49-4.32-1.7-8.78-3.13-13-5.12-31.84-15.11-63.5-30.61-95.48-45.44-41-19-82.24-37.48-123.37-56.2-16.94-7.71-33.9-15.37-50.76-23.26-3.52-1.65-7.56-2.84-9.73-6.61,4.14-3.25,8-7.08,12.47-9.64,33.48-19,67.57-36.62,103.73-50.11,29.83-11.13,60.06-20.78,91.5-25.92,17.57-2.87,35.35-5.54,53.1-6.06,22.45-.64,45.13-2.41,67.39,3.13,3.15.78,6.62.38,9.94.39,21.91.07,43.37,4,65,6.9,19,2.57,37.86,5.85,56.79,8.82,26.78,4.21,53.22,9.92,79.68,15.67a60.55,60.55,0,0,0,7.88.69c41.39,9.94,83.18,17.74,125.23,24.3a617.49,617.49,0,0,0,69.44,6.79,354.48,354.48,0,0,0,83.37-6.15,43,43,0,0,1,7.88-.33c.51,0,1,.53,1.63.86.67,6.11-4.15,9.49-7.24,13.52-22.35,29.09-47.41,55.75-74.05,80.89-90.93,85.8-195.22,149-314.87,186.24Z"/><path class="cls-22" d="M2563.79,1815.13l4.86,4.85-1.25.32c-3.59,1-5-.63-4.69-4.09Z"/><path class="cls-50" d="M2083.9,1838.16c-60.82,23.21-121.7,46.27-182.42,69.74-19.19,7.42-37.9,16.1-56.94,23.91-11.14,4.57-18.31,12.44-23.06,23.41-10.59,24.47-18.68,49.8-26,75.34-12.57,44.09-24.24,88.44-36.3,132.68-1.57,5.77-3.18,11.53-4.77,17.31-6.41.19-11.28-3.23-16.34-6.58-54.55-36.06-90.81-85.23-106.56-149-5.27-21.33-8.86-43-7.9-65.12.23-5.31-.17-10.65-.28-16a9.77,9.77,0,0,0,.13-3.77c5.74-8.69-4.62-19.83,4.28-28l-.09.09c1.89-2.43,1.39-5.78,3.16-8.26l.87-7.3q1.43-2.33,2.76-4.71l1.17-7.43a52.55,52.55,0,0,0,2.83-4.57l.81-4.18c2.66-1.93,1.69-5.53,3.58-7.82a8.34,8.34,0,0,0,.73-3.51c1.06-1.47,2.08-3,3-4.51a8.78,8.78,0,0,0,.87-3.66,31.29,31.29,0,0,0,3.08-4.34,8.38,8.38,0,0,0,1-3.56c1.1-1.46,2.17-2.94,3.19-4.45a7.58,7.58,0,0,0,1-3.24c.75-1.88,2.24-3.26,3.39-4.86l.13-.18a8,8,0,0,0,3.09-3.7,8.84,8.84,0,0,0,1.21-3.6c1.07-1.58,2.46-2.92,3.46-4.56l.2-.27a7.61,7.61,0,0,0,3.19-3.58,8.24,8.24,0,0,0,1.27-3.35,17.8,17.8,0,0,1,3.69-4.68h0a23.62,23.62,0,0,0,3.59-4.14l.25-.29a8.76,8.76,0,0,0,3.4-3.56l28.75-28.73a10.15,10.15,0,0,0,3.65-3.42l.22-.19a40.36,40.36,0,0,0,4.21-3.62l-.05,0a14.75,14.75,0,0,1,4.71-3.74,7.8,7.8,0,0,0,3.27-1.26,8.37,8.37,0,0,0,3.65-3.22l.22-.16c1.61-1.07,3-2.48,4.62-3.47a8.4,8.4,0,0,0,3.51-1.17,9.62,9.62,0,0,0,3.78-3.15l.13-.09a17.5,17.5,0,0,1,5-3.39,6.72,6.72,0,0,0,3.12-.91,38.11,38.11,0,0,1,4.65-3.22c12.28-4.93,24.38-10.42,36.89-14.7,31.08-10.62,63.26-15.44,95.94-12.68,19.66,1.67,39,6.75,58.55,10.29l3.9.77c2,2.49,5.44,1.71,7.88,3.27a6.79,6.79,0,0,0,3.77.86,12.19,12.19,0,0,0,4.21,2.64l7,1.74c2,.5,3.52,1.84,5.12,3a4.73,4.73,0,0,0,3,.88c1.92.58,3.35,2,4.94,3.09a4.68,4.68,0,0,0,3,.94c2,.61,3.49,2.07,5.16,3.22l.28.18a5.85,5.85,0,0,0,3.5,2.87c26.33,15.52,48.21,36.19,67.88,59.3C2074.13,1818.28,2081.81,1826.61,2083.9,1838.16Z"/><path class="cls-3" d="M2715.84,2569c5.19-11.18,4.18-23.47,5.72-35.19,4-30.3,6.52-60.78,9.64-91.19.4-4,.59-8,1.19-11.9,2.14-14,2.28-14.15,16-14.37,9.3-.15,18.6-.14,27.91-.15,4.64,0,7.65-2.19,8.25-6.78,1.28-9.88,2.21-19.8,3.42-29.68.56-4.53,3.26-7.17,7.91-7.3,6-.17,12-.22,17.94-.22q153.54,0,307.08-.06c7.91,0,16,1.23,23.68-1.77,7.79,2.55,15.84,1.67,23.79,1.67q345.63,0,691.25,0c6,0,12-.11,18,.06,11.95.33,13.24,2.2,11.85,14.61-3.86,34.35-7.47,68.73-11.34,103.08-3.51,31-7.4,62.05-10.75,93.11-1.14,10.58-1.17,21.28-1.71,31.91-3.93-2.93-6-7.14-8-11.38-4.82-9.18-5.87-18.88-4.63-29.1,6.35-52.23,10.91-104.66,17.16-156.9,3.37-28.22,1.19-30.9-27.95-30.91q-324.62-.17-649.23,0-21,0-41.92-.48c-103.87,1-207.74.16-311.61.46-8.64,0-17.31-.31-25.9,1.23-5.92,1.07-9.87,4.07-10,10.44-.16,6.63,4.12,9.22,10,10.2,7.94,1.33,15.94,1,23.92,1,109.86.43,219.73-.8,329.6.61,35.29-1.54,70.58-.59,105.87-.62q258.72-.2,517.45,0c41.28,0,43.37,2.41,39.33,43.12-2.82,28.51-5.69,57-8.82,85.48-1,9.27-1.73,18.74-9.86,25.27-12.85-10.4-25.67-20.84-38.57-31.18-7.76-6.23-15.51-12.48-23.51-18.4-7.41-5.48-10.49-4.82-16.22,3.17a162.56,162.56,0,0,0-9.79,15c-19.67,35-33.9,71.74-40.81,111.57-6,34.47-5.64,69.11-2.49,103.31,3.33,36.28,14.11,71.47,28.64,105.19,1.58,3.65,3.57,7.17,4.65,11,.38,1.35-1.39,3.31-2.17,5-1.17-.27-2.33-.53-3.51-.77a30.19,30.19,0,0,1-4.93-2.37c-31.9-11.63-63.58-23.79-94.39-38.1-34.62-16.08-67.09-35.5-95.13-61.75-.89-.82-2.27-1.12-3.58-1.74-4.33,1.56-2.85,5.43-2.7,8.31,1.85,33.36,8.19,66,16.26,98.33,22.4,89.76,61.16,171.61,118.45,244.46a575.57,575.57,0,0,0,49.24,55.1c5.7,5.58,11,11.56,16.49,17.37-9.74,11.63-23.29,8-35.39,8q-296.28.41-592.56.12c-57.19,0-114.38,1-171.56-.64-107.16,1.34-214.33.5-321.49.43-6,0-12-.65-17.56-3.18-11.58-12.46-16.33-56.18-7.46-69,5.22-7.52,13.39-8,21.32-8.35,16.55-.79,33.14.23,49.69-.58,8.19-.4,18,1.21,21.2-10.14,10-69.72,15.18-140,23.63-209.84,1-7.93,1.61-15.86,3.64-23.59,5.08-72.83,15-145.16,22.3-217.75,2.06-20.46,4-40.93,6.08-61.39C2709.51,2583,2708.3,2574.6,2715.84,2569Z"/><path class="cls-67" d="M2906.83,3188.34c8.63-.27,17.26-.76,25.89-.76q373.13-.14,746.25-.2c9.3,0,18.6-.43,27.91-.66,4.18,3.05,8.5,5.92,12.52,9.18,14.63,11.87,29.17,23.86,43.74,35.81-6.65.15-13.29.44-19.94.44q-404.1-.08-808.2-.2c-6.65,0-13.3-.16-19.95-.24C2902.59,3219.1,2896.35,3205.3,2906.83,3188.34Z"/><path class="cls-9" d="M3702.24,2864.74a4.62,4.62,0,0,1,4.93,2.38C3704.93,2867.57,3703.39,2866.56,3702.24,2864.74Z"/><path class="cls-50" d="M3303.12,4137.57q-.18,26.57-.37,53.14c-16.63.3-33.25.83-49.87.85-26,0-51.92-.29-77.87-.47.42-7-3-11.86-9.55-13-21-3.62-30.42-21.78-43.93-34.61-5.2-4.95-2.69-12.34.23-18.51,2.53-3.87,5.36-7.58,7.55-11.64,25.57-47.35,50.87-94.84,76.61-142.09a164.24,164.24,0,0,0,17-48.6c2.2-11.63,3.29-23.65,8.34-35.07,11.53,15,24.17,40.47,27.57,56.66q18,85.8,35.7,171.67C3296.19,4123.63,3296.19,4132,3303.12,4137.57Z"/><path class="cls-11" d="M1627.77,1912.1c-1.08,9.39,1.81,19.4-4.28,28-.82-4.31-1.17-8.79-2.57-12.92C1618.41,1919.76,1620.64,1914.93,1627.77,1912.1Z"/><path class="cls-11" d="M1630.84,1903.93c.47,3.34-.1,6.28-3.17,8.26C1627.28,1908.88,1627.93,1906,1630.84,1903.93Z"/><path class="cls-11" d="M1642.86,1867.92c.33,3.31-.65,6-3.58,7.82C1639.25,1872.57,1640,1869.75,1642.86,1867.92Z"/><path class="cls-11" d="M1634.47,1891.92a4.8,4.8,0,0,1-2.76,4.71Z"/><path class="cls-11" d="M1638.47,1879.92a4.71,4.71,0,0,1-2.83,4.57Z"/><path class="cls-11" d="M1646.63,1859.9a5,5,0,0,1-3,4.51Z"/><path class="cls-11" d="M1650.58,1851.9c-1,1.45-2,2.89-3.08,4.34C1648.53,1854.79,1649.56,1853.35,1650.58,1851.9Z"/><path class="cls-11" d="M1654.74,1843.89l-3.19,4.44Z"/><path class="cls-11" d="M1659.1,1835.79l-3.4,4.85Q1657.41,1838.23,1659.1,1835.79Z"/><path class="cls-11" d="M1662.32,1831.91a4,4,0,0,1-3.09,3.7Z"/><path class="cls-11" d="M1667,1823.75l-3.46,4.56Z"/><path class="cls-11" d="M1670.38,1819.9a3.92,3.92,0,0,1-3.19,3.59Q1668.78,1821.69,1670.38,1819.9Z"/><path class="cls-11" d="M1675.34,1811.87c-1.24,1.56-2.47,3.11-3.7,4.68Z"/><path class="cls-11" d="M1678.93,1807.73a4.93,4.93,0,0,1-3.59,4.14Z"/><path class="cls-11" d="M1682.58,1803.88a4.11,4.11,0,0,1-3.4,3.56Z"/><path class="cls-11" d="M1715,1771.73a4.28,4.28,0,0,1-3.65,3.43Z"/><path class="cls-11" d="M1719.41,1767.92a5.18,5.18,0,0,1-4.21,3.63C1716.6,1770.33,1718,1769.12,1719.41,1767.92Z"/><path class="cls-11" d="M1724.07,1764.21l-4.71,3.74A5.9,5.9,0,0,1,1724.07,1764.21Z"/><path class="cls-11" d="M1731,1759.73l-3.65,3.23Z"/><path class="cls-11" d="M1735.84,1756.1q-2.33,1.73-4.63,3.47Q1733.52,1757.83,1735.84,1756.1Z"/><path class="cls-11" d="M1743.12,1751.78l-3.78,3.16Z"/><path class="cls-11" d="M1748.2,1748.3l-5,3.39A6,6,0,0,1,1748.2,1748.3Z"/><path class="cls-11" d="M1756,1744.17l-4.65,3.22Z"/><path class="cls-68" d="M5037.35,2524.41c5.94,2.1,9.5,7.06,13.55,11.41a10.86,10.86,0,0,1,2.7,11.07c-1.45,4.6-5.53,5.35-9.64,5.32-13.95-.08-27.9-.31-41.85-.48-10.07-8.33-12.29-21.34-19.37-35.35-.49,10.09-.8,16.57-1.15,23.64-5.69-4-3.13-9.42-4.55-13.76a59.44,59.44,0,0,1-2.76-13.58c-.62-7.93-.9-15.75-3.15-23.58-3.05-10.65.05-19.7,10.3-25.39-1,11.69,2.28,22,9.41,31.32,6.41,8.35,12,17.35,18.74,25.41C5017.56,2530,5023.79,2530.5,5037.35,2524.41Z"/><path class="cls-8" d="M4786.71,2668.24l-4.64,3.68Z"/><path class="cls-8" d="M4782,2672a4.67,4.67,0,0,1-4,3.46Z"/><path class="cls-8" d="M4817.87,2648q-1.8,1.52-3.62,3Z"/><path class="cls-8" d="M4810.53,2652.17l-4.34,3.28Z"/><path class="cls-8" d="M4798.33,2660.1l-4.14,3.35Z"/><path class="cls-8" d="M4823.12,2644.41l-5.08,3.43Z"/><path class="cls-69" d="M2222.66,1787a16.48,16.48,0,0,0,1.88,3.5c14.62,16.31,29.35,32.52,44,48.83,22.13,24.71,44.89,48.82,66.6,73.93,22.15,25.61,46.17,49.6,69.59,74.09,5.14,5.39,7.39,4.38,10.87-3.55,1.33-3,2.68-6.09,4-9.14,8.81,5.93,21.74,4.49,28.24,13.31,6,8.11,3.77,19.32,5.28,29.08,4.08,26.23,7,52.65,9.81,79.06,4,37.64,7.52,75.33,11,113,1.76,19.19,2.5,38.44,4.14,57.66,2.87,33.75,2.56,67.8,5.94,101.49,3.32,33.13,1.21,66.51,6,99.49a37.61,37.61,0,0,1,.2,4c1.67,45.18,3,90.37,5.11,135.54,2.48,54.48,3.89,109,4.72,163.5.16,10.61,1.55,21.2,2.12,31.81.28,5.27.73,10.71-2.7,15.39q-57.87-15.37-115.75-30.79c-7.25-1.94-8.68-3.91-8.06-11.43,1.22-14.59,2.58-29.19,4.3-43.74,6.39-54.26,10.63-108.72,13.66-163.25a655.29,655.29,0,0,0-1.19-95.83c-4.78-52.42-10.25-104.73-17.48-156.84-16.49-118.92-39.22-236.45-79.49-350q-12.69-35.79-28.49-70.32c-16.49-35.82-35.85-69.92-60.91-100.56C2210.07,1789.44,2216.22,1787.9,2222.66,1787Z"/><path class="cls-14" d="M1959.13,1731.12a7.77,7.77,0,0,1-7.88-3.27C1954.38,1727.73,1957.21,1728.32,1959.13,1731.12Z"/><path class="cls-14" d="M1967.11,1734.62a4.24,4.24,0,0,1-4.21-2.64Z"/><path class="cls-14" d="M1999.1,1750.58c-1.91,0-2.93-1.18-3.5-2.87Z"/><path class="cls-14" d="M1995.32,1747.53l-5.15-3.23A6.17,6.17,0,0,1,1995.32,1747.53Z"/><path class="cls-14" d="M1987.17,1743.37l-4.94-3.09Z"/><path class="cls-14" d="M1979.18,1739.4l-5.12-3A5.77,5.77,0,0,1,1979.18,1739.4Z"/><path class="cls-50" d="M1036.56,3180.61c-1.57,2.8-2.73,6.64-6.41,6.67-15.6.14-31.22-.06-46.83-.41-1.68,0-3.33-1.85-5-2.84,2.22-8.69-.4-15.14-7.66-20.82-9.46-7.39-17-16.81-23.63-26.88-1.5-2.3-2.56-5.27.29-6.93,6.32-3.68,3.78-9.44,3.59-14.33-1-27.28-1.9-54.59-3.83-81.81-2.5-35.48,1.72-70.48,6-105.5a174.34,174.34,0,0,1,4.86-23.43c7.17-27,14.62-53.93,21.93-80.9,1.05-3.85,1.69-7.85,4.83-10.78,3.71.9,4.49,4.39,5.75,7.11,11.76,25.34,23.19,50.85,35.08,76.14,4.44,9.45,6.28,18.72,2.91,28.9-1.66,5-2.35,10.37-3.48,15.57-3.84,17.66-5.16,35.2-3,53.46,4.2,35,6.59,70.25,9.72,105.4.06.66.1,1.32.15,2,.46,6.61,2.36,12.86,4,19.23,1.41,5.52-3.08,12.34-4,18.73a32.55,32.55,0,0,0,.82,13.83C1035.52,3162.08,1035.93,3171.33,1036.56,3180.61Z"/><path class="cls-70" d="M911,2815.45c1.35-11.82-6.75-20.56-10-30.86,4.14-4.47,2.81-10,2.71-15.16-.26-12.61-.73-25.21-1.05-37.82-.12-4.53,2-7.81,6.48-8.68,10.38-2,20.79-4,31.27-5.3,3.57-.44,5.83,3.17,6.21,6.6.74,6.68,4.25,9,10.68,8.64,5.93-.32,11.89,0,17.83.05-5.67,5-12.68,2.57-19.08,3.43-6.09.82-7.27,1.88-6.34,7.4,3,17.56,6,35.09,9.09,52.64,1.33,7.68,0,10-8.9,11.88C937,2811,924,2813.09,911,2815.45Z"/><path class="cls-71" d="M926,2598.26c10.34,5.29,14.37,15.82,16.41,25.57,2.8,13.37,3.5,27.24-6.25,39.7s-16.83,26.9-21.71,42.23a37.28,37.28,0,0,1-5.76,10.33c-.92,1.26-3.35,1.91-5.1,1.93-2.35,0-3.2-2.22-3.27-4.18-.09-2.62-.26-5.51.72-7.82,3-7,2.9-14.32,2.52-21.57-.6-11.41,1.15-22.44,4.21-33.33,3.94-14,8-27.95,12-41.93C920.87,2605.34,922.25,2601.63,926,2598.26Z"/><path class="cls-33" d="M971.62,2484.1c2.33.16,4.06,1.09,4.56,3.59A4.64,4.64,0,0,1,971.62,2484.1Z"/><path class="cls-72" d="M1447.44,3188.21c36.52-.14,73-.37,109.56-.42,68.4-.08,136.8,0,205.21-.14,7.17,0,14.67,1.62,21.41-2.54,3.7-5.12,9.15-4.86,14.42-4.32,24.51,2.53,49,.88,73.48-.54,26.92,2.93,53.93,1.3,80.9,1.5,14.47.11,28.88.06,43.08,3.31,11.65,2.32,23.45,2.5,35.26,2.5q46.37,0,92.72.09c6.56,0,13.12.46,19.67.71,10.33,6.91,25.18,1.42,34.21,12.78,1.92,2.41,6-.95,8.55-3,8.63-7,19.36-9.65,26.9-1.73,8.82,9.28,21.25,19,14.54,35.38-8,.11-16,.3-24,.3q-381.64,0-763.28-.05c-6,0-12,0-18-.23a3.74,3.74,0,0,1-2.8-2c-.86-2.38,1.09-3.54,2.84-4.42a8.7,8.7,0,0,1,3.8-1c10.06.07,13.79-7.1,16.33-14.9C1444.55,3202.54,1445.77,3195.3,1447.44,3188.21Z"/><path class="cls-61" d="M2227.35,3231.77c-.1-5.43-.92-10.55-5.18-14.57-3.4-3.22-6.22-6.82-7.29-11.64-1.31-5.95-5.33-8.93-11.36-9.28-7.08-.42-13.4.56-16.06,8.5a13.61,13.61,0,0,1-1.53,3.67c-3.27,4.51-11.8,5-13.32,0-3.56-11.75-12-12.72-21.83-12.5-4.84.11-7-3.12-7.63-7.55,7.3-.28,14.6-.8,21.9-.81,47.91-.06,95.81,0,143.72-.07,7.19,0,14.74,1.64,21.29-3.1a71.08,71.08,0,0,1,21.63-2.9c62.51.14,125,0,187.54.07,9.44,0,18.59.88,27,5.56,23.24.13,46.47.36,69.71.37q124.51,0,249,0c7.28,0,14.56.55,21.84.85,0,3.94.16,7.88,0,11.82-.32,7.38.32,14.32,5.58,20.26,2.74,3.1,2.34,7.39,2.64,11.3-5.32.12-10.65.36-16,.36l-659.72-.12C2235.34,3232,2231.34,3231.84,2227.35,3231.77Z"/><path class="cls-73" d="M5175.37,2320.5c-15.88,3.12-22.85-1.21-25.36-15.14-4.35-24.06-8.95-48.08-13.56-72.1-.36-1.89-1.61-3.61-2.45-5.41q.47-2.67.94-5.36c.72-1.47,1.36-3,1.93-4.51.49-1.91.84-3.87,1.5-5.72,1-2.92,3.19-4.32,5.85-2.28,7.81,6,11.47,14.76,12.36,23.9C5159.47,2263.54,5168.15,2291.84,5175.37,2320.5Z"/><path class="cls-61" d="M5136.87,2218c.89,2.17,0,3.6-1.93,4.53C5134.27,2220.42,5134.67,2218.82,5136.87,2218Z"/><path class="cls-68" d="M5034.57,2519.7a4.23,4.23,0,0,1,2.85,4.76A4.69,4.69,0,0,1,5034.57,2519.7Z"/><path class="cls-74" d="M4990.06,1800.3c6.76,6.25,13.48,12.54,20.3,18.72,5.46,5,8,4.61,12.26-2.08,1.73-2.71,2.59-6,3.84-9l22.3,1c-.64,3.23-2.33,6.69-1.7,9.66,4.39,20.38,3.24,41,3.32,61.6.11,31.25,1.05,62.64-1.52,93.72-2.52,30.41-1.79,61.11-7.24,91.28-29.2,8.76-58.56,8.91-88.06,1.59,5.68-45.31,12.11-90.51,21.58-135.2,2.06-9.69,5.22-19.17,8.22-28.64a166.39,166.39,0,0,0,7.51-52.89C4990.64,1833.45,4990.34,1816.88,4990.06,1800.3Z"/><path class="cls-69" d="M2715.84,2569c-.5,29.84-4.32,59.38-8.12,88.93-1.6,12.46-2,25-3.94,37.52-2.79,18.28-3.33,36.9-5.28,55.33-1.88,17.75-4.66,35.41-6.46,53.17-2.27,22.39-4,44.85-5.89,67.28-18.78,9.78-48.52,6-59.9-7.53,1.76-57.32,2.31-114.69-.38-171.94-2.14-45.83-4-91.76-9.88-137.39-3.75-29-5.81-58.28-9.51-87.31-3.52-27.71-7.75-55.34-12.43-82.88-8.82-51.81-18.82-103.4-30.85-154.57-19.67-83.66-42.59-166.37-72.74-246.92-2.63-7-1.69-11.42,4.79-14.77,16.15,12.18,16.16,12.18,20.49-8.31,6.25-29.54,13.66-58.9,18.28-88.7,2.81-18.19,7.86-36,9.62-54.3.16-1.68,2.14-3.18,3.27-4.77l15.8,4.34,4.69,4.09c25.56,66.68,43.54,135.57,59.42,205,20.48,89.59,36.3,180,48.94,271.07,9.42,67.9,20,135.63,30.09,203.45C2709.27,2522.9,2712.51,2546,2715.84,2569Z"/><path class="cls-50" d="M5070.15,2068.59c-3.51-15.64-2.31-31.9-4.94-47.36-4-23.3-2.31-46.43-3.22-69.63-.42-10.89,3.27-20.94,6-31.14a23,23,0,0,1,8.85-13c2.57-1.81,5.14-1.5,6.72,1.21a41.83,41.83,0,0,1,2.9,7.34c3.71,10.67,7.89,21.21,10.94,32.07,3.84,13.69,9.56,26.27,19.4,36.53,4.64,4.84,5,10.66,6.06,16.48-8.07,25.61-16.64,51-28.15,75.38C5086.3,2074.61,5079,2069,5070.15,2068.59Z"/><path class="cls-75" d="M4646.27,2052.05l1.63-2.06c-.07.42,0,1-.24,1.21a5.75,5.75,0,0,1-1.61.63Z"/><path class="cls-76" d="M1797,2663.93c16.94-39.34,26.65-80.7,34.12-122.68,2.67-15.05,5.65-30.06,7.72-45.2q4-29.25,30.34-41.5c12-5.61,24.57-10.17,36.76-15.47,4.78-2.07,10.5-2.53,13.85-7.34,16.67-10.26,35.59-3.68,53.16-7.12,1.52,2.74,1.59,6.31,5.66,7.44,11.48,3.18,22.74,7.2,34.31,10,19.66,4.7,32.1,17.18,41.12,34.61,18,34.82,32.21,71.34,48.33,107,6.72,14.85,4.84,27.92-3.93,41.24-16.44,24.94-32.26,50.27-48.34,75.44a86.2,86.2,0,0,1-5.49,8.29c-5.63,6.83-6.19,14.17-3.58,22.41,2.2,6.94,3.58,14.14,5.25,21.24,1.59,6.78,2.57,13.26-5.89,16.74-1.38.57-1.83,3.39-2.71,5.16-52.08,10.68-104.23,18.87-157,4.35-7.45-6.71-3.64-14.7-2-22.12,3.06-14.17,6.43-28.31,10.57-42.19,4.2-14,1.54-23.07-14.22-25.9a20.54,20.54,0,0,1-13.24-8c-2.24-31.72,4.52-62.56,6.66-89.43-4.07,26.26-15.55,55.2-25,84.78-8.57,23.76-16.24,47.84-25.45,71.38-2.65,6.78-4.4,14-10.48,18.93-16.42,5.7-28.11-2-38.47-13.57-3.87-8.65-1.8-17.25,1.62-25.16C1779.72,2706.22,1779.79,2681.48,1797,2663.93Z"/><path class="cls-69" d="M1879.82,2776c19.88-.21,39.43,3.86,59.38,3.94,30,.13,59.32-3.75,88.44-10,5.1-1.1,7.12,1.85,10,4.25,7,61.9,13.71,123.9,24.46,185.28,9.57,54.64,10.93,109.42,8.05,164.54-.14,2.65-.23,5.31-.62,7.93-.7,4.54-3.55,6.86-8.08,7.17l-25.76,1.74c-13-6.72-11.27-20.09-13.3-31.2-9-49.39-17.06-99-27.44-148.1a159.33,159.33,0,0,0-10.83-33.86c-8.66-38.78-22.43-76.13-34-115-12.6,30.61-24.59,61.29-28.19,94.63-4.57,71.32-15.16,141.62-34.19,210.57-3.55,12.86-6.9,25.74-14.38,37-13.08-2.64-24.17-10.43-36.75-14.43-6-3-6.43-8.87-4.86-13.78,4.37-13.65,1.48-27.89,3.94-41.38,4.1-22.45.9-45.23,4.27-67.29,3.55-23.24,2.6-46.27,3.29-69.41a93.1,93.1,0,0,1,2.18-17.69c3.21-14.37,2.15-29,.85-43.56-.23-2.51-2-4.88-3-7.31,5.29-2.54,4.26-7.53,4.51-11.94q1.82-32.32,3.51-64.64c13.23-2.9,13.25-2.89,19.68-18.3C1872.74,2781,1874.74,2777,1879.82,2776Z"/><path class="cls-69" d="M2566.25,3187.11c-5.3.24-10.6.68-15.89.68q-99.63.11-199.25,0c-7.11,0-14.74,1.94-21.05-3.42,3.52-31,7-62,10.58-93,1.92-16.49,4.54-32.9,6-49.42,1.88-20.77,2-19.12,21.51-14.07,38.54,10,77.18,19.56,115.78,29.32,3.21.81,6.41,1.7,9.61,2.58,5.18,1.41,8.82-.24,11.62-4.94,7.1-11.94,14.49-23.72,21.76-35.56,11.45-1.17,18.61,6.67,25.35,13.53,25.54,26,54.09,47,88.79,59.13,6.9,2.42,13.22,6.3,17.58,12.61,0,2.65.18,5.31.06,8-.17,3.73-2,6.4-5.89,6.69-5.29.41-10.62.45-15.93.47-20.61.06-41.22-.11-61.82.14-10,.12-11.37,1.61-11.54,11.87-.23,14.63-.24,29.27.07,43.9C2563.71,3179.44,2565.33,3183.27,2566.25,3187.11Z"/><path class="cls-50" d="M1987.18,2923.9c6.67,9.28,10.42,19.47,12.3,30.9,3.75,22.75,8.91,45.27,13.17,67.94,3.77,20.06,7.1,40.21,10.65,60.32,3,16.87,5.9,33.75,9.08,50.58.47,2.52,2.19,4.81,3.33,7.2-5.6,10.43-14.75,16.26-25.64,19.93a109.14,109.14,0,0,0-12.84,4.89c-4.2,2-8,5.08-8.11,10.2-.13,4.3,2.8,7.12,6.37,9.19-3.41,2.39-7.33,2.57-11.3,2.57l-102.38,0c-4,0-7.91,0-11.13-2.89-5.87-9.43-7.29-18.81.26-28.12,1-7.08,1.74-13.75,5.17-20.72,5.14-10.46,7.32-22.5,9.92-34,7.12-31.53,15-63,20.2-94.82,3.16-19.4,7.2-39.11,5-59.15-1.52-14.11,2.94-27.47,5.56-41,.21-1.09,1.71-1.92,2.61-2.88,19.92-6,36,6.2,53.53,11.32a108,108,0,0,1,10,5.07C1984.41,2921.49,1985.81,2922.68,1987.18,2923.9Z"/><path class="cls-77" d="M2658.68,3104.55c-14-5.76-28.06-11.55-42.11-17.27-20.6-8.4-37.22-22.53-53.36-37.25-11.72-10.7-22.7-22.22-36.26-30.74,2.81-9.71,9-17.69,13.88-26.24,23.82-41.44,48-82.67,72.06-124a58.26,58.26,0,0,1,3.48-4.86l9.88-.51c1,.83,2,2.33,3.07,2.39,19,1.05,37.45,8.44,56.83,5.14-.92,3.17-2.77,6.41-2.59,9.52,1.07,18-4.13,35.35-5,53.19s-4.25,35.25-6.55,52.86c-.25,2-1,4-.84,5.87,1.83,18.68-2.86,36.91-5,55.15C2664.06,3066.72,2665.05,3086.2,2658.68,3104.55Z"/><path class="cls-78" d="M1972.93,2424.62c-1.71,4.85-5.07,7.08-10.28,7.05-14.3-.08-28.59,0-42.88.07.15-3.28.88-6.76-2.38-9.08-10.91-7.76-12.94-19.45-14.15-31.56-1.74-17.43,1.67-34.49,4.62-51.4,2.8-16.06,18.17-27.33,34.58-27.84,13-.4,24.85,3.86,36.22,9.52,12.17,6.06,17.13,16.26,15.32,29.58-1.9,13.92-5.76,27.18-12.73,39.58C1975.38,2401,1971.07,2412.13,1972.93,2424.62Z"/><path class="cls-79" d="M1879.82,2776c-3.06,9.31-6.13,18.62-9.55,29l-19-1.48c-17.8-7.53-36.8-10.66-55.46-15-5.64-12.25.05-19.62,10.69-24.86q13.83-39.27,27.71-78.53c1.31-3.69,3.12-7.19,4.71-10.78,9.72-5.19,17.69-1.63,25,5l30.21,8.88c3.71,1.09,5.38,3.74,4.8,7.38-.63,3.87-1.86,7.65-2.77,11.48Q1888,2741.55,1879.82,2776Z"/><path class="cls-80" d="M1797,2663.93q-11.1,34.7-22.22,69.38c-2,6.21-5.2,12.18-3.44,19.06-.82,12.64-8.29,19.83-19.56,23.92-13.53-3.44-27.12-6.7-40.58-10.41-6.11-1.69-7.56-4.4-6-10.29q12.55-49.35,25.41-98.62c2.32-8.82,4.39-10,12.58-7.83C1761.11,2653.91,1779,2659,1797,2663.93Z"/><path class="cls-81" d="M1751.76,2776.29l19.56-23.93c6,2.89,12,5.64,17.86,8.69a26.21,26.21,0,0,0,17.34,2.58c-7.63,6.54-7.16,16.57-10.69,24.87-1.2,3-2.28,6.07-3.65,9-1.17,2.49-3.29,4.29-6.07,4.19-9.86-.38-19.55-2.53-28-7.42C1751.87,2790.61,1749.15,2784,1751.76,2776.29Z"/><path class="cls-69" d="M1840.49,2879.35c-3.79,1-7,.3-9.22-3.17C1834.87,2875.71,1838.09,2876.32,1840.49,2879.35Z"/><path class="cls-82" d="M1870.94,3156.63c-.32,9.37,3.51,18.77-.26,28.12-6.55.84-13.1,2.45-19.64,2.37-22.48-.27-45,1.36-67.43-2-2.25-1.31-4.86-2.25-6.7-4-4.78-4.53-4.07-10.47,1.83-12.35,10-3.18,20.15-5.68,30.32-8.14,12-2.92,21.59-9,27.59-20.11a67,67,0,0,1,7.84-.73c6.51.12,13.48-1.77,19.4,1.32C1869.63,3144.12,1866.36,3152.39,1870.94,3156.63Z"/><path class="cls-83" d="M1441.29,2379.16c-7.11-.58-13.74-8.21-13.07-15.07.79-8.1,9.09-15.37,16.33-14.3,6.77,1,11.94,8.39,11.48,16.38A14,14,0,0,1,1441.29,2379.16Z"/><path class="cls-84" d="M1535.18,2335.61c-7.52-.35-12.47-6.58-12.08-15.19.37-8.32,5.76-13.11,14.39-12.79,8.38.32,14.23,6.16,13.7,13.69A15.51,15.51,0,0,1,1535.18,2335.61Z"/><path class="cls-85" d="M1397.29,2553.93a14.34,14.34,0,0,1-13.78-14.08c.1-8.41,7.54-15.64,15.2-14.77,7.1.81,12.89,7.71,12.77,15.22A14.33,14.33,0,0,1,1397.29,2553.93Z"/><path class="cls-86" d="M1287.9,2574.2c-.09,8.29-5.56,14-13.28,13.77s-14.06-6-14.6-13.14c-.58-7.65,6.68-14.82,14.94-14.73C1282.72,2560.18,1288,2565.92,1287.9,2574.2Z"/><path class="cls-14" d="M5025.5,2604.24c5.65.1,11.72-2,16.35,3.24C5036.12,2607.8,5030.29,2608.68,5025.5,2604.24Z"/><path class="cls-4" d="M5233.88,2528c1.26-3.28,2.47-3.5,3.62.06C5236.29,2528,5235.08,2528,5233.88,2528Z"/><path class="cls-4" d="M5238,2531.86l3.09,4C5240,2534.5,5239,2533.18,5238,2531.86Z"/><path class="cls-66" d="M4230.38,3060.11c63,46.43,125.22,50.17,188.9,10.21,3.12,2.63,1.3,5,.29,7.33-7.72,17.85-20.86,30.15-38,39.12-25.4,13.31-52.57,14.41-79.53,10.09-24.67-4-42.61-20.81-57.65-40C4239.17,3080.26,4233.66,3073.33,4230.38,3060.11Z"/><path class="cls-87" d="M3965.57,1815.21c80.18-2.59,150.65,69.09,149.66,151.8-.95,78.79-66.55,149.19-151,149.15-83.22,0-150.88-69.75-150.59-151.52C3813.93,1881,3885.71,1811.53,3965.57,1815.21Z"/><path class="cls-88" d="M3811,2563.24c2.68-25.12,5.26-50.26,8.08-75.37,1.93-17.17,4.25-34.3,6.29-51.46.47-4,.6-8,.71-11.95.12-4.57-1.71-7.75-6.72-7.93-5.32-.19-10.65-.25-16-.25H3509.66q-158.82,0-317.65,0c-8,0-16-.44-23.94-.68-11.27-8.65-17.78-19.66-16.87-34.31,8-.26,16-.75,23.94-.75q338.59-.06,677.18,0h2c28,0,26-1.73,23.64,26.65-2.45,29.79-6.73,59.43-10.27,89.12-1.73,14.53-2.17,29.14-4.32,43.69-3.1,21-4,42.36-5.79,63.57-9.11-3.39-14.54-11.43-21.62-17.34C3827.29,2578.92,3819.25,2570.91,3811,2563.24Z"/><path class="cls-89" d="M3232,2880.13c-22.21,2.31-35.24-12.27-45.35-29s-12.92-35-9.14-55.13c3.15-16.71,7.86-32.1,18.15-45.5,14.26-18.56,32.94-28,56.78-26.53a35,35,0,0,1,18.37,6.75c27.81,19.68,35.78,58,30,81.14-4.92,19.66-12.74,37.14-27.35,51.87C3261.85,2875.5,3248.75,2880.93,3232,2880.13Z"/><path class="cls-90" d="M3151.2,2381.25q8.43,17.16,16.87,34.32c-6.64.26-13.28.77-19.92.77q-165.78.07-331.56,0h-4c-20.53.08-19,.44-17.58-20.32a74,74,0,0,1,1.31-9.85,6.14,6.14,0,0,1,5.44-5.06,76.62,76.62,0,0,1,9.93-.61q165.78,0,331.56,0C3145.91,2380.57,3148.56,2381,3151.2,2381.25Z"/><path class="cls-91" d="M2032.26,2547.75c3.45-.58,4.76,1.06,5.66,2.77q10.68,20.27,21.16,40.61c1.84,3.56,3.1,7.06,1.41,11.33-9,22.82-17.8,45.74-26.8,68.57-.34.87-2.08,1.38-3.27,1.7-1.4.37-2.19-.59-2.51-2.24-4-20.81-8.26-41.42-5.17-63C2025.62,2587.37,2028.28,2567.28,2032.26,2547.75Z"/><path class="cls-92" d="M1864,2679.35l-25-5c.85-3.88,1.44-7.84,2.61-11.61q11-35.26,22.25-70.44c1.33-4.14,1.41-9.15,6.62-12.13C1874.41,2614,1867.81,2646.58,1864,2679.35Z"/><path class="cls-93" d="M1975.18,2920.69,1919.44,2904a13.3,13.3,0,0,1-1.37-9.53c6.45-32.57,17.44-63.7,29.92-94.34.39-.94,1.86-1.63,3-2,1.56-.56,2.52.27,3,1.86,2.23,8.29,4.37,16.6,6.78,24.84q11.93,40.92,24.06,81.78c1.7,5.7,4.21,11.2,2.43,17.34l-1.61-.44-1.66.21C1981.27,2921.89,1977.87,2922.35,1975.18,2920.69Z"/><path class="cls-69" d="M1975.18,2920.69c3.41-.46,6.4.29,8.73,3C1980.36,2924.56,1977.33,2923.93,1975.18,2920.69Z"/><path class="cls-50" d="M3965.46,1823.83c71.62-.64,141.2,58.08,140.42,143.55-.68,75.11-61.57,140.25-142.63,139.64-80.31-.59-140.5-66.53-140.5-141.89C3822.74,1886.18,3888.6,1822.17,3965.46,1823.83Z"/></g></g></svg>