<svg xmlns="http://www.w3.org/2000/svg" viewBox="0 0 5422 3615.24"><defs><style>.cls-1{fill:#fdfdfd;}.cls-2{fill:#3a6be9;}.cls-3{fill:#fac243;}.cls-4{fill:#102048;}.cls-5{fill:#8cadff;}.cls-6{fill:#ddd;}.cls-7{fill:#e39a31;}.cls-8{fill:#dddcdc;}.cls-9{fill:#f8b283;}.cls-10{fill:#e18a6d;}.cls-11{fill:#1f3c87;}.cls-12{fill:#88a8ff;}.cls-13{fill:#8dabfc;}.cls-14{fill:#d9d9d9;}.cls-15{fill:#fff;}.cls-16{fill:#d2ddff;}.cls-17{fill:#f5f4f4;}.cls-18{fill:#89a6ff;}.cls-19{fill:#8aa7ff;}.cls-20{fill:#dcdcdc;}.cls-21{fill:#142552;}.cls-22{fill:#162553;}.cls-23{fill:#162654;}.cls-24{fill:#182a5e;}.cls-25{fill:#182554;}.cls-26{fill:#96b6ff;}.cls-27{fill:#85a6ff;}.cls-28{fill:#d2deff;}.cls-29{fill:#e49b32;}.cls-30{fill:#19264b;}.cls-31{fill:#a8bbf6;}.cls-32{fill:#fdffff;}.cls-33{fill:#94b2ff;}.cls-34{fill:#102149;}.cls-35{fill:#132552;}.cls-36{fill:#91aefc;}.cls-37{fill:#d3ddfa;}.cls-38{fill:#12224d;}.cls-39{fill:#91acf9;}.cls-40{fill:#152553;}.cls-41{fill:#88a6ff;}.cls-42{fill:#16244a;}.cls-43{fill:#d3deff;}.cls-44{fill:#86a7ff;}.cls-45{fill:#92b5ff;}.cls-46{fill:#86a6ff;}.cls-47{fill:#aebde6;}.cls-48{fill:#91affd;}.cls-49{fill:#93b0fd;}.cls-50{fill:#94b2fd;}.cls-51{fill:#94b1fd;}.cls-52{fill:#a0b4f2;}.cls-53{fill:#9fb9fd;}.cls-54{fill:#90a6ff;}.cls-55{fill:#a0bcff;}.cls-56{fill:#8ea6ff;}.cls-57{fill:#4876ea;}.cls-58{fill:#8cabff;}.cls-59{fill:#7b94ef;}</style></defs><title>manage-admins</title><g id="Layer_2" data-name="Layer 2"><g id="Layer_1-2" data-name="Layer 1"><ellipse class="cls-1" cx="2711" cy="1807.62" rx="3833.93" ry="2556.36"/><path class="cls-2" d="M4516.88,1975.78c4,6.16,2.89,13.36,4,20.09,5.85,35.84,9.94,71.9,13.66,108,4.49,43.59,8,87.24,10.91,131q3.89,57.81,6.57,115.68c3.3,71.44,4.62,142.93,6.59,214.4,5.5,6.25,4.56,13.85,4.57,21.29.08,75.73-.31,151.47.22,227.19q.87,44.37-.26,88.73c0,5.2-.1,10.41-.33,15.61a150.56,150.56,0,0,0-3,46.14c2.83,33-11.6,57.38-36.48,77.07-35.19,6.83-70.79,3.31-106.22,3.93-26.57.47-26.42.14-27.31,26-.27,7.67,1.8,16.41-6.79,21.62-9.53-6.49-6.73-16.62-6.23-25.17.9-15.74-2.43-27.94-17.63-35.84-22.37-11.62-36.34-62.88-26.78-85,19.64-4.3,38.71,2.25,57.93,3.88,47.76,4,94.84,2.23,126.19-4.84-45.93,11.48-107.61,7.75-169.34,0-5.82-.73-11.37-1.64-16.85,1.12-5.58-3.79-5.38-9.8-6-15.49-13.15-111.73-27.92-223.28-40.09-335.13-9.41-86.57-19.47-173.08-26.41-259.92-1.22-15.22.06-31.15-6.07-45.85,1.55-54.24,1.25-108.81,54.49-144.12,16.55-11,31.92-24.15,49.82-40.4-23.41,20.4-45.32,36.1-65.73,53.62-16.31,14-27,31.15-31.16,52.36-8,41.26-10,83.15-11.57,125-1.45,38.57-.31,77.22-.32,115.84a116,116,0,0,0,3.4,29.1c.25,43.85,2.36,87.62,4.14,131.4,2.4,58.76,7,117.36,12.15,175.92,3.91,44.24,8.3,88.43,13.81,132.5.58,4.62.62,9.22-1.59,13.52-15.13,9.76-32.84,9.92-49.69,12.19-55.2,7.44-110.34,5.18-165.28-3,62,9.24,124,11.16,186.11,0,8.43-1.52,16.67-4.93,25.53-3.22,20.24,31.74,14.93,75.14-9.08,95.65-6.92,5.91-13.87,12-22.54,15.53-34.33,5.33-68.92,2.63-103.4,3.26-20.25.37-21.42,1.21-21.29,21.68.15,23-1.72,46,2.61,68.79-13.31,9.33-14.84-1.53-15.55-10-1.59-19-1.12-38.12-.42-57.15.56-15.25-2-26.53-18.69-32.32-14.29-5-22.07-17.93-28.93-31-21.95-41.64-36.74-86.13-49.9-131-17.58-59.89-30.77-120.88-37.93-183-.33-6-2.32-11.64-3.07-17.54-5.31-45.75-11-91.46-11.09-137.63.4-54.12.2-108.22,0-162.31.46-57.88,6.42-115.2,20.51-171.4,22.76-90.84,38.14-183,52.41-275.45,1.48-9.59,1.77-19.65,7.81-28,27.73-2.77,55.54-4.72,83.29-7.52,15.82-1.6,31.66-6,47.79-2.36,33,4.23,66.36,4.85,99.43,9,73.82,9.39,146.88,21.71,216.66,48.72C4496.12,1961.47,4508.22,1965.77,4516.88,1975.78Z"/><path class="cls-3" d="M978.19,2661.9a250.34,250.34,0,0,0-2-43.18c-.33-2.29-.66-4.58-.78-6.88-1.41-25.35-2.88-50.7-4.14-76.06-1.49-30-2-60-4.38-89.92-2.5-31.71-1.5-63.51-3.66-95.16-2.52-36.93-1.71-73.88-2.65-110.8,7-6.35,14.41-1.85,21.14.07,14.42,4.11,28.88,8.19,43.1,12.88,9.88,3.26,15,1,18-9.1q33.12-113.73,67.07-227.22c3.31-11-2.64-15.56-7.66-22,2.8-9.64,11.71-10.14,19.16-12.3C1203.57,1958.46,1282,1926,1355.52,1882c10.31-4.36,20.5-9.66,32.18-4.72,6.8,7.13,7.58,16.67,9.7,25.51a2344.59,2344.59,0,0,0,118.37,361.35c16,38.28,32.8,76.29,51.74,113.27,2.44,5.53,5.16,10.93,8,16.29,38.06,74.43,80.23,146.39,129.06,214.35,14.21,19.78,13.85,24.22-4.44,40.4-21.93,19.38-47.75,31.91-75.08,41.7-14.44,4.33-29,7.64-44.22,7.9-31.43,2.28-62.14-2.78-93-8.13-24.13-4.18-48.44-4.74-70.81,8.32a73.53,73.53,0,0,0-21.51,16.11c-6.27,6-12,12.54-18.42,18.35-23.54,21.28-51.25,28-82.08,22.65-22.79-3.93-45.09-10.07-67.42-16.07a49.22,49.22,0,0,1-5.49-1.44c-34.46-8.81-68.57-18.91-104.06-23.49-20.75-2.68-41.13-3.16-61.6,1-22.53,4.26-40.5,16-55.46,33.07-3.62,4.13-7.26,10.31-14.06,7.87-6.62-2.38-6.37-9.31-6.16-14.88.66-17.42-4.75-34.34-3.89-51.74C979,2680.49,973.07,2670.92,978.19,2661.9Z"/><path class="cls-3" d="M4169,1902.63c-20.2-.78-40,3.55-60,5-13.72,1-27.37,3.05-41,4.87-9.93,1.32-19.41-.88-29-2.91-20.78-4.14-36.23-23-37.16-47.59-1.12-29.4-2.47-59,.31-88.23,3.39-35.77,2-71.46,2.77-107.19.19-8.58-1-17.39,3.53-25.34,9.06-6,8.16,2.92,8.74,6.74,1.59,10.25.73,20.67.4,31.64,12.37-20.15,19.3-41.68,22.79-64.31,2.32-15,5.13-29.56,16-36.18-27.32,28.56-56,61.35-94.73,83.09-10.55,5.92-23,8-32.22,16.43-37.72,15.23-77.15,20.42-117.29,16.86-43.36-3.84-85.63-13.5-125.76-31-6.48-3-12.88-6.2-19.74-8.31-27.62-12.93-54.22-27.78-80.29-43.57-6.24-3.78-13.67-6.73-15-15.43,4.88-25.36,10.6-50.47,22.6-73.7a18,18,0,0,1,5.53-2.36,244,244,0,0,1,52.87.18c21.49,4.17,43.25,1.06,64.84,2.37,2.06,0,4.12,0,6.18.09,30.26,5.43,61,1.49,91.33,4.19,4.41.8,8.75,2.12,13.27,2.34,10.06-1.16,18.25-5.84,26.21-12.06,64-50,129.11-98.35,198.39-140.88,18.18-11.17,37.56-20,56.92-28.93,7.15-2.36,14.29-4.74,21.4-7.23,4.16-1.34,8.19-3,12.35-4.37,25.85-6.79,51.35-15.79,78.8-12.52,7.45.15,14.89.43,22.34.42,33.42-.06,66.35,3.67,98.49,13.09,12,3.52,23.92,7.5,35.07,13.36,28.26,17.88,39.52,47.38,50.83,76.26,24.73,63.14,39.3,129.06,51,195.66,1,5.52,2.88,11.39-1.14,16.7,2.73,18.19,5.56,36.36,8.15,54.57q4.73,33.3,9.07,66.65c1.84,14.26,2.52,28.71,5.09,42.83a57.85,57.85,0,0,1-6,38.39c-1.58,3.06-3,6.19-4.54,9.29-5,16.79-20,21.67-33.73,23.11-94.13,9.81-187.77,24.59-282.51,28.25C4172.42,1902.92,4170.69,1902.73,4169,1902.63Z"/><path class="cls-2" d="M1387.29,1878.09c-10.75.81-21,3.79-30.88,7.86-92.62,31.56-187.25,36.72-283.38,21.28-13.14-2.11-25.65-6.79-38.36-10.66-15.71-4.79-18-3.25-20.61,12.64-2.94,18.22-4.83,36.58-6.94,54.92-1.31,8.73-4.27,17.26-3.23,26.3-.3,5.18-.87,10.26-4.65,14.31-22.32,6-44.46-1.59-66.72-.89-5.75-1.53-11.61-2.62-17.33-4.3a11.17,11.17,0,0,1-4.61-3.57c-6.15-13.69-.38-28.65-4.52-42.57a29.62,29.62,0,0,1-.93-8.54,18.91,18.91,0,0,1,2.94-8l.26-19.71a569.52,569.52,0,0,1,0-80.42c2-85.18,13.15-169,38.83-250.46,15.36-48.72,36.35-94.76,67-136a281.12,281.12,0,0,1,50.17-52.4c35.63-28.39,76-45.62,121.33-50.84,12.43,3,16.36,14.83,23.83,23a163.32,163.32,0,0,1,16,20.2c6,9.14,10.39,9.61,17.52.08,11.92-15.93,20.74-34.38,36.83-47.07,6.35-2,11.06,2.28,16.41,4.16a383.91,383.91,0,0,1,144.13,111.07c7.71,9.56,15,11,25.34,5.77,21.93-11.16,40.58-26.46,57.47-44.09,4-3.82,8.13-7.55,11.47-12,13-15.49,24-32.5,37.26-47.83a15.41,15.41,0,0,1,5-1.54c25,4.89,50,10,72.13,23.64,5.87,11.1.48,21.3-2.76,31.55-3.64,11.5-7.13,23.08-12,34.14-8.7,17.46-13.87,36.58-24.57,53.13a73,73,0,0,0-7.33,12.83c-24.07,44.38-53,84.63-96.9,111.8-6.59,4.08-12.94,10.1-22,6.88-12.68-20.53-24.83-41.46-41.64-59.09-9-9.43-18.15-18.69-30.6-26.55,5.64,35.31,10.08,69.47,15.52,103.54,6.2,60,12.88,120,11.28,180.49C1437.1,1867.61,1425.17,1879.38,1387.29,1878.09Z"/><path class="cls-4" d="M4120.74,3146.41c-2.27-2.94-6.84-3.57-6.78-8.95.31-26.55.07-53.11.23-79.67.05-6.65,1.49-8,8.41-8.08,23.69-.18,47.38,0,71.07-.17,14.4-.09,28.9,1.22,43.09-2.56,3-.8,5.64.6,8.22,1.94,11.28,15.66,7.33,34.37,8.81,51.48,3.28,37.8,6.34,75.67,8.22,113.6,1.12,22.62,4.26,25.09,27.27,25.19,13.26.06,26.52-.16,39.77,0,10.38.15,17.48-3.62,21.57-13.6,14.45-35.18,30.15-69.89,25.82-109.63-.95-8.64-2.56-18.65,5.87-25.71,3.36-8.89,1-18.19,1.88-27.27.39-4,.11-8.05.26-12.07.43-10.62.67-10.86,10.61-10.84,26.49.06,53,.22,79.48.16,14.33,0,28.84,1.4,42.49-5,2.45-1.16,3.66,2.12,5.55,3.16,5,3.22,5.79,8.46,6,13.61,2,55,5.33,110,7.18,165,.33,20.23,2.43,22.43,23.31,22.43,113.86,0,227.79-2.46,341.56.84,89.5,2.6,178.93.89,268.37,2.43,3.41.06,7-.64,9.93,1.93a44.79,44.79,0,0,1,.84,5.1c.18,3.16-.95,5.91-4.41,6.14-5.76.4-11.55.33-17.33.33H303.76c-4.63,0-9.26.1-13.88-.06-7.93-.25-7.92-.32-8.43-11,5.51-4.9,12.16-2.36,18.21-2.38,65.79-.22,131.6.92,197.36-.34,185.65-3.57,371.3-3.13,557-3.06,6.81,0,14,1.2,19.43-4.66,4.07-5.56,3.87-12.07,3.39-18.27-3.81-49.11-5-98.38-8.87-147.49-1.24-15.82-4.72-31.94,3.11-47.25,6.42-4.94,14-4.43,21.46-4.57,35-.65,70,1.46,105-3.15,9.52-1.25,19.59-1.39,28.49,4,4.54,3.37,6,8.33,6.17,13.62.75,23,.51,46,.15,69-.15,9.32-5.13,14.14-13.62,17.6-17.38,7.08-35.5,12.9-54.4,26.5,18.36.08,29.49-8.12,41.28-13.86,29.11-14.17,28.63-14,50.17,10.61,19.31,22.1,41,41.92,62,62.5,3.22,3.38,7.64,5.8,10,9.57,14.56,23.09,36.15,25.74,61.4,25.69q471.17-.93,942.33-.38c7.5,0,15-.42,22.5.43,4.51-.1,9-.09,13.54,0,11-1.1,21.94-.51,32.9-.51q303.18-.08,606.37,0c8.65,0,17.32-.44,25.95.48,5.43.1,10.88-.44,16.31.11q441.78-.53,883.58.37c30,.08,55.16-6.43,78.35-25,23-18.43,48.54-33.3,72.48-50.45,20.12-14.4,22.79-13.95,42.78.25,6.43,4.58,11.85,11,21.27,12.77C4141.2,3163.84,4123.36,3161.59,4120.74,3146.41Z"/><path class="cls-5" d="M1228.21,1095.16c-.23-5.76-.66-11.52-.66-17.28q-.06-214.85,0-429.67c0-3.47.37-7,0-10.39-3.56-31.49,26.68-71.4,70.88-72.36,4-.09,8.09,0,12.13,0q1390.62,0,2781.24-.08c12.82,0,25.39.73,37.43,5.4,30.41,11.8,44.18,35.39,47,66.62.21,2.29.06,4.62.06,6.93q0,218.3,0,436.6c0,3.46-.2,6.92-.3,10.38-6.18,5.63-12.15,5.68-17.89-.66-2.48-8.53-.88-17.23-.88-25.85q0-208.8,0-417.6c0-14.76-1.61-28.86-10.68-41.11-9.53-12.86-22.61-19.44-38.28-21.07-9.22-1-18.49-.52-27.73-.52H1323.18c-4.62,0-9.25,0-13.87,0-44,.45-65,20.74-65.11,65.08-.44,138.63-.18,277.25-.17,415.87,0,8.77,1.14,17.26,4.83,25.3C1244.64,1104.5,1236.47,1100,1228.21,1095.16Z"/><path class="cls-6" d="M5178.91,3244.63q-134.25-.11-268.49-.19-118.66,0-237.31.22-61.5,0-123,0c-4.61,0-9.23,0-13.84-.23-3.28-.14-5.41-2-5.46-5.35-.13-7.47,0-14.95,0-22.42,1.22-.13,3-.06,3.16.61,3.8,21.63,20.39,17.53,35.67,19.43,41.56,5.18,74-10.44,105.89-35.88,84-67,149.22-149.12,202.27-241.56,88.52-154.25,131.09-323.51,161.13-496.73,19.83-114.37,32.57-229.68,45.08-345,2.94-27.13,2.3-27.92-23.36-18.12-81.16,31-154.73,74.79-221.43,130.55-115.53,96.58-201,215.72-266.32,350.34-5.23,10.78-6.7,21.85-6.68,33.56.12,59.49.25,119-.15,178.47-.06,7.7,3.81,17.7-7.38,22.09-.2-12.61-.54-25.21-.56-37.82q-.18-101.55-.21-203.11c0-2.85.43-5.7.66-8.55,3.7-.15,6.76-1.55,8.7-4.78,1.48-2.47,2.8-5.05,4.08-7.63,23.29-47.08,50.91-91.57,80.45-134.93a896.83,896.83,0,0,1,58.75-76.59c22.08-25.91,44.53-51.36,68.93-75.09,21.9-21.3,45.6-40.45,69.17-59.83,22.78-18.74,47.13-35,71.87-50.84,29.64-18.92,60-36.44,92.58-50.23,23.4-9.9,47.09-18.73,71.18-26.67,4.39-1.45,8.65-3.16,14.24-2.66,1.4,10.14,1.93,20.42-.64,30.45a68.43,68.43,0,0,0-2,17.09,58.35,58.35,0,0,1-2.09,17.08c-1.3,4.31-1.18,9.1-1.32,13.69-.23,7.48.38,15-2.72,22.18a14.43,14.43,0,0,0-.68,5.12c-.55,19-4.77,37.58-6.22,56.37-1.1,14.34-3.76,28.45-4.61,42.82-.8,13.67-4,27.17-5.66,40.82-1.36,11.39-2.46,22.78-4.17,34.16-3.16,20.95-5.67,42-9.67,62.84-3.24,16.88-5.15,34-8,50.95-3.57,20.91-7.2,41.82-11.43,62.61-9.74,47.81-20.69,95.35-33.42,142.47-2.85,10.54-5.41,21.16-8.53,31.61-11.36,38.06-23.39,75.9-37.52,113-4.09,10.76-9.1,21.16-13.65,31.74-.9,2.11-2,4.26-2.22,6.46-.13,1.35,1.05,3.07,2.12,4.18.48.5,2.38.31,3.16-.24,5.63-4,11.24-8,16.66-12.26,23.8-18.66,50.77-31.74,78.05-44.21,10.46-4.78,21.28-8.8,32-12.91,21-8,43-13,64.89-17.69,11.58-2.48,23.52-5.28,35.83-4.85,9.12.32,17.88-4.19,27.33-3.22,8,.81,10.43,2.58,9.64,10.72-.95,9.68-2.52,19.34-4.36,28.9q-9.66,49.91-23.8,98.74c-7.43,25.45-17.41,50-27.78,74.39-5.18,12.19-10.34,24.45-16.59,36.11-16.32,30.46-33.35,60.59-54.87,87.76-10.71,13.51-21.56,27-34.41,38.75-8.53,7.78-16.53,16.16-24.58,24.44-17.76,18.26-37.9,33.66-58.88,47.87-11.9,8.05-24.93,14.41-37.39,21.64-1.41.82-2.95,2.27-1.67,4.2a4,4,0,0,0,2.85,1.23c5.2.14,10.4.12,15.6.12q106.65.09,213.28.27C5167.1,3241.14,5174,3238.59,5178.91,3244.63Z"/><path class="cls-4" d="M1228.21,1095.16c6.68-.13,13.48.71,19.8-2.37,2.85-4.82,7.46-4.48,12.07-4.18,4.3.68,8.45,2.2,12.87,2.33a47.62,47.62,0,0,1,7.78,1.18c6,1.75,11.56,4.64,17.09,7.56,27.8,18.27,37,40.93,29,71.23-8.77,6.52-13.72-1.07-19.15-5.54-21.13-17.37-37.29-15-53.39,7.61-8.49,11.92-12,26.18-19.24,38.61-9.37,16-14,17.16-27.82,6-8.7-7-17.32-13.06-27-2.55-9.48,10.26-6.07,21.34,2.6,29.19,18.75,17,9.09,36.38,6,54.92-1.59,9.62-11.56,4.39-17.66,6.12l-48.35-2.17c-4.6-.21-9.2-.35-13.79-.76-2.51-.23-4-2-4.6-4.42a19.52,19.52,0,0,1-.57-3.39c-1.75-28.82-2.17-57.6,4.09-86,5.65-25.7,15.73-49.33,33.53-68.54-.9-5.08-4.89-5-7.82-6.31a40.88,40.88,0,0,1-14.2-9.61c-9.11-9.82-10.76-22.4-4.26-35.2,3.07-6,8.45-9.42,15.16-10.2a32.74,32.74,0,0,1,10.32.18c6.44,1.38,10.69-.19,14.07-6.26,4.88-8.74,13.07-12.57,23-12.74,14.37-.25,25.57,7.61,29.66,21.63,1.75,6,2.33,12.32,3.64,19.56C1217.13,1099.9,1223.11,1099.13,1228.21,1095.16Z"/><path class="cls-7" d="M4478.58,1639.77c-3.51-17.94-6.94-35.9-10.56-53.82q-11-54.75-26.78-108.36c-7.28-24.86-16.66-48.85-26.73-72.6-6.75-15.94-16.68-30.09-28.25-43-3-3.4-7-6.09-8.34-10.8,9.39,1.21,17.4,6,25.58,10.19,68.2,34.5,122.55,83.89,160.88,150.3a168.13,168.13,0,0,1,20,53.21c2.13,11.41,2.31,22.84-.74,34.29-3.82,14.3-12.46,24.56-25.23,31.45a75.09,75.09,0,0,1-34.83,9.13C4508.61,1640,4493.59,1639.78,4478.58,1639.77Z"/><path class="cls-8" d="M1082.25,3240.88c-.57,1.55-.83,3.38-3.07,3.44-4.61.11-9.23.33-13.84.33q-184.71,0-369.41,0-198.58,0-397.16.09c-5.77,0-11.55.29-17.32.44,1.11-2.16,2.76-3.77,5.26-3.87,5.19-.22,10.39-.31,15.59-.31q143.88,0,287.77,0h17.42c-2.73-5.29-7.21-5.37-10.73-6.44-36.9-11.16-69.94-29.38-100.05-53.29-24-19.08-45.09-41-64.91-64.36-23.08-27.2-38-58.74-52.31-90.95-17.06-38.52-30.95-78.15-43.4-118.29-11.57-37.31-23-74.67-32.12-112.7-.53-2.24-1.5-4.38-1.87-6.64-.86-5.29,2.91-9.32,8.15-8.1,21.82,5.08,43.65,10.13,65.3,15.81,18.91,5,37.76,10.29,56.35,16.33,20.26,6.57,40.36,13.69,59.79,22.53,7.34,3.33,15,6,22.24,9.5,16.61,8,33.35,15.79,48.52,27,.32-8.38.21-9.24-3.44-17.26-14.61-32-25.9-65.27-36.73-98.66-11.88-36.61-21.23-74-29.69-111.53-6.8-30.2-13.39-60.44-17.86-91.12-2.3-15.86-6.67-31.4-9.16-47.24-1.41-9.05-2.31-18.17-3.85-27.24-3.15-18.64-4.58-37.56-7.61-56.22-2.94-18.13-4.43-36.45-7.34-54.49-1.81-11.27-1.23-22.95-5.12-34-2-5.6,2.16-8.68,8-6.44,16.66,6.41,33.27,12.95,49.91,19.44,64.56,25.18,126.76,55.46,188.26,87.21,17.38,9,34.32,18.93,50.93,29.28,21.49,13.4,42.66,27.35,63.59,41.6,19,13,36.83,27.51,55.16,41.37,38.42,29,70.33,64.81,104.83,97.92,5.84,5.61,8.38,13.94,15.89,17.91,2.62,9,4.25,18.15,2.9,27.59-10.31-10.29-17.37-23.07-27-34.07-58-66.22-126.44-119.75-200-167.07-89.75-57.73-186.14-102.2-285.63-140.24-3.12-1.19-6.17-3.46-11.36-1,2,24.52,5.92,49.4,9.36,74.28,13.51,97.79,29.36,195.15,56.25,290.37,32.92,116.6,80.15,226.33,157.13,321.28,77.92,96.11,172.62,167.8,294.74,198.93,28,7.15,56.33,3.07,84.49,4.44C1067,3236.82,1075.41,3234.78,1082.25,3240.88Z"/><path class="cls-9" d="M1171.19,1305.26c2.64-1.92,5.56-.44,8.34-.69,6.3-.59,7.38-1.32,7.69-6.79.62-10.92.88-21.85,1.57-32.76.39-6.15-.71-11-6.58-14.59-6-3.73-9.51-9.88-11.4-16.76-2.71-9.86,1-20.78,8.89-26,8.16-5.43,18.69-4.52,27.27,2.28,4.56,3.61,7.45,8.6,10,12.8,5.33,1.16,7.51-2,9.12-4.7,4.12-6.88,7.78-14.06,11.4-21.23,4.14-8.2,7.79-16.67,12.15-24.75a52.45,52.45,0,0,1,8.23-11c14.86-15.65,34.53-16.44,50.75-2.24,5.18,4.52,9.13,10.43,15.48,13.62,7.77,5.53,5.83,14.47,7.36,22,4.67,23,1.58,45.81-4.72,68-4.53,16-13.51,29.13-29.79,35.75a91.87,91.87,0,0,1-15.41,4.67c-12.64,1.28-24.52-4.21-37.88-5.46,6.74,18.16,18.58,30.35,32.73,40.68a10.16,10.16,0,0,1,3.24,6.45c-13.49,19.29-26.94,38.61-40.52,57.83-3.38,4.77-5.36,4.72-9.24-.13-9-11.22-17.72-22.63-26.67-33.87-5.73-7.19-11.67-14.21-17.51-21.31.32-10.7.85-21.39.9-32.08,0-6.86-.86-7.28-7.7-8.54C1176.33,1306,1173.42,1307.71,1171.19,1305.26Z"/><path class="cls-4" d="M4160.3,1091l15.67.25c4.51,1,9,2,13.53,2.9,23,4.54,40.43,17.3,51.37,37.64,20,37.14,20.18,75.12,1.62,113-4.6,9.39-10.53,18-21.22,21.78-18.27.19-35.15-17.66-33.24-35.26.5-4.6,2.37-8.92,3-13.5,1.06-7.44-.56-14.08-7.32-18-7.21-4.24-14.53-3.18-21,1.88-7.86,6.11-13.57,17.56-26.18,12.37-11.89-4.9-15.94-16.26-18.71-27.59-3.65-15-10.34-26.77-26.17-31.53a12,12,0,0,1-8.64-10c0-19,11.27-31.41,25.09-42.27,4.72-2.73,9.55-5.25,14.37-7.81C4134.73,1090.21,4146.76,1083.1,4160.3,1091Z"/><path class="cls-10" d="M4085.39,1145.33c1.08,2.63,1.93,5.26,5.54,5.69,17.43,2.07,25.75,13.4,29.71,29.27a96.87,96.87,0,0,0,5.31,16.37,39.48,39.48,0,0,0,7.66,11.32c5.66,5.74,12.66,5.09,18-1.1,2.24-2.6,3.91-5.73,6.33-8.12,7.76-7.68,20.43-9.45,28.53-4.28,8.55,5.46,12.05,16.47,8.73,27.45a5.29,5.29,0,0,1-.58,1.62c-7.49,10-2.39,18.22,3.57,26.45s12.43,15.15,23.07,16.57c1.91,19.21.64,38.47.75,57.71-1.39.92-2.75,2.58-4.18,2.64-26.09,1.13-50.95,8.8-76.26,14-.58-10.15,9.09-14,13.17-21.27,3.26-5.83,8.8-10.47,9.69-19.13-11.34,4.8-21.78,9.74-33.39,10.54a79,79,0,0,1-23.53-.12c-17.69-4.14-25.05-17.06-27.82-33.42-1.49-8.75-3.24-16.22-12.59-20.76-10.4-5.06-10.85-15.4-5.59-23.77,14.5-23.07,15.54-48.69,17-74.51C4078.79,1153.6,4076.71,1146.35,4085.39,1145.33Z"/><path class="cls-11" d="M4169,1902.63c3.56-2.29,7.65-2.28,11.66-2.72q77.43-8.45,154.85-16.93c36.71-4,73.42-8,110.18-11.45,17.43-1.62,32.32-7.81,44.74-20,12,37.82,19.43,76.7,26.14,115.72.48,2.79.25,5.7.35,8.56-11.37-2.57-21-9.25-31.62-13.53-30.46-12.25-62.07-20.63-93.93-28.1a761.11,761.11,0,0,0-77.76-14.31c-22.74-2.88-45.31-7.69-68.11-9.25-20.63-1.41-41.05-5.74-61.88-4.51C4178.53,1906.38,4173.08,1906.91,4169,1902.63Z"/><path class="cls-12" d="M4590.58,1163.52c3.16-6.61,5.8-12.29,8.57-17.92,6.12-12.42,11.87-25,15.77-38.32,1.89-6.42,1.65-8.19-4.17-11.26a140.9,140.9,0,0,1-40.52-32c-13.7-15.6-22.28-33.44-22.48-54.71-.21-21.87,8.07-40.27,22.26-56.49,17.49-20,39.26-33.8,63.52-43.87,23.53-9.77,48.07-15.39,73.38-18.91a315.33,315.33,0,0,1,65.58-2.12c43.58,3.06,85.38,13.39,123.15,36.45,18.95,11.56,35,26,46,45.88,15.55,28.25,11.46,68.39-12.15,93.16a182.64,182.64,0,0,1-70,46.35c-25,9.22-50.49,15.63-77.24,17.47-12.05.83-24,2.49-36.17,2.41-16.77-.11-33.33-2.36-49.76-5.19-7.62-1.31-12.88,0-18.69,5.22-23.15,20.63-51.38,30.1-81.39,35.11C4595.2,1164.94,4594,1164.32,4590.58,1163.52Z"/><path class="cls-12" d="M625.55,1019.58c50.88,1.91,98.21,10,141.66,34.24,19.5,10.87,36.24,24.73,48.4,43.5,18.84,29.1,18.12,58.37.14,87.81-8.64,14.14-20.5,24.8-33.77,34.19-4.23,3-8.71,5.65-13.12,8.37-9.05,5.59-9.25,5.63-5.48,16.3a322.07,322.07,0,0,0,21.6,49c.73,1.32,1.13,3.74.41,4.69s-3.2,1.56-4.64,1.2c-23.5-5.86-47.15-11.4-67.52-25.53-3.78-2.62-8-4.94-11-8.3-6.11-6.81-13.36-8.35-21.91-6.86-25.73,4.51-51.72,4.94-77.62,3.2-44.31-3-86.38-14.19-124.26-38.16-15.18-9.61-28.51-21.4-38.66-36.62A81.39,81.39,0,0,1,447.55,1086c24.12-26.43,54.19-42.73,88-52.48,21.56-6.22,43.45-11.47,66.21-11.58C610.36,1021.86,618.78,1018.66,625.55,1019.58Z"/><path class="cls-13" d="M908.07,1936.87l0,8.33c-8.7,5.2-16.92.5-25-1.75q-45-12.62-89.71-26.36c-11.6-3.54-16.52-.48-19.88,11Q744,2029.46,713.83,2130.58c-5.63,19-4.09,21,15.19,26.75,95.15,28.31,190.44,56.1,285.64,84.25,13.45,4,19.77,2,23.8-12.12,19.14-67.11,39.63-133.83,59-200.87,5.24-18.13,3.83-20.77-14.17-25.91-17.76-5.08-35.53-10.21-53-16-11.28-3.72-21-3.61-30.6,3.27-2.62-8.81,1.14-16.77,3.31-25,3-2.29,6.42-2.41,9.77-1.57,28.72,7.2,57.06,15.7,85.06,25.31a10.68,10.68,0,0,1,5.13,4.35,5.89,5.89,0,0,0,1.33,1.09c14.73,6.08,14.76,6.09,10,22.16q-33.75,115-67.55,229.91c-.65,2.21-1.44,4.37-2.18,6.55-2.69,7.9-4.39,9.1-12.63,6.76-21-6-41.92-12.31-62.9-18.38a64.87,64.87,0,0,0-8.41-1.31c-26.47-8.1-52.89-16.36-79.41-24.27-38.69-11.53-77.44-22.84-116.18-34.2-17.71-5.19-35.46-10.24-53.17-15.41-4.42-1.3-8.84-2.67-13.14-4.33-3.62-1.39-5.31-4.35-4.81-8.24a44.35,44.35,0,0,1,1.5-6.72q15.8-53,31.62-106,19.68-66.27,39.25-132.59c.65-2.21.84-4.59,1.76-6.66s2.68-3.86,5.39-3.27c3.37.75,6.73,1.63,10,2.6q56.43,16.59,112.86,33.19C900.21,1935.09,904.16,1935.91,908.07,1936.87Z"/><path class="cls-14" d="M5227.81,2554.63c-.07,16.29-11.66,27.74-28,27.67-15.66-.07-30.19-14-30.47-29.18-.27-14.89,14.41-29.4,30-29.68C5216.88,2523.13,5227.89,2535.19,5227.81,2554.63Z"/><path class="cls-14" d="M520.31,2004.12c1.39,13.9-15.47,30.46-29.29,30.64-12.64.16-30.94-15.32-29.75-32,1-13.31,15.84-27.14,30.29-27C505.8,1975.92,520.55,1990.47,520.31,2004.12Z"/><path class="cls-13" d="M908.33,1836.74q1.95,40.21,0,80.42c-.79-2.72-2.22-5.44-2.25-8.17q-.27-32,0-64.08C906.11,1842.18,907.55,1839.46,908.33,1836.74Z"/><path class="cls-15" d="M4085.39,1145.33c-2.29,2.34-1.5,5.32-1.72,8.11-1.45,17.73-3.07,35.44-4.36,53.18-.4,5.47-3.13,9.68-5.74,14.16-3.75,6.43-7.75,12.82-10.6,19.66-3.23,7.72-.51,11.92,7.52,13.64,1.12.24,2.31.13,3.43.36,8.44,1.72,8.91,2.3,9.5,11.33.26,4,.19,8.06.82,12,2.48,15.47,10.13,26.66,26.16,30.64,8.58,14.6,8.24,29.14-.35,43.61a6.18,6.18,0,0,1-1.32,1.1c-48.86,21.16-92.24,51.41-135.59,81.71q-61.5,43-120.16,89.83c-7.1,5.65-14.29,9.06-23.27,8.74-7-7.13-5.06-16.21-5.07-24.67q-.18-175-.09-350c0-23.46-.05-23.54-22.45-23.54q-300.88,0-601.76,0c-21.12,0-21.28.08-21.29,21q-.11,239.13,0,478.25c0,20.79.17,20.94,21.41,20.95q221.1.11,442.21,0c13.92,0,27.71.68,41.25,4.2,4.39,1.33,8.89,2.38,13.16,4a402.83,402.83,0,0,0,115.9,26.9,275.12,275.12,0,0,0,117.42-16.4l2.1-.09c3.59-.52,6.88-2,10.32-3.07,18.6-6.45,34.08-17.92,49.37-29.87,5.27-4.11,10.25-9.19,17.35-10.54a8.73,8.73,0,0,1,4.67,1.62c1.23,2.55,1.16,4.85-1.22,6.73-2.95,5.38-2,11.28-2.17,17-.41,17.89-.41,35.8-.88,53.7-1.14,43.86-2.48,87.72-3.71,131.57-.14,5.2,0,10.4-.2,15.6-.77,20.31,8.3,35.45,24.52,46.87,2.81,2,5.61,4,8.42,5.94-9.16,57.37-17.75,114.83-28.48,172-8.6,45.81-17.76,91.51-29.53,136.62-8,30.77-12.22,62.08-15.4,93.55-2.31,22.9-3.21,45.93-4.73,68.9-4.64,5.36-11,5.84-17.42,6.16-6.93.34-13.87.2-20.8.2q-1159.86,0-2319.73-.07c-12.56,0-25.57,2.21-37.27-4.86-14.81-25.48-26.26-52.62-38.19-79.46A2250.62,2250.62,0,0,1,1434.57,2055c-18.11-58.35-34.38-117.19-47.28-176.93,8.46-5.17,18.42-6.07,27.45-9.6a83.41,83.41,0,0,1,9.81-3.24c6.48-1.65,9.56-5.39,9.31-12.32-.36-9.75-.11-19.52-.18-29.29-.37-52.29-4.35-104.34-10.59-156.24-.82-6.78-2.06-13.68-.13-20.54,20-7.38,40.36-13.16,61.73-14.8,30.12-12.57,53-34.36,73.61-58.69,16.11-19,29.45-39.86,41.38-61.66,7.72-6.93,17.24-5.6,26.4-5.61q261.76,0,523.52,0c23.89,0,24,0,24-23.57q.06-162.83,0-325.64c0-21.65-.13-21.7-22.13-21.71H1553.39c-22,0-22.09.06-22.11,21.82q-.12,118.65,0,237.3c0,9.2.87,18.6-5,26.71-17.14,21.56-38.6,37.59-63.43,49.24a68.49,68.49,0,0,1-9.76,3.35c-3.74,1.1-6.74-.25-9-3.29-.7-.91-1.33-1.87-2-2.8-38.29-52.53-89.14-89.16-147.44-116.38-9.32-17.89-8.18-36.07-1.54-54.41,21.16-11.26,29.82-29.79,32.86-52.77,2.35-17.74,3.41-35.14.1-52.79-1.15-6.14-1.25-12.49-1.84-18.73,5.3-22.91.77-43.29-16.21-60.08-4.44-4.39-10-7.69-15-11.49-4.78-7.8-4.66-16.52-4.67-25.2q-.06-199.31,0-398.6c0-27.61,3.21-30.56,31.13-30.56q1382.36,0,2764.71,0c29.49,0,31.74,2.24,31.75,31.29q0,200.18,0,400.34c0,9.2,1,18.61-4.86,26.75C4099,1116.13,4088,1128.06,4085.39,1145.33Z"/><path class="cls-16" d="M1626.63,2686c13.81-7.07,28.62-12,42-20.13,14.38-8.8,27.75-18.74,39.41-30.92,5.48-5.73,5.56-6.17.79-13.17-15.62-22.89-31.73-45.46-46.88-68.66a1635.65,1635.65,0,0,1-84-145.36c-2.1-4.08-3.79-8.37-5.67-12.56,4.85-5.19,11.35-5.16,17.68-5.49,6.93-.37,13.87-.19,20.81-.19h2308c41.14,0,40.82,0,41.23,40.74.38,39.2-1.73,78.44,1.24,117.61,1.84,40,4.63,79.91,10,119.62.84,6.2.57,12.55.82,18.84-9.36,8.25-20.86,5.57-31.54,5.58q-339.06.26-678.14.09c-288.47-.2-576.94-1-865.41-.35-245.7.59-491.39.11-737.09.24C1648.55,2691.85,1636.41,2694.9,1626.63,2686Z"/><path class="cls-17" d="M4120.74,3146.41c11.92,9.11,23.9,18.15,35.74,27.38,4.24,3.3,4.11,4.86.23,10.06-4,5.38-5.39,5.93-9.59,2.79-13.4-10-26.67-20.15-40.89-30.92-3.86.44-7.08,4-10.68,6.48q-54.28,37.17-108.32,74.71c-7.34,5.12-14.66,8-23.91,7.7-20.19-.63-40.42-.19-60.63-.19q-416.71,0-833.41,0c-6.91,0-13.82-.48-20.73-.73-5.45-6.26-4.9-14-4.9-21.42q-.24-249.42,0-498.84c0-25,4-28.8,29.67-28.81q438.57-.24,877.14,0c8.57,0,17.55-.89,24.53,6,12.77,90.37,32.38,179,66,264.18,6.34,16.06,13.53,31.8,20.61,47.56,8,17.8,21.17,29.75,40.26,35.14,9.61,2.71,9.7,3.1,9.77,13.21.14,21.9,0,43.81.06,65.71,0,4.61-.09,9.23.07,13.83C4112,3146.23,4112.07,3146.23,4120.74,3146.41Z"/><path class="cls-17" d="M4558.7,2814.41c4.34-4.26,2.87-9.74,2.88-14.77.14-33.49.12-67,.13-100.46,0-30.6.26-61.2-.21-91.8a56.86,56.86,0,0,1,6.8-28.09c10.69-20.46,20.21-41.55,31.31-61.77a1035.31,1035.31,0,0,1,56.66-90.77q24-34.77,50.35-67.79c14.77-18.49,30-36.39,46.5-53.32,8-8.19,14-18.43,23-25.7,18.36-14.84,34.62-32,52.86-47,17.31-14.28,34.8-28.24,52.65-41.83,19.31-14.69,40-27.1,60.57-39.82,24.1-14.92,49.77-26.83,75.21-39.11a394.66,394.66,0,0,1,61.15-23.75,43,43,0,0,1,6.69-1.49c3.83-.48,7.07,2.56,6.52,6.08-3.16,20.41-4.2,41.09-6.91,61.48-2,14.72-2.94,29.64-5.13,44.37-2,13.47-3.66,27.26-4.74,41-1.12,14.25-3.24,28.46-5.74,42.54-1.82,10.19-1.49,20.49-3.42,30.78-2.08,11.1-3.17,22.68-4.52,34.06s-2.47,22.82-4.18,34.15q-4.61,30.57-9.82,61c-3.74,22-7.55,44.05-11.73,66-3.85,20.26-8.21,40.44-12.39,60.65-.93,4.48-2.1,8.92-3,13.41-8.82,43.37-20.23,86.13-32.76,128.5-8.31,28.09-17.25,56.12-28.54,83.29-6.61,15.93-12.28,32.25-18.71,48.27a797.42,797.42,0,0,1-51.35,105.58c-6.39,10.93-11.83,22.38-18.34,33.3a987.91,987.91,0,0,1-58,85.75c-14.75,19.71-30.3,39.09-48.14,56.4-7,6.77-12.1,15.49-19.22,22.09-25.29,23.45-50.64,46.9-78.69,67.14-10.26,7.4-20.74,14.5-31.06,21.82A32,32,0,0,1,4616,3241c-23.69-.2-47.38,0-71.07-.14-9.73-.07-10.15-.77-10.95-11.24-.34-4.5.92-9.38-3.19-12.94-1.07-17.86-2.37-35.71-3.15-53.58-1.83-41.54-3.41-83.09-5.09-124.66a16.17,16.17,0,0,1,6.38-9.74,59.34,59.34,0,0,0,15.31-16.15c6.5-10.38,10.89-21.4,10.92-33.91s.4-25.23.54-37.85c.09-7.47.34-14.91,2.31-22.18,19.35-38.8,44.44-74,69.31-109.27,5.65-8,13.62-9.21,22.92-8.88,100.36,3.57,179.26-39.34,243.93-112.78-15.92,16.44-31.4,33.6-49.44,47.8a321.94,321.94,0,0,1-58.53,36.88,271.15,271.15,0,0,1-67.13,22.5c-18.69,3.6-37.51,6.45-56.67,5.81-6.29-.21-13.4,1-17-5.78s1.19-11.85,5-17.06c29.41-40.64,61.32-79.36,91.82-119.16C4791,2595,4839.28,2531,4879,2461.2c27.66-48.61,52.37-98.65,69.43-154.36-9.92,29.15-20.08,55.9-32.27,82-12.46,26.66-26.38,52.45-40.84,78s-30.71,50.08-47.23,74.39q-28.2,41.51-58.76,81.33a96.87,96.87,0,0,1-8.91,10.6c-7.31,7.17-12.77,7.34-15.73-3.79a181.37,181.37,0,0,1-5.92-34c-5-73,8.33-142,31.32-180.87-28.62,50.93-43,131.37-25.11,216.86,3.2,15.25-1.91,26.87-10.95,38.17-58,72.51-115.4,145.47-163.57,225.13-2.6,4.31-4.6,11.24-12.35,10C4557,2874.59,4557.67,2844.5,4558.7,2814.41Z"/><path class="cls-17" d="M4382.31,3090.29c-.33,19-.92,38-.87,57.06a67.74,67.74,0,0,1-4.85,25.18c-9.18,23.6-18.05,47.32-27.08,71.09-3.43.3-6.27.75-9.11.76-24.81,0-49.62,0-74.42,0-4,0-6.44-1.4-6.77-5.79-.52-6.9-1.49-13.76-2-20.65q-6.16-84.49-12.23-169c1.28-3.39,3.9-5.28,6.88-7.18,24.7-15.73,35-37.81,29.93-67-1.87-10.64-1.89-21.58-4.86-32.08a5.9,5.9,0,0,1-.63-7c-1-10.31-1.81-20.63-2.89-30.93-4.15-39.57-8.45-79.14-12.55-118.72-1.42-13.77-2.57-27.58-3.57-41.38q-2.35-32.82-4.33-65.65c-3.66-60.5-6.83-121-6.94-181.66,0-6.34.36-12.68.56-19,3.23-18.4-.18-36.74-.48-55.11-.68-41.51,0-83,3.44-124.39.38-4.53-.37-9.42,4.43-12.34,4.07,2.17,5,5.82,5.3,10.11q1.53,19.83,3.53,39.63,6.79,68.87,13.74,137.73c3.78,37.29,7.5,74.6,11.64,111.85,3.89,35,8.34,69.85,12.45,104.78,3.91,33.22,7.55,66.47,11.6,99.67,4,32.62,8.41,65.19,12.49,97.8,2.43,19.38,4.58,38.81,6.85,58.21l.66,1.07c1.5,12.57,2.61,25.2,4.61,37.69,3.48,21.8,14.44,39.08,34.52,48.78,8.88,4.28,11.26,9.53,10.8,18.65C4381.53,3065,4380.6,3077.66,4382.31,3090.29Z"/><path class="cls-18" d="M3975,2700.54c-6.91-.32-13.82-.94-20.72-.93-95.87,0-191.73.31-287.59.29q-297.13-.06-594.26-.31c-25.61,0-23.54-2.36-23.55,23q0,251.88,0,503.78c0,5.76-.18,11.53-.29,17.29h-12.9c-5.67-5.28-5.8-12.36-5.8-19.24,0-137.56-.75-275.11.33-412.66-.9-28.26-.06-56.54-.44-84.81-.28-20.89-3.12-24.12-24.17-24.49-46.19-.79-92.39-.44-138.59-.69-106.26-.56-212.52-.19-318.79-.15-8.64,0-17.34-.63-25.86,1.53-41.49-1.86-83-1.07-124.54-1-24.12.06-26.38,2.74-26.58,27.16-.21,27.66.36,55.33-.26,83,1.18,117.69.21,235.36.51,353,.05,19,.21,38.08-.12,57.11-.12,7.41.5,15.19-5.63,21.07a19.13,19.13,0,0,1-10.37-.08c-7.8-8.83-5.42-19.69-5.43-29.8q-.26-234.57-.12-469.14c0-3.46,0-6.92,0-10.39-.09-28.29-.09-28.35-29.21-28.36q-351.71,0-703.4-.13c-11.29,0-23.29,2.57-33.4-5.42a5.43,5.43,0,0,1-.87-6.24l43.71-8.06c4.62.12,9.24.34,13.86.34q1165.73,0,2331.45,0C3974.31,2690.74,3975.87,2695.38,3975,2700.54Z"/><path class="cls-19" d="M3961.11,2547.82c-4.2-5-2.77-11-2.81-16.64-.23-38.11-.27-76.22-.37-114.33,0-4.62.16-9.24-.06-13.85-.27-5.6-1.93-7.43-7.13-7.78-4.61-.3-9.24-.22-13.86-.22q-1176.28,0-2352.55,0c-4,0-8.09.09-12.13.14a31.45,31.45,0,0,1-6.59-13.12c8.09-.13,16.18-.37,24.27-.37q1172.51,0,2345-.06c8.65,0,17.3-.65,25.95-1,.16,12.64.42,25.28.48,37.92q.24,55.2.32,110.39C3961.64,2535.2,3961.29,2541.51,3961.11,2547.82Z"/><path class="cls-20" d="M4558.13,2904.69c11.35-12.43,18.89-27.48,27.4-41.69,11.87-19.81,25.64-38.24,38.89-57,17.55-24.88,36.2-49,54.6-73.27,11.1-14.64,22.68-28.91,34-43.41,7.41-9.52,13.93-19.86,22.23-28.51,7.51-7.83,7.94-16.47,6.19-25.59-1.18-6.19-1.89-12.61-3.74-18.52-2.3-7.41-2.42-14.72-2.56-22.2-.15-8.61.82-17.29-2.59-25.65-1.31-3.22-.74-6.87.67-10.15,2.12-5,2.12-10.17,1.88-15.34-1.26-26.82,5.34-52.45,12-78,7.16-27.57,20.43-52.58,33.64-77.56,2.12-4,5.32-7.49,8.24-11,.46-.57,2.31-.64,3-.18a4.37,4.37,0,0,1,1.5,2.9c.5,3.72-1.83,6.6-3.44,9.57-2.46,4.54-5.76,8.65-8.09,13.26a402.65,402.65,0,0,0-33.75,95.68c-7.06,32-6.73,64.08-5.56,96.19a135.27,135.27,0,0,0,7.56,40.65c5.47.54,7.8-4.05,10.38-7.37,10.92-14.07,21.74-28.23,32.08-42.73,15.36-21.53,30.82-43,45.26-65.17,19.17-29.41,37.64-59.22,54-90.38a837.15,837.15,0,0,0,54.18-126.82c.72-2.18,1.27-4.43,2.19-6.52.72-1.61,2.15-2.78,4.1-2.27a3.37,3.37,0,0,1,2.74,3.77,40.07,40.07,0,0,1-1.71,6.67,747.34,747.34,0,0,1-32.25,83.73c-26.29,57.9-59.17,111.91-95.14,164.13-16.63,24.14-33.5,48.16-51.22,71.49-22.24,29.28-45.63,57.68-68.22,86.69-18.71,24-37,48.38-55.42,72.61a37.32,37.32,0,0,0-2.72,4.39c-2.86,5.11-.89,9.51,4.89,9.85,7.48.44,15.09,1,22.51.16,29.75-3.16,59-8.47,87.29-18.93,29-10.75,53.81-28.62,79.21-45.46,6.15-4.07,11.08-10.09,16.25-15.52,13.11-13.76,28.13-25.72,39-41.57,1.36-2,3.88-2.74,5.88-.56a4.82,4.82,0,0,1,.2,6.37c-5.58,7.3-10.92,14.87-17.17,21.57A333,333,0,0,1,4784,2778c-24.09,11.31-49.29,18.51-75.58,23.19-17.29,3.07-34.4,2.56-51.63,3-5.2.12-10.4.06-15.6.14a10.38,10.38,0,0,0-8.8,4.71c-15.82,23.33-31.77,46.57-47.3,70.09-7.61,11.52-14.32,23.62-21.68,35.31-1.13,1.8-3.54,2.8-5.36,4.18A30.09,30.09,0,0,1,4558.13,2904.69Z"/><path class="cls-21" d="M4254,2286.4c-2,43.23-4.81,86.44-3.51,129.76.51,16.73,1.32,33.44,1.91,50.16a43.29,43.29,0,0,1-.42,8.6c-.47,2.81-3.26,2.73-5.38,3.32-3.1-4.52-3.31-9.68-3.42-14.91-.94-46.71-2.08-93.47.41-140.11,1.09-20.61,1.4-41.42,5-61.95,2.29-13,2.81-26.31,4.42-39.45,3.37-27.48,14.93-50.49,37-67.89,21.3-16.76,42.32-33.87,63.51-50.77,2.24-1.79,4.73-3.28,7.13-4.88a3.61,3.61,0,0,1,4.7.46c2.21,2,1.47,4.27-.42,5.86q-9.91,8.36-20.09,16.4c-14,11.12-27.8,22.51-42.16,33.14-24.55,18.15-38.89,41.92-42.26,72.36-2.09,18.86-4.7,37.67-7,56.51A12.71,12.71,0,0,0,4254,2286.4Z"/><path class="cls-22" d="M4276.3,2935.6l.63,7a517.93,517.93,0,0,1-69.72,11.37,459.21,459.21,0,0,1-63.86,2.11c-31-1.34-62-4.29-92.55-10.28a11.42,11.42,0,0,1-4.58-2.15c-.72-.56-1-2-1.06-3.07a3.21,3.21,0,0,1,3-3.5,15.59,15.59,0,0,1,5.06.65c51.24,10.48,103.08,10.62,154.92,7.9,17.7-.93,35.21-5.38,52.81-8.13C4266,2936.74,4271.18,2936.24,4276.3,2935.6Z"/><path class="cls-23" d="M4331.57,2946.18c.85-4.62,3.28-7.57,8.28-6.28,9.57,2.45,19.51,2,29.08,3.88,10.87,2.09,21.77,2.22,32.69,2.79,9.21.49,18.39,1.26,27.59,1.88a50,50,0,0,0,6.91.31c34.41-2.47,69.15-2.49,102.41-13.63,2.67-.9,5.3-2.67,8.26-1.41.92.39,1.55,1.56,2.22,2.44a2,2,0,0,1-.4,3.1c-1.86,1.25-3.71,2.79-5.8,3.39a358.92,358.92,0,0,1-52.29,10.95c-25.88,3.36-51.79,3.84-77.69,2.6-27-1.28-54-3.82-80.6-8.95Z"/><path class="cls-24" d="M4100.1,2506.24c-21.93-.2-43.9-.87-65.66,3-3.11.55-6.9,1.36-9.31-2.22-1.59-2.35,2.3-5.64,8.15-6.82a34.62,34.62,0,0,1,5.14-.75c27.09-1.17,54.08-5.28,81.28-3.36,9.76.69,19.47,2.17,29.16,3.58a2.81,2.81,0,0,1,2,4c-.42.9-1.44,2-2.28,2.12-3.42.35-6.88.43-10.33.44C4125.52,2506.26,4112.81,2506.24,4100.1,2506.24Z"/><path class="cls-25" d="M4491,2488.28c-7.73-.65-17.47-2-27.24-2.19-25.95-.48-51.75,2.14-77.53,4.88-2.25.24-4.62.93-6.56-.77a4.76,4.76,0,0,1-1.54-2.8c-.11-1,.22-2.68.9-3.05a18.85,18.85,0,0,1,6.31-2.24c33.27-4.11,66.68-4.56,100.13-3.46,5.74.19,11.64-.09,16.79,3.14,1.41.89,2.68,2.38,1.7,4.28-.46.9-1.47,2-2.32,2.11C4498.82,2488.45,4495.93,2488.28,4491,2488.28Z"/><path class="cls-17" d="M1583.15,2696.84a17.2,17.2,0,0,0,9.85,2.72c4.62,0,9.24,0,13.86,0h722.58c5.78,0,11.56-.12,17.33.18,6.1.3,7.79,2.17,8.09,8.74.24,5.19.13,10.39.13,15.58q0,251.07,0,502.13c0,5.76.2,11.53.32,17.29-5.75.31-11.5.89-17.26.89q-335.42.06-670.85,0H1367.36c-4,0-8.09-.17-12.13,0a12.77,12.77,0,0,1-10.7-4.53c-11.14-12.43-24-23.3-34-36.8,10.75-8.55,19.51-.92,28.39,3.78,6.62,3.5,11.34,9.93,18.36,12.91,15.44,6.56,22.92,1.36,25.81-15,6.81-38.58,3.63-77.93,9.84-116.51,1.21-7.49-2.12-12.15-9.08-14.56-3.83-1.32-7.77-2.24-11.67-3.28-28.82-7.61-38-18.77-32.88-48.49,11.75-67.6,20.28-135.76,36.87-202.55,7.48-30.11,13.28-60.88,14.39-92.14.21-6,2.46-11.16,4.14-16.62,3.78-7.15,10.51-11,17-15,9,11.24,1.86,23.12,1.43,34.74-6.4,34.14-11.58,68.51-17.92,102.66a37.73,37.73,0,0,1-1.14,5.35,62.6,62.6,0,0,0-1.66,7.83c-8.9,58.8-20.21,117.2-29.74,175.9-2,12.08-.35,19.66,13.21,23.12,80.64,20.54,160.94,42.36,241.51,63.12,1.68.43,3.4.69,8-2.39-31.53-50.69-59.56-103.8-93.1-153.73-3.12-5.15-9.07-8.35-10.33-14.8,13.43-11.75,13.22-28.67,16.7-44.17,1.39-6.19,2.47-12.46,3.65-18.71,7.94-40.19,16-80.35,23.85-120.53q4.07-20.79,8.64-41.44C1576.21,2706.81,1576.56,2700.09,1583.15,2696.84Z"/><path class="cls-17" d="M1082.25,3240.88c-22,0-43.93-.66-65.84.24-21.15.88-41-4-61-9.69-37.38-10.62-72.59-26.37-106.5-45-23.72-13-45.41-29.11-66.82-45.72a638.59,638.59,0,0,1-67.78-61.39c-22-22.79-41.76-47.38-60.25-73.11-12.77-17.77-25.07-35.82-36.25-54.58-15.93-26.7-31.11-53.78-42.94-82.71-8.49-20.75-17.93-41.1-25.71-62.19-11.95-32.4-23.22-65-32.16-98.36-4-15-8.16-29.93-11.65-45-7.24-31.27-14.55-62.51-19.87-94.19-2.76-16.38-6.81-32.54-9.44-48.92-3.09-19.23-5.1-38.63-7.9-57.91-1.73-11.88-4.34-23.65-6-35.54-1.76-12.49-2.67-25.09-4.34-37.59s-3.73-24.89-5.79-37.3c-.66-4-1.69-7.88-.08-12,3.92-2.84,7.77-.45,11.18.92,32,12.9,64.26,25.4,95.88,39.27,39.08,17.15,77.84,35.22,115.19,55.87,41.28,22.82,82.11,46.63,120.63,74,24.35,17.29,48.25,35.14,71,54.67,25.35,21.78,50.78,43.38,73.76,67.67,11.85,12.53,22.08,26.57,34.83,38.32,2.69,2.48,3.68,5.75,3.82,9.35.14,3.43-.17,7,2.89,9.56,1.88,21.14,3.75,42.28,5.61,63.22,4.43,2.14,5.42-1.41,7-3.43,15.28-20.07,34.84-33.38,59.87-38.13a13.5,13.5,0,0,1,5.77,12c-.83,23.71,5.36,47,3.91,70.74,4,52.77,5.09,105.72,9.8,158.44,1.8,20.08-.12,40.33,2.58,60.38.56,4.2-1.48,7.83-3.69,11.27.37,13.21.43,26.44,1.17,39.62,2.93,52.22,6.11,104.43,9.08,156.64C1082.54,3227.11,1082.24,3234,1082.25,3240.88Z"/><path class="cls-17" d="M1394.75,2710.67c.42.4,1.24.83,1.21,1.18-1.45,15,.68,30.07-3.28,45.19-4.33,16.54-6,33.8-8.46,50.8-.58,4-1,7.91-2.45,11.76-8.56,22.74-11,46.81-15.11,70.51-2.94,16.92-6.17,33.79-9.07,50.72s-5.58,33.92-8.29,50.89c-1,6.22-1.92,12.82-3.83,18.44-4.79,14,0,27.25.68,40.79.25,5.25,3.33,8.32,8.38,9.66,8.34,2.21,16.63,4.56,25,6.84,3.32.91,6.71,1.6,10,2.73,10.42,3.59,12.29,7.22,9,18-2.73,8.86-6,17.5-1.35,26.8,1.3,2.61,0,5.57-.84,8.38-1.52,4.94-2.49,10-4,15-1.7,5.69-2.56,12-.64,17.07,4.19,11.11,2.34,21.59-.95,32a71.3,71.3,0,0,0-3.08,23.84,86.14,86.14,0,0,1-.22,8.65c-.28,3.93-2.34,6.56-6.42,6.76-5.76.28-11.56,0-17.32.36-6.25.36-11.16-1.84-15.35-6.39-5.1-5.54-10.7-10.32-17.67-13.68-6.48-3.13-12.88-4.91-20-3.9-4.2-3.88-8.59-7.56-12.56-11.66-20.48-21.15-40.82-42.44-61.29-63.6-4.64-4.79-4.7-4.47-11.15-1.39q-28.1,13.42-56.33,26.55c-2,.92-4.1,2.18-6.41.54-2-1.45-5.78-8.88-4.92-10.7a8,8,0,0,1,3.37-3.67c21.26-10.15,42.17-21,65.22-29.82.21-28.89.42-58.25.63-87.61-4.51-7.83-4.75-16.44-4.75-25.15.06-80.12-.39-160.23.77-240.35.11-7.41-.87-15.18,5.35-21.08,21.86,5.1,43.6,10.74,65.59,15.2,32.88,6.66,61.71-1.18,85.43-25.76C1384.29,2719.68,1388.44,2714,1394.75,2710.67Z"/><path class="cls-9" d="M1228.51,2735.17c-.27,39.71-.67,79.43-.78,119.14-.15,53.54-.08,107.08-.14,160.62,0,2.29-.29,4.57-.45,6.84-4.14-2.78-8.82-2.3-13.41-2.16q-70.92,2.16-141.82,4.38c-3.77-22.18-2.18-44.72-4.23-67-1.85-20.05-1.27-40.21-3.47-60.1-2.28-20.64-1.74-41.29-3.33-61.86-1.07-13.72-3.25-27.34-2.65-41.17,15.68-4.52,31.76-5.46,48-5.46q42.46,0,84.94,0c27.87,0,27.71,0,28.21-27.3.16-9-2-18.69,5.4-26.3Z"/><path class="cls-7" d="M1102.93,1993.11c-12-1.1-23-6-34.48-9.15-21.89-6.1-43.66-12.6-65.48-18.94-1-15.08,3.34-29.67,4.26-44.59.39-6.29,1.79-12.51,2.61-18.78.74-5.69,1.68-11.29,4.14-16.13,5-.51,8.49,1.68,12.24,3.07,35.91,13.39,73.07,20.09,111.33,21.77,70.78,3.11,140.09-6.56,208.7-22.94,3.31-.79,6.77-1,10.16-1.47-11.88,7-23.64,14.1-35.66,20.78-8.57,4.76-17.55,8.76-26.22,13.33-40.36,21.26-82.68,37.79-126,51.88-16.94,5.51-34.06,10.47-51.06,15.81C1112.56,1989.3,1107.78,1991.31,1102.93,1993.11Z"/><path class="cls-10" d="M1224.73,2734.83c0,16.12,0,32.23-.21,48.34-.14,8.72-1.62,10.26-10.06,10.38-17.28.26-34.56.17-51.84.2-21.31,0-42.62,0-63.93.09-7.44,0-14.85-.38-22.16,2.32-6.18,2.28-12.52,1.07-18.3-2.26q-2.34-41.37-4.7-82.75c16.84-4.91,34.17-5.2,51.31-3.64a402.13,402.13,0,0,1,49.07,7.95c22.36,4.86,44.47,10.83,66.66,16.46C1222.1,2732.31,1223.35,2733.83,1224.73,2734.83Z"/><path class="cls-10" d="M1408.7,2731.36c.48-4.52.6-9.12,1.54-13.54,1.56-7.33,2.54-14.63,1.56-22.11,13.71-9.11,28.63-12.8,45.25-13.2,22.57-.55,44.26,4.21,66,8.27a143.74,143.74,0,0,0,23.75,2.5l36.06.73a10.28,10.28,0,0,0,.23,2.82q-6.33,29.27-12.66,58.5c-5.24,4.93-11.53,4.45-17.89,3.4-42.58-7-85.41-12.31-128.07-18.78C1418.19,2739,1411.82,2738.18,1408.7,2731.36Z"/><path class="cls-15" d="M3572.89,1598.34c24,16.94,49.78,30.73,75.79,44.19L3667,1652c-4.38,6.74-11.36,4.7-17.39,4.7q-224.54.22-449.07.06c-20.52,0-22.89-2.42-22.9-23.07q-.12-238.21,0-476.43c0-19.17,2.67-22,22.24-22q300-.21,599.91,0c20.54,0,24.62,4,24.65,24.28q.24,176.71,0,353.43c0,6.88.58,14-5.05,19.48-32.37-.37-64.79.61-97-3.84-5.84-6.08-5.22-13.8-5-21.22,1.93-81.21-6.89-162.24-4.34-243.47.25-8,3.08-19.48-7.79-22.37-13.78-3.66-28.89-5.59-42,2-7.09,4.12-4.85,13.59-4.91,20.9-.42,50.11.37,100.23-.41,150.36,1,30.74.45,61.47.25,92.21-.05,6.71.15,13.89-6.35,18.57l-54.36-1.44c-5.7-5.27-5.6-12.37-5.6-19.19,0-64.18-.77-128.36.32-192.51-.35-18.43,0-36.88-.15-55.33-.06-12.16-5.6-17.3-17.84-18.07-39.41-2.5-41.15-1.22-41.06,38.18,0,12.68-.42,25.36.18,38,.22,52.42.11,104.81.09,157.21,0,6.89.21,13.84-1.85,20.51-1.39,4.09-4.29,6.31-8.57,7.2-2.28.47-7,0-4.9,4.3,8,16.51-4.82,12.41-12,11.49-11.2-1.45-24.27,4.34-33.22-7.45-4.4-15.83-1.94-32-2.29-47.95-.38-17.76.46-35.56-2.85-53.15-1.69-47.74-.14-95.49-.93-143.23-.13-8.11,3.19-19.54-7.3-22.66-13.68-4.07-28.77-5.3-42.07,1.46-7.48,3.8-5.42,13.31-5.46,20.6-.23,41.42-.1,82.85-.11,124.27,0,6.33.16,12.66-.32,19,.64,47.78,0,95.56.31,143.34.13,24,1.11,25,25.66,24.88,10.9-.07,21.87,1.45,32.72-.79C3505.15,1579.46,3539.78,1585.67,3572.89,1598.34Z"/><path class="cls-26" d="M3819.43,1532.47q.09-133.42.18-266.86,0-52.84,0-105.7c0-4.61-.08-9.24-.42-13.84a5.59,5.59,0,0,0-5.58-5.46c-4-.3-8.08-.36-12.12-.36l-601.79,0c-18.21,0-18-.6-18,18.12q0,237.4,0,474.81c0,19.66.1,19.72,20.56,19.73q223.71,0,447.44,0c5.76,0,11.52-.53,17.28-.82,6,1.83,12,3.47,16.93,7.54-6.34.34-12.68,1-19,1q-235.79.09-471.57.06c-20.13,0-19.28.72-19.28-18.53q0-246.85,0-493.72c0-18.23-.52-18,18.08-18q308.61,0,617.22,0c20.1,0,20.17.09,20.18,20.21q0,181,0,362.06c0,6.93.11,13.86.17,20.78C3826.1,1535.08,3822.64,1535.19,3819.43,1532.47Z"/><path class="cls-27" d="M3596.71,1310.93c.2,6.87.56,13.74.57,20.61q.16,96.33.22,192.66l-3.53,1.11c-23.45-5.86-47.37-10.63-65.89-28.06l.33-183.12c1.19-2.63,2.48-5.78,5.38-6.24C3555,1304.53,3576.23,1300,3596.71,1310.93Z"/><path class="cls-28" d="M3652.65,1413.91l.16-153.89c0-4-.11-8.07,0-12.1.33-8.75,3.46-13,12.26-13.37,15-.64,30-.35,45,0,5.18.13,8.06,3.65,8.52,9.15.39,4.58.26,9.21.26,13.82,0,34.58-.08,69.17.06,103.75,0,12.61-.6,25.16,2.58,37.75,1.93,7.62.76,16,.79,24.11q.13,52.74.16,105.48l-1.55.34-1.55-.4c-6.64-6.3-5.85-14.63-5.93-22.59-.24-22.4-.52-44.82.06-67.21.36-13.9-4.78-19.44-19-19.45C3680.45,1419.3,3665.51,1423.54,3652.65,1413.91Z"/><path class="cls-10" d="M3528.08,1497.25c14.07,7.76,29.88,11.23,44.38,17.9,7.2,3.31,15.12,5.13,21.51,10.16-1.7,7.72-2.88,15.61-5.21,23.14-4.7,15.16-9.74,30.21-13,45.8-.31,1.5-1.92,2.73-2.92,4.08-22.42-2-44.1-7.82-66-12.69-11.2-2.5-22.33-5.3-33.5-8-17.09-3.05-24-17-20.61-32.57,2.22-10.16,9.55-18.18,9.26-29.37-.17-6.15,6.29-8.92,12.86-5.09,14.22,1.34,28.6-.61,44.44.29-3.61-2.8-7.4-5.4-10.76-8.47a4.67,4.67,0,0,1-.39-6.31,5.88,5.88,0,0,1,4.62-1.56C3518,1495.23,3523,1496.33,3528.08,1497.25Z"/><path class="cls-27" d="M3652.65,1413.91c16.1,0,32.21-.05,48.31,0,4,0,8.06.08,12.05.46a5.73,5.73,0,0,1,5.44,5.63c.35,4.57.4,9.17.42,13.76q.27,47.41.47,94.82c-21,1.2-41.9-.25-62.84-1.07-1.57-.07-3.09-1.22-4.64-1.86q.3-37.82.58-75.62Q3652.58,1432,3652.65,1413.91Z"/><path class="cls-29" d="M4010.4,1632.09c-13.69,10.26-26.46,21.81-41.4,30.33-8.87,5.06-17.43,11-28,12.15-3.59,1.65-7.14,2.11-10.56-.45h0c1.84-3.95,5-5.76,9.16-7.09,18.82-6.07,34.58-17.21,50.14-29.22,22.46-17.33,40.81-38.77,61.14-58.21,4.51-4.31,8.06-9.6,12.23-14.29.55-.62,2.59-.87,3.11-.39a6.85,6.85,0,0,1,2.35,4,7.91,7.91,0,0,1-1.73,4.69,30.1,30.1,0,0,1-5.86,6.31c-11.74,8.64-14.37,21.36-16.12,34.62a179.1,179.1,0,0,1-21.86,64.76c-1.86,3.3-3.72,7-8.91,9-.36-16.78-.71-33.12-1.05-49.45-.05-1.78-.09-3.56-.14-5.34C4012.71,1632,4011.86,1631.52,4010.4,1632.09Z"/><path class="cls-30" d="M4131.8,1308.46a246.54,246.54,0,0,0,37.64-14.79c4.2,2.57,2.06,5.2,1,7.54a106.29,106.29,0,0,1-19.87,29.61c-3.1,3.29-6,6.76-9,10.15-3.35.76-5.81,4-9.66,3.45C4124.09,1332.46,4124,1320.47,4131.8,1308.46Z"/><path class="cls-31" d="M4131.8,1308.46q.06,18,.11,36c-7.1,3.06-13.8,7.26-21.86,7.6q.18-21.81.35-43.62C4117.53,1308.85,4124.67,1306.5,4131.8,1308.46Z"/><path class="cls-32" d="M1606.32,1500.84l23.84-52.12c9.1-7.08,19.85-5.13,30.08-5.14q216.6-.18,433.21-.08c5.2,0,10.43-.37,15.59,0,14.39,1.14,19.19-5.73,19.12-19.52-.3-62.33.08-124.67-.27-187-.1-17.18-5.44-20.19-21.65-13.65-15.08,6.09-25.88,17.17-34.51,30.47-5.94,9.17-13.34,15.82-24.51,17.36-28,5.19-53.16-.88-73-21.8-32.6-34.28-69.39-40.27-111.57-19.59-9.85,4.82-19.73,9.51-29.25,15-14.65,8.42-29.89,14.56-47.41,14.72-17.22.17-31.69-5.11-44-16.93-5-4.8-10.08-9.54-14.76-14.64-41.63-45.37-94.14-34-133.29-7.46-18.28,12.39-19.39,30-17.27,49.13.77,25.19-.56,50.34-.35,75.5,0,6.36-.41,12.59-4.22,18.05-9.33,17.71-22.56,32.54-35.31,47.72-8.43-1.41-6.76-8.28-6.78-13.56-.21-81.39,0-162.77-.24-244.16,0-12.83,6.1-17.64,17.82-17.86,5.2-.1,10.4-.1,15.6-.11H2142c4.63,0,9.25.16,13.87,0,13.75-.38,19.4,5.69,19.36,19.89-.32,110.25-.1,220.49-.26,330.74,0,17.56-3.17,20.11-24.08,20.13q-176.77.16-353.54,0-84,0-168.1-.06C1621.29,1506,1612.84,1507.48,1606.32,1500.84Z"/><path class="cls-28" d="M2043,1268.19c.43-.37.84-1,1.32-1.08,10.22-1.22,16.85-5.92,22.32-15.51,6.72-11.81,15.67-22.72,28.48-29.4,9.81-5.1,19.61-9.76,31.09-8.8,3.92.33,6.57,2.16,6.87,6.25s.3,8.07.3,12.11q0,99.52,0,199.07c0,4-.06,8.08-.43,12.08a5.85,5.85,0,0,1-5.61,5.54,102.37,102.37,0,0,1-10.37.4q-243.4,0-486.82-.13c4.91-15.17,9.74-30.36,14.77-45.49,2.18-6.54,4.15-13.06,3.55-20.06,6.88-31.16,14.26-62.16,29.1-90.77,9-2.82,15.46,3,22.24,7,15.91,9.4,31.59,19.22,48.57,26.63,32.61,14.21,56.66,9.56,81.83-15.27,10.67-10.53,20.44-22.07,32.69-30.9,20.88-15.07,38.16-15.31,58.8.09,12.48,9.3,23.81,20.13,36.08,29.7,29.74,23.2,78.54,5.4,87-31.38C2045.66,1274.6,2044,1271.47,2043,1268.19Z"/><path class="cls-15" d="M999.66,1990a6,6,0,0,0,1-1.43c4.18-13.26,4.25-13.5,18.33-9.5q38.25,10.86,76.33,22.28c12.59,3.79,13.36,5.67,9.7,18.59-2.52,8.86-5.25,17.66-7.86,26.5q-27.08,92-54.24,183.88c-2.1,7.07-3.29,14.63-8.33,21.51-12-3.31-24.15-6.49-36.2-10.05q-79.58-23.51-159.1-47.18c-38.13-11.27-76.35-22.24-114.44-33.63-26.57-8-22.88-5-16.23-28.73,12.56-44.9,26.51-89.41,39.76-134.12,7.52-25.39,14.77-50.86,22.19-76.27a88.6,88.6,0,0,1,3.91-11.44,4.91,4.91,0,0,1,4.1-2.22c4.5.93,8.86,2.48,13.29,3.77q55.57,16.29,111.15,32.53a36.22,36.22,0,0,0,5.13.74q.64,3,1.27,6.06c2.34,14.4,1.85,28.65-2.38,42.69-15.71,52.12-31.37,104.25-47.3,158,8.57-21.59,9.3-44.27,22.42-62.51,11.55,4.17,18.13,18.38,33.73,15.48,3.61-.67,5.35,7.78,5.08,13.11-5.47,15.93-9.63,32.23-14,48.48,5.59-16.68,8.11-34.3,16.18-50.2,1.14-2,2.66-4.86,4.6-4.75,17.19,1,22.64-11.89,29.18-23.78,3.18-5.77,4.65-15.62,12.33-14.58,8.43,1.14,8.22,10.94,9.34,18.17-6.9,32-18.44,62.77-25.83,94.63.74-.65.09-1.53.29-2.28,8.56-32.24,19.63-63.77,27.25-96.26a55.47,55.47,0,0,1,4.71-16.65,71.79,71.79,0,0,0,4.18-11c.4-1.53.92-3,1.46-4.5,2.2-15.93,15.11-30.22,7.17-47.67a5.47,5.47,0,0,1,.71-4.55Q999.09,1996.52,999.66,1990Z"/><path class="cls-33" d="M1606.32,1500.84c6.94.14,13.87.41,20.8.41q260.16,0,520.31,0h5.21c20,0,18.88.7,18.88-18.9q0-162,0-324.07c0-18.63.6-18.26-17.81-18.26H1550.16c-1.73,0-3.47,0-5.2,0-11,.37-11.41.81-11.76,12.14-.07,2.31,0,4.62,0,6.93q0,117,.13,233.95c0,6-2.6,12.85,3.44,17.81-2.23,4.71-6.22,7.58-10.54,10.1-.11-5.19-.32-10.38-.32-15.57q0-125.61,0-251.22c0-5.19-.09-10.4.18-15.58.28-5.34,2.27-7.49,7.25-7.82,4.61-.31,9.24-.22,13.86-.22H2157.5c23.33,0,21.25-1.21,21.25,21.82q0,168.06,0,336.11c0,3.46.09,6.93,0,10.39-.3,10.8-1,11.51-12.15,11.82-4.62.12-9.24,0-13.87,0q-265.27,0-530.57,0c-7.49,0-15,.61-22.48.93C1601.07,1507.6,1602.75,1503.64,1606.32,1500.84Z"/><path class="cls-9" d="M975.68,2090.15c-2-5.13-4-10.27-6.52-16.79-5.74,10.52-10.82,19.86-15.94,29.19-2.46,4.48-5,8.9-8.89,12.37-3,2.68-5.54,2.65-8.91.12-4.58-3.43-4.83-3.09-10.28,2.07-2.15,2.85-4.27,2.67-6.36-.07-1.59-3.5-3.17-7-4.95-10.94a68.81,68.81,0,0,1-7,4.09c-2.76,1.22-6.62,1.22-7.8-1.19-2.93-6-8.88-8.33-13-12.71-1.36-1.45-1.31-4.23-1.91-6.39-3.66-17.68,16.58-82.81,29-93.35l3.65,1.08c3.69,1.26,7.56.33,11.3.95l70.5,4.49c.24,1.55.49,3.1.73,4.66,6,10.46-1,19.93-2.62,29.7-1.18,7.22-1.65,14.73-4.62,21.62l.14-.3c-3.21,3.06-.68,7.76-3.16,11l-4.23,16.54C982.71,2089.88,980.85,2094,975.68,2090.15Z"/><path class="cls-9" d="M1679.14,1292.68c-4.71,15.24-9.38,30.5-14.16,45.72-3.76,12-7.53,24-11.6,35.85-1.08,3.16-3.24,6-4.9,8.92l-73-22.07c-3.87-27.08,1.28-53.28,8.16-79.21,1.35-5.07,6-10.67,11.51-6.92,11.07,7.55,10.22-3.11,13.56-7.56,13.92-23.25,11.81-23.75,47.52-15.42,4.89,1.15,10-.31,14.89,2.75C1685.9,1264,1688.34,1274.52,1679.14,1292.68Z"/><path class="cls-34" d="M1484.69,1632.07a134,134,0,0,1-61.74,14.8c-1.11-2.62-3-5.17-3.22-7.86-3-33.24-9.62-66-13.88-99-.06-.44.44-1,.65-1.39.61,0,1.36-.24,1.74,0,31.69,23.09,57.47,51.3,74.74,86.79C1484,1627.45,1484.14,1629.85,1484.69,1632.07Z"/><path class="cls-35" d="M1005.54,1874.71c1.47-7.51,2.66-14.9,4.37-22.17,13.3-56.61,28.13-112.82,48.68-167.31,11.2-29.68,24.15-58.6,42.7-84.64,3.68-5.15,7.15-10.53,12.78-13.84.72-.42,2.19-.06,3.06.4a3.56,3.56,0,0,1,1.94,4.29,13.09,13.09,0,0,1-2.69,4.29c-16.58,18.83-27.92,40.76-37.89,63.55-20.62,47.09-35.47,96.08-48.1,145.78-5.24,20.62-9.69,41.44-14.69,62.12a90,90,0,0,1-4.59,12.83c-.21.52-2,.53-3,.53-.39,0-1-.62-1.14-1.07C1006.38,1877.89,1006,1876.25,1005.54,1874.71Z"/><path class="cls-36" d="M913.08,1996.55c-5.82,10-8.15,21.36-11.73,32.21-6.63,20.13-12.94,40.36-17.28,61.14-8.24,16.64-11.15,35-16.85,52.46-2,6-3.69,12.12-5.83,18.08-.72,2-1.8,4.29-4.84,4-2.22-.24-3.63-3.53-2.8-7.14.39-1.68,1-3.3,1.52-5q18.87-63.82,37.75-127.65c4.42-14.9,7.61-30.22,14.64-44.26,2.49-5,.92-10.22,1.11-15.35.17-4.6.41-9.19.62-13.79,4.62,7.86,2.4,16.58,3.07,24.92C913,1982.94,912.89,1989.76,913.08,1996.55Z"/><path class="cls-37" d="M1612.59,1268.79c-3.16,7.21-6.33,14.42-10.39,23.69-2.4-6.17-3.67-10.21-5.52-14-1.36-2.77-5.76-2.76-7.12-.18s-3,5.11-3.47,7.84c-3.78,23.23-7.33,46.49-10.87,69.76a25.79,25.79,0,0,0,.23,5.17l-3.39,2.07q-.12-49.22-.25-98.43C1586.25,1257.61,1600,1257.84,1612.59,1268.79Z"/><path class="cls-38" d="M1220.48,1463.07c0-9.51,5.2-14.87,14.67-15,9.23-.1,16.66,7.14,16.36,16-.24,7.19-8.62,14.73-16.38,14.74C1227.1,1478.79,1220.53,1471.75,1220.48,1463.07Z"/><path class="cls-39" d="M1293,1296.7c.15,11.92.2,23.84.48,35.75.14,6.22.69,12.44,1.06,18.66-5.54-.88-8.93-6.65-14.9-6.55a2.72,2.72,0,0,1-2.2-2.13c-2.77-14.46-5.8-29,2.62-42.72A20.94,20.94,0,0,1,1293,1296.7Z"/><path class="cls-40" d="M950.85,1680.62a68.41,68.41,0,0,1,26.9,4.57,28.48,28.48,0,0,1,5.8,3.55,3.33,3.33,0,0,1,.75,4.51,3.38,3.38,0,0,1-2.82,1.48c-14.34-3.9-28.75-7.19-43.72-7.48a2.88,2.88,0,0,1-2.51-3.7,3.64,3.64,0,0,1,3.6-2.88C942.85,1680.53,946.85,1680.62,950.85,1680.62Z"/><path class="cls-36" d="M928,1998.58c-3.92,1.28-7.76,1.68-11.33-1C920.59,1996.78,924.48,1995.71,928,1998.58Z"/><path class="cls-28" d="M2366.72,3243.57q.09-80.39.18-160.76,0-125.32,0-250.65c0-6.91.2-13.82.31-20.73,7-6.76,15.92-5.62,24.4-5.66,38.42-.18,76.84-.06,115.25-.08a99.33,99.33,0,0,0,22.18-2.14c10.69-2.54,12,6.58,15.4,12.73,26.73,47.82,65.54,80.23,119.87,91.38,79,16.22,151.72-16.91,193.33-86.76,3.93-6.61,5.69-15.9,16.49-15.35,45.88.19,91.72,0,137.55.14,8.51,0,17.38-.92,24.5,5.52.1,7.5.28,15,.28,22.48q0,199.8,0,399.6c0,3.45.1,6.91.16,10.37-5.75.24-11.5.68-17.26.68q-317.71,0-635.43,0C2378.22,3244.33,2372.47,3243.84,2366.72,3243.57Z"/><path class="cls-28" d="M4160.3,1091c-13.55,0-26.3,4.21-39.22,7.47-7-7.13-5-16.21-5.05-24.67q-.16-202.74-.09-405.47c0-21.86-.06-21.92-22.07-21.92q-1391.64,0-2783.28,0c-24.29,0-24.82.39-24.83,25.46q-.15,196.67-.16,393.33c0,10.15,2.29,21-5.28,29.92l-8.54-1c-2.48-1.06-5.33-.12-7.77-1.4l-16,.07c-5.52-1-10-2.87-9.45-9.85.28-3.44,0-6.93,0-10.39V646.22c0-3.46-.11-6.94.1-10.39,1.69-28.73,23-50.1,44.88-55.23a64.74,64.74,0,0,1,11.91-1.69c6.35-.29,12.72-.12,19.08-.12H4087.83c5.2,0,10.43.37,15.6,0,10.21-.82,19.21,2.38,28.17,6.82,20.85,10.35,30.64,27.84,31,50.12.7,40.42.24,80.87.24,121.3q0,156,0,311.94C4162.84,1076.36,4163.89,1084,4160.3,1091Z"/><path class="cls-15" d="M5005.7,3174.88l-6.85,3.72c-11.07-3.12-7.18-11.67-5.74-18.17,9.27-42,15-84.55,20.23-127.2,1.73-14-2.13-28.94,6.2-42,4.48-7.59,11-13.65,17.72-18.78,20.83-15.79,37.68-35.63,56.44-53.51,7.52-7.17,14.71-14.68,22-22.07,2-2,4-4.15,5.84-6.37,1.64-2,1.45-4.19.08-6.34-1.53-2.41-4.32-2.38-7.26.5-7.42,7.27-14.71,14.69-22.06,22q-26.37,26.3-52.78,52.53c-4.08,4-7.61,8.74-12.95,11.36-9.25-.59-11.11-8-11.18-14.56a922.79,922.79,0,0,0-8.6-116c-.39-2.86.81-5.6,2.43-8a150.91,150.91,0,0,1,33.58-17.63c12.37-4.71,24.28-10.44,36.91-14.64,27.35-9.1,55-16.26,83.58-20.47,10.91-1.61,21.62-3,32.56-2.64,5.23.19,6.75,2.32,7.5,7.52,1.54,10.64-2.28,20.63-4.31,30.62-8.78,43.38-20,86.17-35.46,127.74-4.59,12.39-9.45,24.74-15,36.73-17.24,37.15-35.91,73.62-60.33,106.65-20.56,27.81-43.19,53.95-69.1,77.06a17.17,17.17,0,0,1-3,1.77c-1.16,1.16-2.43,2.21-3.53,3.44s-2.32,2.28-3.49,3.4l0,0Q5007.47,3173.27,5005.7,3174.88Z"/><path class="cls-17" d="M5019.54,2991.25c0,8.06.11,16.13,0,24.19s.79,16.11-2.63,23.83c-.88,2-.71,4.53-.76,6.82-.56,23.55-6,46.4-9.54,69.55-2.67,17.58-5.76,35-10.64,52.07-1.16,4-1.08,8,2.84,10.89-1.92,2.08-3.58,4.5-5.81,6.18a648.8,648.8,0,0,1-60.33,40.11c-8.43,5-17.5,8.88-26.18,13.44-4.84,2.55-10,2.56-15.2,2.56q-25.12,0-50.27,0H4662.51c-4,0-8.09,0-12.12-.27a3.15,3.15,0,0,1-2.28-1.83,4.11,4.11,0,0,1,.73-3.08c2.83-3.92,7.29-5.56,11.39-7.63,13.91-7,27.81-14.09,41.83-20.91,42-20.47,81.8-44.81,121.31-69.71,21-13.21,41.38-27.16,61.51-41.5q39.28-28,77-58.28C4981,3022.21,4998.58,3004.57,5019.54,2991.25Z"/><path class="cls-17" d="M5009.23,2832c3.07,15.55,7.15,30.95,6.92,47a12.57,12.57,0,0,0,.09,3.42c6,22.45,2.58,45.36,3.28,68.07.24,7.6.58,14.87,7.06,20.15-.57,1-.94,2.24-1.76,2.94-12.6,10.86-25.17,21.75-37.94,32.4-8.37,7-16.55,14.2-25.06,21.05-26.38,21.27-53,42.12-80.93,61.38-18.44,12.74-36.62,25.89-55.51,37.94-22.29,14.22-44.39,28.77-67.81,41.2-14.72,7.81-28.95,16.54-43.44,24.8-2,1.12-4.12,1.92-6.07,2.82-3.28-2.71-.67-4.63.79-5.56,13.78-8.81,24.11-21.36,35.66-32.56,25.23-24.46,47.89-51.05,69.47-78.84a1059.26,1059.26,0,0,0,66.33-96.53c15.65-25.56,28.68-52.59,41.63-79.58,5.13-10.69,11.24-19.67,21.92-25.58,8-4.43,14.26-11.5,21.62-17C4979.34,2849,4994.21,2840.41,5009.23,2832Z"/><path class="cls-17" d="M5012.66,3168.11l3.53-3.44Z"/><path class="cls-17" d="M5009.17,3171.51l3.49-3.4Z"/><path class="cls-17" d="M5005.7,3174.88l3.43-3.33Z"/><path class="cls-41" d="M1280.32,1095.14c-.08-5.19-.25-10.39-.25-15.58q0-207.9,0-415.79c0-24.64-2-22.58,22.22-22.58q1398.35,0,2796.69,0c5.2,0,10.4,0,15.6.26,4.07.18,6.25,2.66,6.51,6.64.23,3.45.25,6.92.25,10.39q0,217.41,0,434.84c0,1.73-.16,3.46-.24,5.19-2.53,3.43-6.2,5-10,6.37-.18-6.35-.51-12.69-.51-19q0-206.2,0-412.42c0-23.15,2-21.23-21.66-21.23q-1386.56,0-2773.1,0c-5.2,0-10.4,0-15.59.27-4,.19-6.37,2.62-6.57,6.58-.28,5.76-.28,11.54-.28,17.31q0,208.81,0,417.63c0,2.3-.23,4.59-.37,6.88Z"/><path class="cls-5" d="M1264,1092.71c2.91-1.21,5.66-1.57,7.79,1.4C1269,1095,1266.27,1095,1264,1092.71Z"/><path class="cls-15" d="M943.55,3240.84h-15.4q-112.62,0-225.26,0c-7.47,0-14.89.32-22.2-2.48-3.6-1.38-8-1.05-12-.94-33.45.9-64.89-7.69-95.37-20.42-28.85-12-54.77-28.76-79.16-48.38a315.86,315.86,0,0,1-37.81-35.4c-26.95-30.15-49.28-63.21-65.34-100.85-18.79-44-34.65-89-49-134.54-10-31.74-18.46-64-27.6-96a49,49,0,0,1-1.45-5c-.64-3.67,2.31-6.59,6.24-6.24a31.26,31.26,0,0,1,5.1.78c42.29,11,84.79,21.36,125.82,36.56,23.2,8.59,46.44,17.36,68.69,28.07a250.21,250.21,0,0,1,44.07,27,23.2,23.2,0,0,0,7.36,4.24c3.86,1.09,5.59,3.86,7.16,6.94,4.19,8.23,8.17,16.56,12.44,24.73a737.7,737.7,0,0,0,53.08,86.8c12.7,17.81,27.39,34,39.67,52.07a30,30,0,0,0,3.49,3.83c9.2,9.52,18.55,18.82,26.61,29.47a72.29,72.29,0,0,0,20.2,18.74c3.41,2,6.26,5.07,9.16,7.86,29.57,28.45,62.42,52.44,97.73,73.34a468.24,468.24,0,0,0,95.85,43.19C938.74,3235.25,942.36,3235.75,943.55,3240.84Z"/><path class="cls-42" d="M1280.05,1299.71c0,11.15.06,22.3,0,33.45,0,3.31.25,6.76-2.65,9.27-20.84-11.11-32.94-29.37-41.66-50.07,1.71-3.09,3.91-2.76,6-1.84C1254,1295.83,1267.05,1297.67,1280.05,1299.71Z"/><path class="cls-15" d="M4747.58,1116.11c-19.58,1.48-39.09-.83-58.3-4.77-6.76-1.39-10.85.21-15.15,4.74-13.88,14.62-31.4,23.18-50.19,29.54a11.35,11.35,0,0,1-3.28,1,10.81,10.81,0,0,1-4.84-.7c-1.88-.94-1.35-3-.78-4.54,1.56-4.34,3.29-8.61,5-12.91,1.46-3.76,3.11-7.45,4.34-11.29,2.26-7.07,7.51-14.2,5.68-21.3-2-7.6-11.51-8.64-17.58-12.7-10.58-7.09-20.81-14.4-29.7-23.63a84.17,84.17,0,0,1-21.89-40.45c-3.8-16.39.63-31,8.65-44.56,11.42-19.27,28.3-33.13,47.7-44.14,22.35-12.68,46.56-19.81,71.4-25.5,19.82-4.54,40.21-3,60.11-6.28,41.59,2.41,82.76,6.87,121,25.18,18.35,8.78,35.48,19.45,49,34.92,13.74,15.7,22.75,33.73,20.58,55.07-2.2,21.62-13.37,39-29.69,53-25.57,21.92-55.74,34.57-88.14,42.11C4797.28,1114.53,4772.71,1117.86,4747.58,1116.11Z"/><path class="cls-15" d="M625.68,1032.8c43.59-.65,82.91,7,120.31,23.87,18,8.12,34.37,18.63,48.28,33,12.52,12.92,20.51,28,22.84,45.59,2,15.37-3.28,29.53-11,42.72-9,15.38-22.56,26-37.16,35.58-2.89,1.9-6,3.39-9,5.25-17.19,11-15.35,5.07-9.25,27,2.77,9.92,7.75,19.23,11.52,28.89a6.29,6.29,0,0,1-.43,4.73c-1,1.84-3.07.81-4.63.38-19.22-5.26-37.18-13.27-51-28-7-7.46-14.32-8.41-23.38-6.75-20.44,3.74-41.07,6.58-61.86,5.57-35.87-1.73-71.17-7.23-104.61-21-21-8.62-40.11-20.28-56.14-36.71a80.61,80.61,0,0,1-21.79-40.63c-4.19-20.51,2.33-38.93,15.37-54.76a141.79,141.79,0,0,1,45.51-36.72c24.41-12.42,50.33-19.9,77.22-24.35C593.71,1033.66,610.92,1032.08,625.68,1032.8Z"/><path class="cls-28" d="M1529.79,1929.37q0-97,0-194c0-20.56-.63-19.67,20-19.66q115.25,0,230.5,0c20.7,0,20.1-.94,20.09,19.62q0,193.08,0,386.18c0,2.88.06,5.77,0,8.66-.36,10.82-1,11.48-12.19,11.84-2.31.08-4.62,0-6.93,0q-116.13,0-232.25,0c-19.81,0-19.22.39-19.22-18.77Q1529.82,2026.35,1529.79,1929.37Z"/><path class="cls-2" d="M2553.29,1618.69c-76.52-41.62-123.59-105.39-137.73-191-24.12-146,74.77-276,210.29-301.6a269.19,269.19,0,0,1,123.5,5.27c2.78.77,5.57,1.5,8.35,2.25,5.12,6.3,3.37,13,1.13,19.7-25.73,76.47-50,153.43-77.07,229.46-35.57,77.09-75.8,151.9-112.68,228.36C2565.82,1617.93,2562.06,1623.51,2553.29,1618.69Z"/><path class="cls-27" d="M2553.29,1618.69c4.76,0,8.14-.83,10.76-6.17q50.86-103.49,102.41-206.66c3.79-7.63,7.64-15.23,11.46-22.85,20.63-12.43,44.51-15,67.07-21.22,54.87-15.1,109.79-30.08,164.89-44.38,7-1.81,14.14-6.15,21.19,0,4,13.27,7.18,26.64,7.62,40.63.24,8,2.46,16,2.3,24-1.45,71.39-24.42,134.09-74.63,186.21-39.39,40.9-87.11,66.06-142.36,76.74a244.47,244.47,0,0,1-79.12,2.37c-31.89-4.23-61.6-14-90.46-27.42C2554,1619.77,2553.66,1619.13,2553.29,1618.69Z"/><path class="cls-28" d="M2020.59,2142.1q-67.58,0-135.15,0c-15.42,0-15.61-.2-15.63-15.32q-.12-93.49,0-187c0-15.85.18-16,16.69-16q136-.08,272,0c2.88,0,5.78,0,8.65.18,5.43.44,7.26,2.14,7.64,7.38.3,4,.22,8.07.22,12.11q0,89.16,0,178.32c0,3.46.1,6.93-.07,10.39-.4,8.35-1.66,9.54-10.58,9.91-4,.16-8.09.06-12.13.06Z"/><path class="cls-28" d="M2678.12,800.58q149.05,0,298.11,0c22.2,0,20.94-.89,20.93,20.56,0,13.28.14,26.56-.06,39.83-.16,11.64-.94,12.23-13.23,12.53-3.46.08-6.93,0-10.4,0q-297.24,0-594.5,0c-25.6,0-23.44,2.18-23.52-23.09,0-12.13-.12-24.25,0-36.37.17-12.76.69-13.16,14.11-13.44,4-.08,8.09,0,12.13,0Z"/><path class="cls-43" d="M2676.07,946.29h804.54c4.62,0,9.25-.09,13.87,0,11.74.31,12.53,1.17,12.61,13.17.1,13.61-.59,14.31-14.72,14.57-3.47.06-6.94,0-10.41,0H1871.14c-5.77,0-11.56.11-17.33-.19-6.16-.31-7.77-2.17-8.19-8.7-.14-2.3-.12-4.62-.07-6.93.21-10.61,1.19-11.62,12.1-11.91,5.2-.15,10.41-.05,15.61-.05Z"/><path class="cls-27" d="M2021.72,1854.85H1893.59c-4.61,0-9.23.11-13.85-.08-8.71-.34-9.85-1.27-9.88-10.36q-.18-59.69,0-119.37c0-7.93,1.51-9.23,8.83-9.64,3.46-.2,6.93-.11,10.39-.12h266.64c20.73,0,19.49-1,19.49,20q0,50.17,0,100.35c0,2.88.07,5.77-.05,8.65-.36,9.15-1.26,10.17-9.77,10.51-4.61.19-9.23.08-13.85.08Z"/><path class="cls-28" d="M2931.07,1317.43c-2.85.31-5.79.25-8.52,1q-62.39,16.72-124.71,33.66c-34.91,9.48-69.83,18.94-104.66,28.71a51.72,51.72,0,0,1-15.26,2.22c8.74-26.79,17.34-53.62,26.26-80.36,16.57-49.68,33.39-99.28,49.94-149,2.15-6.44,5.75-12.78,3.58-20,22.33,7.77,44,16.95,63.52,30.51,33.38,23.24,61.76,51.07,82.51,86.67A262.49,262.49,0,0,1,2931.07,1317.43Z"/><path class="cls-44" d="M3505.35,1784.5H3800c4.05,0,8.09-.06,12.14,0,13.32.27,13.7.67,13.77,13.65.08,13.93-.15,14.26-16.49,14.26q-276.45,0-552.89,0-26.86,0-53.73,0c-4,0-8.08,0-12.11-.32a5.57,5.57,0,0,1-5.62-5.42,108.51,108.51,0,0,1-.26-12.1c.26-8.62,1.35-9.67,10.31-10,4.62-.18,9.25-.07,13.87-.07Z"/><path class="cls-43" d="M3467.41,2079.74H3209.24c-4.62,0-9.25.12-13.86-.05-9.5-.36-10.57-1.56-10.83-11.42-.41-15.48.2-16.24,16.43-16.24q184.53-.08,369.06,0,81.43,0,162.87,0c16.84,0,17.66,1,16.9,17.52-.39,8.46-1.68,9.8-10.38,10.14-4.61.18-9.24.06-13.86.06Z"/><path class="cls-44" d="M3462.12,1853.92h246c3.46,0,6.94-.22,10.38,0,5.56.45,12.81-2.49,16.16,3,3.58,5.89,1.89,13.43.94,20.27-.35,2.57-2.31,4-4.79,4.14-4,.29-8.07.45-12.1.45q-258.09,0-516.18,0c-18.39,0-18.58-.29-17.73-18.13.37-8,1.51-9.32,8.87-9.67,5.18-.24,10.39-.12,15.58-.12Z"/><path class="cls-45" d="M2677.12,1774h268.79c4,0,8.13.4,12.13,0,23.91-2.57,43.14,17.31,45.64,42.35.34,3.43.12,6.92.12,10.39q0,133.41.09,266.84c0,8.8-.63,17.38-4.41,25.32-7.58,15.9-20.63,24.43-37.95,26.38-5.14.57-10.39.18-15.6.18H2406.62c-4.62,0-9.25.15-13.87-.1-24-1.32-42.23-19.26-43.92-43.11-.17-2.3-.07-4.62-.07-6.93q0-135.15,0-270.3a79,79,0,0,1,1.3-15.45c4.26-21,22.27-36.34,44.37-35.85,48,1.07,95.94.31,143.92.3Z"/><path class="cls-43" d="M3425.47,2149.06q-110.89,0-221.8,0c-20,0-19.71.86-18.88-20.51.2-5,2.33-6.75,7.91-7.06,4.6-.26,9.23-.18,13.85-.18h441.87c2.31,0,4.63,0,6.94,0,14.22.25,14.88.9,14.79,14.44,0,1.73,0,3.47-.14,5.19-.41,5.4-2.2,7.56-7.15,7.86-5.18.32-10.39.24-15.59.24Z"/><path class="cls-43" d="M1852.14,1597.94q-84,0-168,0c-19.8,0-19.56,1-18.77-20.63.14-3.92,2.24-6.54,6.3-6.84s8.07-.28,12.11-.28q168.82,0,337.66,0c18.72,0,18.66-.16,18,19.77-.18,5.32-2.23,7.44-7.23,7.77-4.6.31-9.23.23-13.85.23Z"/><path class="cls-46" d="M3359.71,1923.34q75.36,0,150.72,0c5.19,0,10.39.11,15.57.41a5.59,5.59,0,0,1,5.61,5.44,99.43,99.43,0,0,1,.35,12.08c-.26,8.37-1.58,9.58-10.45,9.91-4,.15-8.09,0-12.13,0H3202.73c-18.58-.1-18.71-.23-18-17.9.36-8.64,1.3-9.59,10.37-9.94,4-.15,8.08-.06,12.12-.06Z"/><path class="cls-3" d="M3930.4,1674.12l10.57.45C3937.27,1678.41,3933.75,1678.22,3930.4,1674.12Z"/><path class="cls-3" d="M4010.4,1632.09c2.65-2.58,2.55-.53,2.47,1.47A4.47,4.47,0,0,1,4010.4,1632.09Z"/><path class="cls-47" d="M3035.2,2811.21q-75.18-.08-150.37-.23c-5.52,0-11.69,1.86-16.17-3.46-4.68-7.46-.92-14.6,1.24-21.55,6.41-20.63,8.23-41.69,7.33-63.17-.48-11.29-5.65-16.94-17-17.06-5.76-.07-11.52-.2-17.29-.2q-144.41,0-288.82-.05c-9.18,0-18.47.88-27.5-1.86a11,11,0,0,1-5.09-4c2.05-.94,4-2.38,6.18-2.7a72.9,72.9,0,0,1,10.36-.29q235.47.06,470.93.16a71.45,71.45,0,0,1,12.08.52c12.36,2.15,14.22,4.35,14.25,17C3035.35,2746.63,3035.24,2778.92,3035.2,2811.21Z"/><path class="cls-47" d="M2532.6,2804.07c-.76,3.58-2.23,6.58-6.47,6.72-5.15.18-10.31.24-15.47.25q-72.21.21-144.44.38c-.09-33.44-.28-66.88-.24-100.32,0-9.1.61-9.14,9-12.23,5.05-1.86,10.12-2.06,15.31-2.06,36.94,0,73.87.19,110.8-.16,7.11-.07,13.54,2.45,20.38,3l.7.75a14.88,14.88,0,0,1,3.82,12.75c-4.91,26.67,1,52.24,7.5,77.78C2534.64,2795.36,2535.81,2799.89,2532.6,2804.07Z"/><path class="cls-17" d="M1682.9,2877.35c7.11-18.5,17.65-33.75,26.78-49.67,11.73-20.46,23.77-40.8,37.65-59.94,1.68-2.31,2.68-5.11,4.05-7.65,6.89-12.75,4.49-18-6.68-26.41-6.92-5.2-20-1.79-26.35,6.13a32.37,32.37,0,0,0-1.73,3c-8.29,13.14-16.85,26.13-24.83,39.46-12.12,20.24-23.93,40.68-35.69,61.14-6.61,11.48-13,23.1-19.25,34.77-10.9,20.33-21.9,40.6-32.33,61.17-6.76,13.35-12.55,27.2-18.85,40.78-1.44,3.09-3.2,6-4.62,8.68-3.51,0-4.9-1.8-5.85-3.89a164,164,0,0,0-18.58-31.13c-6.46-8.54-7.17-18.19-5.34-28,2.5-13.52,5.8-26.9,8.66-40.36a30.34,30.34,0,0,0,1-8.53c-1.76-21.08,5.12-40.94,8.46-61.28A339.76,339.76,0,0,1,1587,2749a32.93,32.93,0,0,0,1.8-13.61c-.25-5.38,1.65-10.15,3.27-15.09,1.52-4.62,4.56-6.3,9.1-6.23,3.47,0,6.94-.05,10.41-.05h196c2.31,0,4.62,0,6.93,0,13,.3,13.43.66,13.71,13.88a310.1,310.1,0,0,0,2.55,32.57c2,15.81,3,32.22-1.24,48.12-1.69,6.3-2.25,12.81-.66,18.83s.8,11.12-.35,16.79c-2.64,12.9-6.08,25.85-6.74,38.9-1,20.44-7,39.7-12.7,58.83-11.93,40.34-26,80-46.1,117.23-17.48,32.46-36.8,63.7-59.12,93.16-18.18,24-38.72,45.65-60.09,66.67-4.64,4.57-9.19,8.19-16.41,8.11-29.48-.3-59-.14-88.44-.17a26.6,26.6,0,0,1-3.45-.28c-3.25-.44-4.77-2.74-3.68-6.28,3.06-9.91,6-19.87,9.57-29.6,7.09-19.47,14.63-38.78,21.82-58.22,5-13.38,7.61-15,21.79-11.4,12.81,3.27,25.59,6.72,38.27,10.47a42.52,42.52,0,0,0,11.9,1.78c13.24.13,20.43-11.53,14.3-23.58-2.87-5.64-6.28-11-9.6-16.41-8.45-13.72-17-27.37-25.44-41.1-1.81-2.95-3.08-6.22-4.83-9.2-3.82-6.52-3.4-12.62-.52-19.72,6.29-15.54,13.67-30.51,21.21-45.44,2.86-5.67,6.22-11.16,8.38-17.09,5.09-13.94,15.25-22.67,28-29.14,20.58-10.47,40.85-21.79,62.73-29.2,17.91-6.08,36.54-10,54.87-14.86,1.11-.29,2.32-.18,3.43-.47,17.61-4.62,17.45-10,15.7-26.94-.68-6.55-11.46-12.35-19.58-10.41-6.18,1.47-12.52,2.07-18.58,3.64-23.39,6.07-47,11.52-69.1,21.74C1692.42,2876.91,1688.67,2878.38,1682.9,2877.35Z"/><path class="cls-4" d="M1546.64,2876.5c-3.4,17.22-7,34.4-10.09,51.67-1.1,6.15-3.55,9.08-10.09,8.15-1.3-.19-2.88,1.48-4.33,2.28-7.88,9.65-20.36,9.27-30.53,13.94-6.09,2.8-13.4,2.85-19.47,8.86,6.16,5.4,11.77,1.22,17.29.16,15-2.88,27.57-14.2,43.88-12.21,2.29.36,4.62.73,6,2.9,1.84,2.93,3.57,5.92,5.33,8.9q41.94,70.63,83.86,141.28a101.71,101.71,0,0,1,5.56,10.66c.88,2-.89,3.26-2.55,3.29a26.1,26.1,0,0,1-6.81-1.05q-130.45-34.24-260.88-68.55c-1.11-.3-2.24-.54-3.34-.88-3.89-1.19-5.51-3.84-4.87-7.83,1.93-12,3.81-23.91,5.85-35.83q12.88-75,25.83-149.93c.59-3.41.85-6.87,1.27-10.31a10.24,10.24,0,0,1,2.74-3.12l-.16.14c5.61-3.09,11.28-1.24,16.85-.05,40.55,8.69,81,17.85,121.29,27.74C1535.86,2868.33,1543.08,2869.28,1546.64,2876.5Z"/><path class="cls-9" d="M1546.64,2876.5c-16.65-6.56-34.38-8.92-51.65-13-32.4-7.71-65-14.7-97.45-22.05a48.54,48.54,0,0,1-6.43-2.41,89.21,89.21,0,0,1,2-22.05c4.3-21.76,8.17-43.63,11.46-65.57a182.14,182.14,0,0,1,4.16-20c2.65,1.07,5.22,2.76,8,3.11,20.32,2.63,40.85,4,61,7.68,26.87,4.9,54.25,6.5,80.87,12.93,3.8.91,8,.21,12,.25q-9.9,50.51-19.79,101C1549.37,2863.05,1548,2869.77,1546.64,2876.5Z"/><path class="cls-17" d="M1460.35,3226.81c-8.06,0-16.12.13-24.18-.06-4-.09-6.38-2.5-6.66-6.49s-.2-8-.3-12.07c-.08-3.45.86-7.37-.45-10.26-5.55-12.19-1.57-23.79,1.78-35.22,2.53-8.61,2.94-16.92.48-25.37-1-3.41-1.81-6.61-.35-10,4.6-10.77,6.07-22,5.7-33.66-.22-6.79,3.12-9.53,9.8-8.49a201.61,201.61,0,0,1,20.08,4.57c15.51,4.08,31,8.3,46.45,12.54,4.42,1.21,8.82,2.52,13.14,4.07a5,5,0,0,1,3.09,7c-5.77,12.58-8.88,26.12-14.11,38.81-9,21.81-16,44.27-22.87,66.74-2,6.47-3.91,8.11-10.87,8.08s-13.82,0-20.73,0Z"/><path class="cls-17" d="M1533.3,2949.35c-1.92,2.38-4.67,3.15-7.43,4.06-16.93,5.61-33.82,11.39-50.77,17-3.85,1.26-6.06-.36-7.6-4.7-2.17-6.12-1.84-8.79,2.12-10.14,17.41-5.94,34.44-13,52.51-16.91C1528.24,2939.71,1532.94,2942.28,1533.3,2949.35Z"/><path class="cls-9" d="M1391.27,2838.88c.11,1.95-.94,2.88-2.75,3.13C1388.13,2839.81,1389.21,2838.91,1391.27,2838.88Z"/><path class="cls-27" d="M3350.74,1352.17c.14,27.09.36,54.17.41,81.26q.1,64,0,128c0,4.61-.1,9.22-.39,13.81a5.54,5.54,0,0,1-5.42,5.59c-5.17.35-10.37.43-15.55.44-13.27,0-26.54,0-39.8-.19-5.4-.1-7.34-2.17-7.79-7.17-.2-2.29-.17-4.6-.17-6.91q.12-107.21.26-214.41C3305.05,1342.65,3327.87,1343.2,3350.74,1352.17Z"/><path class="cls-28" d="M3406.75,1407.54l-.24-155.55c0-2.3.12-4.6.1-6.91-.05-4.7,2.62-7.52,6.69-9a25.71,25.71,0,0,1,8.33-1.84c13.26-.18,26.52-.31,39.78,0,7.66.21,10.38,3.18,11,10.5.24,2.86.14,5.76.14,8.64q0,76.9-.1,153.82C3450.6,1416,3428.69,1415.68,3406.75,1407.54Z"/><path class="cls-41" d="M3406.75,1407.54l65.71-.3c1.5,6.15,2.83,12.28,2.78,18.72-.22,28.23-.22,56.46-.3,84.68-2.21.58-4.55.86-6.57,1.8-4.79,2.24-4.93,4.18-1,8.89.71.83,1.5,1.59,2.44,2.58a77.7,77.7,0,0,0-7.62,3.39c-6.49,3.74-6.39,5.65.63,12.82.1,3.61-3.8,3-5.54,4.65-4.23,4-4.69,5.18-2.21,10.1.76,1.49,2.93,2.91,2.76,4.14-1.59,12,6.92,15.33,15.56,18.66-2,1.1-3.88,3.12-5.85,3.15q-26.84.43-53.68.18c-5.45,0-7.11-2-7.55-7.35-.24-2.87-.2-5.76-.2-8.64q0-73.56,0-147.12C3406.18,1414.44,3406.55,1411,3406.75,1407.54Z"/><path class="cls-28" d="M3350.74,1352.17l-68.46.37c-.19-35.08-.47-70.17-.51-105.26,0-7.79,3.41-12.25,11.1-12.59,15.5-.68,31.08-.74,46.58,0,8.4.38,11.5,4.79,11.51,14C3351,1283.13,3350.83,1317.65,3350.74,1352.17Z"/><path class="cls-28" d="M3596.71,1310.93c-17.85-.14-35.7-.21-53.54-.45-5.3-.07-10.35.38-14.77,3.65-.13-21.83-.42-43.66-.35-65.49,0-9.91,3.27-13.81,13.17-14.24,14.35-.62,28.77-.61,43.11,0,9.61.44,12.9,4.55,12.91,14.45C3597.26,1269.57,3596.91,1290.25,3596.71,1310.93Z"/><path class="cls-27" d="M1612.59,1268.79c-13.35-3.76-27.08-3.73-40.78-4-.18-5.18-.08-10.39-.61-15.53-1-10.13,3.22-17.55,10.49-24.24,25.55-23.5,55.65-34.53,90.1-32,18.89,1.39,35.44,9.72,49.26,22.89,7.93,7.55,15.71,15.27,23.45,23,17.38,17.38,38,20.12,60.67,13.48,11.17-3.26,21.35-8.7,31.24-14.63,15.43-9.25,32-15.84,49.09-21.1a95.73,95.73,0,0,1,16.87-3.41c23.13-2.75,43.3,3.3,59.88,20.26,4.82,4.93,10.62,8.89,15.5,13.76,14.73,14.71,32.77,20.83,53.16,21.13,4,.06,8.07-.12,12.11-.2,1.7.25,3.42.47,5.12.76,3.21.56,5.76,2.06,4.1,5.68-10.94,23.9-26.65,42.79-53,50.87-9.38,2.88-18.06,2.37-26.77-1.85s-17.21-9-24.37-16.07a264.22,264.22,0,0,0-24.71-21.48c-23.63-18-39-19-63.3,1.16-11,9.13-20.83,19.91-30.47,30.59-17.86,19.76-39.83,23.19-64.6,18.18-17.88-3.62-33.12-12.9-48.63-21.63-12.53-7.05-24.85-14.46-37.26-21.72.15-2.85-.25-5.87.55-8.53,2.66-8.86,4.25-17-7.16-21.1-.83-.3-1.06-2-1.78-2.86-5.59-6.63-5.64-6.69-13.76-2.86-2,1-4,2.77-5-.74-.77-2.68-.31-6.22-3.35-7.35-3.8-1.42-6.24,1.72-8.86,3.91a35.56,35.56,0,0,1-4.19,2.67c-.6-1.25-1.07-2.28-1.58-3.28-2.22-4.29-5.08-5.62-7.37-3.08-3.43,3.79-6.53,7.9-9.59,12C1615.39,1263.77,1614.07,1266.34,1612.59,1268.79Z"/><path class="cls-48" d="M823,2106.63c-1-.5-2.22-.75-2.81-1.53-1.53-2-.91-4.32-.25-6.53q14.25-47.88,28.49-95.75c2.94-9.91,5.77-19.85,8.82-29.73,1-3.24,4.39-5,6.48-3.78,2.3,1.4,2.51,3.44,1.77,5.87q-4.31,14-8.47,28c-9.09,30.84-18.1,61.7-27.24,92.52a59.2,59.2,0,0,1-3.9,9.44C825.48,2106,824,2106.16,823,2106.63Z"/><path class="cls-49" d="M975.68,2090.15c3.82.59,6.38-1.82,9.1-3.83-3.11,19.31-10.57,37.41-15.54,56.2-3.52,13.28-7.73,26.38-11.74,39.52a45.35,45.35,0,0,1-3.26,7.89c-.77,1.46-2.37,2.89-4.11,1.52-1.21-1-2.66-2.77-2.52-4a55.54,55.54,0,0,1,2.39-9.92q12-40.34,24.09-80.64C974.74,2094.65,975.16,2092.38,975.68,2090.15Z"/><path class="cls-50" d="M1026.38,2092c.89-3.2,1.78-6.52,2.74-9.82q7.68-26.52,15.42-53a13.89,13.89,0,0,1,2.25-4.56,3.33,3.33,0,0,1,4.52-1,5.51,5.51,0,0,1,2.07,2.57,5.72,5.72,0,0,1,.15,3.35q-9.84,33.06-19.87,66.08a7.8,7.8,0,0,1-1.93,2.73,1.69,1.69,0,0,1-1.48.39c-1-.39-2.32-.81-2.68-1.6A24.86,24.86,0,0,1,1026.38,2092Z"/><path class="cls-51" d="M918.78,2117l6.37.07q-7.73,27.16-15.45,54.34a29,29,0,0,1-2.54,6.29,3.11,3.11,0,0,1-3,.85,9.28,9.28,0,0,1-3.52-3.21c-.48-.77-.17-2.22.13-3.26,4.76-16.45,9.51-32.91,14.44-49.31C915.88,2120.72,917.58,2119,918.78,2117Z"/><path class="cls-52" d="M992,2059.05c-.63-17.54,4.35-34.29,7.24-51.33,3.93.08,6.65,1.61,7,5.89a5,5,0,0,1-.06,1.72C1002,2030.05,1000.31,2045.63,992,2059.05Z"/><path class="cls-52" d="M989,2069.78c0-4-.83-8.19,3.16-11C992.12,2062.72,992.48,2066.8,989,2069.78Z"/><path class="cls-15" d="M2532.6,2804.07c-7.36-19.21-10.61-39.38-13.27-59.61-.88-6.69-1.14-13.85.3-20.37,1.73-7.89,2.06-15.75,2.56-23.68,6.33-.17,12.66-.49,19-.49q158.13,0,316.25,0c2.31,0,4.61,0,6.92,0,15.09.23,17.37,2.48,18.22,18.18,1.48,27.22-.86,53.92-10.74,79.63-1.23,3.2-2.12,6.54-3.17,9.81-4.72,8.45-8.91,17.27-14.26,25.3-19.59,29.36-45.09,52.35-77.2,67.21-20.44,9.45-41.79,16.38-64.95,15.17-8.63-.45-17.32,0-26-.1-26.55-.29-50.67-8.77-73.56-21.65-15.65-8.81-30.27-19-42.33-32.35-14.66-16.27-28.65-33.08-35.56-54.46C2534.5,2805.64,2533.36,2804.92,2532.6,2804.07Z"/><path class="cls-8" d="M384.81,2850.22c1.37.53,3.31.73,4.39,1.8,12.31,12.16,26.57,22.07,38.67,34.55,24.55,25.28,50,49.68,74.58,74.95,16.84,17.32,32.84,35.45,48.16,54.18,7.64,9.34,15.93,18.17,23.8,27.34,21,24.47,40.4,50.13,60,75.65,4.9,6.37,9.31,13.12,14.09,19.59,2,2.79,2.32,5.27-.7,7.24-2.35,1.55-4.34.26-5.87-1.71-6.38-8.16-13.2-16-19-24.57-16.56-24.26-35.83-46.41-53.6-69.72-9.06-11.87-20.66-21.82-29.44-33.86-15-20.63-35.49-36.18-50.83-56.53-8.27-11-19.59-19.6-29-29.79-21.15-23-46.1-41.9-67.82-64.25-3.2-3.29-6.25-6.76-9.15-10.31-.5-.62-.05-2.12.19-3.16C383.39,2851.17,384.08,2850.86,384.81,2850.22Z"/><path class="cls-53" d="M4750.66,987.91c-31.15,0-62.3.2-93.44-.17-5.8-.08-13.06,3.44-17.31-3.35-2.41-3.86,4.33-6.47,18.46-6.49q34.6,0,69.22,0,58.83,0,117.66.05c5.08,0,10.5-1.18,15,2.36,1.32,1,2.47,2.57,1.45,4.44-.5.9-1.37,2.17-2.18,2.25a133.88,133.88,0,0,1-13.72.89Q4798.24,988,4750.66,987.91Z"/><path class="cls-54" d="M4721.27,1029.92c-22.53,0-45.06.06-67.59-.05a79.4,79.4,0,0,1-11.89-1.25c-.64-.1-1.46-1.7-1.44-2.59a3.76,3.76,0,0,1,1.63-2.52,6.64,6.64,0,0,1,3.25-.89c3.46-.15,6.93-.19,10.4-.19q65.85,0,131.72,0c4.56,0,9.22-.77,13.67,1.09,1.34.56,2,1.37,1.47,2.67-.39.94-1,2.41-1.69,2.51a84,84,0,0,1-11.93,1.13C4766.34,1030,4743.8,1029.92,4721.27,1029.92Z"/><path class="cls-55" d="M595.74,1164.52c-23,0-46,.06-69,0-9.4,0-13.27-1.86-12.26-5.47,1.77-6.31,7.3-4.47,11.52-4.52,18.41-.2,36.82-.09,55.23-.09h81.14c3.45,0,6.91,0,10.35.13,3,.15,6,1.09,6.22,4.57s-2.37,5-5.48,5.14c-4,.25-8,.25-12.07.25Q628.54,1164.55,595.74,1164.52Z"/><path class="cls-56" d="M627.89,1112.43c31.19,0,62.39,0,93.59,0,4.55,0,9.22-.78,13.65,1.1,1.32.56,2,1.42,1.51,2.68-.36,1-.87,2.22-1.66,2.56a14.23,14.23,0,0,1-5,1.08c-3.46.18-6.93.12-10.4.12q-93.58,0-187.18,0c-5.13,0-10.41,1-15.34-1.22a3.31,3.31,0,0,1-1.47-2.61c0-.88.89-2.43,1.54-2.51a111.85,111.85,0,0,1,13.66-1.15C563.18,1112.39,595.53,1112.43,627.89,1112.43Z"/><path class="cls-15" d="M2678.08,1781.29H2943.4q8.67,0,17.34.08c15.78.17,25.93,8.66,31.85,22.48a43.88,43.88,0,0,1,3.94,18.52c-.12,4,0,8.08,0,12.12q0,125.63,0,251.25c0,5.2.26,10.43-.21,15.59a40.39,40.39,0,0,1-37.47,36.7c-4,.28-8.09.12-12.14.12h-541c-4,0-8.11.21-12.13-.14-20.14-1.76-35.3-16.71-37.34-36.85a119.41,119.41,0,0,1-.2-12.12q0-129.09-.06-258.18c0-8.72.31-17.3,3.33-25.59,5.37-14.76,16.89-23.27,32.68-23.88,5.78-.22,11.56-.1,17.34-.1Z"/><path class="cls-57" d="M2629.87,1993.07l-69.77-65.26c-6.35.61-6.63,5.44-8.18,8.76-14.7,31.34-29.16,62.79-43.81,94.15-2.37,5.08-3.93,10.76-9.27,15.21-16.38-14.1-29-31.54-44.8-45-5.27.36-5.69,4.51-7.13,7.31-7.42,14.36-14.53,28.87-21.79,43.31-1.8,3.6-3.6,7.21-5.68,10.65-.83,1.37-2.31,3-4.28,1.8-2.23-1.31-2.87-3.35-1.65-5.8.26-.51.42-1.08.68-1.59q16.72-33.24,33.51-66.43c.48-1,1.62-1.59,2.6-2.5,5.29,1.4,8,6.09,11.5,9.65,10.54,10.69,20.8,21.65,31.26,32.42,3.31,3.41,5.67,3,7.75-1.4q17.59-37.62,35-75.33c4.62-9.94,9.2-19.9,13.9-29.8,1.43-3,2.29-6.47,6.41-8.73,25.25,21.39,48.4,45.52,72.78,67.35,5.74.52,7.72-3.63,10.42-6.3q30.16-29.85,60.1-59.94c2.86-2.86,5.66-5.78,8.61-8.53,6.57-6.1,7.61-6.34,15-1.93,12.39,7.39,24.66,15,37,22.52,9.36,5.72,18.67,11.52,28.09,17.14,8.51,5.09,8.59,5,16.08-2.32,2.88-2.83,5.65-5.78,8.45-8.69l75.57-78.73c3.2-3.33,6.38-6.68,9.68-9.91,1.57-1.54,3.15-3.18,5.89-2,2.22,1,2.15,4.28-.63,7.22-6.72,7.15-13.55,14.2-20.35,21.28q-39,40.56-78.13,81.08c-6.56,6.77-6.82,6.72-14.55,2-19.27-11.64-38.47-23.4-57.7-35.12-3.45-2.1-6.92-4.17-10.29-6.4-3.83-2.55-7.29-2.91-10.69.81-2.72,3-5.71,5.71-8.57,8.57q-29.41,29.38-58.86,58.73C2640,1985.42,2636.64,1990.34,2629.87,1993.07Z"/><path class="cls-58" d="M2738.47,2083.68c-8,0-16.07.19-24.1-.06-6.78-.21-8.67-1.75-8.71-7.87-.21-29.89-3.81-26.49,24.45-26.7,9.19-.07,18.37-.16,27.55,0,12,.26,13.33,1.7,13.58,14.34.09,4.58,0,9.18-.24,13.75-.25,4-2.81,6.26-6.71,6.34-8.6.17-17.21.05-25.82.05Z"/><path class="cls-59" d="M2870.66,2062.62c15,0,30,0,45.06,0,2.83,0,5.88-.43,8.23,1.72a4.88,4.88,0,0,1,1.66,2.85,3.54,3.54,0,0,1-1.43,2.85,16.33,16.33,0,0,1-6.45,1.92q-48.51.16-97,0a13.8,13.8,0,0,1-5-1.22,3.44,3.44,0,0,1-2.07-4.11c.2-1,1-2.38,1.82-2.59a34.38,34.38,0,0,1,8.39-1.38C2839.47,2062.56,2855.07,2062.63,2870.66,2062.62Z"/></g></g></svg>