<svg xmlns="http://www.w3.org/2000/svg" viewBox="0 0 2000 2000"><defs><style>.cls-1{fill:#fbfbfb;}.cls-2{fill:#bb353e;}.cls-3{fill:#1a2e35;}.cls-4{fill:#fe4f5b;}.cls-5{fill:#ebebeb;}.cls-6{fill:#e9e9e9;}.cls-7{fill:#e1e1e1;}.cls-34,.cls-8{fill:#fefefe;}.cls-14,.cls-30,.cls-8{stroke:#000;stroke-miterlimit:10;stroke-width:2px;}.cls-9{fill:#febe9c;}.cls-10{fill:#862329;}.cls-11{fill:#375a64;}.cls-12{fill:#e0e0e0;}.cls-13{fill:#feb9be;}.cls-14,.cls-33{fill:#1d3037;}.cls-15{fill:#2d2f36;}.cls-16{fill:#1f262c;}.cls-17{fill:#1c3036;}.cls-18{fill:#fd4f5b;}.cls-19{fill:#203138;}.cls-20{fill:#32525b;}.cls-21{fill:#1d3036;}.cls-22{fill:#7d3e47;}.cls-23{fill:#233037;}.cls-24{fill:#4b595f;}.cls-25{fill:#232f36;}.cls-26{fill:#58656b;}.cls-27{fill:#242f36;}.cls-28{fill:#222e35;}.cls-29{fill:#717c80;}.cls-30,.cls-32{fill:#7c868a;}.cls-31{fill:#4e5d60;}.cls-35{fill:#dd979b;}.cls-36{fill:#355760;}.cls-37{fill:#a02c34;}.cls-38{fill:#872329;}.cls-39{fill:#1b2e35;}.cls-40{fill:#222b31;}.cls-41{fill:#253037;}.cls-42{fill:#313139;}.cls-43{fill:#252f36;}.cls-44{fill:#fd9a6d;}.cls-45{fill:#355761;}.cls-46{fill:#faf1f2;}.cls-47{fill:#faf2f3;}.cls-48{fill:#faeaeb;}.cls-49{fill:#faf3f3;}.cls-50{fill:#fbedee;}.cls-51{fill:#faeced;}.cls-52{fill:#f4f4f4;}.cls-53{fill:#faf0f1;}.cls-54{fill:#293037;}.cls-55{fill:#feb7bc;}.cls-56{fill:#2c3038;}.cls-57{fill:#2f3138;}.cls-58{fill:#213138;}.cls-59{fill:#31363e;}.cls-60{fill:#2e3239;}.cls-61{fill:#f74f5b;}.cls-62{fill:#fa4e5a;}.cls-63{fill:#243339;}.cls-64{fill:#1e3036;}.cls-65{fill:#213238;}.cls-66{fill:#223238;}.cls-67{fill:#1f3037;}.cls-68{fill:#28353a;}.cls-69{fill:#feb8bd;}.cls-70{fill:#ef4c58;}</style></defs><title>no-data-girl</title><g id="Layer_2" data-name="Layer 2"><g id="Layer_1-2" data-name="Layer 1"><path class="cls-1" d="M.09.09Q997.76.09,1995.41,0c3.75,0,4.59.84,4.59,4.59q-.15,995.42,0,1990.82c0,3.75-.84,4.59-4.59,4.59q-995.42-.15-1990.82,0c-3.75,0-4.59-.84-4.59-4.59Q.15,997.74.09.09Z"/><path class="cls-2" d="M1484.09,1338.66c4.16,1.53,8.55.68,12.8.95,3.79.24,4.12,1.61,4.11,4.74-.1,28.38-.06,56.75,0,85.12,0,1.82.1,3.65.15,5.47a7.55,7.55,0,0,1,1.48,5.16c0,27.61.25,55.23-.12,82.84a89.51,89.51,0,0,1,.17,9c0,73.19.09,146.37,0,219.56-.32,3.55.26,7.11-.13,10.66.3,23.09.1,46.17.11,69.26a11.69,11.69,0,0,1-.77,4.89,3.43,3.43,0,0,1-1.38,1.42c-2.24.91-4.6.64-6.91.64q-314.94,0-629.88,0c-2.62,0-5.36.53-7.78-1.09-2.23-3.13-1.49-6.74-1.49-10.17q-.06-151.27,0-302.57a82.82,82.82,0,0,1,.17-8.48c-.36-5.15-.16-10.31-.16-15.47q0-75.18,0-150.34v-1.5c0-11.28,1.17-12.27,12.54-11a22.35,22.35,0,0,0,6.41.83c57-.63,113.9,1.71,170.87,1,1.33,0,2.66,0,4,0,4.94.22,6,1.3,6.44,6.28.15,2,.09,4,.09,6q0,42.5,0,85c0,8.42,0,8.44,8.19,8.45h53c8.32,0,8.44-.12,8.45-8.28q0-41.49,0-83c0-1.83,0-3.66,0-5.49.12-8.1.93-9,8.86-9q99.22,0,198.44,0c1,0,2,0,3,0,3.48,0,5.05,1.32,4.91,5.1-.26,7-.07,14-.07,21,0,28.83.27,57.66-.06,86.48-.94,81.8-.5,163.6-.28,245.39.11,41.31.13,82.62.33,123.93,0,1.74.07,3.49,0,4.79.08,1.1,1.12.18.53.49-.15.08-.2,0-.28-.33a15.92,15.92,0,0,1-.15-4.41c0-33.66.3-67.32-.08-101-.94-82.8-.55-165.6-.28-248.4.13-42.47.14-85,.25-127.42,0-4.17,1.36-5.9,5.4-5.66.33,0,.67,0,1,0,32.14.68,64.25-1.63,96.39-1,13.32.26,26.64-.15,40,0Q1483.11,1338.57,1484.09,1338.66Z"/><path class="cls-3" d="M346.84,1439q16.19-87.81,32.38-175.61,24.25-131,48.64-261.89c4.75-25.47,8.53-51.16,16.3-76,4-12.88,8.79-25.48,17-36.42,3.91-5.23,8.21-10.15,15.19-11.36,3-1.92,6.43-1.88,9.66-2,14.14-.56,28.25-1.55,42.38-2.31q23.67-1.29,47.34-2.66,20.68-1.23,41.37-2.29c16-.85,31.91-1.65,47.84-2.69a12.94,12.94,0,0,1,5,.25c2.22.84,3.22,2.8,4.21,4.72,13.12,25.73,22.44,52.73,26.12,81.45,1.61,12.55,1.09,25.24,0,37.85-1.55,18.74-3,37.49-4.57,56.23q-2.68,32.1-5.48,64.18c-1.81,21.06-3.73,42.11-5.58,63.17q-2.73,31.1-5.6,62.17c-1.88,20.22-3.55,40.46-5.41,60.68q-2.8,30.58-5.55,61.16c-1.78,19.73-3.72,39.44-5.47,59.17q-2.69,30.35-5.52,60.67c-1.82,19.89-3.7,39.77-5.49,59.67-1.78,19.72-3.68,39.44-5.49,59.16s-3.64,39.45-5.49,59.17c-1.83,19.55-3.52,39.12-5.5,58.66-.53,5.3-.86,10.62-1.48,15.91-.21,1.81-.12,3.69-1.38,5.22-2.88,1.85-6.15,1.46-9.23,1.2-19.37-1.63-38.77-2.82-58.13-4.59-2.82-.26-5.65-.17-8.46-.46-3.51,0-6.93-1-10.44-1-3.76,0-5.34-2.19-5.37-5.75-.11-14.49-.78-29,.2-43.47,1-14.17.2-28.31.76-42.45,1-24.64.3-49.31,1.24-73.92.69-18.33-.16-36.66.85-54.94,1.15-21,0-42,1.1-62.92,1-18.5-.17-37,.92-55.43,1.21-20.49-.11-41,1.06-61.43,1.08-19-.17-38,.94-56.93,1.19-20.32-.11-40.66,1.05-60.93,1.09-19-.14-38,.95-56.93,1.17-20.32.54-40.63.85-60.94a31,31,0,0,1,1.22-7.36Q530,1169.92,508,1252.82q-15.57,59-31.08,117.93-23,87-45.91,174-17.67,66.93-35.28,133.88c-2.1,8.06-4.32,16.09-6.37,24.17-.64,2.55-1.21,5.24-3.65,6.9-2.19,1-4.55.9-6.87.9-17.64,0-35.28.25-52.92-.09-9-.18-17.9-1.25-26.88-1.35-3.71-1.31-2.46-4.29-2-6.71,1.89-10.09,3.51-20.23,5.62-30.28a15.24,15.24,0,0,1,.39-2.51c3.06-15.93,5.74-31.93,8.81-47.86q9.06-49.38,18.13-98.75c4.8-25.73,9.38-51.5,14.23-77.22A17,17,0,0,1,346.84,1439Z"/><path class="cls-4" d="M925.11,906.76l31.91.4c1.78.67,3.63.35,5.44.35,65.4,0,130.79.31,196.18-.14,24.27-.17,48.54-.08,72.81-.36q123,0,245.93-.1a14.42,14.42,0,0,1,11.34,4.75c28.12,28.64,55.82,57.69,84.06,86.21,1.24,1.25,3.21,2.43,2.37,4.54s-3.11,1.4-4.86,1.58c-.49,0-1,0-1.5,0-177.94.65-355.89.29-533.84.61-8,0-12.42-4.59-17.55-8.83-3.32-2.76-6.08-6.17-9.35-9-8.87-8.29-17.93-16.41-26.62-24.9-9-8.19-18.13-16.18-26.39-25.09-1.67-1.8-1,.25-1.37.39-1.77.7-2.94-.35-4-1.38-6.5-6.42-13.85-11.95-17.18-15.62,15.09,18.5,32.21,40.77,49.7,62.74,13.38,16.81,26.34,33.94,40.12,50.45a10.68,10.68,0,0,0,1.11,1.31c1.28,1.38,3,1.31,4.64,1.46,2.66.25,5.33.17,8,.18q161.88,0,323.77.05c4.43,0,9-.65,13.27,1.29,1.54,1.83,1.25,4.07,1.25,6.21,0,82.92.21,165.84-.2,248.77-.06,11-.4,22.09-.72,31.21.51-7.31-.64-16.59.49-25.79,3.41.32,2.34,3.11,2.4,4.88.25,7.81.08,15.63.11,23.44a15.5,15.5,0,0,0,.61,5.42c1.43,3.86,3.61,5.07,7.24,3.19,4.59-2.38,9.17-.49,13.71-.55,2.72,0,3.38,2.33,1.93,5-53,1.16-105.92.26-158.88.48-33.65.14-67.3-.29-101,.15-20.47.26-40.95.87-61.41.49-39.79-.72-79.59-.29-119.38-.78-11.79-.14-23.62.26-35.41-.66-2.16-2.58-1.56-5.7-1.56-8.63q-.06-63,0-125.93v-194.4a49.88,49.88,0,0,1,.18-6c-.32-30.31-.12-60.63-.1-91,0-2.15,0-4.38,1.82-6Z"/><path class="cls-5" d="M1501.11,1751.94c0-2-.15-4-.15-6q0-108.51,0-217c0-2,.1-4,.16-6,1.88-1.83,4.3-1.57,6.6-1.6,7-.08,14-.11,21,0,4,.06,5.65-1.6,5.65-5.63q-.06-36.48,0-73c0-2.74-1.53-5.09-1.4-7.79l161.83,0c4.09,2.31,5.36,6.87,8.18,10.2,1.52,2.67,2.61,5.42,1.83,8.57a127.71,127.71,0,0,0,.13,25c.68,12.93,3.51,25.52,5.89,38.18-.37,2.61-1.24,5.34,1.74,7.14,3.92,11.42,7.14,23.06,10.83,34.55,2.33,7.25,5.25,14.29,7.52,21.56.6,3.64.53,7.34.89,11-.57,2.67-2,2.19-3.54.91-1.31-1.09-2-2.67-2.88-4.06-9.63-14.86-19.7-29.35-34-40.26-1.88-1.44-4-4.44-6.27-3-2.15,1.35-.87,4.63-.4,7,3.65,18.58,13.53,33.39,27.46,45.87,7.47,6.68,15.82,12.17,23.73,18.27,1.46,1.9,1.92,4.18,2.55,6.4,2.73,9.53,5.71,19,9.32,28.21a20.9,20.9,0,0,1,1.63,7.21c1.72,9.53,1.14,19.13.52,28.67a83.27,83.27,0,0,1-1.93,14.7c-.75,2.72-1.24,5.51-1.9,8.26-1,4.12-3.48,6.18-7.81,6.19-6.66,0-13.32,0-20,0s-7,.3-8,6.73c-5.31,35.39-10.46,70.81-15.76,106.2-.2,1.32-.44,2.63-.63,4-.56,3.89-2.47,5.58-6.68,5.57q-73.43-.16-146.85-.09c-1.63,0-3.36.31-4.8-.86-1.75-2.9-1.26-6.14-1.26-9.25-.06-22,0-43.9,0-65.85,0-7.16-.2-7.32-7.18-7.36-6.49,0-13,.07-19.46-.06C1505.21,1754.47,1502.55,1754.7,1501.11,1751.94Z"/><path class="cls-6" d="M1364.37,252.67c-1.38,1.88-3,1.37-4.42,1.39-3.83.07-7.67,0-11.5,0-22.12.31-44.24.69-66.36.94-2.88,0-4.23.7-4.17,3.9.36,17.63-1.6,35.22-1,52.87.23,6.55.7,7.22,7.13,7.25,8.9,0,8.9,0,8.9,9.08s0,8.9,8.92,8.9q71.73,0,143.46,0c2,0,4-.47,6.2.65-1.21,2-3.21,2.08-5,2.29a33.76,33.76,0,0,1-4.5.05c-47.28-.45-94.55,1.79-141.84,1-4.46-.07-6.33,1.62-6.28,6.17.14,14.32.16,28.66,0,43,0,3.61.83,4.93,4.71,4.92q89-.17,178,0c3.62,0,4.47-1.26,4.46-4.64q-.13-76.23-.08-152.46c0-.34,0-.67,0-1-.53-8.95-.53-8.95,8.42-8.95,6.66,0,13.33-.13,20,.06,3.34.1,4.73-.76,4.67-4.43-.19-13,.17-26-.2-39-.14-4.94-.9-9.89-.91-14.88,0-2.79,1-3.82,3.78-3.79q13.24.18,26.49,0c2.78,0,4,.91,3.79,3.75-.15,2.32,0,4.67,0,7-.7,18.47,1.21,36.9,1,55.36,0,3.14,1.19,3.89,4.11,4,6.84.2,13.54-1.19,20.38-1.2,8.49,0,16.82,1.82,25.37,1.87-4.09.43-8.18,1.29-12.25,1.2-11.29-.24-22.63,1.12-33.88-.83-1.2-.21-2.82-.49-3.43,1.2a5,5,0,0,0,.62,4.31c.84,1.44,2.08,1.28,3.47,1.15a210.87,210.87,0,0,1,45.55.78c-11.51-.66-22.89,3.1-34.5.7-4-.83-8.3-.14-12.46-.21-2.16-.05-3,1-2.93,3,.57,19.29-.41,38.56.7,57.88.84,14.38,1.44,28.94-.6,43.35-1.06,7.55-.19,8.68,7.54,8.68h36c7.16,0,7.35-.17,7.36-7.22,0-30.16.12-60.32-.12-90.48,0-5,1.19-6.52,6.34-6.39,15,.36,30,.29,45,0,4.51-.08,5.92,1.07,5.9,5.77-.18,43.16,0,86.32-.2,129.47,0,4.45,1,6.2,5.75,5.93,7.48-.41,15,.06,22.49-.18,3.61-.11,5.12.83,4.92,4.71a157,157,0,0,0,0,17.49c.25,4.16-1.41,5-5.19,5-34.82-.12-69.65-.07-104.47-.07-6.42,0-6.42,0-6.42,6.55,0,21.83-.11,43.66.08,65.48,0,4.55-1.26,6.36-6,6a124.78,124.78,0,0,0-15,0c-4,.19-5.2-1.42-5.18-5.27.12-22.33-.06-44.66.16-67,0-4.5-1.07-5.91-5.78-5.9q-166.71.19-333.42,0c-4.95,0-6,1.53-6,6.21.24,22.16,0,44.32.22,66.48.05,4.54-1.36,5.81-5.68,5.49a102.91,102.91,0,0,0-14.48,0c-4,.28-5.07-1.21-5-5.1.16-22.33-.06-44.66.19-67,.06-4.81-1.28-6.12-6.09-6.09-29.5.22-59,0-88.48.21-4.35,0-6-1-5.62-5.55a115.17,115.17,0,0,0,0-16c-.28-4.3.93-5.77,5.49-5.7,16.32.29,32.66,0,49,.2,4.45.06,6.14-1.5,5.62-5.8-2-16.22-.57-32.53-1.4-48.8-.29-5.69.32-11.59.37-17.39,0-3.42,2.26-3.07,4.44-3.07,14.83,0,29.66-.19,44.48.09,4.92.09,6.28-1.6,6.2-6.34-.26-14.65.61-29.37-.32-44-.76-12-.4-23.87-.85-35.8-.15-4,1.15-5.08,5.08-5.06q38.49.24,77,0c3.38,0,5,.48,5.21,4.51s1.08,7.9.74,11.88c-.37,4.39,1.35,5.77,5.72,5.74,24.66-.16,49.32-.08,74-.06C1359.9,251.08,1362.32,250.59,1364.37,252.67Z"/><path class="cls-7" d="M346.84,1439q-7.57,41.65-15.17,83.31c-.05.3-.34.55-.52.83-7.9,1.86-14.76-.23-20.84-5.43-4-3.43-4.38-3.44-6.67,1.36a229.6,229.6,0,0,0-18.22,57.36c-2.26,12.28-3.37,24.7-4.74,37.08-.69,6.18.08,7,6.22,7,6.65,0,13.3,0,20,0,2.11,0,4.37-.36,6.12,1.39-2.46,16.1-5.33,32.12-8.87,48-1.63,1.46-3.62,1.49-5.64,1.48-31.6-.2-63.2.4-94.8-.29-2-.05-4.06.46-5,.32-1.72.3-.76,1.17-1.15.62-.13-.17,0-.27.36-.35,3.92-.88,7.88-.28,11.83-.28q44.16,0,88.33,0c2,0,4-.36,5.92.47-2,11.37-4,22.75-6.09,34.09-.25,1.33-.67,2.19,1.11,2.28a61.12,61.12,0,0,0,7.89.13c4.95.09,5.27.46,4.41,5.48-.17,1-.53,1.91-.73,2.88-.72,2.43-.69,5.12-2.41,7.23-7.09,3.47-7.7,3.46-12.75-2.78q-8-9.91-16.11-19.75c-3.53-4.28-4.41-4.12-7.92.17-5.81,7.09-11.34,14.4-17,21.61-3.64,4.65-5.74,4.7-9.28,0-5.29-7.07-10.28-14.35-15.55-21.44-3-4-3.78-4-7.11-.21-6.8,7.77-13,16-20.33,23.35-1.49,1.5-2.89,3.2-5.62,2.15,1.64,2.35,2.64,1.17,3.91-.15,6.12-6.36,11.92-13,17.56-19.79.43-.51.84-1,1.29-1.52,6.08-6.72,7.44-6.69,12.81.53,4.57,6.14,8.86,12.5,13.23,18.79,3.6,5.19,4.51,5.22,8.26.35,5.59-7.25,11.44-14.3,17.18-21.44,3-3.68,5.77-3.89,8.75-.53,7.82,8.86,15.24,18.07,22.88,27.09a4.54,4.54,0,0,1,.78,1.83,53.43,53.43,0,0,0,1.56,9.48,107.24,107.24,0,0,1-2.78,10.89c0,1.18-2.7,1.47-1.06,3.22-.41,8-2.86,15.55-4.7,23.24-.52,1.29-1.62,2.34-1.57,3.87-2.67,5.55-4.22,11.86-10.17,15.23a38.81,38.81,0,0,1-8,.41q-36.73,0-73.47,0c-10.47,0-20.74-3-31.28-2.18a4.25,4.25,0,0,1-3.59-1.47c5.81-2.16,11.82-.71,17.72-.85,4.19-.11,6.22.12,5.6-5.72-1.73-16.3-1.91-32.76-3.48-49.08-.57-5.91-.14-11.92-1.56-17.8-.58-2.39-1.14-5.31.87-7.64a1.78,1.78,0,0,0,.12-2.29c-4.21-6.63-2-14.23-3-21.33a92.14,92.14,0,0,1-1.27-15.34c.07-2.13-.94-3-3-3-3.17.06-6.33-.05-9.5,0-2.14,0-3.49-.46-3.48-3q.07-22,0-44c0-2.12.9-3,3-3,2.5.07,5,0,7.5,0h93c6.46,0,6.52,0,6.48-6.34-.08-13,0-25.91-.83-38.89-1.09-16.94.63-33.91,1.12-50.86.43-14.9-2.05-29.28-4.5-43.72-4.14-24.4-10.78-48.19-18.78-71.6q-4.83-14.14-10.89-27.83c-.65-1.45-.9-3.17-3-1.42-11.06,9.35-23.86,8.84-36.86,6.19-14.24-2.91-26.12-10.2-36.53-20.24-20.75-20-36.8-43.58-51.93-67.85-8-12.82-16.25-25.58-20.79-40.17C91.25,1250.07,91,1241,97,1232.65c6.22-8.72,15.19-12.11,25.34-12.57,13.61-.61,26.06,4.23,38.4,9.24a180.11,180.11,0,0,1,50.79,31.08c19,16.51,35.74,34.87,42,60.37,4.57,18.67,2.94,36.57-7.18,53.2-1.71,2.81-.57,4.82.35,7a384.12,384.12,0,0,1,21.71,65.63c3.8,16.43,8.11,32.8,8.81,49.79a13.18,13.18,0,0,0,1.13,2.75c1.64-5.84.8-10.91,1.49-15.8,1.4-9.81,1.42-19.82,2.34-29.71,1.07-11.52,2.67-23,3.7-34.52s2.69-23,4.24-34.48c.79-5.9,1.33-11.84,2.31-17.7.3-1.82.18-2.82-1.5-3.54-14.12-6.07-19-18.69-22.51-32.14a109.63,109.63,0,0,1-3.06-30.08c.64-25.72,3.89-51.13,11.76-75.83,5.06-15.88,10.79-31.43,19.32-45.78,4.27-7.19,9.43-13.6,17.55-17,11.65-4.9,21.69-1.86,30.89,5.8,11.5,9.57,15.43,23,18,36.83,2.38,12.92,2.2,26.09,1,39.08-1.44,15.67-4.91,31.08-9.15,46.23-4.33,15.49-7.84,31.29-14.66,46-7.74,16.64-19.68,27.84-39.12,28.49-2.69.09-3.57.85-3.94,3.66q-3.9,29-7,58.11c-2.11,19.58-4.36,39.13-6,58.75q-1.71,20.56-3.08,41.13c-1.17,17.58-2,35.15-1.8,52.77a3,3,0,0,0,.42,1.5,265.24,265.24,0,0,1,11.58-45.28c1.26-3.6,2.6-7.18,4.08-10.7,4-9.61,8.6-18.15,6.57-30.1-2.62-15.43,3-30.17,15.36-41.27,5.54-5,12.17-8,19-10.6C339.65,1441.49,343.26,1440.25,346.84,1439Z"/><path class="cls-8" d="M366.62,436.09a393.39,393.39,0,0,0,22,41l-24-5c-10.88-2.67-21.67-5.73-32.61-8.18-7.12-2.73-13.32-2.43-20.6,1.6-18.53,10.24-38.73,14-60.09,12.72-24.95-1.44-47.07-9.82-66.18-25.46-23.62-19.33-38-44.27-42.06-74.76-4.93-37.42,6-70,31.91-97a110.23,110.23,0,0,1,66.9-33.82c34.94-4.54,66.09,4.34,92.75,27.37,21.39,18.48,34.2,42,38.47,70.1,4,26.21-.23,50.94-13.17,74.11-1.27,2.27-1.69,4.3-.1,6.45C362.4,428.64,363.5,433,366.62,436.09Z"/><path class="cls-3" d="M424.89,803.39c-15.69,2.3-29.42-2.13-40.82-12.91-10.46-9.9-13.5-22.17-9.49-36.08a78.91,78.91,0,0,1,6.28-15.71c8.83-16.39,9.81-33.44,5.7-51.33-2.92-12.69-4.69-25.57-.54-38.47,2.83-8.81,7.5-16.65,12.74-24.17C406.62,613.43,415,602.5,421,590c.33-3.39,2.1-6.25,3.47-9.24,6.67-14.56,12.55-29.38,15.34-45.25a84.68,84.68,0,0,0,0-31.22A84,84,0,0,1,438,483.51c.37-6.79,3.6-12,8.37-16.44a84.08,84.08,0,0,1,9.72-7.83c11.37-7.84,16.57-19,18.08-32.42,1.38-12.22,3.29-24.4,8.69-35.65,6.7-13.94,16.2-25.6,24.87-31.63C490.08,372.36,478,393.61,475,420.15a116.17,116.17,0,0,1-2.53,15.24c-2.19,8.68-6.43,15.89-13.6,21.47-6.81,5.29-14.1,10.11-18.94,17.54a1.6,1.6,0,0,1-1.77.62c.74-27.41,3.27-54.58,15.06-79.79,12.34-26.39,32.16-44.48,61.56-49.38a298,298,0,0,1,33.92-3.92c21.28-1,37.85,9.09,49.65,26.41,5.95,8.74,10.87,18.26,15.6,27.75,11.15,22.37,13.67,46.3,12.1,70.93a98.81,98.81,0,0,0,.35,16c1.12,11.35,6.42,20.46,15.58,27.33,2.93,2.2,5.66,4.65,8.57,6.88,9.47,7.25,13.43,17,13.32,28.7-.05,4.66.11,9.33,0,14-.43,13.64,5,24.62,15.31,33.2,7.41,6.17,15.23,11.84,22.73,17.91,22.79,18.44,29.79,48.16,17.06,71.95-2.87,0-3.73-2.55-4.94-4.34-16.85-24.71-34.07-49.16-51-73.82-4.51-6.58-9.06-13.12-13.34-19.86a33.57,33.57,0,0,0-13.49-12.27c-1.62-.81-3.46-1.38-3.85-3.53,1.76-8.8,4.46-17.38,5.89-26.25a39.63,39.63,0,0,0,.38-7A2.87,2.87,0,0,0,637,533c-1.44-.59-2.59.17-3.54,1.2a13,13,0,0,0-2.43,4.88c-2.19,6.46-3.76,13.1-5.56,19.67-.51,1.88-.87,4.51-3.43,4-2.3-.43-2.4-3-2.28-5a176.51,176.51,0,0,1,3.35-23.67,65.8,65.8,0,0,0,1.55-16.84c-.1-1.63.16-3.53-2.07-4-1.91-.39-3.15.76-4.11,2.22-3.47,5.25-4.81,11.25-6,17.3a239.11,239.11,0,0,0-3.1,23.71,7.23,7.23,0,0,1-.7,2.89c-.5.92-1.22,1.74-2.32,1.57a2.17,2.17,0,0,1-1.73-2.16,18.47,18.47,0,0,1,.16-5,183.51,183.51,0,0,0,2.83-34.23,13.21,13.21,0,0,1,1-5.85c7.55-14.25,8.74-29.46,6.9-45.14-2.46-21-4.88-42-8.72-62.8-.18-1-.38-2-.63-2.93-1.41-5.54-1.41-5.54-7.07-4.23-2.92.69-5.6-.27-8.24-1.3-3.12-1.21-5.69-3.33-8.61-5.37-.43,5.48-1.42,10.74-7.17,12.64-8.67,2.87-14.64-1.94-19.8-8-1.5.52-1,1.73-1.25,2.59-2.07,8.54-8.71,12.65-17.27,10.61-5.49-1.3-10-4.28-14.28-7.9-1.09-.93-1.73-2.48-3.8-2.7-2.64,11-1,21.76,1.55,32.47a120.08,120.08,0,0,0,7.44,20.66c5.26,11.89,5.93,23.75.57,35.77-.61,1.37-1.08,2.8-1.64,4.19-3.5,8.71-2.68,16.9,2.69,24.67,2.55,3.7,5,7.48,6,12,.29,2.73,1.43,5.4.66,8.23-.79,9.18-3.57,18.11-3.5,27.4a244.89,244.89,0,0,0,3.42,29.21c2.6,15.14,4.47,30.35,1.27,45.6-2.76,13.14-8.43,24.54-20.79,31.42a23.79,23.79,0,0,1-3.62,1.68c-13.87,5-23.79-3-21.9-17.85,1.19-9.24,3.21-18.35,4.11-27.65,1.15-11.83.66-23.58-.4-35.36-.33-3.7-2.59-3.21-5-2.56-15.81,4.23-31.09,9.73-45.47,17.72a96.22,96.22,0,0,0-34.88,32.84c-5.27,8.25-8.3,17.38-11.15,26.61-.43,1.22-1.33,2.19-1.82,3.37.71,4.68-.71,9.21-.88,13.84-.71,18.74,3.39,36.68,8.94,54.34,6.13,19.51,13.14,38.72,19.92,58C425.11,798.22,426.76,800.71,424.89,803.39Z"/><path class="cls-4" d="M633.11,570c10,3.56,15.74,11.26,21.33,19.9,11.82,18.28,24.62,35.94,37.06,53.82q13.65,19.63,27.42,39.18c.54,1,1,2,1.65,3,5.22,7.73,5.21,7.72-.59,14.83a33.53,33.53,0,0,0-2.1,3.26c-2.59,5.9-7.41,10.14-11.35,15-11,13.54-21.86,27.19-33.29,40.37-1.17,1.35-2.3,4.83-5.07,1.47a540.76,540.76,0,0,0-17.86-108.63c4.94,18.73,9.07,37.64,12.16,56.76q2.25,13.95,3.64,28c2.22,22.66,3.88,45.33,3.37,68.12a27.53,27.53,0,0,0,.56,3.45c.52,17.42,1.41,34.84,1.56,52.27,0,2.13.21,4.37-1.4,6.16Q625,869.5,579.71,872q-49.23,2.79-98.44,5.65c-1.65.1-3.3,0-5,0-.44-6.5,2.32-12.49,3.06-18.8.19-1.62.57-3.23.87-4.84.76-2.26,2.68-2.34,4.52-2.19,16.44,1.37,29.32-6,40.73-16.74,16.3-15.28,27.42-34.21,37.27-54,12.07-24.23,21.33-49.55,29.72-75.22,1.1-3.37,2.24-6.45,6.78-5.4A265.06,265.06,0,0,0,653,698.6c1.61-.42.63-1.2.93-.61.11.21-.34.52-.65.56a255.23,255.23,0,0,1-50.56,2.08c-1.33-.09-2.65-.07-4-.12-3.49.33-3.92-1.72-3.29-4.4,1-4.53,2.43-9,3.73-13.44q8.2-28.26,14.29-57c.41-1.94.57-4,2.76-5,14.53-1.45,27.5-7.15,39.76-14.76a103.44,103.44,0,0,1-33.9,14,14.4,14.4,0,0,1-5.43.54c-2.19-1.18-1.48-3.09-1.16-4.83a61.19,61.19,0,0,1,4.5-13.69c4-8.63,6.68-17.72,9.75-26.68C630.45,573.27,630.62,570.88,633.11,570Z"/><path class="cls-4" d="M1401,1338.8c-1.35-2.69-2.65-5.34-6.24-2.39-1,.77-1.8-.26-2.67-.7-2.22-1.13-4.62-1.39-6.52.35s-4.73,3-6.23,1.51c-2-2-4.53-4-4.44-7.74.28-10.65.07-21.31.06-32-1.6-2.26-.92-4.84-.92-7.27q-.06-97.78,0-195.56,0-26,0-51.92c0-5.77.77-6.71,6.6-6.73q48.93-.2,97.84,0a8.4,8.4,0,0,1,5.65,1.56c.08,1.49.24,3,.24,4.48q0,145.89,0,291.79c0,1.49-.14,3-.22,4.48a5.54,5.54,0,0,1-.3.53c-12.41.53-24.83.23-37.25.26q-20.38,0-40.79,0C1404.15,1339.42,1402.42,1340,1401,1338.8Z"/><path class="cls-9" d="M621.09,602.1c-1.56,5-3.75,9.85-4.57,15.1-.18,1.16-.66,2.26.61,3.08l0,.59c-3.53,3.26-2.77,8-3.66,12-4.72,21.14-10.38,42-16.41,62.79-.42,1.48-2.28,3.49.88,4.33.38.18.52.38.43.61s-.19.38-.3.38c-3.07-.3-3.29,2.14-3.93,4.13-7.65,23.89-16.2,47.46-27,70.13-10.4,21.82-22,42.88-39.64,59.91-10.39,10-22.15,17.33-37.12,18.38-3.37.24-6.91-2-10.11.57-.3-.76-.52-1.66-1.45-1.84-9.83-1.9-17.9-7.1-25.39-13.43a6.63,6.63,0,0,0-2.26-.76c-.87-1.56-.05-2.93.59-4.25,13.88-28.79,26.47-58.24,41.38-86.51a727.73,727.73,0,0,0,55.12-137.47c2.27-7.84,3.72-15.51.49-23.39-1-10.1,1.14-19.88,3.23-29.64.74-3.42.78-6.93,1.64-10.33a30.78,30.78,0,0,1,1.14-4.34c1-2.53,2.22-5.17,5.53-4.82s3.89,3.27,4.11,6a59.14,59.14,0,0,1-.45,12,53,53,0,0,0,.24,16.21c3-1.86,3.44-4.39,4.11-6.69,1.92-6.59,2.22-13.46,3.27-20.2,1.25-8,2.53-16.1,4.46-24a31.28,31.28,0,0,1,1.39-4.27c.86-2.09,1.88-4.13,4.56-3.82,2.5.28,3.64,2.3,4.06,4.51.89,4.62.49,9.27,0,13.93a99.29,99.29,0,0,0,.42,26.34c.22,1.33.33,2.89,1.95,3.08s2.14-1.42,2.59-2.6c2-5.32,2.73-11,3.44-16.55,1.22-9.54,2.73-19.06,3.21-28.7a10,10,0,0,1,.85-3.88c.83-1.74,2-3.2,4.08-3.15s3.18,1.6,3.76,3.46a22.08,22.08,0,0,1,1.11,5.87A172.54,172.54,0,0,1,605,552.5c-.38,2-.27,4-.58,6-.23,1.48.06,2.78,1.66,3.13,1.9.42,2.73-.82,3-2.5.61-4.1,1.14-8.22,1.51-12.35A113.49,113.49,0,0,1,616,519.92a9.79,9.79,0,0,1,1.2-2.73c1.39-1.86,2.72-4.17,5.51-3.39s2.37,3.31,2.33,5.45c-.18,8.19-2.34,16.11-3.45,24.17-.7,5.1-1.72,10.18-1.53,15.37.07,1.81-.29,4.27,1.92,4.61,2.66.41,2.7-2.32,3.22-4.13,2-6.86,3.32-13.9,5.72-20.64a17.17,17.17,0,0,1,1.3-3.23c1.07-1.77,2.43-3.41,4.76-2.87s2.15,2.75,2,4.52c-.63,10.5-3.17,20.64-6.23,30.64Q627.45,585.06,621.09,602.1Z"/><path class="cls-9" d="M669.22,762.08c8.65-10.41,17.19-20.93,26-31.21,7.63-8.91,14.42-18.51,22.67-26.88,10.38,14,20.7,28,31.16,42,13.06,17.4,26.27,34.69,39.3,52.11a11.79,11.79,0,0,0,5.43,4.07c49,19.35,97.88,38.88,146.93,58,8.13,3.17,17,4.29,25.33,7.11,13.45,4.59,26.31,10.38,36.12,21.31a38.6,38.6,0,0,1,6.64,10.47c2.24,5.21,1.65,6-3.94,6q-37,0-73.93,0c-2.07,0-4.45-.74-5.81,1.74l-.08.45c-1.67.43-2.47,2.8-4.66,2.1-20.51-5.2-41.14-9.86-61.74-14.66-38.45-9-76.84-18.21-115.36-26.88-4.37-1-7.32-3.49-9.92-7-19.44-26-38.53-52.33-58-78.35a28.67,28.67,0,0,0-3.93-4.72c-.1,6.69,0,12.63-.07,18.57,0,1.82.22,3.79-1.1,5.26-1.11,1.23-1.61.38-1.74-.86-.22-10.86.46-21.71-.44-32.56C667.94,766.13,667.35,763.82,669.22,762.08Z"/><path class="cls-4" d="M550,587.11c5.4,10.43.33,20.15-2.5,29.76a723.31,723.31,0,0,1-55.21,134.82c-13.85,26.08-25.46,53.35-38.08,80.09-1,2.09-2,4.17-3,6.26-5.53,5.3-11.31,4.25-14-2.74-3.43-9-6.61-18-9.89-27.08-.62-1.7-1-3.52-2.37-4.83-2.14-9.73-6.34-18.77-9.42-28.19-7.31-22.33-16.25-44.17-19.9-67.61a113.33,113.33,0,0,1-.72-32.22c.23-1.77,1.55-3.72-.05-5.54a1.94,1.94,0,0,1-.22-.4l.48-.14c17.74-8.68,36.51-14,55.94-17.25,11.78-2,23.65-1.9,35.49-2.49.67,0-.36-1,0-.45.11.17,0,.27-.41.29-13.07.91-26.18.92-39.18,3.33A235.84,235.84,0,0,0,402,665.88c-1.65.67-3.29,2.69-5.45,1,7.45-30.52,26.16-51.63,54.14-65.12a219.83,219.83,0,0,1,39.72-14.43c4.22-1.11,5.22,0,5.63,4.25a203.6,203.6,0,0,1-3.47,61c-1.35,6.57-1.44,13.42,4.7,17.72,6.34,4.45,13.07,2.48,19.24-1.12,11.71-6.81,16.75-18,19.45-30.56,3.2-14.93,1-29.74-1.4-44.52-1.55-9.51-3.16-19-3.15-28.69,5.81-2.17,11.74-3.21,17.92-2,2.32,1.64,1.17,3.87.84,5.84A51.43,51.43,0,0,0,550,587.11Z"/><path class="cls-5" d="M1840.72,1559.59c.06,2.66.19,5.33.19,8q0,131.13-.06,262.27c0,4.08.2,7.38,5.07,8.09-12.44,1.06-24.9.33-37.35.37-3.59,0-3.71-3.41-4-6-1.59-14.4-3.54-28.74-5.2-43.13-2.63-22.64-5.52-45.26-8.14-67.9-.58-5-1.4-5.77-6.75-5.8-11.16-.08-22.31,0-33.46-.06-6.72-.06-7.22-.79-5.44-7.19.63-2.25,1.11-4.53,1.58-6.81,1.44-5.69,1-11.69,2.79-17.32,10.54-15.19,20.12-31,27.81-47.81a138.3,138.3,0,0,0,10.51-33.75c.3-1.75,1-4-.65-5.14-1.87-1.27-3.38.71-4.75,1.75-13.12,10-20.65,23.68-25.59,39a106,106,0,0,0-4.41,18.42c-.24,1.85.4,5.15-3.38,4.89a24,24,0,0,1-.48-7.17c1.55-5.86,2.17-12,4.42-17.66,5-13,10.23-25.86,17.36-37.86,1.14-1.92,2.4-3.6,4.75-4,22.33-5.39,42.83-14.27,59.24-31C1836.48,1562.07,1837.88,1559.78,1840.72,1559.59Z"/><path class="cls-10" d="M1484.07,1037.91c-34.63,0-69.27.09-103.9-.12-4.63,0-5.39,1.49-5.33,5.72.2,17.14,0,34.29,0,51.43-1.91-.15-1.29-1.66-1.28-2.63.18-23-.52-46,.37-69.06.12-3.15-1.93-6.06-.84-9.25-3,2.69.78,4.79.62,7.23a2.92,2.92,0,0,1-.48,2c-2.91,1.47-2.91,3.61-1.25,6,.64.93,1.55,1.69,1.53,3-.47,1.77,1,4-1.29,5.31-57-4-114-1.14-171.06-1.69s-114.19-.11-171.28-.12c-3,0-6,.23-8.66-1.67a1.34,1.34,0,0,1-.32-.73c0-4.29-1-7.65-6-8.9-2.22-.55-3.33-3.68-3.13-5.75.39-4.07,3.22-.12,4.86-.8-.35-2.61-2.22-2.64-4.07-2.81-2.81-.26-5.48-.79-5.08-4.58.12-1.1-.27-1.49-1.28-1.57-4.76-.43-6.5-4.13-8.25-7.74-1.15-2.36-1.84-4.75-5-5.66-2.46-.7-2.7-4.71-.88-7.3,1.05-1.51,2.12-2,5.65-2.87-3.27-1.71-4.66-5-6.85-7.72.86,2.26,1.28,4.52-1.22,5.79-2.19,1.12-3.76-.39-5.18-1.88-1-1.08-1.61-2.57-2.93-3.36-2.06-1.23-5-1.78-3.89-5.28s2.89-6.57,7.13-7c1.18,1,1.13,2.71,2.79,4.8A50.17,50.17,0,0,0,985,966c-1.45-.93-3.22-1.51-3.86-3.32-.27-.78-.88-2,.93-1.72,8.31,7.87,17.24,15.09,25,23.6,3.75,3.74,7.53,7.43,11.22,11.21,1.22,1.25,3,2.33,1.89,4.59a8.19,8.19,0,0,0-1,3.82c0,2.28.55,3.64,3.19,2.42a7.58,7.58,0,0,1,7.61.67c3.07,2,6.42,2.31,10,2.3,22.44-.08,44.88,0,67.32-.06q-33.06,0-66.13,0c-1.83,0-3.72.23-5.44-.44-2.06-.79-4.33-1.68-2.21-4.59a9.54,9.54,0,0,1,3.93-.44H1116a10.46,10.46,0,0,1,3.93.42c2.38,3,5.75,2.91,9.07,2.92,13.46,0,26.91,0,40.36,0q42.11,0,84.21,0c3.43,0,7.06.47,9.5-2.89,2.1-.74,4.29-.44,6.44-.44q103.88,0,207.75,0c2.39,0,5-.85,7.14,1.16Q1484.2,1021.57,1484.07,1037.91Z"/><path class="cls-11" d="M1747.79,1700.91c-.87,4-1.73,8.06-2.77,12.87h8.75c11.16,0,22.31.22,33.46-.12,4-.11,5,1.43,5.43,4.91,1.34,12.39,2.85,24.77,4.32,37.14,3.08,25.87,6.24,51.72,9.21,77.6.41,3.57,1.72,4.61,5.32,4.54,11.47-.2,22.94,0,34.41.09l9.88.51v.33h-134c-1.77-.7-3.62-.35-5.44-.35-58.45,0-116.91-.15-175.36.08-11.64,0-23.29.4-34.93.36-1.83,0-4.14.9-5.26-1.63l.19-.41a6.26,6.26,0,0,1,4.6-1.46c9.23,0,18.47-.41,27.7.24a5.26,5.26,0,0,1,2.61,1.17q51,.09,102,.19c16.33,0,32.65.09,49,.32,3.34,0,4.84-.54,5.36-4.4,3.68-26.85,7.67-53.65,11.61-80.47,1.68-11.34,3.61-22.65,5.17-34,.5-3.68,1.93-4.88,5.7-4.73,8,.32,16-.11,24,.2,3.54.14,5.15-1,5.77-4.39.54-2.9,1.53-5.72,2.31-8.57C1747.14,1700.46,1747.46,1700.44,1747.79,1700.91Z"/><path class="cls-4" d="M295.07,1780q2.64-12.51,5.29-25c5.27-3.17,12.37-2.82,20.15,1a29.42,29.42,0,0,0-5.86-2.39c-2.28-.7-4.58-.37-6.84-.66s-4.48,1-6.7,0a28.85,28.85,0,0,1,3.14-11.32c2.28,0,3.37,1.92,4.91,3.11,6.5,5,15.94,3.59,20.19-3,1.57-2.42,2.45-5.23.29-7.29-2.43-2.32-4.49.21-6.4,1.73-.52.42.12-.11-.36.34-5.65,5.27-5.73,5.34-10.58-.9-1.89-2.43-4.89-3.43-6.74-5.83a5.73,5.73,0,0,1,1.59-5.68l2.1-7.18c1.59-1.36,3.42-.94,5.21-.63,19.92,3.41,39.88,6.56,59.81,9.93,2.09.35,4.34.39,5.92,2.19,1.12,1.77.45,3.54-.07,5.28-6,20.06-12,40.13-17.76,60.26-1.17,3.37-1.62,7-3.53,10.1-7.51,6.34-16,11.28-24.17,16.64-18.61,12.2-37.32,24.27-55.8,36.67-4.69,3.14-9.59,6-14.27,9.12-1.36.92-2.73,1.94-4.55,1.62-6-3.77-7.46-8.43-4.4-14.58,2.41-4.85,4.93-9.63,7.41-14.44a2,2,0,0,1,1-1.68c1-1.23,2.14-2.43,2-4.22l.46-.53a18.12,18.12,0,0,1,13.32,6.1c-2.51-4.1-7.72-4.77-12.12-6.83.46-6.43,4.22-11.26,7.87-16.15,4.86,1.58,10,2.61,13.4,7a15.78,15.78,0,0,1,2.31,3.31c-2.63-5.9-8.35-8.75-15.13-10.12.56-6.61,4.25-11.57,8.5-16.24,8.83,2.63,17,6.36,22.68,14-5.61-7.52-13.45-11.49-22.28-13.85-1.07-1.46,0-2.2,1-2.94l8.23-15.06c7.28-2.75,13.39,1.14,19,2.89a36.37,36.37,0,0,0-15.44-3.86A3.06,3.06,0,0,1,295.07,1780Z"/><path class="cls-7" d="M286,1796.93c-.31,1-.61,2.07-.92,3.1l.05-.06c-3.68,4.89-6.13,10.48-8.91,15.88l-.47.4-8.07,15.5c-.15.67-1.11.6-1.2,1.32l-.49,0c-1.83-1.58-4.06-1.2-6.19-1.2-21.1,0-42.2-.07-63.31,0-5.87,0-10.8-.86-12.36-7.72-.5-2.22-1.91-4.23-2.58-6.44-1.8-5.92-4.17-10.84-11.87-8.92a1.84,1.84,0,0,1-2.48-1.77c.18-4-1.15-8.23.84-12.16,18.88-.69,37.57,2.89,56.51,2.18C245,1796.33,265.52,1796.93,286,1796.93Z"/><path class="cls-12" d="M1532.94,1435c2.27,1.47,3.09,3.44,3.08,6.24q-.18,38.16,0,76.31c0,4.13-1.34,5.58-5.48,5.48-9.8-.22-19.61-.06-29.42-.06q0-44,0-88Z"/><path class="cls-13" d="M1535.8,1839.2c-2,1.39-4.2.68-6.3.68q-410.16,0-820.33,0c-2.22,0-6.79-2.11-4.95,3.84.42,1.35-1.32,1.21-2.18,1.1-11.09-1.35-22.26-.62-33.38-1.28-2-.12-3.95-.54-5.93-.59-13.8-.41-27.6-.65-41.4-1.16-15.44-.56-30.87-1.35-46.3-2-.5-.43-1.17-1.07-1.71-.87-4.89,1.77-7.85-2.8-12-3.69-3.79-.81-3.48-6,.33-9.44,5.84-1,11.62.32,17.37.74,20.84,1.51,41.69,3.14,62.54,4.51,16.56,1.09,33.09,2.59,49.66,3.29,2.7.11,5.23.9,7.86,1.25a8.48,8.48,0,0,1,1.86.55,11,11,0,0,0,5.77,1.35c1.33,0,2.67,0,4,0q390.71.91,781.4.53c13.64,0,27.3.37,41,.43C1534,1838.45,1535.11,1838.17,1535.8,1839.2Z"/><path class="cls-14" d="M1146.8,878.37a95.24,95.24,0,0,1-25.3-53.12c-4.39-32.69,3.51-61.89,27.39-85.41,5.21-5.13,6.46-9.33,5.63-16.44-3.83-32.62,3.8-62.16,26.56-86.7,15.07-16.25,34.16-25.66,55.62-30.29,3.56-.77,4.39-2,4.55-5.38,1.33-27.69,12.76-50.57,33.41-68.94a12.56,12.56,0,0,1,2.1-1.26l.45.5c-13.16,12.1-23.8,25.89-29.45,43.14a108.06,108.06,0,0,0-4.9,25.9c-.32,4.25.85,4.87,4.8,4.4,22.61-2.66,44.11,1.08,64.06,12.25,13.51,7.56,24.75,17.45,30.53,32.36a39,39,0,0,1,1.19,25.92c-5.55,18.46-25.3,27.65-45.78,21.06-18.76-6-31.45-19.44-41.49-35.65-9.3-15-14-31.53-14.92-49.08-.18-3.29-.9-3.75-4-3.09C1183,620,1149.13,668.09,1156.7,723.08c.36,2.63.35,5.32,1.63,8.25,9.53-6.66,19.6-12.06,30.76-14.9,26.7-6.79,51.92-4.78,73.8,13.91,8.68,7.4,15.06,16.52,17.08,28,3,16.81-4.11,31.88-19.12,41.19-17.37,10.76-35.45,10.49-53.37,2-25.8-12.24-41.07-33.49-49.49-60.2-.54-1.69-1-3.41-1.65-5.67-10.19,8-18.07,17.32-23.35,28.54-18.55,39.42-14.21,76.45,12.32,110.93l2.13,2.75-.15.48Z"/><path class="cls-15" d="M1535.8,1839.2c-2.16,0-4.32-.15-6.48-.15q-410.91,0-821.82-.1c-2.52,0-5.45,1-7.28-1.88,1.77-2,4.21-1.79,6.49-1.79q71.56-.09,143.12,0c2.16,0,4.36,0,6.15,1.51,2.33.07,4.66.2,7,.2l630.91,0c2.33,0,4.66.16,7,.24,1.84,1.18,3.9.66,5.85.66q104.7,0,209.39.08c1.92,0,4-.72,5.75.8-12.8.06-25.6.17-38.4.18q-71.09,0-142.18,0C1539.45,1839,1537.63,1839.12,1535.8,1839.2Z"/><path class="cls-16" d="M1484.35,1005.2c-28.82-.07-57.64-.21-86.45-.22q-67.47,0-134.92.11c-1.94,1.68-4.32,1.57-6.64,1.57q-64.86,0-129.72,0c-2.31,0-4.7.11-6.63-1.57l-87-.13c-5.08,2.19-9.33.18-12.91-6.09-3.88-5.21-9.86-8.51-13.1-14.32,5.45,4.88,11,9.63,16.29,14.68a12.76,12.76,0,0,0,9.64,3.86q208.14-.26,416.28-.22l119.94,0h6.61c-3.72-3.93-6.58-7-9.52-10q-39.75-40.79-79.47-81.59a9.81,9.81,0,0,0-7.82-3.2q-120.43.06-240.87,0c-2,0-4-.06-6-.08.83-2.67,3-1.33,4.53-1.34,26-.1,51.91-.07,77.87-.07q58.89,0,117.8,0a21.71,21.71,0,0,0,5.46-.23c15-.08,30-.12,45-.31,2.2,0,3.3,1.27,4.56,2.56q39.59,40.61,79.19,81.19c4.66,4.75,9.88,9,15.32,13.86-3,1.86-4.79,1.37-6.46,1.38q-42.49,0-85,0C1488.34,1005,1486.34,1005.13,1484.35,1005.2Z"/><path class="cls-17" d="M366.62,436.09c-4.64-3.32-5.94-8.85-8.74-13.37-1-1.6.84-3.06,1.59-4.46C382.88,374.35,377.07,321,344,285.47c-31.64-34-70.92-46.1-115.7-34.06-44.38,11.94-72.15,42-82.57,86.69C130.85,402.07,176,466.73,241,476.2c25.58,3.72,49.76-.15,72.36-12.52,5.09-2.79,9.52-4,14.8-1.64a27.27,27.27,0,0,0,3.84,1.09c.22.91,0,1.4-1,1a29.79,29.79,0,0,1-3.39-.79c-4.64-1.62-8.58-.87-13.07,1.63-71.44,39.78-160.49-4.51-172.65-85.7-9.62-64.28,35.39-124.64,99.45-133.35,66.42-9,124.92,35.58,133.43,102.21A111.55,111.55,0,0,1,361.29,418c-1.79,3.21-1.84,5.54.1,8.51S364.89,432.87,366.62,436.09Z"/><path class="cls-18" d="M1713.48,1519.61c.59-11.45.82-22.93,3.42-34.18,4.3-18.53,11.68-35.32,26.69-47.88a24.77,24.77,0,0,1,2.74-2.16c1.21-.75,2.4-2,4-1s1.23,2.57,1.12,4.07c-.94,12.56-4.35,24.51-8.89,36.17a259.12,259.12,0,0,1-24.38,46.8c-.67,1-1,2.59-2.72,2.48,0-4.61,2-8.67,3.48-12.86q9.06-26.61,19.59-52.68c-7.84,19.2-15.1,38.62-21.57,58.32-.72,2.18-1.17,4.45-2.38,6.44C1712.37,1522.59,1712.85,1521.12,1713.48,1519.61Z"/><path class="cls-2" d="M1857,1439.93c5-14.72,9.33-29.69,16-43.8s14.19-27.82,25.31-39.11c1.19-1.21,2.2-3.31,4.45-2.36,1.94.81,1.42,2.8,1.57,4.38,1,10.82-1,21.2-5.11,31.14-8,19.68-21.1,35.55-37.77,48.56-.84-1.4-.11-2.55.6-3.7,10.91-17.73,20.22-36.33,29.77-54.8.22-.43.36-.92.48-1-8.67,16.69-17.47,33.7-27,50.33-2,3.44-4.67,6.52-5.5,10.55a4.78,4.78,0,0,1-2.76,2.46A1.62,1.62,0,0,1,1857,1439.93Z"/><path class="cls-18" d="M1729,1359.38q.69-3.2,1.4-6.4c2-3.32,2.57-7.14,3.79-10.73.49-1.45.11-3.72,2.6-3.91,5.45-9.09,10.24-18.6,17.36-26.61,7.72-8.71,16.62-15.78,27.47-20.17,2-.83,4.42-2.94,6.45-1,2.3,2.19-.06,4.68-.93,6.81-5.11,12.62-12.88,23.59-21.48,34-9.87,12-21,22.62-32.72,32.8-1,.83-1.86,2-3.4,1.73-.58-1.33.31-2.14,1-3.09,12.33-17.49,25.31-34.51,38.51-51.35.45-.5-.6-.55,0-.27.06,0,0,.19-.2.44-12.69,16-25.25,32-36.78,48.9-.69,1-1.31,2.88-2.76,2.34C1727.61,1362.25,1728.61,1360.61,1729,1359.38Z"/><path class="cls-18" d="M1676.22,1166.12a4.94,4.94,0,0,1,.76,3.51c-.14.79-.51.93-1.12.39l.06,0c-14.11-18-27.53-36.59-36-49,4.57,6.51,13.38,19.64,23,32.18q3.63,4.74,7.32,9.42c1.21,1.53,2.86,2.88,2.67,5.16-25.06-15.46-45.23-34.89-52.34-64.82a75.28,75.28,0,0,1-1.37-9.37c-.17-1.6-.53-3.58,1.34-4.45,1.55-.72,2.81.52,4,1.43,8.44,6.38,15.27,14.29,21.59,22.69,8.94,11.87,16.17,24.76,22.71,38,.81,1.64,1.37,3.41,2.87,4.61-.59-.31.26,0-.2-.45-.18-.17.29-.42.5-.09C1674,1158.74,1674,1162.86,1676.22,1166.12Z"/><path class="cls-4" d="M1702,1444.9c-3.31-2.67-4.67-6.73-7.21-10-4.89-10.52-10.35-20.78-13.32-32.12-4.1-15.64-4.91-31.18.39-46.69.62-1.81.73-4.4,3.09-4.7s3,2.27,3.92,3.93c7.28,13.71,10.59,28.6,13.08,43.76,2.24,13.66,2.13,27.52,3.45,41.25,1.53,2.74,1,5.22-1.31,8.55-6.86-24.77-11.73-49-16.36-73.33,3.23,17.06,6.56,34.11,10.59,51,1.19,5,2.28,10,3.77,15C1702.4,1442.67,1702.79,1443.81,1702,1444.9Z"/><path class="cls-2" d="M1754.56,1637.19q-2.14,8.4-4.3,16.8c-2.08-7.65-2.34-15.58-3.46-23.37-2-14.15-4.42-28.23-6.79-42.32a9.07,9.07,0,0,1-.31-3.87c-.13,4.15,1,8.06,1.63,12,2.49,14.42,4.75,28.86,6.62,43.37.61,4.78,1.45,9.53,1.42,14.35,0,.84.88,2.43-1.16,2.42q-6.6-20.32-13.21-40.64a11.86,11.86,0,0,1-2.09-4.63c-.19-2-1.53-3.62-1.56-5.64.21-4.5-1.58-9-.21-13.48-2.11-3.91-.61-8.19-1.25-12.25-.38-2.61-2-5.22,0-7.83.3-2.64.56-5.28.91-7.92.21-1.57-.15-3.57,1.91-4.2,2.22-.68,3.27,1.17,4.44,2.52a71.36,71.36,0,0,1,13.9,25.67c4.33,13.74,4.34,27.85,3.89,42C1756.62,1632.58,1753.67,1634.78,1754.56,1637.19Z"/><path class="cls-2" d="M1840.72,1559.59c-16.46,19-37.82,29.55-61.69,35.77a29.31,29.31,0,0,1-3.4.5c0-1.86,1.56-2.34,2.8-3.13,17.49-11.13,34.12-23.48,50.71-35.89-18.55,13.66-37.24,27.12-56.5,39.78-.57.37-1.1.72-1.73.12l2.62-4.69c3.08-2.62,4.62-6.56,7.75-9.13,8.45-7.75,16.38-16.07,25.5-23.09a183.62,183.62,0,0,1,28-18.17c1.91-1,3.81-2.14,6.12-1.76a12,12,0,0,1,2.33-.71c2.47-.24,5.3-3.14,7.27-.45,1.7,2.33-.67,5-1.84,7.27C1846.24,1550.65,1843.39,1555.08,1840.72,1559.59Z"/><path class="cls-18" d="M1703.77,1220c-7-30-7.69-59.25,10.5-86.18a38,38,0,0,1,3.77-4.64c1.09-1.16,2.08-2.87,4.08-2.28s1.68,2.59,1.91,4.17c1.85,13,.28,25.89-2.15,38.65a238.66,238.66,0,0,1-16.84,53.5c-1.16-1.24-.43-2.71-.49-4.09,3.14-22.7,6.45-45.37,9.18-58.8-2.5,13-6.14,35.11-8.9,57.39A3.79,3.79,0,0,1,1703.77,1220Z"/><path class="cls-2" d="M1824.91,1512.4c-5.6-15.7-8.87-31.93-11-48.4-1.82-13.91-2.11-27.83.4-41.67.4-2.19-.23-5.7,3-6.17,2.72-.4,3.56,2.64,4.8,4.47,11.85,17.39,14.17,36.89,12.35,57.23a144.55,144.55,0,0,1-4.82,25.41c-.31,1.12-.88,2.19-.18,3.34.47,1.78-.25,3.3-2,3.28s-1.55-1.9-1.54-3.19c.08-10.79-1-21.53-1.61-32.29-.57-10.09-1.62-20.15-2.67-30.21a17.69,17.69,0,0,1-.31-3c.79,8.64,1.88,18.18,2.51,27.76.9,13.57,2.13,27.12,2.06,40.73A3.28,3.28,0,0,1,1824.91,1512.4Z"/><path class="cls-4" d="M1733.89,1299.58c-27.58-14.85-50-34.17-57.42-66.41-.66-2.85-2.28-6.86.1-8.51,3-2.1,5.69,1.68,8,3.5,19.63,15.43,33.14,35.76,45.25,57.18,2,3.6,4.05,7.22,6.07,10.82,1.84.68,2.42,2.18,1.11,3.42s-2.22-.52-3-1.42c-11.58-13-22.54-26.54-33.46-40.1-3-3.71-5.88-7.49-8.37-10.54,12.61,16.32,26,33.07,40.32,49C1733.26,1297.42,1734.09,1298.26,1733.89,1299.58Z"/><path class="cls-5" d="M1840.91,1539.9c-21.79,10.24-40.06,25.22-56.84,42.21a25.21,25.21,0,0,1-3.13,2.37c-.51-2.47,1.27-4,2.4-5.78,11.2-17.3,23.36-34,34.7-51.16q10.29-15.61,19.25-32c.83-1.52,1.22-3.58,3.54-3.74Q1840.88,1515.83,1840.91,1539.9Z"/><path class="cls-19" d="M1729.9,1572.05c0,2.61,0,5.22,0,7.83-6.17-14.67-10.57-29.93-15-45.19-1-3.58-2.11-7.15-3.18-10.73-1.85-1.66-2-3.8-1.67-6.06a191.88,191.88,0,0,1-6.37-39q-.64-13,0-26c1.21-3.08-1.11-5.4-1.73-8.08a529.19,529.19,0,0,1-13.53-60.16,36.47,36.47,0,0,1-.52-11c5.38,24.35,10.76,48.71,16.45,74.45.46-3.54.73-5.69,1-7.84,4.9-27.85,14.79-54.26,23.56-81v4c13.21-20,27-38.26,43-54.74l-42.5,57.27c-6.78,21.35-14.42,42.44-19.46,64.32-6.59,28.56-4.48,56.86,2.38,85,.36,1.45.71,2.91,1.06,4.36.19,1,.38,2,.56,2.94.28.54.88.87,1,1.52,1.72,9.77,5.23,19,8.12,28.45C1725.16,1559.1,1727.63,1565.54,1729.9,1572.05Z"/><path class="cls-20" d="M438.14,475c4.58-8,11.9-13.38,19.17-18.51C468,449,471.72,438,472.91,426.1c2.47-24.7,10.87-46.35,29.76-63.23,4.3-3.84,8.66-7,13.58-8.64-5.55,4.3-10.61,7.65-14.84,12-15.1,15.44-23.45,34-25.31,55.44-1.41,16.27-6.3,30.65-20.94,39.74s-19,21.81-15,38c5.72,23.29,1,45.3-8.15,66.75-3.43,8.06-7.29,15.94-10.95,23.9-1.29-1-1.22-2.11-.46-3.42,13-22.45,14.09-47.5,15.8-72.4.61-8.79,1.21-17.58,0-26.41C435.82,483.48,437.35,479.26,438.14,475Z"/><path class="cls-13" d="M260,1868l98-64.14c1.36,4.58.25,8.23-3.51,11.4A240.67,240.67,0,0,1,330,1833.11c-1.1.72-2.23,1.38-3.82,2.36,7.58.1,14.64-.08,21.7.1,1.93.06,4.44-.72,5.27,2.21-5.19,1.36-10.47.34-15.7.61-6.08.32-12.19-.49-18.26.44-11.24,5.62-21.55,12.83-32.46,19-5.61,3.18-11.13,6.52-16.75,9.68A10.09,10.09,0,0,1,260,1868Z"/><path class="cls-21" d="M1840.83,1491.77c-17,32.8-39.87,61.84-59.89,92.71-2.16,2.83-3.82,6.14-7.41,7.57,12.86-22.13,28.43-42.47,42.3-63.92,3.29-5.07,7.59-9.61,9.08-15.73.18-15-1.79-29.82-2.49-44.74-.45-9.59-1.93-19.14-1.08-28.8a405.36,405.36,0,0,1,5.64,70.46c1.74-.26,1.84-1.76,2.48-2.71,10.11-18,19.38-36.4,23.69-56.77,2.86-13.54,2.38-27.46,3.62-41.2,1-10.91,1.62-21.86,3.33-32.75q-1.55,32-3.08,64c0,.9,0,1.79.08,2.69a175.38,175.38,0,0,1-13.37,42.35C1842.71,1487.2,1841.8,1489.5,1840.83,1491.77Z"/><path class="cls-19" d="M1733.89,1299.58a542.9,542.9,0,0,1-39.69-47.94,25.79,25.79,0,0,1-4.42-8.25l46.54,56.38c.88-1.53.12-2.56-.42-3.61-1.24-15.62-7.08-29.68-15.21-42.79-8.59-13.86-17.78-27.33-26.48-41.11a162.3,162.3,0,0,1-17.66-38.38,8,8,0,0,1-.69-3.86l1.12-.39c6,17.13,13.39,33.57,23.76,48.56.76,1.09,1.3,2.62,2.34,3.15,1.29.64.41-.88.69-1.35.14-.65.27-1.31.41-2,1-.06,1.33.31.89,1.25l0,3.93c-.38,2.12,1.29,3.3,2.26,4.75,8.65,13,17.66,25.69,23.87,40.09,9,20.94,10.36,42.65,6.39,64.87-.32,1.8-.54,3.61-.82,5.41-2.11,4.9-2.78,10.41-6.39,14.65,4.05-15.66,7.31-31.42,6.67-47.75C1736.92,1302.56,1736.17,1300.78,1733.89,1299.58Z"/><path class="cls-22" d="M1437.73,906.28c-1.8,1.34-3.86.66-5.79.66q-97.32.13-194.64.21c-1.74,0-3.67-.7-5.23.78-1.83.05-3.66.14-5.49.14Q1094.7,908,962.8,907.9c-1.92,0-4,.68-5.77-.74,24.82-.1,49.64-.26,74.47-.3q61-.09,122-.08c7.16,0,14.31-.4,21.46-.41q61.18-.06,122.35,0,68-.08,136-.25C1434.74,906.09,1436.24,906.22,1437.73,906.28Z"/><path class="cls-3" d="M319.16,1838.83c1.26-2,3.26-1.1,4.94-1.17,9.66-.35,19.35.56,29-.51,1.71-2.13,4.18-1.86,6.46-1.86q93.22-.09,186.46,0a15,15,0,0,1,4.94.58c1.26.6,2.36,1.3,1.75,3-27.61.07-55.22.21-82.83.21q-72.61,0-145.23-.15C322.82,1838.91,321,1838.86,319.16,1838.83Z"/><path class="cls-23" d="M1770.91,1596.74l61-42.83c-4.71,6.08-10.88,10.38-16.82,14.91-12.68,9.68-26,18.44-39.43,27-2.22.46-3.07,2.27-4.07,4a200.08,200.08,0,0,0-17,37.33c-1.64-2.44.71-4.67.39-7C1759.68,1618.72,1764.14,1607.18,1770.91,1596.74Z"/><path class="cls-24" d="M1676.22,1166.12c-2.62-2.89-3.66-6.49-4.52-10.15-6.15-29.46-5.08-58.62,3.9-88.89.49,5.07-1.08,8.37-1.8,11.75a181.48,181.48,0,0,0,2,84.84C1676,1164.47,1676.08,1165.3,1676.22,1166.12Z"/><path class="cls-25" d="M1715,1524.06c-.34-.5-.67-1-1-1.52,4.81-14.45,9.17-29,14.92-43.17,3.28-8.06,6.35-16.22,11.28-23.61q-12.36,34.1-24.73,68.2Z"/><path class="cls-26" d="M264,1837.32l-1,1.68H145.14v-1.29c18.49,0,37,0,55.46,0C221.73,1837.64,242.86,1836.69,264,1837.32Z"/><path class="cls-27" d="M1672.89,1167.83c-13.22-16.47-25.91-33.33-37.22-51.19a10.44,10.44,0,0,1-2.07-5.57c1.33,1.71,2.72,3.38,4,5.13q18.2,25,36.35,50c.84,1.16,2.24,2.1,2,3.85Z"/><path class="cls-28" d="M1859.86,1440.14c-1.57-1-.5-2,0-3q16-29.33,32-58.62a26.24,26.24,0,0,1,1.63-2.29c.53,2.74-1,4.49-1.88,6.31-8.64,18-17.73,35.74-28.49,52.58a32.63,32.63,0,0,0-1.69,3.58Z"/><path class="cls-13" d="M552.71,1838.85c-.23-.61-.45-1.23-.68-1.84-.57-2.19-2.28-4.49.61-6.36,2,.57,3.76.76,3.1-2.31a1.72,1.72,0,0,1,.91-2.08c1.29-.39,2.49-.41,3.39.82.41.87,1,1.65.54,2.75-1.94,4.31-.23,5.63,3.91,4.39,3.89-1.17,1.44,4.93,4.68,4,2.45-.73,4.76-2.06,5.86,1.62Z"/><path class="cls-29" d="M331,464.13l1-1c11,2.55,22,5,32.61,8.95-9.94-.87-19.28-4.44-29-6.44C334.08,465.31,332.28,465.41,331,464.13Z"/><path class="cls-30" d="M1334.92,507c-2.82,2.21-6.33,1.2-9.48,1.92a152.19,152.19,0,0,0-19.48,5.73c-1.13.42-2.2,1.54-4.24,0,11-4.36,21.6-8.19,33.26-7.58Z"/><path class="cls-31" d="M1147.44,877.86l9.61,9.93a29.38,29.38,0,0,1-10.25-9.42A.55.55,0,0,1,1147.44,877.86Z"/><path class="cls-32" d="M1335,507.08c4.32-2,8.75-.82,13.15-.62a55.67,55.67,0,0,1-13.21.53Z"/><path class="cls-33" d="M1276.76,530.83a15.71,15.71,0,0,1,8.3-5.26l-7.85,5.76C1277.07,531.16,1276.91,531,1276.76,530.83Z"/><path class="cls-33" d="M1300.55,516.7l-7,3.52C1295.13,517.54,1297.81,517,1300.55,516.7Z"/><path class="cls-34" d="M669.29,801.76c1.6-8.89.27-17.88,1-27.2,2.86,1.07,3.78,3.8,5.23,5.74q30.24,40.58,60.2,81.36a10.81,10.81,0,0,0,6.82,4.44q54.3,12.48,108.54,25.16c22,5.13,43.89,10.39,65.84,15.57,1.59.38,3.4.26,4.22,2.13,0,2.8-2.39,3.89-4.07,5.3-31.8,26.62-63.45,53.39-95.3,79.94-3,2.53-5.9,5.26-9.26,7.83,2,1,3.71.56,5.3.57q49.22,0,98.44.06c2.56,0,5.4-.83,7.51,1.55,0,3.16-.1,6.33-.1,9.49q0,162.54,0,325.09c-1.28,1.19-2.86.64-4.29.64q-26.2,0-52.4,0C856,1339,856,1339,856,1349.64q0,80.14,0,160.31c0,2-.11,4-.16,6-2.69,2.39-6,1.66-9.08,1.66q-82.92.08-165.84,0c-12.09,0-11.21-.66-11.22,11q0,134.36,0,268.73a112.77,112.77,0,0,0,.32,11.48c.24,2.35.15,4.66-1.33,6.68-3.3,2.61-5.82,0-8.53-1.27a16.25,16.25,0,0,0-3.36-1.62c-4-1.9-8.44-3-12-6a4.45,4.45,0,0,0-3.51-1.58c-4.8-1.37-9.48-3-13.25-6.45a14.92,14.92,0,0,1-1.35-2c-2.43-5.49.67-11-.08-16.49,0-.84,0-1.67.12-2.5,1-4,.66-8.07,1.11-12.08.47-2.26,2-3.64,3.78-5a15.29,15.29,0,0,0,6.1-13.32c-.11-3.77-1.23-5.79-5.38-4.16a1.64,1.64,0,0,1-1.8-.47c-1.14-2.66-1.43-5.22,1-7.43q3.26-34.27,6.5-68.56,4.37-46.49,8.69-93,4.2-45.48,8.32-91,4.32-47,8.67-94,4.18-45.49,8.28-91,4.72-52.47,9.36-104.93c2.83-31.66,5.78-63.3,8.47-95,2.92-34.33,4.78-68.77,8.59-103,4.46-40.07-4.46-77.26-20.76-113.3-2.25-5-4.95-9.77-7.45-14.64q-.74-29.4-1.46-58.79C668.72,806,667.82,803.79,669.29,801.76Z"/><path class="cls-5" d="M666.7,1816.14a6.52,6.52,0,0,0,1.72-6.79,20.47,20.47,0,0,1-.37-5.44q0-140.49,0-281c0-7,0-7,6.83-7l181,0c0,.83.16,1.66.16,2.49l0,318.36-149.27.13c-2.17,0-4.33.11-6.49.16l-1.32-.17c-9-5.79-18-11.64-27.51-16.68C669.6,1819.26,667.31,1818.58,666.7,1816.14Z"/><path class="cls-3" d="M866.89,1339.44l49.74-.48c2.32,0,4.63-.11,7-.17,15.16,0,30.32.07,45.48.07H1381c6.66,0,13.32,0,20-.06l82.83.39c-1.14,1-2.53.64-3.83.65l-44.37.36c-30,.21-59.94.55-89.91.51-5,0-6,1.51-5.94,6.18q.36,181.93.43,363.87c0,38.65-.21,77.3-.33,116a3.72,3.72,0,0,1-1,3c0-6.41,0-12.81,0-19.22,0-11.33,0-22.65-.13-34q-1.31-154.42-.44-308.85c.23-40.46-.12-80.93.89-121.39.11-4.48-1.21-5.52-5.57-5.51q-90.46.29-180.93.22c-7.33,0-14.67.13-22-.2-3.88-.18-4.7,1.24-4.69,4.85.13,32,0,64,.18,96,0,4.34-1,5.64-5.5,5.59q-31.23-.37-62.47,0c-4.62.06-5.43-1.46-5.41-5.67.16-31.82,0-63.64.18-95.46,0-4.16-1.11-5.32-5.28-5.29-28.16.17-56.32.52-84.47,0-31-.6-61.94-.5-92.91-.87A31,31,0,0,1,866.89,1339.44Z"/><path class="cls-3" d="M1126.08,1783c0,16-.09,32,.08,48,0,3.61-.79,4.92-4.68,4.88q-32-.27-64,0c-3.89,0-4.69-1.27-4.67-4.88q.18-48.24,0-96.48c0-3.58.78-4.93,4.67-4.9q32,.27,64,0c3.89,0,4.7,1.32,4.67,4.9C1126,1750.68,1126.08,1766.85,1126.08,1783Z"/><path class="cls-35" d="M1447,1751.78c0,8-.11,16,0,24,.06,3.07-.61,4.48-4.1,4.44-14.33-.17-28.66-.13-43,0-2.82,0-3.81-.91-3.8-3.73q.14-24.74,0-49.49c0-2.76,1.06-3.88,3.84-3.86q21.49.09,43,0c3,0,4.08,1.19,4,4.18C1446.87,1735.45,1447,1743.61,1447,1751.78Z"/><path class="cls-12" d="M1534,1836.78l-32.9,0q0-37.44.07-74.87c.55-.38,0,.22.4-.29,7.4-9.33,17.69-5.93,27.14-6.1,2.92,0,4.46,1.82,4.73,4.74.17,2,.16,4,.16,6,0,19.26.13,38.52-.09,57.77C1533.41,1828.33,1535.4,1832.49,1534,1836.78Z"/><path class="cls-12" d="M1534,1836.78c-1.78-4.56-2.08-9.28-2-14.15.12-19.78,0-39.56,0-59.34,0-6.36,0-6.36-6.59-6.36-3.82,0-7.65,0-11.47,0-3.11,0-6.6-1.12-7.71,3.78-.39,1.7-2.9,2.68-5.06,1.24v-10c1.79,1.23,3.82,1,5.8,1,7.83,0,15.67.24,23.48-.09,4.33-.19,5.7,1,5.67,5.51-.22,26.14-.1,52.29-.1,78.43Z"/><path class="cls-34" d="M553,1830.76c-2.27,1.79.94,4.4-.93,6.25l-192.42.1c-2.17,0-4.34,0-6.5,0h-31c2.85-2.77,5.12-4.41,7.89-5.35,7.3-2.48,14.85-1.36,22.26-1.22,6,.11,9.83-1.49,11.7-7.49,1.09-3.46,3.31-6.52,4.71-9.9s3.46-5.4,7.3-5.82c5.25-.58,3.22-4.89,3.51-7.85.33-3.42-1.92-4-4.77-4.16-4.54-.34-9.31,1.35-13.59-1.43q8.78-30.12,17.54-60.26c.46-1.59.81-3.21,1.21-4.81a40,40,0,0,1,6-19.8q10.66-40.24,21.34-80.49,40-151.62,80-303.24,31.87-120.75,63.78-241.51c.2-.77.53-1.51,1-2.72,0,12.82.14,25.1,0,37.38-.39,27.47-1,54.94-1.42,82.4q-1,60.94-2,121.88-.83,49.44-1.69,98.89L544.58,1558q-.84,49.44-1.7,98.89c-.4,22.31-.79,44.61-1.35,66.92-.09,3.65.56,5.54,4.76,5.34,3.29-.16,6.61.56,9.92.89,2.69,5.13,1,10.61,1.32,15.94-1,13.7-.37,27.47-1.56,41.16a59.72,59.72,0,0,0-.3,7.44c.47,11-.9,21.84-1.25,32.76A4.21,4.21,0,0,1,553,1830.76Z"/><path class="cls-1" d="M313,1621.93c-9.81,0-19.62-.1-29.43.11-3.47.07-4.79-1-4.53-4.53.89-12.36,2.13-24.69,4.17-36.9,3.72-22.32,10.09-43.87,20.14-64.23,2.51-5.09,2.6-5.13,6.51-1.13,5.17,5.29,11.24,7.92,18.72,6.77a2.38,2.38,0,0,1,2.59,1.07c-2.73,15.51-5.42,31-8.22,46.54-3,16.66-6.1,33.3-9.17,49.94A18.62,18.62,0,0,1,313,1621.93Z"/><path class="cls-2" d="M556.1,1745.92q0-8,.11-15.89l48.55,3.4c8.93.62,17.85,1.21,26.77,1.82-.11,2.45-.21,4.89-.31,7.34-.12,3.76-.42,7.4-5,8.6-6-1.2-12.25-1.33-18.31-1.49-15.6-.39-31.15-1.37-46.72-2.22C559.37,1747.39,557.54,1747.29,556.1,1745.92Z"/><path class="cls-2" d="M385.91,1709.06q-3,9.9-6,19.8c-10.53-1.88-21.05-3.85-31.59-5.64-13-2.2-26-4.26-39.05-6.38,1.55-8.27,1.55-8.26-7-8.3-1.12,0-2.24-.16-3.35-.24,14.76-.89,29.46.92,44.21.59C357.38,1708.58,371.65,1709,385.91,1709.06Z"/><path class="cls-36" d="M555.26,1074c12-66,25.68-131.56,40.49-196.94Q577.59,975.92,555.26,1074Z"/><path class="cls-1" d="M303.91,1671.93c-1.77,1.25-3.8,1-5.79,1-29.6,0-59.21,0-88.82-.06a87.09,87.09,0,0,1-13.19-1.51c18-2.59,36.08-1.14,54.11-1.38s35.93,0,53.89,0Z"/><path class="cls-37" d="M923.73,1004.21q-39.47-.11-78.93-.21c-11.77,0-23.55,0-36.76,0l113.07-95c1.4-.37,2-2.44,3.92-1.76-1.36,1.92-1.09,4.11-1.09,6.26q0,42.39,0,84.77C923.93,1000.23,923.8,1002.22,923.73,1004.21Z"/><path class="cls-38" d="M1021.17,1034q167.3,0,334.59,0c4.2,0,8.61-1,12.28,2.57.89.87,3.19.3,4.85.4.29.23.39.46.28.69s-.2.33-.3.33c-2.5,0-5-.12-7.5-.12q-168,0-335.94,0C1025.9,1037.94,1022.73,1037.82,1021.17,1034Z"/><path class="cls-38" d="M982,961c-.76,2.72,2.55,3,3,5l0,0c-2.62.64-3.93,3.07-5.37,4.82-1.22,1.49-3.08,5,1.84,5.48,2.44.23,2.35,3,3.74,4.29,1.23,1.15,2.36,3.4,4.46,1.63,1.59-1.34,1.14-2.76-.64-4a1.94,1.94,0,0,1-.07-3.37c1.33-.92,2.14.57,2.75,1.39,2.52,3.35,3.95,7.67,8.84,9.2-2.17,1.66-4.83.37-6.67,2.15A6.19,6.19,0,0,0,992,993c.18,2.28,1.74,1.17,2.92,1.33,1.87.26,2.54,1.73,3.07,3.44,1,3.14,2.16,6.24,4.78,8.46.73.63,1.77,1.65,2.43,1.49,4-1,5.77-.94,3.14,3.83-.73,1.32,2,2.19,3.66,2.35,1.28.13,2.49-.65,3.88,0,1.83.85,2.06,2.48,2.48,4a1.7,1.7,0,0,1-.85,2.13c-1.57.53-2.22-1-3.23-1.78a18.22,18.22,0,0,0-2.93-1.16c2.62,3,1.93,6.84,6.89,6.46,2.49-.19,4.05,6.65,2.58,9.63-10.39-11.68-19.58-24.31-29.31-36.52-21.32-26.76-42.45-53.68-63.65-80.54-.27-.35-.38-.83-.09-1.74l25.44,22.73c.37-2.06-1.6-2.34-1.71-4.74Z"/><path class="cls-16" d="M1372.87,1038c0-.34,0-.68,0-1l-.06-6a6.46,6.46,0,0,1,.12-8v-2c-.45-2.33-1.86-4.66,0-7l.36-4.59c2.84,13.41.33,26.09.68,38.74.39,13.81.07,27.65.12,41.48,0,1.77-.56,3.68.69,5.31.06,2.16.17,4.33.17,6.49q-.07,95-.17,189.94c0,2.16.08,4.32.13,6.49-1.41,9.73-.36,19.55-1,29.31a4.51,4.51,0,0,1-.93,2.95V1045C1373,1042.69,1372.9,1040.35,1372.87,1038Z"/><path class="cls-3" d="M1224.71,1106.69a11.64,11.64,0,0,1,11.27,11.58c-.07,6-5.65,11.53-11.54,11.5-6.16,0-11.61-5.74-11.46-12A11.5,11.5,0,0,1,1224.71,1106.69Z"/><path class="cls-39" d="M1080.68,1118.13a11.22,11.22,0,0,1,11.24-11.43,11.65,11.65,0,0,1,11.69,11.17c.12,6.18-5.54,12-11.69,11.89A11.65,11.65,0,0,1,1080.68,1118.13Z"/><path class="cls-27" d="M1223.87,1204.69c-11.77-29.62-32.12-47.38-63.67-50.27-26.16-2.4-49.78,13.37-67.73,44.15,1.77-21.26,36-46.35,64-46.56C1194,1151.73,1220.36,1182.45,1223.87,1204.69Z"/><path class="cls-4" d="M1731.14,1592.13c.76,4.55,2.08,9.06,1,13.75-2.33-.17-3.24-2.12-4.47-3.62-9.75-11.87-19-24.11-27.71-35.33,10,13.35,20.94,27.47,32.21,41.32a18.9,18.9,0,0,1,1.77,3,7.67,7.67,0,0,1,1,4.63c-22.9-14.08-42.32-31.13-50.11-58.22a45.24,45.24,0,0,1-2-12.55c0-3.34,1.33-3.75,3.88-2.18a76.51,76.51,0,0,1,10.62,8.09c12.28,11,21.43,24.53,30.22,38.31C1728.46,1590.62,1728.51,1593,1731.14,1592.13Z"/><path class="cls-40" d="M1748.21,1656.52c1.71-4.34-.3-8.46-.89-12.61-2.93-20.66-6.11-41.28-8.57-62a382.27,382.27,0,0,1,11.51,72.1l0,8.47c1.37,4.15,1.45,7.65.35,14.12,1.38-7.19,4.52-13.77,7.07-20.54,2.63-7,5.53-13.9,8.62-20.71,2.47-5.45,4.68-11,7.63-16.23.93-1.65,1.75-4.76,3.77-3.83,2.29,1,.78,3.9,0,5.82-3.5,8.63-6.85,17.31-10.55,25.85-5.41,12.48-9.45,25.56-16.24,37.44-2.12,5.31-1.46,11.14-3.09,16.53h-.49l-.49,0A183.3,183.3,0,0,0,1748.21,1656.52Z"/><path class="cls-12" d="M1703.71,1453v26A81.55,81.55,0,0,1,1703.71,1453Z"/><path class="cls-12" d="M1710.08,1517.9a14.61,14.61,0,0,1,1.67,6.06C1707,1523.1,1708.7,1520.46,1710.08,1517.9Z"/><path class="cls-1" d="M1573.51,395c-6.81,0-13.63-.15-20.44.06-3.74.12-5.12-1.57-5.11-5,0-6,.27-12-.1-17.94-.26-4.4,1.56-5.81,5.47-5,9.06,1.82,18.21.42,27.3,1,4.53.29,8.88-.87,13.34-1.12,3-.16,4.53,1.27,4.66,3.84.35,6.93.89,13.87-.35,20.81-.49,2.72-1.71,3.49-4.33,3.43C1587.14,394.93,1580.32,395,1573.51,395Z"/><path class="cls-1" d="M1573.49,360.07c6.83,0,13.66,0,20.5,0,2.14,0,4,0,4,3s-1.93,3.23-4,2.93c-9.6-1.35-19.25-.69-28.87-1-4.39-.15-8.56,1.19-12.88,1-1.65-.06-4.17.8-4.11-2.14.06-2.56,1.9-3.77,4.39-3.78,5.66,0,11.33,0,17,0Z"/><path class="cls-1" d="M307.15,1724c-.34,2-.69,3.9-1,5.85a3.31,3.31,0,0,1-4,2.31c-7.86-9.4-15.67-18.85-23.6-28.19-2.23-2.64-4.33-3-6.8.35-6.16,8.22-12.67,16.16-19,24.22-2.57,3.25-4.41,3-7.29-1-5-7-9.77-14.22-14.77-21.25-4.33-6.1-4.61-6.2-9.72-.61-6.37,7-12.24,14.43-19,21.06-1.36,1.32-1.8,4.32-4.12,3.72s-2.59-3.46-3.43-6c3.08,3.42,5.22,1.89,7.38-.67,6.73-8,13.63-15.83,20.29-23.87,3.3-4,4.76-4,7.82.2,5.62,7.8,11.44,15.46,16.9,23.38,2.39,3.47,4,2.56,6-.07,6.26-8.15,12.56-16.26,18.8-24.41,2.05-2.68,3.93-3.85,6.59-.54,5.51,6.84,11.19,13.54,16.81,20.29,1.06,1.27,2.08,2.58,3.23,3.78,2.16,2.26,4.26,5.37,7.3.83C305.86,1722.88,306.72,1723.45,307.15,1724Z"/><path class="cls-41" d="M302.15,1732.18l4-2.31c5.89,1.25,8,6.56,11.12,10.71,2-2.2,3.75-4.39,5.76-6.29s4.37-3.44,7.12-1.6c2.91,2,2.44,4.94,1.45,7.65-3,8.15-14.07,11.32-21.83,6.2-2-1.35-3.67-3.32-5.49-5C301.51,1738.87,302.47,1735.38,302.15,1732.18Z"/><path class="cls-42" d="M295.07,1780c11.43-.12,17.74,1.93,23.78,8.47-8.67-3.69-16.18-7.08-24.61-6.57C293.12,1780.63,294.62,1780.53,295.07,1780Z"/><path class="cls-43" d="M301.11,1752.86c8.84-2.17,17-1.6,23.69,5.82-7.78-4-15.75-6.39-24.44-3.75C298.47,1753.47,300.84,1753.54,301.11,1752.86Z"/><path class="cls-4" d="M248.24,308.41c0-2.78,2.86-6.1,7.51-6.3,4.82-.22,9.66-.26,14.48-.14,5,.12,8.12,3.62,7.59,8.47q-3.22,29-6.62,58c-.7,5.93-4.58,9.51-9.7,9.38-5.39-.13-9.07-4.11-9.46-10.23C250.81,348.51,249.59,329.42,248.24,308.41Z"/><path class="cls-4" d="M277.41,406.26A14.35,14.35,0,1,1,263,391.7,14,14,0,0,1,277.41,406.26Z"/><path class="cls-9" d="M534.23,529.15c-1.24-4.59-3.8-8.51-6.54-12.26-4.91-6.71-5.83-13.94-3.42-21.74a44.06,44.06,0,0,1,2.11-6.11c6.26-13,5.13-25.64-.78-38.39-7.48-16.13-11.21-33-8.57-50.83.24-1.61,0-3.33,1.48-4.87,4,5.67,9,10.31,15.54,12.76,11.12,4.12,18.86-1.23,19-13,0-.66,0-1.33,0-2.81,2.44,2.8,4.37,5.15,6.44,7.36a14.31,14.31,0,0,0,9.51,4.89c8.29.66,12.83-4.3,11.48-12.57-.15-1-.23-2-.37-3.16,7.5,5,13.76,14.26,24.38,5.76,4.34,8.68,5,18.17,6.39,27.45,2.68,18.58,5.46,37.16,6.58,55.93.77,12.82-1.07,25.19-7.7,36.5-2.6-.77-2.54-3.19-3.13-5.15-.66-2.15-1.34-4.29-4.07-4.26s-3.91,2.2-4.43,4.57c-1.19,5.36-.62,10.9-1.61,16.29-.39,2.1-.32,4.32-1.84,6.08-2.37,1.78-4.45,4.51-8,2.51-1.42-3-.57-6.18-.34-9.27s.58-6-.49-8.85c-.72-1.93-1.78-3.66-4.13-3.79s-3.4,1.67-4.07,3.64a74.35,74.35,0,0,0-3.69,16c-.49,4.37-2.69,6.52-6.89,6.18-9.39-.77-18.82-1.48-27.86-4.52C537,532.65,534.73,531.92,534.23,529.15Z"/><path class="cls-44" d="M594,531.11a48.47,48.47,0,0,0,2-14.64,27.11,27.11,0,0,1,1.09-8.84c.78-2.55,2.36-4.36,5.23-4.56,3.13-.21,4.42,2,5.29,4.4.78,2.15.83,4.55,2.13,6.55-1.64,7.68-.17,15.56-1.49,23.3-1.14,6.7-1.7,13.5-2.46,20.27-.12,1-1.2,2.68.5,2.9,1.85.25,1.6-1.72,1.69-2.93A204.72,204.72,0,0,1,612.11,528c1-4.53,2.23-9.06,4.88-13,1.43-2.13,3.27-4,6.14-3.34,3.16.78,3,3.56,3.08,6.07.15,9.39-2.47,18.41-3.72,27.61-.78,5.65-2.3,11.35-.33,18,3.18-6.62,3.89-13.06,5.79-19.12,1.14-3.65,2.1-7.36,4.15-10.64,1.24-2,3-3.28,5.42-2.5s2.58,2.8,2.51,4.89c-.38,10.9-3.37,21.28-6.27,31.68l-.65,2.39c-3.29,9.22-6.6,18.44-9.85,27.68-.56,1.56-.86,3.21-2.17,4.39.11-3.58,1.76-6.71,2.92-10,6-16.9,11.49-33.94,13.87-51.79.3-2.25,1.51-6.08-1.06-6.74-3.4-.86-4.16,3-4.93,5.65-1.71,5.89-3.23,11.83-4.85,17.74a34.92,34.92,0,0,1-1.45,4.76c-.77,1.77-1.48,4.33-3.89,3.8-2.09-.46-2.52-2.87-2.65-4.92-.55-8.37,1.21-16.5,2.51-24.68.88-5.55,1.74-11.11,2.4-16.69.21-1.69.7-4.14-1.61-4.7-2.05-.49-3.22,1.61-4,3.14-3.2,6.13-4.05,12.95-5.21,19.62-1.27,7.33-2.06,14.74-2.93,22.12-.32,2.7-1.61,3.88-4.28,3.6s-3.1-2.25-2.86-4.37c.77-6.9,1.83-13.77,2.44-20.69.82-9.26,1.24-18.56-.26-27.81-.29-1.76-.26-4.11-2.84-3.89s-3.18,2.51-3.22,4.44c-.15,7.15-1.33,14.18-2.15,21.25-1,8.38-2,16.77-4.11,25a5.68,5.68,0,0,1-.55,1.38c-1.05,1.76-1.21,4.79-4,4.46s-2.93-3.1-3.39-5.43c-2.37-12.1-.15-24.17,0-36.26,0-1.81.25-3.66-.68-5.38-.64-1.2-1.23-2.5-2.81-2.48s-2.11,1.26-2.6,2.6c-2.66,7.21-3.52,14.8-4.93,22.28-1.81,9.58-1.73,19.49-4.86,28.83-.91,2.69-1.31,7.09-4.74,6.71-4.16-.46-2.06-4.85-2.36-7.53-.8-7.32,1.42-14.54,1-21.88-.14-2.43.44-5.58-2.9-6s-3.86,2.8-4.26,5.15c-2.47,14.5-6.89,28.75-5.91,43.71-3-5.82-.73-11.81-.44-17.71.1-1.92,1.19-3.8-.5-5.52.27-3.61,1.35-7.09,2.05-10.62.76-3.84-.32-5.73-4-7.11-4.91-1.84-9.85-4-12.32-9.22-.19-2.59-.37-5.19-.56-7.78,5.07,4.37,11.63,4.39,17.65,5.75a106.28,106.28,0,0,0,15.24,1.87c4.31.34,5.72-2.58,5.88-6.29.21-4.86,1.76-9.42,3.09-14,.79-2.76,1.93-5.54,5.57-5.37s4.89,2.86,5.85,5.86a12.16,12.16,0,0,1,.29,6.9c-1,3.47-.7,6.91-.67,10.39,2.15,2.79,1.19,6,1.32,9.12.16,3.8,0,7.61.18,12.61a139.34,139.34,0,0,0,3.15-15.78C592.23,537.1,592.18,533.86,594,531.11Z"/><path class="cls-45" d="M457.62,587.31c2.22-6.22,5.76-11.88,7.28-18.33,2.35-10,3.8-20,2.34-30.49-2.89-20.83,2.67-39.42,16.35-55.64,4.15-4.92,7.51-10.53,11-16,8.26-12.83,7.59-26.84,4.86-41-4.38-22.72-.89-43.78,12.63-62.86a24.36,24.36,0,0,1,1.85-2.34,28.56,28.56,0,0,1,2.58-2c-3.11,5.85-6.33,10-8.73,14.64-8.36,16.25-9.54,33.29-6.15,50.87,2.51,13,4,25.94-2,38.48a126.27,126.27,0,0,1-15.21,23.34c-11.32,14.29-17.73,30.17-15.2,48.51,2,14.6-.05,28.41-5.23,41.95C462.5,580.45,460.91,584.4,457.62,587.31Z"/><path class="cls-9" d="M534.79,536.93c4.86,4,9.8,7.77,16.1,9.24,1,.24,2.09,1,1.94,2-.83,5.35-.08,11.11-3.8,15.76-5.9,0-11.63,2-17.58,1.5C530.42,555.65,533.7,546.42,534.79,536.93Z"/><path class="cls-46" d="M396.59,666.89c3.6-.2,6.46-2.38,9.64-3.68,26.25-10.72,53.44-15.67,81.83-13.39-8.4.67-16.81,1.27-25.2,2-21.69,1.95-42.45,7.65-62.62,15.7-1.69.67-3.45,1.17-5.18,1.75Z"/><path class="cls-47" d="M661.43,836.25q-84.87,38.21-177.28,27A395.29,395.29,0,0,0,661.43,836.25Z"/><path class="cls-25" d="M669.29,801.76c-.18,2.14-.37,4.28-.55,6.42-1.61-6.23-.66-12.58-.7-18.86-.32-46.49-7.13-92.1-18.38-137.12-.36-1.43-1-2.81-.17-5.14a487.73,487.73,0,0,1,19.73,115Z"/><path class="cls-48" d="M661.54,781.24c-32.12,14.06-65.48,19.29-100.27,14.38C595.63,797.45,629,792.35,661.54,781.24Z"/><path class="cls-49" d="M598,701a6.71,6.71,0,0,1-.13-1c19.41.33,38.78-.49,58.14-1.72C636.87,702.63,617.52,703.08,598,701Z"/><path class="cls-50" d="M617.1,620.87a1.46,1.46,0,0,0,0-.59,151.6,151.6,0,0,0,42.52-16.92C647.28,613.56,633.48,620.33,617.1,620.87Z"/><path class="cls-51" d="M658.42,670.65c11-6.14,21.6-12.76,32.14-19.56A69.53,69.53,0,0,1,658.42,670.65Z"/><path class="cls-52" d="M1462,1268.54c0,8-.11,16,0,24,.07,3-.48,4.43-4,4.38-14-.2-28-.16-42,0-3.06,0-4-.89-4-4q.2-24.24,0-48.47c0-3.44,1.27-4.2,4.38-4.17,13.82.11,27.65.14,41.48,0,3.34,0,4.22,1.06,4.14,4.29C1461.81,1252.55,1462,1260.55,1462,1268.54Z"/><path class="cls-53" d="M411.52,756.53c12.36-18.82,53.89-43.68,74.76-44.92A191.87,191.87,0,0,0,411.52,756.53Z"/><path class="cls-54" d="M475.38,666.16a233.8,233.8,0,0,0,25.26,62.28A125.55,125.55,0,0,1,475.38,666.16Z"/><path class="cls-18" d="M1750.88,1684.38c5.86-16.79,13.19-33,19.72-49.52,2.49-6.28,5-12.54,7-19a407.51,407.51,0,0,0-27.28,64.77c-1-3.5-.37-6.35-.37-9.16,0-3,.18-6,.27-9,2.58-12.69,4.89-25.44,10.64-37.25,5.48-11.26,12.66-21.09,22.9-28.49,1.58-1.15,3.26-2.93,5.33-1.63,1.87,1.16.93,3.41.75,5.09a110.46,110.46,0,0,1-8,29.76A234.84,234.84,0,0,1,1750.88,1684.38Z"/><path class="cls-38" d="M1120,1005.09h143c.14,2.73-1.14,4-3.88,3.91-.83,0-1.67,0-2.5,0q-64.74,0-129.48,0C1124.21,1009,1120.33,1010.1,1120,1005.09Z"/><path class="cls-38" d="M1020.09,998.87c4,2.67,7.07,7.31,12.91,6.09.42,3.81,3.36,3,5.73,3q33,0,65.91,0c2.65,0,5.3-.08,7.63,1.64-1.25,2.13-3.29,1.33-5,1.33-23.13.06-46.27,0-69.4,0-3.41,0-6.57-.45-9.28-2.8-2.24-2-4.57-1.66-6.68.35-1.17,1.11-2.53,1.94-4,1.05s-.84-2.31-.44-3.6c.2-.62.57-1.57.29-1.89C1014.81,1000.65,1018.22,1000.11,1020.09,998.87Z"/><path class="cls-38" d="M1011.94,999c-.1,2-1.17,3-3.16,3-1.49-.06-2.65-.84-2.6-2.38a3.35,3.35,0,0,1,3.07-3.32C1011.11,996,1011.82,997.3,1011.94,999Z"/><path class="cls-38" d="M1373,1023l-.12,8c-3.63-.58-3.45-3.75-3.64-6.13S1371.46,1023.22,1373,1023Z"/><path class="cls-38" d="M985,966a23.69,23.69,0,0,1,2.59,2.18c.8.89,2.43,1.54,1.77,3.11-.44,1.05-1.68.72-2.62.62-1.81-.21-1.72-1.64-1.76-2.95,0-1,0-2,0-2.92Z"/><path class="cls-38" d="M1372.94,1014c0,2.33,0,4.66,0,7a16.14,16.14,0,0,0-1.89-3.27C1368.12,1014.59,1370,1014.07,1372.94,1014Z"/><path class="cls-7" d="M361.14,1793.93c5.48,0,11,.1,16.45,0,2.59-.05,3.66,1,3.48,3.52a27.72,27.72,0,0,0,0,5c.52,4.53-.35,7.56-6,6.54-2-.37-3.28.51-4.16,2.61-2.3,5.51-5,10.86-7.4,16.31-1.21,2.7-2.95,4.11-6.12,4-9.14-.17-18.28-.11-27.42-.14,7.59-5.72,15.48-11,23-16.84,4.2-3.24,3.66-7.28,5-11.08Z"/><path class="cls-55" d="M348.53,1779.1c-5.11-.21-6.75-2.36-6.56-6.15.17-3.58,2.35-5.74,5.58-5.69s6.35,2,6.13,5.75C353.47,1776.47,351.7,1779.38,348.53,1779.1Z"/><path class="cls-56" d="M285.09,1800c10.15,0,20.67,7.18,24.37,17.15-2.92-2.66-5.54-5.64-8.51-8.25-4.68-4.12-10.65-5.79-15.81-9Z"/><path class="cls-54" d="M276.23,1815.85c10,.29,16.68,6.15,16.48,16.06-3-9.4-9.71-12.87-16.94-15.66Z"/><path class="cls-57" d="M266.49,1833.07c-.46-1.23.62-1,1.2-1.32,7,.38,12.26,3.27,14.88,10.32C278,1837.6,272.82,1834.24,266.49,1833.07Z"/><path class="cls-4" d="M556.1,1745.92q33.92,1.5,67.84,3c1.66.08,2.95.38,3.34,2.21a5,5,0,0,1,1,3.74c0,4.25-1.35,5-5,2.72-3.39-2-6.56-4.6-10.63-5.14-1.34-.18-3.2-.71-3.81,1.27-.47,1.53.83,2.51,1.87,3.22a32.32,32.32,0,0,0,13.66,5.62c1.8.25,3.68.28,4.84,2-.08,4.55.07,9.12-1,13.6-3.69.8-7.37-1.12-10.82-.07,3.52-.41,7.22-.44,10.63,1.56q-.3,8.4-.59,16.81c-2.88,2.38-7.4,2-9.2,5.38,2.89-2,5.79-5,10.33-3.68l13.17,6.29c-1.32,3-4.93,4.27-5.5,7.49,2.2-2.71,3.73-6.74,8.58-6.28l12.37,6.22c.23,3.22-3.33,4.91-3.11,7.83,1.37-2.5,1.64-6.23,5.67-6.94l7,3.34c9.56,5.51,19.53,10.32,28.36,17,1.42,1.08,3.13,1.89,3.84,3.72-12.23-1-24.44-2-36.67-2.88q-33.48-2.48-67-4.84c-11.74-.81-23.49-1.41-35.24-2.1l-4-.11c-.8.77-1.6,1.59-2.82.72.57-18.79,1.11-37.58,1.74-56.36C555.25,1762.86,555.72,1754.39,556.1,1745.92Z"/><path class="cls-8" d="M1213.78,715c19.68.15,36.9,5.88,50.73,20,10.85,11.1,17,24,12.61,39.77-4.52,16.1-16.49,25.11-32,29-18.81,4.76-35.46-1.44-50.46-12.6-18.32-13.65-29.33-32.22-35.44-54-.76-2.71.14-4.2,2.39-5.71C1177.48,720.84,1194.84,715,1213.78,715Z"/><path class="cls-8" d="M1260.47,606.16c24.35.53,46.54,7.15,65.15,23.55,7.89,6.95,13.91,15.29,16.26,25.73,2.71,12.11.93,23.52-8.4,32.25-10.17,9.52-22.64,10.55-35.5,6.62-14.25-4.34-24.85-13.92-33.78-25.38-13.15-16.89-20-36.2-21.29-57.56-.17-2.93.41-4.28,3.58-4.38C1251.14,606.85,1255.76,605.86,1260.47,606.16Z"/><path class="cls-25" d="M1734,1611.25c-13.59-14.64-25.51-30.59-36.74-47.07-.12-.18.07-.58.24-1.75l34.7,43.45C1733.06,1607.56,1734.41,1609.1,1734,1611.25Z"/><path class="cls-43" d="M1705.07,1219.28l-.89-1.25c1.59-23,5.81-45.61,11.3-68,.83,5.41-.8,10.59-1.59,15.82-2.6,17.38-5.45,34.72-8.23,52.07A6.23,6.23,0,0,1,1705.07,1219.28Z"/><path class="cls-13" d="M553.23,1827.69c.87-.52,1.73-1.09,2.82-.72.35,1.83,3.36,3.59.5,5.49-1.56,1-3.22.64-3.59-1.7Z"/><path class="cls-58" d="M629.17,1764.59c-6.63-.78-13.08-2.12-18.75-5.94-2.12-1.43-4.5-3-3.16-5.94s4.32-2.1,6.63-1.53c4.73,1.17,8.59,4.09,12.7,7.67.27-3,.48-5.35.69-7.73q2-4.26,3.94-8.53c5.19-3.15,7.65-1.92,8,4,.36,6.62-2,11.94-7.6,15.64A5.9,5.9,0,0,0,629.17,1764.59Z"/><path class="cls-59" d="M644.76,1805.69c-4.51,1.76-6.89,5.7-9.69,10.36-.86-6.47,2.3-9.37,6.61-11.57C642.78,1804.7,644.79,1802.6,644.76,1805.69Z"/><path class="cls-27" d="M628.51,1798.19c-5,.94-9,3.72-12.73,7.5.3-5.55,4.06-8.41,11.6-9.19C628,1796.91,629.69,1796.59,628.51,1798.19Z"/><path class="cls-60" d="M628,1779.68a60.34,60.34,0,0,0-14.59-.19c4.62-3.88,9.61-3.53,14.78-1.3C628.09,1778.69,628,1779.18,628,1779.68Z"/><path class="cls-25" d="M659.69,1812.8c-3.13,2.91-4.32,6.91-6.35,11.91-1.89-6.11.83-9.49,3.79-12.8C658.11,1811.83,659.32,1811.11,659.69,1812.8Z"/><path class="cls-61" d="M316.17,1742.84c-.26,2.22-.86,3.76-3.18,2.71a14.38,14.38,0,0,1-8.3-9.4c-.41-1.39-.35-2.63,1-3.51s2.32,0,3.16.68A22.57,22.57,0,0,1,316.17,1742.84Z"/><path class="cls-62" d="M330,1736.8c0,4-5.68,9.69-9.32,9.53-2.74-.12-3.1-2.27-2-4.18a19,19,0,0,1,7.11-7.41C328.66,1733.15,329.69,1734.61,330,1736.8Z"/><path class="cls-63" d="M572.77,467.58a61.52,61.52,0,0,1,7.32-2.36c4.44-.81,4.35-2.79,2.37-6.2-6.56-11.34-13.09-22.71-18.56-34.64-.33-.72-1-1.33-.33-2.91,1.8,2.8,3.51,5.24,5,7.81,5.43,9.51,10.85,19,16.14,28.6,3.17,5.76,2,8.13-4.55,9.16C578,467.37,576,468.52,572.77,467.58Z"/><path class="cls-64" d="M594,531.11c-.13,9.43-2,18.53-4.65,28.1-2.81-4.45-3.37-12-2.22-25C589.77,534,591.76,532.25,594,531.11Z"/><path class="cls-64" d="M548.57,422.05a2.24,2.24,0,0,1-2.09,1.95,139.87,139.87,0,0,0-20.25,5.19c-1,.31-2.11.51-2.83-.29s0-1.49.49-2.22c3.48-5.62,17.72-9.18,23.21-5.75A17.68,17.68,0,0,1,548.57,422.05Z"/><path class="cls-65" d="M589.24,407.94a9.84,9.84,0,0,1,2,.14c2.49.67,6.17,1,5.94,4-.18,2.38-3.76,1.52-5.91,1.8-3.42.44-6.85.86-10.28,1.23-.94.1-2.16.43-2.7-.56-.65-1.19.17-2.23,1-3A13,13,0,0,1,589.24,407.94Z"/><path class="cls-66" d="M543.63,439.7c3.25.07,5,1.79,5,4.57s-2,4.58-4.84,4.53-4.74-1.61-4.74-4.6S541.07,439.91,543.63,439.7Z"/><path class="cls-67" d="M594.51,428.81c2.65.2,4.51,1.55,4.5,4.62s-2.15,4.53-4.88,4.48a4.19,4.19,0,0,1-4.44-4.4C589.59,430.38,591.29,429,594.51,428.81Z"/><path class="cls-68" d="M530.45,441.43c4-9.14,15.2-10.68,21.15-3.67C544.17,436.34,537.43,436.34,530.45,441.43Z"/><path class="cls-65" d="M602.51,425.77c-7.92-2.62-14.62-1.1-21.84,3.35C585.31,420,596.5,418.43,602.51,425.77Z"/><path class="cls-69" d="M579.65,1801.1c-2.06,0-4.26-2.16-4.26-5.45s2-5.9,5.93-5.93c3.53,0,5.75,1.74,6.23,5.12C588,1798,584.6,1801.11,579.65,1801.1Z"/><path class="cls-46" d="M629.39,1761.4c0-5.79.17-11.29,3.64-16.11.6-.84,1.35-1.75,2.38-1.35.52.21.79,1.33,1,2.09C637.65,1751.29,634.68,1758,629.39,1761.4Z"/><path class="cls-70" d="M625.91,1762.28a35.39,35.39,0,0,1-16.27-7.87C614.87,1753.19,621.76,1756.53,625.91,1762.28Z"/></g></g></svg>