<svg xmlns="http://www.w3.org/2000/svg" viewBox="0 0 4408.5 2939"><defs><style>.cls-1{fill:#fefefe;}.cls-2{fill:#ececec;}.cls-3{fill:#f5b400;}.cls-4{fill:#2b454e;}.cls-5{fill:#ffc801;}.cls-6{fill:#fe9580;}.cls-30,.cls-7{fill:#fff;}.cls-17,.cls-7{stroke:#000;stroke-miterlimit:10;}.cls-7{stroke-width:7px;}.cls-8{fill:#a8a8a8;}.cls-9{fill:#dcdcdc;}.cls-10{fill:#fd9580;}.cls-11{fill:#1b2e35;}.cls-12{fill:#eaebeb;}.cls-13{fill:#c8c8c8;}.cls-14{fill:#fcc807;}.cls-15{fill:#fcc907;}.cls-16{fill:#fdc807;}.cls-18{fill:#385b64;}.cls-19{fill:#1e3037;}.cls-20{fill:#203035;}.cls-21{fill:#605154;}.cls-22{fill:#f9ca13;}.cls-23{fill:#f9ca12;}.cls-24{fill:#fac90f;}.cls-25{fill:#b5b0b0;}.cls-26{fill:#865b54;}.cls-27{fill:#545659;}.cls-28{fill:#464b4f;}.cls-29{fill:#474649;}.cls-31{fill:#2a373f;}.cls-32{fill:#fcfcfb;}.cls-33{fill:#fb9682;}.cls-34{fill:#524827;}.cls-35{fill:#504c2a;}.cls-36{fill:#574f2a;}.cls-37{fill:#716025;}.cls-38{fill:#5e5529;}.cls-39{fill:#514825;}.cls-40{fill:#5d472d;}.cls-41{fill:#5b5222;}.cls-42{fill:#5d5425;}.cls-43{fill:#54472c;}.cls-44{fill:#4b441f;}.cls-45{fill:#524a25;}.cls-46{fill:#474729;}.cls-47{fill:#5b4528;}.cls-48{fill:#514421;}.cls-49{fill:#4b4622;}.cls-50{fill:#4b4535;}.cls-51{fill:#5e4f29;}.cls-52{fill:#484228;}.cls-53{fill:#48422a;}.cls-54{fill:#48462a;}.cls-55{fill:#4e432a;}.cls-56{fill:#4f402a;}.cls-57{fill:#413d25;}.cls-58{fill:#4a4426;}.cls-59{fill:#494028;}.cls-60{fill:#4c4424;}.cls-61{fill:#453c2c;}.cls-62{fill:#493a2b;}.cls-63{fill:#6d5e20;}.cls-64{fill:#fdfefc;}.cls-65{fill:#f79681;}.cls-66{fill:#f89782;}.cls-67{fill:#382b2e;}.cls-68{fill:#3a454a;}.cls-69{fill:#686c6e;}.cls-70{fill:#4a4e54;}.cls-71{fill:#596469;}.cls-72{fill:#5c6768;}.cls-73{fill:#434d51;}.cls-74{fill:#4b4e51;}.cls-75{fill:#495e5e;}.cls-76{fill:#465152;}.cls-77{fill:#454a51;}.cls-78{fill:#4c5355;}.cls-79{fill:#454d4d;}.cls-80{fill:#4d5357;}.cls-81{fill:#404645;}.cls-82{fill:#4b575c;}.cls-83{fill:#414447;}.cls-84{fill:#42484b;}.cls-85{fill:#1c2e35;}.cls-86{fill:#675b31;}.cls-87{fill:#765a2a;}.cls-88{fill:#645825;}.cls-89{fill:#6a5b23;}.cls-90{fill:#a5831f;}.cls-91{fill:#f9dd81;}.cls-92{fill:#f4da81;}.cls-93{fill:#f9dc73;}.cls-94{fill:#f7e07d;}.cls-95{fill:#f7e191;}.cls-96{fill:#f8e391;}.cls-97{fill:#fae49a;}.cls-98{fill:#f8e390;}.cls-99{fill:#f9e3a9;}.cls-100{fill:#f8e9a6;}.cls-101{fill:#7d544b;}.cls-102{fill:#6b4a44;}.cls-103{fill:#544f4c;}.cls-104{fill:#594b49;}.cls-105{fill:#243337;}.cls-106{fill:#1d2f36;}.cls-107{fill:#3c3f41;}.cls-108{fill:#26333b;}.cls-109{fill:#253138;}.cls-110{fill:#464648;}.cls-111{fill:#493f3c;}.cls-112{fill:#313438;}.cls-113{fill:#6c4b42;}.cls-114{fill:#313235;}.cls-115{fill:#7a7b7f;}.cls-116{fill:#7e6c6d;}.cls-117{fill:#808184;}.cls-118{fill:#8e898b;}.cls-119{fill:#8d8b8c;}.cls-120{fill:#8c8787;}.cls-121{fill:#1c2f35;}.cls-122{fill:#463438;}.cls-123{fill:#29353b;}.cls-124{fill:#c7c7bf;}.cls-125{fill:#1d2f37;}.cls-126{fill:#515458;}.cls-127{fill:#5a5454;}.cls-128{fill:#f9fafa;}.cls-129{fill:#a7a7a8;}.cls-130{fill:#f0f7f8;}</style></defs><title>no-data</title><g id="Layer_2" data-name="Layer 2"><g id="Layer_1-2" data-name="Layer 1"><ellipse class="cls-1" cx="2204.25" cy="1469.5" rx="3117.28" ry="2078.19"/><path class="cls-2" d="M3415.61,2366.35c28.34,4,56.84,6.72,85.18,10.87,23,3.37,46.2,6.07,69.23,9.7,44.61,7,89.19,14.21,133.33,23.94,34.21,7.54,68.4,15.15,101.69,26.24,25.58,8.51,50.16,19,71.23,36.4a26.82,26.82,0,0,1,3.49,38c-6.94,8.46-16.26,13.87-25.75,19-30.7,16.71-64,26.31-97.4,35.5-44.56,12.25-89.92,21.12-135.44,28.38-29.2,4.65-58.34,10.14-87.87,13.09-26,2.59-51.78,8.34-77.83,10.75-20.33,1.88-40.56,4.7-60.8,7-23.62,2.68-47.38,4-71,7.39-13.79,2-28,3.06-42.09,4.11-16.91,1.26-34,1.6-50.69,5a20.54,20.54,0,0,1-5.83.51c-19.6-1.73-38.88,2.55-58.33,3.54-28.14,1.43-56.29,3.67-84.42,5.76-32.53,2.42-65.18,3.39-97.58,6.29-21.78,2-44-1.24-65.41,4.89a4.46,4.46,0,0,1-1.46.07c-25.44-1.84-50.61,3.24-76,3-37.6-.36-75.14,2.45-112.65,3.85-27.78,1-55.76-.55-83.31,2.45-39.08,4.24-78.19.13-117.12,2.79-81.59,5.58-163.3-.4-244.81,3.29-43.48,2-87,4-130.3,1.77-84.57-4.3-169.18.66-253.62-3.09-40.07-1.78-80.18.5-120-2.76-28.35-2.33-56.75.05-84.78-2.95-25.92-2.78-51.84-.05-77.46-2.82-24.41-2.64-48.9-.41-73-3.06-19.54-2.13-39-1-58.4-2.62-34.46-2.95-69-4.2-103.5-6.08-29.61-1.61-59.2-4-88.82-5.86-26.18-1.67-52.42-3.5-78.51-6-27-2.58-54.21-4.16-81.23-7.49-14.81-1.83-30.09-2.48-45-4.14-14.44-1.61-29.08-1.43-43.42-4.65-10.87-2.44-22.25-2-33.37-3.14-36.24-3.7-72.41-8-108.5-12.73-48.11-6.27-96-14-143.84-22.36a1326.73,1326.73,0,0,1-135.09-30.4c-28.51-8.1-57.11-16.65-82.38-33.31-7.51-4.95-13.71-11.06-19.54-17.56-8.16-9.1-7.81-15.67-1.61-26.36,5.93-10.22,15-16.74,24.77-22.2,23.11-12.88,47.83-22,73.18-29.44,43.9-12.94,88.67-22.16,133.49-31.17a284.75,284.75,0,0,1,28.84-4c4.67-.45,8.7-1.11,11-5.7,4.8-4.17,9.23-.94,13.53.9,76.67,32.77,154.26,63.24,231.94,93.47,23.62,9.19,29.36,5.06,29.88-20.39.43-21-10.92-35.72-25-49.18a39.66,39.66,0,0,1-3-3.1c-8.44-12.07-19-22.23-29.22-32.77-3.67-3.79-10-7.27-5.55-14.5a37,37,0,0,1,11.1-4.71c39.55-7.06,79.68-8.5,119.53-12.59,56.87-5.84,113.87-10.65,170.93-13.65,23.67-1.25,47.38-7.52,71.31-2.31,6.36,22.23,4.54,45.29,6.22,68,1,14.1,2.57,28.14,3.83,42.22,1,11.75,7.35,16.23,19.11,17.41,48.73,4.92,97.56,1.73,146.32,2.81,9.13.21,18.88-1.19,25.61,7.49,7.14,14.32,6.79,30.41,10.5,45.55,2.42,9.85,7.2,14.3,17.08,14.12,5.38-.09,10.77.1,16.15.1q864.66,0,1729.33,0c8.75,0,17.64,1,26.11-2,2.88-1.7,4.1-4.52,5-7.57a28.5,28.5,0,0,0,1.69-11.25c4.55-35.1,12-69.68,18.4-104.45,1-3.65,2.35-7.23,2.39-11.1a164.44,164.44,0,0,1,4.55-22A7.35,7.35,0,0,1,3415.61,2366.35Z"/><path class="cls-3" d="M3386.49,2519.35c-.46,2.73-.91,5.47-1.36,8.2-11.24-4.46-11.18-15.22-12.93-24.43-9.9-51.89-18.5-104-28.14-155.95q-20.23-108.91-39.31-218c-12.8-73.2-27.51-146.08-38.63-219.56,3.31-6.79-.84-12.07-3.69-17.66-21.13-108.57-39.57-217.58-59.32-326.37-25.52-140.55-50.64-281.18-76.2-421.72-2.93-16.09-4.66-17.38-21.23-17.74-5.38-.11-10.76,0-16.15,0H1890c-13.22,0-26.44.12-39.59-1.27a15.05,15.05,0,0,1-4.88-1.64A5.65,5.65,0,0,1,1843,1119c0-4,.54-8,.43-12,3.91-30,8.33-59.91,15.37-89.36,1-3.63,2.31-7.22,2.14-11.08.33-7.45.81-14.88,4.6-21.59a7.06,7.06,0,0,1,3.18-2.61c7.63,2,8.23-5,10.88-9,3.07-4.59,5.92-9.36,8.24-13.27-7.38,4.78-5.59,18.67-17.85,20.56a11,11,0,0,1-2.2-6.13,24.77,24.77,0,0,1,.71-6.81c2-6.11.93-12.5,1.81-18.73,1.28-7.55,2.36-15.13,4-22.61,2-9,6.75-14.63,16.67-14.44,19.61-3.11,38.82,2.52,58.25,2.55,94.38.12,188.82,2.16,283.12-.64,69.86-2.08,139.66-.78,209.48-2,6.82-.12,13.7-.54,20.46.92,10.21,3.86,8.43,12.9,9.06,20.91-.3,4.94-.32,9.87,1.33,14.66a60.13,60.13,0,0,1,1.3,11.89c.06,7.77-.83,15.6,1.69,23.2a69.56,69.56,0,0,1,1.26,14c-.2,5.38-.12,10.73,1.67,15.91,1.17,5.33,1.2,10.75,1.28,16.16a36.55,36.55,0,0,0,1.66,13.42c2.3,6.79-1.41,15.67,7.23,20.2a18.2,18.2,0,0,0,5.77,1.21c2.93.12,5.87.14,8.8.11,210.12-2,420.22,2.44,630.33,3,67.88.18,135.64-4.64,203.51-3.11a31,31,0,0,1,8.39-.13c27.82.68,55.66.16,83.47.24,4.7-.12,9.37-1.47,14.11-.59,4.92,1.61,6,7,10.37,10.3-4.54-6-4.22-10.22,3.27-12,57.55-2.24,115.08-1,172.6-.67,13.17.07,17.49,5.39,16.11,18.73-1.51,14.51-3.94,29-8.35,42.92-2.32,6.2-8.44,7.77-16,10.91,6.21-.34,9.41.36,11.19,4,2.58,10-.2,18.92-5.21,27.43-6.81,26-9.88,52.68-14.7,79-10.71,58.5-20.94,117.09-31.27,175.66Q3557.06,1557.14,3533,1694c-3,16.8-6.31,33.52-9.49,50.28-1.36,2.64.36,6-2,8.42q-2,12-4.09,24c-.83,2.92.15,6.17-1.58,8.93.4,7.06-1.3,13.74-3.75,20.28-2.15,3.73.23,8.27-2.13,12q-2.13,13.17-4.27,26.35c-1,2.69.46,5.92-1.82,8.34.43,8.23-1.47,16.09-3.85,23.87-1.24,2.85,0,6.22-1.82,8.95l-6.63,38c-2.23,3.72.22,8.29-2.18,12l-4,23.32c-1.84,3.59.66,8-2.12,11.4-.23,2-.47,4.1-.7,6.15-1.69,2.67.06,6.18-2.1,8.74a15.85,15.85,0,0,1-1,9c-1.29,2.8.11,6.17-1.89,8.81l-1,5.86c-1.28,2.87-.05,6.25-1.8,9-.11,14-4,27.37-7.05,40.87-1.34,2.69.25,6-1.89,8.54q-3.51,22.15-7,44.31c-1.15,2.8.25,6.13-1.83,8.73l-1,6c-1.28,2.78.14,6.14-1.86,8.77a16.44,16.44,0,0,1-1.08,8.82c-1.37,2.64.35,6-2,8.41a8,8,0,0,1-1,6.35c-1,3-.06,6.26-1.65,9.11-2.9,24-10,47.47-9.9,71.91,1.17,2.28-1.32,2.69-2,4l-1,.66c-1.39,2.42.24,5.62-2,7.82l-3.81,23.85c-1.28,2.94-.13,6.35-1.81,9.2-3.52,12.35-1.84,25.63-6.75,37.73-2.11,3.76.22,8.3-2.11,12,.48,8.06-2.86,15.47-3.95,23.26-1.9,3.58.65,8-2.16,11.41.69,8.29-2,16-3.93,23.9-1.12,2.82.2,6.14-1.81,8.77-2.31,24.17-8.34,47.71-12,71.64-1.92,12.38-4.46,24.67-6.73,37C3387.21,2513.43,3388.58,2516.75,3386.49,2519.35Z"/><path class="cls-4" d="M784.26,2023c28-41.79,56.4-83.36,84-125.41,53.94-82.09,108.35-163.9,157.84-248.83,4.42-7.59,8.06-15.68,12.86-23,9.14-14,9.16-28.16,2.89-43.14-7.54-18-14.36-36.34-22-54.31-31-72.81-64.74-144.44-93.34-218.26-7.77-20-14.85-40.34-21.6-60.74-17.9-54.08-12.52-107,9.46-158.68A225.34,225.34,0,0,1,951.33,1031c7.24-2.71,10.56,3.28,14.45,7,30,28.8,62.59,54.25,96.9,77.74,57,39,119.84,55.2,188.36,51.88,11-.53,20.56-6.11,31.31-7,6.15.39,9.25,4.92,12.2,9.38,22.86,34.46,47.37,67.8,69.44,102.82,10.23,39.31,15.52,79.56,22.73,119.43q50.35,278.43,100.4,556.91,27,149.32,53.85,298.66c1.29,7.11,3.53,14.54-2.85,20.7-7.83,4.68-16.55,5.49-25.32,5.51-46.13.07-92.25.55-138.37-.21-2.67.07-5.34,0-8-.12-5.13-.29-10.36-.07-15.2-2.3-9.78-6.79-5.76-18-8.69-27a33.68,33.68,0,0,1-.87-4.65c-5.18-55.48-12.78-110.67-19.58-166q-17.8-144.83-36.83-289.51c-1.59-12-2.9-24-5.6-37.86-88.21,170.86-188.15,332.65-288.72,494.07a22.5,22.5,0,0,1-2.48,4c-5.66,7.09-12.78,8.46-21,5.38-77-31.31-154.34-62-231.25-93.58-3.73-1.16-7.21-2.91-10.8-4.41-23.4-9.74-24.28-11.66-10.26-31.88,19.69-28.38,38.94-57,58.12-85.76C776.18,2029.76,778.72,2024.87,784.26,2023Z"/><path class="cls-2" d="M2467.29,936c-.43-7,2.07-14.55-3.64-20.64-40.05-2.06-80.13-.23-120.19-.94-32.21-.57-64.45,1.56-96.62-1.18-3.26-26.08-1.14-52.55-5.72-78.53a11.91,11.91,0,0,1-.16-2.92c1.67-24.45-2-48.78-3.86-72.95-1.57-20.28.87-41-4.59-61a12.85,12.85,0,0,1-.35-4.37c2-25-1.47-49.84-3.85-74.4-2.16-22.28,1.21-45-4.86-66.86a8.7,8.7,0,0,1-.12-2.93c1.82-24.94-1.71-49.81-3.88-74.4-2-22.27.73-44.84-4.58-66.92-1.79-7.41-.34-15.59-.41-23.41,0-4.4.24-8.86-.34-13.19-1.91-14.32-2-14.3,11.36-17.36,2.36-.55,4.77-1.71,7.09-1.57,20.56,1.28,40.86-2.24,61.29-3.18,27.2-1.25,54.47-1.72,81.49-5.64a13.68,13.68,0,0,1,2.93-.13c24.47,1.92,48.84-1.72,73-3.83,21.29-1.86,43,.91,64-4.65a13.09,13.09,0,0,1,4.37-.31c25,2,49.88-1.39,74.43-3.84,23.28-2.33,46.74.4,69.9-4.52,10.78-2.29,22.43-.43,33.68-.53,7.59-.06,12.7,5,17.79,9.24,32.18,26.81,63.65,54.47,96.22,80.77,20.46,16.51,39.39,34.86,60.94,50,5.84,4.11,8.34,9.67,8.9,17.35,2.41,33,4.37,66,6.08,99,1.6,31.06,3.84,62.13,5.79,93.19,2,32,4.12,64.06,5.89,96.13,1.8,32.53,4,65,5.92,97.59,1.76,30.08,3.92,60.17,5.92,90.25,2.37,35.46,5.44,70.85,5.45,106.43-5.13,2.45-10.6,1.23-15.89,1.23q-209.08.14-418.15.08c-5.34-7.74-2-17.14-4.84-25.36-.84-3.82.93-8-1.58-11.59a56.42,56.42,0,0,0-1.09-17.67c-1.55-4.73,1-10-1.87-14.54a39.69,39.69,0,0,0-1.18-14.91c-1.72-7.38,1.78-15.23-2.06-22.41q-.48-6.41-1-12.79C2468,944,2469.59,939.74,2467.29,936Z"/><path class="cls-2" d="M3632.8,1126c2.86-15.31,6-30.59,8.52-46,2.1-12.79,1.51-13.39-11.35-13.39q-74.64-.06-149.29.2c-9.21.05-18.51-1.35-27.67.86-3.09,1.2-5.92.21-8.7-1.09-3.56-.49-6.83.68-10.13,1.69a685.91,685.91,0,0,0-89.65.07l-4.36,0c-29.72-2.75-59.52-.39-89.27-1.25-5.79-.17-11.73,1.3-17.35-1.24-1.68-9.88-7-18.31-12-26.55-7.13-11.85-7.21-23.89-4.69-36.61,5.66-28.57,11.24-57.21,17.63-85.56,9.61-42.64,17.36-85.65,27.07-128.27,10.25-45,18.57-90.35,27.87-135.52q5.45-26.4,11.55-52.66c2.36-10.12,5.43-12,15.3-10,29.48,6.14,58.88,12.62,88.38,18.68C3441.79,617,3479,624,3516,632.11c5.7,1.24,7.89-1,10.92-4,2.47,2.72,6.64.61,9.15,3.22.39,4.3,3.29,5.16,7,5.9,18.09,3.63,36.09,7.65,54.16,11.38q50.63,10.49,101.29,20.8c23.75,4.87,47.42,10.16,71.29,14.37,9.38,1.65,15.84,5.59,21.2,13.4q50,72.88,100.56,145.38c6.39,9.19,12.87,18.34,19.83,27.1,4,5,5.13,9.77,3.81,16.11-5.7,27.56-10.8,55.24-16.38,82.82q-10.82,53.52-22,107c-5.13,24.61-10.44,49.17-15.8,74.34-8.42-1.15-8.65-9.92-14.33-12.48-5.49-2.47-9.29-7-13.49-11.12-9.39-9.12-9.74-9-20.58-.85-12,9.08-24.09,18.16-36.37,26.92-10.59,7.56-14.82,6.88-23-3.37-9.36-11.8-18.47-23.8-27.65-35.75-8-10.38-10.8-10.65-21.35-2.82q-34.59,25.66-69.38,51c-2.33,1.7-5.17,2.73-7.77,4.07-1-10.27,4.48-19.91,2.88-30.23C3628.29,1131.43,3633.83,1129.68,3632.8,1126Z"/><path class="cls-5" d="M1283.89,1161.92c-27.1,14.27-56,10.45-84.7,8.28-63.88-4.83-117.43-33.76-167.32-71.35-25.77-19.41-50.59-39.92-73.76-62.39-2.07-2-4.51-3.64-6.78-5.45-3.1-4.73-2-8.81,1.09-13.34,32-47.4,66.91-92.45,105.95-134.3,27.7-29.69,57.18-57.44,89.11-82.47a486.53,486.53,0,0,1,105.23-63.09c1.29-.57,2.86-.48,4.3-.69,5.88,10.8,5.57,23.28,9.37,34.72,4.67,14.09,11.17,26.9,20.91,37.95,12,13.66,22.25,13.28,33.54-.75a104.57,104.57,0,0,0,18.11-34.63c2.44-3.65,1.43-10.35,8.62-9.83,39.9,10.24,79.58,21.32,118.89,33.65.93.29,1.91.4,2.83.69,10.49,3.39,10.49,3.39,7.92,14.73,1,8.86-4.25,15.84-7.39,23.3-8.32,19.76-18.44,38.72-26.3,58.72-2.3,5.83-5.64,11.5-12.7,13.17-9.38-1.54-14.41-7.78-17.47-16.14,9.2-25,22.23-48.36,32.25-73,.84-2.07,2-4.06,2.27-6.28.2-2-2.89.07-1-.22.76-.12,1,.32.58,1.28q-14,32.87-29.29,65.11c-1.82,3.84-3.28,8.45-9.07,8-14.92-8.52-23.11-23.6-34.21-35.76-8-8.82-16.65-17.27-22.15-26.24,5.38,21.68.46,44.27-1,66.84-.37,5.28-1.42,10.34-5,14.53-6.89,4.89-9.69-1-12.57-5.2-10.5-15.19-21.88-29.78-31.09-45.55.17.17.38.52.52.68a573.53,573.53,0,0,0,52.57,73,27.84,27.84,0,0,1,2.43,3.18c1.94,3.54,5,6.19,7.48,9.33,2.79,7.62-2.72,10.15-7.88,12.92-41.28,18.82-80.69,41.76-124,56.13-7.77.16-7.62-6.09-8.86-11.06-6.32-25.31-11-51-18.08-76.13-5.24-14-5.94-29.16-10.32-43.4-1.41-1.63-2.2,1.73-.9.28.39-.43.83-.15,1.11.92,4,15.42,5.15,31.54,11.13,46.5,6.54,24.46,11.49,49.29,17.28,73.93,2,8.69,5.27,12.69,13.87,6.66,10.18-1.44,10.38,7.47,12.65,13.12q11.74,29.21,23.81,58.29a160.27,160.27,0,0,0,18.86,33,31,31,0,0,1,6.28,16.21C1298.37,1142,1298.34,1155.82,1283.89,1161.92Z"/><path class="cls-6" d="M1430.05,908.6c10.81-8.89,12.58-22.68,18.41-34.24,10.1-20,17.71-41.16,28.74-60.71,21.28,8.23,43.35,6.84,65.22,4.4,36.39-4,72.68-9,109-13.75,26.63-3.44,53.16-7.85,79.87-10.34,35.11-3.26,70.35-4.41,104.5,7.26,7.65,2.62,16.34,3.92,21,12a7.38,7.38,0,0,1-7,1.19c-21-6.83-42.1-13-67.31-11.3,29.68-1.52,54.65,6.86,79.52,15.69,18.61,7,43,34.31,47.17,53-15.63.31-29.81-6.7-45-8.89a275.53,275.53,0,0,0-59.11-1.93c27.55-3.84,63.54.56,98.8,11.89a4.9,4.9,0,0,0,5.31-1.08c4,2.76,8.07,5.43,12,8.3,10.56,7.72,18.57,16.53,12.13,30.18,2.21,4.16,5.44,3.36,8.15,3.36q151.23,0,302.47,0a24.22,24.22,0,0,0,2.92-.35q100.56.15,201.13.37c5.24,0,10.79-1.61,15.69,1.77-4.88.22-9.75.65-14.62.65q-253.66.06-507.35,0c-17.57,0-35.14-.48-52.71-.74-.11-.47-.48-1.12-.3-1.39.76-1.13.78-1.69-.17-1.71-17-.49-34-2.4-51,1-15.64,3.13-31.83,3.35-48.12,8,8.25,8.51,21.43,1.6,28,11.3,2.38,13.92,3.4,27.78-.76,41.54-17.8,9.43-36.26,4.18-54.54,2.44-11-.81-10.87-11.8-16.23-17.54,0-2.21-2.78-.53-.88-1,.38-.09.24.45.52,1.33,1.35,4.29.57,7.45-4.2,8.84-8.42.94-15.1-3.74-22-7.08-15.5-7.48-31.3-8.75-48.49-7.21-39,3.48-78.24,3-117.26.36-20.93-1.41-42.07-.53-62.85-4.57-22.18-4.31-43.71-10.24-63.09-22.38C1423.35,920.39,1425.28,914.31,1430.05,908.6Z"/><path class="cls-7" d="M1601.32,647.8a147.14,147.14,0,1,0-38.23-58.1"/><path class="cls-8" d="M1004.46,2366.57c10.49,13.45,24.36,23.85,34.24,37.85,1.38,1.95,2.51,4.08,3.75,6.12-6,2.89-12.43.62-18.62,1.49-14.52,2.06-27.07,7.63-32.84,15.49,10.23-15.13,31.4-14.6,51.48-17,29,22.4,33.69,43.91,27.4,69.57-3.73,15.2-7.09,17.35-21.35,12-36.08-13.63-72.12-27.4-107.87-41.85-48-19.4-96.34-37.94-143.5-59.35-1.28-.58-2.85-.5-4.29-.72-26.79-11.78-53.64-23.41-80.32-35.4-14.24-6.4-28.3-13.22-42.24-20.25-10.55-5.33-12.3-9-8.7-21.25s8.2-24,12.78-35.79c4-10.39,8.65-20.55,14-33.11-46.13-1.29-90.68-1-135.22-1.09-44.36-.08-88.73,0-133.1-1.31,47.81-1.38,95.62-1,143.41-2.55,6.06-4.2,13-3.58,19.83-3.6,27.85-.08,55.71-.54,83.54.18,13.68.36,23.67-3.38,29.81-16.14,2.29-4.77,5.44-9.35,10.92-11.34,5.47-1.51,10.64.05,15.62,2q59,23.43,117.92,47.1c3.18,1.27,6.24,2.76,8.39,5.59-.62,22.09,13.93,31.41,31.88,38,5.87,2.15,12.79,2.93,16.39,8.76,3.36,5.44,2.92,5.55,9.69,5.57,19,.06,38-.27,57-.06,5.92,4.71,2.55,8.21-1.48,11.64-17.38,5.51-35.86-.77-53.23,4.94-1.88.54.71,3.25-.05,1.45-.29-.67-.17-1.1.37-1.22,22.55-4.88,45.4-1.11,68.09-2.43,7.09,3.8,3.91,7.68.1,11.58-18.67,6.15-38.47-1-53.29,5.19,19.77-4.27,43.61-.66,67.34-2.08,10.77,4.13,7.22,8.23,0,12.34-14.37,3.71-29.24.2-43.45,2.89,12.78-.55,25.83-.51,38.87-.11C994,2359.88,1000.59,2360.12,1004.46,2366.57Z"/><path class="cls-9" d="M710.9,2210.21c-9.43,2.71-11,12.1-14.58,19-4.32,8.22-9.52,10.75-18.38,10.64-38.16-.46-76.33-.31-114.49-.39,2.06-30.07,6.31-59.85,11.28-89.57,3-18.19,4.48-36.64,6.78-54.95,2.06-16.39,3.83-32.83,6.59-49.1,3.5-20.6,6.35-41.25,8-62.07.24-3,.31-5.87,2.79-8,51.65,3.25,103.35.74,155,1.49,7.39.11,13-3.31,18.55-7.34,3.74,3.41,3,8,2.74,12.15-.63,10.65,3.9,20.64,3.5,31.3-.13,3.59,2,7.36,5.52,9.64-20.27,32.69-42.59,64-64,96-4.32,6.45-8.55,13-13.14,19.92,9.41,7.21,21,8.73,30.39,14.53.56,5,2.07,10-.56,14.88C723.91,2179.54,718,2195.25,710.9,2210.21Z"/><path class="cls-9" d="M599.26,1964.19c-.58-6.82,2.38-15.69-10-15.15-4.43.19-4.88-4.06-4.89-7.6,0-13.2.07-26.4-.06-39.6-.07-6.56,3.53-8.27,9.3-8.23,16.14.12,32.28,0,48.42,0,3.42,0,6.85-.06,10.27-.17,2.07-.07,3.89-.85,4.6-2.91a4.15,4.15,0,0,0-1.71-5.08c-5.26-3.52-9.47-8.33-15.34-11.2-7.9-3.86-15.29-8.75-21.2-15.4-5.41-6.11-13.43-7.92-19.7-12.43-20.63-14.82-44-25-65-39.22-5.55-3.75-12.75-5-18.51-8.53-10.1-6.17-17.42-15.57-25-24.41-5.61-6.54-3.27-21.25,4.12-29.79a95.75,95.75,0,0,1,12.84-12c3.31-2.64,4.28-5.36,1.86-8.69-2.62-3.62-5.7-2.89-8.72-.2-14.17,12.62-31.34,8.13-47.61,7.95-4.54,0-7.43-4.37-9.52-8.39-7.77-15-16.93-29-21.35-45.84-3.46-13.2-11.95-25-16.73-38-4.25-11.54-6.48-23.83-10-37.43,11.17,1.44,19.07,6.78,28.11,7.77,2,.23,4.68,2.36,5.63,4.31,4.68,9.56,13.52,13.55,22.27,18s14.51,12.94,21.51,19.69a9.83,9.83,0,0,1,1.68,3.67c-10,4.88-2.35,21.76-16.24,23.93-1.38.22-2.62,1.28-3.91,2-2.18,1.17-4.67,2.53-3.63,5.42a5.74,5.74,0,0,0,7.07,3.8c3.77-.91,7.79-1.78,11-3.78,11.38-7.07,23.69-7.88,37.11-7.11-1.7,8.22-10.77,6.25-15.14,12.53,7.44,2.62,13.9,2.64,20.28.26,7.17-2.67,12.77-.67,16.32,5.6,7.08,12.54,17,22.55,27.33,32.27,4.86,4.59,7.94,8.9,1.2,14.3-4.33,3.46-3.64,8.46-2.71,14-9.53-.75-17.55,1.11-25.58,3.05-3.52.85-7.19,2-6.52,6.32a6.29,6.29,0,0,0,9,4.84c10.3-5,22.88,1.3,32.36-7.08,1.24-1.09,3.72-1,5.64-1,2.9-.06,6.43-.16,6.79,3.74.42,4.62-3.06,3.44-6,3.57-5.27.23-9.13,3-11.3,7.94s-4.83,9.51-10.65,12.75c8.92,6.69,17.7,4,25.93,3.19,4.46-.43,4.91-5.08,5.75-9.11,1.68-8.11,3.46-8.84,10.64-5a38.73,38.73,0,0,1,16.26,16.37c2.08,3.87,4,7.76,7.19,11,4.88,4.92,7.47,9.77,1,16.07-4.66,4.55-1.13,9.47,3.75,9.17,16.94-1,20.93,11.29,25.72,23.06,6.35,15.56,19.55,24.91,31.78,35,3,2.53,7.61,1.24,11.46,1,6.14-.31,12.15-4.33,18.46-.45.66.41,2.54.23,2.75-.21,5.71-11.73,10.45-5.49,16.29.16,1.83,1.76,6.59.6,10,.61,14.19.05,28.38.22,42.55,0,7.12-.14,11,1.88,10.74,9.86-.38,12.21-.22,24.44,0,36.66.08,5.71-1.34,9.64-8,9.42-6.25-.2-6.86,4.16-7.07,8.83-12.56-4.84-25.68-4.46-38.82-4.41-32.22.13-64.45.41-96.66-.13C622.89,1953.56,609.82,1953.85,599.26,1964.19Z"/><path class="cls-10" d="M1342,776c-3.15,14-10.61,25.92-19.13,37.11-10.61,14-23.58,14.76-35.91,2.25-8.21-8.33-15.17-17.9-19.19-28.84-5.84-15.87-12.78-31.7-10.79-49.36,10.43-14.17,18.44-29.77,27-45,2.76-4.93,2.3-8.82-.89-13.4-7.52-10.82-9.11-23.22-9.37-36.16-.2-10.17,2.82-17,13.3-19.23,8.79-.82,12.91,6.08,17.43,11.39,6.53,7.65,10,5.17,13.61-2.36,6.71-13.94,8.12-29.08,10.78-44,3-16.52,7-18.18,21.18-8.79,11.54,7.64,23.37,14.54,37.57,15.26,13.17.66,25.3-2.2,34.67-12.48a35.6,35.6,0,0,1,8-6.38c10.38-6.29,15.19-4.89,17.77,7.13,4.19,19.55,7.91,39.31,5.39,59.53-.42,3.36-1.82,6.66-.35,10.07-7.38,13.29-4.59,28.52-8,42.61-3.61,14.69-6.83,29.52-16.43,41.58-17.29,21.73-40.72,26.8-66.88,22.7-4.28-.67-8.26-3-12.52-.24-26.42-10.62-46.52-26.89-51.09-52.13.71,26.15,9.89,52.26,41.23,65.41C1340.67,773.15,1341.44,774.6,1342,776Z"/><path class="cls-11" d="M1453.11,652.67c-4.46-3.87-2.69-9.09-2.76-13.78a324.83,324.83,0,0,0-5.14-52.44c-.78-4.37-1.7-8.63-4.42-12.84a38.87,38.87,0,0,0-15.3,10.66c-13.71,15.42-30.56,16.8-49,12.5-10.17-2.36-19.1-7.37-27.62-13.18-4-2.73-7.91-5.57-13.74-9.68-4.48,26.79-5.78,53.39-22.89,76.07-8.47-9.61-15.07-19.89-25.15-26.71-.75-9.24-1.42-18.51-2.29-27.75-.51-5.39-1-10.87.69-16,6.32-19.17,20.46-34,27.43-56.12l4.78,10.3c4.2-2.82,8-7.17,12.34-7.85,5.83-.92,11.61,1.81,17.34-3.56,5.19-4.86,12.33-7.79,18.85-11.08,15.81-8,31.79-8.12,48-.81,11.73,5.27,22.4,12,31.42,21.14,10.49,10.66,11.29,15.59,4,28.45-2.29,4-4.61,7-.71,11.5,15.55,17.9,13.19,38.93,9.65,59.93C1457.36,638.6,1455,645.59,1453.11,652.67Z"/><path class="cls-2" d="M3759.18,572.45c-6.14.6-7.12,6-9.2,10.17-8.94,18-20.13,34.37-35.34,47.65-14,12.2-30,19.44-49.06,18.53-13.88-.67-19.48-7-20.95-20.88-1.54-14.53,5.15-25.21,13.89-35.35,3.47-4,8.12-7.06,10.23-12.22,18.75-16.71,41.94-23.38,65.59-29,3.63-.22,7.24-.8,10.9-.85a5.38,5.38,0,0,1,3.75,2.15c1.79,3.6,2,7.12-.53,10.51-8.67,6.58-17.18,13.37-26.27,19.39-9.1,1.87-18.06-1.18-25.77.29,3.65,0,8.82-.62,13.79.13,10.13,1.54,4.77,5.39,1,8.79-5,2.74-8.55,7.1-12.74,10.73-1.24.66-2.78.72-3.82,1.83,2.12-1,4.25-1.49,6.39,0,.88,5.53-3.79,9.45-4.07,14.64,1.25-4.62,3.59-8.84,5-13.42a21.28,21.28,0,0,1-.37-4c1.15-4.26,4.83-6.17,8-8.56,5.75-3.28,9.24-9.39,15.34-12.22,4.18-1,6.38-9.11,12.41-3.45-.35-7.67,6.15-10,10.76-13.88C3754.13,563.52,3759,565.06,3759.18,572.45Z"/><path class="cls-12" d="M3662,560.77c-4.35-5.91-10.8-7.68-17.53-8.89A50.82,50.82,0,0,1,3617.81,538c-10.49-10.16-10.63-21-1.75-32.33,7.76-9.89,18-14.38,30-15.35,26.2-2.11,51.22,2.21,74.72,14.38,6,3.13,12,6.62,19.09,6.6,1.81,5-.11,8.78-3.82,12-6.85,1.21-13.52,1.78-17.63-5.63.54,7.92-5.26,6.56-9.7,6.19-11.23-.95-23.06,1.32-33.24-5.72-4.3-4.69-10.71-6.28-14.75-10.13,2.71,5.19,12.06,3.78,13.24,11.76-10.12,2.55-20.27.57-28.06,1.22,12.25.86,27-1,41.66,1.56,7.3,1.26,9,4,5.3,8.77,11.3-12.94,27.36-6.57,42.07-7.13,5.14,1.61,8,4.77,7.3,10.45-11.76,11.12-27.13,14.18-41.91,18.31C3687.78,556.48,3674.84,558.4,3662,560.77Z"/><path class="cls-13" d="M599.26,1964.19c5.6-14.7,5.6-14.71,22.15-14.71,44.94,0,89.88.25,134.82-.23,7.91-.08,12.79,2.21,15.9,9.08.12,3.85.25,7.7.37,11.55-1.5,11.56-1.49,11.84-11.42,11.86q-75.45.15-150.88,0c-4.77,0-10.24,1-11.27-6Z"/><path class="cls-5" d="M3233.55,1065.86c30.27.27,60.54.47,90.81.87,5.28.07,10.77-1.18,15.81,1.62-5.37.11-10.75.31-16.12.31q-412.89,0-825.78-.06c-5.28,0-10.78,1.36-15.83-1.44,4.88-.2,9.75-.58,14.61-.58q203.16,0,406.3,0c4.38,0,8.76-.44,13.14-.67,3.9.23,7.8.66,11.7.66q146.83.06,293.67,0C3225.75,1066.52,3229.65,1066.09,3233.55,1065.86Z"/><path class="cls-14" d="M1630.94,515.91q0-24.11,0-48.2c0-9.16.13-9.25,10.19-9.49,11.62-.27,12.83.15,12.66,8.55-.67,34.09-1.81,68.17-2.6,102.26-.16,6.65-4.53,6.26-9,6.41-4.93.18-8.42-.58-8.32-7,.28-17.51.1-35,.1-52.56Z"/><path class="cls-15" d="M1762.89,516.86c0,16.53-.06,33.07,0,49.6,0,5.49-.87,9.23-7.89,9.14-6.7-.09-9.62-2.22-9.69-9.24-.24-22.38-.95-44.76-1.43-67.13-.19-9.25-.47-18.5-.33-27.74.07-4.11-3.6-9.55,1.13-12.1,5.09-2.74,11.5-1.81,17.11-.44,4.94,1.2,3.84,5.9,3.83,9.75-.05,16.05,0,32.11,0,48.17Z"/><path class="cls-16" d="M1707,517.77c0,16.59-.1,33.18.06,49.77,0,5.27-1.35,8.1-7.36,8-5.54-.07-9.6-.82-9.7-7.54-.07-4.39-.59-8.77-.7-13.16-.73-29.29-1.29-58.58-2.21-87.87-.17-5.34,1-8.11,6.78-8.79,14.18-1.66,15.92-.29,15.9,14.16q0,22.71,0,45.41Z"/><path class="cls-17" d="M1600.17,652.39l-5,.05c-2.94,1.33-6.42-.12-9.23,1.82l-60.48,9.41c-2.24-5.23,1.45-7.95,3.14-11,8.28-14.93,16.4-30,25.56-44.36,5-7.77,5.22-14.4,2.54-23.12a148.15,148.15,0,0,1,68.69-172.3c5.92-3.37,11.86-6.76,18.58-8.39,3.06-1.13,3.82.37,3.52,3.08-50.25,22.32-80.7,60.09-89.4,114.74a127.33,127.33,0,0,0,5.89,63.54c3.18,8.87,2.17,15.39-2.64,23-9.06,14.36-17.21,29.31-26.64,45.58,15.72,1.31,29.18-3,42.87-4.15,8.61-.71,17.05-4.19,25.84-1.36C1604,651.65,1603.1,653,1600.17,652.39Z"/><path class="cls-18" d="M3741.08,533.84l-5-8.64c-1.91-.78-2-1.74-.29-2.87-.86-4.48,3.38-7.08,4.06-11,2.3-1.78,4.35-4.16,6.95-5.21,7.18-2.92,14.47-3.1,20.38,2.76,5.69,5.63,7.24,12.54,4,20.09a54.37,54.37,0,0,1-3.9,6.4c.86,3.18,4.4,2.6,6.56,4,8.18,5.47,11.37,12.63,9,21-2.1,7.4-8.19,11.66-17.78,12.27a51.83,51.83,0,0,1-5.83-.28l-11.62-8.92.19.26-.75-11.52C3750.08,544.51,3744.39,539.56,3741.08,533.84Z"/><path class="cls-19" d="M3741.08,533.84c1.25.65,2.53,1.24,3.72,2,9.79,5.93,9.78,5.93,2.21,16.47l-.93.08-.9-.22c-2.83,2.06-6.57.34-9.43,2.26-21.68,5.29-42.77,12-61.58,24.57-1.47,1-3.6.95-5.42,1.39-1.92-1.84-2.74-5.19-6.39-4.61-5.56,1.4-8.79.68-5.49-6,7,0,6.89-4,5.16-9,0-4.95,2.69-6.09,7.35-6.36C3694.79,553,3718.4,544.94,3741.08,533.84Z"/><path class="cls-20" d="M1342,776c-24.09-5.43-37.31-21.74-43.92-44.35-3.42-11.7-3.66-23.71-2.26-36,3.66.82,4,3.65,4.32,5.74,4,24.52,19.89,39.44,40.34,50.83,3.32,1.85,7.51,2.68,8.72,7.13-.56,1.74-1.11,3.49-1.67,5.24C1344.33,767.7,1343.52,772,1342,776Z"/><path class="cls-21" d="M3436.44,2243.37l2-4,320.48,1.24q1.83.66,1.23,1.35a1.67,1.67,0,0,1-1.21.7Z"/><path class="cls-22" d="M1768.65,609.65c.16,8.68-5.72,15-14.16,15.19-8.17.2-14.36-6-14.77-14.74A14.48,14.48,0,0,1,1754,594.93C1762.19,594.84,1768.5,601.16,1768.65,609.65Z"/><path class="cls-23" d="M1698.89,595c8.79.13,14.23,6,13.91,15.08s-6,14.69-14.63,14.74c-8,.05-14.44-6.91-14.17-15.27C1684.29,600.71,1690.26,594.87,1698.89,595Z"/><path class="cls-24" d="M1656.91,609.28c.32,8.35-5.79,15.45-13.68,15.9-7.71.44-14.63-6.28-15.09-14.67-.48-8.72,5.22-15.16,13.73-15.53S1656.58,600.61,1656.91,609.28Z"/><path class="cls-25" d="M3759,2242.66a4.18,4.18,0,0,0,0-2c38.14-1.49,76.28-.44,114.42-.39,29.3,0,58.6,0,88.9,0-2.42,3.39-4.77,2.47-6.69,2.48q-93.21.38-186.4.59C3765.78,2243.31,3762.38,2242.88,3759,2242.66Z"/><path class="cls-17" d="M1647.54,407.58,1644,404.5c30.8-16.25,84.51-15,114.18,3.12C1721.2,395.17,1684.31,394.76,1647.54,407.58Z"/><path class="cls-17" d="M1743.79,683.33l-2.28-2.42c6.14-5.17,14.3-5.68,21.15-9.26,15.25-8,29.12-17.65,41-30.19,3.91-4.11,7.12-9.14,12.73-11.85C1808.11,649.74,1776.55,673,1743.79,683.33Z"/><path class="cls-26" d="M1862,818.82c-26.28-5.61-51.92-14.35-79-15.92,19.19-3.63,37.58-.59,55.73,5.49,5.88,2,11.46,5.4,18.06,4.85C1858.66,815,1861.27,816,1862,818.82Z"/><path class="cls-27" d="M3632.52,581.07c-.29.84-.34,2.13-.92,2.45-6,3.25-12.19,5.91-19,6.87a2.48,2.48,0,0,1-2.83-2.49c-.05-.85.26-2.2.85-2.54a55.73,55.73,0,0,1,18.93-6.78C3631.09,578.34,3632.2,579.44,3632.52,581.07Z"/><path class="cls-28" d="M3536.1,631.38c-3.34-.24-9.77,8.29-9.15-3.22,5.36-3.16,10.65-6.43,16.13-9.35.86-.47,2.93.25,3.76,1.09a2.57,2.57,0,0,1-.48,3.74C3543,626.29,3539.53,628.81,3536.1,631.38Z"/><path class="cls-29" d="M3570,610.5c-1.57-1.31-2.48-1.78-3-2.54a2.33,2.33,0,0,1,1.06-3.51c5.57-2.85,11.16-5.69,16.89-8.22.81-.36,2.56.83,3.52,1.69a2.7,2.7,0,0,1-.17,2.56C3582.19,604,3575.92,607.32,3570,610.5Z"/><path class="cls-2" d="M3656.87,569.74c-1.91,5.41,1.61,5.87,5.49,6-2.2,2.48-4.89,3.6-7.32.83S3653.56,571.3,3656.87,569.74Z"/><path class="cls-5" d="M3418.93,2334.65c.05-4.12-1.58-8.54,2.11-12C3421.26,2326.8,3422,2331.05,3418.93,2334.65Z"/><path class="cls-5" d="M3412.82,2369.32c.3-3.89-1.23-8.11,2.16-11.41l.63,8.44Z"/><path class="cls-5" d="M3483.32,1970c.26-3.89-1.22-8.09,2.12-11.41C3485.74,1962.6,3486.49,1966.67,3483.32,1970Z"/><path class="cls-5" d="M3510,1817.86c.06-4.11-1.57-8.52,2.13-12C3512.38,1810.05,3513.06,1814.29,3510,1817.86Z"/><path class="cls-5" d="M3489.4,1935.3c.08-4.11-1.58-8.54,2.18-12C3491.82,1927.49,3492.41,1931.72,3489.4,1935.3Z"/><path class="cls-5" d="M3474.77,2017.59c-.2-3.18-1-6.47,1.81-9C3476.91,2011.75,3477.74,2015.05,3474.77,2017.59Z"/><path class="cls-5" d="M3427.79,2284.9c-.22-3.23-1-6.57,1.81-9.2C3430.09,2279,3430.3,2282.21,3427.79,2284.9Z"/><path class="cls-5" d="M3465.83,2067c-.09-3-.79-6.15,1.89-8.54C3468.61,2061.64,3468.2,2064.54,3465.83,2067Z"/><path class="cls-5" d="M3457,2120c-.09-3.06-.78-6.24,1.83-8.73C3459.4,2114.47,3459.34,2117.5,3457,2120Z"/><path class="cls-5" d="M3454.11,2134.77c-.13-3.09-.85-6.3,1.86-8.78C3456.32,2129.13,3457.17,2132.36,3454.11,2134.77Z"/><path class="cls-5" d="M3451,2152c0-3-.65-6.08,2-8.41C3453.54,2146.67,3453.54,2149.63,3451,2152Z"/><path class="cls-5" d="M3448.37,2167.46c-.23-3.18-1-6.47,1.66-9.11C3450.78,2161.62,3450.92,2164.78,3448.37,2167.46Z"/><path class="cls-5" d="M3503.88,1852.55c0-2.91-.63-6,1.82-8.35C3506.31,1847.25,3506.87,1850.29,3503.88,1852.55Z"/><path class="cls-5" d="M3521.52,1752.7c0-3-.64-6.08,2-8.42C3524,1747.36,3524,1750.32,3521.52,1752.7Z"/><path class="cls-5" d="M3498.21,1885.37c-.17-3.14-.91-6.4,1.83-8.95C3500.51,1879.62,3500.67,1882.76,3498.21,1885.37Z"/><path class="cls-5" d="M3433.41,2251.85c.17-2.74-.9-5.81,2-7.83C3435.69,2246.88,3436.21,2249.79,3433.41,2251.85Z"/><path class="cls-5" d="M3515.85,1785.61c-.18-3.1-.93-6.31,1.58-8.93A9.38,9.38,0,0,1,3515.85,1785.61Z"/><path class="cls-5" d="M3480.52,1984.91c-.11-3.11-.8-6.36,2.1-8.74C3483.24,1979.4,3482.83,1982.38,3480.52,1984.91Z"/><path class="cls-5" d="M3477.59,2002.69c-.12-3.1-.84-6.32,1.89-8.81C3480.08,1997.08,3479.9,2000.11,3477.59,2002.69Z"/><path class="cls-5" d="M1539.44,2266.75c-7.17-40.87-14.23-81.76-21.54-122.6q-24.76-138.4-49.77-276.77-31.62-175.1-63.39-350.19-21.08-116.75-41.82-233.55a60.51,60.51,0,0,0-3.57-12.62c-11.5-35.82-16.15-73-22.12-110-2.47-10-4.9-19.94-5.55-30.23-.6-9.53,3.08-14.81,13.38-14.64,94.78,1.53,189.57-.11,284.35.84,64.49.65,129,0,193.48.42,7.17,0,14.79-1.6,21.17,3.56,11.16.17,22.32.48,33.47.48q611.31,0,1222.6,0h8.8c19.43,0,18.82.12,22.11,19.84,4.8,28.72,10.74,57.24,15.9,85.89,5.6,31,10.58,62.19,16.36,93.18,4.35,23.38,9,46.7,12.81,70.18,6,36.87,12.85,73.6,19.5,110.36,4.24,23.4,8.91,46.72,13.14,70.12,6.46,35.81,12.68,71.66,19.08,107.49,4.18,23.41,8.55,46.78,12.71,70.19,5.62,31.52,11.08,63.07,16.69,94.59,1.87,10.52,3.42,21.13,6.18,31.42a74.16,74.16,0,0,1,2.51,21.67c.48,3.18,2.55,5.81,3,9q10.7,59.47,21.37,118.95,8.82,49.46,17.3,99c3.77,22,8.07,43.93,12.16,65.89,5.85,31.49,11.1,63.09,16.73,94.63,4.19,23.42,8.7,46.78,12.85,70.2,5.49,31.07,11.93,62,16.6,93.19,3.29,22.07,7.68,44,12.19,65.88,1,5.07,4.57,9.64,7,14.44.32,2.46.6,5.35-2.55,5.78a99.68,99.68,0,0,1-13.17.5H1604a35.79,35.79,0,0,0-5.86,0c-7.52,1.25-10.47-2.59-11.56-9.42-2.07-13-4.4-25.95-6.78-38.89-1.06-5.76-2.49-11.44-3.75-17.16-3-4.92-5.76-9.95-6.09-15.91a63.59,63.59,0,0,1-1.78-6.53c-6-30.9-10.08-62.12-16.88-92.85a37.83,37.83,0,0,1-1.27-6.76c-.83-9.44-2.79-18.72-4.5-28a58.34,58.34,0,0,1-2.26-8.21c.1-7.62-1.57-15.07-2.42-22.6C1540.05,2280.62,1536.86,2273.87,1539.44,2266.75Z"/><path class="cls-30" d="M1543.86,2286.57c-.15,7.72,5.28,15,1.78,23-6.44,8.23-13.21,16.14-21.71,22.43a19.67,19.67,0,0,1-7,2.28c-43.84,2.91-87.72,1.65-131.59.7-3-.06-5.58-1.65-7.79-3.69-2.29.86-4.62,2.57-6.85,2.44-16.66-1-32.92,3-49.48,3.75-22.75,1-45.56,2.08-68.28,4.72-15.38,1.79-31,1.78-46.53,3.53-19.75,2.25-39.64,3.36-59.44,5.23-13,1.23-26,3.49-39.17,3.73-18,.34-35.72,3.57-53.59,5-14.07,1.14-28,3-42.08,4.22-7.18-1.71-15.76-.26-19.89-8.84,5.64-6.13,5.64-6.13.28-9.15-6.42,2.06-11.89,1.41-15.28-5.29.39-3.08,8.18-5.83.41-9.27-6.09,1.16-11.9,1.55-15-5.47.86-3,5.72-6,0-9-4.78,1.65-7.06.18-4.64-4.67,2.18-4.38,7.1-4.76,11.37-5.66,11.14-2.34,21.25-7.24,30.92-12.95,11.93-7,16.9-18.91,12.27-27.89-5.29-10.28-16.95-12.7-30.72-5.32-13,7-23.84,16.79-33.07,28.42-14.39,18.14-17.46,18.13-31.53.66a152.36,152.36,0,0,0-13.17-13.72c-16.18-15.66-33.26-27.58-56.32-12.6-25.66-7.5-49.72-19.17-74.63-28.62-20.86-7.9-41.55-16.23-62.32-24.37-.43-.87-1.4-1.88-1.21-2.57a89.84,89.84,0,0,1,22.22-39.43c1.15-1.19,3.58-1.15,5.41-1.68,7.88-4.11,14.18,1.42,20.53,4,61.7,25.43,123,51.75,184.64,77.35,9.18,3.81,17.54,5.7,26-.92,7.34,3.7,13.31,1.37,18.54-4.22,5.41-4.49,12-3.79,18.25-3.79q160.73-.11,321.44,0c6.27,0,12.87-.85,18.07,4.12,4.19,3.79,2.64,9.06,3.52,13.7,1,5.11-.07,11,5.35,14.41,2.85-.4,5.71.35,8.56-.08l11.58-.08c6.79,7.53,15.51,8.8,25.14,8.75q62-.32,123.91,0C1530.4,2279.85,1538.74,2278.48,1543.86,2286.57Z"/><path class="cls-8" d="M1377.59,2331.28c39.76-.22,79.52-.54,119.28-.59,10.21,0,20.34-.28,30.34-2.45,6.18,11.56,14.63,20.46,27.86,23.76,6.3,31.84,12.84,63.65,16.42,96-3.3,4.48-8.29,2.37-12.27,2.53-42,1.67-84,2.06-125.91-.76,40.83,3,81.76,1.81,122.65,1.39a82.9,82.9,0,0,1,17.28,1.15q1.4,8.07,2.77,16.15c-5.12-2.26-10.54-1.77-15.91-1.79-31.31-.13-62.64-.74-93.95-.23-22.06.35-43.88-2.49-65.84-3.27-10.76-.38-11.74-2-15-12.25-3.27-10.4-3.81-21.41-4.13-31.8C1380.31,2389.8,1375.76,2360.65,1377.59,2331.28Z"/><path class="cls-31" d="M992.29,2355.08c6.21,3.9,14.36,3.41,19.89,8.84-1.85,3-5.23,1.52-7.72,2.65-20.59-5-41.42-2.59-62.19-1.92-2.37.08-4.74,1.21-8-.82,6.38-7.1,15-8,23.17-9.19C969,2353,980.68,2354.57,992.29,2355.08Z"/><path class="cls-5" d="M3407.08,2402c-.07-3.06-.79-6.26,1.81-8.77C3409.6,2396.41,3409.46,2399.43,3407.08,2402Z"/><path class="cls-5" d="M3386.49,2519.35c-.06-3-.75-6.22,1.81-8.72C3389,2513.8,3389,2516.85,3386.49,2519.35Z"/><path class="cls-30" d="M1758.76,973.63c5.79-3.83,11.25.79,17,.69,13.11-.23,26.24.07,39.37.16a20.61,20.61,0,0,1,4.06-2.5c14.69-2,29.59-2.82,43.6-8.63,4.09-1.69,10.08-3.66,8.44,5.21-.2,1.89-.39,3.78-.59,5.67-2,2.81-.8,6.11-1.39,9.13-3.6,7.42-4.49,15.35-4.37,23.46-2.17,2.52-1,5.66-1.61,8.48-6.91,31.09-12.7,62.36-16.14,94-2.06,2.76-.56,6.35-2.13,9.23l-.73-.07-.57.47c-17.52,2.27-35.11.8-52.66,1-32.78.28-65.64-1.34-98.31.45-38.5,2.11-75.22-5.6-110.77-17.86-49-16.89-98-33.89-146.41-52.47a81.43,81.43,0,0,1-37-27.74q-20.25-27-39-55.08c-3.08-4.61-8-9.51-1.87-15.45,3.66-2,10.71-1.65,6.5-9.21-3.56-2.14-4.86-6.07-7.23-9.15l.15.16c-6.31-8.32-13.85-16.11-11.91-27.94,2-4.49,2-9.37,2.57-14.12,6.67-1.33,10.91,3,15.24,6.77,12.08,10.47,24.88,20,37.42,29.92,8.47,6.67,16,12.08,22.2-2.17.76-1.75,2.88-2.46,5-1.88a243.27,243.27,0,0,0,96.86,24.43c41.89,1.84,83.74,2.77,125.64,2.13,13.13-.19,26.25-1.26,39.34-2.26,7.51-.57,14.13,1.22,21.11,4.08,11.14,4.55,21,12.45,33.68,13.14,10.66-.51,8.29,12.1,15.15,14.67.77,2.42,1.5-.6-.34.08-.36.13-.46-.34-.76-1.26A5.82,5.82,0,0,1,1758.76,973.63Z"/><path class="cls-6" d="M1357.64,951.77c-.8,2.92-.74,5.47,1.25,8.21,15.46,21.32,30.73,42.77,46.08,64.17,7,9.84,16.52,16.41,27.83,20.51,50.43,18.28,100.65,37.16,151.36,54.63,22,7.59,45.11,12.27,67.69,18.32,6.24,1.68,12.6,1.3,18.93,1.3q86.45.06,172.87,0a2.75,2.75,0,0,1,.41,2l-266.7,0q-107.7,0-215.41-.06c-6.33,0-12.75.09-19-.86-7.36-1.12-8.43,1.75-7.25,8.12,2.1,11.42,3.68,23,5.47,34.43-18.61-5.33-30.84-19-42.85-32.9-2.15-11.54-11-19.34-16.25-29.2-12.78-24.19-22.33-49.74-32.64-75-2.3-5.64-1.51-14.23-10.39-15.92-.85,1.52-1.42,1.34-1.75-.29Z"/><path class="cls-32" d="M1814.63,931.34c-9.74-.51-19.45-1.37-28.81-4.27-2.62-.82-6-2-5.53-5.73.4-3.49,3.66-4.34,6.49-4.75,17.31-2.53,34.72-4.46,52-7.44a153.5,153.5,0,0,1,33.47-1.76c7.54.35,15,2.2,23.87,3.6l-7.1,4.34c-5.07-.08-9.22,0-10,7.16-1,9.6-3.65,19-5.58,28.53-16.49-5.46-32.09-14-50-14.28C1819.11,937.14,1818.24,932,1814.63,931.34Z"/><path class="cls-33" d="M1820.51,933.47c19.27.91,38,3.52,52.88,17.54-.21,5.93,2,12.15-2.21,17.56-1-4-3.4-3.8-6.46-2.34-14.64,7-30.14,9.21-46.21,8.29C1817.8,960.77,1816.16,947,1820.51,933.47Z"/><path class="cls-34" d="M1871.31,980.39c7.39-10,10.73-22.91,21.45-31.2-.66,10.62-11.68,32.56-19.3,37.66-2.25,1.5-2.53-1.79-3.3-3.3S1869.8,981,1871.31,980.39Z"/><path class="cls-35" d="M1948.41,1005c-10.13,11-22.14,18.46-36.63,21.4C1921.53,1014.94,1934.17,1008.44,1948.41,1005Z"/><path class="cls-5" d="M3344.53,1068.37c2.57-1.68,5.45-1.76,8.4-1.76,23.32,0,46.64-.07,70,0,3.81,0,7.82-.87,11.27,1.71Z"/><path class="cls-36" d="M1929,1079.78c13.86-3.93,27.75-3.62,41.67-.3C1956.82,1085.16,1942.92,1084.61,1929,1079.78Z"/><path class="cls-37" d="M3465.59,1678c.57-2.54-2.17-8.48,2.95-8.73,5.56-.28,4.49,6,5.28,10a17.33,17.33,0,0,1,.14,4.32c-.21,3.73.5,9.17-4.55,9-5.36-.18-3.32-5.84-3.79-9.35A45.74,45.74,0,0,1,3465.59,1678Z"/><path class="cls-38" d="M3355.62,1079.09c-4.61,5.27-9.26,10.69-15.39,14.59-.56.36-1.88,0-2.59-.45a2.87,2.87,0,0,1-1.18-3.75c3.23-6.06,8.37-10.36,13.86-14.25,1.31-.93,2.82-.22,3.82.91A15.09,15.09,0,0,1,3355.62,1079.09Z"/><path class="cls-39" d="M3399.53,1836.39c-.58,4.19-4.19,6.11-7.16,8.3-3.61,2.66-8.6,9.18-11.59,5.38-4.76-6,4.51-7.48,7.4-11.09,1.74-2.15,4.49-3.61,7-5C3397.3,1832.83,3398.72,1834.17,3399.53,1836.39Z"/><path class="cls-40" d="M3583,1141.68c-4.52-.83-8.29-1.46-12-2.23-2.32-.48-5-1-4.41-4.27.43-2.32,2.73-2.39,4.53-2.29,4.3.23,8.59.64,12.87,1.16,2.4.29,5.11,1.06,4.87,4C3588.45,1142.12,3585,1141.43,3583,1141.68Z"/><path class="cls-41" d="M3471.15,1722.45a11,11,0,0,1-.69,2.79c-2.43,4.41.5,11.17-5.9,13.68-.68.27-3.14-1.54-3-2.16.95-7,.24-14.54,5.24-20.49a2.7,2.7,0,0,1,2.58-.25C3471.68,1717.57,3471.44,1720,3471.15,1722.45Z"/><path class="cls-42" d="M3468,1641.43c0,2.88-.94,3.86-2.35,4.49-1.72.76-2.69-.45-3.71-1.47a2.54,2.54,0,0,1-.83-1.19c-.91-6.44-6.16-12.34-2.51-19.31.2-.39,2.13-.48,2.66,0C3466.94,1628.9,3465.43,1636.52,3468,1641.43Z"/><path class="cls-43" d="M3482.64,1096.12c3.39-.3,17.75,9.84,18,12.83a2.7,2.7,0,0,1-2.49,2.93c-3,.41-16.25-8.12-17.65-11.38C3479.6,1098.41,3480.65,1097,3482.64,1096.12Z"/><path class="cls-44" d="M3442.44,1579.76a3.44,3.44,0,0,1,3.4,2.14c2.37,4.75,4.74,9.51,7,14.34,1,2.1,0,3.8-2,4.7-2.38,1.1-3.76-.77-4.54-2.39-2.31-4.79-4.44-9.68-6.32-14.65C3439.29,1582.06,3439.79,1580.05,3442.44,1579.76Z"/><path class="cls-45" d="M3417.56,1819.62a3.31,3.31,0,0,1-2.92-4.11,6.09,6.09,0,0,1,2.28-3.58c4.91-3.44,6.21-11.28,13.79-11.3.51,0,1.61,1.62,1.44,2.17-2.26,7.19-7.89,11.75-13.23,16.51C3418.61,1819.58,3418,1819.52,3417.56,1819.62Z"/><path class="cls-46" d="M3394.19,1498.8c.81.38,1.89.56,2.45,1.19,4.07,4.67,7.76,9.64,10.1,15.4.37.91-.67,2.61-1.46,3.65-.3.4-2.05.34-2.55-.13-4.85-4.65-8.4-10.3-11.43-16.21C3390.41,1501,3391.85,1499.14,3394.19,1498.8Z"/><path class="cls-47" d="M3431.21,1554.16c.89,3.18-.06,4.22-1.45,4.68a3.34,3.34,0,0,1-2.63-.34,7.8,7.8,0,0,1-2.8-3.12c-2.06-5.49-8.74-9.1-6.67-16.19a2.74,2.74,0,0,1,2.45-1C3426.78,1542.12,3428.56,1549.32,3431.21,1554.16Z"/><path class="cls-48" d="M3285.87,1295.8c.15-1.23-.81-4.21,2.74-4.45,2.35-.17,3.13,1.92,3.52,3.81,1,5.18,2,10.37,2.87,15.59a3,3,0,0,1-2.24,3.22c-1.72.65-2.81-.57-3.43-1.8C3286.89,1307.35,3286.05,1302.12,3285.87,1295.8Z"/><path class="cls-49" d="M3367.54,1459.86c4,.43,5.17,4.06,6.79,6.75,2.3,3.81,8.9,9,4.71,11.82-5.78,3.88-7.27-4.88-10.49-8.27a16.83,16.83,0,0,1-3.66-6.1A3.1,3.1,0,0,1,3367.54,1459.86Z"/><path class="cls-50" d="M3632.8,1126c5.49,5-.89,6.52-2.76,9.35-5.74-1.14-12.94,8.66-16.15.67-1.81-4.49,8.79-5.08,13.42-8.08C3628.89,1126.9,3631,1126.62,3632.8,1126Z"/><path class="cls-51" d="M3293.66,1174.4c-1.46-.48-2.36-1.2-2.37-3,0-5.92,5.6-19,8.51-19.15.79,0,2.24.72,2.34,1.3,1.24,7.1-2.75,13-4.79,19.33C3296.88,1174.31,3295.23,1174.67,3293.66,1174.4Z"/><path class="cls-52" d="M3309.6,1354.19c.12,2.48-.45,3.82-1.85,4.36a2.84,2.84,0,0,1-3.6-1.53c-2.74-6-7.05-11.63-5.87-18.81.26-1.58,2.66-2.11,3.42-1.26C3306.26,1342.12,3307.31,1348.93,3309.6,1354.19Z"/><path class="cls-53" d="M3455.77,1757.81c1.93,11.44-4,17-7.88,23.3-.91,1.48-2.66,1-3.82.09a2.85,2.85,0,0,1-1-2.4C3445.74,1771.8,3448.7,1764.94,3455.77,1757.81Z"/><path class="cls-54" d="M3359.82,1867.56c-.13.89-3.77,2-6.67,3.29-4,1.84-9.15,8.67-12.3,3.23-3.27-5.64,5.47-6.16,8.9-8.85,2.2-1.73,5.14-2.68,7.89-3.47C3359,1861.36,3360.32,1862.49,3359.82,1867.56Z"/><path class="cls-55" d="M3302,1894.43c-2.86-.63-5.06-.43-5.21-3.07-.1-1.65,1-2.58,2.39-3.12,4.9-1.91,9.8-3.83,14.76-5.58,1.92-.68,3.74-.24,4.55,2a2.76,2.76,0,0,1-1.58,3.53C3311.67,1890.5,3306.36,1892.6,3302,1894.43Z"/><path class="cls-56" d="M3324.1,1113.34c.26,2.39-8,16.54-10.81,17.73a2.51,2.51,0,0,1-3.48-1.44c-1.28-3.42,7.41-18.33,11.12-19.08C3322.55,1110.22,3323.56,1111.3,3324.1,1113.34Z"/><path class="cls-57" d="M3291.34,1196.3c-1.94,10.11-.39,17.44-4.2,24.44C3281.16,1212.07,3282,1204.64,3291.34,1196.3Z"/><path class="cls-58" d="M3342.51,1421.11c3.42.71,12.06,13.46,11.58,17.4-.31,2.48-2.58,3.49-4.13,2-4.89-4.74-8.9-10.24-10.33-17.09C3339.36,1422.09,3340.66,1420.79,3342.51,1421.11Z"/><path class="cls-59" d="M3327.82,1400.47a2.92,2.92,0,0,1-3.56-1.73c-2.78-5.84-9.09-10.38-6.9-18,.13-.46,2.13-1,2.54-.65,5.37,4.57,7.56,11.08,10.15,17.32C3330.77,1399.12,3329.27,1399.88,3327.82,1400.47Z"/><path class="cls-60" d="M3287.49,1257.08c-.63,3.51,1.88,9.34-3,9.55-5.36.23-3.77-5.91-3.56-9.21.27-4.13-3.37-11.52,3.77-11.49C3289,1245.94,3286.75,1253.19,3287.49,1257.08Z"/><path class="cls-61" d="M3444.31,1066.61c3.22-2.27,6.05-1.42,8.69,1.08,3.14,3.59,6.32,7.11,9.35,10.76,1,1.21.6,2.73-.38,3.87a2.6,2.6,0,0,1-3.79.16C3452.84,1077.83,3446.93,1073.64,3444.31,1066.61Z"/><path class="cls-62" d="M3545.55,1129.26c-10.39,3.1-16.29-1.85-22.66-4.5a2.71,2.71,0,0,1-1.16-3.69,2.82,2.82,0,0,1,3.55-1.62C3531.26,1122.05,3538.11,1122.88,3545.55,1129.26Z"/><path class="cls-63" d="M3269,1905.42c-7.16-.92-8.32-3.86-3-9,3,.69,7.46-1.58,8.45,3.08C3275.12,1903,3271.07,1903.67,3269,1905.42Z"/><path class="cls-5" d="M2469.83,960.69c3.62,7.2,2.48,14.84,2.06,22.41C2468.1,975.91,2470.89,968.12,2469.83,960.69Z"/><path class="cls-5" d="M2473.07,998c2.89,4.56,2.6,9.52,1.87,14.54C2471.44,1008.07,2473.41,1002.89,2473.07,998Z"/><path class="cls-5" d="M2467.29,936c3,3.63,2.18,7.77,1.57,11.88C2466,944.25,2467.32,940,2467.29,936Z"/><path class="cls-5" d="M2476,1030.22c3.23,3.5,2.06,7.6,1.58,11.6C2474.82,1038.26,2476.14,1034.14,2476,1030.22Z"/><path class="cls-5" d="M1871.31,980.39c-.38,1.05-.76,2.11-1.15,3.16l-1-.18c-.91-3.26-1-6.39,1.39-9.14Z"/><path class="cls-5" d="M1845,1118.57c-.18-3.29-.35-6.57,2.13-9.23C1847.29,1112.63,1847.86,1116,1845,1118.57Z"/><path class="cls-5" d="M1863.22,1015.3c-.59-3-.61-6,1.61-8.48C1864.88,1009.76,1865.58,1012.82,1863.22,1015.3Z"/><path class="cls-30" d="M987.21,2239.16c29.81-48.2,59.89-96.25,89.38-144.65,66.09-108.5,131.12-217.62,189.41-330.59,4.67-9.06,9.27-18.17,15.66-30.69,1.86,11.6,3.38,19.79,4.46,28,9.63,73.6,19.37,147.19,28.72,220.83,7.5,59.11,14.49,118.28,21.74,177.43,2.44,19.87,5,39.73,7.45,59.6.83,6.78,2,13.56,1,20.44-3.22,3.35-7.38,1.94-11.12,1.94q-167.94.12-335.89,0C994.37,2241.49,990.06,2243.31,987.21,2239.16Z"/><path class="cls-64" d="M1298.35,1129.72c5.7,1,8.68,5.64,12.42,9.21,9.36,8.92,20.11,16,30.44,23.7,5.83,31.8,11.74,63.6,17.44,95.44.76,4.23.5,8.64.71,13q-35.05-51.15-70.1-102.29c-1.64-2.38-3.57-4.55-5.37-6.82C1293,1153.12,1294.38,1140.84,1298.35,1129.72Z"/><path class="cls-65" d="M968.48,2247c-7.2,12.22-7.31,12.48-18.66,7.76-50.52-21-101-42.26-151.45-63.31-20.29-8.45-40.7-16.61-61-24.91-3.48-4.43-4.44-8.83.18-13.16,47.19,18.92,94.42,37.69,141.53,56.79C908.91,2222.28,939.23,2233.35,968.48,2247Z"/><path class="cls-66" d="M1543.86,2286.57c-5.13-4-11.16-2.67-16.88-2.67-46.15,0-92.31.24-138.46.31-10.82,0-14,2.69-14.75-13.16q61.63-1.07,123.22-2.14c14.18-.24,28.37-.15,42.45-2.16C1542.71,2273,1542.71,2279.89,1543.86,2286.57Z"/><path class="cls-67" d="M987.21,2239.16c6.84.2,13.67.59,20.5.58q168.66,0,337.3-.17c-.07,1.18-.15,2.36-.23,3.54q-60.1.07-120.22.13-111.45,0-222.91,0c-4.87,0-9.75-.28-14.63-.43C987.09,2241.57,987.15,2240.36,987.21,2239.16Z"/><path class="cls-66" d="M1362.21,2271.14c-2.87,1.56-5.75,1.28-8.61.08A8.46,8.46,0,0,1,1362.21,2271.14Z"/><path class="cls-68" d="M3436.18,1029.33c.58,6.31-9.62,8.65-3.58,15.55,1.26,1.44-3.66,3.88-4.66,1.61-2.92-6.59-8.73-5.8-14-6.07C3415.46,1022.36,3427.62,1031.19,3436.18,1029.33Z"/><path class="cls-69" d="M3561.25,1015.76c3.28.67,7.58,1.41,11.79,2.48,1.78.44,3.87,1.25,3.16,3.89-.6,2.27-2.63,2.84-4.49,2.68-4.33-.38-8.64-1-12.92-1.8-2.64-.48-6.87-.08-6.59-3.85C3552.57,1014.28,3557.09,1016,3561.25,1015.76Z"/><path class="cls-70" d="M3509,647.73c-.23.9-.16,2.14-.74,2.66-4.66,4.16-9.39,8.26-14.23,12.22a2.49,2.49,0,0,1-3.72-.72c-.51-.74-1.19-2.15-.88-2.55,4.47-5.7,9.66-10.66,16.34-13.7C3507,645.1,3508.41,646.27,3509,647.73Z"/><path class="cls-71" d="M3385.85,859.08c.59-3,1.27-7.31,2.34-11.52.46-1.81,1.66-3.63,4.15-2.73,2.14.76,2.76,2.54,2.45,4.61-.59,3.83-1.27,7.64-2,11.45-.55,3.07.46,8-4.66,7C3384.77,867.32,3386.05,863.17,3385.85,859.08Z"/><path class="cls-72" d="M3396,954.38c.6,4.51.33,6.58-1.75,7.19-3.06.91-4.23-1.46-4.77-3.85-1.06-4.64-2-9.31-2.77-14-.42-2.49,0-5.05,3-5.5,3.2-.48,3.7,2.48,4.18,4.61C3395,947.46,3395.62,952.18,3396,954.38Z"/><path class="cls-73" d="M3656.1,1064.75c-.55,1-.84,2-1.54,2.49a2.62,2.62,0,0,1-3.76-.43,111.78,111.78,0,0,1-6.83-9.28c-1.75-2.79-8-5.35-3.26-8.91,3.69-2.78,6.39,2.77,8.83,5.35C3652.46,1057.05,3655.09,1060.53,3656.1,1064.75Z"/><path class="cls-74" d="M3602.51,1024.57c5.64,2.49,11.34,4.87,16.87,7.59.78.38,1.41,2.78.95,3.57a4.05,4.05,0,0,1-3.58,1.5c-5.41-1.82-10.7-4-16-6.09-2.06-.81-3-2.54-2-4.45C3599.22,1025.7,3601,1025.36,3602.51,1024.57Z"/><path class="cls-75" d="M3515.7,1021.82c-2.48-.17-5.41-.24-8.29-.65-.69-.1-1.47-1.23-1.78-2a2.48,2.48,0,0,1,1.78-3.36,55,55,0,0,1,18.89-.48,2.74,2.74,0,0,1,2.64,2.79,2.84,2.84,0,0,1-2.6,2.95C3523,1021.5,3519.55,1021.56,3515.7,1021.82Z"/><path class="cls-76" d="M3408.05,1006.3c-.86-.27-2.15-.27-2.54-.86a53.05,53.05,0,0,1-7.2-18.38,2.46,2.46,0,0,1,2.24-3,3,3,0,0,1,2.49.71,54.33,54.33,0,0,1,7.22,18.41C3410.57,1004.76,3409.45,1005.73,3408.05,1006.3Z"/><path class="cls-77" d="M3432.26,734.92c-2.21-.85-3-2.61-1.88-4.51,3.39-5.76,5.57-12.46,11.84-16.06.44-.25,1.86.46,2.3,1.09,1.39,2-5.46,15.33-9.56,18.59A8.33,8.33,0,0,1,3432.26,734.92Z"/><path class="cls-78" d="M3422.27,758.25c-2.44,6.08-4.44,12.9-8.81,18.65a2.66,2.66,0,0,1-2.56.12c-.85-1-2-2.75-1.65-3.67,2.22-5.77,4.7-11.46,7.41-17,.39-.81,2.47-1,3.76-1C3420.9,755.29,3421.37,756.74,3422.27,758.25Z"/><path class="cls-79" d="M3405.11,802.28a5.15,5.15,0,0,1-.19,1.43c-2.45,6-.89,13.65-7.44,17.85-.36.23-2.07-.62-2.18-1.16-1.46-7.09,2.3-13.15,4.15-19.58a2.95,2.95,0,0,1,5.66,1.46Z"/><path class="cls-80" d="M3662.28,1093.47c-1.37,6.41-2.76,12.5-6.63,17.57a4.09,4.09,0,0,1-3.76,1.13,4,4,0,0,1-1.6-3.53c1.68-5.47,3.77-10.82,5.68-16.22.77-2.18,2.46-3.1,4.37-2.26C3661.33,1090.6,3661.71,1092.43,3662.28,1093.47Z"/><path class="cls-81" d="M3485.08,1021.38c-8.75,4.35-15.42,4.65-21.75,6a3.12,3.12,0,0,1-4.11-2.71,2.51,2.51,0,0,1,2.29-3C3468.27,1020.41,3475,1016.55,3485.08,1021.38Z"/><path class="cls-82" d="M3390.2,904.91c-.83,3.12,2.13,9.37-2.54,9.54-6.4.24-3.34-6.5-4.14-10.29a14,14,0,0,1,0-4.34c.34-3.05-1.23-8,3.64-7.77s2.51,5.22,3,8.2A29.71,29.71,0,0,1,3390.2,904.91Z"/><path class="cls-83" d="M3474.3,680.66c-.38,2.86-11.12,15-14,15.6a2.57,2.57,0,0,1-3.21-1.93c-.52-3.37,11.18-16.21,14.73-16.27A2.18,2.18,0,0,1,3474.3,680.66Z"/><path class="cls-84" d="M3392.65,1049.84c0,.53.21,1.18,0,1.45-4.74,5.46-11,8.58-17.56,11.15-.55.22-1.87-.56-2.3-1.23s-.53-2.16-.09-2.56a54.32,54.32,0,0,1,16.78-10.52C3391.09,1047.46,3392,1048.65,3392.65,1049.84Z"/><path class="cls-85" d="M1427.58,924.15c-3.22,2.56-3.74,6.67-5.65,10-1.67,2.92-3,6-5,10.12-24.9-15.78-45.83-35.92-69.22-52.74,3.47-23,4.53-46.15,5.08-70.48L1410,886.52c2.6,1.32,4,3.71,5.46,6.07l14.63,16C1432.61,914.32,1427.66,918.85,1427.58,924.15Z"/><path class="cls-86" d="M1345.15,905.63c.28,4.79,5.16,7.4,5,13.08-.13,5.12,7,8.63,6.89,14.86-2.85.3-4.41-1.68-5.82-3.56-16.88-22.36-33.4-45-48.22-68.77-1.29-2.07-2.47-4.15-2.19-6.72l.43-.39c4.47-2.48,5.89.81,7.33,3.91,7.94,17.2,21.47,30.61,31.45,46.43C1341.19,906.3,1343.18,906.39,1345.15,905.63Z"/><path class="cls-87" d="M1331.38,937l6-.43c-8.83,10.67-76.52,45.32-99.47,50l83.73-44.47C1325.23,941,1326.93,936.39,1331.38,937Z"/><path class="cls-88" d="M1237.32,1009.31a1.79,1.79,0,0,0,1.75.3c-11.37,7.31-11.44,7.33-15.09-4.89-7.52-25.15-12.24-51-17.42-76.65-.65-2.85-2.53-6.35,3.11-5.89,6.06,27,14.24,53.46,18.72,80.8C1229.26,1008.26,1231.7,1010.92,1237.32,1009.31Z"/><path class="cls-89" d="M1415.41,892.59c-2.51-1.41-4.92-2.9-5.46-6.07,5.39-2.76,6.13-8.51,8.34-13.23,8.06-17.17,15.82-34.48,23.87-51.65,2-4.23,3.55-8.83,9.17-14.08C1442,838.88,1427.18,865.11,1415.41,892.59Z"/><path class="cls-90" d="M1209.67,922.18c-2.58,1.16-2.42,3.75-3.11,5.89-4.09-7.74-9-15.83-9.28-24.25s-.42-17-.57-25.74C1203.32,892.14,1206.84,907.05,1209.67,922.18Z"/><path class="cls-91" d="M1243.77,965.7c-8.79-1.23-15.76-5.21-22.28-15.29C1232.47,953.73,1238.4,959.26,1243.77,965.7Z"/><path class="cls-92" d="M1331.38,937c-2.7,2.74-5.61,5.08-9.73,5.12,3.7-7.92,7.18-16,16-21.58C1339.19,927.92,1332.54,931.51,1331.38,937Z"/><path class="cls-93" d="M1138,1048.09c-5.68,5.78-10.33,12.73-19.2,15C1122.2,1053.84,1124.48,1051.93,1138,1048.09Z"/><path class="cls-94" d="M1211,1044.08c-1.84-14.21-1.84-14.21,2.89-23.16C1216.51,1030.43,1216.51,1030.43,1211,1044.08Z"/><path class="cls-95" d="M1204.65,1110.48c15.74-1.3,15.74-1.3,23.41,3.46C1218.07,1115.88,1218.07,1115.88,1204.65,1110.48Z"/><path class="cls-96" d="M996.44,987.77c7.23,4,10.13,10.44,14,17.15C999.85,1000.52,999,999.5,996.44,987.77Z"/><path class="cls-97" d="M1338,830.76c-3.35,6.78-8.75,10.71-18.06,12.58C1324.93,835.49,1331.53,833.28,1338,830.76Z"/><path class="cls-98" d="M1055.2,1070.36c-6.63,1.74-13.09,2.87-20.12-2.22C1043.44,1063.85,1049.28,1068.19,1055.2,1070.36Z"/><path class="cls-99" d="M1094.46,997c-9,2.87-16-.31-24.21-3.57C1079.56,990.37,1086.54,993.29,1094.46,997Z"/><path class="cls-100" d="M1222.23,885.83c7.26-5.61,13.86-5.6,21.72-5.11C1234.72,886.08,1234.72,886.08,1222.23,885.83Z"/><path class="cls-86" d="M1300.83,854.52c-1.09-.78-2.46-1.36-3.21-2.39-.94-1.31-3.06-3-.45-4.49.38-.22,2.23,1.48,2.93,2.58a14.81,14.81,0,0,1,1.16,3.91Z"/><path class="cls-86" d="M1356.91,933.41c4.57,1.34,5,5.93,7.23,9.15C1359.13,941.56,1356.65,938.57,1356.91,933.41Z"/><path class="cls-101" d="M1909.17,871.81a4.68,4.68,0,0,1-6.06,2.65c-35.54-10.75-72-12.46-108.79-11.43-.91,0-1.84-.59-3.87-1.28,36.22-8,70.63-4,104.71,6.09,4.66,1.38,9.35,2.65,14,4Z"/><path class="cls-102" d="M1877.25,838.55c-30.18-6.18-60-14.89-91.33-14.75C1817.87,818.86,1848.16,824.61,1877.25,838.55Z"/><path class="cls-103" d="M1758.76,973.63c1.49,4.92,5,9.22,4.91,16-9.88-6.18-11.94-17.32-19.45-23.91.75-4.32-4-7.66-1.56-13.87C1750.58,957.75,1753.78,966.43,1758.76,973.63Z"/><path class="cls-104" d="M1820.51,933.47c.17,13.72,1.78,27.52-2,41.06l-3.43,0a322,322,0,0,1-.45-43.15C1818.62,926.43,1818.43,933.1,1820.51,933.47Z"/><path class="cls-105" d="M847.85,2263.2c10.24-12,16.5-14,30.54-9.14,17.23,6,29.14,19,40.65,32.31,4.37,5.06,7.7,11.12,13.41,14.57,5.59-1.92,7.49-6.77,10.4-10.55a143.57,143.57,0,0,1,29.18-28.5,49.67,49.67,0,0,1,18.4-8.58c11.22-2.56,20.7.76,25.61,9s3.41,18.07-4.41,26.78c-7,7.82-16.06,12.61-25.84,15.92-7.82,2.64-15.95,4.37-23.72,7.1-5.1,1.79-2.82,3.63.67,4.79a4.5,4.5,0,0,1-4.43,3.09c-23.68-1.14-47.38-.9-71.4,0,1.2-6.47,7.58-4.73,10-8.93-7.33-2.7-14.61-5.28-21.81-8.07s-14.23-6.55-19.78-12.14C847.7,2283.21,843.5,2274.29,847.85,2263.2Z"/><path class="cls-106" d="M743.16,2300.65c-.13,13.39-9.89,24.13-22,24.25-13.09.13-22.92-9.94-22.55-23.09.38-13.46,10.26-23.65,22.67-23.38C733.82,2278.69,743.29,2288.29,743.16,2300.65Z"/><path class="cls-107" d="M1013,2460.67c-18.89-3.4-35.92-12.21-53.51-19.13-77.6-30.53-154.93-61.76-232.31-92.87-5.71-2.29-12.12-3.58-16.28-8.84l-.16.19c19.66,4.2,37.77,12.81,56.29,20.13q117.07,46.28,233.91,93.1c4.42,1.77,9.44,2.6,12.63,6.74Z"/><path class="cls-108" d="M962.7,2325.9l15,5.47c-1.17,3.64-4.21,3.67-7.14,3.5-22.45-1.31-44.91-.76-70.43,0,8.76-6.95,16.48-8.74,24.48-9.74C937.33,2323.56,950,2324.86,962.7,2325.9Z"/><path class="cls-109" d="M977.29,2340.64l15.28,5.29c-1.18,6-5.64,3.84-9.22,3.66a523.73,523.73,0,0,0-64.25.44c5.86-6.57,10.67-8.89,21.66-10.12C953,2338.55,965.13,2339.6,977.29,2340.64Z"/><path class="cls-110" d="M1042.47,2410.56c-2,2.65-4.91,3-7.86,3.05-19.58.36-36.08,7.37-49,22.37-.76.89-1.71,2.26-4.51.89,10.1-15.71,23.46-25.43,42.31-26.53,6.31-.37,12.67.11,19,.2Z"/><path class="cls-107" d="M1028,2466.14c-5.9.65-10.75-1.57-15-5.47,0,0,.56-.67.57-.67,5.66.07,10.61,1.75,14.25,6.35Z"/><path class="cls-107" d="M710.87,2339.83a16.2,16.2,0,0,1-2.88-.09c-1.11-.22-3.29.24-2.91-1.38.32-1.4,2.42-.9,3.64-.3a9.22,9.22,0,0,1,2,2Z"/><path class="cls-107" d="M1027.79,2466.35a30.53,30.53,0,0,1,4.28.07,5.11,5.11,0,0,1,2.33,1.11c-.52,1.85-2.18,1.78-3.43,1.23s-2-1.72-3-2.62Z"/><path class="cls-107" d="M1046.64,2474.65l-2.2-1.25a6.35,6.35,0,0,1,2.36-.82c.77.06,1.48.76,2.22,1.18Z"/><path class="cls-111" d="M1421.43,634.08c.72,15.11,1.57,30.21,2.06,45.33.16,4.89,2.22,12-7.45,9.67-1.85-.45-3.1.83-3,2.09,1.23,10.48-5.6,10.48-12.87,10.34a5.55,5.55,0,0,0-3.7,2.07c-6.55,8.12-8.25-.24-12.3-2.53a13.08,13.08,0,0,1,10.92-5.13c7.49,0,14.06-.25,12.56-10.66-.18-1.27.43-3.51,2.16-3.32,12.4,1.31,8.07-7.78,7.86-13.3-.55-14.12-3.51-28.14-1.72-43.25,4.34,1.73,2.12,7.37,5.64,8.89Z"/><path class="cls-112" d="M1389.54,656.62c-.35,4.27.2,9.33-5.31,10.62-5.23,1.22-10.16-5-9.85-11.82.23-5.28,1.69-10.25,8.12-9.76S1389.29,651.56,1389.54,656.62Z"/><path class="cls-113" d="M1304.05,680.82c-4.62-4.52-4.48-10.45-9-13-4.84-2.67-4.21-3.72.7-5.41,2.85-1,1.52-4.08.44-6.24-2-3.86-4-7.67-6.13-11.76C1302.05,648.91,1308.08,663.91,1304.05,680.82Z"/><path class="cls-111" d="M1423.74,656.8c.38-5.46,1-11,7.82-12,4.63-.66,8.14,4.91,8,11.63-.08,5.58-2.56,9.31-8.12,10.25C1426.89,667.44,1423.76,663.21,1423.74,656.8Z"/><path class="cls-111" d="M1421.64,634.28c-2.15-6.54.4-10.28,7-11,5.78-.65,14.12,4.23,15.2,8.81s-2.08,6.34-5.76,5.82c-5.62-.8-11.12-2.5-16.67-3.81Z"/><path class="cls-114" d="M1383.43,613.7c4.61,0,7.48.63,8.57,3.9s-.82,5.48-3.52,7a14.23,14.23,0,0,1-2.67,1.12c-4.48,1.52-8.84,4.59-13.76,1.58a3.78,3.78,0,0,1-1.27-5.14A15.12,15.12,0,0,1,1383.43,613.7Z"/><path class="cls-115" d="M3723.57,580.41c7.37-6.55,14-14.18,24.2-16.62l-.2-.26c-5.23,6.28-9.72,13-9.35,22.05-6.63-2.13-1.53-5.63-4.13-8.3l-9,4.86C3723.71,582.36,3723.15,581.83,3723.57,580.41Z"/><path class="cls-116" d="M3708.26,592.18l5.57-6.17c-7.26-3.55-15.19,1-22.82-3,11.22-3.91,22.19,0,32.56-2.57a6.35,6.35,0,0,0,1.55,1.72A45.36,45.36,0,0,1,3710.21,594C3708.87,594.13,3708.18,593.56,3708.26,592.18Z"/><path class="cls-117" d="M3703.58,604.74c-1.13,8.2-4.69,15.34-10.4,23.93-.22-10.19,4.51-16.69,7.15-23.78A2.1,2.1,0,0,1,3703.58,604.74Z"/><path class="cls-118" d="M3703.58,604.74l-3.25.14c-6.6,0-9.43,8-17.33,8.12,3.89-5.71,8.05-9.31,13.47-11.49,2.58-1.19,5.12-1.68,7.51.44A3.39,3.39,0,0,1,3703.58,604.74Z"/><path class="cls-117" d="M3704,602l-7.5-.44c3.28-3.92,6.88-7.44,11.78-9.33a8.23,8.23,0,0,1,1.95,1.82Z"/><path class="cls-18" d="M3735.75,554.39c2.56-3.15,5.91-3,9.42-2.26A12.06,12.06,0,0,1,3735.75,554.39Z"/><path class="cls-119" d="M3735.8,522.33a6.64,6.64,0,0,1,.29,2.87c-3.89.24-7.83,1-11.64.62-13.08-1.4-25.09.28-35,9.92-1,.92-2.6,1.17-4,1.61-.33.1-.82-.31-1.55-.61-.11-5.78,7.46-5,8.67-10.25-17.59-4.1-35.67-3.22-53.46-5.15,11.28-3.64,23.24.5,34.36-3.81-.26-1.37.3-1.95,1.68-1.73,12.87,6.19,26.77,4.66,40,6.24,2-4.1-3.37-5.19-1.87-8.36,1.42-1.52,2.77-.41,3.78.38C3722.6,518.42,3727.35,524.54,3735.8,522.33Z"/><path class="cls-120" d="M3673.49,517.53c-7.95-2.58-14.23-7.77-20.06-13.85,8.32,2,15.43,6.26,21.73,12.12A15.17,15.17,0,0,0,3673.49,517.53Z"/><path class="cls-11" d="M2544.61,1984.93a73.85,73.85,0,0,1-74.61-74.06c-.07-41.48,32.61-74.81,73.76-75.21a75,75,0,0,1,75.6,75.07C2619.28,1951.77,2586,1984.79,2544.61,1984.93Z"/><path class="cls-11" d="M2029.66,1910.68c0,41.47-32.66,74.17-74.3,74.32a75,75,0,0,1-75.1-74.1c-.55-40.52,33.29-74.87,74.11-75.24C1996.32,1835.28,2029.62,1868.46,2029.66,1910.68Z"/><path class="cls-121" d="M2259.59,1900.08c38,1.83,79.64,31.87,109.35,81.12,3.38,5.59,2.21,8.5-3.24,11.46s-8.91,4.15-12.88-2.65c-16.69-28.63-39.72-50.59-70.57-63.59-19.3-8.13-39.53-11.26-60.24-8.07-34,5.23-56,25.69-69.49,56.39-1.76,4-3,8.26-4.5,12.38-2.77,7.52-4.88,8.28-13.06,6.26-7.48-1.84-5.65-6.66-4.17-11.38C2143.7,1940.52,2177.5,1897.88,2259.59,1900.08Z"/><path class="cls-122" d="M1573.24,2452.27c-42.93,1.84-85.85,2.7-128.77-.34-5.32-.38-10.65-.54-16-2.75l143-1.22C1572.07,2449.4,1572.66,2450.83,1573.24,2452.27Z"/><path class="cls-123" d="M1555.07,2352c-16.72-.17-24.21-6.56-27.86-23.76,1.78-10.52,8.78-15.9,18.42-18.68,2.36,1.68,2.8,4.14,2.79,6.79-14.14,12.24-2.56,20.29,4.74,29Z"/><path class="cls-124" d="M1553.16,2345.38c-2.2-.9-4.64-1.44-6.57-2.75-14.66-9.93-14-18.6,1.83-26.28C1552.06,2325.69,1552.64,2335.53,1553.16,2345.38Z"/><path class="cls-125" d="M1424.64,2389.19c12.65-1.12,21.62,8.83,22.34,22,.73,13.47-9.21,23.31-22.68,23.23-12.89-.07-22.09-9.14-22.43-22.12C1401.51,2398.87,1411.1,2389.14,1424.64,2389.19Z"/><path class="cls-126" d="M1687.21,1007.52c14.85,3.69,27.06,11.14,38.43,21.21C1713.22,1028.46,1698.53,1020.59,1687.21,1007.52Z"/><path class="cls-127" d="M1711.84,1084.5c-7.4,3-13.25,2.38-19,2.45-8.23.1-16.51.57-24.79-1.42C1676.7,1078.94,1694.67,1078.2,1711.84,1084.5Z"/><path class="cls-128" d="M941.68,2307.19a10.31,10.31,0,0,1,2.79-8.84c9.11-10.14,18.43-20.09,29.39-28.28,7.55-5.64,16-9.43,25.58-9.2,8,.19,11.49,4.38,10.66,12.25s-5.09,13.63-11.77,17.45C980.78,2300.62,961.53,2304.73,941.68,2307.19Z"/><path class="cls-129" d="M907.41,2284.41c7.41,6.2,12.87,14.09,20.25,22.28-5.44,1.95-9.25.29-13.15-.71-15-3.84-30.36-6.46-44.31-13.7-10.35-5.37-16.53-13.33-15.38-25.57.1-1.14,1.58-2.16,2.42-3.24C873.58,2271.37,890.51,2277.86,907.41,2284.41Z"/><path class="cls-130" d="M907.41,2284.41a3.6,3.6,0,0,1-4.86,1.8c-13.54-5.33-27-10.78-40.6-16.1a6.94,6.94,0,0,1-4.71-6.64c11.32-7.26,21.21-1.28,30.66,4C895.41,2271.7,901.53,2278,907.41,2284.41Z"/></g></g></svg>