<svg xmlns="http://www.w3.org/2000/svg" viewBox="0 0 515 515"><defs><style>.cls-1{fill:none;stroke:#1e3a89;stroke-miterlimit:10;stroke-width:25px;}.cls-2{fill:#1e3a89;}</style></defs><title>plus</title><g id="Layer_2" data-name="Layer 2"><g id="Layer_1-2" data-name="Layer 1"><circle class="cls-1" cx="257.5" cy="257.5" r="245"/><path class="cls-2" d="M389.87,257.11a10,10,0,0,1-9,9.7,39.51,39.51,0,0,1-5,.11c-34.64,0-69.28.09-103.92-.11-4.24,0-5.17,1.14-5.12,5.22.24,18.49.11,37,.11,55.46,0,18.65,0,37.31,0,56-.05,8.9-7.73,14.07-14.71,10-3.84-2.24-5.11-5.84-5.1-10.16.06-17.82,0-35.64,0-53.46,0-19.31-.15-38.64.12-57.95.06-4.33-1.27-5.08-5.27-5.06-34.64.16-69.28.09-103.92.09a37.67,37.67,0,0,1-5-.13,9.84,9.84,0,0,1,.05-19.59,39.46,39.46,0,0,1,5-.12c34.64,0,69.28-.07,103.92.1,4.09,0,5.23-.88,5.21-5.11-.19-33-.11-65.95-.11-98.93,0-1.5-.07-3,0-4.49.48-5.5,4.54-9.49,9.67-9.59,5.31-.1,9.59,4,10.05,9.72.12,1.49.05,3,.05,4.5,0,33,.06,65.95-.09,98.92,0,3.78.78,5,4.83,5,34.64-.18,69.28-.1,103.92-.1a49,49,0,0,1,5,.08C386,247.75,389.94,252,389.87,257.11Z"/></g></g></svg>