<svg xmlns="http://www.w3.org/2000/svg" viewBox="0 0 427 427"><defs><style>.cls-1{fill:#fff;}</style></defs><title>power-off</title><g id="Layer_2" data-name="Layer 2"><g id="Layer_1-2" data-name="Layer 1"><path class="cls-1" d="M236,197V21S234,0,215,0s-23,18-23,18V197s0,18,21,18S236,197,236,197Z"/><path class="cls-1" d="M343.1,43.94A21.83,21.83,0,0,0,320.5,78.5h-.05l1.65,2.37h0c48.35,39.64,74.69,105.16,57.74,175.2-15.28,63.09-65.94,111.74-129.48,125.05C139.78,404.31,42,320.12,42,213.5a171.26,171.26,0,0,1,64.58-134h-.08A22.29,22.29,0,0,0,81.17,46.06,213.26,213.26,0,0,0,0,212.5C-.53,328.63,92.87,424.54,209,427c119.78,2.49,218-94.23,218-213.45A213.28,213.28,0,0,0,343.1,43.94Z"/></g></g></svg>