<svg xmlns="http://www.w3.org/2000/svg" viewBox="0 0 449 384"><defs><style>.cls-1{fill:#fff;}</style></defs><title>publish</title><g id="Layer_2" data-name="Layer 2"><g id="Layer_1-2" data-name="Layer 1"><path class="cls-1" d="M400,0H49A49,49,0,0,0,0,49V335a49,49,0,0,0,49,49H400a49,49,0,0,0,49-49V49A49,49,0,0,0,400,0Zm16,338.23A13.76,13.76,0,0,1,402.23,352H46.34a13.77,13.77,0,0,1-13.77-13.77V128H416Zm0-241.4H33V46.93A13.76,13.76,0,0,1,46.77,33.17H402.23A13.76,13.76,0,0,1,416,46.93Z"/><circle class="cls-1" cx="323.5" cy="66.5" r="17"/><rect class="cls-1" x="353.5" y="50.5" width="52" height="32" rx="16"/><path class="cls-1" d="M266.5,238.5c-8,8-18,2-18,2l-10-9v59s0,12.19-13,13.82c-.48.06-1,.11-1.5.14s-1-.08-1.5-.14c-13-1.63-13-13.82-13-13.82v-59l-10,9s-10,6-18-2a17.41,17.41,0,0,1-2.51-3.16,18,18,0,0,1,2.82-22.15L217.5,177.5a13.87,13.87,0,0,1,6-1.95l.5,0,.5,0a13.87,13.87,0,0,1,6,1.95l35.69,35.69A18,18,0,0,1,269,235.34,17.41,17.41,0,0,1,266.5,238.5Z"/></g></g></svg>