<svg xmlns="http://www.w3.org/2000/svg" xmlns:xlink="http://www.w3.org/1999/xlink" viewBox="0 0 1241.29 1241.35"><defs><style>.cls-1{fill:url(#linear-gradient);}.cls-2{fill:url(#linear-gradient-2);}</style><linearGradient id="linear-gradient" x1="234.47" y1="1066.79" x2="1053.09" y2="120.73" gradientUnits="userSpaceOnUse"><stop offset="0" stop-color="#f05786"/><stop offset="0.93" stop-color="#f6908c"/></linearGradient><linearGradient id="linear-gradient-2" x1="364.56" y1="620.95" x2="876.31" y2="620.95" xlink:href="#linear-gradient"/></defs><title>red_cross</title><g id="Layer_2" data-name="Layer 2"><g id="Layer_1-2" data-name="Layer 1"><path class="cls-1" d="M1221.83,467.66q-49-190.29-198.58-318.41C908.39,51,774.49,2.55,624,.08,555.49-1,488.31,10.26,423.27,32.39c-50.09,17-98,38.7-141.5,69.4a48.22,48.22,0,0,0-5.8,2.89c-125.32,85.56-209.81,201-252.43,346.65C13.94,484.14,6.17,517.56,4.62,552h0C.35,572.41.16,593.22,0,613.81c-.61,86.84,15,170.83,50,250.45,70.36,160.19,187.18,272.77,350.37,336.25,96.16,37.4,196,48.54,298.24,35.78,53.35-6.66,105.32-19.57,154.79-41.32,4.52-1.58,9.17-2.86,13.56-4.77a613.88,613.88,0,0,0,159-100q139-120.68,189.71-297.54c.72-1.09,1.78-2.08,2.11-3.27C1247.25,682.52,1249.49,575.1,1221.83,467.66ZM1110,741.16c-29.13,116.67-92.08,211.05-187.71,283.51a491.25,491.25,0,0,1-141.9,74.5c-3.73,1.24-9.19,1-11.1,5.49-.75-.15-1.52-.27-2.32-.36-4.48,0-8.61,1.61-12.86,2.74-63.16,16.83-127.28,22.83-192.2,14.53-130.38-16.66-239.21-74.37-324.93-174.24C173.09,873,134.92,786.72,121.21,689.6c-2.7-19.13-2.89-38.53-6.78-57.51a17.8,17.8,0,0,0-1.26-1.34c3-2.65,3-6.5,2.94-10.09-.11-14.52,1.47-28.92,2.42-43.38,2.67-40.69,11.26-80.21,24.53-118.45Q197.42,302.09,333.28,206c13.87-9.76,29.9-16.73,41.26-30,0-.18.07-.36.09-.53.48.64.94,1.29,1.39,2,5.57.16,10.1-2.8,14.78-5.15C477.41,128.77,568.69,110,665.62,119c113.66,10.51,212.78,54.31,296.49,131.12,77.71,71.31,128.05,159.38,150.53,262.8,10.62,48.85,14.88,98.07,10.07,148.14-2,20.52-6.77,40.72-6.58,61.45a6.28,6.28,0,0,0,1.92,1.46C1111.36,727.79,1111.5,735,1110,741.16Z"/><path class="cls-2" d="M876.31,420.59c-.73,18.64-9,33.45-22.1,46.42C806.39,514.52,759,562.5,711,609.81c-8.28,8.16-9.44,12.68-.42,21.53,49.39,48.43,98.18,97.47,146.9,146.59,23.95,24.14,25,57.73,3.21,80.51-23.26,24.36-57.93,24.16-83.3-1.05-48.77-48.44-97.52-96.9-145.63-146-9-9.21-13.61-9-22.5.1-48.13,49.08-96.86,97.56-145.63,146-24.72,24.55-58.3,25.49-81.45,2.93-23.79-23.17-23.59-57.4,1.17-82.34q73.09-73.65,146.91-146.58c8.65-8.49,8.68-13,0-21.53q-72.6-71.33-144.09-143.79c-30.28-30.51-21.75-77.68,16.6-93.89,21.83-9.22,45.06-4,63.91,14.82,47.43,47.29,95,94.44,141.92,142.23,8.94,9.12,13.67,10.56,23.48.51,47.06-48.26,95.13-95.53,142.74-143.27,16.62-16.67,35.61-25.53,59.53-19.36C857.92,373.3,875.87,396.22,876.31,420.59Z"/></g></g></svg>