<svg xmlns="http://www.w3.org/2000/svg" xmlns:xlink="http://www.w3.org/1999/xlink" viewBox="0 0 1875.82 1543.77"><defs><style>.cls-1{fill:url(#linear-gradient);}</style><linearGradient id="linear-gradient" y1="771.89" x2="1875.82" y2="771.89" gradientUnits="userSpaceOnUse"><stop offset="0" stop-color="#019af6"/><stop offset="0.93" stop-color="#27ea9a"/></linearGradient></defs><title>step6</title><g id="Layer_2" data-name="Layer 2"><g id="Layer_1-2" data-name="Layer 1"><path class="cls-1" d="M412.57,1332.22c-.5,17.52-14.09,29-35.08,29.2-26.87.2-53.74,0-80.6,0-28.09,0-56.18.2-84.27-.07-21.47-.2-33.82-11.41-33.86-30s12-29.82,33.73-29.94q82.44-.46,164.87,0C399.71,1301.59,413.1,1313.74,412.57,1332.22Zm123.18-202.83c.58-28.07.4-56.16.1-84.23-.51-47.58-31.73-78.83-79.54-79.05q-105.29-.5-210.57,0c-47.3.2-79.54,32.09-80.2,79q-.58,40.28,0,80.57c.59,46.58,32,78.12,78.28,78.54,35.4.32,70.8.06,106.2.06h106.2c1.23,0,2.45,0,3.67,0C503.39,1203.46,534.86,1172.77,535.75,1129.39Zm173,172.1q-82.47-.43-164.94,0c-22.47.11-35.18,12-34.59,31,.56,18,13.32,28.75,35,28.91,27.49.2,55,0,82.47,0,26.88,0,53.76.14,80.63,0,21.9-.15,36.19-12.35,36-30.29C743.23,1313.63,729.82,1301.6,708.78,1301.49Zm331.58,0c-27.4-.43-54.81-.1-82.22-.1-28.63,0-57.26-.35-85.88.12-19.61.32-32.57,12.46-32.82,29.32-.27,17.66,13.27,30.43,33.63,30.53q83.13.36,166.27,0c21.07-.07,34.22-11.69,34.53-29.51S1061.28,1301.84,1040.36,1301.51Zm329.78,0q-82.47-.46-164.93,0c-22,.11-35.9,12.77-35.18,30.92.68,17.27,14.58,28.87,35.43,29,26.87.2,53.75,0,80.63,0,28.1,0,56.2.21,84.29-.07,21.19-.21,33.77-11.76,33.76-30.17S1391.89,1301.63,1370.14,1301.51ZM1873.6,373.8q-62,357.63-124.73,715.16c-12.17,69.28-66.2,105-137,92-28.8-5.28-28.8-5.28-28.8,23.24q0,111.75,0,223.52c-.12,71.26-43.69,115.38-115.24,115.74-89.16.45-178.33.12-267.49.12q-539.55,0-1079.1.19c-37.2,0-69.9-8.67-95.47-37.36C12.87,1492,7.1,1474,0,1456.72V672.34c9.49-23.71,19.25-47.09,41-63,18.81-13.7,39.2-22,62.71-21.92,37.25.06,74.51-.36,111.75.16,10.51.15,14.56-2.76,16.42-13.72,18.83-111.19,38.28-222.27,57.67-333.36,8.91-51,16.83-102.26,27.43-152.93,13.09-62.56,67-97,132.13-85.39q324.09,57.57,648,115.87Q1438.32,179,1779.5,239.77C1848.18,252,1885.59,304.73,1873.6,373.8ZM1521.88,703.58c0-40.38-16.14-56.43-56.75-56.43q-674.25-.06-1348.49,0c-39.16,0-55.78,16.52-55.79,55.65q-.12,361.86,0,723.72c0,40.8,15.52,55.91,56.82,55.92q336.21,0,672.41,0,338,0,676.08,0c39.81,0,55.72-15.63,55.73-55.13Q1522,1065.44,1521.88,703.58Zm245.75-169.91q-198.2-34.69-396.24-70.29-262.91-46.87-525.8-93.84c-161.47-28.76-323-57-484.35-86.6C345,280,343.1,285.81,341,298.28Q318.23,431.72,294.67,565c-3.94,22.41-4.22,22.39,18.13,22.39H895.55c190.58,0,381.18,1.34,571.74-.71,67.58-.73,117.35,49.61,116.3,117.09-1.89,122.15-.53,244.34-.53,366.51,0,43.76,0,43.76,43.4,51.73,33.78,6.21,57.11-10,63.2-44.2,5.56-31.21,11-62.46,16.42-93.69C1731.15,840.58,1756,697,1781.61,553.52,1784.05,539.85,1780.43,535.91,1767.63,533.67Zm-2.4-235.17q-148.55-26.17-297-52.71-230.37-41.22-460.72-82.66Q724,112.55,440.41,62.27c-36.13-6.45-59.76,9.1-66,44.92-4.21,24-8,48.09-12,72.14-2.09,12.59-9.47,27.77-4.91,37.1,5.42,11.07,23.52,7.65,36.19,9.95q159.57,29,319.21,57.45Q873.39,312.62,1034,341.24q147.08,26.26,294.15,52.5,160.56,28.61,321.13,57.15c43,7.68,86,15.81,129.16,23.05,6.4,1.08,15.83,6,18-7.74,6-37.91,13.08-75.66,18.58-107C1816.1,321.68,1800.07,304.64,1765.23,298.5Zm-1387.87,1003q-82.44-.39-164.87,0c-21.71.12-33.77,11.38-33.73,29.94s12.39,29.75,33.86,30c28.09.27,56.18.07,84.27.07,26.86,0,53.73.15,80.6,0,21-.16,34.58-11.68,35.08-29.2C413.1,1313.74,399.71,1301.59,377.36,1301.49Zm158.39-172.1c.58-28.07.4-56.16.1-84.23-.51-47.58-31.73-78.83-79.54-79.05q-105.29-.5-210.57,0c-47.3.2-79.54,32.09-80.2,79q-.58,40.28,0,80.57c.59,46.58,32,78.12,78.28,78.54,35.4.32,70.8.06,106.2.06h106.2c1.23,0,2.45,0,3.67,0C503.39,1203.46,534.86,1172.77,535.75,1129.39Zm173,172.1q-82.47-.43-164.94,0c-22.47.11-35.18,12-34.59,31,.56,18,13.32,28.75,35,28.91,27.49.2,55,0,82.47,0,26.88,0,53.76.14,80.63,0,21.9-.15,36.19-12.35,36-30.29C743.23,1313.63,729.82,1301.6,708.78,1301.49Zm331.58,0c-27.4-.43-54.81-.1-82.22-.1-28.63,0-57.26-.35-85.88.12-19.61.32-32.57,12.46-32.82,29.32-.27,17.66,13.27,30.43,33.63,30.53q83.13.36,166.27,0c21.07-.07,34.22-11.69,34.53-29.51S1061.28,1301.84,1040.36,1301.51Zm329.78,0q-82.47-.46-164.93,0c-22,.11-35.9,12.77-35.18,30.92.68,17.27,14.58,28.87,35.43,29,26.87.2,53.75,0,80.63,0,28.1,0,56.2.21,84.29-.07,21.19-.21,33.77-11.76,33.76-30.17S1391.89,1301.63,1370.14,1301.51ZM535.85,1045.16c-.51-47.58-31.73-78.83-79.54-79.05q-105.29-.5-210.57,0c-47.3.2-79.54,32.09-80.2,79q-.58,40.28,0,80.57c.59,46.58,32,78.12,78.28,78.54,35.4.32,70.8.06,106.2.06h106.2c1.23,0,2.45,0,3.67,0,43.51-.75,75-31.44,75.87-74.82C536.33,1101.32,536.15,1073.23,535.85,1045.16Zm504.51,256.35c-27.4-.43-54.81-.1-82.22-.1-28.63,0-57.26-.35-85.88.12-19.61.32-32.57,12.46-32.82,29.32-.27,17.66,13.27,30.43,33.63,30.53q83.13.36,166.27,0c21.07-.07,34.22-11.69,34.53-29.51S1061.28,1301.84,1040.36,1301.51Zm329.78,0q-82.47-.46-164.93,0c-22,.11-35.9,12.77-35.18,30.92.68,17.27,14.58,28.87,35.43,29,26.87.2,53.75,0,80.63,0,28.1,0,56.2.21,84.29-.07,21.19-.21,33.77-11.76,33.76-30.17S1391.89,1301.63,1370.14,1301.51Zm-661.36,0q-82.47-.43-164.94,0c-22.47.11-35.18,12-34.59,31,.56,18,13.32,28.75,35,28.91,27.49.2,55,0,82.47,0,26.88,0,53.76.14,80.63,0,21.9-.15,36.19-12.35,36-30.29C743.23,1313.63,729.82,1301.6,708.78,1301.49Zm-331.42,0q-82.44-.39-164.87,0c-21.71.12-33.77,11.38-33.73,29.94s12.39,29.75,33.86,30c28.09.27,56.18.07,84.27.07,26.86,0,53.73.15,80.6,0,21-.16,34.58-11.68,35.08-29.2C413.1,1313.74,399.71,1301.59,377.36,1301.49ZM247,1027.4c-15.25-.3-20.62,5.81-20.17,20.65.73,24.41.93,48.88,0,73.26-.74,18.16,8.11,23.62,24.35,23.57q100.75-.29,201.51,0c17.21.07,24.21-7.87,23.83-24.68-.51-22.58,0-45.19-.15-67.78-.1-21.53-3.16-24.72-24.14-24.8-33.59-.13-67.17,0-100.76,0C316.57,1027.61,281.76,1028.07,247,1027.4Z"/></g></g></svg>