<svg xmlns="http://www.w3.org/2000/svg" xmlns:xlink="http://www.w3.org/1999/xlink" viewBox="0 0 1294.86 1295.52"><defs><style>.cls-1{fill:url(#linear-gradient);}</style><linearGradient id="linear-gradient" x1="403.87" y1="1046.5" x2="1313.6" y2="125.06" gradientUnits="userSpaceOnUse"><stop offset="0" stop-color="#019cf8"/><stop offset="0.93" stop-color="#27ec9c"/></linearGradient></defs><title>step4</title><g id="Layer_2" data-name="Layer 2"><g id="Layer_1-2" data-name="Layer 1"><path class="cls-1" d="M1277.06,1204q-124.85-125.73-249.71-251.43c-18.62-18.75-18.69-18.8-2-40.35,13-16.8,25.15-34.15,34.92-53.08,1.13-1.2,2.57-2.23,3.35-3.63,75.85-135.61,96-278.61,56.81-429.46-18-75.15-53.16-141.72-99.43-203.16C888.56,47.07,651.18-38.47,438.06,16.55c-201,51.9-337,177.14-407.84,372.58-1.58,4.13-3.41,8.19-4.7,12.41Q-12.92,526.61,6.68,656c8.75,57.09,24,112.29,52,163.33C61.59,829.67,67,838.79,72.26,848,114.34,922.1,169.51,984.5,239,1033.93c117.46,83.56,248.5,117.83,391.46,103.52,108.22-10.83,205.55-50.77,290.62-119.08,9.43-7.57,14.44-7.34,23.06,1.37,57.1,57.69,114.85,114.74,172.42,172q42.89,42.61,85.91,85.09c13.33,13.13,28.75,21.9,48.2,17.65,20.54-4.49,35.18-16.43,41.68-37.09C1299,1236.22,1291.92,1219,1277.06,1204ZM912.48,878.41c-136,140.13-298.27,184.9-485.33,129.11-100.87-30.09-179.31-93.74-239.09-180.26-3.75-5.43-17-27.07-20.25-33.21-65.5-123.61-75.28-251.55-30.51-383.9,1.83-5.4,13.58-29.95,17.27-37.54,29.57-60.8,69.65-113.27,122.11-156.13,105.06-85.81,225.39-119.89,359.11-101C764,133.58,866.25,197.54,943.13,301.74,969.9,338,990,377.9,1005.45,420.25c2.18,6,8.46,30.58,10.24,37.41,10.21,39.21,13.71,79,13.47,119.51-.56,94.19-29.32,178.93-81.78,256.36C943.89,838.68,921.49,869.13,912.48,878.41Z"/></g></g></svg>