<svg xmlns="http://www.w3.org/2000/svg" xmlns:xlink="http://www.w3.org/1999/xlink" viewBox="0 0 2169.49 2127.44"><defs><style>.cls-1{fill:url(#linear-gradient);}.cls-2{fill:url(#linear-gradient-2);}.cls-3{fill:url(#linear-gradient-3);}</style><linearGradient id="linear-gradient" x1="3.2" y1="1774.52" x2="1629.07" y2="761.41" gradientUnits="userSpaceOnUse"><stop offset="0" stop-color="#019df9"/><stop offset="0.93" stop-color="#27ed9d"/></linearGradient><linearGradient id="linear-gradient-2" x1="365.43" y1="2428.15" x2="1842.19" y2="1809.25" xlink:href="#linear-gradient"/><linearGradient id="linear-gradient-3" x1="217.52" y1="2075.22" x2="1694.29" y2="1456.33" xlink:href="#linear-gradient"/></defs><title>step3</title><g id="Layer_2" data-name="Layer 2"><g id="Layer_1-2" data-name="Layer 1"><path class="cls-1" d="M2164.83,1412c-10.79-88.29-44.08-167.46-97.7-238.24.65-4.84-2.73-7.8-5.31-11-103.31-129-237.75-196.35-402.77-200-82.32-1.79-160.75,17.71-234.48,54.88-8.73,4.41-15.88,9.73-26.55,1.48-64.09-49.5-135.24-86.33-212.91-114.9,17-25.42,38-46.68,50.85-73.4,63-93.67,95.36-197.39,101.93-309.63,7.81-43.09,2.31-86-5.05-128.16-26.58-152.28-102.2-270.68-243.57-340.92C988.69,2.16,882.12-9.48,771.76,7,560.89,38.52,405.13,200.1,383.63,409.86c-7.93,50.47-7.35,101.09-.58,151.51,10.07,75,30.43,147,67.62,213.55,18.36,41.52,44,78.52,72.19,113.71,9.24,11.52,10.47,16.56-5.91,22.49a725.36,725.36,0,0,0-161.2,82.63c-80,54.37-149.56,119.4-202.56,201-2.69,3.2-5.7,6.17-8,9.62C78.07,1304.73,36.45,1415.18,13.5,1533.29c-6.65,34.19-14,222.93-12.77,222.4Q.6,1776.84.45,1798c-3.47,36,13.17,58.31,43.93,76.94,105.29,63.8,214.05,120.13,329.64,162.79,204.59,75.5,415.07,105.89,632.5,81.36,169.18-19.08,328.81-70.48,481.61-144.23,9.37-4.52,17.41-6.2,27-3.41,71.4,20.67,144.08,24,217.12,12.7,91.88-14.29,174.08-51.23,245.74-110.91,29.55-17.49,51.28-43.43,72.58-69.33,59.32-72.09,98.37-153.56,110.53-246.91.27-1.13.53-2.27.78-3.4a.13.13,0,0,0,0-.06C2172.42,1506.62,2170.61,1459.31,2164.83,1412ZM489.62,427.71c.86-7,7.4-47.75,11.45-61.58C535,250.26,605.48,168.79,721.43,129.91c63.9-21.43,129.45-28.39,196.43-18.87,71.41,10.15,137.32,33.67,192.3,82,73.91,65,110.82,148.34,120.13,245.1.86,8.9,4.16,35.94,4,42.53-3.41,113.53-35.87,217.67-100.33,311.56-4.49,6.55-22.69,31-28,37.52-38.13,47.11-82,88-135.16,117.46-68,37.65-138.17,42.86-209,6.94-75.1-38.09-132.06-96-179.08-164.74-6.3-9.23-24.14-38.41-27.29-44.35C502.68,645.64,475.72,540.94,489.62,427.71ZM1347.15,1921.3c-16.82,7.41-34.18,13.53-51.44,19.81-195.34,71-395.74,96.84-602.46,68.4C488,1981.27,301.29,1903.7,125,1797.88c-15.24-9.15-21-21.12-20.92-38.35,0-12.69.73-95.34,3.31-123.82,7.54-83,25.65-163,56.44-240.17A683.42,683.42,0,0,1,264.55,1222.3c5.33-6.69,25.4-31,31.79-37.31,22.69-22.25,44.69-45.18,69.53-65.2,67.35-54.25,142.18-94.43,224.18-121.71,16.43-5.46,29.85-3.23,43,8.06,17.2,14.76,36.69,26.44,56.43,37.49,87.67,49,179.11,62.17,275.51,28.83,44.58-15.42,84.91-38.5,121.82-67.46,12.41-9.74,24-12.19,39.11-7.33a720.27,720.27,0,0,1,164.77,76.76c18.84,11.87,19.07,15,2.85,31.57-16.79,17.16-34.79,33.24-48.62,53.08-4.11,5.9-9.58,21.1-10.73,22.78-75.2,110.76-105.85,232.16-87.1,365.33q28,198.4,182.4,325.2c9.74,15.19,35,31.55,34.3,38.17C1363,1918.58,1353.3,1918.59,1347.15,1921.3Zm270.53-33.87,76,0A171.79,171.79,0,0,1,1617.68,1887.43Zm434.5-324.15c-30.89,131.77-108.53,225.71-229.94,284.27-4.88,2.35-10.88,3.57-13.4,8.58-38.64,8.92-76.21,22.47-115.95,26.4a237.68,237.68,0,0,1-74.63-.06c-40.74-3-79.53-14.56-118.12-26.88-3.17-.19-6.33-.36-9.5-.5-53.78-25.86-102.35-59-142.65-104.07-52.47-58.67-83.71-127.53-100-203.84-.43-6.3-.64-12.61-1.3-18.88-13.62-130.86,21.86-245.14,113.28-340.54,13.38,1.89,19.59-8.91,27.74-16,81.28-71.22,176.68-105.83,283.88-101.63,93.67,3.67,177.38,37.81,249.24,99.08,5.61,4.78,10.92,10.59,18.86,10.33-1.1,9.29,6.32,14.13,11.56,19.87,82.78,90.87,119,197.38,107.75,319.89-.59,6.46-1.82,13.07,3.18,18.21C2054.84,1544.06,2054.32,1554.11,2052.18,1563.28Z"/><path class="cls-2" d="M1693.72,1887.38a171.79,171.79,0,0,1-76,0Z"/><path class="cls-3" d="M1924.22,1365.36a111.09,111.09,0,0,1-10,10.89q-136.41,136.51-272.77,273.08c-11.94,12-25,20.59-39.53,21-17.89-.13-30.22-6.49-40.57-16.82-56.53-56.43-113.21-112.73-169.32-169.58-22.53-22.83-22.65-53.11-1.91-73.72,21.15-21,50.28-20.77,73.58,2,39.91,39,80,78,118.19,118.71,14.69,15.68,21.72,13,35.27-.82,73.77-75.18,148.66-149.26,223.1-223.78,10.1-10.11,20.43-19.66,35.24-22.11,21.75-3.6,41.58,5.41,52.55,23.77C1939.31,1326.9,1938.06,1347.27,1924.22,1365.36Z"/></g></g></svg>