<svg xmlns="http://www.w3.org/2000/svg" xmlns:xlink="http://www.w3.org/1999/xlink" viewBox="0 0 2070.74 2066.16"><defs><style>.cls-1{fill:#04a5f1;}.cls-2{fill:#0bb2e1;}.cls-3{fill:#12c3cf;}.cls-4{fill:#19d0bf;}.cls-5{fill:url(#linear-gradient);}.cls-6{fill:url(#linear-gradient-2);}</style><linearGradient id="linear-gradient" x1="166.73" y1="1927.02" x2="1387.13" y2="52.41" gradientUnits="userSpaceOnUse"><stop offset="0" stop-color="#019ffb"/><stop offset="0.93" stop-color="#27ef9f"/></linearGradient><linearGradient id="linear-gradient-2" x1="1512.57" y1="1841.93" x2="2000.38" y2="1157.22" xlink:href="#linear-gradient"/></defs><title>step1</title><g id="Layer_2" data-name="Layer 2"><g id="Layer_1-2" data-name="Layer 1"><path class="cls-1" d="M1569.32,1727.19c-7.12-3-14.6-1.53-21.9-1.53q-146-.18-292.06-.17c-7.25,0-14.78,1.86-21.75-1.89q158.3,0,316.59,0C1556.68,1723.63,1563.79,1721.54,1569.32,1727.19Z"/><path class="cls-1" d="M1569.65,1727.58c5.25,4.83,3.64,11.22,3.64,17.09q0,159.38-.2,318.75c-3.32-7.07-1.66-14.57-1.67-21.85q-.2-146.05-.17-292.12C1571.25,1742.17,1572.79,1734.67,1569.65,1727.58Z"/><path class="cls-1" d="M2070.74,1723.62c-7,3.73-14.52,1.85-21.77,1.87-98.78.14-197.57,0-296.36.22-7.15,0-14.8-2.43-21.5,2.38,5.56-7.44,13.62-4.4,20.59-4.41Q1911.23,1723.43,2070.74,1723.62Z"/><path class="cls-2" d="M2070.74,1723.62v4c-113.21-1.21-226.42-2-339.63.43,5.56-7.44,13.62-4.4,20.59-4.41Q1911.23,1723.43,2070.74,1723.62Z"/><path class="cls-3" d="M838.55,986.86c-8.47,5.28-17.92,4.72-27.34,4.71q-96.72-.09-193.44,0c-8.39,0-18-2.59-23.06,7.73,2.59-16.55,16.21-13.7,26.6-13.84,53.52-.75,107.05-.11,160.57-.44,17.34-.11,34.76,1.6,52-1.41,1.08-.11,2.14-.17,3.19-.18A21.78,21.78,0,0,1,838.55,986.86Z"/><path class="cls-4" d="M838.55,986.86c-8.47,5.28-17.92,4.72-27.34,4.71q-96.72-.09-193.44,0c-8.39,0-18-2.59-23.06,7.73,2.59-16.55,16.21-13.7,26.6-13.84,53.52-.75,107.05-.11,160.57-.44,17.34-.11,34.76,1.6,52-1.41,1.08-.11,2.14-.17,3.19-.18A21.78,21.78,0,0,1,838.55,986.86Z"/><path class="cls-5" d="M1581.81,364.61c-.76-3.2-1-6.68-2.35-9.58C1474.93,139,1304,19.31,1064,0h-61.14C916.25,3.84,834.39,26.05,758.09,66.55c-124.73,66.22-216.62,163.59-272.43,294-44,99.66-57.89,203.58-44.1,311.43,4,45.5,15.65,89.19,31.88,131.67,27.87,72.94,66.34,139.43,121.27,195.65,27.68,34.21,62.68,60.36,97.06,87-3.66,7.09-10.49,7.48-15.81,9.41a971.48,971.48,0,0,0-181,87.55C395.3,1244.93,307.11,1319.88,234,1412c-60.17,70.71-107.74,149.29-145.24,234C59.92,1711.25,36,1778.23,24.23,1849,7,1916.39,2,1985.22,0,2054.43c-.26,9.17,3.7,11.42,11.94,11.36,45.72-.3,91.43-.53,137.15-.19,11.26.08,13-5.15,13-14.76,0-16.1,1.2-32.21,2-48.31,2.48-50.45,13.17-99.68,22.26-149.14,1.25-3.05,2.86-6,3.7-9.17,24.74-92.84,62.58-180,116.73-259.38,42.24-61.93,88.82-120.54,146-169.81,2.26-1.36,4.79-2.41,6.74-4.12,162.1-141.81,351.09-213.53,566.16-217.11,78.05-1.31,154.1-13.07,226.81-42.53,78.94-32,149.34-76.76,207.61-139.55,24.27-21.53,43.91-47.11,62.14-73.61,53.63-78,90.37-162.76,100.66-257.77C1641,571,1626.08,465.88,1581.81,364.61ZM1458.16,661.47c-1,6.82-5.88,33.28-7.75,40.41-34.6,131.52-115.89,224.39-235.78,285.49-4.58,2.33-29.9,11-37.92,13.8-105.21,37.11-209.08,32.26-311.89-9.54-9-3.65-43.64-20.43-52-25.67-32.62-20.39-62.73-44-89.25-71.68-57-59.51-94.48-129.85-113.62-210-1.44-6-2.87-30.07-3.6-37.07-9.44-91.22,6.51-177.49,50.26-258.38,3.66-6.76,24.87-39.77,32.14-49.75C804.39,180.41,1013.41,126.17,1192,196c81.25,31.76,146.1,84.54,195.53,156.39,5,7.28,20.75,32.79,24.2,39.36C1456.29,476.64,1472.12,566.46,1458.16,661.47Z"/><path class="cls-6" d="M2070.74,1565.88v157.74q-159.51,0-319,.06c-7,0-15-3-20.59,4.41q.17,160.13.19,320.25c0,7.09,3.89,17.69-9.75,17.35-49.48-1.25-99,3.06-148.46-2.27q.12-159.37.2-318.75c0-5.87,1.61-12.26-3.64-17.09l-.33-.39c-5.53-5.65-12.64-3.56-19.12-3.56q-158.29-.15-316.59,0l0,0c-5.95-8.55-2.61-18.2-2.72-27.25-.44-38.28.2-76.57-.37-114.85-.18-11.7,2.5-16.56,15.47-16.49,107.45.58,214.91.5,322.36.63.49-19.45,1.36-38.9,1.4-58.34.18-87.39.43-174.78-.18-262.16-.1-14.39,2.66-20,18.54-19.55,43,1.16,86,.6,129,.24,9.62-.08,14.62,1.51,14.45,13-.76,52.41-.73,104.82-1,157.24.26,50.54,1.05,101.08.44,151.61-.17,14.38,4.23,18,18.22,17.92C1856.42,1565.21,1963.58,1565.67,2070.74,1565.88Z"/><path class="cls-2" d="M1569.32,1727.19q-157.32-.21-314.65-.58c-7,0-14.79,3-21.06-3q158.3,0,316.59,0C1556.68,1723.63,1563.79,1721.54,1569.32,1727.19Z"/><path class="cls-2" d="M1573.29,1744.67q0,159.38-.2,318.75c-6.55-6.09-3.14-14-3.16-20.88q-.43-157.47-.28-315C1574.9,1732.41,1573.29,1738.8,1573.29,1744.67Z"/></g></g></svg>