<svg xmlns="http://www.w3.org/2000/svg" xmlns:xlink="http://www.w3.org/1999/xlink" viewBox="0 0 2055.46 2065.79"><defs><style>.cls-1{fill:#12c2ce;}.cls-2{fill:#19cfbe;}.cls-3{fill:url(#linear-gradient);}.cls-4{fill:url(#linear-gradient-2);}</style><linearGradient id="linear-gradient" x1="166.73" y1="1927.02" x2="1387.13" y2="52.41" gradientUnits="userSpaceOnUse"><stop offset="0" stop-color="#019efa"/><stop offset="0.93" stop-color="#27ee9e"/></linearGradient><linearGradient id="linear-gradient-2" x1="1121.36" y1="1871.73" x2="1903.06" y2="1297.3" xlink:href="#linear-gradient"/></defs><title>step2</title><g id="Layer_2" data-name="Layer 2"><g id="Layer_1-2" data-name="Layer 1"><path class="cls-1" d="M838.55,986.86c-8.47,5.28-17.92,4.72-27.34,4.71q-96.72-.09-193.44,0c-8.39,0-18-2.59-23.06,7.73,2.59-16.55,16.21-13.7,26.6-13.84,53.52-.75,107.05-.11,160.57-.44,17.34-.11,34.76,1.6,52-1.41,1.08-.11,2.14-.17,3.19-.18A21.78,21.78,0,0,1,838.55,986.86Z"/><path class="cls-2" d="M838.55,986.86c-8.47,5.28-17.92,4.72-27.34,4.71q-96.72-.09-193.44,0c-8.39,0-18-2.59-23.06,7.73,2.59-16.55,16.21-13.7,26.6-13.84,53.52-.75,107.05-.11,160.57-.44,17.34-.11,34.76,1.6,52-1.41,1.08-.11,2.14-.17,3.19-.18A21.78,21.78,0,0,1,838.55,986.86Z"/><path class="cls-3" d="M1581.81,364.61c-.76-3.2-1-6.68-2.35-9.58C1474.93,139,1304,19.31,1064,0h-61.14C916.25,3.84,834.39,26.05,758.09,66.55c-124.73,66.22-216.62,163.59-272.43,294-44,99.66-57.89,203.58-44.1,311.43,4,45.5,15.65,89.19,31.88,131.67,27.87,72.94,66.34,139.43,121.27,195.65,27.68,34.21,62.68,60.36,97.06,87-3.66,7.09-10.49,7.48-15.81,9.41a971.48,971.48,0,0,0-181,87.55C395.3,1244.93,307.11,1319.88,234,1412c-60.17,70.71-107.74,149.29-145.24,234C59.92,1711.25,36,1778.23,24.23,1849,7,1916.39,2,1985.22,0,2054.43c-.26,9.17,3.7,11.42,11.94,11.36,45.72-.3,91.43-.53,137.15-.19,11.26.08,13-5.15,13-14.76,0-16.1,1.2-32.21,2-48.31,2.48-50.45,13.17-99.68,22.26-149.14,1.25-3.05,2.86-6,3.7-9.17,24.74-92.84,62.58-180,116.73-259.38,42.24-61.93,88.82-120.54,146-169.81,2.26-1.36,4.79-2.41,6.74-4.12,162.1-141.81,351.09-213.53,566.16-217.11,78.05-1.31,154.1-13.07,226.81-42.53,78.94-32,149.34-76.76,207.61-139.55,24.27-21.53,43.91-47.11,62.14-73.61,53.63-78,90.37-162.76,100.66-257.77C1641,571,1626.08,465.88,1581.81,364.61ZM1458.16,661.47c-1,6.82-5.88,33.28-7.75,40.41-34.6,131.52-115.89,224.39-235.78,285.49-4.58,2.33-29.9,11-37.92,13.8-105.21,37.11-209.08,32.26-311.89-9.54-9-3.65-43.64-20.43-52-25.67-32.62-20.39-62.73-44-89.25-71.68-57-59.51-94.48-129.85-113.62-210-1.44-6-2.87-30.07-3.6-37.07-9.44-91.22,6.51-177.49,50.26-258.38,3.66-6.76,24.87-39.77,32.14-49.75C804.39,180.41,1013.41,126.17,1192,196c81.25,31.76,146.1,84.54,195.53,156.39,5,7.28,20.75,32.79,24.2,39.36C1456.29,476.64,1472.12,566.46,1458.16,661.47Z"/><path class="cls-4" d="M2055.46,1463.08v4.06q-97.2,96.79-194.44,193.57c-5.21,5.18-10.85,9.93-16.3,14.88q-81.15,81.93-162.2,164c-6.55,6.65-11,7.52-18,.36q-48.93-49.85-98.75-98.81c-5.55-5.49-5.85-9.06,0-14.6,21-20,41.52-40.39,62.23-60.64l120.25-114.41c-8.4-10.12-14.25-7.57-19-7.45-56.05,1.31-112.33-4.39-168.15,3.47-117.91,16.6-204.47,79.39-263.76,181.58-1.32,2.28-2.92,4.4-4.4,6.59-23.71,47.49-36.37,97.9-37.25,150.84-.92,55.27-.19,110.56-.19,165.84H1093c1.5-82.46-6.29-165.24,8.22-247.27,4.23-23.93,9.65-47.55,18.74-70.19,37-115.25,108.16-204.47,208.43-270.48,86.92-57.21,183.31-83.82,287.34-83,39.79.3,79.59.05,121.84.05-12.32-19.93-31.23-31.35-43.48-48.48q-64.05-63.3-128.2-126.5c-5.49-5.39-6.08-9.15-.32-14.85q50.45-49.85,100.31-100.27c5.42-5.49,9.1-6.09,14.8-.32q113.89,115.18,228.11,230,64.92,64.15,129.93,128.24C2043.83,1454.29,2047.45,1461.45,2055.46,1463.08Z"/></g></g></svg>