<svg xmlns="http://www.w3.org/2000/svg" xmlns:xlink="http://www.w3.org/1999/xlink" viewBox="0 0 2342.15 2482.67"><defs><style>.cls-1{fill:url(#linear-gradient);}</style><linearGradient id="linear-gradient" y1="1241.34" x2="2342.15" y2="1241.34" gradientUnits="userSpaceOnUse"><stop offset="0" stop-color="#019af6"/><stop offset="0.93" stop-color="#27ea9a"/></linearGradient></defs><title>step8</title><g id="Layer_2" data-name="Layer 2"><g id="Layer_1-2" data-name="Layer 1"><path class="cls-1" d="M1929,621Q1622.7,314.61,1316.56,8.09C1310.5,2,1304.22-.1,1296.09,0c-35,.44-70,.8-105,.81Q605.79.89,20.46.87C-3,.87.17-1.34.16,21.66Q.09,1241,.17,2460.39c0,24.66-3.69,21.68,22.47,21.68q920.46.09,1840.91.07c21.08,0,42.17.34,63.26.53,3.52-36.43,2.29-73,1.27-109.4-.49-17.46-17.37-29.82-35.6-29.27a33.27,33.27,0,0,0-32.39,31.12c-.49,6.14-1,12.5,0,18.49,2.76,16.18-4.22,19.08-19.3,19.06q-877.12-.66-1754.25-.1c-15,0-18.35-3.76-18.35-18.52q.6-1152.84.08-2305.68c0-13.44,2.51-18,17.26-18q568.28.69,1136.56,0c15.71,0,18,4.92,18,19q-.69,291.11-.31,582.21c0,19.75,0,19.78,20.45,19.78q291.09,0,582.17-.28c13.61,0,18.1,2.79,18,17.45-.66,140-.48,280-.49,420.05,0,35,15.51,48.08,49.06,41.68,17.52-6.49,20.49-11.3,20.5-34.44q0-216.59,0-433.17C1929.42,675.43,1930.15,648.2,1929,621Zm-120.14,0q-240,.16-480,.08c-20.55,0-20.74,0-20.75-21.46q-.11-199.86,0-399.73c0-27.27-.07-54.53.06-81.8,0-5-1.63-10.37-.12-12l515.39,514.32C1820,622.64,1814.21,621,1808.83,621Zm485.32,1606.82c-81.16-77.28-163.79-153-245.61-229.61-39.36-36.84-78.3-74.12-117.43-111.2-25-19.76-46.72-43.12-70.54-64.15-5.79-5.12-3.92-9.38-.82-14.72a492.12,492.12,0,0,0,55-139.73c15.18-67.81,18.61-136,5.7-204.64-1.13-6-1.36-12.2-2-18.31a80.69,80.69,0,0,1-3-8.54c-22.54-98.36-69.62-183.61-141.57-253.78-78.21-76.28-171.71-124.29-280.43-141.51-80.7-12.79-160.32-7.62-237.63,17.57-126.86,41.33-224.93,119.94-291.6,236.09-67.28,117.2-84.61,242.4-54.95,373.71,25.61,113.35,85.32,207.34,174.12,280.85,94.6,78.3,204.87,117.54,328.62,117.54,91.59,0,176.85-22.79,256.26-67.8,8.66-4.91,12.26-2,17.66,3.88,33.18,35.89,66.75,71.41,100,107.21q74,79.67,147.82,159.54c41.25,43.72,82.25,87.68,123.84,131.07,21.22,22.14,40,46.59,67.92,62.06,55.79,30.91,124.7,21,167.64-19.3C2358.1,2383.16,2358.5,2289.06,2294.15,2227.79Zm-880.78-229.23c-246.62,1.1-448.48-198.72-448.87-446.07-.4-250.22,204.28-449.61,446.94-447.71,240.44-2.71,446.26,193.41,448.4,445C1861.93,1795.79,1660.65,1997.45,1413.37,1998.56Zm843,383.55c-14.55,20.32-35.1,31-60.8,30.49-20.79-.62-39.14-6.7-53.79-22.43q-85.14-91.44-170.54-182.65-47.38-50.71-94.81-101.39c-44.59-47.69-89-95.51-133.92-142.94-6.19-6.54-6-10.49.6-16,24-20.28,46.65-42,66.44-66.45,4.46-5.52,7.47-4.52,12.21-.07,21,19.7,42.52,38.8,63.53,58.47q85.56,80.16,170.89,160.58c63.4,59.43,127.25,118.38,190.27,178.22C2278.08,2307.89,2281.57,2347,2256.41,2382.11Z"/></g></g></svg>