<svg xmlns="http://www.w3.org/2000/svg" xmlns:xlink="http://www.w3.org/1999/xlink" viewBox="0 0 1831.28 1830.8"><defs><style>.cls-1{fill:url(#linear-gradient);}</style><linearGradient id="linear-gradient" x1="-143.53" y1="1859.74" x2="2004.02" y2="37.66" gradientUnits="userSpaceOnUse"><stop offset="0" stop-color="#019bf7"/><stop offset="0.93" stop-color="#27eb9b"/></linearGradient></defs><title>step5</title><g id="Layer_2" data-name="Layer 2"><g id="Layer_1-2" data-name="Layer 1"><path class="cls-1" d="M418.16,1259.06c98.31-.11,196.64-1,295,0,60.8.57,115.18,52.47,124,112.92,4.88,33.31,2.53,66.51,2.82,99.74.64,73.28,1,146.58-.05,219.86-.85,59.3-27.7,103.4-82.52,128.58-10,4.61-21,7.16-31.53,10.67H418.36c-6.14-6.86-5.77-15.37-5.77-23.66q-.18-262.2,0-524.4C412.6,1274.5,411.9,1265.91,418.16,1259.06Zm6-138.6q.19-262.17,0-524.35c0-8.26.48-16.83-6-23.54-95.6-.1-191.21-.78-286.8-.09-54.16.4-93.12,27.25-118.12,74.62C7.81,657.37,4.36,668.68,0,679.51v357.55c2.92,1.71,3,4.72,3.79,7.57,16.54,56.79,66.53,99.08,120.46,99.45,98,.66,195.94,0,293.9-.08C424.6,1137.29,424.11,1128.72,424.12,1120.46ZM131.35,1259c-54.15.4-93.12,27.25-118.12,74.62C7.81,1343.85,4.36,1355.16,0,1366v357.55c2.87,15,5.61,30,13.91,43.49,22.42,36.55,53.18,59.9,96.94,63.77H418.36q-.11-285.87-.2-571.74C322.55,1259,226.94,1258.27,131.35,1259ZM234.58,433.63q.22-204.61,0-409.24c0-8.22.83-16.88-5.76-23.6-75.48-1.26-134.7,31-181.6,88.36C21.49,120.62,9.32,158.12,0,196.83v64.36c3.22,3.23,3,7.48,3.68,11.57,17.87,105,121.55,189.94,225.14,184.47C235.41,450.51,234.57,441.85,234.58,433.63ZM1412.41,1830.8c9.7-37.41,8.33-74.93,1-112.48-.45-2.28,0,.79-1.1-1.33-122.56-.2-245.11-.57-367.67-.44-24.24,0-43.61,17-51.06,42.31a55.62,55.62,0,0,0,21.69,61.15c5.73,4,12.09,7.22,18.15,10.79Zm375.45,0c4.08-2.23,8.14-4.47,12.23-6.68,22.32-12,34.85-37.73,29.89-61.35-5.43-25.86-27.79-46.12-54-46.17-121.23-.23-242.46.2-363.68.39q.07,56.9.14,113.81ZM1264.39,433.64q.22-204.63,0-409.25c0-8.23.82-16.89-5.76-23.61-1.78-.18-3.55-.53-5.32-.53C1080.52.22,907.74-.06,735,.34c-59.27.14-118.4,54.32-123.25,113.52-5.8,70.72-3.22,141.71-1.78,212.52,1.74,86.55,76.52,135.41,142.94,132.19,67.76-3.29,135.8-.66,203.73-.75q151-.19,302-.58C1265.21,450.52,1264.38,441.86,1264.39,433.64ZM1705,457.17c67.47-.66,124.1-59.69,125.34-127.3,1.25-67.24,1.14-134.53,0-201.77-1-60.48-46.74-112.73-106-124.95C1702.54-1.37,1680.56.31,1658.62.3q-200,0-400,.48V457.24C1407.43,457.38,1556.25,458.61,1705,457.17Zm-992,686.9a107.68,107.68,0,0,0,46.38-11.13c53.56-25.87,79.76-69.64,80.55-128.14,1-70.87.73-141.76,0-212.64-.36-35.6,2.33-71.19-2.84-106.85C828.38,625.07,773.75,573.1,713,572.54c-98.28-.9-196.57-.07-294.86,0q0,285.7,0,571.43C516.44,1144.1,614.72,1144.42,713,1144.07ZM243.06,457.53c138.63-6.82,241.28-143.94,208.88-278.93C426.46,72.46,331.13-3.51,228.82.79V457.23C233.57,457.35,238.33,457.77,243.06,457.53ZM1412.27,572.85c-122.53-.19-245-.64-367.57-.41-29.61.06-54.44,27.81-53.88,57.84.54,29.33,25.19,56.14,53.88,56.19,122.52.22,245-.21,367.57-.41C1420.66,669.32,1420.66,589.59,1412.27,572.85Zm0,228.83c-122.53-.2-245-.64-367.57-.41-29.61.06-54.44,27.81-53.88,57.84.54,29.32,25.19,56.14,53.88,56.19,122.52.22,245-.21,367.57-.41C1420.66,898.15,1420.66,818.42,1412.27,801.68Zm0,228.83c-122.53-.2-245-.64-367.57-.41-29.61.05-54.44,27.81-53.88,57.84.54,29.32,25.19,56.13,53.88,56.18,122.52.23,245-.21,367.57-.4C1420.66,1127,1420.66,1047.25,1412.27,1030.51Zm0,228.82c-122.53-.19-245-.64-367.57-.41-29.61.06-54.44,27.81-53.88,57.84.54,29.33,25.19,56.14,53.88,56.19,122.52.22,245-.21,367.57-.41C1420.66,1355.8,1420.66,1276.07,1412.27,1259.33Zm0,228.83c-122.53-.2-245-.64-367.57-.41-29.61.06-54.44,27.81-53.88,57.84.54,29.32,25.19,56.14,53.88,56.19,122.52.22,245-.22,367.57-.41C1420.66,1584.63,1420.66,1504.9,1412.27,1488.16Zm364.54-801.8c30.44-.11,54.34-27.36,53.93-57.8-.39-29.6-24.22-55.91-53.93-56-121.52-.42-243,.12-364.54.31V686.06C1533.78,686.25,1655.3,686.82,1776.81,686.36Zm0,228.83c30.44-.12,54.34-27.36,53.93-57.8-.39-29.6-24.21-55.92-53.93-56-121.51-.42-243,.12-364.54.31V914.89C1533.78,915.08,1655.3,915.64,1776.81,915.19Zm0,228.82c30.44-.11,54.34-27.36,53.93-57.8-.39-29.59-24.21-55.91-53.93-56-121.52-.43-243,.12-364.54.31v113.21C1533.78,1143.9,1655.3,1144.47,1776.81,1144Zm0,228.83c30.44-.11,54.34-27.36,53.93-57.8-.39-29.6-24.21-55.91-53.93-56-121.51-.42-243,.12-364.54.31v113.21C1533.78,1372.73,1655.3,1373.3,1776.81,1372.84Zm0,228.83c30.44-.12,54.34-27.36,53.93-57.8-.39-29.6-24.21-55.92-53.93-56-121.52-.42-243,.12-364.54.31v113.21C1533.78,1601.56,1655.3,1602.12,1776.81,1601.67Z"/></g></g></svg>