<svg xmlns="http://www.w3.org/2000/svg" xmlns:xlink="http://www.w3.org/1999/xlink" viewBox="0 0 464.15 495.88"><defs><style>.cls-1{fill:url(#linear-gradient);}</style><linearGradient id="linear-gradient" y1="247.94" x2="464.15" y2="247.94" gradientUnits="userSpaceOnUse"><stop offset="0" stop-color="#019af6"/><stop offset="0.93" stop-color="#27ea9a"/></linearGradient></defs><title>step7</title><g id="Layer_2" data-name="Layer 2"><g id="Layer_1-2" data-name="Layer 1"><path class="cls-1" d="M324.35,360.12a4.91,4.91,0,0,1-.53,0l-.63-.31c.23-.26.47-.52.71-.77A3.41,3.41,0,0,1,324.35,360.12Zm98.34,100.34a.34.34,0,0,0,0,.1q.19.4.42.78l.59-.51A5,5,0,0,0,422.69,460.46ZM323.9,359c-.24.25-.48.51-.71.77l.63.31a4.91,4.91,0,0,0,.53,0A3.41,3.41,0,0,0,323.9,359Zm98.79,101.46a.34.34,0,0,0,0,.1q.19.4.42.78l.59-.51A5,5,0,0,0,422.69,460.46Zm23.8,1c-3.12,4.16-6.2,8.51-10.63,11.54-12.9,11.42-27.47,19.28-44.74,22-5.81.92-11.53.82-17.3.83-23.32,0-46.64-.08-70-.13q-60.27.09-120.53.16c-5.47,0-11-.1-16.43-.16q-43,.07-85.95.16-36.48,0-73,0c-5.82,0-8-2-8-7.5q0-79.73,0-159.44a8.36,8.36,0,0,1,.12-1C.11,309,0,290.07,0,271.14Q0,223.56.16,176c0-17.77-.16-35.53-.15-53.3Q0,71.86.16,21.05c0-4-.15-8-.16-12C0,1.78,1.71,0,8.91,0Q63.22,0,117.54,0c10.13,0,20.26.1,30.39.16Q196.35.11,244.78,0c9,0,18,.07,27,0a9.7,9.7,0,0,1,7.53,2.92Q330.08,53.8,380.94,104.61c1.69,1.69,2.9,3.52,2.89,6q-.09,61.67-.16,123.32c.05,26.45.35,52.9,0,79.34-.08,5.47,1.91,7,6.49,7.6,19.72,2.65,36.25,11.77,49.91,25.89a82.48,82.48,0,0,1,22.67,44.63C466.88,416.87,462.17,440.54,446.49,461.44Zm-166.68-361c0,3.47,1.53,3.63,4.19,3.62,20.46-.07,40.91,0,61.37,0h8.42L280.08,30.29a1.92,1.92,0,0,0-.17.77C279.89,54.18,280,77.3,279.81,100.41Zm37,377c-13.77-12.43-23.78-26.82-28.26-44.39-8-31.59-2.33-60.37,19.08-85.51,1-1.18,2.11-2.25,3.6-2.19a4.36,4.36,0,0,1,0-.51c5.1-7.84,13.16-12.06,20.81-16.67,8.05-4.85,17-7.69,26.16-9.56,6.08-1.25,7.16-2.41,7.18-8.72.08-26.49,0-53,.1-79.46,0-2.7-.07-16.13-.07-19.45,0-26.15,0-52.3,0-78.45,0-8.83-1.28-10.09-10.16-10.11-26,0-52,0-77.94,0a51.82,51.82,0,0,1-8-.3,8.35,8.35,0,0,1-7.54-7.5,49.47,49.47,0,0,1-.31-8c0-26,0-52,0-77.95,0-8.93-1.26-10.2-10-10.21-26.81,0-53.63,0-80.44,0H31.13c-2,0-4-.08-6,.09-4.59.38-6.2,1.94-6.64,6.48-.25,2.64-.09,18.52-.09,21q0,65.78,0,131.56c0,3.32,0,19.09,0,20.92q0,65.92-.06,131.86c0,3,.06,17.53.07,21q0,55.89,0,111.78c0,2,0,4,0,6,.2,6.51,1.81,8.08,8.47,8.25,2,0,4,0,6,0q54.65,0,109.27,0h22.28c38.95,0,77.9-.06,116.85.07C284.43,477.52,310.29,477.49,316.85,477.46ZM446.6,399.72c-2.05-19.91-11.7-36.08-27.89-48.38-19.3-14.66-40.38-17.95-63.45-11.57-12.36,3.41-22.42,10.35-31.36,19.23-.24.25-.48.51-.71.77-10.1,11-16.5,24-18.08,38.62-2.1,19.25,2,37.19,14.56,53,12.37,15.54,28.05,24.95,47.4,27.32,21,2.57,39.89-3.5,56-17.35l.59-.51a13.17,13.17,0,0,1,1.2-1.56C442.21,443.1,449,422.74,446.6,399.72Zm-22.9,61.11-.59.51q-.23-.37-.42-.78a.34.34,0,0,1,0-.1A5,5,0,0,1,423.7,460.83ZM324.35,360.12a4.91,4.91,0,0,1-.53,0l-.63-.31c.23-.26.47-.52.71-.77A3.41,3.41,0,0,1,324.35,360.12ZM295.28,152q-75.43,0-150.87,0c-6.48,0-8.49,1.94-8.48,8s2.06,8,8.57,8h74.94v0h75.93c6.53,0,8.5-1.89,8.49-8S301.83,152,295.28,152Zm.21,72q-75.69,0-151.37,0a9.89,9.89,0,0,0-4.36.55c-4.87,2.19-4.16,6.5-3.65,10.25.54,4,3.73,5.24,7.68,5.23,25.32-.08,50.63,0,75.94,0v0q38,0,75.93,0c6.13,0,8.16-2,8.2-7.82C303.9,225.94,301.91,224,295.49,224Zm-.13,72H144.48c-6.52,0-8.54,1.92-8.55,8s2,8,8.48,8q75.43,0,150.88,0c6.55,0,8.56-1.89,8.57-7.94S301.85,296,295.36,296ZM119.93,176.74c-.08,5-2.23,7.18-7.28,7.21q-16.73.11-33.45,0c-5,0-7.19-2.25-7.22-7.27q-.09-16.74,0-33.46c0-5,2.22-7.18,7.27-7.21q16.72-.1,33.45,0c5,0,7.14,2.23,7.21,7.28.08,5.65,0,11.31,0,17C120,165.76,120,171.25,119.93,176.74Zm-16-16.67c0-8.09,0-8.09-8-8.09h-.5C88,152,88,152,88,159.64,88,168,88,168,96.24,168,104,168,104,168,104,160.07Zm16,88.91c0,4.75-2.24,6.9-7,6.94q-17,.14-34,0c-4.77,0-6.86-2.2-6.94-7-.11-5.66,0-11.32,0-17s-.08-11.32,0-17c.09-4.77,2.22-6.92,7-7q17-.13,34,0c4.75,0,6.92,2.24,7,7Q120,232,119.92,249Zm-16-16.62c0-8.4,0-8.4-8.21-8.4a22.44,22.44,0,0,1-3.48,0c-3.54-.55-4.86.92-4.32,4.38a19.87,19.87,0,0,1,0,3C88,240,88,240,96.42,240,104,240,104,240,104,232.36Zm16,88.54c0,4.78-2.21,6.91-7,7-5.82.1-11.65,0-17.48,0-5.49,0-11,.09-16.48,0-4.79-.09-7-2.2-7-7q-.13-17,0-34c0-4.78,2.19-6.95,7-7q17-.14,34,0c4.81,0,6.94,2.17,7,7Q120,303.92,119.92,320.9Zm-22.6-25c-9.36,0-9.36,0-9.36,7.76,0,8.23,0,8.23,5.89,8.24,10.1,0,10.1,0,10.1-6C104,295.93,104,295.93,97.32,295.93Zm22.62,96.28c0,5.41-2.11,7.63-7.33,7.67q-16.73.11-33.47,0c-5,0-7.13-2.24-7.16-7.31q-.09-16.74,0-33.47c0-5,2.24-7.14,7.3-7.17q16.74-.09,33.47,0c5,0,7.09,2.23,7.17,7.3.07,5.5,0,11,0,16.49S120,386.72,119.94,392.21ZM104,376c0-8.07,0-8.07-8-8.07s-8,0-8,7.67c0,8.32,0,8.32,8.3,8.32C104,383.9,104,383.9,104,376Zm135.44-8.06h-47q-24,0-48,0c-6.51,0-8.53,1.92-8.53,8s2,8,8.49,8q47.46,0,94.92,0c6.51,0,8.53-1.92,8.53-8S245.92,367.93,239.39,367.92Zm192.38,8.18c.12-2,0-3.79-1.63-5.46-4.07-4.11-9.56-4-14.28.73-13.57,13.54-27.21,27-40.6,40.7-1.17,1.18-2.32,2.37-3.48,3.56-3.33,3.44-5,3-8-.18-6.61-7-13.56-13.76-20.44-20.54-4.09-4-9.62-4.3-13.14-.83s-3.47,9.08.54,13.13q14.76,14.93,29.68,29.69c4.43,4.39,10.48,4.38,14.92,0l12.25-12.22q20.57-20.55,41.12-41.11C430.81,381.42,432.17,379.14,431.77,376.1Z"/></g></g></svg>