<svg xmlns="http://www.w3.org/2000/svg" xmlns:xlink="http://www.w3.org/1999/xlink" viewBox="0 0 932.06 89.21"><defs><style>.cls-1{fill:url(#linear-gradient);}</style><linearGradient id="linear-gradient" y1="44.6" x2="932.06" y2="44.6" gradientUnits="userSpaceOnUse"><stop offset="0" stop-color="#019af6"/><stop offset="0.93" stop-color="#27ea9a"/></linearGradient></defs><title>step7</title><g id="Layer_2" data-name="Layer 2"><g id="Layer_1-2" data-name="Layer 1"><path class="cls-1" d="M932.06,43.81c.46,24-17.5,42.84-43.35,45.05-6.42.55-12.93.17-19.39.17Q466,89,62.61,89c-8.31,0-16.87.92-24.88-.72C14,83.37-.34,68.52,0,44S15,5,38.9.8C47-.63,55.49.29,63.8.29q201,0,402,0t402,0c7.39,0,14.84-.46,22.16.25C914.34,2.82,931.62,20.81,932.06,43.81Z"/></g></g></svg>