<svg xmlns="http://www.w3.org/2000/svg" viewBox="0 0 4989 3315"><defs><style>.cls-1{fill:#fff;}.cls-2{fill:#4da8f1;}.cls-3{fill:#73c0ff;}.cls-4{fill:#dae7f5;}.cls-5{fill:#34363c;}.cls-6{fill:#ff7e56;}.cls-7{fill:#f3f3f3;}.cls-8{fill:#9bc9ed;}.cls-9{fill:#3c4145;}.cls-10{fill:#b4dcfd;}.cls-11{fill:#19598c;}.cls-12{fill:#48753a;}.cls-13{fill:#97a43c;}.cls-14{fill:#78c2ff;}.cls-15{fill:#b5ddfc;}.cls-16{fill:#79c2fe;}.cls-17{fill:#b4dcfe;}.cls-18{fill:#d98a51;}.cls-19{fill:#78c2fe;}.cls-20{fill:#eea886;}.cls-21{fill:#6db2eb;}.cls-22{fill:#6eb2eb;}.cls-23{fill:#bbd071;}.cls-24{fill:#7cc2fc;}.cls-25{fill:#7cc3fc;}.cls-26{fill:#d5d5d5;}.cls-27{fill:#79c2ff;}.cls-28{fill:#1c6198;}.cls-29{fill:#b5ddfd;}.cls-30{fill:#51a9f1;}.cls-31{fill:#877476;}.cls-32{fill:#b3dcfd;}.cls-33{fill:#b4dbfa;}.cls-34{fill:#205c8d;}.cls-35{fill:#1f5c8c;}.cls-36{fill:#887475;}.cls-37{fill:#c4c2c0;}.cls-38{fill:#c4c0be;}.cls-39{fill:#c3c0bd;}.cls-40{fill:#c3c0be;}.cls-41{fill:#c4c0bd;}.cls-42{fill:#c5bfbd;}.cls-43{fill:#c4c1be;}.cls-44{fill:#c3bfbd;}.cls-45{fill:#c4bfbd;}.cls-46{fill:#c4bfbc;}.cls-47{fill:#c3bfbe;}.cls-48{fill:#c3c1be;}.cls-49{fill:#464b4f;}.cls-50{fill:#e3dddd;}.cls-51{fill:#d7e7f5;}.cls-52{fill:#e4f2ff;}.cls-53{fill:#8c848c;}.cls-54{fill:#f9f9f9;}.cls-55{fill:#f4f4f4;}.cls-56{fill:#f2f3f3;}.cls-57{fill:#f2f2f3;}.cls-58{fill:#f6f6f6;}.cls-59{fill:#fafafa;}.cls-60{fill:#304564;}</style></defs><title>Asset 4</title><g id="Layer_2" data-name="Layer 2"><g id="Layer_1-2" data-name="Layer 1"><ellipse class="cls-1" cx="2494.5" cy="1657.5" rx="3527.76" ry="2344.06"/><path class="cls-2" d="M1297.9,825.35c-.31-13.55,3.61-26.33,7.67-39,10.17-31.69,26.38-59.61,52.79-80.73,19.92-15.92,42.43-24.18,68.23-24.14q178.9.3,357.83.1,618.72,0,1237.43-.2c39.26,0,69,16.68,93.26,45.78,2.55,3,5.14,6.08,7.71,9.12,8.85,5.26,12,14.64,16,23.12A198.71,198.71,0,0,1,3157.1,820c0,2.17.05,4.39-2.48,5.4l-588.55,0q-257.81,0-515.6,0c-14.38,0-13.06-1.47-13.08,12.62-.06,30.64.11,61.28-.07,91.92-.17,29.55-17.51,55-44.82,66.22a73.29,73.29,0,0,1-28.24,5.32q-79.93,0-159.88,0c-2.54-1-3.17-3.37-3.35-5.66-.66-8.73.85-18.18-8.73-23.66a3.09,3.09,0,0,1-1-2.73c1.56-11.88-6.71-13.15-15.22-14.32-17.34-2.39-34.53-5.76-51.83-8.45-4.69-.73-9.18-1.46-12.25-5.6a17.47,17.47,0,0,1-1.93-4.59c-5.93-21.91-1.33-28.13,20.88-28.14,35,0,70,.13,105-.1,10.38-.07,20.55,2,30.88,2.05,11.85,0,12.22-.43,14-11.73,1.78-10.93,1.38-21.91,1.35-32.9,0-5.72-2.48-8.75-8.4-8.55-1,0-2-.09-3-.07-52,1.19-103.85-3.3-155.82-2.08-14,.33-14.3,2-14.37,12.12a11.6,11.6,0,0,1-4.47,9.65c-28.42,7.79-56.35-8.59-61-36.83-1.55-9.37-6-11-14-11q-93.78.22-187.55.08c-39.9,0-79.81,0-119.71-.05C1308.34,829,1302.4,830.09,1297.9,825.35Z"/><path class="cls-3" d="M3507.14,1539.72c-4-.09-8-.27-12-.27q-158.46,0-316.92,0c-19.52,0-37.46-5-53.33-16.73-21.66-16-33.11-37.67-35.38-64.32-.39-4.63-.19-9.32-.19-14q0-206.43,0-412.86c0-14.8-1.63-13.69,13.14-13.69q419.4,0,838.81,0c1.33,0,2.67,0,4,0,7.29.18,7.3.19,7.58,7,.06,1.33,0,2.66,0,4q0,210.93-.09,421.86c-.05,29.76-11.81,54.38-36.1,72.15-15.19,11.11-32.53,16.51-51.43,16.52q-114,0-227.95,0-60,0-120,.19C3514,1541.67,3510.57,1542.46,3507.14,1539.72Z"/><path class="cls-4" d="M3433.39,1801.59c-3.08,3-6.94,1.79-10.48,1.8-28.32.09-56.64,0-84.95,0-2.34,0-4.67.06-7,0-3.63-.06-5.63,1.52-5.6,5.31,0,2.67-.05,5.33-.05,8l-.09,196.88c-2.81,1-5.27-.12-7.52-1.53-11.06-7-23.25-11.24-35.57-15.27-5.12-1.67-10.13-3.64-11.42-9.87-1-5.63-.69-11.3-.69-17q0-99.4,0-198.81c0-7.67-.18-15.3-2.61-22.71-4.75-14.55-14.62-23.52-29.43-27a111.93,111.93,0,0,0-25.77-2.71q-184.83.07-369.67,0a141.31,141.31,0,0,0-24.83,2.28,39.87,39.87,0,0,0-32.65,35.62c-.36,4-.26,8-.26,12,0,166.84.53,333.67-.41,500.5-.22,38,25.06,51.38,51.17,50.88,24.31-.45,48.63-.12,72.94-.07,4.65,0,9.33-.27,13.89,1,7.7,3.53,3.28,8.05.58,11.86-8.6,12.09-17.42,24-25.66,36.35-9.91,16.8-14.66,19-33.2,14.12-9.37-2.47-19-3.05-28.44-4.7-7.76-1.35-13.85.33-16.38,8.74q-233.93,0-467.85.12c-25.79,0-44.75-11.4-58.52-31.84-5.28-7.84-10.47-11.34-20-10.49-10.58.95-21.31.28-32,.18-3.23,0-6.74.89-9.5-1.81,3.58-4,8.46-3.41,13-3.53,9.33-.25,18.66,0,28-.16,4.8-.09,7.6-1.79,6.79-7.25-2.74-18.57-.94-37.26-1-55.86q-.43-282.29-.15-564.57c0-32.08,17.86-59.33,45.94-71,10.73-4.46,21.91-5.07,33.32-5.06q312.3.07,624.59.09c51.28,0,102.57-.21,153.85-.08,15.92,0,15.77-.19,16.2-16.2.22-8.13-2.26-16.74,3.16-24.24,3.08,2.12,2.12,5.36,2.16,8.23.1,8.33,0,16.65,0,25,0,10.56.06,10.6,10.28,10.64,14,0,28,0,42,0,15,0,30,.86,45-.17,33.07-2.27,66.18,31.38,69.07,61.17,2.65,27.29.55,54.49,1.67,81.7.16,3.83-1.43,8.08,2,11.35,3.29,6,9.2,4.5,14.23,4.55,25.91.23,51.82,0,77.73.17C3424.21,1798.28,3429.45,1797.41,3433.39,1801.59Z"/><path class="cls-3" d="M1774.24,1098.33c1.89,3.91,1.92,7.28-1.27,10.92-20.14,23-39.76,46.46-60.82,68.65a185.37,185.37,0,0,1-33.7,27.89c-30.65,19.94-60.57,41-91.82,60-18.46,11.25-37.26,21.88-56.55,31.64-11.87,6-23.19,13.06-35.06,19-9.29,4.63-13.36,11.28-13.54,21.1,1.9,8,.15,16-.7,24,.09,21.86,1.12,43.72-.59,65.56-3.14,19.07-2.64,38.34-.52,57.3,1.22,10.87-1,21.88,2.23,32.5,3.56,23.38,4.1,47.1,7.8,70.47-.07,19.29,2.92,38.36,4.28,57.55a227.87,227.87,0,0,1,.77,24.91c-.38,10-2.88,13.1-12.77,14.61-21.39,3.26-42.88,5.75-64.38,8.14-28.44,3.16-57,4.62-85.59,5.49-28.86.88-57.91-.39-86.07-8.41-5.21-1.48-10.32-2.4-15.69-1.63-4.94-7.53-6.84-15.62-4.46-24.49h0c8-60.8,18.57-121.2,28.09-181.77a74.27,74.27,0,0,0,.63-18.88c-2.13-21.09-3.88-42.19-4.58-63.37-1.23-9.51-1.23-9.55-9.85-9.77-6.65-.17-13.31,0-19.95-.36-17.72-.86-30.28-13.88-30.26-31.42,0-25.87,6-50.69,14.06-75a464.74,464.74,0,0,1,29.82-69.56c3.92-7.48,9.21-12.64,17.18-15.61a477.41,477.41,0,0,1,62.07-18.19c4.77-1.07,10.13-1.1,12.93-6.28,8-7.07,18.25-6.3,27.42-6,13.82.41,27.88,1.24,41.29,5.59,19,6.2,38.07,12,56.69,19.27,10,3.88,19.77,6.39,31,5,38-4.72,76-8.7,113.38-17.31a65.79,65.79,0,0,0,25-11.82c25.08-18.79,47.88-40.21,70.89-61.36,12.23-11.25,24.77-22.18,36.62-33.87,4-3.91,8.22-9.25,15.4-7,11,6.71,19.19,16.61,28.16,25.6C1773.59,1093.21,1775.24,1095.36,1774.24,1098.33Z"/><path class="cls-5" d="M3327.08,2389.47a212.06,212.06,0,0,1,2.34,42.85c-1.9,41.5,3.54,82.4,9.07,123.35,4,29.36,7,58.85,10.7,88.24q6.24,49,13.08,98c5.79,41.54,12.06,83,16.51,124.73,1.87,17.59,1.08,35.31.61,53-.91,34-2.22,67.91-3.55,101.86-.17,4.26,1.49,9.18-4.17,12.19-2.32,1.23-.48,5,0,7.49,2.1,11.45,4.34,22.88,6.59,34.31a82.67,82.67,0,0,1,1.29,16.91c-.09,8.83-2.09,11.28-10.57,12.71a62.92,62.92,0,0,1-10.92,1.13q-37.48-.33-74.95-.94a39,39,0,0,1-16.44-3.7c-8.52-4.09-10.56-10.62-6-18.84,2.73-4.92,7-8,12.13-9.87,6.85-2.57,13.69-5.17,20.63-7.5,13.85-4.65,23.67-14.55,32.89-25.18,2.39-2.76,3.95-5.63-1.57-7.28-3-.91-2.39-4.5-2.79-6.91-5-30.21-9.6-60.48-14.7-90.67-11.1-65.62-20.88-131.51-36-196.36-5-21.32-13.19-41.87-19.33-62.94-15.85-54.3-31.21-108.74-44.88-163.65-.63-2.53-1.5-5-2.28-7.59-2.78,1.65-3.17,4.44-4.13,6.86-20.75,52.75-38.17,106.49-48.08,162.46-3.89,22-7,44.12-6.91,66.48.09,36.86-5.86,73-13,108.91-11.62,58.45-26.88,116-43.8,173.16-1.26,4.27-.56,10.26-7.6,11.4-2.33.38-.75,3.4-.37,5.25,2.87,13.68,5.86,27.34,7.5,41.25a99.47,99.47,0,0,1,.79,11.94c0,8.44-2.59,11.63-10.89,12.47a160.92,160.92,0,0,1-21.95.77c-26.32-1-52.64,1-79-.53a72.19,72.19,0,0,1-23.36-4.84c-5-2.05-10-4.9-10-11.19-.06-6.72,4.79-9.79,10.46-11.78,12.6-4.42,25.64-7.3,38.66-9.89,16.54-3.28,29.46-11.75,40.13-24.31a41.47,41.47,0,0,0,3.2-3.84c2.36-3.6,1.67-5.24-2.51-6-1.9-.35-4,.46-5.8-1.21,6.64-44.05,9.13-88.53,11.68-133,3.8-66.5,7.66-133,11-199.54,1.56-30.93,1.82-61.93,3-92.89,1.07-28.29,1.94-56.61,4.08-84.83,1.79-23.56,6.58-46.79,10.43-70.1,3.21-19.38,6.61-38.72,9.92-58.08,2.76-5.63,7.5-3.22,11.33-2.31a667.73,667.73,0,0,0,94.25,15.62c42.52,3.88,84.2,1.29,124.59-13.94C3314.21,2390.8,3320,2386,3327.08,2389.47Z"/><path class="cls-6" d="M3327.08,2389.47c-17.55,6.16-35,12.36-53.22,16.71-29.24,7-58.72,6.83-88.29,4.14-34.81-3.16-69.27-8.57-103-17.88-2.09-.57-3,.73-4.37,1.22-4.23-5.15-4.38-10.73-3.6-17.28,2.1-17.62,3.15-35.37,4.61-53.07-3-14.31.49-28.44,2-42.46,3.48-32.12,5.28-64.2,2.65-97.56-6.82,16-13.83,31.09-20.14,46.36-8.31,20.12-21,36.91-35,53-10,11.53-20.52,22.7-30.58,34.22-2,2.3-4.15,4.36-7.47,4.45q-26.09,27.87-52.19,55.71c-4.07,4.32-8.51,8.29-12.78,12.43-9.86,1.37-26.72-7.15-30.56-15.59-.95-2.09-1.29-4.42.4-6.48,8.36-11.92,16.77-23.81,25.07-35.78,1.86-2.69,4.49-4.94,5.21-8.35-.1-4,2.44-6.78,4.56-9.74,21.71-30.31,43-60.93,64.51-91.37,9.49-13.43,13.46-28.82,17.05-44.44,8.06-35,16.16-70,21.76-105.6,4.44-28.21,22.83-46,47.85-57.17,23.72-10.59,47.17-21.69,70.66-32.75,7.68-3.61,11.64-10.75,18.18-15.23,7.74-4.06,16.35-2.41,24.52-3.54,13.49-1.87,27.17-1.47,40.76-2.3,3.59.86,8.14,1.89,8.78,5.59,2,11.42,11.25,13.64,19.7,17.14,3.37,1.4,6.8,2.71,9,5.87,4.37,3.2,9.59,4.43,14.59,6a142,142,0,0,1,37.49,17.92,219.07,219.07,0,0,1,35.49,40.37,115.11,115.11,0,0,1,14.38,28.39q17,50.64,34.15,101.26c1.6,4.73,3.14,9.49,5.07,14.09,7.92,18.78,5.49,36.65-5.47,53.25-21.09,32-42.6,63.65-64,95.44a97.91,97.91,0,0,1-6.27,9c-6,7-9.34,14.47-5.16,23.61C3336.51,2385.75,3329.69,2386.3,3327.08,2389.47Z"/><path class="cls-7" d="M1743.23,1067.48c-3-1.66-4.85.12-6.9,2-15.61,14.45-31.1,29-47,43.17-22,19.66-43.53,40-67.18,57.82a63.94,63.94,0,0,1-23.94,11.63,593.48,593.48,0,0,1-67.59,11.71c-19.09,2.32-38.18,4.61-57.26,7-2.69.34-5.23.63-7.81-.43-22.46-9.21-45.65-16.34-68.57-24.23a13,13,0,0,1-1.76-.94c-3.67-5.88-2.69-11.68,3.25-14.38,19.71-9,22.46-27,23.81-44.88,1.54-20.44,1.88-41.14-4.75-61.1-.19-13.51-2.38-26.12-11.6-37.1-15.23-18.13-34.52-22.36-56.53-18a111.23,111.23,0,0,0-41,17.44c-3.2,2.18-6,5.42-10.52,4.93q0-98.42,0-196.82l283.69.06h43c11.81,0,11.81,0,13,12.06,2,20.65,20.07,37,42.18,38,5.32.24,10.65.16,16,.23a2.23,2.23,0,0,1-.62,3,10.65,10.65,0,0,1-4.62,1.7c-13.79,2-13.79,2-13.8,15.55,0,10.95.57,21.93-.17,32.83-.62,9,3.54,11.47,11.41,12.09,8.87.71,17.75,1.95,26.26,4.85,3,1.46,4,4.33,5,7.13,9,24.53,26.63,39,51.89,44.66a15.77,15.77,0,0,1,6.37,2.72,6.92,6.92,0,0,1,1.86,2.46c2.5,14.15,2.58,27-10.57,37.42C1759,1047.77,1753.94,1060.36,1743.23,1067.48Z"/><path class="cls-8" d="M3155.22,1595.63c.09,12,.3,24,.21,36,0,7.46-.34,7.56-8.14,7.79-2.66.08-5.33,0-8,0q-389.72,0-779.44,0c-8.94,0-17.84-.23-26.74,2-31.58,8-51.83,41.55-51.79,65.91q.45,290.76.23,581.52c0,8,.18,16-.16,24-.43,10,1,19.7,4.08,30.64h-54c-25-4.63-42.92-18.45-53.89-41.29a44.07,44.07,0,0,0-4.2-6.72c4.25-4.42,9.84-3.37,15-3.4,26.89-.17,53.78,0,80.72-.69-3.39-.85-6.89-.73-10.37-.74-24.23,0-48.47.06-72.7-.05-5.24,0-10.72.68-15.27-3.07-3-4.45-2.6-9.56-2.6-14.51q-.08-303.89,0-607.76c0-40.87,32.17-73,73.12-73.06q381.88-.27,763.76-.07c4.33,0,8.69-.13,12.84,1.36,6.2,3,6.18,8.75,6.49,14.39.43,7.78-.74,15.68,1.71,23.37,3.5-8,1.66-16.45,2-24.69.15-3.84-1.69-7.92,1.42-11.39q54.36.09,108.72.2C3143.92,1595.36,3149.57,1595.53,3155.22,1595.63Z"/><path class="cls-9" d="M1230.11,1687.55c1.16-3.86,1.56-7.4,7.67-4.41,14.56,7.11,30.62,8.81,46.49,10.09,40.58,3.28,81,.6,121.49-3,25.49-2.29,50.83-5.68,76.21-8.82,9.63-1.19,9.7-1.15,9.71-11,0-25-3.19-49.74-5-74.6-.22-3-1-5.91.5-8.76,5.89,4.52,5.37,11.72,7.32,17.84,2.11,6.6,4.08,13.26,5.62,20,2.17,8.27,3.52,16.74,6,24.95a710.32,710.32,0,0,1,16.49,81.58c4.6,28.64,10.85,57.08,10.76,86.3a21.48,21.48,0,0,0,.11,3.94c3.44,16,.91,31.38-5,46.4a25.47,25.47,0,0,0-.92,4.83c-5,26.23-16.64,50.22-25.39,75.19-12.94,33-25.9,66-38.46,99.13-3.12,6.23-4.89,13-7.48,19.41-4.25,11.5-9.29,22.75-12.39,34.62-2,7.63-5.82,11.13-14,10.63-7.85-.47-9.27,2.55-5,9.4,9,14.54,22.55,22.81,38.47,28.19,7,2.36,15.25,2.56,20.27,9.42,2.09,9-.54,17.8-1.48,26.61-.75,7-6.28,8.33-12.64,7.93-18.21-1.16-36.26-3.81-54.38-5.74-11.2-1.19-22.47-1.74-33.63-3.38-6.93-1-13.75-2.22-19.73-6.2-6.89-6.15-4.89-14-3.54-21.37,2.46-13.43,7.3-26.2,11.52-39.14,4.07-12.47,4.11-12.77-8.07-16.87-6.4-2.16-7.21-5.72-5.2-11.39,3.55-10,7.29-19.95,11.06-29.88,3.42-7.48,5.52-15.42,8-23.22,12.65-37.21,25-74.5,34.25-112.76,2.57-7.93,3.62-16.21,5.38-24.33,2.34-11.09,3.81-22.32,5.36-33.54,2.46-17.78-1.82-34.18-9.67-50.19-15.26-31.1-32.49-61.18-47.6-93.27-14.15,56.06-30.85,110.62-47.33,165.24-3.08,7.72-4.5,16-7.32,23.76-14.89,38.17-22.33,78.25-30.28,118.19-1.34,6.34-2.79,12.66-3.84,19.06-7.81,38.68-14.92,77.49-22.36,116.23-1.81,6.74-2.17,13.74-3.79,20.51-3.09,13-5,26.18-7.42,39.27-2.59,13.7-2.54,13.82-16.27,14.27-1,0-2,.35-3.28,2.12,7.49,12.57,17.57,22.56,32,27.62,12.57,4.41,25.28,8.42,37.7,13.29a48.91,48.91,0,0,1,8.21,3.63c5.76,3.58,9.58,8.32,8.78,15.55-.74,6.71-5.61,9.37-11.27,11.21a37.07,37.07,0,0,1-6.74,1.91c-25.69,2.25-51.07-1.2-76.47-4.19-11.21-1.33-22.47-2.22-33.68-3.54-6.59-.78-13.35-1.29-18-7-3.71-2.55-4.47-6.18-4.31-10.45.31-8.43,2.82-16.38,5-24.36,2.49-9,5.54-17.78,8.34-26.65,2.35-7.47,2.35-7.47-4.87-8.78-6.81-1.24-6.83-1.24-5.5-8.42q4-21.57,8-43.14c7.94-42.49,15.86-85,20.27-128q3-29.73,5.28-59.61c9.1-79.61,19.57-159.06,27-238.87,1.69-18.17,3.41-36.36,5.67-54.49C1227,1693.22,1227,1689.76,1230.11,1687.55Z"/><path class="cls-10" d="M1161.73,2299.28c9.52,3.07,19.41,3.9,29.27,4.92,23.69,2.44,47.37,5,71.07,7.43,9.91,1,19.83,0,29.75-.29,31.33-.41,62.15,5.4,93.27,7.63,22.55,1.61,45,4.58,67.49,6.51,6.81.59,9.42-1.77,10.06-8.62,2.93-31.11,5.91-62.21,9.35-93.26,1.2-10.75,0-12.17-10.51-13.2-68.48-6.72-136.93-13.73-205.45-20-4-.37-8.1-.51-10.22-4.84a74,74,0,0,1,3.59-20.43c13.6-.95,26.93,1.83,40.35,3.18,24,2.42,48.07,3.25,71.83,7.44,10.26,5.79,21.85,5.52,33,6.82,24.78,2.87,49.64,5.17,74.48,7.6,9.73,1,9.71.83,10.51-9.25.6-7.62,1.31-15.23,2-22.85-2.76-3.75-3-8-2.33-12.38,3-21.41,3.65-43,6.38-64.47.91-7.07-.95-10.16-8.46-11.14-7.71-1-16.1.43-23-4.7,1.85-6.32,3.63-12.65,7.31-18.23,5.34-3.92,11.54-3.31,17.34-2.4,7.83,1.24,11-1.69,11.61-9.27,1.78-21.86,4.18-43.68,6-65.53.63-7.66,4-14.78,3.46-22.53,6.27-17.12,12.4-34.29,18.85-51.34,2.92-7.72,4.74-15.88,8.84-23.16.8,12.65-1.63,25-3.21,37.48-1,8.21-.86,16.45-2.11,24.71-2.48,16.3-2.56,33-4.65,49.33s-2.48,32.93-5.26,49.26c-1.43,8.42-1.77,17.14-2.22,25.67-.91,17.2-3,34.29-4.79,51.35-1.94,18.39-2.57,36.91-5.48,55.2,4.2,7.26-.11,14.55.09,21.82-2.8,4-3.37,8.77-3.85,13.25-1.76,16.47-2.77,33-4.35,49.51-1.71,17.8-3.82,35.55-5.62,53.34-.94,9.24-1.48,18.51-2.37,27.75-1.08,11.2-2.3,22.39-3.55,33.58-.81,7.25-1,14.52-2,21.79-2.25,17.07-2.88,34.34-4.54,51.5-1.61,16.47-4.25,32.86-5.35,49.35-.65,9.62-2.12,19.12-2.66,28.74-.56,9.9-1.81,19.79-3.27,29.6-1.12,7.56-1.49,15.25-2,22.76-1.23,17.21-3.59,34.3-4.78,51.5-1.23,17.83-3.76,35.56-5.51,53.36-1.59,16.16-2.54,32.4-4.46,48.52-1.21,10.19-1.42,20.47-3.26,30.62-1.41,7.8-1.23,15.82-2.26,23.76-2.13,16.42-2.59,33.05-4.49,49.51-2.47,21.41-3.9,42.9-6.06,64.33-2.11,20.77-4.31,41.52-6.11,62.32-1.76,20.46-4.27,40.86-5.93,61.35-1.88,23.1-5,46.09-7.52,69.14-.35,3.3-.11,6.66-.28,10-.06,1.29,0,3.17-.8,3.76-5.36,4.08-10.69-.55-16.12-.53-3.56,0-2.7-3.77-2.35-6.39,1.1-8.53,2.3-17.06,3.23-25.61.36-3.29.07-6.66.12-10,.07-3.79-1.92-5.15-5.53-5.41-17.2-1.28-34.41-2.5-51.57-4.18-15.81-1.54-31.57-3.65-47.36-5.51-7.58-.89-15.22-1-22.81-1.73-9.88-.9-19.74-2.47-29.72-2.82-10.23-.36-20.39-2.25-30.61-3.26-8.91-.88-17.84-1.11-26.77-2.32-19.36-2.62-39-3-58.33-5.94-7.3-1.1-8.66-.54-9.89,7.18-1.62,10.12-2.38,20.38-3.29,30.61-.69,7.72-.54,7.74-8.06,7.86a57.17,57.17,0,0,1-6-.14c-4.09-.38-5.08-2.27-4.88-6.68.88-18.57,3.65-36.95,5.29-55.43,1.49-16.79,2.75-33.66,5-50.42,1.18-8.8,2.07-17.77,2.68-26.72,1.19-17.51,2.79-35,5.44-52.37,1.2-7.86,1.41-15.9,1.93-23.78,1.15-17.22,3.62-34.29,4.75-51.51s3.7-34.24,5.45-51.37c1-9.56,1.26-19.21,2.44-28.74,2.15-17.43,2.6-35,5.42-52.38,1.21-7.52,1.11-15.18,2.11-22.78,2.23-17.08,2.84-34.36,4.51-51.52,1.57-16.15,3.7-32.24,5.49-48.37.91-8.24,1.35-16.55,2-24.78,1.31-17.2,3.34-34.34,4.88-51.5,1.45-16.12,2.72-32.33,5.12-48.4,1.17-7.84,1.52-15.86,2.09-23.77,1.71-24.15,5.39-48.09,6.75-72.29C1160.7,2317.16,1161.9,2308.26,1161.73,2299.28Z"/><path class="cls-11" d="M4148.19,2420.59c1.06,27.63,2.07,55.25,3.18,82.87q4.56,112.78,9.18,225.59,2,50.41,4,100.83c.15,3.87,1.32,7.84-4.87,8.88-3.92.67-2.23,5-2.14,7.71.68,20.63,1.58,41.26,2.41,61.89q1.62,39.93,3.24,79.86,2.19,55.41,4.27,110.81a60.68,60.68,0,0,1-.1,8c-.14,1.43-1.47,2-2.93,2s-2.72-.53-3-2a29.41,29.41,0,0,1-.41-5q-2.07-52.92-4.12-105.83-3-75.36-6-150.73c-.29-7-.43-7.09-7.57-7.26-5.66-.13-11.33-.1-17,0-7.38.13-7.75.17-8.09,7.82-1.25,28.28-2.18,56.57-3.33,84.86q-3.44,84.84-7.13,169.68c-.13,2.86,2.47,8.71-3.86,8.14-5-.45-2.69-5.35-2.58-8.2q2.82-76.37,5.95-152.74,1.93-48.4,3.91-96.82c.11-2.67,0-5.34.19-8,.2-3.38-1.31-4.82-4.67-4.75-4.32.1-8.66-.16-13,0s-5.85-1.64-5.65-5.94c.71-15,1.15-30,1.75-44.92q2.76-69.37,5.58-138.75,3.55-86.34,7.15-172.69c1.72-42.92,3.16-85.86,4.88-128.78,2.28-56.9,4.75-113.79,7.05-170.69,1.06-26.29,1.87-52.59,2.9-78.87q1.76-44.92,3.71-89.84c.12-2.85-.64-6.16,4-6.54,4.86-.4,6.14.45,6.41,6,.7,14.3,1.28,28.61,1.86,42.92q4.65,113.79,9.24,227.59c1.83,46.26,3.47,92.52,5.2,138.78.05,1.33.17,2.66.26,4Z"/><path class="cls-12" d="M3379.51,731.7c40.9-4.86,81.86-9.52,119.38-31.38-1,7.25-3.37,12.7-5.55,18.15C3467.11,784.25,3425.68,838,3367,878.1a29.42,29.42,0,0,1-17.58,5.4c-55.62-.19-111.23-.11-166.85-.09-8,0-16,0-24.3,1.7-2.86-6.42-1.1-13.07-1.38-19.48-.29-6.64,0-13.31.09-20-1.1-4.75,1.3-8.49,4-11.77,27.3-33.08,57.16-63.2,98.29-78.87,30.24-11.54,62-17.39,93.91-21.88C3361.82,731.92,3370.54,728.64,3379.51,731.7Z"/><path class="cls-13" d="M3379.51,731.7c-12.86,3.31-26.15,3.73-39.17,6a604,604,0,0,0-65.77,14.8c-27.49,8-51.59,22.44-72.56,41.82-13.14,12.15-26.09,24.57-37,38.87-3,4-6.25,7.73-8,12.46q-1.17-10.14-2.33-20.27c.17-1.76.34-3.52.52-5.27-.57-22.79,8.25-43.26,16.37-63.74a293,293,0,0,1,19.76-40c3-5.13,6-10.37,11.71-13.11,18.3-29,41.29-53.88,67.07-76.2,39.07-33.83,83.1-59.86,130.19-80.86,8.8-3.92,9.27-3.79,12.54,5.7,16.1,46.74,12.36,92.36-8.05,136.95a212.77,212.77,0,0,1-20.14,34.44C3382.7,725.93,3380.06,728.2,3379.51,731.7Z"/><path class="cls-14" d="M1855.84,2172.81c0,18.3.11,36.6,0,54.9-.17,24.8-16.47,41.44-41.23,41.6-36.6.25-73.22-.22-109.82.23-20,.25-42.19-13.67-42.66-42-.6-36.6-.48-73.21,0-109.81.32-25.53,17.82-42.17,43.31-42.22,35.94-.09,71.89.28,107.82-.12,26-.29,44.39,20.47,42.63,42.5,0,.66,0,1.33,0,2Z"/><path class="cls-14" d="M3857.24,2565.08V2379.34c0-2.67.12-5.33,0-8-.19-4.12,1.44-6.08,5.79-6q25,.16,49.94,0c4.82,0,6.6,2.06,6.27,6.63-.15,2,0,4,0,6q0,188.23,0,376.48c0,14,1.24,13.07-12.77,13.1-13,0-26,0-38.95,0-10.17,0-10.23-.09-10.23-10.65q0-49.43,0-98.86Z"/><path class="cls-14" d="M4011.42,2587.36v166.75c0,2.67-.09,5.33,0,8,.08,3.8-1.85,5.35-5.5,5.35q-25.47,0-50.93,0c-3.67,0-5.6-1.58-5.54-5.36,0-2,0-4,0-6q0-169.76,0-339.5c0-2,.07-4,0-6-.08-3.79,1.85-5.32,5.53-5.31q25.46.08,50.92,0c3.7,0,5.57,1.54,5.52,5.31,0,2.66,0,5.33,0,8Q4011.43,2503,4011.42,2587.36Z"/><path class="cls-14" d="M3743.12,2598.21q0,78,0,155.94c0,2.66-.08,5.33,0,8,.06,3.82-1.92,5.33-5.58,5.32q-25.48-.06-51,0c-3.73,0-5.5-1.7-5.41-5.44.05-2.33,0-4.66,0-7V2441.14c0-13.11.15-13.37,13.35-13.53,12.66-.16,25.32-.1,38,0,10.32.05,10.68.38,10.69,10.69Q3743.15,2518.25,3743.12,2598.21Z"/><path class="cls-15" d="M3030.85,1072.76c-7.29,6.73-13.85,13.86-21.47,19.54-9.65,7.2-17.66,16.12-26.85,23.8-16.56,13.85-31.86,29.19-48.14,43.38-15,13.09-29.17,27.18-44.87,39.51-4.8,3.77-7,6.21-4.4,12.5,7,16.94-1.45,35.1-16.45,44.62-23,14.56-53.93-3.59-55.14-28.15-.26-5.21-2.17-7.67-7.19-9-27.24-7.36-54.4-15-81.57-22.56-4.63-1.29-7.83-.57-11.14,3.63-6.18,7.84-13.35,14.53-24,16.72-9.39,1.94-18.37,1.16-25.75-4.31-7-5.2-11.49-4.2-18.15.8-55.78,41.83-111.89,83.21-167.87,124.79-6.7,5-6.59,5.12-4.31,12.86,5.32,18-7.08,39.28-25.25,44.77-21.58,6.53-42.3-8.5-46.29-25.33-1.09-4.6-.78-9.3-.54-13.93.22-4.31-1.47-6.79-5.28-8.53-12.71-5.81-25.29-11.91-38-17.68-16.95-7.68-34-15.11-51-22.75-9.4-4.23-18.83-8.41-28-13.11-4.19-2.15-6.65-1-9.4,2.1-6.23,7.12-13.13,12.5-23.34,13.7-11.31,1.33-21.28-.55-29.38-8.27-4.57-4.36-8.2-4.47-13.14-1.41-13.56,8.39-27.25,16.58-40.89,24.84-27.29,16.52-54.73,32.82-81.83,49.65-15.52,9.64-31.62,18.28-46.83,28.46-9.85,6.59-20.58,11.86-30.85,17.68-7.92-9.2-4.9-10.61,1.74-14.56q37.68-22.45,75.12-45.31c23-14,45.9-28.13,68.93-42.08q23.88-14.46,48-28.55c5.19-3,7.65-6,6.67-13.22-2.93-21.59,15.66-42.29,37.41-41.18,18.43.93,35.15,12.54,35.89,34.32.25,7.52,2.66,10.91,9.27,13.85,37.65,16.79,75.14,34,112.57,51.26,4.69,2.16,7.89,2,11.44-1.84,11.05-11.81,33.66-14,46.13-5.57,5.49,3.71,9.36,3,14.89-1.11,41.47-31,83.38-61.48,125.05-92.24,15.22-11.24,30-23,45.35-34.14,4.08-3,5.32-5.22,4.23-10.56-2.68-13.24-.55-25.5,9.47-36,10.53-11,23.45-12.81,36.75-9.49,14.76,3.69,24.41,14.62,26.25,29.56,1,8.17,5,9.51,10.87,11.09,25.62,6.94,51.29,13.75,76.82,21,5.88,1.67,9.76,1.45,13.57-4,9.48-13.65,23.54-16.21,39-14.66,4.81.48,8.95,2.76,12.67,5.52,3,2.27,5.19,2.11,7.73-.52,13-13.4,27.69-24.85,41.47-37.35,17-15.4,33.85-30.9,51.3-45.78,8.33-7.1,16.37-14.62,24.29-22.19,7-6.68,15-12.17,21.5-19.32,3.86-4.27,6.52-3.27,9.48.56C3028.36,1069.88,3029.45,1071.09,3030.85,1072.76Z"/><path class="cls-14" d="M3655.48,2613.1v140.77c0,2.33-.14,4.67,0,7,.29,4.56-1.52,6.68-6.3,6.64-16.64-.13-33.28-.09-49.92,0-4.31,0-6-2-5.82-6.14.09-2.32,0-4.65,0-7q0-141.29,0-282.55c0-13.33-1-12.54,12.28-12.56,13.65,0,27.3-.08,40.94,0,8.65.06,8.78.18,8.79,9.06Q3655.54,2540.71,3655.48,2613.1Z"/><path class="cls-16" d="M3029.55,1595.15c3.24,12.07,1.43,24.39,1.85,36.59.12,3.49-1.1,5.76-5.06,5.72s-4.92-2.5-4.91-5.9c0-8.3-.07-16.6,0-24.89,0-4,0-8-2.26-11.53-3-2.27-4.81-5.44-6.47-8.74-12.28-24.54-33.28-35.24-59.62-37.35-3.65-.29-7.32-.17-11-.18q-436.71,0-873.42,0a116.33,116.33,0,0,0-26.76,2.69c-28.86,6.78-48.53,29.74-50.73,59.44-.28,3.66-.22,7.32-.22,11q0,295.77-.09,591.54c0,19.61,5.27,36.67,19.39,50.7s31.42,19.58,50.78,19.71c31.64.2,63.29,0,94.93.11,5.23,0,10.78-.92,15.27,3.05q48.45.09,96.89.2c2.66,0,5.33,0,8,.26,2.41.23,3.36,1.92,3.19,4.2a3.21,3.21,0,0,1-3,3.33c-2.64.21-5.31.28-8,.29q-47.45.08-94.9.11c-38.64,0-77.3-.5-115.93.13a77.84,77.84,0,0,1-74.37-51.82,68.25,68.25,0,0,1-3.73-23.51c.13-47.63.06-95.27.06-142.91q0-231.35,0-462.7c0-33.62,16.85-56.45,46.17-70.94,8.43-4.16,17.66-5.83,27.06-6,8.66-.19,17.32-.06,26-.06q436.27,0,872.53-.06c24.33,0,44.9,8.18,61.25,26.32C3020.54,1572.92,3025.19,1584,3029.55,1595.15Z"/><path class="cls-14" d="M3831.18,2630.16v123.89c0,2.66-.08,5.33,0,8,.07,3.75-1.74,5.45-5.45,5.42-5.66-.05-11.32,0-17,0-11,0-22-.12-33,0-4.52.06-7-1.45-6.63-6.3.13-2,0-4,0-6q0-124.87,0-249.77c0-13.15-.94-12.46,12.44-12.46,12.66,0,25.31,0,38,0,11.61,0,11.65,0,11.65,11.29q0,52.45,0,104.9Z"/><path class="cls-17" d="M1503.45,1649.27a120.93,120.93,0,0,1-5.77-23.72c5.6-4.84,12-2.6,18.13-1.89,12.92,1.49,13.81,1,15.26-11.33,3.51-30,6-60.17,9.09-90.25,1.09-10.55-.66-12.14-10.87-13.54s-20.54-1.67-30.76-3c-12.62-1.65-12.62-1.63-17.14,10a5.75,5.75,0,0,1-1.92,2.23c-.47-.86-1.31-1.71-1.35-2.59-1.45-28-3.41-56.06-2.14-84.17.06-1.21,1-2.39,1.48-3.58,3.85,3.24,3.24,7.79,3.34,12,.22,9.64.18,19.3,0,28.94-.08,6.25,2,10.1,8.72,10.91,15.84,1.94,31.77,3,47.64,4.62,5.28.56,6.82-2.73,7.23-7.32q3.8-41.71,8.08-83.39c.07-.66,0-1.34.11-2,3.15-24.59,3.79-21-20.92-24-14.85-1.81-29.77-3.13-44.67-4.46-3.36-.3-6.65-.63-9.27-3.07,2-7.25.77-15,3.72-22.11a11.51,11.51,0,0,0,9,3.64c9-.22,17.76,2.2,26.74,2.56,11.22.45,22.42,1.87,33.57,3.3,7.86,1,10.09-.48,10.8-8.68.06-.66,0-1.33.05-2,.53-13.25,2.19-14.52,15.17-12.77,4,.54,5.28,2.67,4.65,6-3,16-2.57,32.3-5.24,48.34-1.3,7.78-1.41,15.81-2.31,23.72-1.86,16.45-2.15,33.1-4.49,49.46-2.49,17.39-3.52,34.92-5.21,52.35-1.62,16.78-3.59,33.58-4.93,50.41-1.29,16.11-2.53,32.3-5,48.36-1.45,9.42-1.24,19.15-2.48,28.71-2.38,18.37-3.06,36.92-5.62,55.3-1.18,8.49-1.49,17.16-2.24,25.74-1.43,16.49-3.55,32.91-4.57,49.46-1.16,18.81-3.95,37.51-6,56.26-3.6-14.78-4.52-30-7.13-44.94-2.39-13.66-4.13-27.43-6.16-41.15,1.63-15.91,2.91-31.86,4.48-47.78.71-7.21,1.93-14.39,2.12-21.66.26-10.63-2.51-13.43-13.29-13.53C1510,1648.64,1506.76,1649.39,1503.45,1649.27Z"/><path class="cls-18" d="M1297.92,1022.17c19.24-16.5,41.3-25.6,66.81-26.89,31.88-1.62,60.27,31.46,54.84,58.39-3.67,8.83-8.44,17.34-5.75,27.64a6.25,6.25,0,0,1-4.35,8c-4.33,1.31-7.85,0-10.31-3.88s-3.15-8.72-4.73-13.08c-1.37-3.8-3.26-8.29-8-7.43-5.23,1-5.39,6-5.39,10.46a6.87,6.87,0,0,0,.41,3c6.91,14.23-1.42,21.79-12,29.2-13.77,9.68-27.24,19.1-45.44,17-5.4-.61-9.66-2-12.37-6.82-10.54-15.15-14.42-32.66-17.65-50.35-1.18-6.52-1.54-13.18-2.43-19.76A34.16,34.16,0,0,1,1297.92,1022.17Z"/><path class="cls-19" d="M3693.68,2068.81a93.26,93.26,0,0,1,41.81,4.94c31.23,11.38,51.51,33.28,60.48,65.32,12.33,44-12.22,93.31-54.39,110.7-40.87,16.86-85.17,4.48-113.47-30.84-4.69-5.85-9.39-12.1-10.72-19.95a57.22,57.22,0,0,1,22.79-10.33c3.72,1.59,4.87,5.31,6.73,8.37,16.18,26.69,46.1,39,75.5,30.94,29.17-8,50.19-35.65,50.06-65.93-.13-28.89-21.28-55.89-49.64-64.32-8.41-2.5-17.4.56-25.41-3.65C3700.69,2085,3702,2076.18,3693.68,2068.81Z"/><path class="cls-20" d="M1311.7,1117.7c12,6.87,24.38,5.71,36.19.31,12.13-5.54,22.09-14.61,32.6-22.72,2.44-1.88,2-3.63,1.16-6a82.73,82.73,0,0,1-3.7-13.38c-1.11-6.89,3.1-14.88,7.73-15.79,4.19-.83,10.71,6.06,12.07,12.59a93.52,93.52,0,0,0,2.42,9.63c1.27,3.93,3.92,6.38,8.28,5.22,4.74-1.27,3.51-5.27,2.7-8.25-2.86-10.5,0-18.92,8.42-25.59,3.15,5.61,4.12,11.95,4.79,18.08,2.49,22.76,3.85,45.58-3.51,67.83-3.53,10.68-8.62,20.06-20.91,23.13-7.08,1.77-3.74,8.12-4.69,12.54-10.43-1.17-20.71-3.16-31.17-4.24-13-1.33-25.52.22-38.16,2.28A514,514,0,0,0,1311.7,1117.7Z"/><path class="cls-21" d="M3946,2069.73q31.47,0,62.93,0a46.61,46.61,0,0,1,8.94.48c6,1.2,9.27,5,9.5,11.07.27,7.31.31,14.66,0,22-.29,6.73-2.88,9.42-9.67,10.46a93.79,93.79,0,0,1-13.88,1.21q-57.43.15-114.87,0a102.59,102.59,0,0,1-13.89-1.16c-7.3-1-10.78-4.27-11.29-11.58a106.89,106.89,0,0,1,.34-19.92c1-8.66,5.16-11.95,14-12.49,2.32-.15,4.66-.05,7-.05Z"/><path class="cls-21" d="M3946.22,2181.53c-22.32,0-44.64.06-67,0-11.23,0-15-3.49-15.59-14.65-.32-6.62-.66-13.31,1-19.88,1.64-6.41,4.32-8.88,10.94-9.53,1.65-.16,3.32,0,5,0h130.93c1.33,0,2.67-.07,4,0,7.59.53,11.59,4.33,11.87,11.88.26,7,.25,14,0,21-.27,7.42-3.52,10.68-11.22,11.11-6.31.35-12.66.11-19,.11h-51Z"/><path class="cls-22" d="M3946.18,2205c22.31,0,44.62-.06,66.93,0,11.73,0,14.2,2.52,14.39,14,.09,5.66.14,11.32,0,17-.25,8.63-4.09,12.49-12.85,13.15-2,.15-4,.05-6,.05q-63.43,0-126.86,0c-13.79,0-18-4.06-18.21-17.56-.06-4-.21-8,.06-12,.73-11.15,4.34-14.54,15.64-14.57C3901.56,2205,3923.87,2205,3946.18,2205Z"/><path class="cls-23" d="M3203,703.22a310.56,310.56,0,0,0-37.29,76.57c-4.39,13.2-7.53,26.75-10.55,40.33-2.93-3.68-1.92-8.31-2.81-12.45a217.21,217.21,0,0,0-29.51-71.36c15.26-17,27-36,32.77-58.43,3.77-14.51,6.38-29.13,6-44.19-.13-5.25,0-10.51,0-17.1,4.79,3.06,6.17,7.17,8.11,10.69,12.38,22.44,22.71,45.75,29.63,70.49C3200,700.05,3200.33,702.36,3203,703.22Z"/><path class="cls-24" d="M1859.86,1904.63c0,18.31-1,36.69.23,54.93,1.67,25.55-22.11,47-45.57,46.3-36.94-1.09-73.93-.78-110.89-.11-22,.4-44.85-16.78-45.51-43.58-.93-38.27-.71-76.59-.08-114.87.42-24.84,20.63-43.64,45.45-43.72,37.3-.1,74.6.32,111.9-.13,24-.3,45.71,22,44.65,44.25C1859.14,1866.63,1859.85,1885.65,1859.86,1904.63Z"/><path class="cls-25" d="M1859.85,1637.66c0,19,.13,38,0,56.93-.22,24.31-18.8,42.92-43.13,43-37.63.15-75.26-.53-112.87.27-21.32.46-45.3-16.15-45.8-44.32-.68-37.94-.6-75.91,0-113.85.4-24.76,20.37-43.8,45.26-44,37.29-.29,74.58.09,111.87-.13,24.67-.15,46.06,22.4,44.9,45.16C1859.08,1599.67,1859.85,1618.69,1859.85,1637.66Z"/><path class="cls-3" d="M2990.63,2321.33c14.9-17,29.67-34.14,44.74-51a131.93,131.93,0,0,0,22.06-34.17c8.21-18.19,16.7-36.26,24.08-54.82.71-1.78,1-3.91,3-5.06,2.43,1.4,2,3.89,2.13,6,.62,12.94.76,25.89,1.93,38.84.77,8.51-.68,17.26-1.55,25.85-2.59,25.45-3.94,51-7.86,76.34-25.71,0-51.42,0-77.13-.14C2998.19,2323.15,2994.08,2324.16,2990.63,2321.33Z"/><path class="cls-26" d="M947.8,1053.64c14.23,0,28.5.73,42.66-.23,11.36-.77,21.39-.25,28.73,9.84,1.31,1.8,3.8,2.7,5.38,4.36,15.78,16.65,33.6,31.17,49.68,47.5,13.51,13.74,27.49,27,41.79,39.88,2.4,2.16,5.23,4.12,6.65,8.07-9.77-2.31-18.18-6.91-26.86-10.58-35.76-15.13-71.35-30.67-107-46.07-7.49-3.24-8-4.16-6.35-11.91,3.1-14.89,3-14.74-10.26-22.77C963.78,1066.61,955,1062,947.8,1053.64Z"/><path class="cls-27" d="M1838.63,2609.55q-122.45,0-244.9,0c-3,0-6-.06-9-.28-2-.15-2.88-1.48-2.74-3.4a2.63,2.63,0,0,1,2.49-2.62c3.31-.22,6.64-.33,10-.33q243.9,0,487.81,0c16,0,15,1,14.95-15.35q0-18.49,0-37a50.61,50.61,0,0,1,.43-7,2.7,2.7,0,0,1,2.86-2.24,2.67,2.67,0,0,1,2.88,2.21,48.86,48.86,0,0,1,.43,6.95c0,13.33,0,26.66,0,40,0,12.32,0,12.36,11.92,12.38,21.32,0,42.65-.09,64,.11,3.23,0,8.82-2,9,3.07.2,5.53-5.53,3.34-8.65,3.37-22,.22-44,.07-66,.14-9.9,0-10.23.34-10.25,10-.07,26.65,0,53.31-.13,80,0,3.23,2,9-2.94,9.06-6.17.07-3.42-6.16-3.45-9.49-.27-26.32-.12-52.64-.15-79,0-10.35-.23-10.58-10.69-10.59Q1962.58,2609.53,1838.63,2609.55Z"/><path class="cls-3" d="M3153,956.79c-2.34-19.37,17.5-37.53,36.64-37.74,20.26-.22,38.31,18.24,38.33,37.7,0,17.13-15.67,37.92-38.27,37.65C3171.35,994.19,3150.62,976.89,3153,956.79Z"/><path class="cls-20" d="M1743.23,1067.48a193.24,193.24,0,0,1,29.89-35.8c3.23-3,4.81-5.8,4.69-10.15-.17-6.3.21-12.62.35-18.93,5.17.78,4,5.15,4.36,8.27,1.34,12.57,1.22,12.63,13.14,13.84,3,.31,5.86.88,8.27,2.84,2.45,1.25,4.63,3,5.22,5.68,1.75,7.87,6.41,14.32,10,21.29,2.9,5.68,2.76,12.11,5.27,18,1.84,4.28-3,6.86-6.19,9-4.64,3.07-10.53,4-14.52,8.28-2.56,4.75-6.94,7.12-11.85,8.32-7.09,1.73-9.41,6.22-9.21,13.11.25,8.27.18,16.56,0,24.83-.1,3.91.34,8.08-3.32,11-2.84-2.72-1.48-6.2-1.53-9.33-.17-11.16,0-22.32-.09-33.49,0-2.54.54-5.56-3.43-5.82C1765.17,1086.77,1753.89,1077.44,1743.23,1067.48Z"/><path class="cls-28" d="M3693.68,2068.81c5.29-.12,9,1.36,8.45,7.76a31.66,31.66,0,0,0,.71,7.86c.86,4.82-1.3,7.43-5.77,8.57-2.05,3.23-5.69,3.12-8.78,4.07-37.47,11.44-56.4,42.29-49.52,80.74.68,3.84,2.66,7.65.62,11.65a47.52,47.52,0,0,1-22,9.52c-12.29-32.56-9.26-63.5,11-92C3644.27,2084.69,3666.63,2072.52,3693.68,2068.81Z"/><path class="cls-29" d="M3433.39,1801.59l-94.63-.13c-2.32,0-4.65.09-7,0-6.47-.32-6.61-.61-4.4-7.89,33.3,0,66.6-.3,99.9,0,34.63.34,68.49-24.73,77.86-61.33,1.06-4.13,2.25-8.25,2.24-12.7q-.26-89.91-.25-179.81l10.21-.09c-1.79,3-2.64,6.33-1.59,9.6,2,6.21,1.36,12.54,1.37,18.83,0,44,.24,88-.11,131.93-.1,11.55-.56,23.3-3.67,34.52-8.38,30.21-27.07,51.33-56.71,62.23C3449.17,1799.49,3441.64,1802.4,3433.39,1801.59Z"/><path class="cls-30" d="M2129.79,2689.41c-.05-32.86,26.94-59.95,59.7-59.95,32.38,0,60.42,27.87,59.64,60.14-.77,32.48-25.24,58.6-59.35,59.24C2156.87,2749.46,2129.85,2722.37,2129.79,2689.41Z"/><path class="cls-20" d="M2895.5,2367.4c-1,6.82,5.16,8.52,8.86,11.64,6.15,5.18,12.48,10.48,21.3,10.43-2.78,2.22-6.07,3.48-8.55,6.41-8.41,10-19.69,14.34-32.51,15.17-13,.84-25.86-1.33-38.75-2.64-6.22-.63-11.19-3.76-15.25-8.53-3.65-4.29-7.53-8.38-11.32-12.56-2.22-8.77-.24-12.07,8.4-11.87,12.87.3,25.7,1.74,38.06,5.55C2880.22,2385.45,2885.86,2384.87,2895.5,2367.4Z"/><path class="cls-31" d="M1803.93,1027.55c-6.23.08-12.47.06-18.7.26-4.21.14-5.69-1.77-5.94-5.86-.39-6.45,1.53-13.05-1.13-19.36a7.69,7.69,0,0,1-.41-1.34c-4.63-5.07-2.72-11.31-3.06-17.14-.39-6.6,2.25-11.11,8.4-14.36,4.39-2.32,2.4-5.46-1.29-7.29-2.41-1.19-5.11-1.38-7.74-1.73-16.47-2.19-32.71-5.77-49.14-8.15a20.46,20.46,0,0,1-9.83-4.41c-11.76-2-23.49-4.2-35.29-5.95-4.28-.64-6.49-1.88-6.39-6.75.34-17.25.4-34.51.38-51.77,0-4.3,1.69-6,5.91-5.83,5.3.17,10.61,0,15.92,0,6.5,5.43,1.29,7.79-3,8.12-9.39.74-10.26,6.39-10,13.76s0,14.66.07,22c.1,11.8.47,12.08,11.78,14.32,6.44,1.27,13.44.83,18.85,5.61l58.48,10a40.24,40.24,0,0,1,5.84,1c4.69,1.55,10.39-.34,14.27,3.3s1.34,8.79,2,13.24c.36,2.66,1.28,4.51,4.19,4.4,5.12-.18,5.82,2.89,5.8,7,0,6.94.29,13.87.47,20.8Z"/><path class="cls-32" d="M1249.93,1399.5c2.14,2.14,1.66,4.9,1.77,7.52.61,15.23,3.67,30.18,5.34,45.29,1.59,14.33.41,28.4-2,42.53-3.35,19.87-6.17,39.83-9.41,59.71-3.35,20.56-6.9,41.08-10.41,61.6q-3.76,22-7.7,43.94c-.22,1.21-1.16,2.29-1.76,3.43-.64-14,1.74-27.75,3.44-41.55,1-7.89,1.18-15.83,2.19-23.75,2.19-17.06,2.8-34.31,4.48-51.44,1.58-16.13,3.91-32.18,5.5-48.31.81-8.23,1.35-16.51,2-24.75,1.61-19.14,3.69-38.21,6-57.28C1250.06,1410.85,1249.78,1405.15,1249.93,1399.5Z"/><path class="cls-33" d="M1230.11,1687.55c-.56,18.94-3.25,37.69-5.06,56.52-2.75,28.74-6.19,57.42-9,86.16-2.87,29.08-7.15,58-11.08,86.91-3,22-6.17,44-9.26,66.06-.32,2.28-.13,4.68-1.69,6.64-1.44-11.69,1.55-23.13,2.58-34.63,1-10.84,1.54-21.74,3-32.57,2.43-17.67,3.91-35.47,5.73-53.22.84-8.22,1.58-16.53,2-24.71,1.28-24.15,5.17-48,6.75-72.13,1.56-23.72,5.51-47.28,7.26-71,.75-10.23,3.14-20.34,2.46-30.69-.17-2.58-.43-5.39,2-7.38.26,5.35-.66,10.73,3.2,15.62C1230.49,1681.05,1229.8,1684.69,1230.11,1687.55Z"/><path class="cls-34" d="M3581.88,2974.44q2.53,60.84,5.07,121.67c.14,3.33.14,6.66.15,10,0,2-1.18,2.9-3.12,3s-3.32-.56-3.56-2.57c-.31-2.65-.5-5.31-.6-8-1.64-43.89-3.15-87.78-4.89-131.67-1.55-38.9-3.34-77.78-5-116.67-.13-3-.23-6-.19-9,0-2,1.32-2.92,3.21-3a3.21,3.21,0,0,1,3.66,2.61,40.69,40.69,0,0,1,.39,6Q3579.45,2910.6,3581.88,2974.44Z"/><path class="cls-35" d="M3532.28,2973.33q-1.61,42.38-3.2,84.76-.87,22.42-1.85,44.86a33,33,0,0,1-.26,4c-.23,1.55-1.41,2.07-2.83,2.12-1.77,0-3.45-.28-3.74-2.34a27.38,27.38,0,0,1,0-5q2.61-67.8,5.25-135.61,2.41-59.82,5.19-119.62c.15-3.06-2-8.69,4-8.11,4.75.47,2.56,5.41,2.46,8.29-1.51,42.22-3.2,84.43-4.84,126.64Z"/><path class="cls-36" d="M1779.29,1147c0-13.56,0-27.12.08-40.68.06-7.9.06-8.34,7.79-10,6-1.28,11.07-4.21,16.52-6.53.09,17,.06,33.91.35,50.86.09,5.07-1.55,7.3-6.84,6.92C1791.24,1147.09,1785.26,1147.13,1779.29,1147Z"/><path class="cls-37" d="M2050.83,513.62c-4.63,0-9.25,0-13.88,0-3.09,0-5.11-1-5.14-4.49,0-3.18.45-6.07,4.21-6.79a12.06,12.06,0,0,1,4.92-.19c8.15,2,16.42,1.44,24.66,1.48,3.49,0,5.68,1.09,5.75,5s-2.16,5.08-5.64,5c-5-.06-9.92,0-14.88,0Z"/><path class="cls-38" d="M3911.57,1622.15c3.49.43,6.15,5.64,3.8,8.14-7,7.5-13.17,15.82-20.89,22.69-2,1.78-3.85,2.61-6,.41-1.84-1.89-4.64-4.1-2.46-6.73,7.22-8.67,15.39-16.47,23.68-24.12C3910.1,1622.17,3910.94,1622.27,3911.57,1622.15Z"/><path class="cls-38" d="M3696.11,1776.21c10.39-5.21,19.81-9.92,29.22-14.67,2.48-1.25,4.72-2.39,6.54,1.11,1.55,3,2.25,5.9-1.12,7.69-9,4.78-18.22,9.24-27.35,13.83-2.3,1.16-3.74.17-4.7-1.91C3697.89,1780.49,3697.16,1778.67,3696.11,1776.21Z"/><path class="cls-38" d="M2790.2,267.39c-9.61,4.84-19.31,9.69-29,14.62-2.66,1.35-4.79,1.88-6.44-1.52-1.49-3.07-1.89-5.71,1.42-7.64,2.84-1.66,5.81-3.11,8.76-4.59,4.41-2.22,8.85-4.4,13.29-6.58C2786.79,257.48,2786.8,257.49,2790.2,267.39Z"/><path class="cls-38" d="M882,506.73c-4.45-.47-6.84-4.76-4.18-8.52,5.53-7.8,10.88-15.77,17.44-22.8,2.15-2.29,4.13-4.31,7.44-1.4s2.57,5.31.12,8.38c-5.76,7.22-11.2,14.71-16.82,22C885.07,505.7,884,507.13,882,506.73Z"/><path class="cls-38" d="M2622.41,353.76c-3.2-.23-4.3-2.7-5.29-5.21s.72-3.64,2.56-4.57q12.9-6.59,25.81-13.1c2.73-1.38,5.17-1.26,6.89,1.6,2,3.32.61,6-2.3,7.54-8.48,4.58-17.11,8.91-25.7,13.3A8.25,8.25,0,0,1,2622.41,353.76Z"/><path class="cls-39" d="M1690.29,459.69c-11-3.23-21.41-6.3-31.82-9.31-2.68-.78-5.32-1.57-4.11-5.24,1.1-3.36,2.52-6,7.09-4.49,7.82,2.52,15.81,4.49,23.69,6.85C1692.69,449.77,1692.66,449.86,1690.29,459.69Z"/><path class="cls-40" d="M4050.76,786c.19,1.1-1.21,2.48-3.2,3.17-2.24.77-4.61,1.07-6.17-1.38a16.35,16.35,0,0,1-1.75-3.56q-3.94-11.73-7.78-23.5c-1.13-3.46-1.14-6.79,2.86-8.26,4.33-1.59,5.87,1.62,7.08,4.89A250.94,250.94,0,0,1,4050.76,786Z"/><path class="cls-40" d="M1986.77,511.56c-8-2.6-16.63-1.28-25.17-1.92-5.27-.39-6.77-2.57-5.9-7.77.39-2.31,1.57-3.93,3.89-3.34,8.48,2.17,17.12.89,25.66,1.56a23.56,23.56,0,0,1,3.89.72c4,1,5.07,3.89,4.34,7.59S1989.86,511.58,1986.77,511.56Z"/><path class="cls-41" d="M3558.83,1836.76c-3.12.41-4.62-.1-5.1-2-.58-2.25-1.07-4.72.77-6.54a10.33,10.33,0,0,1,4.29-2.33c8.53-2.46,17.16-4.58,25.63-7.23,3.53-1.1,4.83.48,6,3.14,1.27,3,.56,5.32-2.56,6.29C3577.78,1831.19,3567.68,1834.12,3558.83,1836.76Z"/><path class="cls-38" d="M3516.75,1843.16c.05,2.82-1.15,3.73-2.94,4.07-10.31,2-20.62,4-30.95,5.85-2.7.49-4.4-1.12-5-3.66-.68-2.81-.44-5.41,3.06-6.11,10-2,19.92-4.07,29.93-5.73C3515.37,1836.82,3515.67,1841,3516.75,1843.16Z"/><path class="cls-40" d="M4093,1007.77c0,4.32.2,7.38-4.16,7.72-3.62.27-5-1.2-6.07-4.76-2.83-9.36-.34-19.18-3.17-28.53-1.22-4,2.69-4.61,5.54-5.4,3.34-.92,3.57,1.44,4.35,3.78C4092.57,989.85,4089.7,999.83,4093,1007.77Z"/><path class="cls-40" d="M4069.43,908c-.62-5.63,2.29-7.17,5.82-7.66,4.08-.57,3.64,2.79,4.06,5.34,1.52,9.14,2.82,18.34,4.72,27.41.93,4.41-1.69,5.32-4.62,6.07-3.11.79-5.55-.81-5.77-3.9C4073,925.65,4070.81,916.27,4069.43,908Z"/><path class="cls-42" d="M3141.35,188.06c-4.62,0-9.23,0-13.85,0-3.36,0-5.79-.76-5.92-4.81s1.87-5.23,5.44-5.22q14.34,0,28.68-.07c3.62,0,5.51,1.38,5.42,5.24-.09,4.1-2.6,4.81-5.92,4.78-4.62-.05-9.24,0-13.85,0Z"/><path class="cls-40" d="M3632.18,1813.29c-3.85.41-4.76-1.79-5.72-4-1.25-2.81.06-4.53,2.53-5.48,9.3-3.57,18.66-7,28-10.56,3.07-1.18,5.14-.69,6.14,2.65.77,2.59,1.82,5.17-1.84,6.56-9.32,3.52-18.61,7.1-27.93,10.63A2.43,2.43,0,0,1,3632.18,1813.29Z"/><path class="cls-41" d="M821.85,701.41c0,6.93,0,12.22,0,17.51,0,3.36-1.93,4.6-5.05,4.62s-4.87-1.49-4.85-4.78c0-9.58,0-19.16.11-28.75,0-2.85,1-5.12,4.22-5.82,3.93-.85,6.19.88,6.09,5C822.25,693.82,822,698.43,821.85,701.41Z"/><path class="cls-38" d="M2859.23,233.13c-.1,2.32-1.64,3.54-3.54,4.33-8.53,3.55-17.13,7-25.64,10.59-3.46,1.48-5.31.6-7-2.76-2-4,.09-5.4,3.08-6.67,8.82-3.74,17.61-7.55,26.5-11.11C2856.12,226.1,2859.51,229.17,2859.23,233.13Z"/><path class="cls-40" d="M3505.5,236.35c2.53.86,5.35,1.78,8.14,2.79,6.21,2.24,12.38,4.61,18.62,6.76,3.64,1.26,5.73,3,4.22,7.31s-4.06,4-7.68,2.58c-8.57-3.44-17.27-6.59-26-9.66-2.7-.95-4-2.4-3-5.11C3500.74,238.59,3501.62,235.84,3505.5,236.35Z"/><path class="cls-38" d="M3607.86,281c-.27,4.77-2.93,6.54-7.81,4.47-8.78-3.73-17.43-7.78-26.18-11.59-2.4-1-4-2.13-2.81-5.12s2.92-5.44,6.59-4.31a75.79,75.79,0,0,1,9.14,3.72c6,2.73,12,5.51,17.89,8.4C3606.33,277.33,3608.52,278,3607.86,281Z"/><path class="cls-38" d="M1132.75,342.84a127.71,127.71,0,0,1,33-5.09c3.5,0,5.73,1,5.83,4.95s-2.25,4.81-5.65,5.15c-7.88.78-15.76,1.69-23.57,2.94S1134.68,352.25,1132.75,342.84Z"/><path class="cls-40" d="M3796.18,410.94l-28.24-23.23c5.74-7.95,5.86-8.12,12.07-3.35s12.32,10.06,18.47,15.12c5.41,4.45,5.43,4.52.35,9.76A14.29,14.29,0,0,1,3796.18,410.94Z"/><path class="cls-40" d="M959.7,424.7c.23,2.29-1.15,3.8-2.72,5a189.16,189.16,0,0,0-20.07,17.76c-3.52,3.58-5.71,1-8.22-1.39-2.75-2.6-1.7-4.58.64-6.53,7.62-6.35,15.17-12.79,22.91-19C955.07,418.28,959.41,420.85,959.7,424.7Z"/><path class="cls-41" d="M3965,1569.43a29.48,29.48,0,0,1-1.8,3c-5.33,7.12-10.66,14.25-16.1,21.28-3.13,4-5.28,4.14-8.9,1.17s-1.18-5.45.66-7.57a227.8,227.8,0,0,0,16.61-22.14c1.17-1.74,2.51-3.11,4.88-1.91S3965.13,1565.65,3965,1569.43Z"/><path class="cls-43" d="M3855.94,1674.2c6.23,7.68,6.31,8,.34,13-6.59,5.48-13.4,10.71-20,16.19-2.73,2.26-4.68,1.45-6.73-.85-2.36-2.63-3-4.83.33-7.4C3838.66,1688.28,3847.27,1681.19,3855.94,1674.2Z"/><path class="cls-38" d="M4085.27,1072.23c0-4.62,0-9.24,0-13.85,0-3.34,1.77-4.66,4.93-4.69s5,1.32,5,4.64c0,9.21.25,18.4,1.71,27.54.43,2.69-.1,5.4-3.79,5.68s-7-.15-7.38-4.51c-.39-4.91-.09-9.87-.09-14.81Z"/><path class="cls-40" d="M3770.6,1747.49a7.25,7.25,0,0,1-6.29-4.94c-.79-1.9.82-3,2.23-3.85q12.49-8.07,25-16.1c3.32-2.12,5.51-.56,7.35,2.33s1.27,4.73-1.62,6.5c-7.61,4.64-15.09,9.51-22.66,14.22A30.67,30.67,0,0,1,3770.6,1747.49Z"/><path class="cls-44" d="M2478.91,412.13c9.74-4.45,19.63-9,29.57-13.47,3.52-1.58,5.52.29,7.06,3.36,1.65,3.3.14,4.85-2.69,6.11-7.87,3.51-15.64,7.23-23.56,10.62S2480.4,420.93,2478.91,412.13Z"/><path class="cls-41" d="M3455.85,231.48c-7.65-2.12-16.52-4.61-25.41-7-3.1-.85-5.83-1.67-4.3-5.94,1.36-3.78,3.75-5.23,7.63-4.1l19,5.57c2.21.65,4.41,1.36,6.65,1.88,2.68.62,5.27,1,4.5,4.93S3461.28,232.77,3455.85,231.48Z"/><path class="cls-39" d="M1836.1,492.31c-8.9-.48-18-3.4-27.49-4.72-4.19-.58-5.39-3.38-4.71-7.18.81-4.55,4-3.22,6.93-2.72,8.41,1.45,16.81,2.93,25.24,4.27,4,.63,5.72,2.75,5.54,6.75C1841.46,492,1840.38,493.82,1836.1,492.31Z"/><path class="cls-40" d="M880.19,942.93a264.73,264.73,0,0,1-16.55-29.3c-1.36-2.72-1.87-4.8,1.54-6.49,3.22-1.59,5.5-1.64,7.38,1.9,3.9,7.34,8,14.6,12,21.85C888.47,937.78,888.51,937.76,880.19,942.93Z"/><path class="cls-39" d="M4043.83,1391.91c3.12-10.38,6.3-20.82,9.35-31.28.9-3.11,2.3-4.31,5.77-3.41,3.85,1,4.87,3.14,3.91,6.56-2.63,9.26-5.22,18.53-8.12,27.71C4053.43,1395.61,4052.2,1395.56,4043.83,1391.91Z"/><path class="cls-38" d="M1766.9,470.48c.16,3.75-2.78,7.48-5.55,6.84-10-2.28-19.87-4.84-29.81-7.24-2.94-.71-3.71-2.32-2.59-5.09,1-2.38,1.13-5.61,5-4.68,9.94,2.39,19.87,4.88,29.8,7.33C1765.44,468.06,1766.93,468.69,1766.9,470.48Z"/><path class="cls-38" d="M853.55,868.16c-.34,3.58-3.17,3.45-5.13,4.4-2.19,1.07-3.7.47-4.59-1.92q-5.18-13.92-10.47-27.8c-1.08-2.81-1.33-5.28,2-6.49,3-1.1,6-.94,7.63,2.41a46,46,0,0,1,1.62,4.67q3.86,10.73,7.72,21.44Z"/><path class="cls-38" d="M4091.2,1217.81a148.74,148.74,0,0,0-2.47,21.07c-.16,3.1-1.1,7.1-5.83,6.22-4.2-.78-5.7-3-4.74-7.85,1.6-8,2.05-16.27,3-24.42.33-2.69-1-6.67,3.76-6.52,4.19.14,6.7,2.44,6.26,7.06C4091.12,1214.35,4091.2,1215.35,4091.2,1217.81Z"/><path class="cls-44" d="M1367.41,348c9.78,2.17,18.84,4.12,27.87,6.2,4.18,1,5,4,4,7.68s-3.8,2.76-6.44,2.16c-9-2-18.08-4-27.15-5.92-4.07-.84-4.28-3.63-3.76-6.79C1362.59,347.71,1365.45,347.94,1367.41,348Z"/><path class="cls-39" d="M1545.57,408.44c-.28,2.72-1.5,5.13-5.65,3.64q-14.07-5.06-28.09-10.21c-2.89-1.07-4.27-2.9-2.87-6.2,1.21-2.89,3.07-4.57,6.12-3.5,9.1,3.19,18.12,6.56,27.13,10C1544.61,403.05,1545.79,405,1545.57,408.44Z"/><path class="cls-40" d="M4006.05,1503.26a11.93,11.93,0,0,1-.68,1.88c-4.93,8.59-9.8,17.22-14.89,25.71-2.25,3.75-5.38,3-8.53.94-1.6-1-2.45-2.3-1.41-4.06q8.28-14.09,16.7-28.1c1.42-2.37,3.35-1.37,5.15-.44S4006.13,1500.75,4006.05,1503.26Z"/><path class="cls-38" d="M1095.74,356.59c.24,2.57-.45,4.35-3.22,5.36-9.35,3.41-19.23,5.19-28.38,9.32-2.93,1.32-4-1.19-4.71-3.59-.7-2.21-2.21-4.58,1-5.9a159.88,159.88,0,0,1,31.32-9.67C1094.73,351.56,1095.66,354,1095.74,356.59Z"/><path class="cls-40" d="M4018.63,717.52c-2.47.29-3.34-1.61-4.13-3.44-3.82-8.83-7.48-17.71-11.4-26.49-1.5-3.35,0-4.74,2.72-6.13s5.17-1.73,6.6,1.5c4,9.1,8,18.21,11.76,27.42C4025.68,714,4022.85,717.45,4018.63,717.52Z"/><path class="cls-40" d="M3987.4,647.54c-2.77.56-3.85-1.09-4.87-2.9q-7.07-12.61-14.18-25.2c-1.4-2.49-.92-4.4,1.64-5.78,2.39-1.3,4.93-3,7,.17a202.53,202.53,0,0,1,15.14,28.08C3994,646.27,3989.42,646.22,3987.4,647.54Z"/><path class="cls-40" d="M3645,296.89c1.5.65,2.77,1.08,3.93,1.71q12.23,6.67,24.42,13.41c2.51,1.39,4.55,3,2.33,6.23-1.85,2.67-4.05,4.68-7.45,2.8-8.71-4.82-17.33-9.79-26-14.67-2.05-1.16-2.83-2.62-1.62-4.87C3641.65,299.5,3642.34,297.19,3645,296.89Z"/><path class="cls-38" d="M834.74,614.16c-2.33,10-4.65,19.59-6.78,29.24-.61,2.78-1.64,4.24-4.67,3.17-2.42-.86-5.88-1.07-5.18-4.73,2-10.34,3.79-20.74,7.23-30.74,1.27-3.69,3.9-2.45,6.52-1.63S835.93,611.59,834.74,614.16Z"/><path class="cls-44" d="M2722.12,301a4.65,4.65,0,0,1-2.67,2.77q-12.84,6.57-25.69,13.11c-3.15,1.61-5.8,1.34-7.51-2-1.52-3-.19-5.16,2.44-6.58,8.16-4.42,16.3-8.87,24.58-13C2716.87,293.38,2722.61,297.36,2722.12,301Z"/><path class="cls-45" d="M1585.23,417c1,.27,1.63.42,2.26.63,9.16,3,18.33,5.93,27.47,9,3.32,1.1,4.53,2.87,3.26,6.77-1.39,4.26-3.47,3.85-6.71,2.75-9.12-3.1-18.32-6-27.45-9-2.54-.85-3.69-2.47-2.61-5.37C1582.26,419.57,1582.49,417.14,1585.23,417Z"/><path class="cls-45" d="M2975.32,203.89c-3,.14-5.45-.28-5.78-3.93s.59-5.54,4.6-6.07c9.18-1.23,18.3-2.89,27.44-4.4,2.17-.36,4.83-2,5.53,1.7.64,3.36.8,7.26-3.51,8.1C2994.19,201.13,2984.68,202.4,2975.32,203.89Z"/><path class="cls-40" d="M3359.24,197.73c8.69,1.74,17.07,3.31,25.41,5.13,3.91.85,5.26,3.65,4.47,7.47-.89,4.38-4,3.47-6.95,2.82-8-1.75-16-3.7-24.1-5.13-4.11-.72-7.2-1.86-6.48-6.69C3352.36,196.2,3356.66,198.57,3359.24,197.73Z"/><path class="cls-39" d="M2932.44,213c-10.13,2.83-20.29,5.71-30.47,8.48-3.15.85-5.66.67-6.87-3.41s.24-5.41,3.8-6.32c7.7-2,15.32-4.28,23-6.26C2930.5,203.3,2930.52,203.39,2932.44,213Z"/><path class="cls-38" d="M3076.8,180.24c3.75-.17,6.27.17,6.53,3.82.2,2.78,0,5.23-3.4,6.16a41.25,41.25,0,0,1-9.69,1.68c-6.23.18-12.51-.42-18.66,1.46-2.59.79-5.47.7-6-3-.45-3.13-.18-6,3.81-6.75,1.93-.37,3.81-1.21,5.74-1.37C3062.67,181.58,3070.34,182.61,3076.8,180.24Z"/><path class="cls-40" d="M4070.36,858.61c.37,2.87-1.14,4.28-3.76,4.83-3,.63-5.37-.38-6.23-3.41-1.63-5.71-3-11.47-4.48-17.24-.95-3.84-1.91-7.69-2.57-11.59-.42-2.46.31-4.79,3.24-5.21,2.59-.37,5.52-.82,6.42,2.81C4065.47,838.73,4067.9,848.67,4070.36,858.61Z"/><path class="cls-39" d="M2373.15,460.18c.21,2.6-1.61,3.3-3.6,3.91-9.16,2.81-18.34,5.56-27.44,8.53-3.1,1-5.28.55-6.21-2.67-.78-2.74-.55-5.38,2.62-6.59s6.2-2.3,9.35-3.28c6-1.87,12-3.73,18-5.37C2369.85,453.63,2373.05,456.2,2373.15,460.18Z"/><path class="cls-40" d="M4038.65,1434.43c-.33.84-.66,1.78-1.05,2.7q-5.45,12.81-10.91,25.61c-1.16,2.71-2.6,4.58-6,2.75-2.72-1.47-5.49-2.47-3.61-6.58,4-8.73,7.79-17.57,11.64-26.38,1.36-3.13,3.83-3.43,6.61-2.54C4037.32,1430.63,4038.85,1431.9,4038.65,1434.43Z"/><path class="cls-39" d="M4065.23,1313.71c2-9.39,4-18.78,5.89-28.18.46-2.24,1.45-3.87,3.92-3.34,2.93.62,6.52,1.5,5.84,5.41-1.75,10.11-3.92,20.14-6.14,30.15-.57,2.6-2.49,3.74-5.34,2.8C4066,1319.42,4064.62,1317.21,4065.23,1313.71Z"/><path class="cls-41" d="M2413.58,449.22c-3.35.85-4.06-1.68-5-3.71-1.12-2.34-1.23-4.68,1.56-5.8,9.77-3.9,19.56-7.73,29.44-11.36,2.84-1.05,4.09,1.45,5.05,3.57s1.35,4.54-1.63,5.72Q2428.28,443.45,2413.58,449.22Z"/><path class="cls-41" d="M2195.69,504.12c-4.21-.92-9.5,2-10-4.57-.53-7.27,5.21-5.1,9.08-5.74,7.19-1.18,14.35-2.54,21.56-3.6,2.85-.42,6.23-1.21,7.05,3.2.76,4-.78,6.37-4.89,7C2210.66,501.67,2202.83,503,2195.69,504.12Z"/><path class="cls-41" d="M1314.39,350c-6.74-3.19-15.34-1.15-23.44-3.3-4-1.05-5.67-3-5-7.05.75-4.47,4.14-3.68,7-3.31,7.88,1,15.72,2.4,23.61,3.42,3.65.47,7.67-.08,7.23,5.63C1323.35,351.25,1319,349.55,1314.39,350Z"/><path class="cls-44" d="M3215.84,179.91a75.46,75.46,0,0,1,16.72,1.65c3.73.86,5,2.56,4.68,6.1-.32,4.42-3.58,4.62-6.44,4-8.82-1.94-17.74-1.59-26.65-1.81-3.24-.08-4.82-1.6-4.82-4.87s1.22-5.05,4.6-5.05Z"/><path class="cls-46" d="M3285.74,186c7,1.16,15.1,2.64,23.29,3.83,4.11.6,4.57,3.1,4.19,6.43-.43,3.8-3.19,3.87-5.91,3.51-9.19-1.2-18.35-2.68-27.55-3.81-3.49-.43-4.37-2.28-4.33-5.36.05-3.45,1.88-4.69,5.06-4.61C3281.82,186,3283.15,186,3285.74,186Z"/><path class="cls-45" d="M3417.43,1861.52c-5.23,0-8.55,0-11.87,0-2.87,0-4-1.72-4.14-4.48-.1-3.08.79-5.32,4.28-5.34a191.5,191.5,0,0,0,28.7-2.1c4.87-.75,4.94,3.19,5.38,6.51.51,3.86-2.41,3.16-4.55,3.39C3428.67,1860.2,3422.25,1862.46,3417.43,1861.52Z"/><path class="cls-41" d="M2299.2,480.28c.08,3.32-2.29,4.29-4.44,4.83-9.24,2.29-18.54,4.4-27.85,6.44-2.43.53-4.79.07-5.19-3-.33-2.57-1-5.62,2.58-6.53,9.87-2.5,19.75-5,29.71-7.14C2298.19,474,2298.28,477.92,2299.2,480.28Z"/><path class="cls-38" d="M862.84,541.39c-.38,1-.69,2-1.1,2.85q-5.62,12.19-11.27,24.37c-1.47,3.18-2.9,6.16-7.39,3.94-3.6-1.79-3.32-4.18-2.12-7.4,3.36-9.06,8-17.51,12.28-26.1,1-2,2.32-3.25,4.7-2C859.92,538.11,862.4,538.61,862.84,541.39Z"/><path class="cls-45" d="M1907.2,503.81c-6.34-1.06-14.82-2.58-23.33-3.83-4.16-.61-4.5-3.21-4.11-6.48.45-3.81,3.3-3.78,6-3.43,9.19,1.2,18.35,2.68,27.55,3.82,3.52.44,4.34,2.39,4.24,5.43-.08,2.77-1.22,4.42-4.13,4.48C1912.07,503.83,1910.74,503.81,1907.2,503.81Z"/><path class="cls-47" d="M3742.36,356.08c-5.83,8.46-5.77,8.37-12.77,3.49-6.54-4.56-13.12-9.09-19.91-13.26-3.24-2-4.08-3.9-2-7.19s4.61-3.25,7.54-1.29Q3728.76,347,3742.36,356.08Z"/><path class="cls-40" d="M3886.1,486.48a20.76,20.76,0,0,1,3.35,2.8c5.92,7.08,11.68,14.3,17.62,21.37,2.11,2.5,2.1,4.49-.25,6.82-2.8,2.77-5.21,2.37-7.52-.41-6.1-7.37-12.15-14.77-18.22-22.16-1.38-1.67-2.1-3.42-.35-5.26C3882.06,488.23,3883.2,486.46,3886.1,486.48Z"/><path class="cls-39" d="M3954.07,576.52c0,2.42-1.9,3.37-3.51,4.4-1.82,1.17-3.9,1.27-5.42-.51a63.23,63.23,0,0,1-4-5.69c-4.11-6.05-7.78-12.47-12.45-18.05-3.6-4.29-1.56-6.37,1.63-8.78,1.75-1.32,3.46-2,5,.37q8.88,13.28,17.81,26.49A19.68,19.68,0,0,1,3954.07,576.52Z"/><path class="cls-44" d="M1025.09,385c.38,1.93-1.12,2.74-2.57,3.52-8.39,4.56-16.83,9-25.17,13.69-3.21,1.79-5.44,1.43-7.37-1.84-2.07-3.5-.51-5.12,2.47-7,8.09-5.16,16.69-9.3,25.29-13.46C1021.31,378.2,1024.75,380.75,1025.09,385Z"/><path class="cls-44" d="M2117.83,511.88c-1.72-.17-4.15,0-6.27-.72s-2-3.14-1.95-5.14c.06-2.24,1-3.91,3.4-4.06,9.86-.64,19.61-2.81,29.58-2.17,3.24.2,4.84,1.47,4.89,4.77.05,3.13-1,5.33-4.44,5.14C2134.72,509.23,2126.66,511.47,2117.83,511.88Z"/><path class="cls-40" d="M1440.48,366.64c.7.21,1.33.38,2,.58,8.55,2.67,17.12,5.27,25.63,8,3.33,1.07,6.53,2.75,5.1,7.07-1.38,4.15-4.84,4-8.26,2.92q-12.79-4.14-25.5-8.51c-2.41-.83-4.13-2.5-3.17-5.3C1437,369.33,1437.52,366.81,1440.48,366.64Z"/><path class="cls-44" d="M2585.21,370.73c.22,1.77-1,2.81-2.57,3.59q-13.33,6.74-26.71,13.42c-2.84,1.43-5.14,1.29-6.21-2.2-.76-2.48-2.1-4.94,1.5-6.66,9-4.31,17.81-8.94,26.81-13.23C2581.66,363.92,2585.1,366.43,2585.21,370.73Z"/><path class="cls-39" d="M816,769.39c-.13-4.68.06-7.28,3.75-7.63,3.38-.31,5.59.38,6.2,4.43,1.36,9.13,3,18.22,4.89,27.25.81,3.76-1.34,4.66-3.88,5.63-3.29,1.25-5.32-.5-5.92-3.38C819,786.35,817.37,776.94,816,769.39Z"/><path class="cls-38" d="M4085.37,1148.82c0-4.33,0-8.65,0-13,0-3.28.46-6,4.7-6,3.86-.06,5.36,1.81,5.32,5.47-.13,9.31-.19,18.62-.29,27.93,0,3.38-2,4.62-5.15,4.55s-4.78-1.74-4.75-5c0-4.65,0-9.31,0-14Z"/><path class="cls-44" d="M3826.41,436.36a11.78,11.78,0,0,1,5.75-5.53l26.08,26.33a11.41,11.41,0,0,1-5.67,5.62Z"/><path class="cls-44" d="M1228.76,343.86c-4.32,0-8.65,0-13,0-3.29,0-5.92-.49-6-4.71-.09-3.94,1.86-5.28,5.48-5.26q13.49.06,27,0c3.57,0,5.6,1.26,5.53,5.23-.09,4.19-2.64,4.81-6,4.76C1237.42,343.82,1233.09,343.86,1228.76,343.86Z"/><path class="cls-48" d="M925.36,991.63c-.51,2.47-2.14,3.68-3.76,4.82-2.07,1.45-3.87.48-5.18-1.2-4.09-5.22-8-10.58-12.12-15.8-1.94-2.47-2.56-4.31.63-6.48,2.81-1.91,5-3.16,7.46.27,3.89,5.38,8,10.65,11.88,16A11.21,11.21,0,0,1,925.36,991.63Z"/><path class="cls-49" d="M1499.86,2187.73c-2.81-1.31-2.19-3.83-2-6,.52-5.27,1.24-10.52,1.88-15.78,1.75.92,3.77,1.53,5.2,2.8,6.12,5.51,5.82,11.57-.74,16.68A29,29,0,0,1,1499.86,2187.73Z"/><path class="cls-50" d="M1713.38,941.72c-10.35.08-20.23-3.23-30.44-4.22-2.83-.28-3.83-2.33-3.82-4.93q.14-22.38.3-44.77c0-2.83,1.44-4.2,4.29-4.19,3.31,0,6.64,0,9.94-.15,4.76-.29,3-3.08,2-5.55,0-.73,0-1.46.05-2.19,3-5.63,1.59-11.74,1.69-17.64.08-4.68,1.76-6.54,6.47-6.4,31.57.9,63.14-.2,94.72,1.28,24.9,1.16,49.88.59,74.82.75,12.72.07,11.84-.82,11.93,11.86.1,13.63-.62,27.23-1.16,40.83-.2,5.06-1.74,7.09-7,7.06-11-.06-21.9-1-32.85-1.2-30.26-.46-60.52-.43-90.79-.6-11.3-.06-22.61-.25-33.92-.18-7,0-7,.27-7.42,7.38C1711.73,926.54,1713.06,934.1,1713.38,941.72Z"/><path class="cls-51" d="M3401.23,1270.51q0,85.92,0,171.84c0,19.5-11.88,35.07-29.84,40.23a38.5,38.5,0,0,1-10.87,1.1c-57.95,0-115.9-.17-173.85.14-21.46.11-39.25-14.84-41.13-40.09-.12-1.65-.07-3.33-.07-5q0-169.35,0-338.68c0-16.11,6.15-29.07,20.08-37.8,7.25-4.55,15.37-6.34,23.77-6.35,56.61-.1,113.23-.2,169.85,0,24,.1,42,18.65,42,42.74Q3401.33,1184.59,3401.23,1270.51Z"/><path class="cls-52" d="M3831.15,1334.64v-130.8c0-2.33.07-4.66,0-7-.08-3.81,1.88-5.32,5.53-5.31,13.65,0,27.3.08,40.94,0,4.32,0,6,2,5.82,6.1-.08,2,0,4,0,6v261.61c0,13.07.8,12.29-12.61,12.27-10.31,0-20.63.07-31,0-8.6-.06-8.72-.13-8.74-9q-.08-50.92,0-101.85Z"/><path class="cls-52" d="M3685.39,1350.64q0-57.92,0-115.83c0-2.33,0-4.66.08-7,.11-2.78,1.61-4.28,4.4-4.29,14.65,0,29.29,0,43.93,0,3.23,0,4.72,2.15,4.93,5.17.17,2.32.18,4.65.18,7V1461.4c0,1.67.06,3.33,0,5-.58,10.45-1.26,11.09-11.77,11.11-11,0-22,.07-33,0-8.62-.06-8.73-.15-8.74-9Q3685.34,1409.56,3685.39,1350.64Z"/><path class="cls-52" d="M3531.48,1369.53q0-47.92,0-95.86c0-9.76.08-9.8,10-9.84,11.65,0,23.31-.07,35,0,8.57.06,8.66.15,8.7,9.07.08,15,0,30,0,44.93v145.8c0,1.66,0,3.33,0,5-.15,8.68-.15,8.77-8.94,8.83q-18,.12-36,0c-8.6-.07-8.71-.17-8.72-9.08Q3531.43,1419,3531.48,1369.53Z"/><path class="cls-52" d="M3457.23,1379.55v-83.92c0-2.33.07-4.66.06-7,0-3.25,1.49-4.9,4.84-4.89q21,0,42,0c3.8,0,5.45,1.78,5.36,5.48,0,2,0,4,0,6V1466c0,1.66-.12,3.34,0,5,.33,4.68-1.76,6.55-6.45,6.5-13-.15-26-.21-39,0-5.26.1-6.93-2.06-6.88-7.09.16-19,.06-38,0-57Q3457.22,1396.54,3457.23,1379.55Z"/><path class="cls-52" d="M3759,1383q0-40.95,0-81.9,0-3.49.11-7c.09-2.84,1.7-4.22,4.44-4.23q21.46,0,42.95,0c3.42,0,4.66,2,4.69,5.08,0,2,.06,4,.06,6v165.81c0,2-.07,4-.07,6,0,3.35-1.78,4.78-5,4.78-14,0-28,0-42,0-3.88,0-5.31-2-5.22-5.61.06-2.33,0-4.66,0-7Z"/><path class="cls-52" d="M3661,1391.64c0,25.6.05,51.21,0,76.81,0,8.9-.14,9-8.73,9-12.31.09-24.61.11-36.91,0-7.65-.07-7.84-.21-7.87-7.89-.1-23.6,0-47.21,0-70.82q0-41.89,0-83.78c0-9.52.12-9.59,9.23-9.65,12-.08,23.94-.11,35.91,0,8.1.07,8.34.24,8.37,8.5C3661.08,1339.77,3661,1365.71,3661,1391.64Z"/><path class="cls-3" d="M3273.14,1989.73c-9.14-1.92-17.18-6.72-25.85-9.86-4.22-1.52-4.48-4.68-4-7.95.74-5.06-2.21-7-6.11-8.45-2.29-2.72-2.77-5.94-2.33-9.3,1.81-13.72,1.31-27.66,3.92-41.29,9.72-23.28,10.38-47.74,9.85-72.48-.23-11.07-4.36-19.78-13.52-25.09-20.73-12-43.06-17.75-66.91-11.77-20.82,5.21-35.11,23-37.69,44.38-.85,7.1,2.58,12.89,4.14,19.26a160.15,160.15,0,0,0,7.23,61.09c4,12.61,9.59,24.12,23.47,29.15,5.42,2,7.67,6.27,4.57,12-3.83,10.58-13.65,13.7-22.51,17.91-22,10.42-43.88,20.87-66.1,30.76-27.19,12.09-43.14,32.46-46.63,63.29-3.34,29.39-10.93,58.18-17.81,87-.77,3.24-1.61,6.47-2.22,9.74-4,21.32-12.81,40.2-25.84,57.69-20.09,27-39,54.78-58.46,82.24-1.34,1.89-2.43,4-4.55,5.21-31.65-.07-63.3-.08-95-.24-14.86-.08-28.17-4.07-38.49-15.62-6.93-7.77-10.94-16.6-11-27.06-.07-15.66,0-31.32,0-47q0-235.36-.21-470.72c0-19.33,11.31-36.79,29.07-43.43,7.24-2.71,15-2.54,22.54-3.45a52,52,0,0,1,6,0q189.42,0,378.82,0a89.72,89.72,0,0,1,23.68,2.85c19.45,5.27,31.92,22.69,32,44.33q.17,77,0,153.91Q3273.21,1953.25,3273.14,1989.73Z"/><path class="cls-14" d="M2363.57,2105.32c0-59.28.53-118.56-.28-177.83-.29-21.53,15.75-36.15,36.15-36.08q139.88.45,279.76-.08c18.54-.08,34.46,15.92,34.39,34.82-.42,120.55-.19,241.1-.22,361.65,0,20.84-13,34.31-33.92,35.25-1.66.08-3.33,0-5,0q-135.87,0-271.76,0a52.89,52.89,0,0,1-10.93-.68c-18.75-3.9-28.08-15-28.18-34.24-.09-19.65,0-39.3,0-58.94Z"/><path class="cls-19" d="M2538.44,1755.31H2382.56c-2.33,0-4.67.09-7,0-7.83-.42-11.62-4-12-11.66-.23-5.32-.2-10.66,0-16,.23-6.59,3.53-10.45,10-11.58a52.41,52.41,0,0,1,9-.33h311.76a67.85,67.85,0,0,1,7,.09c8.13.81,11.75,4.71,12,12.88.12,4.66.14,9.33,0,14-.27,8.82-3.94,12.33-13,12.62-2.32.08-4.66,0-7,0Z"/><path class="cls-19" d="M2538,1835.68H2380c-2.67,0-5.34.09-8-.1-5.08-.36-8.07-3.35-8.32-8.27a175.06,175.06,0,0,1,.06-20c.32-5.16,4.55-9,9.83-9.58a70.72,70.72,0,0,1,8-.13h314.82c2,0,4-.12,6,.05,6.42.58,10.52,4.42,10.85,10.73a171.17,171.17,0,0,1,0,18c-.31,6.19-3.12,8.76-9.42,9.23-2.65.2-5.33.06-8,.06Z"/><path class="cls-7" d="M1477.77,1359.65c14.3-.47,28.32,2.21,42.47,3.4,9.23.78,18.39,2.25,27.66,2.58s10.43,1.31,9.59,10.75c-.73,8.23-1.35,16.49-2.31,24.68-1.37,11.81-2.42,23.64-3.59,35.46-1.5,15.13-3.56,30.21-3.95,45.43-.11,4.41-2.37,5.73-6.33,5.59-9.26-.33-18.53-1.45-27.64-2.56-9.82-1.2-19.78-1.06-29.58-3.1-5.17-1.07-6.54-2.94-6.51-7.67.09-15.61-.06-31.22-.12-46.83Q1477.61,1393.51,1477.77,1359.65Z"/><path class="cls-7" d="M1479.47,1517.72c.08-1,.24-2,.25-3,.07-13.33-3.1-14.24,14.47-12.9,13.8,1.05,27.58,2.67,41.39,3.87,6.43.56,8.3,2.4,8,8.8-.51,11.21-1.35,22.43-2.56,33.59-1.16,10.82-2.85,21.55-3.5,32.45-.83,14.16-2.65,28.26-3.94,42.4-.31,3.4-2.22,4.57-5.27,4.52-4,0-8.14.53-11.89-.44-6.25-1.61-12.48-1.5-18.76-1.49-4.42-12.58-7.25-25.59-10.52-38.5-3.94-13-3.28-26.63-5.18-39.91C1480.6,1537.41,1480.27,1527.53,1479.47,1517.72Z"/><path class="cls-53" d="M1247.12,1379.25c-4-20.32-5.13-53-2.77-70.93C1245.75,1313.69,1248.16,1369.25,1247.12,1379.25Z"/><path class="cls-20" d="M3169.9,1969.45c0-5.45-1.22-9.26-8-10.28s-11.21-6.57-14.91-12.29c-7.39-11.4-10.66-24.31-13.08-37.34a150.55,150.55,0,0,1-2.59-35.68c.14-2.67,0-5.36,2.18-7.41,7.62,1.19,8.45,7.54,10,13.27.92,3.42,0,7.32,2.31,10.57,4.87-1.73,4.31-5.81,4.71-9.24.48-4,.95-7.94,3.2-11.42,5.41-8.36,14.21-8,18.79.84,2.68,5.17,3.8,10.69,2.3,16.46-1.42,5.41.8,9,5.4,11.55a197.83,197.83,0,0,0,25.15,12.23c8.62,3.29,17.32,4.58,26.33,1.26,3.06-1.12,6.28-2.44,9.72-1.25l-4.26,52.75c-15.11,3.56-30.72.45-45.93,3.65C3184.3,1968.58,3176.8,1966.52,3169.9,1969.45Z"/><path class="cls-54" d="M3317.59,2302.17c-2.9-14.23-5.67-28.41-3.92-43,2.7-22.44,4-45,5.54-67.5,1-15.24,1.68-30.51,2.63-45.76.23-3.6,1-7.17,1.68-11.93,4.35,6.46,6.08,12.83,8.54,18.8,8.46,20.59,16.69,41.27,25,61.91,1.39,3.43,2.39,6.56.47,10.41-12.17,24.39-24.08,48.89-36.1,73.34C3320.75,2299.86,3320.33,2301.63,3317.59,2302.17Z"/><path class="cls-2" d="M1715.09,948.17q31.73,4.92,63.44,9.88c2,.31,3.82,1.3,5.76,1.41,5.46.32,4.94,4.15,5,7.83s-.51,6.76-5.23,6.44c-4.92-.33-6.17,2.3-6.09,6.7.13,6.94-.12,13.88-.22,20.82-23.63-2.58-42-13.7-54.84-33.79A54.62,54.62,0,0,1,1715.09,948.17Z"/><path class="cls-7" d="M2171.22,2287.07c-38,0-76,.23-114,0-40.79-.22-69.81-32.62-69.76-69.64q.39-300.87.12-601.75c0-36.86,26.27-67.78,68.62-69.88,2.33-.12,4.66,0,7,0q441.86,0,883.71-.06c11.46,0,22.65,1.31,33.18,5.8,19.75,8.4,33.58,22.31,39,43.62-4.33.07-8.65.21-13,.21q-380.22,0-760.43-.12c-15.49,0-29.83,2.8-42.52,11.58-19.08,13.21-30.46,31.17-31.71,54.81-.23,4.32-.1,8.66-.1,13q0,296.25,0,592.49C2171.39,2273.76,2171.28,2280.41,2171.22,2287.07Z"/><path class="cls-7" d="M1245.81,2185.55a25.31,25.31,0,0,0,7.72,1.77c17.86,1.29,35.82,1.89,53.52,4.36,22.65,3.16,45.45,4.87,68.16,7.07,17.12,1.66,34.22,4,51.47,4.84,14.53.71,28.93,3.65,43.55,3.79,4.5,0,5.33,2.6,5.52,6.46.51,10-1.59,19.89-2.67,29.71-1,9.16-1.54,18.45-2.91,27.64-2.5,16.68-3.17,33.64-4.48,50.48-.56,7.33-.75,8.06-8.36,7.5-15.2-1.12-30.47-2.05-45.49-4.47-10.86-1.75-21.78-1.64-32.64-3.07-18.68-2.46-37.54-3.76-56.3-5.81-8.54-.94-17.13-1.83-25.72-2.5-2-.16-4-.08-5.36-2a82.43,82.43,0,0,0,8.33-3.3c8.2-4.31,8.77-13,1.08-18.3a43.9,43.9,0,0,0-9.86-4.73c-13.12-4.8-26.24-9.6-39.47-14.05-15.43-5.19-25.29-16.71-34.37-29.25-1-1.37-1.9-2.85-1.26-4.59.92-2.53,3.21-1.83,5.09-1.81a27.54,27.54,0,0,1,6,.52c9.65,2.25,8.55,0,9.87-7.58,2.27-13.1,5.56-26,6.77-39.32C1244.07,2187.76,1245.17,2186.67,1245.81,2185.55Z"/><path class="cls-7" d="M1412.13,1923.42c-4.52,23.53-12,46.25-19.13,69-4.75,15.17-9.16,30.5-15.52,45.14-3.92,3.37-8.64,3.07-13.27,2.63-26.75-2.55-53.47-5.47-80.24-7.79-3-.26-6-.72-8.1-3.21,1.23-14.2,5.3-27.85,8-41.77a434.15,434.15,0,0,1,22.38-78c4.24-3.46,9.19-3.3,14.21-2.79,26.36,2.69,52.73,5.37,79.11,7.87C1405,1915.08,1412.24,1914.41,1412.13,1923.42Z"/><path class="cls-55" d="M1361.58,2175.74c-2.13,2.26-4.93,1.75-7.5,1.57-10.21-.72-20.52-.94-30.58-2.61-10.8-1.79-21.7-1.62-32.5-3.15-12.72-1.8-25.65-2.15-38.34-4.41-1.17-.2-2.18-1.32-3.26-2,2.65-20.66,7.35-41,11.13-61.42,3.49-18.83,7.59-37.55,11.43-56.32,3.22-3.1,7.2-3,11.22-2.61,26.07,2.8,52.19,5,78.27,7.65,3.75.38,9.53-.61,8.45,6.55-3.15,12.86-9.37,24.67-13,37.49a30.9,30.9,0,0,0,12.56,2.84c5.56.18,6.38,3.28,6.19,7.88-.14,3.44-1.54,6.41-2.61,9.5-4.78,13.73-9.39,27.52-12.35,41.78C1359.46,2164.22,1357.86,2170.17,1361.58,2175.74Z"/><path class="cls-56" d="M1313.46,1887.19q9.45-32.49,18.91-65c9.58-32.82,19.28-65.61,27.6-98.78.56-2.24,1.38-4.42,2.11-6.69,3.15,1.14,3.4,4.06,4.46,6.28,15.43,32.38,33.45,63.44,48.85,95.85,6.34,13.35,9.41,26.84,8.11,41.42-1.17,13.23-2.39,26.45-6,39.31-5.18,4.28-11.34,3.32-17.15,2.65-26-3-52-5.36-78.06-7.81C1318.08,1894,1312.27,1894.57,1313.46,1887.19Z"/><path class="cls-7" d="M1454.11,2065.37c10.34-1.19,20.34,2.43,30.63,2.12,4.87-.15,5.36,3.41,4.85,6.82-1.23,8.19-1,16.6-2.51,24.61-2.08,11.13-1.15,22.39-3,33.54-1.4,8.35-3.37,16.91-2.53,25.6-8.13-2.75-16.17-5.84-24.42-8.19-16.33-4.64-26.88-16.2-36.5-29.15-2.29-3.08-2-5.93-1.19-9.26.71-2.78,2-3.88,4.88-3.34,4.48.82,9.67,3.36,13.37.56,3.53-2.67,3.24-8.4,4.89-12.7C1446.48,2085.81,1450.27,2075.58,1454.11,2065.37Z"/><path class="cls-10" d="M1313.46,1887.19c.73,3.82,3.56,4,6.72,4.25,23.92,2,47.88,3.56,71.7,6.4,8.56,1,17,1.29,25.59,1.75-1.12,8.1-2.42,16.15-5.34,23.84-1.88-5.72-7.12-5.65-11.46-5.81-24.05-.93-47.79-5.14-71.81-6.5-7.52-.42-15-1.95-22.63-1.64C1308.25,1901.93,1310.23,1894.35,1313.46,1887.19Z"/><path class="cls-17" d="M1369.9,2059c-1.11-3.9-4.32-3.36-7.27-3.54-20.09-1.2-40-3.91-60.08-5.54-10.18-.83-20.28-3.18-30.59-2.5.76-6.17,1.39-12.37,3.91-18.16,15.23,0,30.26,2.44,45.37,3.67,10.19.82,20.29,2.63,30.6,2.68,8.54,0,17,2.45,25.65,2A105.14,105.14,0,0,1,1369.9,2059Z"/><path class="cls-57" d="M1499.8,1947.41c2.7,2.36,2.33,5.67,1.59,8.35-1.71,6.19-1.12,12.5-1.9,18.7-2.66,20.94-4.58,41.94-6,63-.13,2-1.16,3.83-1.35,5.78-.5,5.19-3,6.9-8,5.33-7.44-2.32-15.17-.62-22.73-1.43.11-4.45,2.43-8.19,4-12.16Q1482.52,1991.17,1499.8,1947.41Z"/><path class="cls-57" d="M1503.45,1649.27c.56-1.58,1.13-3.29,3.06-3.53,7.39-.89,15.45-1.23,21.3,2.92,4.68,3.31,2.31,10.76,1.62,16.06-2.15,16.41-2.27,33-5.3,49.33-.9,4.84-.47,10-.46,14.94,0,2.83-1.17,3.5-3.65,2.66C1515.4,1704,1509.48,1676.63,1503.45,1649.27Z"/><path class="cls-58" d="M1438.77,2469.19c-8.37-2.61-19.47-1.17-30.26-3.24a167.14,167.14,0,0,0-21.7-2.33c-17.21-1-34.38-2.65-51.45-4.64-24.33-2.84-48.81-4-73.1-7.34-17-2.37-34.32-2.89-51.47-4.45-12.85-1.18-25.58-3.58-38.51-4-3.5-.11-4.49-2.22-4.14-5.37,2.49-22.69,5.48-45.33,7.26-68.07,1.11-14.21,2.61-28.34,4.17-42.49.55-5,2.72-6.28,7.09-5.73,20,2.53,40.17,4.1,60.27,6,20.76,2,41.52,3.93,62.27,6s41.5,4.08,62.25,6.13c19.76,1.94,39.51,4,59.29,5.88,7.25.67,14.45,1.61,21.76,1.87,7.65.28,9.46,2.13,9.11,9.76-.47,10.24-1.52,20.47-2.48,30.69-1.05,11.19-2.33,22.37-3.43,33.56q-2.13,21.73-4.12,43.49c-.26,2.8-1.73,4.19-4.5,4.23C1445.09,2469.22,1443.09,2469.19,1438.77,2469.19Z"/><path class="cls-59" d="M1150.69,2743.22c6.87.81,15.91,1.21,24.65,2.6,11.19,1.77,22.45,1.31,33.63,3.09,18.29,2.92,36.92,3.17,55.29,5.81,7.52,1.07,15.2,1.7,22.74,2.11,23.52,1.27,46.79,4.9,70.26,6.56,19.47,1.37,38.85,4,58.3,5.69,4.86.42,6.55,2.37,6,6.84-1.73,15.45-3.51,30.9-5.22,46.36-1,9.21-1.63,18.49-2.34,27.72-.74,9.57-3.3,19-2.49,28.71a10.7,10.7,0,0,1-.4,2.95c-1.88,9.48-1.84,8.87-11.44,8.07-10.24-.86-20.51-1.28-30.71-2.61-17.73-2.31-35.65-2.64-53.33-5.52-7.18-1.18-14.49-1.1-21.76-2-17.72-2.27-35.73-2.39-53.44-4.72-16.42-2.16-32.92-3.44-49.36-5.13-9.54-1-19.08-2.32-28.71-2.67-8.6-.32-17.11-1.87-25.73-2.38-8.28-.48-9.58-2.44-8.78-11,1.57-16.8,3.56-33.55,5.46-50.32.82-7.23,1.19-14.53,1.87-21.77.88-9.2,2.85-18.33,2.65-27.7C1137.66,2743.71,1138.62,2743.11,1150.69,2743.22Z"/><path class="cls-59" d="M1136.18,2883.23c15.86,3.14,33.2,2.86,50.25,5.45,6.84,1,13.82,1.5,20.74,2.21,17.8,1.81,35.7,2.65,53.51,4.4,23.72,2.32,47.38,5.3,71.1,7.65,17.15,1.71,34.35,2.83,51.53,4.28,6.6.55,13,2.46,19.77,2.08,4.17-.23,4.55,2.88,4.62,6.13.17,8-1.18,16-2.54,23.68-1.74,9.88-1.88,19.86-2.8,29.68-1.6,17.14-4.15,34.23-4.72,51.48-.32,9.85-3,12.37-12.19,10.21-9.79-2.32-19.78-1.5-29.66-3-16.33-2.53-33.07-2.37-49.46-4.68-16.74-2.36-33.62-3-50.37-5.32-16.39-2.26-33-2.83-49.5-4.42-17.8-1.72-35.53-4.26-53.36-5.44-10.26-.67-20.35-2.93-30.73-2.67-7.58.19-9.46-2.24-8.38-9.86,2.86-20.36,4-40.87,6.06-61.3,1.35-13.51,3.34-26.93,4-40.53C1124.47,2884.05,1126.33,2882.88,1136.18,2883.23Z"/><path class="cls-59" d="M1163.87,2602.84c11.85,1.3,23.71,2.52,35.55,3.92,7.56.9,15.17,1,22.77,2.06,17.06,2.3,34.34,2.88,51.5,4.54,16.13,1.57,32.23,3.61,48.34,5.46,7.9.91,15.84.84,23.79,2,16.38,2.33,33,3,49.49,4.53,11.86,1.12,23.69,2.68,35.55,3.86,4.07.41,4.89,2.53,4.4,6.09-2.68,19.36-4.28,38.82-5.76,58.31-1.33,17.48-3.85,34.87-5.7,52.32-.4,3.8-1.71,4.93-5.74,4.49-18.11-2-36.34-3-54.37-5.42-17.75-2.41-35.61-3.44-53.39-5.27-16.46-1.7-32.94-3.59-49.49-4.71-17.16-1.15-34.21-3.73-51.35-5.35-7.92-.75-15.88-1.8-23.75-2.09-10.32-.37-20.4-3-30.76-2.56-2.57.1-5.16-1.25-7.78-1.47-4.28-.36-5.74-2.64-5.42-6.63.84-10.58.92-21.28,2.66-31.7s1.6-21.12,3.12-31.64c2.18-15.06,3-30.32,4.31-45.5.28-3.24,1.75-4.87,5-4.86h7Z"/><path class="cls-59" d="M1155.17,2582.62c1.22-23.07,4.31-45.08,6.12-67.19,1.3-15.87,3.84-31.61,4.44-47.52.16-4.36.82-7,6.37-5.64,8.71,2.19,17.82,1.77,26.69,2.53,24.12,2.06,48.12,5.15,72.29,6.8,22.77,1.56,45.37,5.65,68.14,7.22,17.22,1.19,34.31,3.45,51.51,4.64,15.2,1.05,30.3,3.31,45.56,4.17,11.29.63,11.87,1.63,11.29,12.73-.56,10.57-1.91,21.1-3.13,31.62-1.18,10.22-1,20.5-2.54,30.73-2.1,13.74-3,27.66-4.15,41.53-.39,4.7-3.24,5-6.86,5.1-12,.46-23.77-2.24-35.73-2.8-10.89-.51-21.73-2.16-32.6-3.32-17.45-1.86-35-2.66-52.37-5.46-7.87-1.27-15.83-.88-23.79-2-16.38-2.37-33.05-2.59-49.48-4.67-17.11-2.16-34.32-2.91-51.42-5.19C1175.72,2584.56,1165.81,2583.75,1155.17,2582.62Z"/><path class="cls-56" d="M1752.51,2214.32c-11.7-8.42-21.7-19.13-33-28.28-4.91-4-9.75-8.05-14.25-12.45-4.76-4.65-5.17-11-1.51-15.11,3.82-4.27,9.24-4,14.89.82,9.33,8,18.79,15.85,27.8,24.19,3.63,3.36,5.79,3.11,8.89-.37,10.61-11.91,21.41-23.64,32.15-35.43,4.26-4.67,8.37-9.48,12.83-13.93,5.31-5.29,9.12-5.47,13.76-1.23,4.47,4.09,4.94,8.72.64,14.16-4.53,5.72-9.56,11-14.45,16.49q-21,23.36-42.08,46.62C1756.63,2211.5,1755.25,2213.48,1752.51,2214.32Z"/><path class="cls-7" d="M2683,1155.65c13.4.16,25.1,11.76,24.31,24.74-1.1,18-15.25,25.77-26.47,25.29-12.64-.55-23.56-12.21-23.44-25.7C2657.57,1165.8,2668.43,1155.48,2683,1155.65Z"/><path class="cls-7" d="M2849.76,1199.57c14.68,0,25.64,10.49,25.65,24.37,0,14.77-11.34,24.81-26.36,25.3-12.62.41-23.6-11.78-23.63-24.63C2825.38,1209.26,2834.8,1199.57,2849.76,1199.57Z"/><path class="cls-7" d="M2438.09,1335.52c13-2,24.47,11.13,25.06,24.22.54,12-13.36,26.15-24.83,25.62-12-.56-26.28-10-25.08-26.47C2414.33,1343.93,2422.44,1335.45,2438.09,1335.52Z"/><path class="cls-7" d="M2241,1297.71c-11.77,2.51-25.53-11.88-25.42-23.83s10.31-25.28,25.7-25.29,24.76,11.23,24.41,25.59S2256.07,1297.77,2241,1297.71Z"/><path class="cls-52" d="M3639.39,2189.46c-18.33-45.14,13.49-92.46,57.68-96.45,10.87.61,21.61-.07,32.39,3.86,35.34,12.9,61.29,60.14,34.72,103.23-18.37,29.79-61.67,46.27-100.3,20.23C3652.59,2212.72,3645.66,2201.25,3639.39,2189.46Z"/><path class="cls-7" d="M1667.44,1904.27c0-18.66.61-37.35-.19-56-.69-16,12.36-33.06,30.34-35.22a131.77,131.77,0,0,1,15.89-1.3q46,.12,92,0a92.43,92.43,0,0,1,16.87,1.49c16.14,2.9,29,17.1,29.13,33.42q.43,57.48,0,115c-.15,20.17-15.94,35.25-36.88,35.5-25.66.3-51.32.09-77,.09-11,0-22-.2-33,0-22.91.45-39.23-19.51-37.22-37a16.67,16.67,0,0,0,0-2Z"/><path class="cls-7" d="M1667.44,1636.76c0-19,.45-38-.13-57-.43-13.89,11-32.19,30-34.55a132.33,132.33,0,0,1,16.87-1.39c28.33.07,56.65.18,85-.07a178.72,178.72,0,0,1,23.85,1.83c15.14,1.89,28.13,17.85,28.54,35,.35,14.32.13,28.65.14,43,0,22.32-.46,44.65.12,67,.61,23.28-18.77,39.45-38.91,39.06-36.31-.71-72.64-.11-109-.27-16.91-.07-30.74-10.47-35.35-25.74-1.09-3.6-1.11-7.22-1.12-10.87Q1667.41,1664.74,1667.44,1636.76Z"/><path class="cls-59" d="M2190,2639c26.26-.61,50.64,22.92,49.76,51.49-.85,27.57-23.11,49.16-51.41,48.87-27.75-.29-49.29-22.67-49.07-51C2139.51,2660.62,2161.92,2638.81,2190,2639Z"/><path class="cls-3" d="M3387.31,1270.12V1436c0,2.33.07,4.67,0,7-.73,16.29-11.16,26.69-27.41,26.72q-86.43.18-172.88,0c-16.37,0-26.79-10.33-27.54-26.58-.09-2,0-4,0-6q0-166.87,0-333.74c0-4.62-.54-9.29,1.08-13.85a28.84,28.84,0,0,1,26.32-19.69c5.64-.3,11.32-.08,17-.08q75.94,0,151.9,0c13.63,0,23.71,5.21,29.68,17.81,2.11,4.44,1.9,9.06,1.9,13.7Q3387.33,1185.7,3387.31,1270.12Z"/><path class="cls-60" d="M3241.43,1910.72c-11.59,7.11-23.71,7.68-36.33,3.12-11-4-21-10-31.11-15.65-3.34-1.87-3.74-4-2.77-7.31,1.89-6.53,2.11-13.12-.66-19.51-3.35-7.74-9.33-8.39-14.28-1.67-2.71,3.7-3.33,7.88-3.06,12.3a17.16,17.16,0,0,1-2.32,10.51,6.43,6.43,0,0,1-6.85,3c-3.32-.51-2.48-3.45-2.49-5.6,0-8.76-.21-17.42-8-23.49-7.19-6-6.93-14.07-5.48-22.09,5.5-30.33,31.94-49.41,62.67-45.73,12.62,1.51,25,3.66,36.75,8.77a49.87,49.87,0,0,1,17.23,11.68c3.53,3.83,6,8.28,6.24,13.32,1,19.95,2,39.94-2.58,59.66A67.93,67.93,0,0,1,3241.43,1910.72Z"/></g></g></svg>