<svg xmlns="http://www.w3.org/2000/svg" viewBox="0 0 511.94 377.13"><defs><style>.cls-1{fill:#fff;}</style></defs><title>tick</title><g id="Layer_2" data-name="Layer 2"><g id="Layer_1-2" data-name="Layer 1"><path class="cls-1" d="M502.79,45.5l-324,324s-4.5,6.5-14.5,7.5c-11,1-17-5-17-5L9.44,234.19A31.92,31.92,0,0,1,.33,216.57C-.61,210.38.2,203.09,6.27,197a26.66,26.66,0,0,1,10.85-6.63A28.56,28.56,0,0,1,46,197.79L161.27,314l305-305A30,30,0,0,1,490.94.2,23.88,23.88,0,0,1,505.27,7a23.14,23.14,0,0,1,6.67,16.75A30.59,30.59,0,0,1,502.79,45.5Z"/></g></g></svg>