<svg xmlns="http://www.w3.org/2000/svg" viewBox="0 0 490.46 491.04"><defs><style>.cls-1{fill:#fefefe;}</style></defs><title>unpublish</title><g id="Layer_2" data-name="Layer 2"><g id="Layer_1-2" data-name="Layer 1"><path class="cls-1" d="M245.1,201c-68.76.11-124.67,56.22-124.59,125A124.94,124.94,0,1,0,245.1,201ZM281.26,329.3c12.38,12.12,24.53,24.47,36.85,36.66,2.06,2,3,3.25.29,5.81-9.27,8.86-18.3,18-27.24,27.18-2.14,2.21-3.25,2.26-5.44,0-12.37-12.6-25-25-37.35-37.56-2.24-2.28-3.44-2.45-5.78-.06-12.24,12.5-24.74,24.74-37,37.23-2.37,2.42-3.69,2.67-6.18.08-8.66-9-17.46-17.87-26.51-26.48-2.89-2.76-2.31-4.09.2-6.55,12.25-12,24.21-24.32,36.53-36.26,3-2.87,2.47-4.29-.17-6.87-12.26-12-24.22-24.31-36.52-36.26-2.8-2.71-2.5-4,.11-6.55q13.5-13,26.5-26.5c2.29-2.37,3.51-2.36,5.82,0,12.24,12.49,24.75,24.72,37,37.22,2.41,2.47,3.66,2.61,6.15.06,12.22-12.51,24.73-24.75,37-37.22,2.23-2.27,3.45-2.55,5.82-.1,8.9,9.23,18.08,18.2,27.12,27.3.79.79,1.94,1.35,2.1,3-.78.82-1.66,1.78-2.59,2.71-12.24,12.25-24.39,24.61-36.83,36.66C278.26,325.54,278.73,326.82,281.26,329.3Z"/><path class="cls-1" d="M450.47,146.56a175.23,175.23,0,0,0,0,20c.2,3.77-.88,4.62-4.61,4.61-40.48-.15-80.95-.1-121.43-.1H245q-99.7,0-199.4.11c-4.15,0-5.36-.93-5.12-5.12a186.55,186.55,0,0,0,0-20.48c-.19-3.77.88-4.61,4.6-4.6,38,.16,76,.09,114,.09q142.92,0,285.85-.1C449.35,140.94,450.76,142,450.47,146.56Z"/><path class="cls-1" d="M490.45,5.62c.06-4.51-1.08-5.63-5.61-5.62Q365.4.22,246,.11,125.52.11,5.07,0C1.37,0,.4.82.45,4.6c.24,17.32.09,34.65.12,52,0,4.65-1.66,10.85.67,13.52,2.7,3.1,9,1,13.81,1q235.13.09,470.27.15c4.12,0,5.18-.91,5.13-5.09Q490.08,35.86,490.45,5.62ZM443.58,51.09q-83.41,0-166.81,0c-8.14,0-13.66-4-15.75-11.16a14.73,14.73,0,0,1,6-16.16A16.91,16.91,0,0,1,277,21.08q41.7.08,83.41,0,41.44,0,82.9,0c10.16,0,17,6,17.08,14.82S453.59,51.08,443.58,51.09Zm46.87,55.49c0-4.52-1.1-5.62-5.62-5.62q-119.7.23-239.39.11-119.94,0-239.88-.1c-4.15,0-5.11,1-5.11,5.1q.19,189.68,0,379.35c0,4.52,1.08,5.62,5.61,5.62q239.64-.19,479.27,0c4.15,0,5.12-1,5.11-5.11Q490.26,296.26,490.45,106.58Zm-20,358.85c0,4.53-1.11,5.62-5.62,5.61q-219.64-.19-439.29,0c-4.16,0-5.1-1-5.1-5.12q.19-169.92,0-339.86c0-4.16,1-5.11,5.12-5.1q110.19.21,220.39.11,109.7,0,219.39-.11c4.15,0,5.11,1,5.11,5.11Q470.26,295.75,470.45,465.43Z"/><path d="M245.1,201c-68.76.11-124.67,56.22-124.59,125A124.94,124.94,0,1,0,245.1,201ZM281.26,329.3c12.38,12.12,24.53,24.47,36.85,36.66,2.06,2,3,3.25.29,5.81-9.27,8.86-18.3,18-27.24,27.18-2.14,2.21-3.25,2.26-5.44,0-12.37-12.6-25-25-37.35-37.56-2.24-2.28-3.44-2.45-5.78-.06-12.24,12.5-24.74,24.74-37,37.23-2.37,2.42-3.69,2.67-6.18.08-8.66-9-17.46-17.87-26.51-26.48-2.89-2.76-2.31-4.09.2-6.55,12.25-12,24.21-24.32,36.53-36.26,3-2.87,2.47-4.29-.17-6.87-12.26-12-24.22-24.31-36.52-36.26-2.8-2.71-2.5-4,.11-6.55q13.5-13,26.5-26.5c2.29-2.37,3.51-2.36,5.82,0,12.24,12.49,24.75,24.72,37,37.22,2.41,2.47,3.66,2.61,6.15.06,12.22-12.51,24.73-24.75,37-37.22,2.23-2.27,3.45-2.55,5.82-.1,8.9,9.23,18.08,18.2,27.12,27.3.79.79,1.94,1.35,2.1,3-.78.82-1.66,1.78-2.59,2.71-12.24,12.25-24.39,24.61-36.83,36.66C278.26,325.54,278.73,326.82,281.26,329.3Z"/><path d="M450.47,146.56a175.23,175.23,0,0,0,0,20c.2,3.77-.88,4.62-4.61,4.61-40.48-.15-80.95-.1-121.43-.1H245q-99.7,0-199.4.11c-4.15,0-5.36-.93-5.12-5.12a186.55,186.55,0,0,0,0-20.48c-.19-3.77.88-4.61,4.6-4.6,38,.16,76,.09,114,.09q142.92,0,285.85-.1C449.35,140.94,450.76,142,450.47,146.56Z"/><path d="M490.45,106.58c0-4.52-1.1-5.62-5.62-5.62q-119.7.23-239.39.11-119.94,0-239.88-.1c-4.15,0-5.11,1-5.11,5.1q.19,189.68,0,379.35c0,4.52,1.08,5.62,5.61,5.62q239.64-.19,479.27,0c4.15,0,5.12-1,5.11-5.11Q490.26,296.26,490.45,106.58Zm-20,358.85c0,4.53-1.11,5.62-5.62,5.61q-219.64-.19-439.29,0c-4.16,0-5.1-1-5.1-5.12q.19-169.92,0-339.86c0-4.16,1-5.11,5.12-5.1q110.19.21,220.39.11,109.7,0,219.39-.11c4.15,0,5.11,1,5.11,5.11Q470.26,295.75,470.45,465.43Z"/><path d="M490.45,5.62c.06-4.51-1.08-5.63-5.61-5.62Q365.4.22,246,.11,125.52.11,5.07,0C1.37,0,.4.82.45,4.6c.24,17.32.09,34.65.12,52,0,4.65-1.66,10.85.67,13.52,2.7,3.1,9,1,13.81,1q235.13.09,470.27.15c4.12,0,5.18-.91,5.13-5.09Q490.08,35.86,490.45,5.62ZM443.58,51.09q-83.41,0-166.81,0c-8.14,0-13.66-4-15.75-11.16a14.73,14.73,0,0,1,6-16.16A16.91,16.91,0,0,1,277,21.08q41.7.08,83.41,0,41.44,0,82.9,0c10.16,0,17,6,17.08,14.82S453.59,51.08,443.58,51.09Z"/><path class="cls-1" d="M245.1,201c-68.76.11-124.67,56.22-124.59,125A124.94,124.94,0,1,0,245.1,201ZM281.26,329.3c12.38,12.12,24.53,24.47,36.85,36.66,2.06,2,3,3.25.29,5.81-9.27,8.86-18.3,18-27.24,27.18-2.14,2.21-3.25,2.26-5.44,0-12.37-12.6-25-25-37.35-37.56-2.24-2.28-3.44-2.45-5.78-.06-12.24,12.5-24.74,24.74-37,37.23-2.37,2.42-3.69,2.67-6.18.08-8.66-9-17.46-17.87-26.51-26.48-2.89-2.76-2.31-4.09.2-6.55,12.25-12,24.21-24.32,36.53-36.26,3-2.87,2.47-4.29-.17-6.87-12.26-12-24.22-24.31-36.52-36.26-2.8-2.71-2.5-4,.11-6.55q13.5-13,26.5-26.5c2.29-2.37,3.51-2.36,5.82,0,12.24,12.49,24.75,24.72,37,37.22,2.41,2.47,3.66,2.61,6.15.06,12.22-12.51,24.73-24.75,37-37.22,2.23-2.27,3.45-2.55,5.82-.1,8.9,9.23,18.08,18.2,27.12,27.3.79.79,1.94,1.35,2.1,3-.78.82-1.66,1.78-2.59,2.71-12.24,12.25-24.39,24.61-36.83,36.66C278.26,325.54,278.73,326.82,281.26,329.3Z"/><path class="cls-1" d="M450.45,166.54c.2,3.77-.88,4.62-4.61,4.61-40.48-.15-80.95-.1-121.43-.1H245q-99.7,0-199.4.11c-4.15,0-5.36-.93-5.12-5.12a186.55,186.55,0,0,0,0-20.48c-.19-3.77.88-4.61,4.6-4.6,38,.16,76,.09,114,.09q142.92,0,285.85-.1c4.51,0,5.92,1.05,5.63,5.61A175.23,175.23,0,0,0,450.45,166.54Z"/><path d="M245.1,201c-68.76.11-124.67,56.22-124.59,125A124.94,124.94,0,1,0,245.1,201ZM281.26,329.3c12.38,12.12,24.53,24.47,36.85,36.66,2.06,2,3,3.25.29,5.81-9.27,8.86-18.3,18-27.24,27.18-2.14,2.21-3.25,2.26-5.44,0-12.37-12.6-25-25-37.35-37.56-2.24-2.28-3.44-2.45-5.78-.06-12.24,12.5-24.74,24.74-37,37.23-2.37,2.42-3.69,2.67-6.18.08-8.66-9-17.46-17.87-26.51-26.48-2.89-2.76-2.31-4.09.2-6.55,12.25-12,24.21-24.32,36.53-36.26,3-2.87,2.47-4.29-.17-6.87-12.26-12-24.22-24.31-36.52-36.26-2.8-2.71-2.5-4,.11-6.55q13.5-13,26.5-26.5c2.29-2.37,3.51-2.36,5.82,0,12.24,12.49,24.75,24.72,37,37.22,2.41,2.47,3.66,2.61,6.15.06,12.22-12.51,24.73-24.75,37-37.22,2.23-2.27,3.45-2.55,5.82-.1,8.9,9.23,18.08,18.2,27.12,27.3.79.79,1.94,1.35,2.1,3-.78.82-1.66,1.78-2.59,2.71-12.24,12.25-24.39,24.61-36.83,36.66C278.26,325.54,278.73,326.82,281.26,329.3Z"/><path d="M450.45,166.54c.2,3.77-.88,4.62-4.61,4.61-40.48-.15-80.95-.1-121.43-.1H245q-99.7,0-199.4.11c-4.15,0-5.36-.93-5.12-5.12a186.55,186.55,0,0,0,0-20.48c-.19-3.77.88-4.61,4.6-4.6,38,.16,76,.09,114,.09q142.92,0,285.85-.1c4.51,0,5.92,1.05,5.63,5.61A175.23,175.23,0,0,0,450.45,166.54Z"/></g></g></svg>